<?xml version="1.0" encoding="UTF-8"?>
<svg xmlns="http://www.w3.org/2000/svg" viewBox="0 0 1665 379.99">
  <defs>
    <style>
      .cls-1 {
        fill: #121312;
      }

      .cls-2 {
        fill: #fff;
      }

      .cls-3 {
        fill: #121615;
      }

      .cls-4 {
        fill: #121210;
      }

      .cls-5 {
        fill: #000506;
      }

      .cls-6 {
        fill: #100f0b;
      }

      .cls-7 {
        fill: #12100e;
      }

      .cls-8 {
        fill: #08b2e4;
      }

      .cls-9 {
        fill: #0f0d0a;
      }

      .cls-10 {
        fill: #121412;
      }

      .cls-11 {
        fill: #14100e;
      }

      .cls-12 {
        fill: #14110e;
      }

      .cls-13 {
        fill: #121716;
      }

      .cls-14 {
        fill: #00090c;
      }

      .cls-15 {
        fill: #07bff9;
        stroke: #1d1d1b;
        stroke-miterlimit: 10;
        stroke-width: 10px;
      }

      .cls-16 {
        fill: #12100d;
      }

      .cls-17 {
        fill: #141111;
      }

      .cls-18 {
        fill: #13110f;
      }

      .cls-19 {
        fill: #13100d;
      }

      .cls-20 {
        fill: #16110f;
      }

      .cls-21 {
        fill: #4a93a9;
      }

      .cls-22 {
        fill: #13100e;
      }

      .cls-23 {
        fill: #121311;
      }

      .cls-24 {
        fill: #0f0e0a;
      }

      .cls-25 {
        fill: #121413;
      }

      .cls-26 {
        fill: #0e0d09;
      }

      .cls-27 {
        fill: #0e0c09;
      }

      .cls-28 {
        fill: #13100f;
      }
    </style>
  </defs>
  <g id="_лой_1" data-name="Слой 1"/>
  <g id="_лой_2" data-name="Слой 2">
    <g id="_лой_1-2" data-name="Слой 1">
      <rect class="cls-15" x="5" y="5" width="1655" height="369.99" rx="32.75" ry="32.75"/>
    </g>
    <g id="discover">
      <g>
        <g>
          <path class="cls-2" d="M1602.27,295.55c.67,2.97-.2,5.54-1.18,8.09-1.54,3.99-4.13,7.24-7.75,9.64-3.91,2.58-7.72,5.51-12.44,6.26-6.25,1-12.53,2.23-18.94,.99-2.14-.41-4.35-.4-6.51-.71-2.38-.34-4.58-1.15-6.65-2.46-4.62-2.92-9.65-4.94-15.18-4.6-3.21,.19-6.38,1.29-9.56,2.03-4.44,1.03-8.84,2.28-13.31,3.12-3.94,.75-7.68-.38-11.29-1.99-5.1-2.26-10.31-4.37-15.9-4.77-3.63-.26-7.41-.11-10.95,.65-6.87,1.47-13.59,3.65-20.44,5.25-3.56,.82-7.25,1.11-10.89,1.47-1.45,.14-2.93-1.35-4.41,.02-1.29-.76-2.61-1.46-3.85-2.27-3.42-2.23-7.09-4.17-10.13-6.83-5.75-5.04-8.61-11.9-10.25-19.18-1.08-4.82-2.21-9.72-1.86-14.73,.39-5.64,.81-11.27,2.75-16.68,1.79-4.98,2.7-10.16,2.66-15.5-.02-2.07,.52-4.17,.38-6.23-.26-3.96-.57-7.94-1.33-11.82-1.29-6.6-.87-13.02,1.14-19.38,1.58-5.02,3.48-9.95,4.72-15.05,1.18-4.83,1.39-9.8,.59-14.81-.87-5.38-1.38-10.82-1.96-16.25-.63-5.92-1.38-11.84-1.69-17.78-.51-9.64,1.08-18.84,6.63-27.04,2.34-3.45,6.09-4.71,9.65-6.2,5.46-2.29,10.43-1.55,15.42,1.88,8.18,5.64,12.42,13.29,13.82,23,.85,5.81,1.83,11.57,1.65,17.27,.01,6.18-.39,12.1-1.61,17.98-1.4,6.76-.67,13.41,1.5,19.98,1.49,4.51,2.64,9.14,3.81,13.75,1.24,4.84,.76,9.68-.28,14.49-1.26,5.81-2.88,11.57-3.76,17.43-1.08,7.26-2.36,14.54-2.01,21.95,.34,7.19,3.26,13.04,9.04,17.36,2.05,1.53,4.42,1.94,7.01,1.78,6.8-.4,13.2-2.63,19.79-4.03,6.98-1.48,13.92-3.13,21.11-3.37,3.18-.11,5.93,.75,8.3,2.72,2.95,2.46,6.31,3.55,10.09,3.98,7.73,.87,15.48,1.26,23.25,1.05,3.68-.11,7.36-.53,11.04-.44,6.11,.16,12,1.53,17.48,4.36,6.48,3.34,10.69,8.38,12.3,15.62Z"/>
          <path class="cls-27" d="M1609.72,294.18c.7,3.27,.35,6.56-.72,9.75-1.88,5.53-4.91,10.26-9.66,13.74-6.88,5.06-14.31,8.71-23.11,8.67-.4,0-.79,.1-1.19,.16-5.2,0-10.4-.01-15.6-.01-.78-.15-1.56-.43-2.35-.45-4.92-.11-9.32-1.76-13.57-4.17-3.97-2.25-8.29-2.57-12.75-1.46-5.71,1.41-11.41,2.84-17.17,3.96-5.5,1.07-10.93,.74-16.06-1.87-1.6-.81-3.34-1.32-4.97-2.05-7.34-3.31-14.86-3.53-22.51-1.39-6.71,1.88-13.4,3.86-20.1,5.8-2.53,.73-5.07,.9-7.69,.48-1.25-.21-2.58,.05-3.81-.19-1.84-.34-3.85-.57-5.41-1.5-4.62-2.74-9.16-5.65-13.52-8.79-2.86-2.07-4.83-5.09-6.24-8.31-6.25-14.28-8.95-29.1-6.19-44.64,.29-1.66,.75-3.31,1.35-4.88,2.1-5.52,2.53-11.25,2.54-17.07,0-5.4-.64-10.73-1.51-16.07-1.3-7.95-.29-15.75,2.81-23.17,4.08-9.74,4.46-19.7,2.68-29.95-1.93-11.12-3.28-22.31-3.23-33.62,.04-7.2,1.72-13.95,4.92-20.46,4.12-8.39,11.06-12.8,19.68-15.22,.88-.25,1.68-.52,2.78-.65,1.6,0,2.87,.03,4.47,.03,.52,.09,.62,0,.94,.1,13.73,4.39,21.85,13.76,24.59,27.82,1.38,7.07,1.81,14.24,1.76,21.45-.04,7.29-.12,14.55-1.53,21.76-.82,4.19-.14,8.35,1.11,12.41,1.52,4.96,3.14,9.89,4.45,14.91,1.75,6.71,1.07,13.43-.27,20.17-1.87,9.49-4.09,18.92-4.92,28.6-.45,5.28-.23,10.35,2.29,15.15,.69,1.31,1.31,2.72,1.66,4.15,.43,1.74,1.43,2.05,3.04,2.06,5.77,0,11.19-1.58,16.65-3.22,4.56-1.37,9.21-2.5,13.85-3.57,1.63-.38,3.38-.39,5.06-.36,3.49,.07,6.97,.33,10.46,.42,2.61,.06,5.08,.82,6.91,2.5,3.97,3.68,8.8,4.4,13.83,4.72,8.09,.53,16.17,.33,24.25-.27,8.04-.6,15.92,.04,23.61,2.77,10.4,3.71,16.14,11.26,18.39,21.76Zm-8.63,9.46c.98-2.55,1.85-5.12,1.18-8.09-1.61-7.24-5.82-12.28-12.3-15.62-5.48-2.83-11.37-4.2-17.48-4.36-3.68-.09-7.36,.33-11.04,.44-7.77,.21-15.52-.18-23.25-1.05-3.78-.43-7.14-1.52-10.09-3.98-2.37-1.97-5.12-2.83-8.3-2.72-7.19,.24-14.13,1.89-21.11,3.37-6.59,1.4-12.99,3.63-19.79,4.03-2.59,.16-4.96-.25-7.01-1.78-5.78-4.32-8.7-10.17-9.04-17.36-.35-7.41,.93-14.69,2.01-21.95,.88-5.86,2.5-11.62,3.76-17.43,1.04-4.81,1.52-9.65,.28-14.49-1.17-4.61-2.32-9.24-3.81-13.75-2.17-6.57-2.9-13.22-1.5-19.98,1.22-5.88,1.62-11.8,1.61-17.98,.18-5.7-.8-11.46-1.65-17.27-1.4-9.71-5.64-17.36-13.82-23-4.99-3.43-9.96-4.17-15.42-1.88-3.56,1.49-7.31,2.75-9.65,6.2-5.55,8.2-7.14,17.4-6.63,27.04,.31,5.94,1.06,11.86,1.69,17.78,.58,5.43,1.09,10.87,1.96,16.25,.8,5.01,.59,9.98-.59,14.81-1.24,5.1-3.14,10.03-4.72,15.05-2.01,6.36-2.43,12.78-1.14,19.38,.76,3.88,1.07,7.86,1.33,11.82,.14,2.06-.4,4.16-.38,6.23,.04,5.34-.87,10.52-2.66,15.5-1.94,5.41-2.36,11.04-2.75,16.68-.35,5.01,.78,9.91,1.86,14.73,1.64,7.28,4.5,14.14,10.25,19.18,3.04,2.66,6.71,4.6,10.13,6.83,1.24,.81,2.56,1.51,3.85,2.27,1.48-1.37,2.96,.12,4.41-.02,3.64-.36,7.33-.65,10.89-1.47,6.85-1.6,13.57-3.78,20.44-5.25,3.54-.76,7.32-.91,10.95-.65,5.59,.4,10.8,2.51,15.9,4.77,3.61,1.61,7.35,2.74,11.29,1.99,4.47-.84,8.87-2.09,13.31-3.12,3.18-.74,6.35-1.84,9.56-2.03,5.53-.34,10.56,1.68,15.18,4.6,2.07,1.31,4.27,2.12,6.65,2.46,2.16,.31,4.37,.3,6.51,.71,6.41,1.24,12.69,.01,18.94-.99,4.72-.75,8.53-3.68,12.44-6.26,3.62-2.4,6.21-5.65,7.75-9.64Z"/>
        </g>
        <path class="cls-2" d="M1465.21,150.93c.02,6.18-.39,12.1-1.61,17.99-1.4,6.75-.67,13.4,1.5,19.97,1.49,4.51,2.64,9.14,3.81,13.75,1.23,4.84,.76,9.68-.28,14.49-1.26,5.81-2.89,11.56-3.76,17.43-1.08,7.26-2.37,14.54-2.01,21.95,.34,7.19,3.26,13.03,9.04,17.36,2.05,1.53,4.41,1.94,7,1.78,6.8-.41,13.21-2.63,19.79-4.03,6.98-1.48,13.92-3.14,21.11-3.38,3.18-.11,5.93,.75,8.3,2.73,2.95,2.46,6.31,3.55,10.09,3.97,7.74,.87,15.48,1.26,23.26,1.05,3.68-.1,7.36-.53,11.03-.43,6.12,.16,12,1.52,17.49,4.36,6.47,3.34,10.68,8.38,12.3,15.62,.66,2.97-.21,5.54-1.19,8.09-1.53,3.99-4.13,7.24-7.75,9.63-3.91,2.58-7.72,5.51-12.44,6.27-6.25,1-12.53,2.23-18.94,.99-2.14-.41-4.35-.41-6.51-.71-2.38-.34-4.57-1.15-6.65-2.46-4.62-2.92-9.65-4.94-15.18-4.61-3.22,.2-6.39,1.29-9.57,2.03-4.44,1.03-8.84,2.28-13.31,3.12-3.94,.75-7.68-.39-11.29-1.99-5.1-2.26-10.31-4.37-15.9-4.77-3.62-.26-7.41-.11-10.95,.65-6.87,1.47-13.59,3.65-20.44,5.25-3.55,.83-7.24,1.12-10.89,1.47-1.44,.14-2.93-1.35-4.41,.02-1.29-.75-2.61-1.45-3.86-2.27-3.41-2.23-7.09-4.17-10.13-6.83-5.75-5.03-8.61-11.89-10.25-19.18-1.08-4.82-2.21-9.72-1.86-14.73,.39-5.64,.81-11.27,2.75-16.69,1.79-4.98,2.7-10.16,2.66-15.49-.02-2.08,.52-4.18,.38-6.24-.26-3.95-.57-7.94-1.33-11.82-1.29-6.6-.87-13.02,1.13-19.38,1.58-5.02,3.48-9.95,4.73-15.05,1.18-4.83,1.39-9.79,.58-14.81-.86-5.38-1.38-10.82-1.96-16.25-.63-5.92-1.38-11.84-1.69-17.78-.51-9.63,1.09-18.84,6.63-27.03,2.34-3.45,6.09-4.71,9.65-6.21,5.46-2.29,10.43-1.55,15.41,1.89,8.18,5.64,12.42,13.29,13.83,22.99,.84,5.82,1.83,11.58,1.64,17.27Zm-7.44-18.07c-.53-2.9-.78-5.9-1.67-8.69-.93-2.92-2.56-5.6-5.27-7.36-2.5-1.62-6.01-1.26-7.89,.72-1.73,1.82-1.3,3.84-.58,5.83,.81,2.23,1.66,4.46,2.68,6.59,2.02,4.2,3.88,8.51,7.05,12.03,1.59,1.77,1.97,1.74,3.31-.29,1.75-2.66,2.16-5.68,2.37-8.84Zm119.61,161.58c3.07-.34,4.8-1.69,5.84-4.76,.73-2.18-.35-5.43-2.47-6.85-6.25-4.21-12.8-4.03-19.44-1.08-1.42,.63-2.29,1.85-2.45,3.45-.24,2.35,1.7,4.47,4.35,4.64,1.89,.12,3.8-.09,5.68,.07,1.99,.17,4.04,.08,5.17,2.53,.45,.98,2.18,1.36,3.33,2.02Zm-115.51-92.17c-.26-2.25-.63-4.49-.77-6.75-.17-2.74-1.05-5.21-2.4-7.54-.76-1.31-3.34-2.64-4.47-2.37-1.71,.42-3.21,2.2-3.33,4.15-.09,1.49-.19,3.02,.05,4.47,1.11,6.48,2.36,12.94,3.51,19.42,.22,1.26,.89,1.81,2.02,1.36,.96-.38,2.05-.9,2.62-1.69,2.38-3.28,2.65-7.12,2.77-11.05Zm53.1,74.09c-2.6,.43-4.87,.66-7.05,1.21-2.09,.53-4.16,1.23-6.1,2.15-1.94,.92-2.92,3.55-2.31,5.33,.47,1.38,2.79,2.17,4.96,1.68,.19-.04,.36-.17,.54-.24,5.44-2.03,10.88-4.04,16.3-6.13,.56-.22,.95-.87,1.43-1.32-.48-.44-.89-1.14-1.45-1.29-2.17-.58-4.38-.98-6.32-1.39Zm-96.24-3.06c-.31,.23-.56,.32-.6,.47-1.48,5.42-1.61,10.93-.74,16.44,.16,1.03,.71,2.13,1.42,2.88,.5,.54,1.69,.92,2.35,.7,.66-.22,1.27-1.19,1.51-1.96,.25-.82,.2-1.8,.02-2.66-1.02-4.92-2.11-9.83-3.22-14.74-.09-.41-.48-.75-.73-1.13Zm7.46-141.79c.13-1.77,.26-3.55,.38-5.32,.04-.55,.04-1.11,.05-1.66-.62,.2-1.36,.25-1.83,.63-.59,.48-1.06,1.19-1.4,1.88-1.52,3.09-1.67,6.48-1.85,9.83-.04,.81,.41,1.77,.92,2.44,.42,.55,1.25,1.03,1.92,1.06,.37,.02,1.04-.91,1.14-1.48m-2.57,71.45l-.75,.08c-1.62,3.54-2.11,7.3-1.96,11.17,.05,1.26-.24,2.74,1.67,2.9,1.11,.09,1.95-1.33,1.9-3.14,0-.1-.02-.2-.02-.3-.17-2.75-.32-5.51-.51-8.26-.06-.82-.21-1.63-.32-2.45Zm7.83-80.44c-.14,1.25,.41,2.41,1.71,2.51,.7,.05,1.6-.85,2.17-1.52,.4-.48,.44-1.29,.58-1.96,.32-1.54,.63-3.09,.88-4.64,.09-.53,0-1.08,0-1.63-.54,.12-1.22,.07-1.61,.39-2.15,1.73-3.9,3.73-3.73,6.85Zm150.9,185.16l.04,.22c1.45-.27,2.95-.41,4.35-.84,1.86-.57,2.98-2.06,2.6-3.13-.4-1.15-2.1-1.52-3.97-.75-1.47,.6-2.91,1.3-4.32,2.04-.8,.42-1.5,1.01-2.25,1.52,.88,.31,1.76,.65,2.65,.92,.27,.08,.6,.01,.89,.01Z"/>
        <path class="cls-2" d="M1577.39,294.45c-1.15-.65-2.88-1.04-3.33-2.02-1.13-2.45-3.19-2.36-5.17-2.53-1.88-.16-3.79,.05-5.68-.07-2.66-.16-4.59-2.28-4.35-4.64,.16-1.6,1.03-2.82,2.45-3.45,6.65-2.95,13.2-3.13,19.44,1.08,2.12,1.43,3.21,4.67,2.47,6.85-1.03,3.07-2.76,4.42-5.84,4.76Z"/>
        <path class="cls-2" d="M1461.88,202.28c-.11,3.92-.38,7.77-2.77,11.05-.57,.79-1.66,1.31-2.62,1.69-1.13,.45-1.8-.1-2.02-1.36-1.15-6.48-2.41-12.93-3.51-19.42-.25-1.45-.15-2.99-.05-4.47,.12-1.95,1.63-3.73,3.33-4.15,1.13-.28,3.71,1.06,4.47,2.37,1.36,2.33,2.23,4.81,2.4,7.54,.14,2.26,.5,4.5,.77,6.75Z"/>
        <path class="cls-2" d="M1514.98,276.37c1.94,.41,4.15,.82,6.32,1.39,.56,.15,.97,.84,1.45,1.29-.47,.45-.87,1.1-1.43,1.32-5.42,2.08-10.86,4.09-16.3,6.13-.19,.07-.35,.2-.54,.24-2.17,.49-4.49-.3-4.96-1.68-.61-1.78,.37-4.4,2.31-5.33,1.94-.92,4.02-1.63,6.1-2.15,2.18-.55,4.44-.78,7.05-1.21Z"/>
        <path class="cls-9" d="M1418.73,273.31c.25,.38,.64,.72,.73,1.13,1.11,4.9,2.2,9.81,3.22,14.74,.18,.86,.24,1.85-.02,2.66-.24,.77-.85,1.75-1.51,1.96-.66,.22-1.85-.16-2.35-.7-.71-.75-1.25-1.86-1.42-2.88-.87-5.52-.74-11.02,.74-16.44,.04-.15,.3-.24,.6-.47Z"/>
        <path class="cls-26" d="M1425.54,138.89c-.1,.58-.77,1.5-1.14,1.48-.67-.03-1.5-.51-1.92-1.06-.51-.67-.96-1.63-.92-2.44,.18-3.35,.33-6.73,1.85-9.83,.34-.7,.81-1.4,1.4-1.88,.47-.38,1.21-.43,1.83-.63-.02,.55-.02,1.11-.05,1.66-.12,1.77-.25,3.55-.38,5.32"/>
        <path class="cls-9" d="M1422.96,210.34c.11,.82,.27,1.63,.32,2.45,.19,2.75,.34,5.51,.51,8.26,0,.1,.02,.2,.02,.3,.05,1.81-.79,3.23-1.9,3.14-1.91-.16-1.62-1.64-1.67-2.9-.15-3.87,.34-7.63,1.96-11.17l.75-.08Z"/>
        <path class="cls-6" d="M1430.8,129.9c-.18-3.12,1.58-5.11,3.73-6.85,.39-.31,1.07-.27,1.61-.39,0,.54,.09,1.1,0,1.63-.25,1.55-.56,3.1-.88,4.64-.14,.67-.18,1.48-.58,1.96-.57,.67-1.47,1.57-2.17,1.52-1.3-.09-1.85-1.26-1.71-2.51Z"/>
        <path class="cls-24" d="M1581.7,315.06c-.3,0-.62,.07-.89-.01-.89-.28-1.77-.61-2.65-.92,.75-.51,1.46-1.1,2.25-1.52,1.41-.74,2.85-1.43,4.32-2.04,1.87-.77,3.57-.4,3.97,.75,.37,1.07-.74,2.56-2.6,3.13-1.4,.43-2.9,.57-4.35,.84l-.04-.22Z"/>
      </g>
      <g>
        <g>
          <path class="cls-2" d="M430.86,293.06c.28,3.78,.14,7.59-.81,11.24-1.55,5.97-5.93,9.71-11.62,12.02-2.82,1.14-5.68,1.96-8.94,1.34-2.15-.41-4.49,.15-6.75,.3-1.42,.1-2.66-.24-3.81-1.08-1.59-1.16-3.32-2.15-4.86-3.37-.88-.7-1.69-1.63-2.2-2.62-2.04-3.95-3.37-8.1-3.48-12.57-.1-4.3-.36-8.59-.43-12.89-.11-5.79,.59-11.52,1.45-17.25,1.13-7.48,1.68-15.02,1.14-22.58-.44-6.11-.97-12.21-1.61-18.31-.59-5.65-1.44-11.27-2.03-16.92-.24-2.27-.07-4.57-.09-6.86-.04-4.14-.98-7.96-3.8-11.24-3.45-4-7.53-6.24-13.08-4.86-2.18,.54-4.38,1-6.53,1.63-3.91,1.15-6.73,3.57-8.86,6.95-1.79,2.83-3.97,5.42-5.87,8.18-1.25,1.81-2.33,3.73-3.44,5.62-1.7,2.9-3.2,5.92-5.08,8.69-2.18,3.22-5.59,4.89-9.31,6-7.52,2.26-11.77,7.4-13.99,14.51-1.49,4.81-2,9.75-2.69,14.68-.7,5.1-1.39,10.21-2.06,15.32-.24,1.83-.47,3.65-.59,5.49-.4,6.56-.76,13.13-1.13,19.69-.18,3.24-.05,6.53-.63,9.7-.64,3.5-1.82,6.92-2.97,10.31-.53,1.53-1.8,2.45-3.58,2.9-3.47,.87-6.9,1.17-10.46,.64-3.75-.56-7.53-.89-11.29-1.35-.7-.09-1.57-.08-2.06-.47-2.6-2.03-5.53-3.89-6.3-7.32-.62-2.72-1.31-5.5-1.33-8.26-.05-6.14,.04-12.3,.55-18.41,.46-5.48,1.48-10.91,2.38-16.34,1.13-6.78,1.85-13.63,1.15-20.44-.86-8.51-2.4-16.96-3.55-25.44-.54-3.99-.75-8.02-1.28-12.01-1.25-9.27-1.24-18.58-.94-27.89,.14-4.44,.9-8.86,1.45-13.29,.54-4.25,1.06-8.5,1.77-12.73,.73-4.39,1.34-8.84,3.29-12.92,.82-1.72,2.03-3.29,3.26-4.79,2.05-2.5,5.12-2.67,8.12-1,3.72,2.09,6.83,4.97,9.55,8.16,1.94,2.27,2.89,5.02,3.05,8,.08,1.4,.5,2.78,.46,4.17-.08,3.06-.39,6.12-.53,9.18-.2,4.29-.62,8.6-.39,12.87,.13,2.36,1.12,4.78,2.2,6.95,1.36,2.73,3.89,3.23,6.63,1.75,2.41-1.29,3.7-3.52,5.12-5.68,1.79-2.73,3.64-5.43,5.62-8.04,2.33-3.06,5.45-5.16,9.37-5.78,3.84-.62,6.91-2.56,9.76-4.88,4.51-3.67,9.04-7.33,13.3-11.26,7.53-6.93,16.24-11.74,26.32-14,3.92-.89,8.06-.92,12.09-1.36,3.76-.42,7.34,.22,10.82,1.59,.84,.33,1.67,.66,2.54,.92,2.06,.62,4.11,1.36,6.23,1.75,2.74,.52,4.89,1.82,6.55,3.9,5.88,7.35,9.9,15.44,10.54,24.87,.25,3.67,.49,7.35,.73,11.02-.13,.01-.26,.02-.39,.02,.22,3.5,.53,7,.61,10.51,.06,2.27-.3,4.54-.36,6.81-.09,3.52-.04,7.04-.11,10.56-.17,8.79-.36,17.57-.58,26.36-.06,2.45-.46,4.9-.37,7.34,.15,3.67,.7,7.32,.89,10.98,.15,3.08,.04,6.16,.05,9.24,.02,3.68-.15,7.33,1.43,10.88,.72,1.61,.61,3.6,.74,5.43,.25,3.5,.4,7,.61,10.5,.11,1.75,.28,3.5,.41,5.24Z"/>
          <path class="cls-16" d="M436.64,301.94c.09,.43-.05,1.3-.22,1.51-2.05,9.99-8.67,15.93-18.25,19.14-1.76,.59-3.73,.82-5.61,.81-3.99-.01-7.99-.21-11.98-.48-1.22-.08-2.51-.45-3.6-1.01-8.44-4.31-12.67-11.41-13.53-20.36-1.1-11.41-1.16-22.85,.67-34.22,1.42-8.77,1.31-17.53,.24-26.31-.99-8.12-2.03-16.23-2.87-24.37-.45-4.37-.54-8.78-.8-13.18-.19-3.28-1.31-6.15-3.87-8.44-1.44-1.29-3.07-1.86-4.99-1.56-1.16,.19-2.29,.51-3.45,.74-4.35,.88-7.49,3.09-9.51,7.09-1.33,2.65-3.41,4.95-5.11,7.44-.79,1.17-1.5,2.4-2.21,3.62-1.67,2.91-3.19,5.91-5.02,8.73-2.87,4.39-6.86,7.51-12.18,8.72-6.54,1.48-10.5,5.47-11.93,11.65-1.29,5.56-2.34,11.2-3.1,16.85-1.05,7.85-1.89,15.73-2.51,23.63-.51,6.48-.59,13-.82,19.51-.21,5.91-2.19,11.37-4.56,16.72-1.07,2.42-3.19,3.8-5.71,4.58-6.36,1.95-12.85,2.27-19.37,.89-2.73-.58-5.45-1.36-8.05-2.36-2.03-.78-4.28-1.6-4.7-4.23-.04-.28-.46-.52-.73-.75-3.78-3.11-5.13-7.29-5.76-11.87-.96-7.04-.55-14.04,.34-21.05,.69-5.41,1.23-10.84,1.88-16.26,1.07-8.83-.09-17.57-1.25-26.29-1.13-8.45-3.02-16.83-3.82-25.3-1.08-11.47-1.95-22.98-.98-34.53,1.38-16.36,3.37-18.35,4.56-32.64,1.18-14.26-1.92-38.02-1.92-38.02-.9-6.79-3.23-24.41-4.71-45.06-.37-5.18-1.6-24.4,4.87-26.79,1.39-.51,4.77-.88,8.17-1.22s4.41-.24,5.34,0c1.94,.49,2.89,1.37,5.65,3.35,3.38,2.41,4.93,3.21,5.97,3.96,6.5,4.69,10.26,18.75,10.26,18.75,4.43,34.01,6.94,68.1,5.23,90.17-.36,4.73-.32,9.49-.81,14.21-.35,3.39-.25,6.84-.2,10.26,.02,1.16,.52,2.32,.96,4.1,1.23-2.11,2.13-3.62,3-5.15,2.5-4.41,5.17-8.68,9.4-11.83,2.64-1.97,5.47-3.47,8.77-3.99,2.22-.35,4.16-1.21,5.85-2.63,4.8-4.03,9.8-7.87,14.38-12.13,8.18-7.64,17.67-12.89,28.66-15.52,6.89-1.65,13.92-2.68,21.04-1.47,2.04,.35,4.02,1.05,6.01,1.63,3.12,.89,6.22,1.9,9.37,2.69,3.65,.93,6.72,2.69,9.03,5.56,5.64,7.03,9.82,14.77,11.36,23.64,.34,1.98,.3,4.04,.27,6.06-.11,9.15-.16,18.3-.45,27.45-.35,11.08-.87,22.16-1.41,33.23-.46,9.69-.15,19.36,.81,29,.79,8.05,1.97,16.05,2.9,24.08,.37,3.15,.49,6.32,.78,9.47,.05,.53,.1,1.43,.08,2.01,.5,3.02,.14,4.78,.14,7.77Zm-6.59,2.36c.95-3.65,1.09-7.46,.81-11.24-.13-1.74-.3-3.49-.41-5.24-.21-3.5-.36-7-.61-10.5-.13-1.83-.02-3.82-.74-5.43-1.58-3.55-1.41-7.2-1.43-10.88-.01-3.08,.1-6.16-.05-9.24-.19-3.66-.74-7.31-.89-10.98-.09-2.44,.31-4.89,.37-7.34,.22-8.79,.41-17.57,.58-26.36,.07-3.52,.02-7.04,.11-10.56,.06-2.27,.42-4.54,.36-6.81-.08-3.51-.39-7.01-.61-10.51,.13,0,.26-.01,.39-.02-.24-3.67-.48-7.35-.73-11.02-.64-9.43-4.66-17.52-10.54-24.87-1.66-2.08-3.81-3.38-6.55-3.9-2.12-.39-4.17-1.13-6.23-1.75-.87-.26-1.7-.59-2.54-.92-3.48-1.37-7.06-2.01-10.82-1.59-4.03,.44-8.17,.47-12.09,1.36-10.08,2.26-18.79,7.07-26.32,14-4.26,3.93-8.79,7.59-13.3,11.26-2.85,2.32-5.92,4.26-9.76,4.88-3.92,.62-7.04,2.72-9.37,5.78-1.98,2.61-3.83,5.31-5.62,8.04-1.42,2.16-2.71,4.39-5.12,5.68-2.74,1.48-5.27,.98-6.63-1.75-1.08-2.17-2.07-4.59-2.2-6.95-.23-4.27,.19-8.58,.39-12.87,.14-3.06,.45-6.12,.53-9.18,.04-1.39-.38-2.77-.46-4.17-.16-2.98-1.11-5.73-3.05-8-2.72-3.19-5.83-6.07-9.55-8.16-3-1.67-6.07-1.5-8.12,1-1.23,1.5-2.44,3.07-3.26,4.79-1.95,4.08-2.56,8.53-3.29,12.92-.71,4.23-1.23,8.48-1.77,12.73-.55,4.43-1.31,8.85-1.45,13.29-.3,9.31-.31,18.62,.94,27.89,.53,3.99,.74,8.02,1.28,12.01,1.15,8.48,2.69,16.93,3.55,25.44,.7,6.81-.02,13.66-1.15,20.44-.9,5.43-1.92,10.86-2.38,16.34-.51,6.11-.6,12.27-.55,18.41,.02,2.76,.71,5.54,1.33,8.26,.77,3.43,3.7,5.29,6.3,7.32,.49,.39,1.36,.38,2.06,.47,3.76,.46,7.54,.79,11.29,1.35,3.56,.53,6.99,.23,10.46-.64,1.78-.45,3.05-1.37,3.58-2.9,1.15-3.39,2.33-6.81,2.97-10.31,.58-3.17,.45-6.46,.63-9.7,.37-6.56,.73-13.13,1.13-19.69,.12-1.84,.35-3.66,.59-5.49,.67-5.11,1.36-10.22,2.06-15.32,.69-4.93,1.2-9.87,2.69-14.68,2.22-7.11,6.47-12.25,13.99-14.51,3.72-1.11,7.13-2.78,9.31-6,1.88-2.77,3.38-5.79,5.08-8.69,1.11-1.89,2.19-3.81,3.44-5.62,1.9-2.76,4.08-5.35,5.87-8.18,2.13-3.38,4.95-5.8,8.86-6.95,2.15-.63,4.35-1.09,6.53-1.63,5.55-1.38,9.63,.86,13.08,4.86,2.82,3.28,3.76,7.1,3.8,11.24,.02,2.29-.15,4.59,.09,6.86,.59,5.65,1.44,11.27,2.03,16.92,.64,6.1,1.17,12.2,1.61,18.31,.54,7.56-.01,15.1-1.14,22.58-.86,5.73-1.56,11.46-1.45,17.25,.07,4.3,.33,8.59,.43,12.89,.11,4.47,1.44,8.62,3.48,12.57,.51,.99,1.32,1.92,2.2,2.62,1.54,1.22,3.27,2.21,4.86,3.37,1.15,.84,2.39,1.18,3.81,1.08,2.26-.15,4.6-.71,6.75-.3,3.26,.62,6.12-.2,8.94-1.34,5.69-2.31,10.07-6.05,11.62-12.02Z"/>
        </g>
        <path class="cls-2" d="M428.16,189.72c.05,2.27-.31,4.54-.36,6.81-.09,3.52-.04,7.04-.11,10.56-.17,8.78-.36,17.57-.58,26.35-.06,2.45-.46,4.9-.37,7.34,.15,3.67,.69,7.32,.88,10.98,.16,3.07,.04,6.16,.06,9.24,.02,3.68-.15,7.32,1.43,10.88,.72,1.62,.6,3.6,.74,5.43,.25,3.5,.4,7,.62,10.5,.11,1.75,.28,3.49,.41,5.24,.28,3.78,.14,7.59-.81,11.24-1.55,5.98-5.93,9.71-11.62,12.02-2.82,1.14-5.68,1.96-8.94,1.34-2.15-.41-4.49,.15-6.75,.3-1.42,.1-2.66-.24-3.81-1.08-1.59-1.16-3.32-2.15-4.85-3.37-.88-.71-1.69-1.63-2.21-2.62-2.04-3.95-3.37-8.1-3.48-12.57-.11-4.3-.36-8.59-.44-12.89-.1-5.79,.59-11.52,1.46-17.25,1.13-7.48,1.68-15.01,1.13-22.57-.44-6.11-.97-12.22-1.61-18.31-.59-5.65-1.44-11.27-2.03-16.92-.24-2.27-.07-4.57-.09-6.86-.04-4.13-.98-7.96-3.8-11.23-3.45-4-7.53-6.24-13.08-4.87-2.18,.54-4.38,1-6.53,1.63-3.91,1.15-6.72,3.57-8.86,6.95-1.79,2.83-3.97,5.42-5.87,8.18-1.25,1.81-2.33,3.73-3.44,5.62-1.7,2.89-3.19,5.91-5.07,8.69-2.18,3.22-5.6,4.88-9.32,6-7.51,2.26-11.77,7.4-13.98,14.51-1.5,4.81-2.01,9.75-2.69,14.68-.71,5.11-1.39,10.21-2.06,15.33-.24,1.82-.47,3.65-.59,5.48-.41,6.56-.76,13.13-1.13,19.7-.18,3.24-.05,6.53-.63,9.69-.64,3.5-1.82,6.92-2.98,10.31-.52,1.53-1.8,2.45-3.58,2.9-3.47,.88-6.9,1.17-10.46,.64-3.74-.56-7.52-.9-11.29-1.35-.71-.09-1.57-.08-2.07-.47-2.6-2.03-5.52-3.89-6.3-7.32-.62-2.72-1.31-5.5-1.33-8.25-.05-6.14,.05-12.3,.56-18.42,.46-5.47,1.48-10.91,2.38-16.34,1.13-6.78,1.85-13.63,1.15-20.44-.87-8.51-2.4-16.96-3.55-25.44-.54-3.99-.75-8.02-1.29-12.01-1.24-9.27-1.24-18.58-.94-27.88,.14-4.44,.9-8.86,1.46-13.29,.86-6.88,1.63-11.81,1.77-12.73,2.56-17.16-3.59-57.65-5.02-66.88-.69-4.45-5.65-36.4,1.14-41.55,2.83-2.15,5.77-2.29,5.77-2.29,1.07-.05,3.38,.03,6.6,2.13,5.76,3.77,9.75,10.4,10.4,11.66,7.37,14.41,7.63,35.55,8.93,54.16,.43,6.19,.06,20.03,.14,31.3,.05,7.01-.23,13.08-.23,13.08-.24,5.25-.53,9.18-.53,9.18-.2,4.29-.62,8.6-.39,12.87,.13,2.36,1.12,4.78,2.2,6.95,1.36,2.73,3.89,3.23,6.63,1.76,2.41-1.3,3.7-3.52,5.12-5.68,1.79-2.73,3.64-5.44,5.62-8.04,2.33-3.06,5.45-5.16,9.37-5.79,3.84-.61,6.91-2.56,9.76-4.88,4.51-3.67,9.04-7.33,13.31-11.26,7.52-6.94,16.24-11.74,26.31-14,3.93-.88,8.06-.92,12.1-1.36,3.76-.41,7.34,.23,10.82,1.59,.84,.33,1.68,.66,2.54,.92,2.07,.62,4.12,1.36,6.23,1.75,2.74,.51,4.89,1.82,6.56,3.9,5.88,7.35,9.89,15.44,10.54,24.87,.25,3.67,.49,7.35,.73,11.02m-9.01,53.04c.72-1.43,1.48-2.37,1.66-3.42,.5-2.9,1-5.84,1.07-8.78,.08-3.39-.18-6.81-.53-10.19-.18-1.78-.48-3.63-1.96-5.02-2.08-1.95-5.48-1.28-6.23,1.41-.38,1.38-.41,2.92-.24,4.35,.34,2.93,.93,5.82,1.4,8.73,.62,3.79,1.63,7.47,3.28,10.96,.25,.53,.75,.96,1.55,1.95Zm-2.15,66.9c0-.79,.07-1.59-.02-2.37-.12-1.12-.21-2.27-.55-3.34-.34-1.07-.83-2.15-1.52-3.04-1.46-1.9-5.43-2.55-6.63,1.06-.3,.9-.52,1.86-.54,2.79-.05,2.89-.11,5.8,.08,8.68,.13,1.97,.6,3.94,1.06,5.88,.33,1.4,1.43,1.86,2.87,1.84,1.62-.03,2.42-1.03,3.12-2.18,1.74-2.88,1.9-6.11,2.12-9.33Zm-44.9-149.13c.2-.04,.78-.05,1.23-.3,2.99-1.61,6.31-1.86,9.59-2.45,2.36-.42,4.7-1.2,6.91-2.13,1.02-.43,2.73-.83,2.59-2.34-.14-1.5-1.66-1.92-2.96-2.32-4.96-1.5-9.97-1.35-14.94-.22-2.79,.63-4.8,2.37-5.77,5.06-.86,2.38,.65,4.71,3.37,4.7Zm-87.49,21.02c.87-1.31,1.6-2.11,1.96-3.04,.59-1.53,1.05-3.13,1.36-4.74,.56-2.89,1.08-5.8,1.38-8.73,.19-1.84-1.05-3.25-2.55-3.45-1.57-.21-2.91,.68-3.46,2.63-.39,1.41-.29,2.94-.66,4.36-.86,3.33-.4,6.58,.4,9.81,.23,.95,.88,1.81,1.56,3.16Zm71.8-10.88c-.48-.3-.76-.6-.93-.55-4.51,1.28-8.77,3.09-12.52,5.87-1.45,1.08-1.68,2.53-.85,3.67,.83,1.13,2.71,1.46,4.13,.49,3.83-2.63,7.49-5.45,10.16-9.47Zm-71.91,152.02c-.42-4.39-1.89-8.2-3.63-11.91-.22-.46-1.5-.83-2.11-.65-.74,.21-1.53,.93-1.85,1.63-.29,.64-.2,1.63,.11,2.3,1.04,2.22,2.14,4.43,3.44,6.52,.74,1.19,1.95,2.06,4.04,2.12Zm3.62-11.11c-2.58-.01-3.85,1.7-2.77,3.83,.98,1.93,2.32,3.71,3.57,5.5,.28,.4,.83,.73,1.32,.85,.73,.17,1.74,.42,2.22,.09,.48-.34,.78-1.44,.59-2.05-.71-2.31-1.65-4.56-2.49-6.84-.45-1.21-1.42-1.47-2.44-1.38Zm-10.44-130.09l.5-.04c.25-.71,.62-1.4,.74-2.13,.6-3.79,1.13-7.59,1.69-11.38,.19-1.29,.46-2.59,.51-3.89,.02-.47-.52-1.34-.82-1.35-.72-.02-1.71,.17-2.12,.65-.53,.62-.78,1.6-.83,2.44-.25,3.75-.49,7.51-.51,11.27-.01,1.48,.55,2.95,.85,4.43Zm143.51,133.3c1.27-.44,2.17-1.2,2.41-2.51,.39-2.13,.78-4.26,1.01-6.41,.16-1.47,.03-2.97,.04-4.46,.01-1.18-.45-2.17-1.66-2.38-1.3-.23-1.94,.71-2.19,1.83-.19,.84-.41,1.71-.39,2.56,.02,1.3,.28,2.59,.36,3.88,.16,2.45,.27,4.9,.41,7.48Zm-5.46-151.84c.25-1.45-.66-2.42-1.98-2.41-1.29,.01-2.78,1.47-2.59,2.87,.31,2.31,1.48,4.28,3.25,5.87,.52,.47,1.32,.04,1.32-.67,.02-1.89,0-3.77,0-5.66Zm-138.35,51.45c0-.26,0-.52,0-.79,0-1.08,0-2.21-1.49-2.36-1.44-.14-1.73,.89-2.05,1.95-.79,2.58,.26,4.96,.78,7.4,.06,.26,.52,.67,.64,.63,.35-.13,.82-.41,.9-.72"/>
        <path class="cls-2" d="M416.77,299.14c-.22,3.21-.38,6.45-2.12,9.33-.69,1.15-1.5,2.16-3.12,2.18-1.45,.02-2.54-.44-2.87-1.84-.46-1.94-.93-3.9-1.06-5.88-.19-2.88-.13-5.79-.08-8.68,.02-.94,.24-1.9,.54-2.79,1.2-3.61,5.17-2.95,6.63-1.06,.68,.89,1.17,1.97,1.52,3.04,.34,1.07,.44,2.21,.55,3.34,.08,.78,.02,1.58,.02,2.37Z"/>
        <path class="cls-2" d="M284.38,171.03c-.68-1.35-1.33-2.21-1.56-3.16-.8-3.23-1.26-6.49-.4-9.81,.37-1.42,.26-2.95,.66-4.36,.54-1.95,1.89-2.85,3.46-2.63,1.51,.2,2.74,1.62,2.55,3.45-.3,2.93-.82,5.84-1.38,8.73-.31,1.61-.77,3.21-1.36,4.74-.36,.93-1.1,1.73-1.96,3.04Z"/>
        <path class="cls-2" d="M356.18,160.15c-2.67,4.02-6.33,6.85-10.16,9.47-1.42,.97-3.3,.64-4.13-.49-.84-1.14-.6-2.59,.85-3.67,3.75-2.79,8.01-4.59,12.52-5.87,.17-.05,.44,.25,.93,.55Z"/>
        <path class="cls-11" d="M284.28,312.17c-2.09-.06-3.3-.93-4.04-2.12-1.3-2.08-2.4-4.3-3.44-6.52-.31-.67-.4-1.66-.11-2.3,.32-.7,1.11-1.42,1.85-1.63,.61-.17,1.89,.19,2.11,.65,1.74,3.71,3.21,7.52,3.63,11.91Z"/>
        <path class="cls-2" d="M287.9,301.06c1.02-.09,1.99,.17,2.44,1.38,.84,2.28,1.78,4.52,2.49,6.84,.19,.61-.11,1.72-.59,2.05-.48,.34-1.49,.09-2.22-.09-.49-.11-1.04-.45-1.32-.85-1.25-1.8-2.58-3.57-3.57-5.5-1.09-2.13,.19-3.85,2.77-3.83Z"/>
        <path class="cls-19" d="M277.46,170.97c-.3-1.48-.86-2.96-.85-4.43,.03-3.76,.26-7.52,.51-11.27,.06-.84,.3-1.82,.83-2.44,.41-.48,1.4-.66,2.12-.65,.3,0,.84,.88,.82,1.35-.05,1.3-.32,2.59-.51,3.89-.56,3.79-1.09,7.59-1.69,11.38-.12,.73-.48,1.42-.74,2.13l-.5,.04Z"/>
        <path class="cls-22" d="M420.97,304.27c-.14-2.58-.25-5.03-.41-7.48-.09-1.3-.34-2.59-.36-3.88-.02-.85,.2-1.72,.39-2.56,.25-1.12,.89-2.06,2.19-1.83,1.21,.21,1.67,1.2,1.66,2.38-.02,1.49,.11,2.99-.04,4.46-.23,2.15-.61,4.28-1.01,6.41-.24,1.3-1.15,2.06-2.41,2.51Z"/>
        <path class="cls-12" d="M415.52,152.43c0,1.89,.01,3.77,0,5.66,0,.71-.8,1.14-1.32,.67-1.77-1.58-2.94-3.56-3.25-5.87-.18-1.4,1.3-2.86,2.59-2.87,1.33-.01,2.23,.96,1.98,2.41Z"/>
        <path class="cls-20" d="M275.95,209.99c-.08,.31-.55,.59-.9,.72-.12,.05-.59-.37-.64-.63-.53-2.44-1.57-4.82-.78-7.4,.32-1.06,.62-2.1,2.05-1.95,1.5,.15,1.49,1.27,1.49,2.36,0,.26,0,.52,0,.79"/>
      </g>
    </g>
    <g id="_лой_7" data-name="Слой 7">
      <g>
        <path d="M160.48,319.42c-9.14-.07-17.52-3.37-25.99-6.17-8.57-2.83-16.98-6.14-25.51-9.09-6.34-2.2-11.82-5.47-15.79-11.03-2.09-2.93-3.63-6.12-4.64-9.53-1.09-3.68-3.11-6.69-5.6-9.59-3.63-4.22-6.97-8.68-10.28-13.16-1.3-1.76-2.29-3.78-3.22-5.77-.6-1.28-1.26-2.77-1.15-4.1,.25-2.97-1-5.37-2.16-7.89-2.31-5.01-3.63-10.32-4.19-15.78-.57-5.55,.58-10.88,2.52-16.06,.54-1.44,1.1-2.88,1.79-4.24,6.38-12.56,9.59-26.09,11.75-39.85,1.84-11.71,5.14-22.81,11.61-32.83,5.74-8.89,12.69-16.6,21.79-22.26,6.19-3.85,12.87-5.93,20.16-6.1,5.09-.11,10.21,.1,15.26-.39,5.53-.54,11.01-1.71,16.5-2.61,7.27-1.19,14.53-1.41,21.81-.08,.57,.1,1.14,.18,1.71,.23,3.97,.33,7.51,1.72,10.36,4.51,3.24,3.17,7.03,5.2,11.34,6.58,5.16,1.66,9.77,4.38,13.94,7.93,5.51,4.69,10.41,9.91,15.03,15.48,5.51,6.65,6.76,14.02,4.96,22.14-.56,2.51-1.25,5.08-2.41,7.35-3.63,7.11-9.63,11.06-17.52,12.06-6.55,.83-12.68-.24-17.86-4.69-5.25-4.51-11.51-6.86-18.07-8.56-8.1-2.1-16.11-4.44-23.74-7.95-6.09-2.8-11.66-1.39-15.94,3.87-.97,1.19-1.75,2.52-2.61,3.8-1.92,2.87-3.76,5.8-5.77,8.61-1.81,2.53-3.24,5.23-3.99,8.24-1.31,5.26-3.81,9.81-7.77,13.54-3.37,3.17-5.09,7.2-5.85,11.63-.8,4.62-1.44,9.28-1.94,13.95-.36,3.36,.12,6.69,1,9.97,1.67,6.24,4.2,12.12,6.98,17.93,4.1,8.6,9.5,11.4,20.24,10.61,3.9-.29,7.76-1.3,11.63-1.98,4.35-.76,8.68-1.67,13.06-2.24,4.07-.54,7.53-2.18,10.56-4.85,3.1-2.73,6.08-5.61,9.31-8.18,2.47-1.96,5.11-3.78,7.91-5.21,4.53-2.3,9.17-4.43,13.91-6.25,3.69-1.42,7.62-1.81,11.64-1.12,4.93,.84,8.93,3.19,11.56,7.35,2.82,4.45,5.55,9.01,7.75,13.79,3.77,8.21,4.18,16.62,.36,25.06-3.21,7.07-6.92,13.78-13.4,18.4-3.03,2.16-6.33,3.99-9.66,5.68-4.71,2.38-9.74,4.17-14.3,6.78-8.15,4.66-16.95,7.13-26.04,8.93-3.11,.62-6.2,1.34-9.29,2.07-3.86,.9-7.77,1.31-11.72,1.09Z"/>
        <path class="cls-2" d="M138.62,111.88c-2.11,0-4.23,0-6.34,0-6.42,.03-12.32,1.84-17.71,5.31-14.38,9.25-23.62,22.35-28.34,38.58-1.82,6.24-2.78,12.73-4.06,19.12-2.34,11.7-5.47,23.13-10.79,33.88-1.19,2.4-2.1,4.95-2.91,7.5-.96,3.02-1.59,6.13-1.16,9.35,.64,4.76,1.57,9.45,3.2,13.99,1.32,3.7,2.56,7.43,3.87,11.13,.31,.89,.67,1.78,1.18,2.57,4.05,6.31,8.26,12.49,13.4,18,2.46,2.64,4.08,5.74,5.27,9.15,.95,2.69,2.11,5.37,3.58,7.81,3.18,5.28,8.28,8.07,13.93,10.12,7.4,2.7,14.72,5.6,22.08,8.38,1.8,.68,3.62,1.28,5.46,1.85,3.21,.99,6.46,1.86,9.66,2.9,4.9,1.58,9.93,2.26,15.04,2.34,2.09,.03,4.23-.2,6.28-.61,6.68-1.35,13.33-2.9,20.01-4.26,3.33-.68,6.47-1.79,9.48-3.33,7.28-3.7,14.54-7.42,22.27-10.15,3.02-1.07,5.57-2.94,8.04-4.98,3.84-3.18,5.85-7.54,8.15-11.74,4.86-8.9,4.48-17.86,.09-26.74-1.61-3.26-3.63-6.32-5.57-9.41-3.02-4.82-7.52-6.84-13.06-5.96-9.43,1.49-17.64,5.8-25.05,11.65-3.01,2.38-5.8,5.05-8.78,7.48-3.64,2.97-7.74,4.87-12.51,5.41-4.57,.52-9.11,1.36-13.66,2.09-4.17,.68-8.31,1.66-12.51,2.08-10.76,1.07-19.12-2.36-24.13-11.86-3.28-6.22-6.44-12.47-8.16-19.28-.88-3.5-1.47-7.17-1.52-10.77-.05-4,.6-8.02,1.05-12.01,.91-8.1,3.4-15.51,9.47-21.37,2.46-2.38,3.92-5.41,4.97-8.66,.62-1.91,1.1-3.96,2.17-5.62,4.09-6.37,7.97-12.94,12.73-18.8,5.57-6.86,13.31-8.76,21.74-4.32,6.17,3.25,12.78,5.24,19.48,7.01,8.32,2.2,16.32,4.93,23.01,10.75,4.38,3.81,9.77,4.71,15.47,3.43,6.37-1.43,10.72-5.15,12.33-11.52,.82-3.23,1.28-6.6,1.43-9.92,.17-3.72-.92-7.2-3.46-10.11-1.64-1.88-3.12-3.91-4.84-5.72-6.53-6.86-13.48-13.2-22.67-16.38-5-1.73-9.44-4.25-13.13-8.06-1.5-1.55-3.36-2.58-5.51-2.95-7.53-1.3-15.07-1.67-22.67-.48-8.72,1.36-17.31,3.89-26.29,3.14Z"/>
        <path d="M225.4,147.04c-.03,.37-.06,1.33-.19,2.27-.03,.22-.35,.55-.54,.55-.32,0-.86-.15-.93-.36-1.44-4.27-4.6-7.48-6.93-11.2-.25-.4-.61-.89-.57-1.29,.1-.89,.2-1.92,.7-2.6,.7-.94,1.87-.9,2.88-.34,.57,.32,1.16,.74,1.54,1.26,2.42,3.31,4.2,6.86,4.03,11.7Z"/>
        <path d="M103.52,223.1c-.42-1.7-.99-3.23-1.12-4.79-.21-2.38-.15-4.78-.11-7.17,.01-.62,.24-1.46,.68-1.8,.61-.47,1.54-.84,2.28-.75,.59,.07,1.52,.84,1.57,1.36,.39,4.42,.22,8.78-2.25,12.71-.08,.13-.33,.15-1.05,.45Z"/>
        <path d="M206.78,127.1c-.41,.12-.62,.25-.76,.21-3.35-1.12-6.69-2.25-10.03-3.4-.36-.12-.85-.25-.99-.52-.38-.72-.93-1.58-.79-2.26,.14-.67,.97-1.28,1.62-1.75,.33-.23,.93-.13,1.41-.1,3.83,.22,8.21,3.77,9.54,7.82Z"/>
        <path d="M226.09,255.03c-2.41-2.18-4.39-3.96-6.36-5.76-.21-.19-.4-.42-.56-.65-.97-1.39-.98-2.69-.05-3.67,.96-1,2.71-1.1,3.91,.02,2.74,2.55,4.16,5.61,3.06,10.06Z"/>
        <path d="M139.58,120.97c-.97,0-1.47,.12-1.87-.02-1.92-.67-3.87-.98-5.89-.63-.37,.06-.77,.06-1.14,0-1.53-.2-2.35-1.02-2.4-2.35-.05-1.46,.8-2.49,2.37-2.72,2.93-.43,5.21,.83,7.1,2.91,.62,.68,1.04,1.56,1.84,2.8Z"/>
        <path d="M211,250.41c-1.67,.42-3.1,.94-4.58,1.12-1.52,.18-2.72-.9-2.85-2.24-.15-1.48,.95-2.66,2.6-2.82,2.24-.22,3.45,.68,4.82,3.94Z"/>
        <path d="M117.87,180.77c-.86-2.89-.35-4.98,.73-6.89,.82-1.45,2.59-1.75,3.72-.91,1.1,.82,1.15,2.46-.09,3.78-1.23,1.3-2.63,2.45-4.36,4.03Z"/>
        <path d="M234.08,261.77c-.1,.82-.04,1.25-.21,1.56-.35,.62-.82,1.18-1.25,1.76-.47-.41-1.02-.76-1.38-1.25-.62-.84-1.19-1.73-1.63-2.67-.6-1.28-.21-2.49,.79-2.97,1.13-.54,2.46-.06,3.06,1.26,.38,.84,.49,1.8,.62,2.31Z"/>
      </g>
      <g>
        <g>
          <path class="cls-16" d="M655.13,138.08c3.79,5.99,6.39,12.42,6.27,19.68-.08,4.52-1.14,8.83-3.47,12.67-2.19,3.6-3.59,7.41-4.27,11.54-1.37,8.23-6.31,14.01-13.37,17.72-5.35,2.81-10.46,5.85-15.31,9.42-4.12,3.04-8.52,5.72-12.54,8.88-7.61,5.97-16.39,9.25-25.53,11.86-6.45,1.85-13.03,2.24-19.63,1.63-5.38-.5-10.74-1.37-16.05-2.39-4.56-.88-8.76-2.83-12.76-5.26-4.54-2.75-9.25-5.21-13.92-7.81-.64,.41-.87,.6-1.14,.72-4.88,2.13-6.43,6.43-7,11.17-.55,4.57-2.32,8.28-6.13,10.97-1.04,.73-2.01,1.59-2.94,2.47-2.37,2.23-2.62,4.03-1.01,6.79,.55,.93,1.33,1.76,1.74,2.74,.7,1.7,1.43,3.45,1.7,5.25,.23,1.51,.8,2.6,1.98,3.42,.81,.55,1.65,1.09,2.54,1.49,7.74,3.4,15.41,6.94,23.26,10.05,3.24,1.29,6.82,1.96,10.31,2.34,5.97,.64,11.91,1.48,17.97,1.32,7.41-.19,14.67-.85,21.91-2.63,5.42-1.33,11.06-1.79,16.61-2.59,2.72-.39,5.46-.7,8.2-.98,6.84-.71,13.34,.59,19.52,3.47,3.36,1.57,5.05,4.57,6.13,7.96,2.01,6.35,1.1,12.65-.45,18.92-.78,3.16-2.38,5.82-4.88,7.9-6.19,5.16-12.79,9.4-20.97,10.84-6.57,1.15-13.05,2.85-19.59,4.23-2.02,.42-4.09,.65-6.14,.83-5.89,.52-11.78,1.25-17.68,1.39-7.18,.18-14.38,.01-21.56-.32-4.61-.22-9.23-.8-13.78-1.57-9.59-1.64-18.63-4.89-26.9-10.11-4.17-2.64-8.46-5.06-13.34-6.12-2.78-.61-5.6-1.07-8.43-1.42-2.72-.34-5.08-1.13-7.01-3.24-1.04-1.12-2.5-1.87-3.82-2.71-2.74-1.73-4.8-4.1-6.33-6.89-3.76-6.83-5.75-14.14-6.13-21.96-.35-7.28-.89-14.55-1.6-21.81-.97-9.97-.82-19.86,1.33-29.68,1.83-8.36,2.18-16.73,.46-25.19-1.63-8.04,.08-15.61,3.67-22.88,4.34-8.77,10.06-16.39,17.7-22.57,8.89-7.19,17.93-14.16,27.54-20.38,4.65-3.01,9.53-5.43,15.05-6.53,4.32-.86,8.07-3.2,11.46-5.87,8.3-6.52,17.77-8.43,27.84-6.77,5.27,.87,10.36,3.02,15.42,4.88,7.66,2.8,15.19,5.99,23.38,7.03,5.56,.7,11.11,1.61,16.7,2.04,7.64,.58,14.92,2.61,22.01,5.3,5.47,2.07,9.83,5.79,12.98,10.76Zm-2.15,29.21c1.77-4.01,3.07-8.24,2.24-12.59-.69-3.62-1.88-7.24-3.45-10.58-2.78-5.9-7.32-10-13.58-12.37-9.56-3.61-19.57-4.76-29.57-6.12-5.62-.77-11.28-1.68-16.68-3.33-8.25-2.51-16.29-5.68-24.4-8.63-5.55-2.03-11.18-1.79-16.84-.73-4.13,.76-7.71,2.78-11.14,5.14-4.54,3.11-9.12,6.21-14.63,7.38-4.21,.89-7.92,2.88-11.5,5.13-8.58,5.41-16.53,11.69-24.59,17.85-8.87,6.78-15.79,14.98-20.25,25.26-2.26,5.23-3.56,10.62-3.11,16.32,.3,3.81,.62,7.64,1.3,11.39,.71,3.89-.01,7.64-.53,11.41-.77,5.53-2.2,11.01-2.45,16.55-.3,6.86,.18,13.77,.58,20.64,.36,6.07,1.2,12.12,1.57,18.19,.32,5.23,1.23,10.29,2.99,15.23,1.85,5.2,4.34,9.88,9.33,12.79,1.09,.64,2.02,1.55,3,2.37,1.39,1.17,2.88,1.78,4.81,1.81,2.82,.04,5.67,.39,8.47,.88,5.13,.88,9.57,3.46,13.9,6.18,5.11,3.21,10.53,5.65,16.37,7.21,5.13,1.37,10.27,2.55,15.58,2.93,6.95,.49,13.9,1.41,20.85,1.48,6.66,.07,13.34-.62,20-1.17,4.1-.34,8.18-.91,12.24-1.59,4.72-.79,9.41-1.79,14.11-2.76,2.87-.59,5.78-1.1,8.56-1.99,5.06-1.61,9.18-4.85,13.23-8.15,1.82-1.47,2.98-3.5,3.45-5.72,1.16-5.52,1.24-11.08-.1-16.61-.62-2.55-2.04-4.4-4.56-5.37-4.15-1.6-8.38-2.9-12.87-2.61-3.82,.24-7.63,.63-11.41,1.18-5.13,.75-10.31,1.4-15.32,2.68-7.2,1.84-14.4,3.08-21.84,2.75-1.85,0-3.72,.13-5.57-.03-4.01-.33-7.99-.96-12-1.18-5.67-.31-11.08-1.66-16.22-3.91-6.02-2.65-11.92-5.57-17.87-8.4-1.78-.84-3.58-1.64-5.28-2.63-2.37-1.39-4.32-3.33-4.59-6.16-.2-2.19-1.13-3.91-2.26-5.65-.69-1.07-1.36-2.17-1.88-3.33-1.39-3.09-.85-5.98,1.29-8.52,1.19-1.41,2.51-2.76,3.92-3.96,2.62-2.21,4.07-4.81,4.24-8.37,.18-3.61,.91-7.21,2.67-10.47,2.53-4.7,7.23-6.53,12.13-4.74,.45,.16,.94,.22,1.41,.34,3.83,.92,7.55,2.08,10.89,4.29,4.35,2.88,8.85,5.5,14.05,6.55,3.16,.63,6.34,1.41,9.54,1.62,5.79,.37,11.69,1.06,17.38,.33,8.76-1.12,17.34-3.67,24.96-8.3,6.29-3.83,12.21-8.27,18.19-12.59,4.62-3.35,9.17-6.66,14.45-9.04,6.51-2.94,10.7-8.09,12.16-15.32,.57-2.86,1.51-5.67,2.46-8.44,.54-1.57,1.49-2.99,2.17-4.52Z"/>
          <path class="cls-2" d="M655.22,154.7c.83,4.35-.47,8.58-2.24,12.59-.68,1.53-1.63,2.95-2.17,4.52-.95,2.77-1.89,5.58-2.46,8.44-1.46,7.23-5.65,12.38-12.16,15.32-5.28,2.38-9.83,5.69-14.45,9.04-5.98,4.32-11.9,8.76-18.19,12.59-7.62,4.63-16.2,7.18-24.96,8.3-5.69,.73-11.59,.04-17.38-.33-3.2-.21-6.38-.99-9.54-1.62-5.2-1.05-9.7-3.67-14.05-6.55-3.34-2.21-7.06-3.37-10.89-4.29-.47-.12-.96-.18-1.41-.34-4.9-1.79-9.6,.04-12.13,4.74-1.76,3.26-2.49,6.86-2.67,10.47-.17,3.56-1.62,6.16-4.24,8.37-1.41,1.2-2.73,2.55-3.92,3.96-2.14,2.54-2.68,5.43-1.29,8.52,.52,1.16,1.19,2.26,1.88,3.33,1.13,1.74,2.06,3.46,2.26,5.65,.27,2.83,2.22,4.77,4.59,6.16,1.7,.99,3.5,1.79,5.28,2.63,5.95,2.83,11.85,5.75,17.87,8.4,5.14,2.25,10.55,3.6,16.22,3.91,4.01,.22,7.99,.85,12,1.18,1.85,.16,3.72,.03,5.57,.03,7.44,.33,14.64-.91,21.84-2.75,5.01-1.28,10.19-1.93,15.32-2.68,3.78-.55,7.59-.94,11.41-1.18,4.49-.29,8.72,1.01,12.87,2.61,2.52,.97,3.94,2.82,4.56,5.37,1.34,5.53,1.26,11.09,.1,16.61-.47,2.22-1.63,4.25-3.45,5.72-4.05,3.3-8.17,6.54-13.23,8.15-2.78,.89-5.69,1.4-8.56,1.99-4.7,.97-9.39,1.97-14.11,2.76-4.06,.68-8.14,1.25-12.24,1.59-6.66,.55-13.34,1.24-20,1.17-6.95-.07-13.9-.99-20.85-1.48-5.31-.38-10.45-1.56-15.58-2.93-5.84-1.56-11.26-4-16.37-7.21-4.33-2.72-8.77-5.3-13.9-6.18-2.8-.49-5.65-.84-8.47-.88-1.93-.03-3.42-.64-4.81-1.81-.98-.82-1.91-1.73-3-2.37-4.99-2.91-7.48-7.59-9.33-12.79-1.76-4.94-2.67-10-2.99-15.23-.37-6.07-1.21-12.12-1.57-18.19-.4-6.87-.88-13.78-.58-20.64,.25-5.54,1.68-11.02,2.45-16.55,.52-3.77,1.24-7.52,.53-11.41-.68-3.75-1-7.58-1.3-11.39-.45-5.7,.85-11.09,3.11-16.32,4.46-10.28,11.38-18.48,20.25-25.26,8.06-6.16,16.01-12.44,24.59-17.85,3.58-2.25,7.29-4.24,11.5-5.13,5.51-1.17,10.09-4.27,14.63-7.38,3.43-2.36,7.01-4.38,11.14-5.14,5.66-1.06,11.29-1.3,16.84,.73,8.11,2.95,16.15,6.12,24.4,8.63,5.4,1.65,11.06,2.56,16.68,3.33,10,1.36,20.01,2.51,29.57,6.12,6.26,2.37,10.8,6.47,13.58,12.37,1.57,3.34,2.76,6.96,3.45,10.58Zm-47.2,17.82c.27-1.2,.21-2.4-.16-3.59-.36-1.11-.9-2.2-1.6-3.15-1.09-3.13-3.8-5.6-8.13-5.56-7.68,.08-14.99,1.09-22.32-1.78-7.13-2.8-13.92-6.32-21.84-5.62-14.06,1.24-23.83,15.51-23.7,29.11,.01,.79,.07,1.55,.15,2.28-2.13,5.31,.51,12.75,7.97,12.75,.38,0,.75-.02,1.11-.06,4.82,2.49,10.86,3.42,16.54,3.36,5.74-.05,11.74-.67,17.11-2.77,7.56-2.95,13.88-7.74,20.41-12.44,1.38-1,2.5-2.27,3.28-3.68,.54-.04,1.06-.15,1.58-.32l3.15-1.05c2.23-.74,4.18-2.08,5.38-4.14,.66-1.03,1.02-2.15,1.07-3.34Z"/>
        </g>
        <path class="cls-2" d="M566.75,279.72c7.44,.33,14.64-.91,21.83-2.75,5.01-1.28,10.19-1.93,15.33-2.68,3.78-.55,7.59-.94,11.4-1.19,4.5-.29,8.73,1.01,12.88,2.61,2.51,.97,3.94,2.82,4.56,5.37,1.34,5.53,1.26,11.09,.1,16.6-.47,2.22-1.62,4.25-3.44,5.73-4.05,3.29-8.17,6.54-13.23,8.15-2.79,.89-5.69,1.4-8.57,1.99-4.69,.97-9.38,1.96-14.11,2.76-4.05,.68-8.14,1.25-12.24,1.59-6.66,.55-13.34,1.24-20,1.17-6.95-.07-13.9-.99-20.85-1.48-5.31-.38-10.45-1.56-15.58-2.92-5.84-1.56-11.26-4-16.37-7.21-4.33-2.72-8.77-5.3-13.91-6.18-2.79-.48-5.64-.83-8.47-.88-1.92-.03-3.41-.64-4.81-1.81-.98-.82-1.91-1.73-2.99-2.37-4.99-2.92-7.48-7.6-9.33-12.8-1.76-4.93-2.67-10-2.99-15.23-.37-6.07-1.21-12.11-1.57-18.18-.4-6.87-.88-13.78-.58-20.64,.24-5.54,1.68-11.03,2.44-16.55,.52-3.77,1.24-7.52,.53-11.41-.68-3.75-1-7.58-1.3-11.39-.45-5.7,.85-11.09,3.11-16.32,4.45-10.28,11.38-18.48,20.25-25.26,8.05-6.16,16-12.44,24.59-17.85,3.58-2.25,7.29-4.24,11.5-5.13,5.51-1.17,10.09-4.26,14.62-7.38,3.43-2.36,7.01-4.37,11.14-5.14,5.66-1.05,11.29-1.29,16.85,.73,8.11,2.95,16.15,6.12,24.39,8.64,5.4,1.65,11.07,2.56,16.68,3.32,10.01,1.36,20.01,2.52,29.57,6.13,6.26,2.36,10.8,6.47,13.58,12.36,1.57,3.34,2.76,6.96,3.45,10.58,.83,4.35-.47,8.57-2.24,12.59-.68,1.53-1.63,2.95-2.17,4.53-.95,2.77-1.89,5.58-2.47,8.44-1.46,7.22-5.65,12.38-12.16,15.31-5.28,2.38-9.83,5.69-14.45,9.04-5.97,4.32-11.9,8.77-18.19,12.59-7.62,4.63-16.2,7.18-24.96,8.3-5.69,.73-11.59,.03-17.37-.33-3.2-.2-6.38-.99-9.55-1.62-5.2-1.04-9.7-3.67-14.05-6.54-3.34-2.21-7.06-3.37-10.89-4.3-.47-.11-.96-.17-1.42-.34-4.89-1.78-9.6,.04-12.13,4.74-1.76,3.26-2.49,6.86-2.66,10.47-.17,3.56-1.62,6.16-4.24,8.37-1.41,1.2-2.73,2.54-3.93,3.96-2.14,2.54-2.68,5.43-1.29,8.52,.52,1.16,1.19,2.26,1.89,3.33,1.13,1.74,2.05,3.46,2.26,5.65,.27,2.83,2.22,4.77,4.59,6.15,1.69,.99,3.5,1.79,5.28,2.64,5.95,2.82,11.85,5.75,17.87,8.39,5.14,2.26,10.55,3.61,16.22,3.91,4.01,.22,8,.85,12,1.18,1.85,.15,3.71,.03,5.57,.03Zm-23.2-149.16c1.08,2.09,2.66,2.86,5.33,2.12,4.68-1.3,9.33-2.73,13.93-4.27,1.6-.54,3.03-1.57,5.19-2.72-1.5-.84-2.3-1.54-3.23-1.77-4.52-1.13-9.03-.97-13.49,.44-.47-.08-.94-.16-1.41-.23-2.64-.43-5.28-.65-7.84,.36-1.87,.74-2.66,2.57-1.92,4.32,.65,1.54,2.04,1.67,3.44,1.75Zm-36.05,13.97c-.35,.18-.67,.47-1.04,.54-3.61,.68-6.47,2.66-9.04,5.15-.63,.61-1.28,1.25-1.71,2-.77,1.34-.57,2.96,.32,3.79,.9,.85,2.82,.77,4.06-.21,.68-.54,1.32-1.15,1.97-1.73,1.92,3.08,4.18,3.96,7.06,2.09,3.01-1.95,5.73-4.38,8.46-6.73,.7-.6,1.08-1.63,1.44-2.53,.78-1.95,.3-3.22-1.59-4.08-.77-.35-1.68-.5-2.53-.56-2.74-.2-5.05,1.1-7.39,2.26Zm50.15,5.07c-2.4,.44-4.84,.72-7.18,1.36-7.89,2.14-13.8,7.08-18.12,13.8-4.14,6.46-6.98,13.42-5.32,21.41,.13,.63-.05,1.32-.05,1.98-.01,3.41,.42,6.84,3,9.23,1.83,1.69,4.16,3.18,6.52,3.89,4.58,1.37,9.33,2.2,14.04,3.12,5.18,1.01,10.4,.44,15.59,0,4.53-.38,9.07-1.12,12.83-3.84,4.29-3.11,8.44-6.45,12.4-9.97,3.29-2.92,6.9-5.18,10.94-6.85,1.99-.82,3.96-1.74,5.87-2.75,1.53-.81,2.77-2.1,2.86-3.87,.1-2.14,0-4.33-.35-6.45-.94-5.76-5.01-8.87-9.9-11.19-2.51-1.2-5.16-1.86-7.97-1.71-3.24,.18-6.47,.51-9.71,.48-1.61-.01-3.31-.46-4.81-1.1-2.71-1.16-5.33-2.53-7.92-3.95-3.96-2.17-8.14-3.35-12.73-3.59Zm59.91,133.7c-.05-1.82-1.27-2.37-2.44-2.8-1.17-.43-2.44-.81-3.67-.87-5.99-.26-11.9,.24-17.59,2.29-.8,.29-1.52,.82-2.21,1.33-1.24,.92-1.77,2.24-1.14,3.63,.63,1.38,1.76,2.43,3.49,2.19,2.5-.35,5.01-.67,7.47-1.2,5.4-1.18,10.9-2.03,16.1-4.56Zm26.48-131.15c-.25-1.54-.31-2.63-.61-3.64-.7-2.35-3.42-4.23-5.31-3.79-2.4,.56-4.5,3.37-3.87,5.76,.72,2.71,1.69,5.4,2.95,7.9,1.26,2.5,4.39,2.38,5.48-.24,.84-2.01,1-4.31,1.36-6Zm-165.37,28.86c-2.3,.14-3.08,.6-4.33,2.59-2.33,3.71-3.45,7.88-4.14,12.12-.24,1.46,.04,3.18,.63,4.54,.81,1.9,3.13,1.74,4.08-.14,.3-.6,.49-1.28,.62-1.94,.61-2.96,1.21-5.93,1.75-8.91,.5-2.73,.92-5.48,1.39-8.27Zm72.85,105.73c-.48-.92-.7-1.89-1.3-2.39-2.62-2.18-5.65-3.51-9.1-3.56-2.34-.03-3.81,1.29-4.11,3.38-.35,2.42,.83,4.28,3.2,4.87,4.02,.99,7.63-.07,11.31-2.3Zm-68.78,4.06l.53-.35c-.16-.93-.22-1.89-.51-2.78-.7-2.13-1.45-4.24-2.3-6.31-.85-2.08-1.79-4.12-2.78-6.14-.63-1.29-1.75-1.88-3.17-1.49-1.39,.39-2.14,1.43-1.99,2.87,.12,1.14,.24,2.43,.84,3.33,1.78,2.67,3.71,5.26,5.76,7.73,1.01,1.21,2.41,2.1,3.63,3.14Zm156.5-114.76c-2.51,2.78-4.71,5.01-6.64,7.45-.97,1.21-.81,2.76,.18,4.09,.76,1.03,1.72,1.67,3.01,1.41,1.6-.32,2.11-1.68,2.43-3.03,.63-2.66,1.18-5.34,1.69-8.02,.07-.38-.27-.83-.66-1.9Zm-21.34,118.36c2.15,.09,4.34-1.26,4.36-2.68,.02-1.81-2.29-3.77-4.55-3.85-1.96-.07-3.67,1.3-3.7,2.96-.04,1.95,1.63,3.48,3.89,3.57Zm-116.28-.35c-.21-.41-.32-.68-.48-.91-1.49-2.05-2.96-4.11-4.5-6.12-.73-.96-1.64-1.77-2.98-1.04-1.13,.62-1.5,1.89-1.04,3.3,.06,.19,.07,.4,.17,.56,1.86,2.73,4.59,4.15,7.71,4.9,.29,.07,.72-.43,1.12-.68Zm-20.68-100.79s-.19-.14-.36-.11c-.28,.05-.64,.13-.78,.33-1.75,2.56-2.86,5.34-2.43,8.5,.23,1.71,1.42,2.97,2.46,2.89,1.22-.1,1.71-1.06,1.64-3.25-.02-.59-.07-1.17-.1-1.76-.13-2.09-.27-4.19-.42-6.6Z"/>
        <path class="cls-16" d="M557.65,149.6c4.58,.24,8.77,1.42,12.73,3.59,2.58,1.42,5.21,2.79,7.92,3.95,1.49,.64,3.19,1.08,4.81,1.1,3.23,.03,6.47-.31,9.71-.48,2.81-.15,5.46,.51,7.97,1.71,4.88,2.32,8.96,5.43,9.9,11.19,.35,2.12,.46,4.31,.35,6.45-.09,1.77-1.33,3.06-2.86,3.87-1.91,1.01-3.87,1.92-5.87,2.75-4.04,1.67-7.64,3.93-10.94,6.85-3.96,3.52-8.11,6.87-12.4,9.97-3.76,2.72-8.3,3.46-12.83,3.84-5.19,.44-10.41,1.02-15.59,0-4.71-.92-9.46-1.75-14.04-3.12-2.37-.71-4.69-2.2-6.52-3.89-2.58-2.39-3.01-5.82-3-9.23,0-.66,.18-1.35,.05-1.98-1.66-7.99,1.17-14.95,5.32-21.41,4.31-6.72,10.23-11.66,18.12-13.8,2.34-.64,4.79-.92,7.18-1.36Zm.27,49.72c1.97-.09,3.94-.13,5.91-.28,5.8-.43,11.26-1.82,15.83-5.7,2.1-1.79,4.28-3.49,6.38-5.27,4.45-3.78,9.14-7.16,14.68-9.22,1.47-.55,2.9-1.23,4.34-1.86,1.1-.48,1.79-1.3,1.64-2.53-.5-3.91-1.56-7.44-5.36-9.63-3.08-1.77-6.17-3-9.78-2.44-1.17,.18-2.35,.23-3.52,.38-4.61,.58-9.02,.02-13.2-2.12-2.27-1.17-4.56-2.31-6.85-3.45-7.26-3.6-14.46-3.31-21.47,.6-7.94,4.43-12.61,11.39-14.75,20.09-.48,1.97-.66,4.12-.45,6.13,.27,2.62,1.02,5.19,1.68,7.75,.14,.56,.72,1.13,1.24,1.44,7.28,4.39,15.23,6.23,23.69,6.1Z"/>
        <path class="cls-7" d="M478.67,181.01c-.46,2.79-.89,5.54-1.39,8.27-.54,2.98-1.14,5.94-1.75,8.91-.14,.66-.32,1.34-.62,1.94-.95,1.88-3.27,2.04-4.08,.14-.59-1.37-.86-3.09-.63-4.54,.7-4.25,1.82-8.41,4.14-12.12,1.24-1.98,2.03-2.45,4.33-2.59Z"/>
        <path class="cls-22" d="M482.73,290.8c-1.22-1.04-2.62-1.92-3.63-3.14-2.05-2.47-3.98-5.06-5.76-7.73-.6-.9-.72-2.2-.84-3.33-.15-1.43,.6-2.48,1.99-2.87,1.42-.4,2.54,.2,3.17,1.49,.99,2.02,1.93,4.06,2.78,6.14,.85,2.07,1.6,4.19,2.3,6.31,.29,.89,.35,1.85,.51,2.78l-.53,.35Z"/>
        <path class="cls-28" d="M507.5,144.53l1.8,.21c-.02,1.88-1.2,2.94-2.21,4.04-1.64,1.79-3.35,3.52-5.03,5.28-.66,.58-1.29,1.19-1.97,1.73-1.24,.98-3.15,1.06-4.06,.21-.88-.83-1.09-2.45-.32-3.79,.43-.75,1.08-1.39,1.71-2,2.57-2.49,5.43-4.47,9.04-5.15,.37-.07,.69-.35,1.04-.54Z"/>
        <path class="cls-18" d="M551.27,124.36c1.09,.42,2.88,.18,2.84,1.73-.02,.67-1.57,1.52-2.57,1.89-2.62,.97-5.33,1.73-8,2.57-1.4-.08-2.79-.21-3.44-1.75-.73-1.74,.05-3.58,1.92-4.32,2.56-1.01,5.2-.79,7.84-.36,.47,.08,.94,.16,1.41,.23Z"/>
        <path class="cls-28" d="M639.23,176.04c.39,1.07,1.19,2.05,.86,2.12-.51,2.68-1.25,5.15-1.88,7.81-.32,1.35-.83,2.71-2.43,3.03-1.29,.26-2.25-.39-3.01-1.41-.99-1.34-1.15-2.88-.18-4.09,1.94-2.44,4.14-4.67,6.64-7.45Z"/>
        <path class="cls-28" d="M501.61,294.04c-.4,.26-.83,.75-1.12,.68-3.11-.75-5.84-2.17-7.71-4.9-.1-.15-.11-.37-.17-.56-.46-1.41-.09-2.68,1.04-3.3,1.34-.73,2.25,.08,2.98,1.04,1.53,2.01,3.01,4.07,4.5,6.12,.16,.23,.27,.5,.48,.91Z"/>
        <path class="cls-17" d="M480.92,193.25c.16,2.41,.29,4.51,.42,6.6,.04,.59,.09,1.17,.1,1.76,.07,2.19-.42,3.15-1.64,3.25-1.03,.09-2.23-1.18-2.46-2.89-.42-3.16,.68-5.94,2.43-8.5,.14-.2,.5-.28,.78-.33,.16-.03,.36,.11,.36,.11Z"/>
      </g>
      <g>
        <path d="M763.29,326.66c-9.14-.07-17.52-3.37-25.99-6.17-8.57-2.83-16.98-6.14-25.51-9.09-6.34-2.2-11.82-5.47-15.79-11.03-2.09-2.93-3.63-6.12-4.64-9.53-1.09-3.68-3.11-6.69-5.6-9.59-3.63-4.22-6.97-8.68-10.28-13.16-1.3-1.76-2.29-3.78-3.22-5.77-.6-1.28-1.26-2.77-1.15-4.1,.25-2.97-1-5.37-2.16-7.89-2.31-5.01-3.63-10.32-4.19-15.78-.57-5.55,.58-10.88,2.52-16.06,.54-1.44,1.1-2.88,1.79-4.24,6.38-12.56,9.59-26.09,11.75-39.85,1.84-11.71,5.14-22.81,11.61-32.83,5.74-8.89,12.69-16.6,21.79-22.26,6.19-3.85,12.87-5.93,20.16-6.1,5.09-.11,10.21,.1,15.26-.39,5.53-.54,11.01-1.71,16.5-2.61,7.27-1.19,14.53-1.41,21.81-.08,.57,.1,1.14,.18,1.71,.23,3.97,.33,7.51,1.72,10.36,4.51,3.24,3.17,7.03,5.2,11.34,6.58,5.16,1.66,9.77,4.38,13.94,7.93,5.51,4.69,10.41,9.91,15.03,15.48,5.51,6.65,6.76,14.02,4.96,22.14-.56,2.51-1.25,5.08-2.41,7.35-3.63,7.11-9.63,11.06-17.52,12.06-6.55,.83-12.68-.24-17.86-4.69-5.25-4.51-11.51-6.86-18.07-8.56-8.1-2.1-16.11-4.44-23.74-7.95-6.09-2.8-11.66-1.39-15.94,3.87-.97,1.19-1.75,2.52-2.61,3.8-1.92,2.87-3.76,5.8-5.77,8.61-1.81,2.53-3.24,5.23-3.99,8.24-1.31,5.26-3.81,9.81-7.77,13.54-3.37,3.17-5.09,7.2-5.85,11.63-.8,4.62-1.44,9.28-1.94,13.95-.36,3.36,.12,6.69,1,9.97,1.67,6.24,4.2,12.12,6.98,17.93,4.1,8.6,9.5,11.4,20.24,10.61,3.9-.29,7.76-1.3,11.63-1.98,4.35-.76,8.68-1.67,13.06-2.24,4.07-.54,7.53-2.18,10.56-4.85,3.1-2.73,6.08-5.61,9.31-8.18,2.47-1.96,5.11-3.78,7.91-5.21,4.53-2.3,9.17-4.43,13.91-6.25,3.69-1.42,7.62-1.81,11.64-1.12,4.93,.84,8.93,3.19,11.56,7.35,2.82,4.45,5.55,9.01,7.75,13.79,3.77,8.21,4.18,16.62,.36,25.06-3.21,7.07-6.92,13.78-13.4,18.4-3.03,2.16-6.33,3.99-9.66,5.68-4.71,2.38-9.74,4.17-14.3,6.78-8.15,4.66-16.95,7.13-26.04,8.93-3.11,.62-6.2,1.34-9.29,2.07-3.86,.9-7.77,1.31-11.72,1.09Z"/>
        <path class="cls-2" d="M741.43,119.12c-2.11,0-4.23,0-6.34,0-6.42,.03-12.32,1.84-17.71,5.31-14.38,9.25-23.62,22.35-28.34,38.58-1.82,6.24-2.78,12.73-4.06,19.12-2.34,11.7-5.47,23.13-10.79,33.88-1.19,2.4-2.1,4.95-2.91,7.5-.96,3.02-1.59,6.13-1.16,9.35,.64,4.76,1.57,9.45,3.2,13.99,1.32,3.7,2.56,7.43,3.87,11.13,.31,.89,.67,1.78,1.18,2.57,4.05,6.31,8.26,12.49,13.4,18,2.46,2.64,4.08,5.74,5.27,9.15,.95,2.69,2.11,5.37,3.58,7.81,3.18,5.28,8.28,8.07,13.93,10.12,7.4,2.7,14.72,5.6,22.08,8.38,1.8,.68,3.62,1.28,5.46,1.85,3.21,.99,6.46,1.86,9.66,2.9,4.9,1.58,9.93,2.26,15.04,2.34,2.09,.03,4.23-.2,6.28-.61,6.68-1.35,13.33-2.9,20.01-4.26,3.33-.68,6.47-1.79,9.48-3.33,7.28-3.7,14.54-7.42,22.27-10.15,3.02-1.07,5.57-2.94,8.04-4.98,3.84-3.18,5.85-7.54,8.15-11.74,4.86-8.9,4.48-17.86,.09-26.74-1.61-3.26-3.63-6.32-5.57-9.41-3.02-4.82-7.52-6.84-13.06-5.96-9.43,1.49-17.64,5.8-25.05,11.65-3.01,2.38-5.8,5.05-8.78,7.48-3.64,2.97-7.74,4.87-12.51,5.41-4.57,.52-9.11,1.36-13.66,2.09-4.17,.68-8.31,1.66-12.51,2.08-10.76,1.07-19.12-2.36-24.13-11.86-3.28-6.22-6.44-12.47-8.16-19.28-.88-3.5-1.47-7.17-1.52-10.77-.05-4,.6-8.02,1.05-12.01,.91-8.1,3.4-15.51,9.47-21.37,2.46-2.38,3.92-5.41,4.97-8.66,.62-1.91,1.1-3.96,2.17-5.62,4.09-6.37,7.97-12.94,12.73-18.8,5.57-6.86,13.31-8.76,21.74-4.32,6.17,3.25,12.78,5.24,19.48,7.01,8.32,2.2,16.32,4.93,23.01,10.75,4.38,3.81,9.77,4.71,15.47,3.43,6.37-1.43,10.72-5.15,12.33-11.52,.82-3.23,1.28-6.6,1.43-9.92,.17-3.72-.92-7.2-3.46-10.11-1.64-1.88-3.12-3.91-4.84-5.72-6.53-6.86-13.48-13.2-22.67-16.38-5-1.73-9.44-4.25-13.13-8.06-1.5-1.55-3.36-2.58-5.51-2.95-7.53-1.3-15.07-1.67-22.67-.48-8.72,1.36-17.31,3.89-26.29,3.14Z"/>
        <path d="M828.21,154.28c-.03,.37-.06,1.33-.19,2.27-.03,.22-.35,.55-.54,.55-.32,0-.86-.15-.93-.36-1.44-4.27-4.6-7.48-6.93-11.2-.25-.4-.61-.89-.57-1.29,.1-.89,.2-1.92,.7-2.6,.7-.94,1.87-.9,2.88-.34,.57,.32,1.16,.74,1.54,1.26,2.42,3.31,4.2,6.86,4.03,11.7Z"/>
        <path d="M706.34,230.34c-.42-1.7-.99-3.23-1.12-4.79-.21-2.38-.15-4.78-.11-7.17,.01-.62,.24-1.46,.68-1.8,.61-.47,1.54-.84,2.28-.75,.59,.07,1.52,.84,1.57,1.36,.39,4.42,.22,8.78-2.25,12.71-.08,.13-.33,.15-1.05,.45Z"/>
        <path d="M809.6,134.34c-.41,.12-.62,.25-.76,.21-3.35-1.12-6.69-2.25-10.03-3.4-.36-.12-.85-.25-.99-.52-.38-.72-.93-1.58-.79-2.26,.14-.67,.97-1.28,1.62-1.75,.33-.23,.93-.13,1.41-.1,3.83,.22,8.21,3.77,9.54,7.82Z"/>
        <path d="M828.9,262.27c-2.41-2.18-4.39-3.96-6.36-5.76-.21-.19-.4-.42-.56-.65-.97-1.39-.98-2.69-.05-3.67,.96-1,2.71-1.1,3.91,.02,2.74,2.55,4.16,5.61,3.06,10.06Z"/>
        <path d="M742.39,128.21c-.97,0-1.47,.12-1.87-.02-1.92-.67-3.87-.98-5.89-.63-.37,.06-.77,.06-1.14,0-1.53-.2-2.35-1.02-2.4-2.35-.05-1.46,.8-2.49,2.37-2.72,2.93-.43,5.21,.83,7.1,2.91,.62,.68,1.04,1.56,1.84,2.8Z"/>
        <path d="M813.81,257.64c-1.67,.42-3.1,.94-4.58,1.12-1.52,.18-2.72-.9-2.85-2.24-.15-1.48,.95-2.66,2.6-2.82,2.24-.22,3.45,.68,4.82,3.94Z"/>
        <path d="M720.69,188c-.86-2.89-.35-4.98,.73-6.89,.82-1.45,2.59-1.75,3.72-.91,1.1,.82,1.15,2.46-.09,3.78-1.23,1.3-2.63,2.45-4.36,4.03Z"/>
        <path d="M836.89,269c-.1,.82-.04,1.25-.21,1.56-.35,.62-.82,1.18-1.25,1.76-.47-.41-1.02-.76-1.38-1.25-.62-.84-1.19-1.73-1.63-2.67-.6-1.28-.21-2.49,.79-2.97,1.13-.54,2.46-.06,3.06,1.26,.38,.84,.49,1.8,.62,2.31Z"/>
      </g>
      <g>
        <path class="cls-5" d="M863.3,275.81c.56-8.48,1.24-18.56,1.9-28.63,.23-3.42,.37-6.85,.64-10.28,.54-6.93,1.14-13.86,1.71-20.79,.43-5.27,.96-10.54,1.27-15.82,.37-6.27,.65-12.55,.8-18.82,.19-7.85,.3-15.7,.29-23.55-.01-6.08-.23-12.17-.47-18.24-.07-1.74-.56-3.47-.84-5.2-.57-3.48-.8-6.98-.31-10.49,.53-3.8,2.03-7.13,4.81-9.83,1.25-1.21,2.42-2.39,3.17-4.12,1.07-2.45,3.52-3.68,5.9-4.59,7.56-2.92,14.94-2.43,21.86,1.88,2.98,1.86,6.09,3.77,8.46,6.29,3.35,3.57,5.68,8.01,6.27,12.96,.44,3.75,.15,7.59,.17,11.39,.05,7.63-1.12,15.28,.71,22.89,.59,2.44,.53,5.04,.72,7.57,.13,1.76,.1,3.54,.32,5.29,.1,.8,.5,1.65,.98,2.31,1.08,1.49,1.76,1.61,3,.24,3.29-3.63,6.63-7.24,9.62-11.12,2.69-3.5,5.45-6.88,8.51-10.08,3.65-3.82,6.9-8.03,10.27-12.12,7.07-8.55,13.88-17.32,22.17-24.77,7.77-6.99,16.44-12.29,26.78-14.5,12.92-2.76,23.75,.98,32.54,10.73,5.04,5.6,5.14,12.06,2.35,18.61-2.56,6.01-6.34,11.26-11.19,15.7-4.05,3.71-8.05,7.5-11.35,11.92-1.47,1.96-2.89,3.96-4.21,6.03-1.97,3.09-4.31,5.85-7.11,8.2-6.92,5.79-12.44,12.76-17.36,20.26-3.22,4.92-6.39,9.88-9.65,14.78-.67,1-.54,1.66,.09,2.6,5.49,8.12,10.86,16.33,16.39,24.42,3.72,5.45,8.08,10.36,13.12,14.65,3.07,2.61,5.86,5.5,7.99,8.99,4.08,6.68,9.33,12.35,15.12,17.56,4.96,4.46,8.83,9.73,11.52,15.82,3.05,6.9,2.88,13.56-2.48,19.33-7.73,8.31-17.15,12.42-28.66,10.91-10.29-1.35-19.17-5.78-27.12-12.33-7.23-5.96-13.42-12.91-19.37-20.11-6.06-7.34-12.23-14.58-18.36-21.86-.19-.23-.43-.41-.59-.66-2.66-4.33-6.95-6.42-11.36-8.39-1.5-.67-2.94-1.53-4.29-2.46-2.27-1.56-4.66-1.16-7.03-.54-.61,.16-1.15,1.04-1.49,1.71-1.39,2.7-2.37,5.53-2.42,8.64-.04,2.65-.25,5.29-.37,7.93-.18,4.35-1.67,8.43-2.7,12.6-1.16,4.68-1.77,9.42-2.24,14.19-.41,4.16-1.41,8.08-3.91,11.5-.28,.39-.56,.81-.92,1.11-5.36,4.47-11.2,7.97-18.4,8.2-4.76,.15-9.28-.99-13.29-3.69-1.3-.87-2.41-1.97-2.97-3.55-.25-.7-.72-1.43-1.29-1.89-4.61-3.74-6.34-8.81-6.63-14.49-.39-7.55-.67-15.1-1.06-24.27Z"/>
        <path class="cls-2" d="M914.91,138.87c-.08,5.8-.21,11.59-.21,17.39,0,1.45,.44,2.9,.58,4.35,.41,4.28,.82,8.57,1.12,12.86,.15,2.2,.99,3.92,2.67,5.33,4.17,3.5,6.23,3.47,9.92-.57,3.96-4.34,7.95-8.66,11.27-13.54,1.7-2.5,3.87-4.58,6.02-6.73,3.25-3.24,6.1-6.9,9.06-10.43,6.36-7.58,12.25-15.58,19.38-22.49,5.29-5.12,10.82-9.95,17.57-13.09,5.6-2.61,11.37-4.48,17.67-4.61,6.16-.13,11.48,1.91,16.37,5.41,1.35,.96,2.6,2.09,3.77,3.26,4.08,4.08,5.15,8.88,2.95,14.24-2.22,5.4-5.47,10.15-9.78,14.11-6.22,5.72-12.22,11.65-16.68,18.92-2.03,3.32-4.6,6.14-7.53,8.59-6.53,5.47-11.82,12-16.52,19.03-3.69,5.52-7.15,11.19-10.62,16.85-1.2,1.96-1.75,4-.21,6.26,2.53,3.7,4.78,7.6,7.24,11.36,3.43,5.24,6.83,10.5,10.45,15.6,3.69,5.21,7.91,9.96,12.83,14.09,3,2.52,5.68,5.38,7.77,8.77,4.53,7.33,10.58,13.35,16.87,19.14,4.31,3.97,7.54,8.72,9.73,14.14,2.18,5.39,1.05,10.16-3.03,14.22-4.03,4.01-8.73,6.89-14.35,8.06-5.29,1.1-10.48,.46-15.61-1.04-8.02-2.36-14.87-6.7-21.13-12.19-7.79-6.83-14.15-14.92-20.69-22.87-3.92-4.77-7.98-9.42-11.99-14.12-1.21-1.42-2.44-2.81-3.67-4.22-3.07-3.52-6.86-6.01-11.12-7.86-1.86-.81-3.62-1.86-5.37-2.89-1.12-.66-2.25-1.14-3.58-1.09-1.18,.04-2.35-.01-3.53,.02-4.1,.1-7.04,2.53-7.78,6.57-.86,4.7-1.55,9.41-2,14.19-.49,5.31-1.93,10.53-2.9,15.79-.58,3.16-1.08,6.34-1.58,9.52-.45,2.89-.76,5.81-1.3,8.68-.17,.89-.75,1.86-1.43,2.45-2.89,2.5-5.93,4.81-9.4,6.46-5.14,2.44-10.5,2.4-15.64,.43-2.34-.9-4.23-3.05-6.22-4.76-3.55-3.05-4.63-7.33-5.38-11.67-.46-2.68-.74-5.43-.7-8.14,.11-7.26,.35-14.52,.69-21.77,.28-6.06,.68-12.12,1.15-18.17,.45-5.84,1.06-11.68,1.6-17.51,.21-2.34,.44-4.67,.62-7.01,.25-3.32,.45-6.64,.69-9.96,.51-7.12,1.04-14.24,1.55-21.37,.08-1.08,.09-2.16,.09-3.24,0-8.95,.01-17.89-.05-26.84-.02-2.64-.36-5.28-.36-7.92,0-2.84,.26-5.67,.33-8.51,.11-4.7-.03-9.39-.92-14.03-.44-2.29-1.05-4.59-1.14-6.9-.18-4.44,.14-8.84,3.46-12.33,1.55-1.63,3.03-3.35,4.72-4.81,3.88-3.35,8.56-3.92,13.44-3.39,4.63,.51,8.46,2.89,12.03,5.65,2.09,1.61,4.02,3.44,5.91,5.29,1.44,1.41,2.1,3.16,2.1,5.28,0,2.14,.43,4.27,.67,6.41,.44,2.45,.23,4.91,.12,7.36Z"/>
        <path class="cls-21" d="M914.91,138.87c-.04-2.45-.08-4.91-.12-7.36,.18,.5,.54,1.01,.52,1.51-.07,1.95-.26,3.9-.4,5.85Z"/>
        <path class="cls-14" d="M989.56,247.57c-.17,.32-.24,.61-.35,.63-.25,.04-.59,.04-.77-.1-1.08-.84-2.14-1.7-3.16-2.61-2.8-2.49-5-5.49-6.97-8.65-.34-.54-.58-1.32-.47-1.91,.1-.55,.64-1.19,1.15-1.46,.37-.19,1.05,.11,1.53,.34,.32,.16,.57,.53,.78,.86,2.56,3.91,5.11,7.82,7.66,11.74,.25,.39,.44,.82,.62,1.15Z"/>
        <path class="cls-14" d="M1006.67,270.18c-.16,.29-.26,.56-.45,.74-.08,.07-.4,0-.53-.12-.52-.44-1.06-.87-1.49-1.39-2.73-3.29-5.46-6.59-8.13-9.93-.96-1.2-1.04-2.6-.36-3.15,.72-.58,1.99-.22,2.95,1.08,2.66,3.57,5.4,7.11,7.3,11.19,.24,.52,.47,1.05,.71,1.59Z"/>
        <path class="cls-14" d="M899.2,113.39c.28,.11,.85,.25,1.34,.54,2.75,1.56,4.99,3.71,6.91,6.19,.35,.45,.62,.99,.77,1.53,.08,.31-.11,.73-.28,1.04-.04,.07-.54-.02-.76-.16-3.13-1.94-6.26-3.87-9.36-5.86-.72-.46-1.59-1-1.27-2.07,.34-1.13,1.31-1.31,2.65-1.22Z"/>
        <path class="cls-14" d="M997.78,115.6c-.13,.26-.16,.5-.3,.59-3.39,2.24-6.8,4.46-10.2,6.68-.16,.11-.35,.31-.5,.29-.52-.07-1.12-.1-1.5-.39-.23-.18-.28-.92-.1-1.22,.49-.82,1-1.77,1.76-2.26,2.19-1.4,4.46-2.72,6.82-3.82,.99-.46,2.27-.27,3.43-.32,.2,0,.4,.3,.59,.45Z"/>
        <path class="cls-14" d="M1011.58,109.67c2.11,.64,4.29,1.14,6.32,2,.89,.38,1.53,1.44,2.15,2.3,.39,.55-.14,1.2-.78,1.11-2.58-.37-5.15-.74-7.73-1.11-.1-.01-.2,0-.29-.01-1.51-.21-2.25-.81-2.27-1.82-.03-1.26,1.06-2.21,2.62-2.47Z"/>
        <path class="cls-5" d="M908.05,264.72c.27-1.37,.5-2.6,.76-3.81,.23-1.04,.93-1.41,1.95-1.28,1.06,.14,1.1,.95,1.1,1.74,.01,2.45-.47,4.8-1.52,7.01-.14,.3-.57,.62-.87,.63-.24,0-.62-.42-.7-.72-.3-1.2-.5-2.42-.73-3.56Z"/>
        <path class="cls-14" d="M910.84,137.03c-.24,1.33-.4,2.57-.71,3.78-.1,.37-.58,.65-.88,.97-.31-.32-.86-.61-.9-.97-.3-2.61-.55-5.22-.7-7.84-.02-.42,.42-1.11,.81-1.26,.66-.27,1.42-.02,1.59,.81,.32,1.51,.54,3.03,.79,4.51Z"/>
        <path class="cls-14" d="M912.39,155.98c-.35,1.74-.72,3.64-1.15,5.54-.07,.29-.44,.5-.67,.75-.19-.19-.43-.36-.56-.59-1.26-2.29-.91-4.71-.44-7.1,.08-.4,.87-.91,1.33-.91,.45,0,.97,.55,1.31,.98,.21,.26,.12,.75,.18,1.33Z"/>
        <path class="cls-14" d="M908.27,284.93c-.3,1.39-.73,3.37-1.19,5.35-.05,.23-.32,.42-.49,.62-.24-.24-.65-.46-.68-.72-.22-2.12-.38-4.25-.55-6.38,0-.1,.01-.2,.04-.29,.28-1.18,1.17-2.17,1.85-1.96,1.07,.33,1.08,1.25,1.03,2.16-.01,.2,0,.39,0,1.21Z"/>
        <path class="cls-14" d="M1027.86,292.35c-.05,.38-.07,.77-.17,1.14-.04,.14-.25,.3-.4,.32-.16,.02-.43-.06-.5-.18-1.04-1.85-2.13-3.69-3.03-5.61-.19-.41,.17-1.38,.57-1.68,.53-.38,1.29-.22,1.72,.55,.95,1.71,1.9,3.41,1.81,5.47Z"/>
      </g>
      <g>
        <g>
          <path class="cls-16" d="M1397.72,110.88c2.77,6.77,2.9,13.72,.97,20.69-1.02,3.67-2.19,7.32-3.58,10.86-2.74,7.03-5.05,14.17-6.59,21.57-1.85,8.86-6.09,16.78-10.42,24.62-2.97,5.36-6.21,10.58-9.38,15.84-7.56,12.51-14.65,25.25-18.64,39.42-1.18,4.15-2.1,8.38-2.97,12.61-1.38,6.75-4.6,12.84-6.81,19.29-2.45,7.12-4.76,14.29-6.97,21.48-1.85,5.98-3.85,11.84-7.98,16.75-4.4,5.25-9.96,8.06-16.81,8.51-6.03,.41-9.95-2.04-11.74-7.8-1.85-5.95-3.42-12.02-6.78-17.34-2.68-4.24-5.52-8.43-8.79-12.23-3.17-3.67-5.57-7.61-7.02-12.18-.58-1.82-1.1-3.66-1.81-5.43-1.07-2.69-2.9-4.41-5.94-5-3.83-.72-7.52-1.38-11.23,.52-1.57,.8-2.67,1.74-2.97,3.5-.03,.2-.15,.39-.15,.58-.1,5.73-2.89,10.58-5.15,15.61-2.49,5.49-4.73,11.08-7.23,16.56-5.15,11.27-13.57,19.36-24.78,24.65-1.67,.8-3.41,1.45-5.12,2.16h-1.83c-.7-.54-1.33-1.26-2.13-1.56-3.92-1.51-6.29-4.59-8.44-7.93-2.87-4.42-4.94-9.2-6.54-14.19-1.33-4.15-3.28-7.96-5.91-11.45-5.46-7.25-9.07-15.34-11.15-24.16-2.78-11.76-7.11-22.97-12.51-33.81-2.63-5.29-5.14-10.7-7.07-16.27-3.51-10.1-8.21-19.62-13.31-28.96-5.8-10.63-10.46-21.72-13.66-33.39-1.77-6.49-3.73-12.92-5.49-19.41-.44-1.64-.45-3.38-.72-5.05l-.24-8.43c.42-1.67,.52-3.32,.84-5.01,1.44-7.84,7.15-14.13,14.32-14.92,8.3-.91,15.48,1.55,20.43,8.62,1.67,2.37,2.78,5.11,4.22,7.64,1.34,2.35,2.53,4.85,4.22,6.94,5.01,6.18,8.75,13.02,11.64,20.36,2.79,7.11,5.41,14.3,8.4,21.32,2.16,5.08,4.63,10.06,7.3,14.88,3.66,6.63,6.51,13.59,9.13,20.67,2.61,7.06,5.1,14.19,7.97,21.16,1.87,4.52,4.3,8.83,6.52,13.29,3.39-1.66,5.75-3.76,7.59-6.64,2.71-4.25,5.26-8.54,7.14-13.24,.94-2.34,.91-4.49-.31-6.63-1.51-2.61-2.95-5.27-4.64-7.77-4.66-6.92-6.22-14.7-6.88-22.8-.31-3.97-.06-7.84,1.34-11.56,.75-1.96,1.71-3.86,2.76-5.68,2.96-5.08,7.56-7.05,13.31-6.53,2.31,.21,4.63,.57,6.91,1.02,2.45,.48,4.41,1.87,6.2,3.59,2.54,2.45,5.18,4.8,7.81,7.14,1.83,1.61,3.87,2.09,6.14,.86,2.48-1.33,4.99-2.61,7.43-3.99,.97-.55,1.83-1.27,2.7-1.96,5.51-4.41,11.52-4.36,17.73-1.83,1.57,.65,3.1,1.5,4.55,2.41,4.15,2.6,5.64,6.04,4.57,10.82-.43,1.94-1.24,3.8-1.95,5.67-1.91,4.97-3.98,9.88-5.76,14.88-.8,2.25-1.23,4.66-1.57,7.03-.51,3.37-.06,6.59,2.02,9.48,6.54,9.03,9.32,19.5,11.67,30.14,.08,.39,.17,.78,.31,1.43,5.37-3.34,9.46-7.66,12.61-12.89,3.35-5.55,4.08-11.64,3.86-17.99-.15-4.3-.04-8.63,.21-12.93,.2-3.6,1.82-6.77,3.98-9.63,4.32-5.74,7.88-11.91,11.12-18.31,2.41-4.77,5.02-9.42,8.62-13.44,2.14-2.37,2.79-5.42,3.08-8.37,.8-8.24,4.28-15.14,9.48-21.46,2.35-2.84,4.01-6.25,5.97-9.41,2.12-3.41,3.97-7.04,6.41-10.21,4.44-5.75,10.28-8.23,17.66-6.24,5.06,1.36,8.02,4.82,9.89,9.42Zm-5.21,14.08c.77-4.63,.37-9.22-2.05-13.45-1.09-1.91-2.61-3.19-4.79-3.88-3.4-1.09-6.37-.26-8.6,2.19-2.27,2.51-4.32,5.32-5.92,8.29-2.82,5.25-5.79,10.35-9.54,15.01-2.75,3.41-4.84,7.18-5.57,11.56-.34,1.98-.55,3.98-.87,5.95-.62,3.73-1.74,7.25-4.45,10.05-2.91,3-4.99,6.54-7.04,10.14-3.89,6.8-7.77,13.64-12.01,20.23-2.55,3.97-3.9,8.03-3.87,12.73,.02,4.61-.12,9.24-.56,13.82-1.12,11.62-7.69,20.03-16.66,26.89-1.85,1.42-4.02,2.29-6.49,2.15-1.52-.08-2.65-.42-3.26-2.09-1.45-3.95-3.54-7.7-4.58-11.75-1.82-6.96-4.16-13.58-8.23-19.6-2.51-3.69-3.35-7.98-2.69-12.4,.72-4.87,1.91-9.63,3.87-14.19,1.62-3.78,3.05-7.64,4.41-11.53,1.78-5.12,1.21-6.37-3.78-8.72-1.18-.56-2.44-.97-3.66-1.4-3.41-1.2-6.48-.64-9.5,1.36-3.43,2.29-6.98,4.43-10.62,6.36-4.64,2.45-9.25,2.05-13.34-1.26-2.51-2.03-4.7-4.4-7.12-6.53-1.2-1.06-2.42-2.36-3.86-2.76-2.59-.73-5.35-1.03-8.06-1.21-2.36-.16-4.26,.96-5.66,2.92-1.77,2.5-3.08,5.16-3.68,8.18-1.04,5.23-.45,10.39,.57,15.53,1.1,5.55,4.14,10.22,7.21,14.82,1.74,2.61,3.31,5.27,4.15,8.32,.64,2.34,.56,4.59-.49,6.75-2.55,5.25-5.27,10.4-8.96,14.98-.76,.94-1.85,1.87-2.07,2.94-.59,2.93-2.67,4.06-5.1,5.03-.46,.18-1.04,.67-1.11,1.1-.34,1.91-1.72,1.57-2.79,1.18-.99-.37-1.95-1.11-2.66-1.92-3.67-4.19-6.87-8.68-8.82-13.95-3.56-9.6-7.09-19.22-10.85-28.74-1.66-4.19-3.67-8.27-5.88-12.21-4.17-7.48-8.05-15.07-11.06-23.09-2.23-5.93-4.29-11.94-6.95-17.67-2.39-5.18-5.21-10.23-8.39-14.97-2.7-4.02-5.36-7.98-7.44-12.38-1.23-2.57-3.03-5.02-5.08-7.03-3.36-3.3-7.77-4.42-12.35-3.64-5.18,.88-7.93,4.55-9.11,9.39-1.49,6.15-1.65,12.38-.14,18.51,4.53,18.49,10.48,36.47,19.87,53.18,4.4,7.81,7.97,15.99,11.05,24.41,2.2,6.03,4.67,11.99,7.52,17.74,5.2,10.51,9.03,21.46,11.64,32.85,2.04,8.83,5.68,16.92,11.07,24.22,3.01,4.07,5.43,8.43,7.16,13.21,1.98,5.5,4.59,10.73,8.12,15.42,1.05,1.41,2.62,2.45,4.04,3.53,.98,.73,2.04,.59,3.09-.14,3.5-2.4,7.05-4.71,10.54-7.13,5.12-3.54,8.72-8.31,11.19-13.96,.83-1.84,1.66-3.67,2.49-5.52,.9-1.89,2.4-3.53,2.39-5.78,.08-.05,.22-.08,.25-.16,2.77-6.96,6.77-13.47,7.61-21.13,.36-3.23,1.88-5.94,4.6-7.84,5.98-4.21,17.57-4.52,23.62-.39,1.85,1.26,3.36,3.2,4.6,5.1,1.01,1.56,1.55,3.49,2,5.32,1.4,5.66,4.01,10.53,7.81,15.07,5.92,7.09,9.84,15.39,12.82,24.1,.69,1.98,1.29,4.02,2.13,5.95,1.24,2.88,2.58,3.61,5.7,3.32,5.31-.51,9.59-2.86,12.83-7.14,3.04-4.03,4.77-8.65,5.85-13.46,1.62-7.17,3.9-14.1,6.46-20.98,2.58-6.95,5.96-13.63,7.41-20.98,.85-4.32,1.9-8.63,3.13-12.86,4.06-14,11.03-26.69,18-39.41,4.92-8.99,9.81-18.01,14.48-27.15,1.72-3.37,3.14-7,4-10.68,2.37-10.1,5.95-19.79,9.52-29.5,1.09-2.99,2.03-6.11,2.54-9.25Z"/>
          <path class="cls-2" d="M1390.47,111.51c2.41,4.23,2.81,8.82,2.05,13.45-.51,3.14-1.45,6.26-2.54,9.25-3.57,9.71-7.15,19.4-9.52,29.5-.86,3.67-2.28,7.31-4,10.68-4.66,9.13-9.55,18.16-14.48,27.15-6.97,12.71-13.94,25.4-18,39.41-1.23,4.23-2.28,8.53-3.13,12.86-1.45,7.36-4.83,14.03-7.41,20.98-2.55,6.89-4.84,13.81-6.46,20.98-1.08,4.81-2.8,9.43-5.85,13.46-3.23,4.28-7.52,6.62-12.83,7.14-3.12,.29-4.46-.44-5.7-3.32-.84-1.93-1.44-3.97-2.13-5.95-2.98-8.71-6.9-17.02-12.82-24.1-3.8-4.55-6.41-9.42-7.81-15.07-.45-1.84-1-3.76-2-5.32-1.24-1.9-2.75-3.84-4.6-5.1-6.05-4.14-17.63-3.82-23.62,.39-2.72,1.9-4.24,4.61-4.6,7.84-.84,7.66-4.84,14.17-7.61,21.13-.03,.07-.17,.1-.25,.16,.01,2.26-1.49,3.89-2.39,5.78-.83,1.85-1.66,3.68-2.49,5.52-2.47,5.65-6.07,10.42-11.19,13.96-3.49,2.41-7.04,4.72-10.54,7.13-1.05,.72-2.11,.87-3.09,.14-1.42-1.08-2.99-2.12-4.04-3.53-3.54-4.69-6.14-9.92-8.12-15.42-1.73-4.78-4.15-9.13-7.16-13.21-5.4-7.3-9.04-15.39-11.07-24.22-2.61-11.39-6.45-22.34-11.64-32.85-2.84-5.75-5.31-11.71-7.52-17.74-3.09-8.42-6.66-16.6-11.05-24.41-9.39-16.71-15.34-34.69-19.87-53.18-1.51-6.13-1.35-12.35,.14-18.51,1.19-4.85,3.94-8.51,9.11-9.39,4.59-.78,9,.35,12.35,3.64,2.05,2.02,3.85,4.46,5.08,7.03,2.08,4.4,4.74,8.36,7.44,12.38,3.18,4.73,5.99,9.79,8.39,14.97,2.66,5.73,4.72,11.74,6.95,17.67,3.01,8.02,6.9,15.61,11.06,23.09,2.2,3.94,4.22,8.02,5.88,12.21,3.77,9.52,7.3,19.14,10.85,28.74,1.95,5.27,5.14,9.76,8.82,13.95,.7,.81,1.67,1.55,2.66,1.92,1.07,.4,2.46,.73,2.79-1.18,.07-.43,.65-.92,1.11-1.1,2.44-.97,4.51-2.1,5.1-5.03,.22-1.07,1.31-1.99,2.07-2.94,3.69-4.58,6.41-9.73,8.96-14.98,1.05-2.16,1.13-4.41,.49-6.75-.84-3.05-2.4-5.71-4.15-8.32-3.08-4.6-6.11-9.27-7.21-14.82-1.02-5.13-1.61-10.3-.57-15.53,.61-3.01,1.91-5.68,3.68-8.18,1.4-1.96,3.3-3.08,5.66-2.92,2.71,.18,5.47,.47,8.06,1.21,1.44,.4,2.67,1.7,3.86,2.76,2.41,2.13,4.61,4.5,7.12,6.53,4.09,3.31,8.7,3.71,13.34,1.26,3.64-1.93,7.19-4.07,10.62-6.36,3.02-2,6.09-2.56,9.5-1.36,1.23,.43,2.49,.84,3.66,1.4,4.99,2.35,5.56,3.6,3.78,8.72-1.35,3.88-2.79,7.75-4.41,11.53-1.96,4.57-3.15,9.32-3.87,14.19-.66,4.42,.18,8.7,2.69,12.4,4.07,6.01,6.41,12.64,8.23,19.6,1.04,4.04,3.13,7.8,4.58,11.75,.62,1.67,1.74,2,3.26,2.09,2.47,.14,4.64-.73,6.49-2.15,8.96-6.87,15.54-15.27,16.66-26.89,.44-4.59,.58-9.22,.56-13.82-.03-4.7,1.32-8.77,3.87-12.73,4.24-6.59,8.11-13.43,12.01-20.23,2.06-3.6,4.14-7.14,7.04-10.14,2.71-2.79,3.83-6.32,4.45-10.05,.33-1.97,.54-3.97,.87-5.95,.73-4.38,2.82-8.15,5.57-11.56,3.75-4.66,6.72-9.76,9.54-15.01,1.6-2.97,3.65-5.78,5.92-8.29,2.23-2.46,5.2-3.29,8.6-2.19,2.17,.69,3.69,1.97,4.79,3.88Z"/>
        </g>
        <path class="cls-2" d="M1232.29,298.3c-2.46,5.65-6.06,10.42-11.19,13.96-3.49,2.41-7.04,4.73-10.54,7.13-1.05,.72-2.11,.87-3.09,.13-1.43-1.08-2.99-2.12-4.04-3.52-3.53-4.69-6.14-9.93-8.13-15.43-1.73-4.78-4.14-9.13-7.16-13.21-5.39-7.3-9.04-15.38-11.07-24.22-2.61-11.38-6.45-22.33-11.65-32.84-2.84-5.75-5.31-11.71-7.52-17.73-3.08-8.42-6.66-16.6-11.05-24.41-9.39-16.71-15.34-34.69-19.88-53.18-1.51-6.13-1.35-12.36,.15-18.5,1.19-4.86,3.93-8.51,9.1-9.4,4.59-.78,9,.34,12.36,3.64,2.04,2.01,3.85,4.46,5.08,7.03,2.09,4.39,4.74,8.35,7.44,12.37,3.18,4.74,5.99,9.79,8.39,14.97,2.66,5.73,4.72,11.74,6.95,17.66,3.01,8.02,6.9,15.62,11.07,23.1,2.2,3.94,4.22,8.02,5.88,12.21,3.77,9.52,7.29,19.14,10.85,28.74,1.96,5.28,5.15,9.77,8.82,13.95,.71,.81,1.67,1.55,2.66,1.92,1.07,.4,2.45,.73,2.78-1.17,.08-.43,.66-.92,1.12-1.1,2.43-.97,4.51-2.1,5.1-5.03,.22-1.07,1.31-1.99,2.07-2.93,3.7-4.58,6.42-9.73,8.96-14.99,1.05-2.16,1.14-4.41,.5-6.75-.84-3.06-2.4-5.71-4.15-8.32-3.08-4.61-6.1-9.28-7.21-14.82-1.02-5.13-1.61-10.3-.57-15.53,.6-3.01,1.9-5.69,3.68-8.18,1.4-1.96,3.3-3.08,5.66-2.92,2.71,.18,5.46,.48,8.06,1.21,1.44,.4,2.67,1.71,3.86,2.76,2.41,2.13,4.62,4.51,7.12,6.53,4.1,3.31,8.7,3.71,13.34,1.26,3.65-1.92,7.19-4.07,10.63-6.35,3.02-2,6.09-2.57,9.49-1.37,1.24,.43,2.49,.84,3.67,1.4,4.98,2.35,5.56,3.59,3.77,8.72-1.35,3.88-2.79,7.75-4.41,11.53-1.95,4.57-3.14,9.32-3.87,14.19-.66,4.42,.18,8.71,2.68,12.4,4.08,6.02,6.42,12.64,8.23,19.6,1.05,4.04,3.13,7.8,4.58,11.74,.61,1.67,1.74,2.01,3.26,2.09,2.47,.13,4.65-.74,6.5-2.15,8.96-6.86,15.53-15.27,16.65-26.89,.44-4.59,.59-9.22,.56-13.83-.03-4.69,1.32-8.76,3.87-12.73,4.24-6.6,8.11-13.43,12.01-20.23,2.06-3.59,4.13-7.13,7.04-10.14,2.71-2.8,3.83-6.32,4.45-10.04,.33-1.98,.54-3.98,.88-5.96,.74-4.38,2.82-8.15,5.57-11.56,3.75-4.66,6.72-9.76,9.54-15.01,1.6-2.97,3.65-5.79,5.93-8.3,2.22-2.45,5.2-3.28,8.6-2.19,2.18,.69,3.69,1.97,4.79,3.89,2.41,4.23,2.82,8.81,2.05,13.44-.52,3.14-1.45,6.25-2.55,9.25-3.56,9.71-7.14,19.39-9.51,29.49-.86,3.68-2.28,7.31-4.01,10.68-4.66,9.13-9.54,18.15-14.48,27.15-6.97,12.7-13.94,25.4-18,39.4-1.23,4.23-2.28,8.53-3.13,12.86-1.45,7.37-4.83,14.04-7.41,20.99-2.56,6.88-4.84,13.81-6.46,20.98-1.08,4.81-2.8,9.42-5.85,13.45-3.23,4.28-7.51,6.62-12.83,7.13-3.11,.3-4.46-.44-5.7-3.32-.83-1.93-1.44-3.96-2.12-5.95-2.99-8.71-6.9-17.02-12.82-24.09-3.8-4.54-6.41-9.42-7.81-15.08-.45-1.84-1-3.76-2.01-5.32-1.23-1.9-2.74-3.84-4.59-5.1-6.05-4.13-17.64-3.82-23.62,.39-2.72,1.91-4.24,4.61-4.6,7.84-.84,7.66-4.84,14.17-7.62,21.13-.03,.07-.17,.11-.25,.16-2.31-2.01-3.75-2.01-5.28,.59-1.8,3.07-3.19,6.37-4.7,9.6-.16,.34,.06,.84,.1,1.27,.42-.09,.96-.04,1.25-.29,1.52-1.29,2.98-2.65,4.47-3.99,.07,.39,.28,.81,.2,1.17-.24,1-.6,1.97-.91,2.95Zm149.15-170.18c.1,2.47,.19,4.94,.31,7.41,.02,.52,.12,1.04,.18,1.55,.53-.33,1.2-.55,1.56-1.02,1.96-2.54,2.55-5.58,3.01-8.64,.5-3.32-.48-4.32-3.92-4.04-1.02-2.3-2.74-3.43-4.5-2.96-2.04,.54-3.35,2.62-2.78,4.97,.41,1.72,1.17,3.39,2.03,4.94,.36,.65,1.55,1.44,2.07,1.27,.78-.25,1.37-1.24,1.89-2.02,.24-.37,.12-.97,.16-1.47Zm-99.78,51.75c.52,.36,.91,1.16,1.67,.22,1.59-1.96,1.77-6.73,.24-8.81-.8-1.09-1.81-1.58-3.13-.96-1.37,.64-1.51,1.72-1.04,3.01,.37,1.02,.7,2.06,1.04,3.1-.73-.8-1.4-1.68-2.22-2.37-1.22-1.03-3.6-.3-3.85,1.26-.17,1.02-.09,2.31,.41,3.17,1.66,2.84,3.55,5.55,5.39,8.28,.18,.27,.65,.34,1.49,.73v-7.63Zm44.33,94.9c2.5-1.75,2.33-4.63,2.97-7.14,.28-1.09,.08-2.29-1.17-2.8-1.45-.59-1.91,.62-2.48,1.55-2.89-1.05-3.5-.68-3.62,2.11-.18,3.99-.39,7.97-.61,11.96-.03,.49-.2,.98-.2,1.47,0,.8,.08,1.6,.13,2.4,.75-.56,1.72-.99,2.21-1.73,.71-1.06,1.16-2.32,1.58-3.54,.48-1.4,.8-2.85,1.19-4.28Zm-43.01-51.3c-.37-.15-.78-.24-1.1-.46-1.31-.88-2.77-.74-3.42,.48-.52,.97-.65,2.78-.07,3.58,2.09,2.9,4.55,5.55,6.91,8.26,.29,.34,.82,.47,1.24,.69,.18-.52,.53-1.05,.5-1.56-.08-1.27-.33-2.54-.54-3.81-.18-1.07-.39-2.12-.59-3.19,1,1.47,1.99,2.95,3.03,4.39,.19,.26,.59,.36,.9,.53,.17-.33,.49-.67,.47-.99-.22-4.27-1.43-8.21-4.06-11.65-.48-.63-.98-1.28-1.6-1.76-.95-.75-2.21-.99-2.98-.02-.49,.61-.55,1.84-.32,2.67,.28,1.01,1.06,1.89,1.63,2.82Zm92.16-75.97c-1.5-.84-3.14-1.24-4.43,.05-.66,.66-.89,1.93-.94,2.95-.26,5.56-.41,11.12-.56,16.69,0,.22,.27,.45,.58,.91,3.53-4.64,4.95-9.79,5.52-15.25,.28-.08,.76-.08,.82-.24,1.13-2.86,2.29-5.71,3.27-8.63,.31-.92-.22-1.81-1.31-2.03-1.16-.23-2.03,.2-2.27,1.4-.29,1.37-.46,2.77-.68,4.15Zm-214.8,.53c-.69-1.5-1.21-3.11-2.1-4.48-1.09-1.67-2.79-1.99-4.44-1.17-1.54,.76-2.33,2.59-1.46,4.33,2.05,4.11,4.52,7.97,8.02,11.06,.29,.26,.86,.2,1.3,.29,.09-.43,.28-.87,.24-1.29-.22-2.26-.5-4.52-.76-6.78,1.38,1.58,2.75,3.18,4.15,4.74,.53,.59,1.06,1.25,1.74,1.64,.67,.38,1.64,.2,1.35-.81-.84-2.86-1.82-5.69-2.87-8.48-.49-1.31-1.54-2.17-3.07-1.94-1.63,.24-1.96,1.53-2.11,2.89Zm-14.97-25.5c.66,.45,1.48,.78,1.94,1.37,1.28,1.65,2.39,3.44,3.62,5.13,.26,.35,.76,.52,1.15,.78,.19-.42,.59-.87,.53-1.25-.28-1.67-.6-3.34-1.07-4.96-.79-2.73-2.53-4.82-4.99-6.2-2.48-1.38-3.78-.64-4.37,2.25-1.1-1.02-2.33-1.5-3.85-1-2.71,.91-3.77,3.89-1.77,6.35,2.78,3.4,5.94,6.51,9.03,9.66,1.06,1.08,2.08,.65,2.15-.92,.07-1.68,.03-3.41-.34-5.04-.48-2.1-1.34-4.12-2.03-6.18Zm62.8,123.2c-.92-5.26-2.7-9.91-6.79-13.42-1.41-1.21-3.47-1.36-4.65-.33-1.24,1.08-1.2,2.46,.11,4.27,.12,.16,.27,.29,.4,.45,2.74,3.3,5.45,6.63,8.25,9.88,.44,.51,1.32,.64,2,.95l.67-1.8Zm16.13,39.05l.87,.28c.74-.66,1.43-1.38,2.22-1.96,3.49-2.55,5.67-6.08,7.54-9.86,.54-1.09,.59-2.04-.23-3.04-1.79-2.19-4.41-2.05-5.82,.73-1.56,3.08-2.7,6.39-3.85,9.66-.47,1.32-.5,2.79-.73,4.19Zm11.06-117.31c-.84,.65-1.9,1.09-2.2,1.83-.25,.61,.14,1.93,.7,2.34,2.57,1.93,5.3,3.67,7.99,5.43,.25,.17,.83,.17,1.03,0,.22-.19,.36-.79,.22-1.01-1.5-2.35-2.95-4.75-4.66-6.95-.6-.77-1.86-1.03-3.08-1.65Zm-51.78,27.39c.39-3.29-.18-5.89-1.43-8.34-.83-1.62-2.52-2.18-3.78-1.43-1.09,.65-1.44,2.3-.56,3.78,1.34,2.24,3.06,4.18,5.77,6Z"/>
        <path class="cls-3" d="M1233,294.18c-1.48,1.34-2.94,2.7-4.47,3.99-.29,.25-.83,.2-1.25,.29-.04-.43-.25-.94-.1-1.27,1.51-3.23,2.9-6.54,4.7-9.6,1.53-2.6,2.97-2.6,5.28-.59,.01,2.26-1.49,3.9-2.39,5.79l-1.78,1.39Z"/>
        <path class="cls-8" d="M1233,294.18l1.78-1.39c-.83,1.84-1.66,3.68-2.49,5.52,.31-.98,.67-1.95,.91-2.95,.08-.35-.12-.78-.2-1.17Z"/>
        <path class="cls-4" d="M1285.9,227.5c-.98-1.34-1.95-2.68-2.93-4.02-.57-.93-1.35-1.81-1.63-2.82-.23-.82-.17-2.05,.32-2.67,.77-.96,2.03-.73,2.98,.02,.62,.49,1.12,1.14,1.6,1.76,2.63,3.44,3.84,7.38,4.06,11.65,.02,.32-.31,.66-.47,.99-.3-.17-.71-.27-.9-.53-1.04-1.44-2.03-2.92-3.03-4.39Z"/>
        <path class="cls-4" d="M1145.36,122.55l-3.19-2.87c.59-2.89,1.89-3.63,4.37-2.25,2.47,1.37,4.2,3.47,4.99,6.2,.47,1.62,.79,3.29,1.07,4.96,.06,.38-.34,.83-.53,1.25-.39-.26-.9-.43-1.15-.78-1.23-1.69-2.34-3.48-3.62-5.13-.46-.6-1.28-.92-1.94-1.37Z"/>
        <path class="cls-10" d="M1381.44,128.12l1.14-4.74c3.44-.28,4.42,.72,3.92,4.04-.46,3.07-1.05,6.11-3.01,8.64-.36,.46-1.03,.68-1.56,1.02-.06-.52-.15-1.03-.18-1.55-.11-2.47-.21-4.94-.31-7.41Z"/>
        <path class="cls-4" d="M1161.14,150.01l-.81-1.96c.15-1.36,.48-2.64,2.11-2.89,1.53-.23,2.58,.63,3.07,1.94,1.05,2.79,2.03,5.62,2.87,8.48,.29,1-.68,1.19-1.35,.81-.67-.38-1.21-1.04-1.74-1.64-1.4-1.56-2.77-3.16-4.15-4.74Z"/>
        <path class="cls-23" d="M1235.35,167.5c1.22,.62,2.48,.88,3.08,1.65,1.71,2.2,3.16,4.59,4.66,6.95,.14,.22,0,.83-.22,1.01-.2,.17-.78,.16-1.03,0-2.7-1.77-5.42-3.5-7.99-5.43-.55-.42-.95-1.73-.7-2.34,.3-.74,1.36-1.18,2.2-1.83Z"/>
        <path class="cls-1" d="M1281.65,179.88l-1.22-3.44c-.35-1.03-.67-2.07-1.04-3.1-.46-1.29-.33-2.38,1.04-3.01,1.32-.61,2.33-.13,3.13,.96,1.52,2.08,1.35,6.85-.24,8.81-.76,.94-1.16,.14-1.67-.22Z"/>
        <path class="cls-4" d="M1183.57,194.89c-2.7-1.83-4.43-3.76-5.77-6-.88-1.47-.53-3.13,.56-3.78,1.26-.75,2.95-.19,3.78,1.43,1.25,2.45,1.82,5.06,1.43,8.34Z"/>
        <path class="cls-25" d="M1375.3,152.86l-.17-5.35c.22-1.38,.39-2.78,.68-4.15,.25-1.2,1.12-1.63,2.27-1.4,1.09,.22,1.62,1.11,1.31,2.03-.98,2.91-2.14,5.77-3.27,8.63-.06,.16-.54,.16-.82,.24Z"/>
        <path class="cls-13" d="M1325.98,274.78c-.23-2.8-.45-5.6-.68-8.4,.57-.93,1.03-2.14,2.48-1.55,1.25,.51,1.45,1.71,1.17,2.8-.64,2.51-.47,5.39-2.97,7.14Z"/>
      </g>
    </g>
  </g>
</svg>