<?xml version="1.0" encoding="UTF-8"?>
<svg xmlns="http://www.w3.org/2000/svg" viewBox="0 0 877.68 379.99">
  <defs>
    <style>
      .cls-1 {
        fill: #110c0b;
      }

      .cls-2 {
        fill: #100c0a;
      }

      .cls-3 {
        fill: #fff;
      }

      .cls-4 {
        fill: #13110e;
      }

      .cls-5 {
        fill: #110d0b;
      }

      .cls-6 {
        fill: #13110d;
      }

      .cls-7 {
        fill: #14100e;
      }

      .cls-8 {
        fill: #14110e;
      }

      .cls-9 {
        fill: #14130f;
      }

      .cls-10 {
        fill: #07bff9;
        stroke: #1d1d1b;
        stroke-miterlimit: 10;
        stroke-width: 10px;
      }

      .cls-11 {
        fill: #100d0a;
      }

      .cls-12 {
        fill: #14120e;
      }

      .cls-13 {
        fill: #110c0a;
      }

      .cls-14 {
        fill: #12100d;
      }

      .cls-15 {
        fill: #14150f;
      }

      .cls-16 {
        fill: #13120e;
      }

      .cls-17 {
        fill: #0f0c09;
      }

      .cls-18 {
        fill: #13100d;
      }

      .cls-19 {
        fill: #16110f;
      }

      .cls-20 {
        fill: #13100e;
      }

      .cls-21 {
        fill: #17140e;
      }

      .cls-22 {
        fill: #19160f;
      }

      .cls-23 {
        fill: #0e0c09;
      }

      .cls-24 {
        fill: #0f0c0a;
      }
    </style>
  </defs>
  <g id="_лой_1" data-name="Слой 1"/>
  <g id="_лой_2" data-name="Слой 2">
    <g id="_лой_1-2" data-name="Слой 1">
      <rect class="cls-10" x="5" y="5" width="867.68" height="369.99" rx="32.75" ry="32.75"/>
    </g>
    <g id="mint">
      <g>
        <g>
          <g>
            <path class="cls-3" d="M297.6,149.63c.2,.02,.4,.03,.59,.05-.77,5.99-1.41,12-2.35,17.96-1.33,8.46-3.03,16.88-4.29,25.35-.72,4.81-1.09,9.7-1.26,14.56-.25,6.86,1.28,13.56,2.57,20.27,.51,2.67,.97,5.4,.96,8.11-.03,6.24-.22,12.5-.63,18.74-.31,4.65-1.27,9.27-1.57,13.93-.42,6.43-.72,12.89-.64,19.33,.07,6.43,.68,12.86,1.03,19.29,.37,6.77-1.49,8.86-8.63,11.01-8.01,2.41-15.98,1.11-22.97-3.63-3.79-2.58-5.56-6.49-6.73-10.61-1.03-3.62-.94-7.31-.37-11.03,.97-6.35,1.9-12.72,2.74-19.09,2.22-16.86,.83-33.81,1.32-50.71,.2-7.2,.95-14.37,2.15-21.52,.88-5.27,1.69-10.65,.23-15.99-.36-1.32-.89-2.59-1.4-3.86-.99-2.46-2.02-4.9-3.03-7.35-.15-.36-.32-.72-.46-1.08-2.29-5.81-5.42-7.84-12.91-5.97-7.06,1.77-11.64,6.4-14.5,12.63-2.33,5.06-3.5,10.33-3.88,15.85-.64,9.43-2.39,18.73-4.51,27.96-1.82,7.9-3.82,15.8-3.42,23.96,.28,5.83,1.12,11.64,1.56,17.47,.22,3.02,.27,6.06,.11,9.08-.23,4.09-.76,8.16-1.11,12.23-.46,5.45-.8,10.9-1.3,16.34-.41,4.49-3.56,7.14-7.46,9.03-2.77,1.34-5.82,1.9-8.98,1.85-2.38-.05-4.78,.16-7.14-.06-1.91-.17-3.92-.55-5.63-1.34-1.03-.47-1.88-1.79-2.3-2.91-1.64-4.34-2.2-8.9-2.48-13.47-.3-5.07-.43-10.16-.54-15.23-.04-1.45,.38-2.91,.36-4.36-.11-8.12-.43-16.23-.42-24.34,0-6.44,.4-12.89,.54-19.34,.13-5.78-1.94-10.92-5.51-15.52-2.78-3.58-4.71-7.54-6.3-11.68-1.97-5.12-3.26-10.53-6.57-15.08-1.56-2.14-3.49-4.2-5.69-5.72-4.65-3.21-10-2.47-15.54,1.15-6.62,4.32-10.04,10.84-11.92,17.96-.99,3.73-1.12,7.72-1.2,11.6-.08,4.61-1.19,8.89-3.47,12.9-2.46,4.33-4.59,8.74-5.04,13.72-.14,1.55-.39,3.11-.35,4.66,.27,9.32-1.33,18.44-2.91,27.59-.91,5.28-1.03,10.61-.42,16.03,.63,5.49,1.11,11.14-.98,16.55s-3.44,7-10.74,8.1c-4.14,.62-8.2,1.77-12.3,2.66-1.59,.34-3.19,.7-4.81,.86-2.46,.25-4.93,.32-7.4,.46-2.48,.14-4.85-.28-6.47-2.16-1.54-1.8-3.21-3.69-4.06-5.81-2.32-5.82-4.09-11.79-4.7-18.09-.49-5.13,.26-10.1,1.15-15.06,1.53-8.53,3.49-16.99,5.09-25.51,.55-2.96,.75-6.01,.77-9.03,.09-10.28-.18-20.57,.08-30.84,.15-5.83,1.08-11.64,1.63-17.46,.59-6.31,.98-12.61-.21-18.94-.94-4.98-1.48-10.02-2.14-15.04-.8-6.19-1.74-12.36-2.26-18.57-.81-9.68,.05-19.14,5.82-27.6,2.51-3.68,6.31-5.36,10.75-6.24,3.66-.74,7.21,0,10.77,.25,1.84,.12,3.71,1.15,5.37,2.07,1.77,.98,3.42,2.21,4.94,3.52,2.14,1.86,3.41,4.09,2.7,7.02-.24,1.04-.14,2.14-.21,3.22-.38,6.03-.72,12.08-1.17,18.11-.59,7.95,1.24,15.32,5.79,22.04,.77,1.13,1.84,2.13,2.93,3.01,2.02,1.62,4.03,1.14,5.26-1.08,2.84-5.13,4.63-10.58,5.94-16.22,1.59-6.79,4.94-12.82,9.53-18.21,6.04-7.08,13.11-13.07,21.98-16.77,4.31-1.8,8.87-3.17,13.45-4.25,3.78-.89,7.28,.2,10.24,2.82,3.06,2.7,4.86,5.71,4.38,9.82-.38,3.23,.39,6.38,1.08,9.55,.6,2.75,.78,5.61,.83,8.43,.11,5.96,1.61,11.57,4.38,16.88,.63,1.22,1.35,2.5,2.35,3.42,1.22,1.13,2.67,2.33,4.24,2.77,3.54,1.01,5-.01,6.68-3.34,1.59-3.17,3.45-6.22,5.24-9.3,3.94-6.75,7.69-13.61,11.92-20.19,3.72-5.78,9.3-9.93,15.39-13.37,1.35-.76,3.14-1.24,4.69-1.18,3.61,.14,6.96-.49,10.2-1.94,8.09-3.61,16.07-2.63,23.88,.75,3.16,1.37,6.75,2.35,8.85,5.22,3.21,4.41,6.48,8.83,9.12,13.55,1.28,2.29,1.34,5.25,1.65,7.94,.25,2.13,.05,4.3,.05,6.46Z"/>
            <path class="cls-23" d="M96.88,102.27c7.05,1.08,12.22,5.04,16.73,9.91,2.23,2.41,2.81,5.41,2.65,8.53-.31,6.26-.73,12.51-.99,18.77-.15,3.42-.28,6.86-.04,10.27,.3,4.08,2.43,7.61,4.64,11.66,.32-1.17,.57-1.87,.7-2.6,.78-4.33,1.4-8.7,2.35-13,1.19-5.33,3.7-10.17,7.02-14.59,9.44-12.55,21.81-21.3,37.63-25.38,2.46-.63,5.09-.85,7.65-.98,9.83-.47,20.32,9.65,18.69,19.3-.46,2.76,.24,5.39,.87,8.09,1.01,4.38,1.69,8.85,2.18,13.31,.52,4.73,1.74,9.22,3.82,13.52,.12,.25,.37,.44,.77,.9,.82-1.92,1.45-3.71,2.32-5.38,4.04-7.71,8.02-15.44,12.27-23.04,4.17-7.46,10.64-12.93,18.04-17.45,3.36-2.06,7.04-3.19,11.13-3.17,1.48,0,2.97-.66,4.43-1.11,3.03-.95,5.98-2.19,9.07-2.88,7.16-1.61,13.95,.22,20.6,2.56,1.93,.68,3.77,1.61,5.67,2.37,4.13,1.65,7.37,4.24,9.76,7.85,2.25,3.4,4.93,6.56,6.86,10.1,1.43,2.64,2.36,5.66,2.84,8.6,1.61,9.9,.31,19.72-1.56,29.48-1.59,8.28-3.35,16.53-4.9,24.81-1.93,10.32-2.09,20.6,.62,30.88,2.43,9.24,2.2,18.66,1.17,28.04-1.33,12.28-2.69,24.55-2.29,36.91,.16,4.99,.64,9.97,.72,14.96,.05,3.21-.23,6.44-.63,9.63-.35,2.84-2.08,5.03-4.4,6.85-4.31,3.38-9.3,5.09-14.8,5.43-4.89,.31-9.71-.34-14.32-2.01-10.49-3.81-15.59-11.49-16.97-21.65-.76-5.59,.22-11.14,1.31-16.63,2.96-15.01,3.38-30.16,2.94-45.35-.44-15,.08-29.96,2.26-44.84,.65-4.39-.11-8.53-2.21-12.52-1.18-2.27-1.97-4.72-2.93-7.09-1.06-2.61-1.85-3.03-4.71-2.21-4.56,1.3-8.03,3.83-10.21,7.96-2.39,4.54-3.78,9.36-4.06,14.36-.66,12.17-3.14,24.07-5.86,35.93-1.89,8.23-2.25,16.5-.96,24.8,1.37,8.89,1.08,17.76,.21,26.66-.6,6.14-1.32,12.28-1.54,18.44-.27,7.73-4.29,12.96-11.41,16.1-7.53,3.33-15.51,3.89-23.65,2.37-5.48-1.02-8.92-4.17-9.81-9.32-.95-5.49-1.68-11.04-2.02-16.59-.36-5.76-.1-11.54-.2-17.32-.08-5.28-.33-10.57-.4-15.85-.04-3.62,.12-7.24,.19-10.86,.11-5.39,.26-10.77,.32-16.15,.04-4.02-.94-7.86-3.48-11.07-5.09-6.47-7.94-13.88-10.69-21.38-1.03-2.84-2.24-5.72-3.95-8.23-3.35-4.9-7.07-5.46-11.99-1.91-5.64,4.07-8.42,9.81-9.51,16.27-.45,2.69-.44,5.47-.36,8.21,.15,5.63-1.15,10.93-4.22,15.71-3.72,5.83-4.83,12.13-5.07,18.8-.22,6.25-.67,12.54-1.76,18.69-1.53,8.58-1.97,17.07-.74,25.7,.85,5.93-.19,11.69-2.58,17.25-2.27,5.26-6.28,8.39-12.21,9.23-5.04,.71-9.91,1.89-14.64,3.69-3,1.13-6.15,1.78-9.4,1.56-1.54-.11-3.26-.1-4.55-.76-5.97-3.07-11.95-6.07-14.82-12.61-5.1-11.62-6.78-23.45-4.02-35.86,1.55-6.98,2.63-14.06,3.96-21.09,1.28-6.81,1.06-13.63,.59-20.49-.88-12.92-1.05-25.83,.69-38.71,1.11-8.23,.42-16.34-.82-24.54-1.67-11.03-2.8-22.15-3.65-33.27-.62-8.08,.9-16.01,4.64-23.41,.74-1.44,3.46-6,7.88-9.24,9.02-6.62,20.93-4.37,23.14-3.92Zm201.31,47.41c-.19-.02-.39-.03-.59-.05,0-2.16,.2-4.33-.05-6.46-.31-2.69-.37-5.65-1.65-7.94-2.64-4.72-5.91-9.14-9.12-13.55-2.1-2.87-5.69-3.85-8.85-5.22-7.81-3.38-15.79-4.36-23.88-.75-3.24,1.45-6.59,2.08-10.2,1.94-1.55-.06-3.34,.42-4.69,1.18-6.09,3.44-11.67,7.59-15.39,13.37-4.23,6.58-7.98,13.44-11.92,20.19-1.79,3.08-3.65,6.13-5.24,9.3-1.68,3.33-3.14,4.35-6.68,3.34-1.57-.44-3.02-1.64-4.24-2.77-1-.92-1.72-2.2-2.35-3.42-2.77-5.31-4.27-10.92-4.38-16.88-.05-2.82-.23-5.68-.83-8.43-.69-3.17-1.46-6.32-1.08-9.55,.48-4.11-1.32-7.12-4.38-9.82-2.96-2.62-6.46-3.71-10.24-2.82-4.58,1.08-9.14,2.45-13.45,4.25-8.87,3.7-15.94,9.69-21.98,16.77-4.59,5.39-7.94,11.42-9.53,18.21-1.31,5.64-3.1,11.09-5.94,16.22-1.23,2.22-3.24,2.7-5.26,1.08-1.09-.88-2.16-1.88-2.93-3.01-4.55-6.72-6.38-14.09-5.79-22.04,.45-6.03,.79-12.08,1.17-18.11,.07-1.08-.03-2.18,.21-3.22,.71-2.93-.56-5.16-2.7-7.02-1.52-1.31-3.17-2.54-4.94-3.52-1.66-.92-3.53-1.95-5.37-2.07-3.56-.25-7.11-.99-10.77-.25-4.44,.88-8.24,2.56-10.75,6.24-5.77,8.46-6.63,17.92-5.82,27.6,.52,6.21,1.46,12.38,2.26,18.57,.66,5.02,1.2,10.06,2.14,15.04,1.19,6.33,.8,12.63,.21,18.94-.55,5.82-1.48,11.63-1.63,17.46-.26,10.27,.01,20.56-.08,30.84-.02,3.02-.22,6.07-.77,9.03-1.6,8.52-3.56,16.98-5.09,25.51-.89,4.96-1.64,9.93-1.15,15.06,.61,6.3,2.38,12.27,4.7,18.09,.85,2.12,2.52,4.01,4.06,5.81,1.62,1.88,3.99,2.3,6.47,2.16,2.47-.14,4.94-.21,7.4-.46,1.62-.16,3.22-.52,4.81-.86,4.1-.89,8.16-2.04,12.3-2.66,7.3-1.1,8.65-2.69,10.74-8.1s1.61-11.06,.98-16.55c-.61-5.42-.49-10.75,.42-16.03,1.58-9.15,3.18-18.27,2.91-27.59-.04-1.55,.21-3.11,.35-4.66,.45-4.98,2.58-9.39,5.04-13.72,2.28-4.01,3.39-8.29,3.47-12.9,.08-3.88,.21-7.87,1.2-11.6,1.88-7.12,5.3-13.64,11.92-17.96,5.54-3.62,10.89-4.36,15.54-1.15,2.2,1.52,4.13,3.58,5.69,5.72,3.31,4.55,4.6,9.96,6.57,15.08,1.59,4.14,3.52,8.1,6.3,11.68,3.57,4.6,5.64,9.74,5.51,15.52-.14,6.45-.54,12.9-.54,19.34-.01,8.11,.31,16.22,.42,24.34,.02,1.45-.4,2.91-.36,4.36,.11,5.07,.24,10.16,.54,15.23,.28,4.57,.84,9.13,2.48,13.47,.42,1.12,1.27,2.44,2.3,2.91,1.71,.79,3.72,1.17,5.63,1.34,2.36,.22,4.76,0,7.14,.06,3.16,.05,6.21-.51,8.98-1.85,3.9-1.89,7.05-4.54,7.46-9.03,.5-5.44,.84-10.89,1.3-16.34,.35-4.07,.88-8.14,1.11-12.23,.16-3.02,.11-6.06-.11-9.08-.44-5.83-1.28-11.64-1.56-17.47-.4-8.16,1.6-16.06,3.42-23.96,2.12-9.23,3.87-18.53,4.51-27.96,.38-5.52,1.55-10.79,3.88-15.85,2.86-6.23,7.44-10.86,14.5-12.63,7.49-1.87,10.62,.16,12.91,5.97,.14,.36,.31,.72,.46,1.08,1.01,2.45,2.04,4.89,3.03,7.35,.51,1.27,1.04,2.54,1.4,3.86,1.46,5.34,.65,10.72-.23,15.99-1.2,7.15-1.95,14.32-2.15,21.52-.49,16.9,.9,33.85-1.32,50.71-.84,6.37-1.77,12.74-2.74,19.09-.57,3.72-.66,7.41,.37,11.03,1.17,4.12,2.94,8.03,6.73,10.61,6.99,4.74,14.96,6.04,22.97,3.63,7.14-2.15,9-4.24,8.63-11.01-.35-6.43-.96-12.86-1.03-19.29-.08-6.44,.22-12.9,.64-19.33,.3-4.66,1.26-9.28,1.57-13.93,.41-6.24,.6-12.5,.63-18.74,.01-2.71-.45-5.44-.96-8.11-1.29-6.71-2.82-13.41-2.57-20.27,.17-4.86,.54-9.75,1.26-14.56,1.26-8.47,2.96-16.89,4.29-25.35,.94-5.96,1.58-11.97,2.35-17.96Z"/>
          </g>
          <path class="cls-3" d="M298.19,149.68c-.77,5.99-1.41,12-2.35,17.96-1.33,8.46-3.03,16.87-4.29,25.34-.72,4.82-1.09,9.7-1.26,14.57-.25,6.86,1.28,13.55,2.57,20.27,.51,2.67,.98,5.4,.96,8.11-.03,6.25-.22,12.51-.63,18.74-.31,4.66-1.27,9.27-1.57,13.93-.42,6.43-.72,12.89-.64,19.33,.07,6.43,.69,12.86,1.03,19.29,.37,6.77-1.49,8.86-8.63,11.01-8.01,2.41-15.98,1.11-22.97-3.63-3.79-2.57-5.56-6.48-6.73-10.6-1.03-3.63-.94-7.32-.37-11.03,.97-6.36,1.9-12.72,2.74-19.1,2.22-16.86,.83-33.81,1.32-50.71,.21-7.2,.96-14.37,2.15-21.52,.88-5.28,1.69-10.65,.23-16-.36-1.31-.89-2.59-1.4-3.86-.99-2.46-2.01-4.9-3.03-7.34-.15-.36-.32-.72-.46-1.09-2.29-5.8-5.42-7.83-12.91-5.96-7.06,1.76-11.64,6.4-14.51,12.63-2.32,5.06-3.5,10.33-3.87,15.85-.64,9.43-2.39,18.73-4.52,27.96-1.82,7.9-3.82,15.81-3.42,23.96,.29,5.83,1.12,11.64,1.56,17.47,.23,3.02,.28,6.07,.11,9.09-.22,4.08-.76,8.15-1.11,12.23-.46,5.44-.81,10.9-1.3,16.34-.41,4.49-3.56,7.14-7.46,9.03-2.77,1.34-5.82,1.91-8.98,1.85-2.38-.04-4.78,.16-7.14-.05-1.92-.18-3.92-.55-5.63-1.34-1.04-.48-1.89-1.8-2.31-2.91-1.63-4.34-2.2-8.91-2.47-13.48-.3-5.07-.43-10.15-.55-15.23-.03-1.45,.39-2.91,.36-4.36-.11-8.11-.43-16.22-.42-24.33,0-6.45,.4-12.89,.54-19.34,.13-5.78-1.94-10.92-5.52-15.52-2.78-3.58-4.71-7.54-6.3-11.68-1.97-5.12-3.26-10.53-6.57-15.08-1.55-2.14-3.49-4.2-5.69-5.72-4.65-3.21-10-2.47-15.54,1.15-6.62,4.32-10.04,10.84-11.92,17.96-.99,3.73-1.12,7.72-1.2,11.6-.09,4.61-1.2,8.89-3.48,12.9-2.45,4.32-4.59,8.74-5.03,13.71-.14,1.55-.39,3.11-.35,4.66,.26,9.32-1.33,18.44-2.91,27.58-.91,5.29-1.04,10.61-.42,16.04,.62,5.49,1.11,11.14-.98,16.55-2.09,5.41-3.44,7-10.73,8.1-4.15,.62-8.2,1.78-12.3,2.66-1.59,.34-3.19,.71-4.81,.87-2.46,.24-4.94,.32-7.41,.46-2.48,.14-4.85-.29-6.47-2.17-1.55-1.8-3.21-3.68-4.06-5.8-2.32-5.83-4.1-11.79-4.7-18.09-.49-5.13,.25-10.11,1.15-15.06,1.53-8.53,3.49-16.99,5.09-25.51,.55-2.96,.75-6.02,.78-9.03,.08-10.28-.19-20.57,.07-30.85,.15-5.83,1.08-11.63,1.63-17.45,.59-6.32,.98-12.62-.21-18.94-.94-4.98-1.48-10.02-2.14-15.04-.81-6.18-1.75-12.36-2.27-18.57-.81-9.68,.05-19.14,5.82-27.6,2.51-3.68,6.31-5.36,10.75-6.24,3.66-.73,7.21,0,10.77,.25,1.84,.13,3.71,1.15,5.37,2.07,1.77,.98,3.42,2.21,4.93,3.52,2.14,1.85,3.41,4.09,2.71,7.02-.25,1.03-.15,2.14-.21,3.22-.38,6.04-.72,12.08-1.17,18.11-.59,7.95,1.24,15.33,5.79,22.04,.77,1.13,1.84,2.13,2.93,3.01,2.02,1.62,4.03,1.13,5.26-1.08,2.84-5.13,4.63-10.58,5.94-16.23,1.58-6.78,4.93-12.82,9.53-18.2,6.04-7.08,13.11-13.07,21.98-16.78,4.31-1.8,8.87-3.16,13.44-4.25,3.78-.9,7.28,.2,10.25,2.82,3.05,2.7,4.86,5.7,4.37,9.82-.38,3.22,.39,6.38,1.08,9.55,.6,2.75,.78,5.61,.83,8.42,.11,5.96,1.6,11.57,4.38,16.89,.64,1.22,1.35,2.49,2.35,3.42,1.22,1.13,2.67,2.32,4.24,2.77,3.54,1,5-.02,6.67-3.34,1.6-3.17,3.45-6.22,5.25-9.3,3.93-6.75,7.68-13.61,11.92-20.19,3.72-5.78,9.3-9.93,15.39-13.36,1.35-.76,3.13-1.25,4.69-1.19,3.61,.14,6.96-.49,10.2-1.94,8.09-3.62,16.07-2.63,23.88,.75,3.16,1.37,6.75,2.35,8.85,5.22,3.22,4.41,6.49,8.83,9.13,13.55,1.28,2.29,1.34,5.25,1.65,7.94m-88.7,130.13c.15-.85,.38-1.69,.44-2.54,.12-1.65-.91-3.19-2.17-3.39-1.63-.26-2.72,.39-3.49,2.17-.23,.52-.45,1.12-.42,1.66,.11,1.91,.4,3.82,.51,5.73,.08,1.55,.98,2.46,2.44,3.27,.63-.98,1.25-1.94,1.87-2.91,.28,3.9,.38,7.83,1.73,12.19,.43-.67,.69-.9,.72-1.16,.51-4.23,1.1-8.45,1.43-12.69,.17-2.22-.24-2.37-3.06-2.32Zm-31.76-119.95c-3.09,.05-4.48,1.06-4.33,3.16,.23,3.28,5.32,7.27,9.44,7.1-.87-2.51-1.71-4.94-2.54-7.37l2.42,.5c-.39-2.57-.52-4.83-1.38-6.97-.44-1.09-1.61-1.46-2.53-1.02-.75,.35-1.43,1.31-1.62,2.11-.17,.76,.34,1.65,.55,2.49Zm106.28,109.84c1.08-1.23,.73-2.4-.83-2.83-2.57-.71-4.7,.43-5.37,3.03-.7,2.76-.18,5.56,.14,8.3,.24,2,1.34,2.3,3.5,1.53,.31,1.93,.61,3.86,1.01,6.36,.69-.91,1.11-1.24,1.23-1.65,1.16-3.91,2.4-7.81,3.36-11.76,.56-2.31-.11-2.81-3.05-2.98Zm-6.2-106.29c-.16-.11-.37-.19-.48-.33-1.65-2.08-2.79-2.52-4.54-1.73-1.69,.76-2.38,2.34-1.46,4.48,1.03,2.41,2.37,4.71,3.73,6.97,.38,.63,1.32,.96,2.05,1.47,1.65-2.97,1.15-5.82,1.33-8.58,.56,.99,1.13,1.98,1.69,2.96,1.56,.2,2.06-.95,2.34-1.91,.89-3.06,.8-6.14-.57-9.07-.83-1.78-2.67-2.46-4.3-1.78-1.1,.45-1.46,1.81-.94,3.64,.37,1.3,.76,2.6,1.14,3.9Zm-68.41,64.04c.33,1.13,.66,2.26,1.19,4.09,2.87-5.08,4.81-9.76,5.08-14.97,0-.1,0-.2-.02-.29-.13-1.15-.84-1.66-2.03-1.82-1.3-.18-2.13,.41-2.89,1.25-.25-.5-.36-1.19-.78-1.48-2.05-1.44-5.09-.28-6.12,2.35-1.03,2.63-.93,5.33-.09,8,1.04,3.27,2.12,3.8,5.64,2.89Zm-38.49-91.14c1.03,2.09,2.08,4.18,3.09,6.28,.99,2.06,1.93,4.14,2.96,6.34,1.56-1.05,1.94-2.2,2.03-3.51,.28-4.23-.02-8.39-1.75-12.35-.42-.96-1.02-1.91-1.75-2.68-1.27-1.35-2.88-1.66-4.75-1.13-1.98,.56-2.43,1.92-2.43,3.61-2.07-1.44-3.79-1.65-5.35-.66-1.5,.95-2.19,3.2-1.46,5.19,1.39,3.82,3.34,7.33,6.52,10.14,1.16,1.03,2.33,1.55,3.91,.91,1.29-2.01,1.03-4.11,.5-6.23-.49-1.97-1-3.94-1.51-5.91Zm98.76-6.98c-3.8,.04-6.73,2.58-6.05,5.67,.82,3.71,2.33,7.3,4.94,10.22,2.23,2.5,5.31,1.97,6.16-1.36,.47-1.85,.41-3.82,.59-5.74,1.99,3.53,3.89,7.09,5.17,11.04,.77-.86,1.48-1.67,1.58-2.55,.64-5.57-.33-10.9-3.42-15.71-2.11-3.29-5.61-3.78-8.96-1.59Zm-175.47,15.88c1.8-5.8,.4-10.78-3.2-15.24-1.52-1.89-3.62-2.18-5.33-.88-1.62,1.23-1.41,2.75,.21,4.83,2.43,3.1,4.66,6.34,6.97,9.52,.44,.6,.89,1.18,1.34,1.77Zm10.56,118.21c.62-.42,.97-.53,1.08-.76,2.22-4.43,2.63-9.15,2.18-13.92-.18-1.9-2.48-2.43-4.07-1.19-1.03,.79-1.45,1.77-1.47,3.06-.04,4.3,1.01,8.41,2.28,12.82Zm-3.88-112.45c-.74-1.56-2.72-2.23-4.31-1.8-2.23,.59-2.75,1.25-2.8,3.53-.06,2.87,1.74,5.52,4.51,6.67,2.08,.86,3.4,.19,3.66-1.9,.07-.58,.01-1.17,.01-1.75m-3.54-19.42c.43-1.25,1.02-2.08,.91-2.81-.45-2.96-.88-5.99-2.98-8.4-.75-.86-1.81-1.62-2.89-2.06-1.36-.55-2.58,.01-3.41,1.21-.86,1.24-.34,2.17,.68,3.05,.82,.71,1.68,1.41,2.36,2.23,1.69,2.05,3.28,4.17,5.33,6.79Zm8.65,158.93l-.67,.02c-.54,1.69-1.14,3.38-1.61,5.09-.88,3.18-2.02,6.35-1.61,9.7,.09,.71,.72,1.65,1.38,1.95,1.06,.48,1.96-.16,2.43-1.19,.2-.44,.49-.89,.52-1.35,.24-3.87,.49-7.74,.57-11.61,.02-.86-.65-1.73-1-2.59Zm176.13,8.12c-.99,.87-1.56,1.17-1.81,1.63-1.6,3-1.97,6.29-2.23,9.56-.15,1.78,1.44,3.27,2.88,3.26,1.2,0,2.43-1.53,2.56-3.19,.04-.48,.08-.98,.02-1.46-.42-3.05-.88-6.09-1.42-9.8Zm-170.33-55.63c-.54,.88-.95,1.32-1.11,1.83-1.01,3.33-2.01,6.67-2.9,10.03-.19,.71-.21,1.73,.2,2.25,.54,.67,1.53,1.25,2.42,1.39,1.03,.16,1.63-.69,1.68-1.69,.18-3.87,.37-7.74,.48-11.62,.02-.58-.4-1.18-.77-2.19Zm163.81,62.67c2.13-5.02,1.63-7.48-1.62-8.72-2.84,2.32-2.28,5.71,1.62,8.72Zm-175.85-1.39c.33-1.3,.92-2.65,.9-3.98-.01-.77-.85-1.83-1.62-2.2-.55-.27-1.93,.15-2.35,.68-.51,.64-.69,1.79-.5,2.61,.35,1.5,1.52,2.48,3.56,2.9Zm-1.51-161.86c1.17-2.24,1.08-4.19,.08-6.05-.29-.54-1.25-1.08-1.89-1.07-1.16,.04-1.26,1.05-1.26,1.97,.01,2.01,1.26,3.39,3.06,5.14Z"/>
          <path class="cls-3" d="M274.67,131.62c-.18,1.92-.12,3.89-.59,5.74-.84,3.33-3.93,3.85-6.16,1.36-2.61-2.92-4.11-6.52-4.94-10.22-.69-3.09,2.25-5.64,6.05-5.67-.17,1.28-.17,2.49,1.27,3.22,2.38,1.21,3.6,3.24,4.37,5.58Z"/>
          <path class="cls-3" d="M170.27,129.8c.5,1.97,1.01,3.94,1.51,5.91,.53,2.12,.79,4.22-.5,6.23-1.57,.64-2.74,.12-3.91-.91-3.19-2.81-5.14-6.31-6.52-10.14-.72-2-.03-4.24,1.46-5.19,1.56-.99,3.28-.78,5.35,.66,.87,1.15,1.74,2.29,2.61,3.44Z"/>
          <path class="cls-17" d="M274.67,131.62c-.76-2.35-1.99-4.37-4.37-5.58-1.44-.73-1.43-1.94-1.27-3.22,3.35-2.19,6.86-1.7,8.96,1.59,3.09,4.81,4.06,10.14,3.42,15.71-.1,.88-.81,1.69-1.58,2.55-1.28-3.95-3.19-7.51-5.17-11.04Z"/>
          <path class="cls-17" d="M170.27,129.8c-.87-1.15-1.74-2.29-2.61-3.44,0-1.69,.46-3.05,2.43-3.61,1.87-.53,3.49-.22,4.75,1.13,.73,.78,1.33,1.72,1.75,2.68,1.73,3.96,2.03,8.12,1.75,12.35-.09,1.31-.46,2.46-2.03,3.51-1.03-2.21-1.97-4.28-2.96-6.34-1.01-2.1-2.06-4.19-3.09-6.28Z"/>
          <path class="cls-3" d="M93.57,138.7c-.45-.59-.91-1.17-1.34-1.77-2.32-3.18-4.55-6.42-6.97-9.52-1.62-2.08-1.83-3.59-.21-4.83,1.71-1.3,3.8-1.01,5.33,.88,3.6,4.46,5,9.43,3.2,15.24Z"/>
          <path class="cls-3" d="M104.12,256.91c-1.27-4.41-2.32-8.51-2.28-12.82,.01-1.29,.44-2.26,1.47-3.06,1.59-1.23,3.89-.7,4.07,1.19,.46,4.77,.05,9.5-2.18,13.92-.11,.22-.46,.34-1.08,.76Z"/>
          <path class="cls-3" d="M101.31,149.2c0,.58,.06,1.17-.01,1.75-.26,2.09-1.58,2.76-3.66,1.9-2.77-1.14-4.56-3.8-4.51-6.67,.05-2.28,.57-2.94,2.8-3.53,1.59-.42,3.57,.25,4.31,1.8"/>
          <path class="cls-3" d="M277.81,159.16c-.19,2.76,.32,5.61-1.33,8.58-.74-.51-1.67-.84-2.05-1.47-1.36-2.26-2.69-4.56-3.73-6.97-.92-2.14-.23-3.72,1.46-4.48,1.75-.78,2.89-.34,4.54,1.73,.11,.14,.32,.22,.48,.33,.21,.76,.43,1.51,.64,2.27Z"/>
          <path class="cls-11" d="M208.76,220.93c.45-3.92,.89-7.83,1.34-11.75,.75-.84,1.59-1.43,2.89-1.25,1.19,.16,1.9,.67,2.03,1.82,.01,.1,.03,.2,.02,.29-.27,5.21-2.21,9.89-5.08,14.97-.53-1.83-.86-2.96-1.19-4.09Z"/>
          <path class="cls-3" d="M280.82,273.22c-2.16,.77-3.26,.47-3.5-1.53-.32-2.74-.85-5.54-.14-8.3,.67-2.61,2.79-3.74,5.37-3.03,1.56,.43,1.9,1.6,.83,2.83-1.66,.91-1.68,2.52-1.87,4.03-.25,2-.46,4-.68,6.01Z"/>
          <path class="cls-2" d="M97.77,129.78c-2.05-2.62-3.64-4.74-5.33-6.79-.68-.82-1.54-1.52-2.36-2.23-1.02-.88-1.54-1.81-.68-3.05,.83-1.2,2.05-1.76,3.41-1.21,1.08,.44,2.14,1.19,2.89,2.06,2.09,2.41,2.52,5.45,2.98,8.4,.11,.73-.48,1.56-.91,2.81Z"/>
          <path class="cls-24" d="M106.41,288.71c.35,.86,1.02,1.73,1,2.59-.08,3.87-.33,7.74-.57,11.61-.03,.46-.32,.91-.52,1.35-.46,1.03-1.36,1.68-2.43,1.19-.66-.3-1.29-1.24-1.38-1.95-.41-3.35,.73-6.52,1.61-9.7,.47-1.71,1.07-3.39,1.61-5.09l.67-.02Z"/>
          <path class="cls-24" d="M277.81,159.16c-.21-.76-.43-1.51-.64-2.27-.38-1.3-.77-2.6-1.14-3.9-.52-1.83-.16-3.19,.94-3.64,1.63-.67,3.46,0,4.3,1.78,1.37,2.93,1.46,6.02,.57,9.07-.28,.96-.78,2.11-2.34,1.91-.56-.98-1.12-1.97-1.69-2.96Z"/>
          <path class="cls-3" d="M179.66,156.24c.84,2.43,1.68,4.86,2.54,7.37-4.12,.17-9.21-3.82-9.44-7.1-.15-2.1,1.25-3.11,4.33-3.16,.85,.96,1.71,1.93,2.56,2.89Z"/>
          <path class="cls-3" d="M208.03,277.29c-.62,.96-1.24,1.92-1.87,2.91-1.46-.81-2.36-1.73-2.44-3.27-.1-1.91-.39-3.82-.51-5.73-.03-.55,.19-1.14,.42-1.66,.77-1.77,1.86-2.43,3.49-2.17,1.26,.2,2.29,1.74,2.17,3.39-.06,.85-.29,1.69-.44,2.54-.27,1.33-.55,2.66-.82,4Z"/>
          <path class="cls-11" d="M280.82,273.22c.22-2,.43-4.01,.68-6.01,.19-1.51,.21-3.12,1.87-4.03,2.94,.18,3.61,.68,3.05,2.98-.97,3.95-2.2,7.85-3.36,11.76-.12,.41-.54,.74-1.23,1.65-.4-2.5-.7-4.43-1.01-6.36Z"/>
          <path class="cls-2" d="M282.55,296.83c.54,3.71,.99,6.75,1.42,9.8,.07,.48,.02,.97-.02,1.46-.13,1.66-1.36,3.18-2.56,3.19-1.44,0-3.02-1.48-2.88-3.26,.27-3.26,.63-6.56,2.23-9.56,.24-.46,.82-.76,1.81-1.63Z"/>
          <path class="cls-1" d="M112.22,241.21c.37,1.01,.78,1.61,.77,2.19-.11,3.87-.3,7.75-.48,11.62-.05,1-.65,1.84-1.68,1.69-.88-.13-1.88-.71-2.42-1.39-.41-.52-.39-1.54-.2-2.25,.89-3.36,1.89-6.7,2.9-10.03,.15-.51,.56-.95,1.11-1.83Z"/>
          <path class="cls-24" d="M208.03,277.29c.27-1.33,.55-2.66,.82-4,2.81-.05,3.22,.11,3.06,2.32-.32,4.24-.92,8.47-1.43,12.69-.03,.26-.3,.5-.72,1.16-1.35-4.36-1.45-8.28-1.73-12.19Z"/>
          <path class="cls-3" d="M276.03,303.88c-3.89-3-4.45-6.4-1.62-8.72,3.25,1.23,3.75,3.7,1.62,8.72Z"/>
          <path class="cls-5" d="M179.66,156.24c-.85-.96-1.71-1.93-2.56-2.89-.21-.84-.72-1.73-.55-2.49,.19-.8,.87-1.76,1.62-2.11,.92-.43,2.09-.07,2.53,1.02,.86,2.14,.99,4.4,1.38,6.97l-2.42-.5Z"/>
          <path class="cls-3" d="M100.17,302.49c-2.05-.42-3.21-1.4-3.56-2.9-.19-.82-.01-1.97,.5-2.61,.42-.53,1.8-.94,2.35-.68,.77,.37,1.61,1.43,1.62,2.2,.02,1.33-.58,2.68-.9,3.98Z"/>
          <path class="cls-13" d="M98.67,140.63c-1.8-1.76-3.05-3.13-3.06-5.14,0-.92,.1-1.94,1.26-1.97,.64-.02,1.6,.52,1.89,1.07,1,1.86,1.09,3.81-.08,6.05Z"/>
        </g>
        <g>
          <g>
            <path class="cls-3" d="M603.46,289.75c.3,4.27,.15,8.58-.89,12.69-1.69,6.75-6.49,10.97-12.72,13.57-3.08,1.3-6.21,2.22-9.78,1.52-2.35-.46-4.92,.17-7.39,.34-1.55,.11-2.91-.27-4.17-1.22-1.75-1.31-3.64-2.42-5.32-3.8-.97-.8-1.85-1.85-2.41-2.96-2.23-4.46-3.68-9.15-3.81-14.2-.11-4.85-.39-9.7-.47-14.56-.12-6.54,.65-13.01,1.59-19.48,1.23-8.45,1.84-16.96,1.24-25.49-.48-6.9-1.06-13.8-1.76-20.68-.64-6.38-1.58-12.73-2.22-19.11-.26-2.56-.08-5.16-.1-7.75-.04-4.67-1.07-8.98-4.16-12.68-3.77-4.52-8.24-7.05-14.32-5.5-2.38,.61-4.79,1.13-7.14,1.84-4.28,1.3-7.36,4.04-9.7,7.85-1.96,3.2-4.35,6.12-6.43,9.24-1.36,2.05-2.55,4.21-3.76,6.35-1.86,3.27-3.5,6.68-5.56,9.81-2.38,3.64-6.12,5.52-10.19,6.78-8.23,2.55-12.89,8.35-15.31,16.38-1.64,5.43-2.2,11.01-2.94,16.58-.78,5.76-1.53,11.53-2.26,17.3-.27,2.06-.52,4.12-.65,6.19-.44,7.42-.83,14.83-1.23,22.25-.2,3.65-.06,7.37-.69,10.94-.7,3.96-2,7.82-3.26,11.65-.57,1.73-1.97,2.76-3.92,3.27-3.79,.99-7.55,1.33-11.45,.73-4.1-.63-8.23-1.01-12.35-1.53-.77-.1-1.72-.09-2.26-.53-2.85-2.29-6.05-4.39-6.9-8.27-.67-3.07-1.43-6.21-1.45-9.32-.06-6.93,.05-13.89,.61-20.8,.5-6.18,1.61-12.31,2.6-18.45,1.23-7.65,2.02-15.38,1.26-23.08-.95-9.61-2.63-19.15-3.89-28.73-.59-4.5-.82-9.06-1.41-13.56-1.36-10.47-1.35-20.98-1.02-31.49,.16-5.01,.99-10.01,1.59-15.01,.58-4.8,1.16-9.6,1.93-14.37,.81-4.96,1.47-9.99,3.61-14.6,.89-1.94,2.22-3.72,3.56-5.4,2.25-2.83,5.61-3.02,8.89-1.13,4.07,2.35,7.48,5.61,10.46,9.21,2.11,2.56,3.16,5.67,3.34,9.04,.08,1.57,.54,3.14,.5,4.7-.09,3.46-.43,6.91-.58,10.37-.22,4.85-.68,9.71-.43,14.54,.14,2.66,1.23,5.39,2.41,7.84,1.49,3.09,4.26,3.65,7.26,1.98,2.64-1.46,4.05-3.98,5.6-6.41,1.96-3.08,3.98-6.14,6.15-9.08,2.56-3.46,5.97-5.83,10.26-6.54,4.2-.69,7.56-2.89,10.68-5.5,4.93-4.15,9.9-8.28,14.56-12.72,8.24-7.83,17.77-13.25,28.8-15.81,4.31-1,8.83-1.04,13.24-1.54,4.12-.47,8.04,.26,11.84,1.8,.92,.38,1.84,.75,2.78,1.04,2.27,.71,4.51,1.54,6.82,1.98,3.01,.58,5.36,2.06,7.18,4.4,6.43,8.3,10.83,17.44,11.53,28.09,.28,4.15,.53,8.29,.8,12.44l-.42,.03c.23,3.95,.58,7.9,.67,11.86,.05,2.56-.34,5.13-.4,7.69-.1,3.98-.05,7.96-.12,11.93-.19,9.92-.39,19.84-.64,29.76-.07,2.77-.51,5.54-.4,8.29,.16,4.14,.76,8.27,.97,12.4,.17,3.48,.04,6.96,.06,10.44,.02,4.15-.17,8.27,1.56,12.28,.79,1.83,.66,4.07,.81,6.14,.28,3.95,.44,7.9,.67,11.86,.12,1.97,.31,3.94,.45,5.91Z"/>
            <path class="cls-14" d="M609.79,299.78c.09,.49-.06,1.46-.25,1.7-2.24,11.28-9.48,17.99-19.97,21.62-1.93,.66-4.09,.92-6.14,.91-4.37,0-8.75-.23-13.12-.54-1.34-.09-2.75-.51-3.94-1.14-9.24-4.87-13.87-12.88-14.81-22.99-1.2-12.89-1.27-25.81,.74-38.65,1.55-9.9,1.43-19.79,.26-29.7-1.08-9.17-2.22-18.34-3.14-27.53-.5-4.94-.6-9.92-.87-14.88-.21-3.71-1.44-6.95-4.24-9.54-1.58-1.45-3.36-2.1-5.46-1.75-1.27,.21-2.52,.57-3.78,.83-4.77,1-8.2,3.5-10.41,8.01-1.46,3-3.73,5.59-5.59,8.4-.87,1.32-1.65,2.71-2.42,4.09-1.84,3.28-3.49,6.68-5.5,9.85-3.14,4.96-7.51,8.49-13.33,9.85-7.16,1.67-11.49,6.19-13.06,13.16-1.41,6.28-2.56,12.65-3.39,19.03-1.15,8.86-2.07,17.77-2.75,26.68-.56,7.32-.64,14.69-.9,22.04-.23,6.67-2.4,12.84-4.99,18.88-1.17,2.73-3.49,4.29-6.24,5.16-6.97,2.21-14.07,2.57-21.21,1.01-2.99-.65-5.97-1.53-8.81-2.66-2.22-.89-4.69-1.81-5.14-4.78-.05-.31-.51-.59-.81-.84-4.13-3.52-5.62-8.24-6.3-13.41-1.05-7.95-.61-15.86,.37-23.77,.75-6.11,1.34-12.24,2.06-18.36,1.17-9.97-.1-19.85-1.37-29.69-1.24-9.55-3.3-19-4.18-28.57-1.18-12.95-2.13-25.95-1.07-38.99,1.01-12.39,2.61-24.68,4.98-36.87,.66-3.39,1.77-6.71,2.89-9.98,1.25-3.63,3.45-6.68,6.32-9.26,3.95-3.54,8.39-4.28,13.3-2.45,1.11,.41,2.29,.85,3.18,1.59,4.04,3.37,8.21,6.62,11.89,10.36,4.15,4.23,4.64,9.93,4.97,15.55,.31,5.38-.35,10.7-.89,16.05-.38,3.83-.28,7.72-.22,11.58,.02,1.32,.57,2.62,1.04,4.63,1.35-2.38,2.34-4.09,3.29-5.81,2.74-4.98,5.66-9.8,10.29-13.36,2.89-2.22,5.98-3.92,9.6-4.51,2.43-.4,4.55-1.37,6.4-2.97,5.26-4.55,10.74-8.88,15.74-13.7,8.95-8.62,19.35-14.55,31.37-17.52,7.55-1.86,15.24-3.03,23.04-1.66,2.23,.39,4.39,1.19,6.58,1.83,3.41,1.01,6.8,2.15,10.25,3.05,3.99,1.04,7.36,3.03,9.88,6.27,6.18,7.95,10.76,16.68,12.44,26.71,.38,2.23,.33,4.55,.3,6.83-.12,10.34-.18,20.67-.5,31-.38,12.51-.95,25.02-1.54,37.53-.51,10.94-.16,21.86,.88,32.75,.87,9.08,2.17,18.12,3.18,27.19,.4,3.55,.54,7.13,.85,10.69,.06,.6,.12,1.62,.09,2.27,.55,3.41,.16,5.4,.16,8.78Zm-7.22,2.66c1.04-4.11,1.19-8.42,.89-12.69-.14-1.97-.33-3.94-.45-5.91-.23-3.96-.39-7.91-.67-11.86-.15-2.07-.02-4.31-.81-6.14-1.73-4.01-1.54-8.13-1.56-12.28-.02-3.48,.11-6.96-.06-10.44-.21-4.13-.81-8.26-.97-12.4-.11-2.75,.33-5.52,.4-8.29,.25-9.92,.45-19.84,.64-29.76,.07-3.97,.02-7.95,.12-11.93,.06-2.56,.45-5.13,.4-7.69-.09-3.96-.44-7.91-.67-11.86l.42-.03c-.27-4.15-.52-8.29-.8-12.44-.7-10.65-5.1-19.79-11.53-28.09-1.82-2.34-4.17-3.82-7.18-4.4-2.31-.44-4.55-1.27-6.82-1.98-.94-.29-1.86-.66-2.78-1.04-3.8-1.54-7.72-2.27-11.84-1.8-4.41,.5-8.93,.54-13.24,1.54-11.03,2.56-20.56,7.98-28.8,15.81-4.66,4.44-9.63,8.57-14.56,12.72-3.12,2.61-6.48,4.81-10.68,5.5-4.29,.71-7.7,3.08-10.26,6.54-2.17,2.94-4.19,6-6.15,9.08-1.55,2.43-2.96,4.95-5.6,6.41-3,1.67-5.77,1.11-7.26-1.98-1.18-2.45-2.27-5.18-2.41-7.84-.25-4.83,.21-9.69,.43-14.54,.15-3.46,.49-6.91,.58-10.37,.04-1.56-.42-3.13-.5-4.7-.18-3.37-1.23-6.48-3.34-9.04-2.98-3.6-6.39-6.86-10.46-9.21-3.28-1.89-6.64-1.7-8.89,1.13-1.34,1.68-2.67,3.46-3.56,5.4-2.14,4.61-2.8,9.64-3.61,14.6-.77,4.77-1.35,9.57-1.93,14.37-.6,5-1.43,10-1.59,15.01-.33,10.51-.34,21.02,1.02,31.49,.59,4.5,.82,9.06,1.41,13.56,1.26,9.58,2.94,19.12,3.89,28.73,.76,7.7-.03,15.43-1.26,23.08-.99,6.14-2.1,12.27-2.6,18.45-.56,6.91-.67,13.87-.61,20.8,.02,3.11,.78,6.25,1.45,9.32,.85,3.88,4.05,5.98,6.9,8.27,.54,.44,1.49,.43,2.26,.53,4.12,.52,8.25,.9,12.35,1.53,3.9,.6,7.66,.26,11.45-.73,1.95-.51,3.35-1.54,3.92-3.27,1.26-3.83,2.56-7.69,3.26-11.65,.63-3.57,.49-7.29,.69-10.94,.4-7.42,.79-14.83,1.23-22.25,.13-2.07,.38-4.13,.65-6.19,.73-5.77,1.48-11.54,2.26-17.3,.74-5.57,1.3-11.15,2.94-16.58,2.42-8.03,7.08-13.83,15.31-16.38,4.07-1.26,7.81-3.14,10.19-6.78,2.06-3.13,3.7-6.54,5.56-9.81,1.21-2.14,2.4-4.3,3.76-6.35,2.08-3.12,4.47-6.04,6.43-9.24,2.34-3.81,5.42-6.55,9.7-7.85,2.35-.71,4.76-1.23,7.14-1.84,6.08-1.55,10.55,.98,14.32,5.5,3.09,3.7,4.12,8.01,4.16,12.68,.02,2.59-.16,5.19,.1,7.75,.64,6.38,1.58,12.73,2.22,19.11,.7,6.88,1.28,13.78,1.76,20.68,.6,8.53-.01,17.04-1.24,25.49-.94,6.47-1.71,12.94-1.59,19.48,.08,4.86,.36,9.71,.47,14.56,.13,5.05,1.58,9.74,3.81,14.2,.56,1.11,1.44,2.16,2.41,2.96,1.68,1.38,3.57,2.49,5.32,3.8,1.26,.95,2.62,1.33,4.17,1.22,2.47-.17,5.04-.8,7.39-.34,3.57,.7,6.7-.22,9.78-1.52,6.23-2.6,11.03-6.82,12.72-13.57Z"/>
          </g>
          <path class="cls-3" d="M600.5,173.05c.06,2.56-.34,5.13-.4,7.7-.1,3.97-.04,7.95-.12,11.93-.19,9.92-.39,19.84-.64,29.76-.07,2.77-.51,5.54-.4,8.29,.16,4.14,.76,8.26,.97,12.4,.17,3.47,.05,6.96,.06,10.44,.02,4.15-.17,8.27,1.56,12.28,.79,1.82,.66,4.07,.81,6.14,.28,3.95,.44,7.91,.67,11.86,.12,1.97,.3,3.94,.44,5.91,.31,4.27,.15,8.57-.88,12.69-1.7,6.75-6.49,10.97-12.72,13.58-3.08,1.29-6.22,2.21-9.78,1.52-2.35-.46-4.92,.17-7.39,.34-1.55,.11-2.91-.27-4.18-1.22-1.74-1.31-3.63-2.42-5.31-3.8-.97-.8-1.85-1.84-2.41-2.96-2.23-4.46-3.68-9.15-3.8-14.2-.12-4.85-.39-9.7-.48-14.56-.11-6.54,.65-13.01,1.59-19.48,1.23-8.44,1.84-16.95,1.24-25.49-.48-6.9-1.06-13.8-1.76-20.68-.64-6.38-1.58-12.73-2.22-19.11-.26-2.56-.08-5.17-.1-7.75-.04-4.67-1.07-8.99-4.16-12.69-3.77-4.52-8.24-7.05-14.32-5.5-2.38,.61-4.79,1.13-7.14,1.84-4.27,1.3-7.36,4.04-9.7,7.85-1.96,3.19-4.35,6.12-6.43,9.24-1.36,2.04-2.55,4.21-3.77,6.35-1.86,3.27-3.5,6.68-5.55,9.81-2.39,3.63-6.13,5.51-10.2,6.78-8.22,2.55-12.88,8.35-15.3,16.38-1.64,5.43-2.2,11.01-2.95,16.58-.77,5.77-1.53,11.53-2.26,17.31-.26,2.06-.52,4.12-.64,6.19-.44,7.41-.83,14.83-1.24,22.24-.2,3.65-.06,7.37-.69,10.95-.7,3.95-2,7.82-3.26,11.64-.57,1.73-1.97,2.77-3.91,3.27-3.8,.99-7.55,1.33-11.45,.73-4.1-.63-8.24-1.01-12.35-1.53-.77-.1-1.72-.09-2.26-.53-2.84-2.29-6.04-4.39-6.89-8.27-.67-3.07-1.43-6.21-1.46-9.32-.06-6.93,.05-13.89,.61-20.8,.5-6.18,1.62-12.32,2.61-18.45,1.23-7.66,2.02-15.39,1.26-23.09-.95-9.61-2.63-19.15-3.89-28.73-.59-4.5-.82-9.06-1.41-13.56-1.36-10.47-1.35-20.98-1.03-31.49,.16-5.01,.99-10.01,1.59-15.01,.58-4.8,1.16-9.6,1.93-14.38,.8-4.96,1.47-9.99,3.6-14.6,.9-1.94,2.23-3.72,3.57-5.4,2.24-2.82,5.61-3.02,8.89-1.13,4.07,2.35,7.48,5.61,10.46,9.22,2.12,2.56,3.16,5.66,3.34,9.03,.08,1.57,.54,3.14,.5,4.7-.09,3.46-.43,6.91-.58,10.37-.22,4.85-.68,9.71-.43,14.53,.14,2.66,1.23,5.4,2.41,7.84,1.49,3.08,4.25,3.65,7.26,1.98,2.64-1.47,4.05-3.98,5.6-6.41,1.96-3.08,3.99-6.14,6.15-9.08,2.55-3.46,5.97-5.83,10.25-6.54,4.2-.69,7.56-2.89,10.68-5.51,4.93-4.14,9.9-8.27,14.56-12.71,8.23-7.83,17.77-13.26,28.8-15.81,4.3-1,8.82-1.03,13.24-1.54,4.11-.47,8.04,.25,11.84,1.8,.92,.37,1.84,.75,2.78,1.04,2.26,.7,4.51,1.53,6.82,1.98,3,.58,5.36,2.05,7.18,4.4,6.43,8.29,10.83,17.44,11.53,28.09,.27,4.15,.53,8.3,.8,12.44m-9.87,59.9c.79-1.61,1.62-2.68,1.82-3.86,.55-3.28,1.09-6.6,1.17-9.91,.09-3.83-.2-7.69-.58-11.51-.2-2.01-.52-4.1-2.15-5.67-2.28-2.21-6-1.44-6.82,1.6-.42,1.55-.45,3.3-.27,4.91,.37,3.3,1.02,6.58,1.54,9.86,.68,4.28,1.79,8.43,3.59,12.38,.28,.6,.82,1.08,1.69,2.2Zm-2.35,75.55c0-.89,.07-1.79-.02-2.67-.13-1.27-.23-2.56-.6-3.77-.37-1.2-.91-2.42-1.66-3.43-1.59-2.14-5.94-2.88-7.26,1.19-.33,1.01-.57,2.1-.59,3.16-.05,3.27-.12,6.55,.09,9.8,.14,2.23,.66,4.45,1.16,6.64,.36,1.58,1.56,2.1,3.15,2.07,1.77-.03,2.65-1.17,3.41-2.46,1.9-3.25,2.08-6.9,2.32-10.53Zm-49.15-168.4c.21-.05,.85-.06,1.34-.33,3.27-1.81,6.91-2.1,10.49-2.77,2.59-.48,5.15-1.35,7.56-2.41,1.11-.49,2.98-.93,2.83-2.64-.15-1.69-1.82-2.17-3.24-2.62-5.42-1.7-10.91-1.52-16.36-.25-3.05,.71-5.25,2.67-6.32,5.71-.94,2.69,.72,5.32,3.69,5.3Zm-95.76,23.74c.95-1.48,1.76-2.38,2.15-3.44,.65-1.73,1.15-3.54,1.49-5.36,.61-3.27,1.18-6.55,1.51-9.86,.21-2.08-1.15-3.67-2.8-3.9-1.72-.24-3.19,.77-3.78,2.97-.43,1.59-.32,3.33-.72,4.93-.94,3.76-.44,7.43,.43,11.08,.26,1.07,.96,2.04,1.71,3.57Zm78.6-12.29c-.53-.34-.83-.67-1.01-.62-4.93,1.45-9.6,3.48-13.7,6.63-1.58,1.21-1.84,2.86-.93,4.14,.91,1.28,2.97,1.65,4.52,.55,4.19-2.97,8.2-6.16,11.12-10.7Zm-78.71,171.67c-.46-4.95-2.07-9.26-3.98-13.45-.24-.52-1.64-.93-2.31-.74-.81,.24-1.68,1.05-2.03,1.84-.32,.72-.22,1.84,.12,2.59,1.14,2.51,2.34,5.01,3.76,7.36,.81,1.34,2.14,2.32,4.43,2.39Zm3.97-12.55c-2.82-.01-4.22,1.92-3.03,4.33,1.08,2.18,2.53,4.19,3.91,6.21,.3,.45,.91,.83,1.45,.96,.8,.19,1.91,.48,2.43,.1,.53-.38,.85-1.63,.65-2.32-.77-2.61-1.8-5.15-2.73-7.72-.49-1.37-1.56-1.66-2.67-1.56Zm-11.43-146.9l.55-.04c.28-.8,.68-1.58,.81-2.41,.66-4.28,1.24-8.57,1.85-12.85,.21-1.46,.51-2.92,.56-4.39,.02-.53-.57-1.52-.9-1.52-.79-.02-1.87,.19-2.32,.73-.58,.7-.85,1.8-.91,2.76-.27,4.24-.53,8.48-.56,12.73-.01,1.67,.6,3.34,.93,5Zm157.09,150.52c1.39-.5,2.38-1.36,2.64-2.83,.43-2.4,.85-4.81,1.1-7.24,.17-1.66,.03-3.35,.05-5.03,.01-1.33-.49-2.45-1.82-2.69-1.42-.26-2.12,.8-2.39,2.07-.2,.95-.45,1.93-.43,2.89,.03,1.46,.31,2.92,.4,4.39,.18,2.77,.3,5.54,.45,8.45Zm-5.97-171.47c.27-1.64-.72-2.74-2.17-2.72-1.41,.02-3.04,1.66-2.84,3.25,.33,2.61,1.62,4.84,3.55,6.62,.57,.53,1.44,.04,1.45-.76,.02-2.13,0-4.26,0-6.39Zm-151.44,58.1c0-.3,0-.59,0-.89,0-1.23,0-2.49-1.63-2.66-1.57-.16-1.89,1.01-2.25,2.21-.86,2.92,.28,5.6,.86,8.36,.06,.29,.57,.76,.7,.71,.39-.15,.9-.47,.98-.81"/>
          <path class="cls-3" d="M590.39,221.06c-.88-1.12-1.42-1.6-1.69-2.2-1.81-3.95-2.92-8.1-3.59-12.38-.52-3.29-1.16-6.56-1.54-9.86-.18-1.61-.15-3.35,.27-4.91,.82-3.04,4.54-3.8,6.82-1.6,1.62,1.57,1.95,3.66,2.15,5.67,.38,3.82,.66,7.68,.58,11.51-.07,3.31-.61,6.63-1.17,9.91-.2,1.18-1.03,2.24-1.82,3.86Z"/>
          <path class="cls-3" d="M588.04,296.61c-.24,3.63-.41,7.28-2.32,10.53-.76,1.3-1.64,2.43-3.41,2.46-1.59,.03-2.79-.49-3.15-2.07-.5-2.19-1.02-4.41-1.16-6.64-.21-3.26-.15-6.54-.09-9.8,.02-1.06,.26-2.14,.59-3.16,1.32-4.07,5.66-3.33,7.26-1.19,.75,1,1.28,2.22,1.66,3.43,.37,1.2,.48,2.5,.6,3.77,.09,.88,.02,1.78,.02,2.67Z"/>
          <path class="cls-3" d="M443.12,151.95c-.75-1.53-1.45-2.49-1.71-3.57-.87-3.65-1.38-7.32-.43-11.08,.4-1.6,.29-3.34,.72-4.93,.59-2.2,2.07-3.21,3.78-2.97,1.65,.23,3,1.82,2.8,3.9-.33,3.3-.9,6.59-1.51,9.86-.34,1.82-.84,3.63-1.49,5.36-.39,1.05-1.2,1.96-2.15,3.44Z"/>
          <path class="cls-3" d="M521.72,139.66c-2.93,4.54-6.93,7.73-11.12,10.7-1.55,1.1-3.61,.73-4.52-.55-.91-1.28-.65-2.93,.93-4.14,4.1-3.15,8.77-5.18,13.7-6.63,.18-.05,.48,.28,1.01,.62Z"/>
          <path class="cls-7" d="M443.01,311.33c-2.29-.07-3.62-1.05-4.43-2.39-1.42-2.35-2.63-4.85-3.76-7.36-.34-.75-.44-1.87-.12-2.59,.35-.79,1.22-1.6,2.03-1.84,.67-.19,2.07,.22,2.31,.74,1.91,4.19,3.52,8.49,3.98,13.45Z"/>
          <path class="cls-3" d="M446.98,298.78c1.12-.11,2.18,.19,2.67,1.56,.92,2.57,1.95,5.11,2.73,7.72,.2,.69-.12,1.94-.65,2.32-.52,.38-1.63,.1-2.43-.1-.54-.13-1.14-.51-1.45-.96-1.37-2.03-2.83-4.03-3.91-6.21-1.19-2.41,.21-4.34,3.03-4.33Z"/>
          <path class="cls-18" d="M435.55,151.88c-.33-1.67-.94-3.34-.93-5,.03-4.24,.29-8.49,.56-12.73,.06-.95,.33-2.05,.91-2.76,.45-.54,1.53-.75,2.32-.73,.33,0,.91,1,.9,1.52-.05,1.47-.35,2.93-.56,4.39-.61,4.29-1.19,8.57-1.85,12.85-.13,.82-.53,1.61-.81,2.41l-.55,.04Z"/>
          <path class="cls-20" d="M592.64,302.4c-.15-2.91-.27-5.68-.45-8.45-.09-1.47-.37-2.92-.4-4.39-.02-.96,.22-1.94,.43-2.89,.27-1.27,.97-2.32,2.39-2.07,1.32,.24,1.83,1.36,1.82,2.69-.02,1.68,.12,3.37-.05,5.03-.25,2.43-.67,4.84-1.1,7.24-.26,1.47-1.26,2.33-2.64,2.83Z"/>
          <path class="cls-8" d="M586.66,130.94c0,2.13,.02,4.26,0,6.39,0,.8-.88,1.29-1.45,.76-1.94-1.79-3.22-4.01-3.55-6.62-.2-1.58,1.43-3.23,2.84-3.25,1.45-.02,2.44,1.08,2.17,2.72Z"/>
          <path class="cls-19" d="M433.9,195.94c-.09,.35-.6,.66-.98,.81-.13,.05-.64-.42-.7-.71-.58-2.75-1.72-5.44-.86-8.36,.36-1.2,.68-2.37,2.25-2.21,1.64,.17,1.64,1.44,1.63,2.66,0,.3,0,.59,0,.89"/>
        </g>
        <g>
          <g>
            <path class="cls-3" d="M817.38,131.65c2.13,3.88,1.76,5.34-1.8,7.82-5.66,3.94-11.83,6.65-18.81,7.12-3.87,.26-7.74,.43-11.62,.57-5.13,.19-10.28,.43-15.42,.43-4.36,0-8.72-.43-13.08-.42-2.11,0-4.27,.33-6.3,.92-7.42,2.14-11.26,6.87-11.67,14.8-.31,6-.14,12.03-.15,18.05,0,.67,.09,1.38,.3,2.01,1.94,5.83,1.37,11.64,.01,17.48-1.33,5.75-2.38,11.57-3.82,17.29-1.65,6.54-1,12.86,.93,19.19,1.53,5.04,2.5,10.17,1.94,15.48-.4,3.85-.68,7.73-1.24,11.56-.87,6.04-.33,12.01,.51,17.97,1.13,8.05,1.57,16.04-1.47,23.82-.35,.9-.76,1.78-1.1,2.69-1.72,4.61-5.16,7.11-9.84,8.16-5.86,1.31-11.58,.71-17.1-1.55-5.63-2.3-8.18-7.2-9.14-12.66-1.04-5.99-1.17-12.14-1.69-18.21-.32-9.17,1.68-17.98,3.56-26.81,2.49-11.69,4.23-23.5,3.78-35.48-.19-5.11-1.15-10.19-1.79-15.27-1.16-9.12-.91-18.18,.99-27.2,.74-3.5,1.37-7.05,1.64-10.61,.5-6.8-1.56-12.71-7.31-16.78-3.86-2.74-8.11-3.4-12.68-1.51-1.56,.65-3.37,.69-5.04,1.09-4.42,1.07-8.78,2.48-13.24,3.23-9.2,1.53-18.5,2.67-27.77,.97-7.49-1.37-13.83-5.25-18.19-11.57-5.31-7.71-2.75-16.48,5.87-20.26,5.75-2.52,11.73-4.53,17.69-6.53,4.3-1.44,8.7-2.61,13.12-3.64,2.05-.48,4.24-.45,6.37-.45,10.77,.01,21.55,.05,32.32,.17,3,.03,6,.45,9,.59,8.81,.4,17.63,1.02,26.45,1.02,6.18,0,12.37-.9,18.56-1.33,1.92-.14,3.86-.05,5.8-.07,5.53-.04,11.06,.03,16.58-.14,8.37-.27,16.77-.48,24.79,2.22,8.49,2.85,15.63,7.76,20.06,15.84Z"/>
            <path class="cls-14" d="M824.25,134.93v1.75c-6.44,11.32-17.34,15.01-29.2,16.08-9.45,.85-19.01,.47-28.52,.56-3.98,.04-7.97-.21-11.95-.11-1.6,.04-3.25,.49-4.78,1.03-3.63,1.3-5.76,3.97-5.93,7.84-.25,5.71-.29,11.44-.32,17.17-.01,1.04,.31,2.12,.69,3.11,2.27,6.01,2.29,12.15,1.11,18.35-1.23,6.48-2.43,12.96-3.77,19.41-.8,3.88-.8,7.68,.24,11.51,.93,3.46,1.74,6.96,2.56,10.45,1.29,5.52,.52,11.04-.21,16.51-1.1,8.16-.95,16.22,.59,24.33,1.89,9.97,.88,19.66-3.36,29.01-3.21,7.08-8.67,10.93-16.11,12.39-6.78,1.33-13.38,.48-19.73-1.92-7.56-2.86-11.53-8.96-13.53-16.4-.85-3.15-1.24-6.5-1.32-9.77-.19-7.37-.46-14.78,.08-22.12,.44-5.96,1.86-11.87,3.1-17.74,2.1-10.01,3.3-20.1,3.68-30.31,.22-5.78-.72-11.41-1.69-17.05-1.72-9.97-1.51-19.9,.37-29.83,.53-2.76,1.07-5.54,1.26-8.34,.15-2.29-.02-4.65-.39-6.93-.39-2.38-1.78-4.27-3.89-5.56-2.31-1.41-4.6-2.87-6.97-4.19-.57-.32-1.46-.39-2.1-.21-2.78,.81-5.58,1.58-8.25,2.67-8.04,3.3-16.44,4.4-25.03,4.52-4.67,.06-9.32,.08-13.91-1-7.43-1.76-13.6-5.69-18.44-11.46-3.54-4.22-5.2-9.4-4.42-14.92,.86-6,4.72-10.07,9.89-12.89,2.27-1.24,4.74-2.17,7.17-3.11,5.41-2.08,10.83-4.14,16.29-6.11,5.15-1.86,10.53-2.75,15.97-2.83,11.16-.16,22.33-.24,33.49-.01,7.95,.16,15.88,1.18,23.83,1.27,6.87,.08,13.75-.64,20.63-.96,8.14-.39,16.29-.74,24.43-1.1,3.39-.15,6.79-.32,10.18-.47,7.7-.33,15.4-.04,22.77,2.35,10.75,3.47,18.65,10.47,23.72,20.58,.71,1.42,1.18,2.96,1.77,4.45Zm-8.67,4.54c3.56-2.48,3.93-3.94,1.8-7.82-4.43-8.08-11.57-12.99-20.06-15.84-8.02-2.7-16.42-2.49-24.79-2.22-5.52,.17-11.05,.1-16.58,.14-1.94,.02-3.88-.07-5.8,.07-6.19,.43-12.38,1.33-18.56,1.33-8.82,0-17.64-.62-26.45-1.02-3-.14-6-.56-9-.59-10.77-.12-21.55-.16-32.32-.17-2.13,0-4.32-.03-6.37,.45-4.42,1.03-8.82,2.2-13.12,3.64-5.96,2-11.94,4.01-17.69,6.53-8.62,3.78-11.18,12.55-5.87,20.26,4.36,6.32,10.7,10.2,18.19,11.57,9.27,1.7,18.57,.56,27.77-.97,4.46-.75,8.82-2.16,13.24-3.23,1.67-.4,3.48-.44,5.04-1.09,4.57-1.89,8.82-1.23,12.68,1.51,5.75,4.07,7.81,9.98,7.31,16.78-.27,3.56-.9,7.11-1.64,10.61-1.9,9.02-2.15,18.08-.99,27.2,.64,5.08,1.6,10.16,1.79,15.27,.45,11.98-1.29,23.79-3.78,35.48-1.88,8.83-3.88,17.64-3.56,26.81,.52,6.07,.65,12.22,1.69,18.21,.96,5.46,3.51,10.36,9.14,12.66,5.52,2.26,11.24,2.86,17.1,1.55,4.68-1.05,8.12-3.55,9.84-8.16,.34-.91,.75-1.79,1.1-2.69,3.04-7.78,2.6-15.77,1.47-23.82-.84-5.96-1.38-11.93-.51-17.97,.56-3.83,.84-7.71,1.24-11.56,.56-5.31-.41-10.44-1.94-15.48-1.93-6.33-2.58-12.65-.93-19.19,1.44-5.72,2.49-11.54,3.82-17.29,1.36-5.84,1.93-11.65-.01-17.48-.21-.63-.3-1.34-.3-2.01,.01-6.02-.16-12.05,.15-18.05,.41-7.93,4.25-12.66,11.67-14.8,2.03-.59,4.19-.92,6.3-.92,4.36-.01,8.72,.42,13.08,.42,5.14,0,10.29-.24,15.42-.43,3.88-.14,7.75-.31,11.62-.57,6.98-.47,13.15-3.18,18.81-7.12Z"/>
          </g>
          <path class="cls-3" d="M696.82,284.17c-.32-9.17,1.69-17.98,3.56-26.8,2.49-11.7,4.23-23.5,3.78-35.49-.19-5.11-1.15-10.19-1.8-15.27-1.16-9.12-.91-18.17,1-27.19,.74-3.5,1.37-7.05,1.63-10.62,.51-6.8-1.56-12.71-7.31-16.78-3.86-2.74-8.11-3.4-12.68-1.51-1.56,.65-3.37,.69-5.04,1.09-4.42,1.07-8.77,2.48-13.24,3.22-9.19,1.53-18.5,2.67-27.76,.98-7.5-1.37-13.83-5.26-18.19-11.58-5.31-7.7-2.76-16.48,5.86-20.26,5.75-2.52,11.73-4.53,17.69-6.53,4.3-1.44,8.7-2.62,13.12-3.65,2.05-.48,4.24-.45,6.37-.44,10.78,0,21.55,.04,32.33,.16,3,.03,5.99,.46,8.99,.59,8.81,.4,17.63,1.02,26.45,1.02,6.19,0,12.37-.9,18.56-1.33,1.92-.13,3.86-.05,5.8-.06,5.53-.04,11.06,.03,16.59-.14,8.37-.27,16.77-.48,24.79,2.22,8.49,2.85,15.63,7.76,20.06,15.85,2.13,3.88,1.76,5.34-1.8,7.82-5.66,3.94-11.83,6.64-18.81,7.12-3.87,.26-7.74,.43-11.62,.57-5.14,.19-10.28,.43-15.42,.43-4.36,0-8.72-.43-13.09-.42-2.1,0-4.27,.33-6.29,.92-7.42,2.14-11.26,6.87-11.67,14.8-.31,6.01-.14,12.04-.15,18.06,0,.67,.09,1.37,.3,2.01,1.94,5.83,1.37,11.64,.02,17.48-1.34,5.75-2.39,11.57-3.83,17.29-1.65,6.53-1,12.86,.93,19.19,1.54,5.04,2.5,10.17,1.95,15.48-.41,3.86-.69,7.73-1.24,11.56-.87,6.03-.33,12.01,.51,17.97,1.13,8.05,1.57,16.04-1.47,23.82-.35,.9-.76,1.78-1.1,2.69-1.72,4.61-5.16,7.12-9.83,8.16-5.87,1.31-11.59,.72-17.11-1.54-5.63-2.3-8.18-7.2-9.14-12.67-1.04-5.99-1.17-12.13-1.7-18.21Zm29.06-50.79c1.37,2.58,1.45,5.79,3.96,8.34,.91-2.86,.1-5.21-.22-7.5-.71-5.09-2.78-10.1-.45-15.28,.03-.06-.06-.18-.11-.31-1.03-.75-2.12-.55-2.76,.41-.77,1.17-1.46,2.51-1.7,3.86-.31,1.69-.13,3.46-.17,5.2-.24-1.86-.48-3.72-.71-5.55-3.02-.22-4.96,1.33-4.93,4.25,.04,3.87,.9,7.63,2.52,11.18,.46,1,1.07,1.93,1.66,2.97,2.28-2.34,2.64-3.34,2.9-7.58Zm59.66-103.67c-.34,2.45,1.57,5.34,4.39,6.31,0-1.33,.05-2.57-.01-3.81-.09-1.84-.86-3.15-2.91-3.3,1.85-1.06,1.31-2.64,.69-4.02-1.58-3.52-4.33-5.91-7.93-7.23-1.69-.62-3.46-.45-4.98,.65-2,1.45-1.79,4.56,.38,5.75,2.69,1.48,5.41,2.92,8.12,4.38,.75,.41,1.5,.83,2.25,1.25Zm-62.19,174.8c-.04,1.04,.57,1.21,1.46,1.2,2.33-.02,5.42-2.73,6.26-5.56,.67-2.25,.2-2.91-2.33-3.32,2.29-2.66,3.02-7.48,1.34-10.24-.72-1.19-1.63-2.48-3.35-2.47-1.82,.01-3.26,.84-3.91,2.5-1.75,4.48-3.46,9-3.51,13.91-.03,3.54,.49,4,4.04,3.97Zm2.35-125.26c-.27-.8-.38-1.7-.85-2.36-.63-.89-1.4-1.91-2.35-2.3-2.39-.97-4.76,.79-4.85,3.67-.07,2.19,.1,4.45,.58,6.58,.75,3.35,1.63,6.71,2.87,9.9,.79,2.01,2.4,3.64,5.21,3.59,0-.94,.02-1.7,0-2.46-.16-5-.34-10.01-.5-15.01,.57,2.12,1,4.3,1.76,6.36,.78,2.09,1.27,4.39,3.49,6.38,.35-1.69,.92-2.99,.81-4.23-.41-4.8-1-9.58-1.6-14.35-.13-1.02-.82-1.72-2-1.72-1.14,0-1.84,.55-2.01,1.66-.22,1.42-.38,2.86-.56,4.29Zm.54-53.43l.03-.24c1.06,0,2.13,.08,3.19-.02,2.87-.26,5.78-.57,8.25-2.21,.86-.57,1.6-1.6,1.88-2.57,.11-.37-1.15-1.3-1.93-1.73-3.11-1.75-6.64-1.86-10.06-2.08-2.56-.17-5.21,.07-7.72,.6-3.21,.67-3.87,4.7-1.52,6.24,.71,.46,1.41,1.09,2.2,1.25,1.87,.38,3.78,.53,5.68,.76Zm-78.2-5.28c-.45-.2-.87-.43-1.32-.57-.36-.12-.77-.21-1.14-.17-4.33,.39-8.38,1.53-11.67,4.56-.42,.39-.95,.87-1.03,1.38-.14,.97-.26,2.13,.15,2.93,.19,.36,1.72,.23,2.56,.01,2.04-.53,4.08-1.13,6.04-1.91,1.77-.71,3.53-1.56,5.11-2.62,1.01-.68,1.81-1.8,1.31-3.6Zm133.94,21.25c1.55-3.52,0-8.28-3.13-9.94-.33-.18-.7-.32-1.07-.39-2.71-.48-4.9,1.85-4.32,4.57,.68,3.19,4.55,5.86,8.52,5.76Zm17.72-11.38c1.73-1.06,1.37-2.49,1.15-3.6-.72-3.52-2.68-6.37-5.44-8.62-.62-.5-1.58-.7-2.41-.8-1.07-.13-2.19,.02-2.58,1.32-.33,1.11-.02,2.02,.88,2.84,1.42,1.29,2.76,2.68,4.07,4.08,1.44,1.53,2.82,3.12,4.32,4.78Zm-119.95-12.66l-.29-.67c-.74-.19-1.48-.57-2.21-.55-3.35,.06-6.73,.04-10.05,.41-1.92,.22-3.05,2.29-2.6,3.87,.41,1.44,1.98,1.93,4.1,1.22,2.83-.94,5.67-1.87,8.47-2.89,.91-.33,1.73-.92,2.59-1.39Zm49.19,156.42l.63-.02c1.34-3.99,.86-8.13,.86-12.23,0-.56-.75-1.13-1.16-1.69-.57,.52-1.28,.96-1.67,1.6-.26,.42-.1,1.13-.06,1.7,.16,1.91,.31,3.82,.56,5.72,.21,1.65,.55,3.28,.83,4.91Z"/>
          <path class="cls-3" d="M725.81,180.86c.17,5,.34,10.01,.5,15.01,.02,.76,0,1.51,0,2.46-2.81,.06-4.42-1.57-5.21-3.59-1.25-3.19-2.12-6.55-2.87-9.9-.48-2.13-.65-4.39-.58-6.58,.09-2.88,2.46-4.64,4.85-3.67,.95,.39,1.72,1.41,2.35,2.3,.47,.66,.58,1.56,.85,2.36,.04,.54,.07,1.07,.11,1.61Z"/>
          <path class="cls-3" d="M723.35,304.51c-3.54,.03-4.07-.43-4.04-3.97,.05-4.91,1.75-9.43,3.51-13.91,.65-1.66,2.09-2.49,3.91-2.5,1.72-.01,2.63,1.28,3.35,2.47,1.68,2.76,.95,7.58-1.34,10.24-.79,.76-1.74,1.41-2.33,2.3-1.13,1.72-2.05,3.58-3.06,5.39Z"/>
          <path class="cls-3" d="M785.54,129.71c-.75-.42-1.49-.84-2.25-1.25-2.71-1.46-5.42-2.9-8.12-4.38-2.17-1.19-2.38-4.3-.38-5.75,1.52-1.1,3.29-1.27,4.98-.65,3.59,1.32,6.34,3.71,7.93,7.23,.62,1.37,1.16,2.96-.69,4.02-.49,.27-.98,.53-1.47,.8Z"/>
          <path class="cls-3" d="M725.88,233.38c-.26,4.24-.62,5.24-2.9,7.58-.59-1.04-1.2-1.97-1.66-2.97-1.62-3.54-2.47-7.3-2.52-11.18-.03-2.92,1.91-4.48,4.93-4.25,.24,1.83,.47,3.69,.71,5.55,.48,1.76,.96,3.51,1.44,5.27Z"/>
          <path class="cls-4" d="M648.04,120.54c.5,1.8-.3,2.92-1.31,3.6-1.58,1.06-3.34,1.91-5.11,2.62-1.95,.78-3.99,1.38-6.04,1.91-.84,.22-2.37,.35-2.56-.01-.41-.8-.29-1.95-.15-2.93,.07-.5,.6-.99,1.03-1.38,3.29-3.03,7.34-4.17,11.67-4.56,.37-.03,.78,.06,1.14,.17,.45,.14,.88,.37,1.32,.57Z"/>
          <path class="cls-16" d="M725.81,180.86c-.04-.54-.07-1.07-.11-1.61,.18-1.43,.34-2.86,.56-4.29,.17-1.12,.87-1.66,2.01-1.66,1.18,0,1.87,.7,2,1.72,.6,4.78,1.2,9.56,1.6,14.35,.11,1.24-.47,2.53-.81,4.23-2.22-1.99-2.71-4.29-3.49-6.38-.76-2.05-1.19-4.23-1.76-6.36Z"/>
          <path class="cls-16" d="M725.88,233.38c-.48-1.76-.96-3.51-1.44-5.27,.03-1.74-.14-3.51,.17-5.2,.25-1.35,.94-2.7,1.7-3.86,.63-.96,1.73-1.16,2.76-.41,.05,.14,.14,.25,.11,.31-2.33,5.17-.26,10.19,.45,15.28,.32,2.28,1.13,4.64,.22,7.5-2.51-2.55-2.59-5.76-3.96-8.34Z"/>
          <path class="cls-3" d="M781.98,141.79c-3.97,.09-7.84-2.58-8.52-5.76-.58-2.72,1.61-5.05,4.32-4.57,.37,.07,.74,.21,1.07,.39,3.12,1.67,4.68,6.42,3.13,9.94Z"/>
          <path class="cls-16" d="M799.7,130.41c-1.5-1.66-2.88-3.25-4.32-4.78-1.32-1.4-2.66-2.78-4.07-4.08-.9-.82-1.21-1.73-.88-2.84,.38-1.3,1.5-1.44,2.58-1.32,.83,.1,1.79,.3,2.41,.8,2.76,2.25,4.72,5.11,5.44,8.62,.23,1.1,.59,2.53-1.15,3.6Z"/>
          <path class="cls-3" d="M679.76,117.76c-.86,.47-1.68,1.06-2.59,1.39-2.81,1.02-5.64,1.95-8.47,2.89-2.12,.7-3.69,.22-4.1-1.22-.44-1.57,.68-3.65,2.6-3.87,3.32-.38,6.7-.36,10.05-.41,.73-.01,1.47,.36,2.21,.55l.29,.67Z"/>
          <path class="cls-9" d="M723.35,304.51c1.01-1.8,1.93-3.66,3.06-5.39,.58-.89,1.54-1.54,2.33-2.3,2.53,.41,3,1.08,2.33,3.32-.84,2.83-3.93,5.54-6.26,5.56-.89,0-1.5-.16-1.46-1.2Z"/>
          <path class="cls-16" d="M728.94,274.18c-.28-1.64-.62-3.27-.83-4.91-.25-1.9-.4-3.81-.56-5.72-.05-.57-.2-1.28,.06-1.7,.39-.63,.74-1.23,1.67-1.6,.85,.38,1.48,1.2,1.24,1.86,0,4.09,.4,8.07-.94,12.06l-.63,.02Z"/>
          <path class="cls-15" d="M785.54,129.71c.49-.27,.98-.53,1.47-.8,2.05,.15,2.81,1.46,2.91,3.3,.06,1.24,.01,2.48,.01,3.81-2.82-.97-4.73-3.86-4.39-6.31Z"/>
        </g>
        <g>
          <path class="cls-14" d="M390.39,288.25c-1.11,5.88-3.44,11.32-6.07,16.68-1.2,2.44-2.23,4.95-3.22,7.47-2.24,5.69-5.99,9.76-11.98,11.62-.59,.04-1.19,.07-1.78,.11-.87,.06-2,.66-3.68,.2-2.25,.18-.58,.14-2.88,.14-.7,.04-1.2-.02-1.36-.04-4.12-.57-7.85-2.21-11.54-4-2.5-1.38-5.21-2.49-7.46-4.2-3.98-3.01-5.89-7.43-6.89-12.19-.68-3.25-1.51-6.48-1.22-9.92,.19-2.2-.66-4.48-.66-6.72,0-2.97,.47-5.94,.57-8.92,.14-4.26,.29-8.52,.12-12.77-.08-2.06-.96-4.09-1.35-6.15-.77-4.13-2.02-8.19-1.96-12.46,.01-5.01,.02-10.01,.03-15.02,.44-3.95,.83-7.91,1.32-11.85,.36-2.87,.84-5.73,1.27-8.6l.51-11.48,.11-4.15c.11-.39,.3-.78,.3-1.17,.1-6.58,.18-13.16,.26-19.74,0-1.61-.09-3.23,.02-4.83,.13-1.86,.44-3.71,.67-5.56,.15-1.43,.42-2.86,.44-4.29,.06-4.69-.02-9.37,.04-14.06,.07-5.16,1.69-9.88,4.93-13.86,4.7-5.77,10.47-10.08,17.83-11.97,2.1-.54,4.18-1.16,6.26-1.74,2.59-.2,5.18-.4,7.78-.61,6.58,.13,10.71,6.18,12.65,12.67,.44,1.47,.85,2.94,1.27,4.42-.39,5.57-.86,11.13-1.13,16.7-.12,2.47,.15,4.95,.33,7.43,.25,3.51,.54,7.01,.86,10.51,.56,6.12,1.17,12.24,1.74,18.36,.09,.94,.1,1.89,.09,2.84-.07,6.15,1.11,12.15,2.01,18.19,.44,2.95,.77,5.91,1.2,8.86,.1,.69,.12,1.51,.31,2.18,.06,2.39,.34,4.63,.45,7.02,.09,2.07,.27,4.13,.41,6.19,.04,2.23,.08,4.45,.12,6.68,0,8.35-.01,16.69-.02,25.04-.03,1.18-.07,2.35-.1,3.53-.13,1-.35,2.01-.37,3.01-.1,5.34-.15,10.67-.22,16.01"/>
          <path class="cls-3" d="M336.66,283.05c.19,2.85,.17,6.53,.72,10.12,.68,4.4,1.54,8.83,2.87,13.07,1.8,5.75,6.46,8.85,12.42,9.07,1.45,.05,2.89,.33,4.33,.51,2.27,.28,4.54,.7,6.82,.81,6.08,.29,8.43-1.23,10.9-6.83,2.14-4.86,4.25-9.73,6.36-14.6,1.59-3.67,2.53-7.44,2.53-11.49,0-4.79,.3-9.58,.42-14.38,.41-16.59,.4-33.17-.59-49.75-.15-2.49-.57-4.96-.94-7.43-1.35-8.96-2.62-17.92-2.8-27.01-.06-3.11-.64-6.21-.91-9.32-.54-6.22-1.29-12.45-1.44-18.68-.14-5.4,.37-10.83,.7-16.24,.23-3.73-.41-7.26-2.03-10.62-1.84-3.82-5.2-5.87-9.4-5.2-6.63,1.06-12.99,2.83-18.23,7.46-4.65,4.1-7.31,9.06-7.28,15.28,.04,8.76-.34,17.49-1.12,26.23-.82,9.13-1.02,18.32-1.33,27.48-.31,9.07-1.25,18.05-2.96,26.98-.82,4.28-1.34,8.68-1.3,13.03,.04,4.45,.75,8.91,1.49,13.32,.81,4.84,1.62,9.65,1.38,14.58-.21,4.26-.36,8.53-.57,13.59Z"/>
          <path class="cls-3" d="M336.66,283.05c.21-5.06,.35-9.33,.57-13.59,.25-4.93-.57-9.74-1.38-14.58-.73-4.41-1.45-8.87-1.49-13.32-.04-4.34,.49-8.75,1.3-13.03,1.71-8.93,2.66-17.9,2.96-26.98,.31-9.17,.51-18.36,1.33-27.48,.78-8.74,1.17-17.46,1.12-26.23-.03-6.21,2.64-11.18,7.28-15.28,5.25-4.63,11.6-6.41,18.23-7.46,4.2-.67,7.56,1.38,9.4,5.2,1.62,3.36,2.26,6.88,2.03,10.62-.33,5.41-.83,10.83-.7,16.24,.16,6.24,.91,12.46,1.44,18.68,.27,3.11,.85,6.21,.91,9.32,.19,9.09,1.45,18.05,2.8,27.01,.37,2.47,.79,4.94,.94,7.43,.99,16.57,1,33.16,.59,49.75-.12,4.79-.42,9.59-.42,14.38,0,4.05-.94,7.83-2.53,11.49-2.11,4.87-4.22,9.74-6.36,14.6-2.47,5.6-4.81,7.11-10.9,6.83-2.28-.11-4.55-.53-6.82-.81-1.44-.18-2.88-.45-4.33-.51-5.97-.22-10.62-3.33-12.42-9.07-1.33-4.24-2.19-8.67-2.87-13.07-.55-3.59-.54-7.26-.72-10.12Zm22.06,20.18c2.02,.63,3.66,.05,4.82-1.43,1-1.28,1.89-2.73,2.45-4.25,1.48-4.04,2.91-8.11,4.06-12.25,1.29-4.64,2.31-9.37,2.24-14.25-.06-4.17,.06-8.34-.05-12.5-.05-1.83-.34-3.69-.78-5.47-.2-.81-.89-1.67-1.6-2.16-2.13-1.46-4.79-.11-5.55,2.86-.43,1.68-.61,3.43-.76,5.17-.46,5.33-.69,10.69-1.32,16.01-.51,4.36-1.4,8.68-2.24,13-.96,4.96-2.04,9.9-1.27,15.27Zm6.91-153.38c-.37-1.38-.64-3.46-1.47-5.29-1.54-3.38-5-3.79-7.54-1.07-1.76,1.88-2.02,4.21-1.78,6.63,.13,1.32,.41,2.63,.55,3.95,.41,3.92,1.37,7.69,3.22,11.18,1.23,2.32,3.93,2.38,4.62-.15,.19-.69,.78-1.29,.87-1.98,.54-4.18,.98-8.37,1.54-13.27Zm8.4,143.7c.73-1.77,1.62-3.21,1.9-4.77,.62-3.46,1.15-6.97,1.32-10.48,.39-7.99,.62-15.99,.75-24,.04-2.15-.36-4.34-.8-6.47-.28-1.38-.79-2.86-2.59-3.09-1.54,.71-1.58,2.08-1.61,3.44-.07,3.95-.11,7.91-.19,11.86-.2,10.87,.29,21.74,.23,32.61,0,.13,.28,.27,.98,.89Zm-1.93-79.11l.93,.02c.39-1.02,.97-2.01,1.15-3.06,1.43-8.48,.85-16.97-.24-25.43-.12-.9-.42-1.91-.98-2.58-.53-.63-1.62-1.35-2.26-1.19-.82,.2-1.68,1.13-2.08,1.95-.37,.78-.21,1.84-.19,2.77,.19,7.8,1.52,15.46,2.94,23.11,.27,1.46,.49,2.94,.73,4.41Zm-9.29-24.84c-3.41,1.71-3.82,2.53-3.09,6.2,.08,.4-.03,.85,.07,1.24,1.06,4.04,2.02,8.12,3.3,12.1,.47,1.47,1.02,3.19,3.07,4.11,.18-.87,.42-1.62,.49-2.38,.09-1.03-.17-2.14,.1-3.11,1.35-4.74,.26-9.43-.26-14.11-.22-2.02-1.39-3.65-3.68-4.05Zm5.48-29.99c1.95-.22,2.13-1.69,2.43-2.72,1.27-4.31,1.89-8.73,1.57-13.24-.06-.81-.31-1.65-.69-2.37-.69-1.3-1.87-2.01-3.36-1.71-1.4,.29-2.54,1.12-2.75,2.63-.15,1.12-.15,2.31,.06,3.42,.84,4.57,1.78,9.12,2.74,13.98Z"/>
          <path class="cls-14" d="M374.03,293.55c-.7-.62-.98-.76-.98-.89,.06-10.87-.44-21.74-.23-32.61,.07-3.95,.11-7.91,.19-11.86,.03-1.36,.07-2.74,1.61-3.44,1.81,.23,2.31,1.71,2.59,3.09,.43,2.13,.84,4.31,.8,6.47-.14,8-.36,16-.75,24-.17,3.51-.7,7.01-1.32,10.48-.28,1.56-1.17,3-1.9,4.77Z"/>
          <path class="cls-6" d="M372.1,214.44c-.24-1.47-.46-2.94-.73-4.41-1.42-7.65-2.75-15.31-2.94-23.11-.02-.93-.18-1.99,.19-2.77,.39-.83,1.25-1.75,2.08-1.95,.64-.16,1.74,.56,2.26,1.19,.56,.67,.86,1.68,.98,2.58,1.09,8.47,1.66,16.95,.24,25.43-.18,1.06-.75,2.04-1.15,3.06l-.93-.02Z"/>
          <path class="cls-3" d="M362.81,189.59c2.29,.4,3.46,2.04,3.68,4.05,.51,4.68,1.61,9.36,.26,14.11-.27,.97-.01,2.07-.1,3.11-.07,.76-.3,1.51-.49,2.38-2.05-.91-2.6-2.63-3.07-4.11-1.27-3.98-2.24-8.05-3.3-12.1-.1-.39,.01-.84-.07-1.24-.73-3.67-.33-4.49,3.09-6.2Z"/>
          <path class="cls-12" d="M368.29,159.61c-.96-4.86-1.9-9.41-2.74-13.98-.2-1.11-.21-2.3-.06-3.42,.2-1.52,1.34-2.35,2.75-2.63,1.49-.3,2.67,.4,3.36,1.71,.38,.71,.63,1.56,.69,2.37,.32,4.51-.3,8.93-1.57,13.24-.3,1.04-.48,2.5-2.43,2.72Z"/>
          <g>
            <path class="cls-3" d="M377.22,67.04c4.38,3.61,7.31,12.22,4.32,17.91-1.31,2.48-2.26,5.14-3.34,7.73-2.62,6.29-10.99,11.49-17.78,9.92-2.31-.53-4.75-.52-7.1-.92-.85-.14-1.88-.55-2.36-1.19-2.73-3.66-5.43-7.35-7.94-11.17-1.79-2.73-1.89-5.83-1.32-9.03,.49-2.76,.62-5.58,1.02-8.35,.27-1.84,.55-3.71,1.13-5.47,1.04-3.21,3.32-5.27,6.65-5.94,2.85-.58,5.73-.96,8.35-1.39,1.43,.24,2.58,.32,3.67,.62,5.36,1.49,10.39,3.71,14.7,7.28Z"/>
            <path class="cls-14" d="M389.03,73.74l.32,9.38c-.72,4.9-3.57,8.43-5.3,12.66-3.72,9.05-17.11,17.32-30.77,12.04-2.78-1.08-5.14-3.45-7.45-5.5-2.02-1.78-3.76-3.89-5.54-5.94-4.49-5.18-5.59-11.23-4.6-17.86,.47-3.19,.8-6.41,1.08-9.63,.61-7.08,4.78-12.15,11.66-14.22,13.4-4.04,24.83-.19,34.92,8.76,3.06,2.71,5.13,6.53,5.68,10.31Zm-7.49,11.21c2.99-5.69,.06-14.3-4.32-17.91-4.31-3.57-9.34-5.79-14.7-7.28-1.09-.3-2.24-.38-3.67-.62-2.62,.43-5.5,.81-8.35,1.39-3.33,.67-5.61,2.73-6.65,5.94-.58,1.76-.86,3.63-1.13,5.47-.4,2.77-.53,5.59-1.02,8.35-.57,3.2-.47,6.3,1.32,9.03,2.51,3.82,5.21,7.51,7.94,11.17,.48,.64,1.51,1.05,2.36,1.19,2.35,.4,4.79,.39,7.1,.92,6.79,1.57,15.16-3.63,17.78-9.92,1.08-2.59,2.03-5.25,3.34-7.73Z"/>
          </g>
          <path class="cls-3" d="M358.85,59.14c1.43,.24,2.58,.32,3.68,.62,5.36,1.49,10.38,3.71,14.7,7.28,4.37,3.61,7.3,12.22,4.31,17.92-1.3,2.48-2.26,5.14-3.34,7.73-2.62,6.29-10.99,11.49-17.78,9.92-2.31-.54-4.75-.52-7.11-.92-.84-.14-1.88-.55-2.36-1.19-2.73-3.66-5.43-7.36-7.94-11.17-1.8-2.73-1.89-5.83-1.32-9.03,.49-2.76,.62-5.57,1.02-8.35,.26-1.84,.55-3.71,1.12-5.47,1.05-3.21,3.32-5.27,6.65-5.94,2.85-.58,5.73-.96,8.35-1.39Zm5.69,10.68c-1.3-1.8-2.42-3.76-3.94-5.35-1.85-1.95-4.49-2.05-6.53-.68-1.88,1.27-2.99,4.2-1.84,6.39,2.08,3.98,5.14,7.22,8.84,9.81,.08,.06,.17,.12,.27,.16,2.53,1.05,4.22-.07,4.44-2.81,.21-2.63-.31-5.11-1.25-7.53,2.2,1.71,4.38,3.43,6.6,5.11,.9,.68,1.38,.02,1.46-.75,.25-2.33-.12-4.54-1.58-6.47-1.33-1.78-2.99-2.49-4.5-1.94-1.95,.72-2.18,2.29-1.97,4.06Zm2.68,23.08c.84-3.5,.39-6.23-.41-8.88-.38-1.28-1.58-1.97-3.01-1.56-1.17,.33-1.9,.99-1.85,2.45,.05,1.52,.27,2.9,1.32,4.03,1.13,1.21,2.33,2.34,3.95,3.96Zm6.08-8.54c-.03-.64-.72-1.39-2.12-1.4-1.34,0-2.58,1.22-2.14,2.45,.42,1.17,1.3,2.28,2.24,3.12,.45,.4,2.08-2.16,2.02-4.17Z"/>
          <path class="cls-21" d="M364.54,69.82c-.72-1.66,.02-3.34,1.97-4.06,1.51-.56,3.17,.16,4.5,1.94,1.45,1.93,1.82,4.15,1.58,6.47-.08,.76-.56,1.43-1.46,.75-2.22-1.68-4.4-3.4-6.6-5.11h0Z"/>
          <path class="cls-3" d="M367.21,92.9c-1.62-1.62-2.82-2.76-3.95-3.96-1.05-1.12-1.28-2.5-1.32-4.03-.04-1.45,.69-2.12,1.85-2.45,1.43-.41,2.62,.29,3.01,1.56,.79,2.64,1.25,5.37,.41,8.88Z"/>
          <path class="cls-22" d="M373.3,84.37c.06,2-1.57,4.57-2.02,4.17-.94-.84-1.81-1.95-2.24-3.12-.44-1.22,.8-2.45,2.14-2.45,1.39,0,2.09,.76,2.12,1.4Z"/>
        </g>
      </g>
    </g>
  </g>
</svg>