<?xml version="1.0" encoding="UTF-8"?>
<svg xmlns="http://www.w3.org/2000/svg" viewBox="0 0 1577.18 379.99">
  <defs>
    <style>
      .cls-1 {
        fill: #fff;
      }

      .cls-2 {
        fill: #13110e;
      }

      .cls-3 {
        fill: #12100e;
      }

      .cls-4 {
        fill: #14100e;
      }

      .cls-5 {
        fill: #14110e;
      }

      .cls-6 {
        fill: #14130f;
      }

      .cls-7 {
        fill: #07bff9;
        stroke: #1d1d1b;
        stroke-miterlimit: 10;
        stroke-width: 10px;
      }

      .cls-8 {
        fill: #12100d;
      }

      .cls-9 {
        fill: #141111;
      }

      .cls-10 {
        fill: #13110f;
      }

      .cls-11 {
        fill: #14150f;
      }

      .cls-12 {
        fill: #13120e;
      }

      .cls-13 {
        fill: #13100d;
      }

      .cls-14 {
        fill: #16110f;
      }

      .cls-15 {
        fill: #13100e;
      }

      .cls-16 {
        fill: #13100f;
      }
    </style>
  </defs>
  <g id="_лой_1" data-name="Слой 1"/>
  <g id="_лой_2" data-name="Слой 2">
    <g id="_лой_1-2" data-name="Слой 1">
      <rect class="cls-7" x="5" y="5" width="1567.18" height="369.99" rx="32.75" ry="32.75"/>
    </g>
    <g id="_лой_7" data-name="Слой 7">
      <g>
        <g>
          <path class="cls-1" d="M656.04,270.36c.31,4.27,.16,8.57-.88,12.69-1.7,6.75-6.49,10.96-12.72,13.57-3.08,1.29-6.22,2.22-9.78,1.52-2.36-.46-4.92,.17-7.39,.34-1.55,.11-2.91-.28-4.18-1.22-1.74-1.31-3.63-2.43-5.31-3.81-.97-.79-1.85-1.84-2.41-2.96-2.24-4.45-3.69-9.14-3.81-14.19-.11-4.86-.39-9.71-.47-14.56-.12-6.54,.64-13.01,1.59-19.48,1.23-8.45,1.83-16.96,1.24-25.49-.48-6.9-1.06-13.8-1.76-20.68-.64-6.38-1.58-12.73-2.22-19.11-.26-2.56-.08-5.16-.1-7.75-.04-4.67-1.07-8.98-4.16-12.68-3.78-4.52-8.24-7.06-14.32-5.5-2.38,.61-4.79,1.13-7.15,1.84-4.27,1.3-7.36,4.04-9.69,7.85-1.96,3.19-4.35,6.12-6.43,9.24-1.36,2.05-2.55,4.21-3.77,6.35-1.85,3.27-3.49,6.68-5.55,9.81-2.39,3.64-6.13,5.52-10.2,6.78-8.22,2.55-12.88,8.35-15.3,16.38-1.64,5.43-2.2,11.01-2.95,16.57-.77,5.77-1.52,11.54-2.26,17.31-.26,2.06-.52,4.12-.64,6.19-.44,7.41-.83,14.83-1.24,22.24-.2,3.66-.05,7.37-.69,10.95-.69,3.95-1.99,7.82-3.25,11.65-.57,1.73-1.97,2.76-3.92,3.27-3.8,.99-7.55,1.33-11.45,.73-4.1-.63-8.24-1.01-12.35-1.53-.78-.1-1.72-.09-2.27-.53-2.84-2.29-6.04-4.39-6.89-8.27-.67-3.07-1.43-6.21-1.46-9.32-.05-6.93,.05-13.89,.61-20.8,.5-6.18,1.62-12.31,2.61-18.45,1.23-7.66,2.02-15.39,1.26-23.08-.95-9.61-2.63-19.15-3.89-28.73-.59-4.51-.82-9.06-1.41-13.56-1.36-10.47-1.35-20.99-1.02-31.49,.15-5.01,.99-10.01,1.59-15.01,.58-4.8,1.16-9.6,1.93-14.37,.8-4.96,1.47-9.99,3.6-14.6,.9-1.94,2.23-3.72,3.57-5.4,2.24-2.83,5.61-3.03,8.89-1.13,4.07,2.35,7.48,5.61,10.46,9.21,2.11,2.56,3.16,5.67,3.34,9.04,.08,1.57,.54,3.14,.5,4.7-.09,3.46-.43,6.91-.58,10.37-.23,4.84-.68,9.71-.43,14.53,.14,2.66,1.23,5.4,2.41,7.85,1.49,3.08,4.25,3.65,7.26,1.98,2.63-1.46,4.05-3.98,5.6-6.41,1.96-3.09,3.98-6.14,6.15-9.08,2.55-3.46,5.97-5.83,10.26-6.54,4.2-.69,7.56-2.89,10.68-5.51,4.93-4.14,9.9-8.27,14.56-12.71,8.24-7.83,17.77-13.25,28.8-15.81,4.3-1,8.83-1.04,13.24-1.54,4.12-.47,8.04,.25,11.84,1.8,.92,.37,1.84,.75,2.78,1.04,2.26,.7,4.51,1.54,6.82,1.98,3,.58,5.36,2.06,7.18,4.4,6.43,8.3,10.83,17.44,11.53,28.09,.27,4.14,.53,8.29,.8,12.44l-.42,.03c.23,3.95,.58,7.9,.66,11.86,.06,2.56-.33,5.13-.39,7.69-.1,3.98-.05,7.96-.12,11.93-.19,9.92-.4,19.84-.64,29.76-.07,2.77-.51,5.54-.4,8.29,.16,4.14,.76,8.26,.97,12.4,.17,3.47,.04,6.96,.06,10.44,.02,4.15-.17,8.27,1.56,12.28,.79,1.82,.66,4.07,.81,6.14,.27,3.95,.43,7.9,.67,11.86,.12,1.97,.3,3.94,.44,5.91Z"/>
          <path class="cls-8" d="M662.38,280.39c.09,.48-.06,1.46-.25,1.7-2.24,11.28-9.48,17.99-19.98,21.61-1.92,.67-4.08,.93-6.13,.92-4.38-.01-8.75-.23-13.12-.54-1.34-.09-2.75-.52-3.94-1.14-9.24-4.87-13.87-12.89-14.81-22.99-1.2-12.89-1.27-25.81,.74-38.65,1.55-9.9,1.43-19.79,.26-29.7-1.08-9.18-2.22-18.34-3.14-27.53-.5-4.94-.6-9.92-.88-14.88-.2-3.71-1.43-6.95-4.23-9.54-1.58-1.45-3.36-2.1-5.46-1.75-1.27,.21-2.52,.57-3.78,.83-4.77,.99-8.2,3.49-10.41,8.01-1.46,2.99-3.74,5.59-5.59,8.4-.88,1.32-1.65,2.71-2.42,4.09-1.84,3.28-3.5,6.67-5.51,9.85-3.13,4.96-7.5,8.49-13.32,9.85-7.16,1.67-11.49,6.18-13.06,13.16-1.41,6.28-2.57,12.65-3.39,19.03-1.15,8.86-2.07,17.76-2.75,26.68-.56,7.32-.65,14.69-.9,22.03-.23,6.68-2.4,12.85-4.99,18.89-1.17,2.72-3.49,4.29-6.25,5.16-6.97,2.21-14.06,2.57-21.2,1.01-2.99-.65-5.97-1.53-8.81-2.67-2.22-.88-4.69-1.8-5.14-4.77-.05-.31-.51-.59-.81-.85-4.13-3.51-5.62-8.24-6.3-13.4-1.05-7.95-.61-15.86,.37-23.77,.75-6.11,1.34-12.24,2.06-18.36,1.16-9.98-.1-19.85-1.37-29.7-1.24-9.54-3.3-18.99-4.18-28.56-1.18-12.95-2.13-25.95-1.07-39,1.01-12.38,2.61-24.67,4.98-36.86,.66-3.39,1.77-6.71,2.89-9.98,1.24-3.64,3.45-6.68,6.32-9.26,3.95-3.54,8.39-4.28,13.29-2.45,1.12,.41,2.3,.85,3.19,1.59,4.03,3.37,8.21,6.62,11.88,10.36,4.16,4.23,4.64,9.93,4.97,15.55,.32,5.38-.34,10.7-.88,16.04-.38,3.84-.28,7.73-.22,11.59,.02,1.32,.57,2.62,1.04,4.63,1.35-2.38,2.34-4.09,3.29-5.82,2.74-4.98,5.66-9.79,10.29-13.35,2.89-2.22,5.98-3.92,9.6-4.51,2.43-.4,4.55-1.37,6.4-2.97,5.26-4.55,10.73-8.88,15.74-13.7,8.95-8.63,19.34-14.56,31.37-17.52,7.55-1.86,15.24-3.03,23.04-1.66,2.23,.39,4.39,1.19,6.57,1.83,3.42,1.01,6.81,2.15,10.25,3.05,4,1.04,7.37,3.03,9.89,6.27,6.18,7.95,10.76,16.68,12.44,26.7,.37,2.24,.32,4.56,.3,6.84-.12,10.34-.19,20.67-.5,31-.39,12.51-.95,25.02-1.54,37.52-.51,10.95-.16,21.87,.88,32.76,.87,9.08,2.17,18.12,3.18,27.19,.4,3.55,.54,7.13,.85,10.69,.05,.6,.11,1.62,.09,2.27,.55,3.41,.16,5.4,.16,8.78Zm-7.22,2.66c1.04-4.12,1.19-8.42,.88-12.69-.14-1.97-.32-3.94-.44-5.91-.24-3.96-.4-7.91-.67-11.86-.15-2.07-.02-4.32-.81-6.14-1.73-4.01-1.54-8.13-1.56-12.28-.02-3.48,.11-6.97-.06-10.44-.21-4.14-.81-8.26-.97-12.4-.11-2.75,.33-5.52,.4-8.29,.24-9.92,.45-19.84,.64-29.76,.07-3.97,.02-7.95,.12-11.93,.06-2.56,.45-5.13,.39-7.69-.08-3.96-.43-7.91-.66-11.86l.42-.03c-.27-4.15-.53-8.3-.8-12.44-.7-10.65-5.1-19.79-11.53-28.09-1.82-2.34-4.18-3.82-7.18-4.4-2.31-.44-4.56-1.28-6.82-1.98-.94-.29-1.86-.67-2.78-1.04-3.8-1.55-7.72-2.27-11.84-1.8-4.41,.5-8.94,.54-13.24,1.54-11.03,2.56-20.56,7.98-28.8,15.81-4.66,4.44-9.63,8.57-14.56,12.71-3.12,2.62-6.48,4.82-10.68,5.51-4.29,.71-7.71,3.08-10.26,6.54-2.17,2.94-4.19,5.99-6.15,9.08-1.55,2.43-2.97,4.95-5.6,6.41-3.01,1.67-5.77,1.1-7.26-1.98-1.18-2.45-2.27-5.19-2.41-7.85-.25-4.82,.2-9.69,.43-14.53,.15-3.46,.49-6.91,.58-10.37,.04-1.56-.42-3.13-.5-4.7-.18-3.37-1.23-6.48-3.34-9.04-2.98-3.6-6.39-6.86-10.46-9.21-3.28-1.9-6.65-1.7-8.89,1.13-1.34,1.68-2.67,3.46-3.57,5.4-2.13,4.61-2.8,9.64-3.6,14.6-.77,4.77-1.35,9.57-1.93,14.37-.6,5-1.44,10-1.59,15.01-.33,10.5-.34,21.02,1.02,31.49,.59,4.5,.82,9.05,1.41,13.56,1.26,9.58,2.94,19.12,3.89,28.73,.76,7.69-.03,15.42-1.26,23.08-.99,6.14-2.11,12.27-2.61,18.45-.56,6.91-.66,13.87-.61,20.8,.03,3.11,.79,6.25,1.46,9.32,.85,3.88,4.05,5.98,6.89,8.27,.55,.44,1.49,.43,2.27,.53,4.11,.52,8.25,.9,12.35,1.53,3.9,.6,7.65,.26,11.45-.73,1.95-.51,3.35-1.54,3.92-3.27,1.26-3.83,2.56-7.7,3.25-11.65,.64-3.58,.49-7.29,.69-10.95,.41-7.41,.8-14.83,1.24-22.24,.12-2.07,.38-4.13,.64-6.19,.74-5.77,1.49-11.54,2.26-17.31,.75-5.56,1.31-11.14,2.95-16.57,2.42-8.03,7.08-13.83,15.3-16.38,4.07-1.26,7.81-3.14,10.2-6.78,2.06-3.13,3.7-6.54,5.55-9.81,1.22-2.14,2.41-4.3,3.77-6.35,2.08-3.12,4.47-6.05,6.43-9.24,2.33-3.81,5.42-6.55,9.69-7.85,2.36-.71,4.77-1.23,7.15-1.84,6.08-1.56,10.54,.98,14.32,5.5,3.09,3.7,4.12,8.01,4.16,12.68,.02,2.59-.16,5.19,.1,7.75,.64,6.38,1.58,12.73,2.22,19.11,.7,6.88,1.28,13.78,1.76,20.68,.59,8.53-.01,17.04-1.24,25.49-.95,6.47-1.71,12.94-1.59,19.48,.08,4.85,.36,9.7,.47,14.56,.12,5.05,1.57,9.74,3.81,14.19,.56,1.12,1.44,2.17,2.41,2.96,1.68,1.38,3.57,2.5,5.31,3.81,1.27,.94,2.63,1.33,4.18,1.22,2.47-.17,5.03-.8,7.39-.34,3.56,.7,6.7-.23,9.78-1.52,6.23-2.61,11.02-6.82,12.72-13.57Z"/>
        </g>
        <path class="cls-1" d="M653.09,153.66c.06,2.56-.34,5.13-.4,7.7-.1,3.97-.04,7.95-.12,11.93-.19,9.92-.39,19.84-.64,29.76-.07,2.77-.51,5.54-.4,8.29,.16,4.14,.76,8.26,.97,12.4,.17,3.47,.05,6.96,.06,10.44,.02,4.15-.17,8.27,1.56,12.28,.79,1.82,.66,4.07,.81,6.14,.28,3.95,.44,7.91,.67,11.86,.12,1.97,.3,3.94,.44,5.91,.31,4.27,.15,8.57-.88,12.69-1.7,6.75-6.49,10.97-12.72,13.58-3.08,1.29-6.22,2.21-9.78,1.52-2.35-.46-4.92,.17-7.39,.34-1.55,.11-2.91-.27-4.18-1.22-1.74-1.31-3.63-2.42-5.31-3.8-.97-.8-1.85-1.84-2.41-2.96-2.23-4.46-3.68-9.15-3.8-14.2-.12-4.85-.39-9.7-.48-14.56-.11-6.54,.65-13.01,1.59-19.48,1.23-8.44,1.84-16.95,1.24-25.49-.48-6.9-1.06-13.8-1.76-20.68-.64-6.38-1.58-12.73-2.22-19.11-.26-2.56-.08-5.17-.1-7.75-.04-4.67-1.07-8.99-4.16-12.69-3.77-4.52-8.24-7.05-14.32-5.5-2.38,.61-4.79,1.13-7.14,1.84-4.27,1.3-7.36,4.04-9.7,7.85-1.96,3.19-4.35,6.12-6.43,9.24-1.36,2.04-2.55,4.21-3.77,6.35-1.86,3.27-3.5,6.68-5.55,9.81-2.39,3.63-6.13,5.51-10.2,6.78-8.22,2.55-12.88,8.35-15.3,16.38-1.64,5.43-2.2,11.01-2.95,16.58-.77,5.77-1.53,11.53-2.26,17.31-.26,2.06-.52,4.12-.64,6.19-.44,7.41-.83,14.83-1.24,22.24-.2,3.65-.06,7.37-.69,10.95-.7,3.95-2,7.82-3.26,11.64-.57,1.73-1.97,2.77-3.91,3.27-3.8,.99-7.55,1.33-11.45,.73-4.1-.63-8.24-1.01-12.35-1.53-.77-.1-1.72-.09-2.26-.53-2.84-2.29-6.04-4.39-6.89-8.27-.67-3.07-1.43-6.21-1.46-9.32-.06-6.93,.05-13.89,.61-20.8,.5-6.18,1.62-12.32,2.61-18.45,1.23-7.66,2.02-15.39,1.26-23.09-.95-9.61-2.63-19.15-3.89-28.73-.59-4.5-.82-9.06-1.41-13.56-1.36-10.47-1.35-20.98-1.03-31.49,.16-5.01,.99-10.01,1.59-15.01,.58-4.8,1.16-9.6,1.93-14.38,.8-4.96,1.47-9.99,3.6-14.6,.9-1.94,2.23-3.72,3.57-5.4,2.24-2.82,5.61-3.02,8.89-1.13,4.07,2.35,7.48,5.61,10.46,9.22,2.12,2.56,3.16,5.66,3.34,9.03,.08,1.57,.54,3.14,.5,4.7-.09,3.46-.43,6.91-.58,10.37-.22,4.85-.68,9.71-.43,14.53,.14,2.66,1.23,5.4,2.41,7.84,1.49,3.08,4.25,3.65,7.26,1.98,2.64-1.47,4.05-3.98,5.6-6.41,1.96-3.08,3.99-6.14,6.15-9.08,2.55-3.46,5.97-5.83,10.25-6.54,4.2-.69,7.56-2.89,10.68-5.51,4.93-4.14,9.9-8.27,14.56-12.71,8.23-7.83,17.77-13.26,28.8-15.81,4.3-1,8.82-1.03,13.24-1.54,4.11-.47,8.04,.25,11.84,1.8,.92,.37,1.84,.75,2.78,1.04,2.26,.7,4.51,1.53,6.82,1.98,3,.58,5.36,2.05,7.18,4.4,6.43,8.29,10.83,17.44,11.53,28.09,.27,4.15,.53,8.3,.8,12.44m-9.87,59.9c.79-1.61,1.62-2.68,1.82-3.86,.55-3.28,1.09-6.6,1.17-9.91,.09-3.83-.2-7.69-.58-11.51-.2-2.01-.52-4.1-2.15-5.67-2.28-2.21-6-1.44-6.82,1.6-.42,1.55-.45,3.3-.27,4.91,.37,3.3,1.02,6.58,1.54,9.86,.68,4.28,1.79,8.43,3.59,12.38,.28,.6,.82,1.08,1.69,2.2Zm-2.35,75.55c0-.89,.07-1.79-.02-2.67-.13-1.27-.23-2.56-.6-3.77-.37-1.2-.91-2.42-1.66-3.43-1.59-2.14-5.94-2.88-7.26,1.19-.33,1.01-.57,2.1-.59,3.16-.05,3.27-.12,6.55,.09,9.8,.14,2.23,.66,4.45,1.16,6.64,.36,1.58,1.56,2.1,3.15,2.07,1.77-.03,2.65-1.17,3.41-2.46,1.9-3.25,2.08-6.9,2.32-10.53Zm-49.15-168.4c.21-.05,.85-.06,1.34-.33,3.27-1.81,6.91-2.1,10.49-2.77,2.59-.48,5.15-1.35,7.56-2.41,1.11-.49,2.98-.93,2.83-2.64-.15-1.69-1.82-2.17-3.24-2.62-5.42-1.7-10.91-1.52-16.36-.25-3.05,.71-5.25,2.67-6.32,5.71-.94,2.69,.72,5.32,3.69,5.3Zm-95.76,23.74c.95-1.48,1.76-2.38,2.15-3.44,.65-1.73,1.15-3.54,1.49-5.36,.61-3.27,1.18-6.55,1.51-9.86,.21-2.08-1.15-3.67-2.8-3.9-1.72-.24-3.19,.77-3.78,2.97-.43,1.59-.32,3.33-.72,4.93-.94,3.76-.44,7.43,.43,11.08,.26,1.07,.96,2.04,1.71,3.57Zm78.6-12.29c-.53-.34-.83-.67-1.01-.62-4.93,1.45-9.6,3.48-13.7,6.63-1.58,1.21-1.84,2.86-.93,4.14,.91,1.28,2.97,1.65,4.52,.55,4.19-2.97,8.2-6.16,11.12-10.7Zm-78.71,171.67c-.46-4.95-2.07-9.26-3.98-13.45-.24-.52-1.64-.93-2.31-.74-.81,.24-1.68,1.05-2.03,1.84-.32,.72-.22,1.84,.12,2.59,1.14,2.51,2.34,5.01,3.76,7.36,.81,1.34,2.14,2.32,4.43,2.39Zm3.97-12.55c-2.82-.01-4.22,1.92-3.03,4.33,1.08,2.18,2.53,4.19,3.91,6.21,.3,.45,.91,.83,1.45,.96,.8,.19,1.91,.48,2.43,.1,.53-.38,.85-1.63,.65-2.32-.77-2.61-1.8-5.15-2.73-7.72-.49-1.37-1.56-1.66-2.67-1.56Zm-11.43-146.9l.55-.04c.28-.8,.68-1.58,.81-2.41,.66-4.28,1.24-8.57,1.85-12.85,.21-1.46,.51-2.92,.56-4.39,.02-.53-.57-1.52-.9-1.52-.79-.02-1.87,.19-2.32,.73-.58,.7-.85,1.8-.91,2.76-.27,4.24-.53,8.48-.56,12.73-.01,1.67,.6,3.34,.93,5Zm157.09,150.52c1.39-.5,2.38-1.36,2.64-2.83,.43-2.4,.85-4.81,1.1-7.24,.17-1.66,.03-3.35,.05-5.03,.01-1.33-.49-2.45-1.82-2.69-1.42-.26-2.12,.8-2.39,2.07-.2,.95-.45,1.93-.43,2.89,.03,1.46,.31,2.92,.4,4.39,.18,2.77,.3,5.54,.45,8.45Zm-5.97-171.47c.27-1.64-.72-2.74-2.17-2.72-1.41,.02-3.04,1.66-2.84,3.25,.33,2.61,1.62,4.84,3.55,6.62,.57,.53,1.44,.04,1.45-.76,.02-2.13,0-4.26,0-6.39Zm-151.44,58.1c0-.3,0-.59,0-.89,0-1.23,0-2.49-1.63-2.66-1.57-.16-1.89,1.01-2.25,2.21-.86,2.92,.28,5.6,.86,8.36,.06,.29,.57,.76,.7,.71,.39-.15,.9-.47,.98-.81"/>
        <path class="cls-4" d="M495.6,291.94c-2.29-.07-3.62-1.05-4.43-2.39-1.42-2.35-2.63-4.85-3.76-7.36-.34-.75-.44-1.87-.12-2.59,.35-.79,1.22-1.6,2.03-1.84,.67-.19,2.07,.22,2.31,.74,1.91,4.19,3.52,8.49,3.98,13.45Z"/>
        <path class="cls-1" d="M499.56,279.39c1.12-.11,2.18,.19,2.67,1.56,.92,2.57,1.95,5.11,2.73,7.72,.2,.69-.12,1.94-.65,2.32-.52,.38-1.63,.1-2.43-.1-.54-.13-1.14-.51-1.45-.96-1.37-2.03-2.83-4.03-3.91-6.21-1.19-2.41,.21-4.34,3.03-4.33Z"/>
        <path class="cls-13" d="M488.14,132.49c-.33-1.67-.94-3.34-.93-5,.03-4.24,.29-8.49,.56-12.73,.06-.95,.33-2.05,.91-2.76,.45-.54,1.53-.75,2.32-.73,.33,0,.91,1,.9,1.52-.05,1.47-.35,2.93-.56,4.39-.61,4.29-1.19,8.57-1.85,12.85-.13,.82-.53,1.61-.81,2.41l-.55,.04Z"/>
        <path class="cls-15" d="M645.22,283.01c-.15-2.91-.27-5.68-.45-8.45-.09-1.47-.37-2.92-.4-4.39-.02-.96,.22-1.94,.43-2.89,.27-1.27,.97-2.32,2.39-2.07,1.32,.24,1.83,1.36,1.82,2.69-.02,1.68,.12,3.37-.05,5.03-.25,2.43-.67,4.84-1.1,7.24-.26,1.47-1.26,2.33-2.64,2.83Z"/>
        <path class="cls-5" d="M639.25,111.55c0,2.13,.02,4.26,0,6.39,0,.8-.88,1.29-1.45,.76-1.94-1.79-3.22-4.01-3.55-6.62-.2-1.58,1.43-3.23,2.84-3.25,1.45-.02,2.44,1.08,2.17,2.72Z"/>
        <path class="cls-14" d="M486.48,176.55c-.09,.35-.6,.66-.98,.81-.13,.05-.64-.42-.7-.71-.58-2.75-1.72-5.44-.86-8.36,.36-1.2,.68-2.37,2.25-2.21,1.64,.17,1.64,1.44,1.63,2.66,0,.3,0,.59,0,.89"/>
      </g>
      <g>
        <path class="cls-1" d="M444.03,174.32c-1.11-1.76-2.01-3.65-2.94-5.52-1.44,.43-3.3-.03-4.04-1.76-3.08-7.22-4.13-14.9-3.15-22.67,.73-5.79,1.71-11.6,1.39-17.37-2.84-7.41-6.56-14.33-14.12-18.19-5.91-3.02-12.04-5.66-18.17-8.25-2.56-1.08-4.56-2.48-5.83-4.96-2.54-4.95-6.93-7.48-12.27-8.59-3.74-.77-7.49-1.66-11.28-2.05-5.65-.57-11.34-1.04-17.01-1-4.69,.04-9.36,.94-14.06,1.35-10.96,.96-21.32,3.43-29.85,10.86-1,.87-2.28,1.65-3.56,1.96-5.67,1.36-9.94,4.6-13.94,8.65-4.62,4.66-7.94,9.86-8.86,16.28-1.43,9.94-4.86,19.04-11.06,27.07-2.02,2.61-4.23,5.07-6.31,7.64-4.67,5.75-9.26,11.49-9.64,19.38-.18,3.81-1.01,7.59-1.61,11.37-.57,3.61-1.41,7.08-2.02,10.93,.99,.38,1.81,1.23,1.93,2.53,.43,4.79,.49,9.66,.76,14.5,.1,.14,.2,.29,.28,.47,3.56,7.31,5.69,14.81,5.16,22.97-.03,.52-.21,.99-.47,1.39,.31,1.38,.59,2.77,.82,4.16,.65,3.96,1.82,7.55,3.55,10.84,1.1-.23,2.33,.08,3.14,1.22,3.11,4.37,7.23,7.97,10.44,12.3,3.36,4.53,8.12,7.18,13.04,9.89,4.44,2.45,9.06,4.72,13.82,6.5,3.84,1.44,7.92,2.27,10.72,5.47,3.26,3.72,5.41,7.77,10.64,9.07,4.39,1.1,9.12,.44,13.61,.71,4.11,.25,8.64,.91,12.67-.17,3.96-1.06,7.41-3.54,11.37-4.7,3.46-1.01,7.05-1.13,10.63-1.23,.27-1.09,1.18-2.04,2.75-2.16,5.35-.4,10.37-3.02,15.81-2.21,2.61,.39,5.11,1.4,7.75,1.6,2.66,.21,5.4-.15,7.99-.74,2.41-.55,4.72-1.37,7.06-2.12,2.18-.69,4.58-1.15,6.51-2.44,3.5-2.33,4.69-6.83,7.97-9.48,.01-.01,.03-.02,.04-.03-.1-1.36,.05-2.74,.36-4.12-.17-.94,.04-1.97,.75-2.72,.79-2.45,1.8-4.87,2.35-7.12,.09-.37,.19-.72,.3-1.08,.09-1.26,.15-2.52,.3-3.78,.17-1.49,1.15-2.38,2.27-2.68,.3-.7,.6-1.41,.88-2.13,1.26-3.23,2.06-6.58,2.56-10,1.03-6.99,3.96-13.4,5.87-20.17,2.04-7.27,2.44-14.94,2.47-22.44,0-1.05,.47-1.8,1.15-2.26-1.28-8.67-3.97-17.05-8.95-24.99Zm-64.13,36.09c-.24,.74-.58,1.36-1.01,1.89-.35,1.7-1.25,3.25-2.5,4.67-5.41,6.15-11.81,10.55-20.48,10.24-2.23-.08-4.67-.85-6.56-2.02-2.89-1.8-6.43-2.74-8.44-5.84-.69-.42-1.37-.95-2.03-1.61-2.72-2.7-4.32-6.13-4.08-9.93,.32-5.14,1.61-10.21,.65-15.37-.2-1.07,.15-1.95,.75-2.58-1.01-.36-1.81-1.23-1.79-2.6,.05-4.28,2.55-9.36,5.31-12.63,2.81-3.33,6.93-4.6,11.06-5.57,7.83-1.83,18.01-2.81,23.86,3.82,2.23,2.53-.93,6.12-3.4,4.73,0,.04,0,.07,0,.11,.09,3.03,.45,5.97,1.07,8.85,.8,.06,1.56,.51,2.01,1.5,1.84,4.03,2.39,8.28,3.61,12.49,.9,3.09,3.01,6.52,1.96,9.83Z"/>
        <path d="M255.52,203.5c.17-6.41,1.24-12.35,2.76-18.24,.61-2.39,.88-4.91,.96-7.38,.13-4.22,.81-8.26,3.27-11.8,2.26-3.25,4.65-6.42,7.05-9.58,2.58-3.39,5.36-6.64,7.82-10.11,4.5-6.34,7.22-13.4,8.28-21.06,1.08-7.81,4.45-14.31,10.37-19.84,3.74-3.5,7.63-6.18,12.58-7.56,1.55-.43,3.07-1.35,4.31-2.38,7.31-6.07,15.86-9.05,25.27-10.02,6.44-.67,12.86-1.6,19.32-2.04,3.5-.24,7.07,.08,10.56,.53,5.54,.71,11.06,1.65,16.55,2.67,5.48,1.02,9.9,3.66,12.48,8.7,1.22,2.38,3.16,3.71,5.63,4.76,6.21,2.64,12.37,5.4,18.42,8.38,2.14,1.05,4.18,2.62,5.78,4.37,5.42,5.94,8.82,12.87,10.04,20.82,.48,3.13,.05,6.12-.5,9.16-.35,1.98-.63,3.99-.88,5.99-.64,5.03,.44,9.76,2.76,14.24,2.13,4.12,4.09,8.34,6.5,12.29,5.1,8.37,7.38,17.52,8.5,27.07,.98,8.38,.69,16.73-.71,25.01-.66,3.85-1.9,7.65-3.25,11.35-3.95,10.85-8.95,21.35-11.27,32.74-.76,3.72-2.38,7.1-4.17,10.43-3.4,6.3-8.61,10.28-15.54,12.39-7.71,2.35-15.41,2.69-23.24,.75-1.9-.47-3.86-.67-5.78-1.07-3.6-.74-6.99-.04-10.39,1.13-7.12,2.46-14.21,5.07-21.46,7.08-4.69,1.3-9.62,1.93-14.49,2.32-6.58,.52-12.89-1.07-18.86-3.74-3.26-1.46-5.95-3.68-8.08-6.56-.72-.98-1.69-1.92-2.76-2.49-3.61-1.93-7.18-4.07-11.02-5.42-7.44-2.61-13.61-6.71-18.53-12.77-1.82-2.24-4.13-4.11-6.19-6.16-2-1.99-4.02-3.96-5.95-6-4.15-4.37-6.32-9.61-7.26-15.48-.81-5.02-1.84-10.02-3.04-14.96-.79-3.26-2.08-6.41-3.09-9.62-1.87-5.93-2.29-12.08-2.7-17.9Zm191.82,5.8c-.17-2.47-.28-6.04-.7-9.57-.85-7.2-2.4-14.19-6.25-20.57-2.5-4.13-4.73-8.43-6.83-12.78-3.12-6.46-4.8-13.18-3.56-20.43,.5-2.92,.8-5.97,.52-8.9-.66-7.07-3.5-13.39-8.16-18.83-1.24-1.44-2.79-2.81-4.49-3.64-5.97-2.92-11.99-5.77-18.15-8.29-3.8-1.56-6.84-3.67-8.78-7.26-1.78-3.3-4.73-5.15-8.36-5.82-6.75-1.24-13.53-2.35-20.32-3.39-1.73-.26-3.54-.17-5.3-.01-5.57,.49-11.13,1.17-16.7,1.61-8.52,.68-16.38,3.02-23.13,8.36-2.48,1.96-5.22,3.4-8.39,4.02-1.59,.31-2.88,1.08-3.9,2.38-2.26,2.91-4.6,5.76-6.9,8.64-2.09,2.63-3.39,5.59-4.07,8.86-.92,4.42-1.65,8.92-3.06,13.2-3.16,9.55-8.43,17.98-15.42,25.34-4.34,4.56-8.04,9.44-9.34,15.74-.39,1.88-1.1,3.69-1.7,5.52-4.17,12.56-4.14,25.13-.21,37.75,1.55,4.96,3.07,9.94,4.34,14.97,1.01,4.01,1.49,8.14,2.47,12.15,.42,1.73,1.31,3.42,2.32,4.91,2.36,3.45,5.28,6.42,8.54,9.12,2.46,2.04,5.03,4.12,6.91,6.64,4.14,5.57,9.42,9.45,15.92,11.9,4.82,1.82,9,4.67,13.08,7.71,1.62,1.21,3.4,2.32,5.28,3.09,5.86,2.39,11.99,3.6,18.35,3.74,11.27,.26,22.03-2.22,32.61-5.68,2.14-.7,4.25-1.52,6.44-2.04,5.2-1.22,10.37-.64,15.43,.78,7.33,2.06,14.54,1.73,21.71-.7,3.44-1.16,6.54-2.91,8.57-5.84,2.64-3.81,5.01-7.79,5.92-12.47,1.15-5.87,3.13-11.48,5.48-17.02,2.48-5.85,4.64-11.85,6.67-17.87,2.64-7.86,2.76-16.08,3.16-25.34Z"/>
        <path d="M367.26,164.77c5.6,.74,9.99,5.33,10.53,10.87,.18,1.82,.35,3.65,.35,5.47,0,3.84,.94,7.39,2.82,10.77,2.47,4.42,3.99,9.14,4.75,14.16,.85,5.67-.14,10.73-4.1,15.05-6.91,7.54-15.18,12.58-25.87,12.35-7.07-.15-12.62-3.19-15.78-9.7-.28-.58-.84-1.04-1.23-1.58-1.42-1.96-2.93-3.85-4.2-5.9-2.23-3.59-2.8-7.49-2.07-11.66,.31-1.76,.2-3.63,.03-5.43-.4-4.2-1.31-8.39-1.39-12.59-.2-11.39,7.7-20.28,19.15-21.98,.87-.13,1.75-.33,2.62-.36,1.67-.06,3.34-.02,5.01-.02m-4.39,5.81c-9.38,.15-16.98,7.59-16.93,16.8,.02,3.35,.61,6.68,.79,10.03,.15,2.77,.43,5.61-.03,8.31-.49,2.89-.38,5.53,.92,8.12,1.12,2.24,2.28,4.46,3.52,6.64,.35,.62,.97,1.19,1.61,1.56,2.18,1.28,4.37,2.56,6.66,3.63,1.47,.68,3.1,1.31,4.69,1.42,9.16,.62,15.89-3.82,21.61-10.25,2.39-2.68,2.87-5.76,2.4-9.16-.65-4.7-1.85-9.21-4.12-13.44-1.9-3.53-2.93-7.31-2.98-11.33-.02-1.63-.25-3.26-.41-4.88-.39-4-2.27-6.17-6.3-6.84-2.69-.45-5.45-.57-8.17-.84"/>
        <path d="M342.99,101.94c-.5,.32-1.01,.61-1.48,.96-4.59,3.3-9.29,6.41-14.75,8.19-1.18,.39-2.47,.58-3.72,.64-1.4,.07-2.43-.67-2.89-2.01-.46-1.36,.04-2.49,1.1-3.33,.67-.52,1.49-.98,2.31-1.19,5.95-1.53,11.91-3.01,17.88-4.45,.35-.09,.83,.29,1.24,.46l.3,.73Z"/>
        <path d="M308.6,125.91c0,1.03,.18,1.82-.03,2.51-1.44,4.78-2.95,9.55-4.46,14.31-.2,.64-.46,1.28-.84,1.83-.77,1.12-1.85,1.7-3.28,1.4-1.37-.29-2.38-1.38-2.45-2.88-.03-.84,.11-1.74,.43-2.52,2.08-5.15,5.05-9.77,9.01-13.73,.36-.36,.92-.53,1.61-.92Z"/>
        <path d="M441.31,219.71c-.74,2.61-1.24,5.32-2.29,7.8-1.64,3.88-3.65,7.62-5.51,11.41-.13,.26-.3,.49-.47,.73-1.38,1.91-3.04,2.58-4.41,1.8-1.29-.73-1.43-2.53-.08-4.63,3.6-5.59,7.3-11.13,10.98-16.67,.23-.35,.67-.57,1.01-.84l.77,.4Z"/>
        <path d="M329.73,113.2c-.21,.72-.26,1.18-.46,1.58-1.71,3.43-3.43,6.86-5.18,10.27-.3,.59-.63,1.35-1.16,1.59-.81,.37-1.84,.59-2.72,.47-1.06-.15-1.6-1.12-1.55-2.16,.04-.93,.13-1.95,.53-2.77,1.93-3.92,5.03-6.76,8.93-8.79,.37-.19,.88-.12,1.61-.2Z"/>
        <path d="M307.65,274.89c-.96,0-1.67,.15-2.28-.02-3.91-1.1-7.01-3.34-9.25-6.67-.37-.55-.67-1.19-.86-1.82-.41-1.39,.14-2.71,1.28-3.19,1.3-.55,2.31,0,3.07,1.01,.76,1,1.35,2.12,2.11,3.12,1.86,2.43,3.77,4.82,5.93,7.57Z"/>
        <path d="M414.99,275.21c-.82,.73-1.53,1.71-2.49,2.14-3.2,1.42-6.47,2.68-9.75,3.92-.7,.27-1.55,.24-2.33,.24-1.06,0-1.95-.34-2.17-1.51-.2-1.06,.2-1.94,1.16-2.43,.77-.39,1.63-.68,2.49-.82,3.47-.6,6.95-1.11,10.42-1.68,.73-.12,1.45-.34,2.17-.51l.5,.64Z"/>
        <path d="M274.78,212.05c-.74-.93-1.26-1.35-1.45-1.88-1.38-3.72-1.7-7.62-1.79-11.53-.01-.62,.21-1.43,.63-1.84,.57-.55,1.48-1.12,2.18-1.06,.7,.06,1.44,.81,1.95,1.43,.32,.39,.37,1.11,.3,1.65-.55,4.21-1.15,8.42-1.83,13.24Z"/>
        <path d="M283.89,241.32c-.8-.25-1.3-.27-1.62-.52-2.98-2.32-5-5.32-6.35-8.78-.1-.27-.19-.54-.23-.83-.24-1.59,.44-2.79,1.8-3.18,1.22-.35,2.33,.23,3.05,1.61,.22,.42,.37,.88,.5,1.34,.92,3.28,1.82,6.57,2.86,10.36Z"/>
      </g>
      <g>
        <path d="M160.48,304.42c-9.14-.07-17.52-3.37-25.99-6.17-8.57-2.83-16.98-6.14-25.51-9.09-6.34-2.2-11.82-5.47-15.79-11.03-2.09-2.93-3.63-6.12-4.64-9.53-1.09-3.68-3.11-6.69-5.6-9.59-3.63-4.22-6.97-8.68-10.28-13.16-1.3-1.76-2.29-3.78-3.22-5.77-.6-1.28-1.26-2.77-1.15-4.1,.25-2.97-1-5.37-2.16-7.89-2.31-5.01-3.63-10.32-4.19-15.78-.57-5.55,.58-10.88,2.52-16.06,.54-1.44,1.1-2.88,1.79-4.24,6.38-12.56,9.59-26.09,11.75-39.85,1.84-11.71,5.14-22.81,11.61-32.83,5.74-8.89,12.69-16.6,21.79-22.26,6.19-3.85,12.87-5.93,20.16-6.1,5.09-.11,10.21,.1,15.26-.39,5.53-.54,11.01-1.71,16.5-2.61,7.27-1.19,14.53-1.41,21.81-.08,.57,.1,1.14,.18,1.71,.23,3.97,.33,7.51,1.72,10.36,4.51,3.24,3.17,7.03,5.2,11.34,6.58,5.16,1.66,9.77,4.38,13.94,7.93,5.51,4.69,10.41,9.91,15.03,15.48,5.51,6.65,6.76,14.02,4.96,22.14-.56,2.51-1.25,5.08-2.41,7.35-3.63,7.11-9.63,11.06-17.52,12.06-6.55,.83-12.68-.24-17.86-4.69-5.25-4.51-11.51-6.86-18.07-8.56-8.1-2.1-16.11-4.44-23.74-7.95-6.09-2.8-11.66-1.39-15.94,3.87-.97,1.19-1.75,2.52-2.61,3.8-1.92,2.87-3.76,5.8-5.77,8.61-1.81,2.53-3.24,5.23-3.99,8.24-1.31,5.26-3.81,9.81-7.77,13.54-3.37,3.17-5.09,7.2-5.85,11.63-.8,4.62-1.44,9.28-1.94,13.95-.36,3.36,.12,6.69,1,9.97,1.67,6.24,4.2,12.12,6.98,17.93,4.1,8.6,9.5,11.4,20.24,10.61,3.9-.29,7.76-1.3,11.63-1.98,4.35-.76,8.68-1.67,13.06-2.24,4.07-.54,7.53-2.18,10.56-4.85,3.1-2.73,6.08-5.61,9.31-8.18,2.47-1.96,5.11-3.78,7.91-5.21,4.53-2.3,9.17-4.43,13.91-6.25,3.69-1.42,7.62-1.81,11.64-1.12,4.93,.84,8.93,3.19,11.56,7.35,2.82,4.45,5.55,9.01,7.75,13.79,3.77,8.21,4.18,16.62,.36,25.06-3.21,7.07-6.92,13.78-13.4,18.4-3.03,2.16-6.33,3.99-9.66,5.68-4.71,2.38-9.74,4.17-14.3,6.78-8.15,4.66-16.95,7.13-26.04,8.93-3.11,.62-6.2,1.34-9.29,2.07-3.86,.9-7.77,1.31-11.72,1.09Z"/>
        <path class="cls-1" d="M138.62,96.88c-2.11,0-4.23,0-6.34,0-6.42,.03-12.32,1.84-17.71,5.31-14.38,9.25-23.62,22.35-28.34,38.58-1.82,6.24-2.78,12.73-4.06,19.12-2.34,11.7-5.47,23.13-10.79,33.88-1.19,2.4-2.1,4.95-2.91,7.5-.96,3.02-1.59,6.13-1.16,9.35,.64,4.76,1.57,9.45,3.2,13.99,1.32,3.7,2.56,7.43,3.87,11.13,.31,.89,.67,1.78,1.18,2.57,4.05,6.31,8.26,12.49,13.4,18,2.46,2.64,4.08,5.74,5.27,9.15,.95,2.69,2.11,5.37,3.58,7.81,3.18,5.28,8.28,8.07,13.93,10.12,7.4,2.7,14.72,5.6,22.08,8.38,1.8,.68,3.62,1.28,5.46,1.85,3.21,.99,6.46,1.86,9.66,2.9,4.9,1.58,9.93,2.26,15.04,2.34,2.09,.03,4.23-.2,6.28-.61,6.68-1.35,13.33-2.9,20.01-4.26,3.33-.68,6.47-1.79,9.48-3.33,7.28-3.7,14.54-7.42,22.27-10.15,3.02-1.07,5.57-2.94,8.04-4.98,3.84-3.18,5.85-7.54,8.15-11.74,4.86-8.9,4.48-17.86,.09-26.74-1.61-3.26-3.63-6.32-5.57-9.41-3.02-4.82-7.52-6.84-13.06-5.96-9.43,1.49-17.64,5.8-25.05,11.65-3.01,2.38-5.8,5.05-8.78,7.48-3.64,2.97-7.74,4.87-12.51,5.41-4.57,.52-9.11,1.36-13.66,2.09-4.17,.68-8.31,1.66-12.51,2.08-10.76,1.07-19.12-2.36-24.13-11.86-3.28-6.22-6.44-12.47-8.16-19.28-.88-3.5-1.47-7.17-1.52-10.77-.05-4,.6-8.02,1.05-12.01,.91-8.1,3.4-15.51,9.47-21.37,2.46-2.38,3.92-5.41,4.97-8.66,.62-1.91,1.1-3.96,2.17-5.62,4.09-6.37,7.97-12.94,12.73-18.8,5.57-6.86,13.31-8.76,21.74-4.32,6.17,3.25,12.78,5.24,19.48,7.01,8.32,2.2,16.32,4.93,23.01,10.75,4.38,3.81,9.77,4.71,15.47,3.43,6.37-1.43,10.72-5.15,12.33-11.52,.82-3.23,1.28-6.6,1.43-9.92,.17-3.72-.92-7.2-3.46-10.11-1.64-1.88-3.12-3.91-4.84-5.72-6.53-6.86-13.48-13.2-22.67-16.38-5-1.73-9.44-4.25-13.13-8.06-1.5-1.55-3.36-2.58-5.51-2.95-7.53-1.3-15.07-1.67-22.67-.48-8.72,1.36-17.31,3.89-26.29,3.14Z"/>
        <path d="M225.4,132.04c-.03,.37-.06,1.33-.19,2.27-.03,.22-.35,.55-.54,.55-.32,0-.86-.15-.93-.36-1.44-4.27-4.6-7.48-6.93-11.2-.25-.4-.61-.89-.57-1.29,.1-.89,.2-1.92,.7-2.6,.7-.94,1.87-.9,2.88-.34,.57,.32,1.16,.74,1.54,1.26,2.42,3.31,4.2,6.86,4.03,11.7Z"/>
        <path d="M103.52,208.1c-.42-1.7-.99-3.23-1.12-4.79-.21-2.38-.15-4.78-.11-7.17,.01-.62,.24-1.46,.68-1.8,.61-.47,1.54-.84,2.28-.75,.59,.07,1.52,.84,1.57,1.36,.39,4.42,.22,8.78-2.25,12.71-.08,.13-.33,.15-1.05,.45Z"/>
        <path d="M206.78,112.1c-.41,.12-.62,.25-.76,.21-3.35-1.12-6.69-2.25-10.03-3.4-.36-.12-.85-.25-.99-.52-.38-.72-.93-1.58-.79-2.26,.14-.67,.97-1.28,1.62-1.75,.33-.23,.93-.13,1.41-.1,3.83,.22,8.21,3.77,9.54,7.82Z"/>
        <path d="M226.09,240.03c-2.41-2.18-4.39-3.96-6.36-5.76-.21-.19-.4-.42-.56-.65-.97-1.39-.98-2.69-.05-3.67,.96-1,2.71-1.1,3.91,.02,2.74,2.55,4.16,5.61,3.06,10.06Z"/>
        <path d="M139.58,105.97c-.97,0-1.47,.12-1.87-.02-1.92-.67-3.87-.98-5.89-.63-.37,.06-.77,.06-1.14,0-1.53-.2-2.35-1.02-2.4-2.35-.05-1.46,.8-2.49,2.37-2.72,2.93-.43,5.21,.83,7.1,2.91,.62,.68,1.04,1.56,1.84,2.8Z"/>
        <path d="M211,235.41c-1.67,.42-3.1,.94-4.58,1.12-1.52,.18-2.72-.9-2.85-2.24-.15-1.48,.95-2.66,2.6-2.82,2.24-.22,3.45,.68,4.82,3.94Z"/>
        <path d="M117.87,165.77c-.86-2.89-.35-4.98,.73-6.89,.82-1.45,2.59-1.75,3.72-.91,1.1,.82,1.15,2.46-.09,3.78-1.23,1.3-2.63,2.45-4.36,4.03Z"/>
        <path d="M234.08,246.77c-.1,.82-.04,1.25-.21,1.56-.35,.62-.82,1.18-1.25,1.76-.47-.41-1.02-.76-1.38-1.25-.62-.84-1.19-1.73-1.63-2.67-.6-1.28-.21-2.49,.79-2.97,1.13-.54,2.46-.06,3.06,1.26,.38,.84,.49,1.8,.62,2.31Z"/>
      </g>
      <g>
        <g>
          <path class="cls-8" d="M1089.32,118.71c3.79,5.99,6.39,12.42,6.27,19.68-.08,4.52-1.14,8.83-3.47,12.67-2.19,3.6-3.59,7.41-4.27,11.54-1.37,8.23-6.31,14.01-13.37,17.72-5.35,2.81-10.46,5.85-15.31,9.42-4.12,3.04-8.52,5.72-12.54,8.88-7.61,5.97-16.39,9.25-25.53,11.86-6.45,1.85-13.03,2.24-19.63,1.63-5.38-.5-10.74-1.37-16.05-2.39-4.56-.88-8.76-2.83-12.76-5.26-4.54-2.75-9.25-5.21-13.92-7.81-.64,.41-.87,.6-1.14,.72-4.88,2.13-6.43,6.43-7,11.17-.55,4.57-2.32,8.28-6.13,10.97-1.04,.73-2.01,1.59-2.94,2.47-2.37,2.23-2.62,4.03-1.01,6.79,.55,.93,1.33,1.76,1.74,2.74,.7,1.7,1.43,3.45,1.7,5.25,.23,1.51,.8,2.6,1.98,3.42,.81,.55,1.65,1.09,2.54,1.49,7.74,3.4,15.41,6.94,23.26,10.05,3.24,1.29,6.82,1.96,10.31,2.34,5.97,.64,11.91,1.48,17.97,1.32,7.41-.19,14.67-.85,21.91-2.63,5.42-1.33,11.06-1.79,16.61-2.59,2.72-.39,5.46-.7,8.2-.98,6.84-.71,13.34,.59,19.52,3.47,3.36,1.57,5.05,4.57,6.13,7.96,2.01,6.35,1.1,12.65-.45,18.92-.78,3.16-2.38,5.82-4.88,7.9-6.19,5.16-12.79,9.4-20.97,10.84-6.57,1.15-13.05,2.85-19.59,4.23-2.02,.42-4.09,.65-6.14,.83-5.89,.52-11.78,1.25-17.68,1.39-7.18,.18-14.38,.01-21.56-.32-4.61-.22-9.23-.8-13.78-1.57-9.59-1.64-18.63-4.89-26.9-10.11-4.17-2.64-8.46-5.06-13.34-6.12-2.78-.61-5.6-1.07-8.43-1.42-2.72-.34-5.08-1.13-7.01-3.24-1.04-1.12-2.5-1.87-3.82-2.71-2.74-1.73-4.8-4.1-6.33-6.89-3.76-6.83-5.75-14.14-6.13-21.96-.35-7.28-.89-14.55-1.6-21.81-.97-9.97-.82-19.86,1.33-29.68,1.83-8.36,2.18-16.73,.46-25.19-1.63-8.04,.08-15.61,3.67-22.88,4.34-8.77,10.06-16.39,17.7-22.57,8.89-7.19,17.93-14.16,27.54-20.38,4.65-3.01,9.53-5.43,15.05-6.53,4.32-.86,8.07-3.2,11.46-5.87,8.3-6.52,17.77-8.43,27.84-6.77,5.27,.87,10.36,3.02,15.42,4.88,7.66,2.8,15.19,5.99,23.38,7.03,5.56,.7,11.11,1.61,16.7,2.04,7.64,.58,14.92,2.61,22.01,5.3,5.47,2.07,9.83,5.79,12.98,10.76Zm-2.15,29.21c1.77-4.01,3.07-8.24,2.24-12.59-.69-3.62-1.88-7.24-3.45-10.58-2.78-5.9-7.32-10-13.58-12.37-9.56-3.61-19.57-4.76-29.57-6.12-5.62-.77-11.28-1.68-16.68-3.33-8.25-2.51-16.29-5.68-24.4-8.63-5.55-2.03-11.18-1.79-16.84-.73-4.13,.76-7.71,2.78-11.14,5.14-4.54,3.11-9.12,6.21-14.63,7.38-4.21,.89-7.92,2.88-11.5,5.13-8.58,5.41-16.53,11.69-24.59,17.85-8.87,6.78-15.79,14.98-20.25,25.26-2.26,5.23-3.56,10.62-3.11,16.32,.3,3.81,.62,7.64,1.3,11.39,.71,3.89-.01,7.64-.53,11.41-.77,5.53-2.2,11.01-2.45,16.55-.3,6.86,.18,13.77,.58,20.64,.36,6.07,1.2,12.12,1.57,18.19,.32,5.23,1.23,10.29,2.99,15.23,1.85,5.2,4.34,9.88,9.33,12.79,1.09,.64,2.02,1.55,3,2.37,1.39,1.17,2.88,1.78,4.81,1.81,2.82,.04,5.67,.39,8.47,.88,5.13,.88,9.57,3.46,13.9,6.18,5.11,3.21,10.53,5.65,16.37,7.21,5.13,1.37,10.27,2.55,15.58,2.93,6.95,.49,13.9,1.41,20.85,1.48,6.66,.07,13.34-.62,20-1.17,4.1-.34,8.18-.91,12.24-1.59,4.72-.79,9.41-1.79,14.11-2.76,2.87-.59,5.78-1.1,8.56-1.99,5.06-1.61,9.18-4.85,13.23-8.15,1.82-1.47,2.98-3.5,3.45-5.72,1.16-5.52,1.24-11.08-.1-16.61-.62-2.55-2.04-4.4-4.56-5.37-4.15-1.6-8.38-2.9-12.87-2.61-3.82,.24-7.63,.63-11.41,1.18-5.13,.75-10.31,1.4-15.32,2.68-7.2,1.84-14.4,3.08-21.84,2.75-1.85,0-3.72,.13-5.57-.03-4.01-.33-7.99-.96-12-1.18-5.67-.31-11.08-1.66-16.22-3.91-6.02-2.65-11.92-5.57-17.87-8.4-1.78-.84-3.58-1.64-5.28-2.63-2.37-1.39-4.32-3.33-4.59-6.16-.2-2.19-1.13-3.91-2.26-5.65-.69-1.07-1.36-2.17-1.88-3.33-1.39-3.09-.85-5.98,1.29-8.52,1.19-1.41,2.51-2.76,3.92-3.96,2.62-2.21,4.07-4.81,4.24-8.37,.18-3.61,.91-7.21,2.67-10.47,2.53-4.7,7.23-6.53,12.13-4.74,.45,.16,.94,.22,1.41,.34,3.83,.92,7.55,2.08,10.89,4.29,4.35,2.88,8.85,5.5,14.05,6.55,3.16,.63,6.34,1.41,9.54,1.62,5.79,.37,11.69,1.06,17.38,.33,8.76-1.12,17.34-3.67,24.96-8.3,6.29-3.83,12.21-8.27,18.19-12.59,4.62-3.35,9.17-6.66,14.45-9.04,6.51-2.94,10.7-8.09,12.16-15.32,.57-2.86,1.51-5.67,2.46-8.44,.54-1.57,1.49-2.99,2.17-4.52Z"/>
          <path class="cls-1" d="M1010,139.07c-7.13-2.8-13.92-6.32-21.84-5.62-14.06,1.24-23.83,15.51-23.7,29.11,.01,.79,.07,1.55,.15,2.28-2.13,5.31,.51,12.75,7.97,12.75,.38,0,.75-.02,1.11-.06,4.82,2.49,10.86,3.42,16.54,3.36,5.74-.05,11.74-.67,17.11-2.77,7.56-2.95,13.88-7.74,20.41-12.44,1.38-1,2.5-2.27,3.28-3.68,.54-.04,1.06-.15,1.58-.32l3.15-1.05c2.23-.74,4.18-2.08,5.38-4.14,.66-1.03,1.02-2.15,1.07-3.34,.27-1.2,.21-2.4-.16-3.59-.36-1.11-.9-2.2-1.6-3.15-1.09-3.13-3.8-5.6-8.13-5.56-7.68,.08-14.99,1.09-22.32-1.78Zm79.41-3.74c.83,4.35-.47,8.58-2.24,12.59-.68,1.53-1.63,2.95-2.17,4.52-.95,2.77-1.89,5.58-2.46,8.44-1.46,7.23-5.65,12.38-12.16,15.32-5.28,2.38-9.83,5.69-14.45,9.04-5.98,4.32-11.9,8.76-18.19,12.59-7.62,4.63-16.2,7.18-24.96,8.3-5.69,.73-11.59,.04-17.38-.33-3.2-.21-6.38-.99-9.54-1.62-5.2-1.05-9.7-3.67-14.05-6.55-3.34-2.21-7.06-3.37-10.89-4.29-.47-.12-.96-.18-1.41-.34-4.9-1.79-9.6,.04-12.13,4.74-1.76,3.26-2.49,6.86-2.67,10.47-.17,3.56-1.62,6.16-4.24,8.37-1.41,1.2-2.73,2.55-3.92,3.96-2.14,2.54-2.68,5.43-1.29,8.52,.52,1.16,1.19,2.26,1.88,3.33,1.13,1.74,2.06,3.46,2.26,5.65,.27,2.83,2.22,4.77,4.59,6.16,1.7,.99,3.5,1.79,5.28,2.63,5.95,2.83,11.85,5.75,17.87,8.4,5.14,2.25,10.55,3.6,16.22,3.91,4.01,.22,7.99,.85,12,1.18,1.85,.16,3.72,.03,5.57,.03,7.44,.33,14.64-.91,21.84-2.75,5.01-1.28,10.19-1.93,15.32-2.68,3.78-.55,7.59-.94,11.41-1.18,4.49-.29,8.72,1.01,12.87,2.61,2.52,.97,3.94,2.82,4.56,5.37,1.34,5.53,1.26,11.09,.1,16.61-.47,2.22-1.63,4.25-3.45,5.72-4.05,3.3-8.17,6.54-13.23,8.15-2.78,.89-5.69,1.4-8.56,1.99-4.7,.97-9.39,1.97-14.11,2.76-4.06,.68-8.14,1.25-12.24,1.59-6.66,.55-13.34,1.24-20,1.17-6.95-.07-13.9-.99-20.85-1.48-5.31-.38-10.45-1.56-15.58-2.93-5.84-1.56-11.26-4-16.37-7.21-4.33-2.72-8.77-5.3-13.9-6.18-2.8-.49-5.65-.84-8.47-.88-1.93-.03-3.42-.64-4.81-1.81-.98-.82-1.91-1.73-3-2.37-4.99-2.91-7.48-7.59-9.33-12.79-1.76-4.94-2.67-10-2.99-15.23-.37-6.07-1.21-12.12-1.57-18.19-.4-6.87-.88-13.78-.58-20.64,.25-5.54,1.68-11.02,2.45-16.55,.52-3.77,1.24-7.52,.53-11.41-.68-3.75-1-7.58-1.3-11.39-.45-5.7,.85-11.09,3.11-16.32,4.46-10.28,11.38-18.48,20.25-25.26,8.06-6.16,16.01-12.44,24.59-17.85,3.58-2.25,7.29-4.24,11.5-5.13,5.51-1.17,10.09-4.27,14.63-7.38,3.43-2.36,7.01-4.38,11.14-5.14,5.66-1.06,11.29-1.3,16.84,.73,8.11,2.95,16.15,6.12,24.4,8.63,5.4,1.65,11.06,2.56,16.68,3.33,10,1.36,20.01,2.51,29.57,6.12,6.26,2.37,10.8,6.47,13.58,12.37,1.57,3.34,2.76,6.96,3.45,10.58Z"/>
        </g>
        <path class="cls-1" d="M1000.94,260.35c7.44,.33,14.64-.91,21.83-2.75,5.01-1.28,10.19-1.93,15.33-2.68,3.78-.55,7.59-.94,11.4-1.19,4.5-.29,8.73,1.01,12.88,2.61,2.51,.97,3.94,2.82,4.56,5.37,1.34,5.53,1.26,11.09,.1,16.6-.47,2.22-1.62,4.25-3.44,5.73-4.05,3.29-8.17,6.54-13.23,8.15-2.79,.89-5.69,1.4-8.57,1.99-4.69,.97-9.38,1.96-14.11,2.76-4.05,.68-8.14,1.25-12.24,1.59-6.66,.55-13.34,1.24-20,1.17-6.95-.07-13.9-.99-20.85-1.48-5.31-.38-10.45-1.56-15.58-2.92-5.84-1.56-11.26-4-16.37-7.21-4.33-2.72-8.77-5.3-13.91-6.18-2.79-.48-5.64-.83-8.47-.88-1.92-.03-3.41-.64-4.81-1.81-.98-.82-1.91-1.73-2.99-2.37-4.99-2.92-7.48-7.6-9.33-12.8-1.76-4.93-2.67-10-2.99-15.23-.37-6.07-1.21-12.11-1.57-18.18-.4-6.87-.88-13.78-.58-20.64,.24-5.54,1.68-11.03,2.44-16.55,.52-3.77,1.24-7.52,.53-11.41-.68-3.75-1-7.58-1.3-11.39-.45-5.7,.85-11.09,3.11-16.32,4.45-10.28,11.38-18.48,20.25-25.26,8.05-6.16,16-12.44,24.59-17.85,3.58-2.25,7.29-4.24,11.5-5.13,5.51-1.17,10.09-4.26,14.62-7.38,3.43-2.36,7.01-4.37,11.14-5.14,5.66-1.05,11.29-1.29,16.85,.73,8.11,2.95,16.15,6.12,24.39,8.64,5.4,1.65,11.07,2.56,16.68,3.32,10.01,1.36,20.01,2.52,29.57,6.13,6.26,2.36,10.8,6.47,13.58,12.36,1.57,3.34,2.76,6.96,3.45,10.58,.83,4.35-.47,8.57-2.24,12.59-.68,1.53-1.63,2.95-2.17,4.53-.95,2.77-1.89,5.58-2.47,8.44-1.46,7.22-5.65,12.38-12.16,15.31-5.28,2.38-9.83,5.69-14.45,9.04-5.97,4.32-11.9,8.77-18.19,12.59-7.62,4.63-16.2,7.18-24.96,8.3-5.69,.73-11.59,.03-17.37-.33-3.2-.2-6.38-.99-9.55-1.62-5.2-1.04-9.7-3.67-14.05-6.54-3.34-2.21-7.06-3.37-10.89-4.3-.47-.11-.96-.17-1.42-.34-4.89-1.78-9.6,.04-12.13,4.74-1.76,3.26-2.49,6.86-2.66,10.47-.17,3.56-1.62,6.16-4.24,8.37-1.41,1.2-2.73,2.54-3.93,3.96-2.14,2.54-2.68,5.43-1.29,8.52,.52,1.16,1.19,2.26,1.89,3.33,1.13,1.74,2.05,3.46,2.26,5.65,.27,2.83,2.22,4.77,4.59,6.15,1.69,.99,3.5,1.79,5.28,2.64,5.95,2.82,11.85,5.75,17.87,8.39,5.14,2.26,10.55,3.61,16.22,3.91,4.01,.22,8,.85,12,1.18,1.85,.15,3.71,.03,5.57,.03Zm-23.2-149.16c1.08,2.09,2.66,2.86,5.33,2.12,4.68-1.3,9.33-2.73,13.93-4.27,1.6-.54,3.03-1.57,5.19-2.72-1.5-.84-2.3-1.54-3.23-1.77-4.52-1.13-9.03-.97-13.49,.44-.47-.08-.94-.16-1.41-.23-2.64-.43-5.28-.65-7.84,.36-1.87,.74-2.66,2.57-1.92,4.32,.65,1.54,2.04,1.67,3.44,1.75Zm-36.05,13.97c-.35,.18-.67,.47-1.04,.54-3.61,.68-6.47,2.66-9.04,5.15-.63,.61-1.28,1.25-1.71,2-.77,1.34-.57,2.96,.32,3.79,.9,.85,2.82,.77,4.06-.21,.68-.54,1.32-1.15,1.97-1.73,1.92,3.08,4.18,3.96,7.06,2.09,3.01-1.95,5.73-4.38,8.46-6.73,.7-.6,1.08-1.63,1.44-2.53,.78-1.95,.3-3.22-1.59-4.08-.77-.35-1.68-.5-2.53-.56-2.74-.2-5.05,1.1-7.39,2.26Zm50.15,5.07c-2.4,.44-4.84,.72-7.18,1.36-7.89,2.14-13.8,7.08-18.12,13.8-4.14,6.46-6.98,13.42-5.32,21.41,.13,.63-.05,1.32-.05,1.98-.01,3.41,.42,6.84,3,9.23,1.83,1.69,4.16,3.18,6.52,3.89,4.58,1.37,9.33,2.2,14.04,3.12,5.18,1.01,10.4,.44,15.59,0,4.53-.38,9.07-1.12,12.83-3.84,4.29-3.11,8.44-6.45,12.4-9.97,3.29-2.92,6.9-5.18,10.94-6.85,1.99-.82,3.96-1.74,5.87-2.75,1.53-.81,2.77-2.1,2.86-3.87,.1-2.14,0-4.33-.35-6.45-.94-5.76-5.01-8.87-9.9-11.19-2.51-1.2-5.16-1.86-7.97-1.71-3.24,.18-6.47,.51-9.71,.48-1.61-.01-3.31-.46-4.81-1.1-2.71-1.16-5.33-2.53-7.92-3.95-3.96-2.17-8.14-3.35-12.73-3.59Zm59.91,133.7c-.05-1.82-1.27-2.37-2.44-2.8-1.17-.43-2.44-.81-3.67-.87-5.99-.26-11.9,.24-17.59,2.29-.8,.29-1.52,.82-2.21,1.33-1.24,.92-1.77,2.24-1.14,3.63,.63,1.38,1.76,2.43,3.49,2.19,2.5-.35,5.01-.67,7.47-1.2,5.4-1.18,10.9-2.03,16.1-4.56Zm26.48-131.15c-.25-1.54-.31-2.63-.61-3.64-.7-2.35-3.42-4.23-5.31-3.79-2.4,.56-4.5,3.37-3.87,5.76,.72,2.71,1.69,5.4,2.95,7.9,1.26,2.5,4.39,2.38,5.48-.24,.84-2.01,1-4.31,1.36-6Zm-165.37,28.86c-2.3,.14-3.08,.6-4.33,2.59-2.33,3.71-3.45,7.88-4.14,12.12-.24,1.46,.04,3.18,.63,4.54,.81,1.9,3.13,1.74,4.08-.14,.3-.6,.49-1.28,.62-1.94,.61-2.96,1.21-5.93,1.75-8.91,.5-2.73,.92-5.48,1.39-8.27Zm72.85,105.73c-.48-.92-.7-1.89-1.3-2.39-2.62-2.18-5.65-3.51-9.1-3.56-2.34-.03-3.81,1.29-4.11,3.38-.35,2.42,.83,4.28,3.2,4.87,4.02,.99,7.63-.07,11.31-2.3Zm-68.78,4.06l.53-.35c-.16-.93-.22-1.89-.51-2.78-.7-2.13-1.45-4.24-2.3-6.31-.85-2.08-1.79-4.12-2.78-6.14-.63-1.29-1.75-1.88-3.17-1.49-1.39,.39-2.14,1.43-1.99,2.87,.12,1.14,.24,2.43,.84,3.33,1.78,2.67,3.71,5.26,5.76,7.73,1.01,1.21,2.41,2.1,3.63,3.14Zm156.5-114.76c-2.51,2.78-4.71,5.01-6.64,7.45-.97,1.21-.81,2.76,.18,4.09,.76,1.03,1.72,1.67,3.01,1.41,1.6-.32,2.11-1.68,2.43-3.03,.63-2.66,1.18-5.34,1.69-8.02,.07-.38-.27-.83-.66-1.9Zm-21.34,118.36c2.15,.09,4.34-1.26,4.36-2.68,.02-1.81-2.29-3.77-4.55-3.85-1.96-.07-3.67,1.3-3.7,2.96-.04,1.95,1.63,3.48,3.89,3.57Zm-116.28-.35c-.21-.41-.32-.68-.48-.91-1.49-2.05-2.96-4.11-4.5-6.12-.73-.96-1.64-1.77-2.98-1.04-1.13,.62-1.5,1.89-1.04,3.3,.06,.19,.07,.4,.17,.56,1.86,2.73,4.59,4.15,7.71,4.9,.29,.07,.72-.43,1.12-.68Zm-20.68-100.79s-.19-.14-.36-.11c-.28,.05-.64,.13-.78,.33-1.75,2.56-2.86,5.34-2.43,8.5,.23,1.71,1.42,2.97,2.46,2.89,1.22-.1,1.71-1.06,1.64-3.25-.02-.59-.07-1.17-.1-1.76-.13-2.09-.27-4.19-.42-6.6Z"/>
        <path class="cls-8" d="M991.84,130.23c4.58,.24,8.77,1.42,12.73,3.59,2.58,1.42,5.21,2.79,7.92,3.95,1.49,.64,3.19,1.08,4.81,1.1,3.23,.03,6.47-.31,9.71-.48,2.81-.15,5.46,.51,7.97,1.71,4.88,2.32,8.96,5.43,9.9,11.19,.35,2.12,.46,4.31,.35,6.45-.09,1.77-1.33,3.06-2.86,3.87-1.91,1.01-3.87,1.92-5.87,2.75-4.04,1.67-7.64,3.93-10.94,6.85-3.96,3.52-8.11,6.87-12.4,9.97-3.76,2.72-8.3,3.46-12.83,3.84-5.19,.44-10.41,1.02-15.59,0-4.71-.92-9.46-1.75-14.04-3.12-2.37-.71-4.69-2.2-6.52-3.89-2.58-2.39-3.01-5.82-3-9.23,0-.66,.18-1.35,.05-1.98-1.66-7.99,1.17-14.95,5.32-21.41,4.31-6.72,10.23-11.66,18.12-13.8,2.34-.64,4.79-.92,7.18-1.36Zm.27,49.72c1.97-.09,3.94-.13,5.91-.28,5.8-.43,11.26-1.82,15.83-5.7,2.1-1.79,4.28-3.49,6.38-5.27,4.45-3.78,9.14-7.16,14.68-9.22,1.47-.55,2.9-1.23,4.34-1.86,1.1-.48,1.79-1.3,1.64-2.53-.5-3.91-1.56-7.44-5.36-9.63-3.08-1.77-6.17-3-9.78-2.44-1.17,.18-2.35,.23-3.52,.38-4.61,.58-9.02,.02-13.2-2.12-2.27-1.17-4.56-2.31-6.85-3.45-7.26-3.6-14.46-3.31-21.47,.6-7.94,4.43-12.61,11.39-14.75,20.09-.48,1.97-.66,4.12-.45,6.13,.27,2.62,1.02,5.19,1.68,7.75,.14,.56,.72,1.13,1.24,1.44,7.28,4.39,15.23,6.23,23.69,6.1Z"/>
        <path class="cls-3" d="M912.85,161.64c-.46,2.79-.89,5.54-1.39,8.27-.54,2.98-1.14,5.94-1.75,8.91-.14,.66-.32,1.34-.62,1.94-.95,1.88-3.27,2.04-4.08,.14-.59-1.37-.86-3.09-.63-4.54,.7-4.25,1.82-8.41,4.14-12.12,1.24-1.98,2.03-2.45,4.33-2.59Z"/>
        <path class="cls-15" d="M916.92,271.43c-1.22-1.04-2.62-1.92-3.63-3.14-2.05-2.47-3.98-5.06-5.76-7.73-.6-.9-.72-2.2-.84-3.33-.15-1.43,.6-2.48,1.99-2.87,1.42-.4,2.54,.2,3.17,1.49,.99,2.02,1.93,4.06,2.78,6.14,.85,2.07,1.6,4.19,2.3,6.31,.29,.89,.35,1.85,.51,2.78l-.53,.35Z"/>
        <path class="cls-16" d="M941.68,125.16l1.8,.21c-.02,1.88-1.2,2.94-2.21,4.04-1.64,1.79-3.35,3.52-5.03,5.28-.66,.58-1.29,1.19-1.97,1.73-1.24,.98-3.15,1.06-4.06,.21-.88-.83-1.09-2.45-.32-3.79,.43-.75,1.08-1.39,1.71-2,2.57-2.49,5.43-4.47,9.04-5.15,.37-.07,.69-.35,1.04-.54Z"/>
        <path class="cls-10" d="M985.46,104.99c1.09,.42,2.88,.18,2.84,1.73-.02,.67-1.57,1.52-2.57,1.89-2.62,.97-5.33,1.73-8,2.57-1.4-.08-2.79-.21-3.44-1.75-.73-1.74,.05-3.58,1.92-4.32,2.56-1.01,5.2-.79,7.84-.36,.47,.08,.94,.16,1.41,.23Z"/>
        <path class="cls-16" d="M1073.42,156.66c.39,1.07,1.19,2.05,.86,2.12-.51,2.68-1.25,5.15-1.88,7.81-.32,1.35-.83,2.71-2.43,3.03-1.29,.26-2.25-.39-3.01-1.41-.99-1.34-1.15-2.88-.18-4.09,1.94-2.44,4.14-4.67,6.64-7.45Z"/>
        <path class="cls-16" d="M935.79,274.67c-.4,.26-.83,.75-1.12,.68-3.11-.75-5.84-2.17-7.71-4.9-.1-.15-.11-.37-.17-.56-.46-1.41-.09-2.68,1.04-3.3,1.34-.73,2.25,.08,2.98,1.04,1.53,2.01,3.01,4.07,4.5,6.12,.16,.23,.27,.5,.48,.91Z"/>
        <path class="cls-9" d="M915.11,173.88c.16,2.41,.29,4.51,.42,6.6,.04,.59,.09,1.17,.1,1.76,.07,2.19-.42,3.15-1.64,3.25-1.03,.09-2.23-1.18-2.46-2.89-.42-3.16,.68-5.94,2.43-8.5,.14-.2,.5-.28,.78-.33,.16-.03,.36,.11,.36,.11Z"/>
      </g>
      <g>
        <g>
          <path class="cls-1" d="M1497.97,112c2.12,3.88,1.76,5.34-1.8,7.82-5.66,3.94-11.83,6.65-18.81,7.12-3.87,.26-7.74,.43-11.62,.57-5.14,.19-10.28,.43-15.42,.43-4.36,0-8.72-.43-13.09-.42-2.1,0-4.27,.33-6.29,.91-7.42,2.15-11.26,6.87-11.67,14.81-.31,6-.14,12.03-.15,18.05,0,.67,.09,1.38,.3,2.01,1.94,5.83,1.37,11.64,0,17.48-1.33,5.75-2.39,11.57-3.83,17.29-1.64,6.53-.99,12.86,.93,19.19,1.54,5.04,2.51,10.17,1.95,15.48-.41,3.85-.69,7.73-1.24,11.56-.88,6.04-.33,12.01,.51,17.97,1.13,8.05,1.57,16.04-1.47,23.82-.35,.9-.77,1.78-1.1,2.69-1.72,4.6-5.17,7.11-9.84,8.16-5.87,1.31-11.59,.71-17.11-1.55-5.62-2.3-8.18-7.2-9.13-12.66-1.04-5.99-1.17-12.14-1.7-18.21-.32-9.17,1.69-17.98,3.57-26.81,2.49-11.7,4.23-23.5,3.78-35.48-.19-5.11-1.15-10.19-1.8-15.27-1.16-9.13-.9-18.18,1-27.2,.74-3.5,1.37-7.05,1.63-10.61,.51-6.81-1.56-12.71-7.3-16.78-3.87-2.74-8.12-3.41-12.68-1.51-1.56,.65-3.37,.69-5.04,1.09-4.42,1.07-8.78,2.48-13.25,3.23-9.19,1.53-18.49,2.67-27.76,.97-7.49-1.37-13.83-5.26-18.19-11.57-5.31-7.71-2.76-16.48,5.87-20.26,5.75-2.52,11.73-4.53,17.69-6.53,4.3-1.44,8.7-2.61,13.12-3.64,2.05-.48,4.24-.45,6.36-.45,10.78,.01,21.56,.04,32.33,.17,3,.03,6,.45,9,.59,8.81,.4,17.63,1.02,26.44,1.02,6.19,0,12.38-.9,18.57-1.33,1.92-.14,3.86-.06,5.79-.07,5.53-.04,11.07,.03,16.59-.14,8.37-.27,16.77-.48,24.79,2.22,8.49,2.85,15.63,7.76,20.06,15.84Z"/>
          <path class="cls-8" d="M1504.84,115.28v1.75c-6.44,11.32-17.34,15.01-29.2,16.08-9.45,.85-19.01,.46-28.53,.56-3.98,.04-7.96-.21-11.94-.11-1.6,.04-3.25,.48-4.78,1.03-3.64,1.3-5.77,3.97-5.93,7.83-.25,5.72-.29,11.45-.32,17.18-.01,1.03,.31,2.12,.68,3.11,2.27,6.01,2.29,12.14,1.12,18.35-1.23,6.47-2.43,12.95-3.77,19.41-.81,3.88-.8,7.67,.24,11.51,.93,3.46,1.74,6.96,2.56,10.45,1.29,5.51,.52,11.04-.22,16.51-1.09,8.16-.94,16.22,.59,24.33,1.9,9.97,.89,19.66-3.35,29.01-3.21,7.08-8.67,10.93-16.12,12.39-6.78,1.33-13.37,.48-19.73-1.92-7.55-2.86-11.52-8.96-13.53-16.4-.84-3.16-1.23-6.5-1.32-9.77-.18-7.37-.45-14.78,.09-22.12,.44-5.96,1.86-11.87,3.09-17.74,2.11-10.01,3.31-20.1,3.69-30.31,.22-5.78-.72-11.41-1.7-17.05-1.71-9.97-1.5-19.9,.38-29.83,.52-2.76,1.07-5.54,1.26-8.34,.15-2.29-.02-4.66-.4-6.93-.39-2.38-1.78-4.27-3.88-5.56-2.32-1.41-4.61-2.87-6.97-4.19-.57-.32-1.47-.39-2.1-.21-2.78,.8-5.59,1.57-8.26,2.67-8.03,3.3-16.43,4.4-25.03,4.52-4.66,.06-9.32,.08-13.9-1-7.44-1.76-13.6-5.7-18.45-11.46-3.54-4.22-5.19-9.4-4.41-14.92,.85-6,4.72-10.08,9.88-12.89,2.28-1.24,4.74-2.17,7.17-3.11,5.41-2.08,10.84-4.14,16.29-6.11,5.15-1.86,10.54-2.75,15.98-2.83,11.16-.16,22.33-.24,33.49-.01,7.95,.16,15.88,1.18,23.83,1.27,6.87,.07,13.75-.64,20.63-.97,8.14-.38,16.28-.73,24.43-1.09,3.39-.15,6.78-.32,10.18-.47,7.7-.33,15.39-.04,22.76,2.34,10.76,3.48,18.65,10.48,23.73,20.59,.71,1.42,1.18,2.96,1.77,4.45Zm-8.67,4.54c3.56-2.48,3.92-3.94,1.8-7.82-4.43-8.08-11.57-12.99-20.06-15.84-8.02-2.7-16.42-2.49-24.79-2.22-5.52,.17-11.06,.1-16.59,.14-1.93,.01-3.87-.07-5.79,.07-6.19,.43-12.38,1.33-18.57,1.33-8.81,0-17.63-.62-26.44-1.02-3-.14-6-.56-9-.59-10.77-.13-21.55-.16-32.33-.17-2.12,0-4.31-.03-6.36,.45-4.42,1.03-8.82,2.2-13.12,3.64-5.96,2-11.94,4.01-17.69,6.53-8.63,3.78-11.18,12.55-5.87,20.26,4.36,6.31,10.7,10.2,18.19,11.57,9.27,1.7,18.57,.56,27.76-.97,4.47-.75,8.83-2.16,13.25-3.23,1.67-.4,3.48-.44,5.04-1.09,4.56-1.9,8.81-1.23,12.68,1.51,5.74,4.07,7.81,9.97,7.3,16.78-.26,3.56-.89,7.11-1.63,10.61-1.9,9.02-2.16,18.07-1,27.2,.65,5.08,1.61,10.16,1.8,15.27,.45,11.98-1.29,23.78-3.78,35.48-1.88,8.83-3.89,17.64-3.57,26.81,.53,6.07,.66,12.22,1.7,18.21,.95,5.46,3.51,10.36,9.13,12.66,5.52,2.26,11.24,2.86,17.11,1.55,4.67-1.05,8.12-3.56,9.84-8.16,.33-.91,.75-1.79,1.1-2.69,3.04-7.78,2.6-15.77,1.47-23.82-.84-5.96-1.39-11.93-.51-17.97,.55-3.83,.83-7.71,1.24-11.56,.56-5.31-.41-10.44-1.95-15.48-1.92-6.33-2.57-12.66-.93-19.19,1.44-5.72,2.5-11.54,3.83-17.29,1.36-5.84,1.93-11.65,0-17.48-.21-.63-.3-1.34-.3-2.01,.01-6.02-.16-12.05,.15-18.05,.41-7.94,4.25-12.66,11.67-14.81,2.02-.58,4.19-.91,6.29-.91,4.37-.01,8.73,.42,13.09,.42,5.14,0,10.28-.24,15.42-.43,3.88-.14,7.75-.31,11.62-.57,6.98-.47,13.15-3.18,18.81-7.12Z"/>
        </g>
        <path class="cls-1" d="M1377.41,264.51c-.32-9.17,1.69-17.98,3.56-26.8,2.49-11.7,4.23-23.5,3.78-35.49-.19-5.11-1.15-10.19-1.8-15.27-1.16-9.12-.91-18.17,1-27.19,.74-3.5,1.37-7.05,1.63-10.62,.51-6.8-1.56-12.71-7.31-16.78-3.86-2.74-8.11-3.4-12.68-1.51-1.56,.65-3.37,.69-5.04,1.09-4.42,1.07-8.77,2.48-13.24,3.22-9.19,1.53-18.5,2.67-27.76,.98-7.5-1.37-13.83-5.26-18.19-11.58-5.31-7.7-2.76-16.48,5.86-20.26,5.75-2.52,11.73-4.53,17.69-6.53,4.3-1.44,8.7-2.62,13.12-3.65,2.05-.48,4.24-.45,6.37-.44,10.78,0,21.55,.04,32.33,.16,3,.03,5.99,.46,8.99,.59,8.81,.4,17.63,1.02,26.45,1.02,6.19,0,12.37-.9,18.56-1.33,1.92-.13,3.86-.05,5.8-.06,5.53-.04,11.06,.03,16.59-.14,8.37-.27,16.77-.48,24.79,2.22,8.49,2.85,15.63,7.76,20.06,15.85,2.13,3.88,1.76,5.34-1.8,7.82-5.66,3.94-11.83,6.64-18.81,7.12-3.87,.26-7.74,.43-11.62,.57-5.14,.19-10.28,.43-15.42,.43-4.36,0-8.72-.43-13.09-.42-2.1,0-4.27,.33-6.29,.92-7.42,2.14-11.26,6.87-11.67,14.8-.31,6.01-.14,12.04-.15,18.06,0,.67,.09,1.37,.3,2.01,1.94,5.83,1.37,11.64,.02,17.48-1.34,5.75-2.39,11.57-3.83,17.29-1.65,6.53-1,12.86,.93,19.19,1.54,5.04,2.5,10.17,1.95,15.48-.41,3.86-.69,7.73-1.24,11.56-.87,6.03-.33,12.01,.51,17.97,1.13,8.05,1.57,16.04-1.47,23.82-.35,.9-.76,1.78-1.1,2.69-1.72,4.61-5.16,7.12-9.83,8.16-5.87,1.31-11.59,.72-17.11-1.54-5.63-2.3-8.18-7.2-9.14-12.67-1.04-5.99-1.17-12.13-1.7-18.21Zm29.06-50.79c1.37,2.58,1.45,5.79,3.96,8.34,.91-2.86,.1-5.21-.22-7.5-.71-5.09-2.78-10.1-.45-15.28,.03-.06-.06-.18-.11-.31-1.03-.75-2.12-.55-2.76,.41-.77,1.17-1.46,2.51-1.7,3.86-.31,1.69-.13,3.46-.17,5.2-.24-1.86-.48-3.72-.71-5.55-3.02-.22-4.96,1.33-4.93,4.25,.04,3.87,.9,7.63,2.52,11.18,.46,1,1.07,1.93,1.66,2.97,2.28-2.34,2.64-3.34,2.9-7.58Zm59.66-103.67c-.34,2.45,1.57,5.34,4.39,6.31,0-1.33,.05-2.57-.01-3.81-.09-1.84-.86-3.15-2.91-3.3,1.85-1.06,1.31-2.64,.69-4.02-1.58-3.52-4.33-5.91-7.93-7.23-1.69-.62-3.46-.45-4.98,.65-2,1.45-1.79,4.56,.38,5.75,2.69,1.48,5.41,2.92,8.12,4.38,.75,.41,1.5,.83,2.25,1.25Zm-62.19,174.8c-.04,1.04,.57,1.21,1.46,1.2,2.33-.02,5.42-2.73,6.26-5.56,.67-2.25,.2-2.91-2.33-3.32,2.29-2.66,3.02-7.48,1.34-10.24-.72-1.19-1.63-2.48-3.35-2.47-1.82,.01-3.26,.84-3.91,2.5-1.75,4.48-3.46,9-3.51,13.91-.03,3.54,.49,4,4.04,3.97Zm2.35-125.26c-.27-.8-.38-1.7-.85-2.36-.63-.89-1.4-1.91-2.35-2.3-2.39-.97-4.76,.79-4.85,3.67-.07,2.19,.1,4.45,.58,6.58,.75,3.35,1.63,6.71,2.87,9.9,.79,2.01,2.4,3.64,5.21,3.59,0-.94,.02-1.7,0-2.46-.16-5-.34-10.01-.5-15.01,.57,2.12,1,4.3,1.76,6.36,.78,2.09,1.27,4.39,3.49,6.38,.35-1.69,.92-2.99,.81-4.23-.41-4.8-1-9.58-1.6-14.35-.13-1.02-.82-1.72-2-1.72-1.14,0-1.84,.55-2.01,1.66-.22,1.42-.38,2.86-.56,4.29Zm.54-53.43l.03-.24c1.06,0,2.13,.08,3.19-.02,2.87-.26,5.78-.57,8.25-2.21,.86-.57,1.6-1.6,1.88-2.57,.11-.37-1.15-1.3-1.93-1.73-3.11-1.75-6.64-1.86-10.06-2.08-2.56-.17-5.21,.07-7.72,.6-3.21,.67-3.87,4.7-1.52,6.24,.71,.46,1.41,1.09,2.2,1.25,1.87,.38,3.78,.53,5.68,.76Zm-78.2-5.28c-.45-.2-.87-.43-1.32-.57-.36-.12-.77-.21-1.14-.17-4.33,.39-8.38,1.53-11.67,4.56-.42,.39-.95,.87-1.03,1.38-.14,.97-.26,2.13,.15,2.93,.19,.36,1.72,.23,2.56,.01,2.04-.53,4.08-1.13,6.04-1.91,1.77-.71,3.53-1.56,5.11-2.62,1.01-.68,1.81-1.8,1.31-3.6Zm133.94,21.25c1.55-3.52,0-8.28-3.13-9.94-.33-.18-.7-.32-1.07-.39-2.71-.48-4.9,1.85-4.32,4.57,.68,3.19,4.55,5.86,8.52,5.76Zm17.72-11.38c1.73-1.06,1.37-2.49,1.15-3.6-.72-3.52-2.68-6.37-5.44-8.62-.62-.5-1.58-.7-2.41-.8-1.07-.13-2.19,.02-2.58,1.32-.33,1.11-.02,2.02,.88,2.84,1.42,1.29,2.76,2.68,4.07,4.08,1.44,1.53,2.82,3.12,4.32,4.78Zm-119.95-12.66l-.29-.67c-.74-.19-1.48-.57-2.21-.55-3.35,.06-6.73,.04-10.05,.41-1.92,.22-3.05,2.29-2.6,3.87,.41,1.44,1.98,1.93,4.1,1.22,2.83-.94,5.67-1.87,8.47-2.89,.91-.33,1.73-.92,2.59-1.39Zm49.19,156.42l.63-.02c1.34-3.99,.86-8.13,.86-12.23,0-.56-.75-1.13-1.16-1.69-.57,.52-1.28,.96-1.67,1.6-.26,.42-.1,1.13-.06,1.7,.16,1.91,.31,3.82,.56,5.72,.21,1.65,.55,3.28,.83,4.91Z"/>
        <path class="cls-2" d="M1328.63,100.89c.5,1.8-.3,2.92-1.31,3.6-1.58,1.06-3.34,1.91-5.11,2.62-1.95,.78-3.99,1.38-6.04,1.91-.84,.22-2.37,.35-2.56-.01-.41-.8-.29-1.95-.15-2.93,.07-.5,.6-.99,1.03-1.38,3.29-3.03,7.34-4.17,11.67-4.56,.37-.03,.78,.06,1.14,.17,.45,.14,.88,.37,1.32,.57Z"/>
        <path class="cls-12" d="M1406.39,161.21c-.04-.54-.07-1.07-.11-1.61,.18-1.43,.34-2.86,.56-4.29,.17-1.12,.87-1.66,2.01-1.66,1.18,0,1.87,.7,2,1.72,.6,4.78,1.2,9.56,1.6,14.35,.11,1.24-.47,2.53-.81,4.23-2.22-1.99-2.71-4.29-3.49-6.38-.76-2.05-1.19-4.23-1.76-6.36Z"/>
        <path class="cls-12" d="M1406.47,213.73c-.48-1.76-.96-3.51-1.44-5.27,.03-1.74-.14-3.51,.17-5.2,.25-1.35,.94-2.7,1.7-3.86,.63-.96,1.73-1.16,2.76-.41,.05,.14,.14,.25,.11,.31-2.33,5.17-.26,10.19,.45,15.28,.32,2.28,1.13,4.64,.22,7.5-2.51-2.55-2.59-5.76-3.96-8.34Z"/>
        <path class="cls-12" d="M1480.29,110.76c-1.5-1.66-2.88-3.25-4.32-4.78-1.32-1.4-2.66-2.78-4.07-4.08-.9-.82-1.21-1.73-.88-2.84,.38-1.3,1.5-1.44,2.58-1.32,.83,.1,1.79,.3,2.41,.8,2.76,2.25,4.72,5.11,5.44,8.62,.23,1.1,.59,2.53-1.15,3.6Z"/>
        <path class="cls-6" d="M1403.94,284.86c1.01-1.8,1.93-3.66,3.06-5.39,.58-.89,1.54-1.54,2.33-2.3,2.53,.41,3,1.08,2.33,3.32-.84,2.83-3.93,5.54-6.26,5.56-.89,0-1.5-.16-1.46-1.2Z"/>
        <path class="cls-12" d="M1409.53,254.53c-.28-1.64-.62-3.27-.83-4.91-.25-1.9-.4-3.81-.56-5.72-.05-.57-.2-1.28,.06-1.7,.39-.63,.74-1.23,1.67-1.6,.85,.38,1.48,1.2,1.24,1.86,0,4.09,.4,8.07-.94,12.06l-.63,.02Z"/>
        <path class="cls-11" d="M1466.13,110.06c.49-.27,.98-.53,1.47-.8,2.05,.15,2.81,1.46,2.91,3.3,.06,1.24,.01,2.48,.01,3.81-2.82-.97-4.73-3.86-4.39-6.31Z"/>
      </g>
      <g>
        <g>
          <path class="cls-1" d="M727.33,149.04c1.49,3.08,4.25,3.65,7.25,1.98,2.64-1.47,4.05-3.98,5.6-6.41,1.96-3.09,3.99-6.14,6.16-9.08,2.55-3.46,5.97-5.83,10.25-6.54,4.21-.69,7.57-2.89,10.68-5.51,4.94-4.14,9.9-8.27,14.57-12.71,8.23-7.83,17.77-13.26,28.8-15.82,4.3-.99,8.82-1.03,13.24-1.53,4.11-.47,8.03,.25,11.84,1.8,.91,.37,1.83,.75,2.78,1.04,2.26,.7,4.5,1.53,6.82,1.98,3,.58,5.36,2.05,7.17,4.4,6.44,8.29,10.83,17.44,11.54,28.09,.27,4.14,.53,8.29,.79,12.44-.14,0-.28,0-.42,.02,.24,3.96,.58,7.91,.67,11.87,.06,2.56-.34,5.12-.4,7.69-.09,3.98-.04,7.95-.12,11.93-.18,9.92-.39,19.84-.63,29.76-.07,2.76-.51,5.54-.4,8.29,.16,4.14,.76,8.26,.96,12.4,.18,3.47,.05,6.96,.07,10.44,.02,4.15-.17,8.27,1.56,12.28,.78,1.82,.66,4.07,.8,6.13,.28,3.95,.44,7.91,.68,11.86,.11,1.98,.3,3.95,.44,5.92,.31,4.27,.15,8.57-.88,12.68-1.7,6.76-6.49,10.97-12.72,13.58-3.09,1.29-6.22,2.21-9.79,1.52-2.35-.46-4.92,.16-7.38,.34-1.56,.1-2.92-.28-4.18-1.22-1.74-1.31-3.63-2.43-5.31-3.81-.97-.79-1.86-1.84-2.42-2.96-2.23-4.46-3.68-9.15-3.8-14.2-.12-4.85-.39-9.7-.48-14.55-.11-6.54,.65-13.01,1.6-19.48,1.23-8.45,1.83-16.96,1.24-25.5-.48-6.9-1.07-13.79-1.76-20.67-.65-6.38-1.58-12.73-2.22-19.11-.26-2.56-.08-5.17-.1-7.75-.04-4.67-1.08-8.99-4.17-12.69-3.77-4.52-8.24-7.05-14.31-5.49-2.39,.61-4.8,1.13-7.15,1.84-4.27,1.3-7.36,4.04-9.7,7.85-1.95,3.19-4.34,6.12-6.42,9.24-1.37,2.04-2.55,4.21-3.77,6.35-1.86,3.27-3.5,6.68-5.55,9.81-2.39,3.64-6.13,5.52-10.2,6.78-8.22,2.54-12.88,8.35-15.31,16.38-1.63,5.43-2.19,11.01-2.94,16.57-.77,5.77-1.53,11.54-2.26,17.31-.26,2.06-.52,4.12-.64,6.19-.45,7.41-.83,14.83-1.24,22.24-.2,3.66-.06,7.37-.69,10.95-.7,3.95-1.99,7.82-3.26,11.64-.57,1.73-1.97,2.77-3.91,3.28-3.8,.99-7.56,1.32-11.45,.72-4.1-.62-8.24-1.01-12.36-1.52-.77-.1-1.71-.1-2.26-.53-2.84-2.29-6.04-4.39-6.89-8.27-.68-3.07-1.43-6.21-1.46-9.32-.05-6.94,.05-13.89,.61-20.8,.5-6.18,1.62-12.32,2.61-18.45,1.23-7.66,2.02-15.39,1.26-23.08-.95-9.61-2.64-19.15-3.89-28.73-.59-4.51-.83-9.06-1.41-13.57-1.36-10.46-1.36-20.98-1.03-31.48,.16-5.02,.99-10.01,1.6-15.01,.58-4.8,1.16-9.6,1.93-14.38,.8-4.95,1.47-9.98,3.6-14.59,.9-1.94,2.23-3.72,3.57-5.41,2.24-2.82,5.6-3.02,8.88-1.12,4.08,2.35,7.48,5.61,10.46,9.21,2.12,2.56,3.17,5.66,3.34,9.04,.09,1.57,.55,3.14,.51,4.7-.09,3.46-.43,6.91-.59,10.37-.22,4.84-.67,9.71-.42,14.53,.13,2.66,1.22,5.4,2.41,7.85Z"/>
          <path class="cls-8" d="M685.68,184.21c-1.19-12.95-2.14-25.95-1.07-39,1.01-12.38,2.61-24.67,4.98-36.86,.66-3.39,1.77-6.71,2.89-9.99,1.24-3.63,3.44-6.67,6.32-9.25,3.95-3.54,8.39-4.28,13.29-2.46,1.11,.42,2.3,.86,3.19,1.6,4.03,3.37,8.21,6.62,11.88,10.36,4.15,4.23,4.64,9.93,4.97,15.54,.32,5.39-.35,10.71-.88,16.05-.39,3.84-.28,7.73-.22,11.59,.02,1.31,.57,2.62,1.04,4.62,1.35-2.37,2.34-4.08,3.29-5.81,2.74-4.98,5.65-9.79,10.29-13.35,2.89-2.22,5.98-3.92,9.6-4.51,2.42-.4,4.55-1.37,6.4-2.97,5.26-4.55,10.73-8.88,15.73-13.7,8.96-8.63,19.35-14.56,31.38-17.52,7.55-1.87,15.23-3.03,23.03-1.66,2.23,.39,4.4,1.19,6.58,1.83,3.42,1.01,6.8,2.15,10.25,3.05,4,1.04,7.36,3.03,9.88,6.27,6.19,7.94,10.76,16.68,12.45,26.7,.37,2.24,.32,4.56,.29,6.84-.12,10.33-.18,20.67-.5,31-.38,12.51-.95,25.02-1.53,37.52-.51,10.95-.17,21.87,.88,32.76,.87,9.08,2.16,18.12,3.18,27.19,.4,3.55,.53,7.13,.85,10.69,.05,.6,.11,1.62,.09,2.27,.55,3.41,.15,5.4,.15,8.78,.1,.48-.06,1.46-.24,1.7-2.25,11.28-9.49,17.99-19.98,21.61-1.93,.67-4.08,.92-6.13,.92-4.38-.01-8.76-.24-13.12-.54-1.34-.09-2.75-.52-3.94-1.14-9.25-4.87-13.87-12.89-14.81-22.99-1.2-12.89-1.27-25.81,.74-38.65,1.54-9.91,1.43-19.79,.26-29.71-1.09-9.17-2.22-18.33-3.15-27.52-.49-4.94-.59-9.92-.87-14.88-.21-3.71-1.44-6.95-4.24-9.54-1.57-1.46-3.36-2.1-5.46-1.75-1.27,.21-2.51,.57-3.78,.83-4.76,.99-8.2,3.49-10.4,8.01-1.47,2.99-3.74,5.59-5.6,8.4-.87,1.32-1.64,2.7-2.41,4.08-1.84,3.29-3.5,6.68-5.51,9.86-3.14,4.96-7.51,8.49-13.32,9.85-7.16,1.67-11.49,6.18-13.06,13.16-1.41,6.28-2.57,12.64-3.4,19.03-1.15,8.86-2.07,17.76-2.75,26.67-.55,7.33-.64,14.69-.89,22.04-.23,6.68-2.4,12.84-4.99,18.88-1.17,2.73-3.49,4.3-6.25,5.17-6.97,2.21-14.07,2.57-21.2,1.01-2.99-.65-5.97-1.54-8.81-2.67-2.22-.88-4.7-1.81-5.15-4.77-.05-.32-.5-.59-.8-.85-4.14-3.51-5.62-8.24-6.3-13.4-1.06-7.96-.61-15.86,.37-23.78,.75-6.11,1.34-12.24,2.05-18.35,1.17-9.98-.09-19.85-1.37-29.7-1.24-9.54-3.3-19-4.17-28.56Zm48.9-33.19c-3,1.67-5.76,1.1-7.25-1.98-1.19-2.45-2.28-5.19-2.41-7.85-.25-4.82,.2-9.69,.42-14.53,.16-3.46,.5-6.91,.59-10.37,.04-1.56-.42-3.13-.51-4.7-.17-3.38-1.22-6.48-3.34-9.04-2.98-3.6-6.38-6.86-10.46-9.21-3.28-1.9-6.64-1.7-8.88,1.12-1.34,1.69-2.67,3.47-3.57,5.41-2.13,4.61-2.8,9.64-3.6,14.59-.77,4.78-1.35,9.58-1.93,14.38-.61,5-1.44,9.99-1.6,15.01-.33,10.5-.33,21.02,1.03,31.48,.58,4.51,.82,9.06,1.41,13.57,1.25,9.58,2.94,19.12,3.89,28.73,.76,7.69-.03,15.42-1.26,23.08-.99,6.13-2.11,12.27-2.61,18.45-.56,6.91-.66,13.86-.61,20.8,.03,3.11,.78,6.25,1.46,9.32,.85,3.88,4.05,5.98,6.89,8.27,.55,.43,1.49,.43,2.26,.53,4.12,.51,8.26,.9,12.36,1.52,3.89,.6,7.65,.27,11.45-.72,1.94-.51,3.34-1.55,3.91-3.28,1.27-3.82,2.56-7.69,3.26-11.64,.63-3.58,.49-7.29,.69-10.95,.41-7.41,.79-14.83,1.24-22.24,.12-2.07,.38-4.13,.64-6.19,.73-5.77,1.49-11.54,2.26-17.31,.75-5.56,1.31-11.14,2.94-16.57,2.43-8.03,7.09-13.84,15.31-16.38,4.07-1.26,7.81-3.14,10.2-6.78,2.05-3.13,3.69-6.54,5.55-9.81,1.22-2.14,2.4-4.31,3.77-6.35,2.08-3.12,4.47-6.05,6.42-9.24,2.34-3.81,5.43-6.55,9.7-7.85,2.35-.71,4.76-1.23,7.15-1.84,6.07-1.56,10.54,.97,14.31,5.49,3.09,3.7,4.13,8.02,4.17,12.69,.02,2.58-.16,5.19,.1,7.75,.64,6.38,1.57,12.73,2.22,19.11,.69,6.88,1.28,13.77,1.76,20.67,.59,8.54-.01,17.05-1.24,25.5-.95,6.47-1.71,12.94-1.6,19.48,.09,4.85,.36,9.7,.48,14.55,.12,5.05,1.57,9.74,3.8,14.2,.56,1.12,1.45,2.17,2.42,2.96,1.68,1.38,3.57,2.5,5.31,3.81,1.26,.94,2.62,1.32,4.18,1.22,2.46-.18,5.03-.8,7.38-.34,3.57,.69,6.7-.23,9.79-1.52,6.23-2.61,11.02-6.82,12.72-13.58,1.03-4.11,1.19-8.41,.88-12.68-.14-1.97-.33-3.94-.44-5.92-.24-3.95-.4-7.91-.68-11.86-.14-2.06-.02-4.31-.8-6.13-1.73-4.01-1.54-8.13-1.56-12.28-.02-3.48,.11-6.97-.07-10.44-.2-4.14-.8-8.26-.96-12.4-.11-2.75,.33-5.53,.4-8.29,.24-9.92,.45-19.84,.63-29.76,.08-3.98,.03-7.95,.12-11.93,.06-2.57,.46-5.13,.4-7.69-.09-3.96-.43-7.91-.67-11.87,.14-.01,.28-.01,.42-.02-.26-4.15-.52-8.3-.79-12.44-.71-10.65-5.1-19.8-11.54-28.09-1.81-2.35-4.17-3.82-7.17-4.4-2.32-.45-4.56-1.28-6.82-1.98-.95-.29-1.87-.67-2.78-1.04-3.81-1.55-7.73-2.27-11.84-1.8-4.42,.5-8.94,.54-13.24,1.53-11.03,2.56-20.57,7.99-28.8,15.82-4.67,4.44-9.63,8.57-14.57,12.71-3.11,2.62-6.47,4.82-10.68,5.51-4.28,.71-7.7,3.08-10.25,6.54-2.17,2.94-4.2,5.99-6.16,9.08-1.55,2.43-2.96,4.94-5.6,6.41Z"/>
        </g>
        <path class="cls-1" d="M865.07,155.05c.06,2.56-.34,5.13-.4,7.7-.1,3.97-.04,7.95-.12,11.93-.19,9.92-.39,19.84-.64,29.76-.07,2.77-.51,5.54-.4,8.29,.16,4.14,.76,8.26,.97,12.4,.17,3.47,.05,6.96,.06,10.44,.02,4.15-.17,8.27,1.56,12.28,.79,1.82,.66,4.07,.81,6.14,.28,3.95,.44,7.91,.67,11.86,.12,1.97,.3,3.94,.44,5.91,.31,4.27,.15,8.57-.88,12.69-1.7,6.75-6.49,10.97-12.72,13.58-3.08,1.29-6.22,2.21-9.78,1.52-2.35-.46-4.92,.17-7.39,.34-1.55,.11-2.91-.27-4.18-1.22-1.74-1.31-3.63-2.42-5.31-3.8-.97-.8-1.85-1.84-2.41-2.96-2.23-4.46-3.68-9.15-3.8-14.2-.12-4.85-.39-9.7-.48-14.56-.11-6.54,.65-13.01,1.59-19.48,1.23-8.44,1.84-16.95,1.24-25.49-.48-6.9-1.06-13.8-1.76-20.68-.64-6.38-1.58-12.73-2.22-19.11-.26-2.56-.08-5.17-.1-7.75-.04-4.67-1.07-8.99-4.16-12.69-3.77-4.52-8.24-7.05-14.32-5.5-2.38,.61-4.79,1.13-7.14,1.84-4.27,1.3-7.36,4.04-9.7,7.85-1.96,3.19-4.35,6.12-6.43,9.24-1.36,2.04-2.55,4.21-3.77,6.35-1.86,3.27-3.5,6.68-5.55,9.81-2.39,3.63-6.13,5.51-10.2,6.78-8.22,2.55-12.88,8.35-15.3,16.38-1.64,5.43-2.2,11.01-2.95,16.58-.77,5.77-1.53,11.53-2.26,17.31-.26,2.06-.52,4.12-.64,6.19-.44,7.41-.83,14.83-1.24,22.24-.2,3.65-.06,7.37-.69,10.95-.7,3.95-2,7.82-3.26,11.64-.57,1.73-1.97,2.77-3.91,3.27-3.8,.99-7.55,1.33-11.45,.73-4.1-.63-8.24-1.01-12.35-1.53-.77-.1-1.72-.09-2.26-.53-2.84-2.29-6.04-4.39-6.89-8.27-.67-3.07-1.43-6.21-1.46-9.32-.06-6.93,.05-13.89,.61-20.8,.5-6.18,1.62-12.32,2.61-18.45,1.23-7.66,2.02-15.39,1.26-23.09-.95-9.61-2.63-19.15-3.89-28.73-.59-4.5-.82-9.06-1.41-13.56-1.36-10.47-1.35-20.98-1.03-31.49,.16-5.01,.99-10.01,1.59-15.01,.58-4.8,1.16-9.6,1.93-14.38,.8-4.96,1.47-9.99,3.6-14.6,.9-1.94,2.23-3.72,3.57-5.4,2.24-2.82,5.61-3.02,8.89-1.13,4.07,2.35,7.48,5.61,10.46,9.22,2.12,2.56,3.16,5.66,3.34,9.03,.08,1.57,.54,3.14,.5,4.7-.09,3.46-.43,6.91-.58,10.37-.22,4.85-.68,9.71-.43,14.53,.14,2.66,1.23,5.4,2.41,7.84,1.49,3.08,4.25,3.65,7.26,1.98,2.64-1.47,4.05-3.98,5.6-6.41,1.96-3.08,3.99-6.14,6.15-9.08,2.55-3.46,5.97-5.83,10.25-6.54,4.2-.69,7.56-2.89,10.68-5.51,4.93-4.14,9.9-8.27,14.56-12.71,8.23-7.83,17.77-13.26,28.8-15.81,4.3-1,8.82-1.03,13.24-1.54,4.11-.47,8.04,.25,11.84,1.8,.92,.37,1.84,.75,2.78,1.04,2.26,.7,4.51,1.53,6.82,1.98,3,.58,5.36,2.05,7.18,4.4,6.43,8.29,10.83,17.44,11.53,28.09,.27,4.15,.53,8.3,.8,12.44m-9.87,59.9c.79-1.61,1.62-2.68,1.82-3.86,.55-3.28,1.09-6.6,1.17-9.91,.09-3.83-.2-7.69-.58-11.51-.2-2.01-.52-4.1-2.15-5.67-2.28-2.21-6-1.44-6.82,1.6-.42,1.55-.45,3.3-.27,4.91,.37,3.3,1.02,6.58,1.54,9.86,.68,4.28,1.79,8.43,3.59,12.38,.28,.6,.82,1.08,1.69,2.2Zm-2.35,75.55c0-.89,.07-1.79-.02-2.67-.13-1.27-.23-2.56-.6-3.77-.37-1.2-.91-2.42-1.66-3.43-1.59-2.14-5.94-2.88-7.26,1.19-.33,1.01-.57,2.1-.59,3.16-.05,3.27-.12,6.55,.09,9.8,.14,2.23,.66,4.45,1.16,6.64,.36,1.58,1.56,2.1,3.15,2.07,1.77-.03,2.65-1.17,3.41-2.46,1.9-3.25,2.08-6.9,2.32-10.53Zm-49.15-168.4c.21-.05,.85-.06,1.34-.33,3.27-1.81,6.91-2.1,10.49-2.77,2.59-.48,5.15-1.35,7.56-2.41,1.11-.49,2.98-.93,2.83-2.64-.15-1.69-1.82-2.17-3.24-2.62-5.42-1.7-10.91-1.52-16.36-.25-3.05,.71-5.25,2.67-6.32,5.71-.94,2.69,.72,5.32,3.69,5.3Zm-95.76,23.74c.95-1.48,1.76-2.38,2.15-3.44,.65-1.73,1.15-3.54,1.49-5.36,.61-3.27,1.18-6.55,1.51-9.86,.21-2.08-1.15-3.67-2.8-3.9-1.72-.24-3.19,.77-3.78,2.97-.43,1.59-.32,3.33-.72,4.93-.94,3.76-.44,7.43,.43,11.08,.26,1.07,.96,2.04,1.71,3.57Zm78.6-12.29c-.53-.34-.83-.67-1.01-.62-4.93,1.45-9.6,3.48-13.7,6.63-1.58,1.21-1.84,2.86-.93,4.14,.91,1.28,2.97,1.65,4.52,.55,4.19-2.97,8.2-6.16,11.12-10.7Zm-78.71,171.67c-.46-4.95-2.07-9.26-3.98-13.45-.24-.52-1.64-.93-2.31-.74-.81,.24-1.68,1.05-2.03,1.84-.32,.72-.22,1.84,.12,2.59,1.14,2.51,2.34,5.01,3.76,7.36,.81,1.34,2.14,2.32,4.43,2.39Zm3.97-12.55c-2.82-.01-4.22,1.92-3.03,4.33,1.08,2.18,2.53,4.19,3.91,6.21,.3,.45,.91,.83,1.45,.96,.8,.19,1.91,.48,2.43,.1,.53-.38,.85-1.63,.65-2.32-.77-2.61-1.8-5.15-2.73-7.72-.49-1.37-1.56-1.66-2.67-1.56Zm-11.43-146.9l.55-.04c.28-.8,.68-1.58,.81-2.41,.66-4.28,1.24-8.57,1.85-12.85,.21-1.46,.51-2.92,.56-4.39,.02-.53-.57-1.52-.9-1.52-.79-.02-1.87,.19-2.32,.73-.58,.7-.85,1.8-.91,2.76-.27,4.24-.53,8.48-.56,12.73-.01,1.67,.6,3.34,.93,5Zm157.09,150.52c1.39-.5,2.38-1.36,2.64-2.83,.43-2.4,.85-4.81,1.1-7.24,.17-1.66,.03-3.35,.05-5.03,.01-1.33-.49-2.45-1.82-2.69-1.42-.26-2.12,.8-2.39,2.07-.2,.95-.45,1.93-.43,2.89,.03,1.46,.31,2.92,.4,4.39,.18,2.77,.3,5.54,.45,8.45Zm-5.97-171.47c.27-1.64-.72-2.74-2.17-2.72-1.41,.02-3.04,1.66-2.84,3.25,.33,2.61,1.62,4.84,3.55,6.62,.57,.53,1.44,.04,1.45-.76,.02-2.13,0-4.26,0-6.39Zm-151.44,58.1c0-.3,0-.59,0-.89,0-1.23,0-2.49-1.63-2.66-1.57-.16-1.89,1.01-2.25,2.21-.86,2.92,.28,5.6,.86,8.36,.06,.29,.57,.76,.7,.71,.39-.15,.9-.47,.98-.81"/>
        <path class="cls-4" d="M707.58,293.33c-2.29-.07-3.62-1.05-4.43-2.39-1.42-2.35-2.63-4.85-3.76-7.36-.34-.75-.44-1.87-.12-2.59,.35-.79,1.22-1.6,2.03-1.84,.67-.19,2.07,.22,2.31,.74,1.91,4.19,3.52,8.49,3.98,13.45Z"/>
        <path class="cls-1" d="M711.54,280.79c1.12-.11,2.18,.19,2.67,1.56,.92,2.57,1.95,5.11,2.73,7.72,.2,.69-.12,1.94-.65,2.32-.52,.38-1.63,.1-2.43-.1-.54-.13-1.14-.51-1.45-.96-1.37-2.03-2.83-4.03-3.91-6.21-1.19-2.41,.21-4.34,3.03-4.33Z"/>
        <path class="cls-13" d="M700.12,133.89c-.33-1.67-.94-3.34-.93-5,.03-4.24,.29-8.49,.56-12.73,.06-.95,.33-2.05,.91-2.76,.45-.54,1.53-.75,2.32-.73,.33,0,.91,1,.9,1.52-.05,1.47-.35,2.93-.56,4.39-.61,4.29-1.19,8.57-1.85,12.85-.13,.82-.53,1.61-.81,2.41l-.55,.04Z"/>
        <path class="cls-15" d="M857.21,284.41c-.15-2.91-.27-5.68-.45-8.45-.09-1.47-.37-2.92-.4-4.39-.02-.96,.22-1.94,.43-2.89,.27-1.27,.97-2.32,2.39-2.07,1.32,.24,1.83,1.36,1.82,2.69-.02,1.68,.12,3.37-.05,5.03-.25,2.43-.67,4.84-1.1,7.24-.26,1.47-1.26,2.33-2.64,2.83Z"/>
        <path class="cls-5" d="M851.23,112.94c0,2.13,.02,4.26,0,6.39,0,.8-.88,1.29-1.45,.76-1.94-1.79-3.22-4.01-3.55-6.62-.2-1.58,1.43-3.23,2.84-3.25,1.45-.02,2.44,1.08,2.17,2.72Z"/>
        <path class="cls-14" d="M698.46,177.95c-.09,.35-.6,.66-.98,.81-.13,.05-.64-.42-.7-.71-.58-2.75-1.72-5.44-.86-8.36,.36-1.2,.68-2.37,2.25-2.21,1.64,.17,1.64,1.44,1.63,2.66,0,.3,0,.59,0,.89"/>
      </g>
      <g>
        <path d="M1197.04,304.42c-9.14-.07-17.52-3.37-25.99-6.17-8.57-2.83-16.98-6.14-25.51-9.09-6.34-2.2-11.82-5.47-15.79-11.03-2.09-2.93-3.63-6.12-4.64-9.53-1.09-3.68-3.11-6.69-5.6-9.59-3.63-4.22-6.97-8.68-10.28-13.16-1.3-1.76-2.29-3.78-3.22-5.77-.6-1.28-1.26-2.77-1.15-4.1,.25-2.97-1-5.37-2.16-7.89-2.31-5.01-3.63-10.32-4.19-15.78-.57-5.55,.58-10.88,2.52-16.06,.54-1.44,1.1-2.88,1.79-4.24,6.38-12.56,9.59-26.09,11.75-39.85,1.84-11.71,5.14-22.81,11.61-32.83,5.74-8.89,12.69-16.6,21.79-22.26,6.19-3.85,12.87-5.93,20.16-6.1,5.09-.11,10.21,.1,15.26-.39,5.53-.54,11.01-1.71,16.5-2.61,7.27-1.19,14.53-1.41,21.81-.08,.57,.1,1.14,.18,1.71,.23,3.97,.33,7.51,1.72,10.36,4.51,3.24,3.17,7.03,5.2,11.34,6.58,5.16,1.66,9.77,4.38,13.94,7.93,5.51,4.69,10.41,9.91,15.03,15.48,5.51,6.65,6.76,14.02,4.96,22.14-.56,2.51-1.25,5.08-2.41,7.35-3.63,7.11-9.63,11.06-17.52,12.06-6.55,.83-12.68-.24-17.86-4.69-5.25-4.51-11.51-6.86-18.07-8.56-8.1-2.1-16.11-4.44-23.74-7.95-6.09-2.8-11.66-1.39-15.94,3.87-.97,1.19-1.75,2.52-2.61,3.8-1.92,2.87-3.76,5.8-5.77,8.61-1.81,2.53-3.24,5.23-3.99,8.24-1.31,5.26-3.81,9.81-7.77,13.54-3.37,3.17-5.09,7.2-5.85,11.63-.8,4.62-1.44,9.28-1.94,13.95-.36,3.36,.12,6.69,1,9.97,1.67,6.24,4.2,12.12,6.98,17.93,4.1,8.6,9.5,11.4,20.24,10.61,3.9-.29,7.76-1.3,11.63-1.98,4.35-.76,8.68-1.67,13.06-2.24,4.07-.54,7.53-2.18,10.56-4.85,3.1-2.73,6.08-5.61,9.31-8.18,2.47-1.96,5.11-3.78,7.91-5.21,4.53-2.3,9.17-4.43,13.91-6.25,3.69-1.42,7.62-1.81,11.64-1.12,4.93,.84,8.93,3.19,11.56,7.35,2.82,4.45,5.55,9.01,7.75,13.79,3.77,8.21,4.18,16.62,.36,25.06-3.21,7.07-6.92,13.78-13.4,18.4-3.03,2.16-6.33,3.99-9.66,5.68-4.71,2.38-9.74,4.17-14.3,6.78-8.15,4.66-16.95,7.13-26.04,8.93-3.11,.62-6.2,1.34-9.29,2.07-3.86,.9-7.77,1.31-11.72,1.09Z"/>
        <path class="cls-1" d="M1175.17,96.88c-2.11,0-4.23,0-6.34,0-6.42,.03-12.32,1.84-17.71,5.31-14.38,9.25-23.62,22.35-28.34,38.58-1.82,6.24-2.78,12.73-4.06,19.12-2.34,11.7-5.47,23.13-10.79,33.88-1.19,2.4-2.1,4.95-2.91,7.5-.96,3.02-1.59,6.13-1.16,9.35,.64,4.76,1.57,9.45,3.2,13.99,1.32,3.7,2.56,7.43,3.87,11.13,.31,.89,.67,1.78,1.18,2.57,4.05,6.31,8.26,12.49,13.4,18,2.46,2.64,4.08,5.74,5.27,9.15,.95,2.69,2.11,5.37,3.58,7.81,3.18,5.28,8.28,8.07,13.93,10.12,7.4,2.7,14.72,5.6,22.08,8.38,1.8,.68,3.62,1.28,5.46,1.85,3.21,.99,6.46,1.86,9.66,2.9,4.9,1.58,9.93,2.26,15.04,2.34,2.09,.03,4.23-.2,6.28-.61,6.68-1.35,13.33-2.9,20.01-4.26,3.33-.68,6.47-1.79,9.48-3.33,7.28-3.7,14.54-7.42,22.27-10.15,3.02-1.07,5.57-2.94,8.04-4.98,3.84-3.18,5.85-7.54,8.15-11.74,4.86-8.9,4.48-17.86,.09-26.74-1.61-3.26-3.63-6.32-5.57-9.41-3.02-4.82-7.52-6.84-13.06-5.96-9.43,1.49-17.64,5.8-25.05,11.65-3.01,2.38-5.8,5.05-8.78,7.48-3.64,2.97-7.74,4.87-12.51,5.41-4.57,.52-9.11,1.36-13.66,2.09-4.17,.68-8.31,1.66-12.51,2.08-10.76,1.07-19.12-2.36-24.13-11.86-3.28-6.22-6.44-12.47-8.16-19.28-.88-3.5-1.47-7.17-1.52-10.77-.05-4,.6-8.02,1.05-12.01,.91-8.1,3.4-15.51,9.47-21.37,2.46-2.38,3.92-5.41,4.97-8.66,.62-1.91,1.1-3.96,2.17-5.62,4.09-6.37,7.97-12.94,12.73-18.8,5.57-6.86,13.31-8.76,21.74-4.32,6.17,3.25,12.78,5.24,19.48,7.01,8.32,2.2,16.32,4.93,23.01,10.75,4.38,3.81,9.77,4.71,15.47,3.43,6.37-1.43,10.72-5.15,12.33-11.52,.82-3.23,1.28-6.6,1.43-9.92,.17-3.72-.92-7.2-3.46-10.11-1.64-1.88-3.12-3.91-4.84-5.72-6.53-6.86-13.48-13.2-22.67-16.38-5-1.73-9.44-4.25-13.13-8.06-1.5-1.55-3.36-2.58-5.51-2.95-7.53-1.3-15.07-1.67-22.67-.48-8.72,1.36-17.31,3.89-26.29,3.14Z"/>
        <path d="M1261.95,132.04c-.03,.37-.06,1.33-.19,2.27-.03,.22-.35,.55-.54,.55-.32,0-.86-.15-.93-.36-1.44-4.27-4.6-7.48-6.93-11.2-.25-.4-.61-.89-.57-1.29,.1-.89,.2-1.92,.7-2.6,.7-.94,1.87-.9,2.88-.34,.57,.32,1.16,.74,1.54,1.26,2.42,3.31,4.2,6.86,4.03,11.7Z"/>
        <path d="M1140.08,208.1c-.42-1.7-.99-3.23-1.12-4.79-.21-2.38-.15-4.78-.11-7.17,.01-.62,.24-1.46,.68-1.8,.61-.47,1.54-.84,2.28-.75,.59,.07,1.52,.84,1.57,1.36,.39,4.42,.22,8.78-2.25,12.71-.08,.13-.33,.15-1.05,.45Z"/>
        <path d="M1243.34,112.1c-.41,.12-.62,.25-.76,.21-3.35-1.12-6.69-2.25-10.03-3.4-.36-.12-.85-.25-.99-.52-.38-.72-.93-1.58-.79-2.26,.14-.67,.97-1.28,1.62-1.75,.33-.23,.93-.13,1.41-.1,3.83,.22,8.21,3.77,9.54,7.82Z"/>
        <path d="M1262.64,240.03c-2.41-2.18-4.39-3.96-6.36-5.76-.21-.19-.4-.42-.56-.65-.97-1.39-.98-2.69-.05-3.67,.96-1,2.71-1.1,3.91,.02,2.74,2.55,4.16,5.61,3.06,10.06Z"/>
        <path d="M1176.13,105.97c-.97,0-1.47,.12-1.87-.02-1.92-.67-3.87-.98-5.89-.63-.37,.06-.77,.06-1.14,0-1.53-.2-2.35-1.02-2.4-2.35-.05-1.46,.8-2.49,2.37-2.72,2.93-.43,5.21,.83,7.1,2.91,.62,.68,1.04,1.56,1.84,2.8Z"/>
        <path d="M1247.55,235.41c-1.67,.42-3.1,.94-4.58,1.12-1.52,.18-2.72-.9-2.85-2.24-.15-1.48,.95-2.66,2.6-2.82,2.24-.22,3.45,.68,4.82,3.94Z"/>
        <path d="M1154.43,165.77c-.86-2.89-.35-4.98,.73-6.89,.82-1.45,2.59-1.75,3.72-.91,1.1,.82,1.15,2.46-.09,3.78-1.23,1.3-2.63,2.45-4.36,4.03Z"/>
        <path d="M1270.63,246.77c-.1,.82-.04,1.25-.21,1.56-.35,.62-.82,1.18-1.25,1.76-.47-.41-1.02-.76-1.38-1.25-.62-.84-1.19-1.73-1.63-2.67-.6-1.28-.21-2.49,.79-2.97,1.13-.54,2.46-.06,3.06,1.26,.38,.84,.49,1.8,.62,2.31Z"/>
      </g>
    </g>
  </g>
</svg>