<?xml version="1.0" encoding="UTF-8"?>
<svg xmlns="http://www.w3.org/2000/svg" viewBox="0 0 814 264.36">
  <defs>
    <style>
      .cls-1 {
        fill: #fff;
      }

      .cls-2 {
        fill: #14100f;
      }

      .cls-3 {
        fill: #100e0b;
      }

      .cls-4 {
        fill: #171012;
      }

      .cls-5 {
        fill: #151010;
      }

      .cls-6 {
        fill: #0f0d0a;
      }

      .cls-7 {
        fill: none;
        stroke: #000;
        stroke-miterlimit: 10;
        stroke-width: 6px;
      }

      .cls-8 {
        fill: #14110e;
      }

      .cls-9 {
        fill: #0f0e0b;
      }

      .cls-10 {
        fill: #191015;
      }

      .cls-11 {
        fill: #12100d;
      }

      .cls-12 {
        fill: #191311;
      }

      .cls-13 {
        fill: #100e0c;
      }

      .cls-14 {
        fill: #13100d;
      }

      .cls-15 {
        fill: #13100e;
      }

      .cls-16 {
        fill: #11100d;
      }

      .cls-17 {
        fill: #0e0c09;
      }

      .cls-18 {
        fill: #100f0c;
      }
    </style>
  </defs>
  <g id="_лой_1" data-name="Слой 1"/>
  <g id="_лой_2" data-name="Слой 2">
    <g id="_лой_6" data-name="Слой 6">
      <g>
        <g>
          <path class="cls-17" d="M237.21,185.5c.82-7.12-.51-13.98-1.94-20.89-1-4.85-1.7-9.77-2.4-14.68-1.36-9.6,.94-18.48,5.73-26.75,3.14-5.42,7.76-9.03,13.95-10.55,6.23-1.53,11.34-4.78,15.28-9.93,3.84-5.01,7.84-9.89,11.78-14.81,4.89-6.11,10.97-10.72,18.24-13.51,6.55-2.51,13.19-4.83,19.92-6.78,7.48-2.17,15.18-1.62,22.79-.54,7.81,1.11,15.21,3.77,22.65,6.23,5.78,1.91,11.59,3.74,17.42,5.49,2.67,.8,3.86,.18,4.32-2.38,2.21-12.19,9.71-21.08,18.4-29.07,4.72-4.34,10.13-7.95,16.62-9.23,2.6-.52,5.33-.64,7.99-.52,2.67,.12,4.83,1.55,6.64,3.59,3.97,4.48,4.99,9.92,5,15.59,.02,8.64-1.39,17.07-4.35,25.23-1.37,3.79-2.6,7.62-3.99,11.4-2,5.46-1.5,10.69,.85,15.96,1.38,3.09,2.67,6.32,3.34,9.61,1.11,5.46,.28,10.87-1.6,16.14-2.11,5.93-4.48,11.81-5.95,17.91-2.65,11.05-3.2,22.27-1.17,33.55,.85,4.73,3.31,8.64,5.96,12.48,1.18,1.7,2.48,3.31,3.8,4.91,6.36,7.68,10,16.6,11.73,26.31,.58,3.24,.64,6.59,.69,9.89,.09,6.11-3.29,10.29-8.47,12.64-7.35,3.34-15.17,4.62-23.29,3.23-8.99-1.54-16.3-6.3-23.17-11.9-4.09-3.33-7.99-6.89-11.98-10.34-.7-.61-1.46-1.16-2.16-1.77-3.13-2.71-6.48-1.63-8.3,1.01-.88,1.27-1.94,2.42-2.89,3.65-3.07,3.97-7.22,5.78-12.14,5.82-2.57,.02-5.15-.19-7.7-.5-1.31-.16-2.1,.15-2.88,1.19-3.49,4.62-8,8.03-13.11,10.7-3.29,1.73-6.53,3.57-9.86,5.2-7.09,3.48-14.56,5.27-22.5,4.65-11.54-.91-22.79-3.1-32.92-8.95-5.17-2.99-10.22-6.36-14.76-10.23-10.83-9.25-16.85-21.01-16.79-35.52,0-1.97,0-3.93,0-5.9m6.37,7.38c-.02,10.67,4.16,19.63,11.91,26.66,6.35,5.76,13.45,10.64,21.41,14.1,9.28,4.04,19.07,5.4,29.05,5.32,3.43-.03,7.07-.74,10.24-2.05,5.32-2.2,10.37-5.08,15.48-7.78,3.6-1.91,6.9-4.37,9.25-7.67,2.85-4.02,6.19-5.4,11.14-4.58,5.99,.99,11.59-.21,15.2-5.91,.11-.17,.28-.3,.42-.46,4.61-5.4,12.37-5.42,16.82-2,1.97,1.51,3.9,3.06,5.78,4.67,3.85,3.3,7.54,6.79,11.5,9.95,4.64,3.7,9.8,6.46,15.67,7.82,6.64,1.55,13.13,1.13,19.53-1.05,4.77-1.62,6.79-4.74,6.34-9.67-.23-2.47-.36-4.96-.83-7.39-1.64-8.46-4.95-16.17-10.67-22.73-1.09-1.25-2.05-2.6-3.12-3.86-5.48-6.5-8.16-14.16-8.69-22.48-.98-15.44,.62-30.51,7.09-44.85,3.8-8.43,5.12-17.04-.17-25.52-.54-.86-.79-1.91-1.14-2.88-1.88-5.22-2.18-10.47-.36-15.79,1.74-5.08,3.38-10.19,5.12-15.27,2.5-7.3,3.96-14.78,3.51-22.51-.12-2.11-.72-4.3-1.6-6.23-1.57-3.42-4.4-4.72-8.12-4.35-3.34,.33-6.46,1.23-9.3,3.1-11.28,7.39-18.84,17.47-22.31,30.55-1.47,5.53-4.86,8.17-10.56,7.86-2.25-.12-4.54-.5-6.7-1.13-8.61-2.54-17.21-5.14-25.75-7.91-6.88-2.23-13.9-3.1-21.08-2.87-7.56,.25-14.54,2.88-21.58,5.28-9.69,3.3-17.52,9.1-23.7,17.26-3,3.95-6.24,7.72-9.48,11.48-4.32,5.01-9.88,8.15-16.17,9.88-3.54,.97-6.58,2.67-8.89,5.36-2.68,3.12-5.06,6.53-7.33,9.97-.73,1.11-1.01,2.71-1,4.08,.04,3.09,.23,6.21,.66,9.27,1.07,7.67,2.19,15.33,3.52,22.96,.86,4.94,1.09,9.81,.42,14.79-.86,6.44-1.39,12.92-2.06,19.39"/>
          <path class="cls-1" d="M243.9,183.91c.66-4.99,.44-9.86-.42-14.79-1.33-7.63-2.45-15.29-3.52-22.96-.43-3.06-.62-6.18-.66-9.27-.02-1.37,.26-2.97,1-4.08,2.27-3.44,4.64-6.85,7.33-9.97,2.31-2.68,5.36-4.38,8.89-5.36,6.3-1.73,11.86-4.87,16.17-9.88,3.24-3.76,6.49-7.53,9.48-11.48,6.18-8.16,14.02-13.96,23.7-17.26,7.04-2.4,14.02-5.03,21.58-5.28,7.19-.24,14.2,.64,21.08,2.87,8.54,2.77,17.14,5.36,25.75,7.91,2.16,.64,4.45,1.02,6.7,1.13,5.71,.3,9.09-2.33,10.56-7.86,3.47-13.08,11.03-23.17,22.31-30.55,2.85-1.86,5.96-2.76,9.3-3.1,3.72-.37,6.55,.93,8.12,4.35,.88,1.92,1.48,4.12,1.6,6.23,.45,7.73-1.01,15.21-3.51,22.51-1.74,5.08-3.38,10.19-5.12,15.27-1.82,5.32-1.52,10.57,.36,15.79,.35,.97,.6,2.02,1.14,2.88,5.29,8.48,3.97,17.09,.17,25.52-6.47,14.34-8.07,29.41-7.09,44.85,.53,8.31,3.21,15.98,8.69,22.48,1.07,1.26,2.03,2.61,3.12,3.86,5.73,6.56,9.03,14.27,10.67,22.73,.47,2.43,.6,4.92,.83,7.39,.46,4.93-1.57,8.04-6.34,9.67-6.41,2.18-12.89,2.59-19.53,1.05-5.87-1.37-11.03-4.12-15.67-7.82-3.96-3.16-7.65-6.65-11.5-9.95-1.88-1.61-3.82-3.16-5.78-4.67-4.45-3.42-12.22-3.4-16.82,2-.13,.16-.31,.29-.42,.46-3.61,5.71-9.21,6.9-15.2,5.91-4.95-.82-8.29,.56-11.14,4.58-2.35,3.31-5.65,5.77-9.25,7.67-5.11,2.7-10.16,5.58-15.48,7.78-3.17,1.31-6.81,2.03-10.24,2.05-9.98,.08-19.77-1.28-29.05-5.32-7.96-3.46-15.06-8.34-21.41-14.1-7.75-7.03-11.93-15.99-11.91-26.66,0-2.38-.63-4.5-.63-6.87m47.8-26.87c0,.52,.05,1.04,0,1.55-.74,6.29,4.63,13.27,11.52,14.45,3.6,.62,6.61,2.21,9.37,4.48,4.43,3.64,9.32,6.41,14.78,8.29,10.16,3.5,19.37,1.75,27.72-4.74,5.89-4.58,9.07-10.69,8.81-18.25-.13-3.81-.55-7.63-1.09-11.41-1.22-8.62-2.27-17.22-.86-25.92,.55-3.36,1.23-6.71,1.55-10.09,.29-2.97,.56-6.03,.16-8.96-.79-5.73-4.64-9.01-9.9-10.79-8.24-2.78-15.88-.89-23.19,3.15-6.14,3.39-10.19,8.76-13.12,14.9-3.6,7.54-8.85,13.67-14.99,19.16-1.62,1.44-3.27,2.88-4.67,4.52-4.8,5.67-6.04,12.49-6.08,19.66Zm33.09-91.9c-.62,0-1.25-.07-1.86,.01-6.78,.94-12.69,3.94-18.2,7.8-1.51,1.06-3.01,2.21-4.22,3.59-3.1,3.55-2.04,8.6,2.33,9.94,2.45,.75,4.38-.42,6.21-1.79,5.91-4.43,11.78-8.91,17.71-13.32,.8-.59,1.81-.9,2.74-1.3,.61-.26,1.79-.53,1.77-.68-.11-.85-.3-1.82-.83-2.45-1.45-1.73-3.54-1.9-5.65-1.81Zm81.94,60c-.17-1.06-.54-2.66-.66-4.28-.09-1.33-.21-2.53-1.75-2.84-1.55-.32-2.97-.27-4.26,1.05-1.89,1.94-2.82,4.29-3.38,6.81-.89,3.98-1.78,7.97-2.4,12-.46,2.93-.61,5.93-.67,8.9-.04,1.93,.41,3.86,.53,5.8,.1,1.62,.02,3.25,1.48,4.4,1.19-1.06,2.39-2.09,3.54-3.19,.28-.27,.4-.72,.54-1.1,1.24-3.47,2.65-6.9,3.67-10.44,1.55-5.4,2.99-10.85,3.36-17.1Zm-138.31,8.03c2.32,0,4.65-1.68,5.19-4.11,1.57-7.03,4.36-13.64,6.83-20.37,.28-.77,.55-1.56,.68-2.36,.27-1.71-.38-2.49-2.01-2.04-1.86,.51-3.89,1.06-5.36,2.22-6.1,4.81-10.2,11.1-11.67,18.73-.73,3.78,2.21,7.57,6.35,7.93Zm146.89-77.21c0,1.24-.08,2.49,.03,3.72,.08,.91,.35,1.8,.61,2.68,.65,2.17,2.6,3.42,4.37,2.6,.88-.41,1.76-1.21,2.22-2.06,.87-1.61,1.6-3.33,2.07-5.09,.82-3.05,1.24-6.21,2.11-9.24,.62-2.13,.33-4.07-.36-6.02-.83-2.37-1.83-2.97-4.42-2.95-2.52,.03-4,1-4.72,3.97m-10.38,153.98c-1.11,.92-2.11,1.48-2.71,2.33-.98,1.38-.66,2.94-.04,4.43,2.48,5.96,6.37,10.77,11.79,14.3,.42,.27,1.09,.15,1.64,.22-.11-.55-.13-1.14-.34-1.65-2.15-5.11-4.33-10.2-6.5-15.29-.28-.66-.43-1.46-.89-1.95-.8-.84-1.8-1.48-2.95-2.38Zm-10.84-136.13c-.13,2.8,.86,4.48,2.57,4.94,2.03,.54,3.64-.37,4.61-2.66,.24-.57,.44-1.16,.57-1.77,.89-4.13,1.73-8.27,2.65-12.4,.24-1.1-.34-1.36-1.14-1.22-.78,.14-1.64,.41-2.24,.91-3.99,3.31-6.2,7.64-7.02,12.19Zm16.32,73.92c.09,.01-.19,.14-.1,.16,0,.93-.07,1.86,.03,2.78,.05,.43,.43,.83,.66,1.24,.39-.22,.84-.39,1.16-.69,.28-.27,.49-.67,.62-1.05,1.66-4.86,3.34-9.7,4.89-14.59,.3-.94,.36-2.13,.06-3.04-.28-.85-1.09-1.97-1.84-2.12-.93-.19-2.17,.3-3.01,.88-.55,.38-.78,1.42-.9,2.2-.68,4.78-.93,9.45-1.56,14.23Zm-149.46-27.4c-.75,0-1.58-.14-2.35,.02-4.29,.95-10.18,9.31-9.7,13.71,.16,1.46,.9,2.59,2.36,2.95,1.61,.4,2.5-.62,3.1-1.95,2.18-4.87,4.36-9.74,6.6-14.73Zm-5.89,31.94c-4.22,2.28-7.03,9.19-5.58,13.4,.54,1.59,2.09,2.65,3.53,2.44,1.39-.21,2.34-1.31,2.4-3.15,.04-1.43-.29-2.87-.32-4.3-.06-2.76-.02-5.52-.02-8.38Z"/>
          <path class="cls-17" d="M289.56,176.74c.04-7.17,1.28-13.99,6.08-19.66,1.4-1.65,3.05-3.08,4.67-4.52,6.15-5.49,11.39-11.62,14.99-19.16,2.93-6.14,6.98-11.51,13.12-14.9,7.32-4.04,14.95-5.93,23.19-3.15,5.27,1.78,9.12,5.06,9.9,10.79,.4,2.93,.13,5.99-.16,8.96-.33,3.38-1.01,6.73-1.55,10.09-1.42,8.7-.36,17.3,.86,25.92,.54,3.78,.96,7.6,1.09,11.41,.26,7.57-2.92,13.67-8.81,18.25-8.35,6.49-17.56,8.24-27.72,4.74-5.46-1.88-10.36-4.65-14.78-8.29-2.77-2.28-5.77-3.87-9.37-4.48-6.89-1.18-12.25-8.15-11.52-14.45,.06-.51,0-1.03,0-1.55Zm4.06-1.47c.26,1.04,.21,2.86,1.08,3.89,2.8,3.33,5.99,6.34,10.21,7.85,4.15,1.47,7.81,3.72,11.25,6.42,3.72,2.91,8,4.66,12.52,5.91,7.59,2.11,14.36,.36,20.32-4.5,4.41-3.6,6.62-8.43,6.19-14.19-.28-3.81-.71-7.63-1.37-11.39-1.76-10.08-2.15-20.1,.14-30.17,.75-3.3,1.08-6.73,1.29-10.11,.25-3.96-1.72-6.63-5.41-8.15-2.57-1.05-5.19-1.32-7.9-.92-9.01,1.3-15.79,5.97-20.09,13.93-5.09,9.42-11.75,17.42-20.13,24.09-5.35,4.26-7.32,10.29-8.11,17.35Z"/>
          <path class="cls-1" d="M322.65,84.83c2.1-.09,4.19,.07,5.65,1.81,.53,.63,.72,1.6,.83,2.45,.02,.15-1.16,.42-1.77,.68-.93,.4-1.95,.71-2.74,1.3-5.93,4.41-11.8,8.88-17.71,13.32-1.83,1.37-3.76,2.54-6.21,1.79-4.37-1.34-5.43-6.39-2.33-9.94,1.2-1.38,2.71-2.54,4.22-3.59,5.52-3.86,11.43-6.86,18.2-7.8,.61-.08,1.24-.01,1.86-.01Z"/>
          <path class="cls-1" d="M404.59,144.83c-.37,6.26-1.81,11.7-3.36,17.1-1.02,3.54-2.42,6.97-3.67,10.44-.14,.39-.26,.84-.54,1.1-1.15,1.1-2.36,2.13-3.54,3.19-1.45-1.15-1.38-2.78-1.48-4.4-.12-1.94-.56-3.87-.53-5.8,.05-2.97,.21-5.97,.67-8.9,.63-4.03,1.51-8.02,2.4-12,.56-2.52,1.49-4.87,3.38-6.81,1.29-1.32,2.7-1.37,4.26-1.05,1.53,.31,1.65,1.51,1.75,2.84,.12,1.62,.49,3.22,.66,4.28Z"/>
          <path class="cls-1" d="M266.28,152.86c-4.14-.36-7.08-4.15-6.35-7.93,1.47-7.63,5.57-13.92,11.67-18.73,1.47-1.16,3.5-1.71,5.36-2.22,1.63-.44,2.28,.34,2.01,2.04-.13,.8-.39,1.59-.68,2.36-2.47,6.72-5.26,13.33-6.83,20.37-.54,2.42-2.87,4.1-5.19,4.11Z"/>
          <path class="cls-1" d="M415.08,63.27c.73-2.96,2.2-3.94,4.72-3.97,2.58-.03,3.58,.58,4.42,2.95,.69,1.95,.98,3.89,.36,6.02-.88,3.03-1.3,6.19-2.11,9.24-.47,1.76-1.21,3.48-2.07,5.09-.46,.85-1.34,1.65-2.22,2.06-1.77,.82-3.72-.43-4.37-2.6-.26-.88-.54-1.78-.61-2.68-.1-1.23-.03-2.48-.03-3.72"/>
          <path class="cls-6" d="M404.7,217.25c1.49,.69,2.15,1.55,2.95,2.38,.47,.49,.61,1.28,.89,1.95,2.17,5.1,4.35,10.19,6.5,15.29,.21,.51,.23,1.1,.34,1.65-.55-.06-1.22,.06-1.64-.22-5.42-3.53-9.31-8.34-11.79-14.3-.62-1.49-.94-3.05,.04-4.43,.6-.84,1.32-1.64,2.71-2.33Z"/>
          <path class="cls-6" d="M393.86,81.12c.82-4.55,3.03-8.88,7.02-12.19,.59-.49,1.46-.76,2.24-.91,.79-.15,1.38,.12,1.14,1.22-.92,4.13-1.76,8.27-2.65,12.4-.13,.6-.32,1.2-.57,1.77-.98,2.29-2.59,3.2-4.61,2.66-1.71-.46-2.7-2.14-2.57-4.94Z"/>
          <path class="cls-6" d="M411.75,140.81c.11-.78,.35-1.82,.9-2.2,.84-.58,2.08-1.07,3.01-.88,.75,.15,1.56,1.27,1.84,2.12,.3,.92,.24,2.1-.06,3.04-1.56,4.89-3.24,9.74-4.89,14.59-.13,.38-.33,.78-.62,1.05-.32,.3-.76,.47-1.16,.69-.23-.41-.61-.81-.66-1.24-.1-.92-.03-1.85-.03-2.78"/>
          <path class="cls-3" d="M260.73,127.65c-2.24,5-4.41,9.87-6.6,14.73-.6,1.33-1.49,2.35-3.1,1.95-1.46-.36-2.2-1.49-2.36-2.95-.48-4.4,5.41-12.76,9.7-13.71,.76-.17,1.6-.02,2.35-.02Z"/>
          <path class="cls-3" d="M254.84,159.59c0,2.86-.04,5.62,.02,8.38,.03,1.44,.36,2.87,.32,4.3-.05,1.84-1.01,2.94-2.4,3.15-1.44,.22-2.98-.85-3.53-2.44-1.44-4.21,1.36-11.12,5.58-13.4Z"/>
        </g>
        <g>
          <g>
            <path class="cls-11" d="M217.73,19.8c1.23,4.28,1.75,8.6,1.5,13.11-.87,15.41-3.22,30.59-6.8,45.56-2.41,10.08-2.13,19.88,1.07,29.73,2.2,6.75,3.68,13.74,2.5,20.9-.61,3.67-1.87,7.23-2.96,10.81-.89,2.95-1.99,5.84-2.94,8.77-2.1,6.44-2.29,13.01-1.25,19.67,2.3,14.75,4.76,29.48,6.82,44.26,1.13,8.1,1.87,16.28,2.27,24.45,.38,7.94-2.91,14.64-8.43,20.18-2.38,2.39-5.38,3.8-8.63,4.46-3.84,.78-7.73,1.32-11.6,2.02-.55,.1-1.33-.14-1.86,.1-1.26,.29-2.02,.29-3.33,.29-1.03,0-2.37-.71-3.44-.9-3.16-.54-6.07-1.64-8.87-3.22-5.43-3.05-10.95-5.93-16.42-8.89-3.46-1.87-7.08-2.26-10.76-.98-5.76,2-11.7,3.66-17.13,6.36-14.2,7.07-29,8.35-44.34,5.95-2.13-.33-4.31-.84-6.3-1.67-8.15-3.41-16.31-6.8-23.92-11.42-4.38-2.66-8.73-5.5-13.85-6.56-2.99-.62-6.01-1.1-9.04-1.49-10.41-1.34-18.38-6.31-23.75-15.63-1.52-2.63-3.9-4.82-4.5-7.94-.68-3.47-1.56-7-1.52-10.49,.1-7.85,.73-15.71,2.43-23.41,1.78-8.04,5.09-15.49,8.48-22.93,1.49-3.29,2.7-6.76,3.55-10.28,1.21-4.97,.12-9.93-1.08-14.77-1.43-5.74-2.21-11.53-1.73-17.43,1.18-14.22,7.5-25.53,19.25-33.41,3.03-2.04,6.61-3.45,10.13-4.48,6.17-1.79,12.45-3.27,18.76-4.5,6.7-1.3,13.48-1.13,20.13,.57,5.15,1.33,10.32,2.15,15.44,.26,3.16-1.16,6.18-2.73,9.2-4.23,1.26-.63,2.41-1.51,3.56-2.35,7.4-5.42,15.49-5.97,24-3.53,4.48,1.28,8.12,3.81,10.75,7.68,1.86,2.73,3.52,5.59,5.2,8.43,1.23,2.09,2.35,4.24,3.75,6.78,.33-.98,.66-1.59,.75-2.24,1.08-8.01,1.91-16.03,1.96-24.14,.09-13.54,1.08-27,4.16-40.22,1.05-4.52,2.43-8.93,4.58-13.08,2.62-5.06,6.59-8.11,12.16-9.08,.98-.17,2.33-.62,3.42-.39,1.96,0,3.26-.23,5.22-.23,.43,.23,.93,.08,1.38,.17,4.92,.94,9.86,1.8,14.78,2.77,9.21,1.81,14.68,7.69,17.25,16.61Zm-4.94,15.09c.81-5.01-.16-9.65-1.57-14.3-1.6-5.27-4.66-9.21-10.17-10.67-1.26-.33-2.54-.66-3.82-.84-5.38-.75-10.77-1.41-16.15-2.18-5.65-.82-10.12,1.35-12.82,6.34-2.27,4.2-3.34,8.79-4.42,13.43-2.82,12.13-3.22,24.47-3.5,36.83-.04,1.86,.42,3.75,.31,5.6-.27,4.52-.59,9.04-1.19,13.52-.52,3.91-1.39,7.79-2.23,11.65-.41,1.91-1.35,3.56-3.49,3.92-2.16,.36-3.85-.59-5.08-2.33-1.21-1.7-2.36-3.45-3.41-5.25-2.27-3.9-4.36-7.91-6.71-11.75-1.97-3.24-4.86-5.31-8.64-5.97-6.4-1.13-12.53-1-18.05,3.18-1.91,1.44-4.03,2.62-6.15,3.76-5.93,3.19-12.15,5.54-19,5.02-3.23-.24-6.43-.99-9.63-1.62-5.06-.99-10.13-1.57-15.22-.46-6.26,1.36-12.55,2.63-18.69,4.43-3.5,1.02-7.03,2.57-10,4.69-11.18,7.98-18.58,23.77-14.5,39.76,.89,3.51,1.5,7.1,2.13,10.67,.98,5.56,.42,11.02-1.72,16.22-1.98,4.79-4.26,9.44-6.27,14.2-4.52,10.74-5.86,22.09-6.36,33.69,.47,4.04,.28,8.3,1.55,12.07,2.49,7.44,7.57,12.92,15.14,15.28,4.12,1.28,8.46,1.97,12.74,2.57,5.35,.74,10.36,2.28,15.03,5.06,8.08,4.82,16.41,9.11,25.15,12.56,4.5,1.78,9.08,2.94,13.92,3.12,4.78,.18,9.55,.43,14.32-.06,5.31-.54,10.48-1.5,15.46-3.65,7-3.01,14.06-5.89,21.23-8.45,6.17-2.21,12.59-2.24,18.32,1.23,5.54,3.36,11.55,5.65,17.26,8.61,3.33,1.73,7.07,2.27,10.77,2.13,3.13-.11,6.26-.72,9.36-1.25,7.55-1.29,13.42-7.68,14.69-15.32,1.15-6.89-.49-13.64-.47-20.47,0-2.3-.39-4.61-.73-6.89-1.38-9.15-2.82-18.28-4.21-27.42-.81-5.33-1.71-10.66-2.31-16.01-.49-4.36-1.29-8.69-.54-13.18,1.01-6,2.6-11.81,4.56-17.54,1.47-4.3,2.36-8.68,2.38-13.27,.04-5.94-1.43-11.59-2.96-17.21-1.55-5.67-2.6-11.35-2.47-17.28,.15-6.67,1.79-13.07,3.06-19.55,1.34-6.91,2.59-13.85,3.57-20.82,.73-5.24,.68-10.59,1.53-15.8Z"/>
            <path class="cls-1" d="M211.22,20.59c1.41,4.65,2.38,9.29,1.57,14.3-.85,5.21-.8,10.56-1.53,15.8-.98,6.97-2.23,13.91-3.57,20.82-1.27,6.48-2.91,12.88-3.06,19.55-.13,5.93,.92,11.61,2.47,17.28,1.53,5.62,3,11.27,2.96,17.21-.02,4.59-.91,8.97-2.38,13.27-1.96,5.73-3.55,11.54-4.56,17.54-.75,4.49,.05,8.82,.54,13.18,.6,5.35,1.5,10.68,2.31,16.01,1.39,9.14,2.83,18.27,4.21,27.42,.34,2.28,.73,4.59,.73,6.89-.02,6.83,1.62,13.58,.47,20.47-1.27,7.64-7.14,14.03-14.69,15.32-3.1,.53-6.23,1.14-9.36,1.25-3.7,.14-7.44-.4-10.77-2.13-5.71-2.96-11.72-5.25-17.26-8.61-5.73-3.47-12.15-3.44-18.32-1.23-7.17,2.56-14.23,5.44-21.23,8.45-4.98,2.15-10.15,3.11-15.46,3.65-4.77,.49-9.54,.24-14.32,.06-4.84-.18-9.42-1.34-13.92-3.12-8.74-3.45-17.07-7.74-25.15-12.56-4.67-2.78-9.68-4.32-15.03-5.06-4.28-.6-8.62-1.29-12.74-2.57-7.57-2.36-12.65-7.84-15.14-15.28-1.27-3.77-1.08-8.03-1.55-12.07,.5-11.6,1.84-22.95,6.36-33.69,2.01-4.76,4.29-9.41,6.27-14.2,2.14-5.2,2.7-10.66,1.72-16.22-.63-3.57-1.24-7.16-2.13-10.67-4.08-15.99,3.32-31.78,14.5-39.76,2.97-2.12,6.5-3.67,10-4.69,6.14-1.8,12.43-3.07,18.69-4.43,5.09-1.11,10.16-.53,15.22,.46,3.2,.63,6.4,1.38,9.63,1.62,6.85,.52,13.07-1.83,19-5.02,2.12-1.14,4.24-2.32,6.15-3.76,5.52-4.18,11.65-4.31,18.05-3.18,3.78,.66,6.67,2.73,8.64,5.97,2.35,3.84,4.44,7.85,6.71,11.75,1.05,1.8,2.2,3.55,3.41,5.25,1.23,1.74,2.92,2.69,5.08,2.33,2.14-.36,3.08-2.01,3.49-3.92,.84-3.86,1.71-7.74,2.23-11.65,.6-4.48,.92-9,1.19-13.52,.11-1.85-.35-3.74-.31-5.6,.28-12.36,.68-24.7,3.5-36.83,1.08-4.64,2.15-9.23,4.42-13.43,2.7-4.99,7.17-7.16,12.82-6.34,5.38,.77,10.77,1.43,16.15,2.18,1.28,.18,2.56,.51,3.82,.84,5.51,1.46,8.57,5.4,10.17,10.67Zm-62.8,146.18c2.8-11.01,4.9-25.03-1.27-35.3-1.14-1.89-2.72-3.14-4.46-3.8-.71-.98-1.68-1.86-2.98-2.58-3.24-1.81-5.52-5.48-8.08-8.37-3.61-4.05-8.08-7.32-13.51-8.3-12.9-2.33-19.74,8.21-28.42,15.38-4,3.3-8.47,6.06-12.11,9.79-4.49,4.59-7.8,10.16-9.76,16.27-1.52,4.77-1.97,9.82-2.3,14.82-.79-.22-1.59-.35-2.36-.35-4.18,0-7.3,2.85-8.68,6.61-2.23,6.06-.84,12.29,3.61,16.05,.5,1.04,1.03,2.06,1.6,3.04-1.52,6.42-2.02,13.01,.95,19.19,4.33,9.01,14.54,12.97,23.81,14.74,11.96,2.27,26.13,1.32,36.7-4.82,5.34-.28,10.4-1.79,14.35-5.86,8.06-8.29,7.85-21.62,7.4-32.58,2.45-4.39,4.25-8.99,5.51-13.93Z"/>
          </g>
          <path class="cls-1" d="M6.44,206.42c.5-11.6,1.84-22.94,6.37-33.68,2.01-4.77,4.29-9.42,6.26-14.2,2.15-5.2,2.7-10.66,1.72-16.22-.63-3.57-1.24-7.16-2.13-10.67-4.08-15.99,3.32-31.78,14.51-39.76,2.96-2.11,6.5-3.67,9.99-4.69,6.14-1.8,12.43-3.07,18.69-4.43,5.09-1.11,10.16-.53,15.22,.46,3.2,.63,6.4,1.38,9.63,1.62,6.85,.52,13.07-1.83,19-5.02,2.11-1.14,4.24-2.32,6.15-3.76,5.52-4.18,11.65-4.3,18.04-3.18,3.78,.67,6.67,2.74,8.64,5.97,2.35,3.85,4.44,7.85,6.71,11.75,1.05,1.8,2.2,3.56,3.41,5.26,1.23,1.73,2.92,2.69,5.08,2.32,2.14-.36,3.08-2.01,3.49-3.92,.83-3.87,1.71-7.74,2.23-11.66,.6-4.48,.91-9,1.19-13.51,.11-1.86-.36-3.74-.31-5.61,.28-12.36,.68-24.7,3.5-36.83,1.08-4.64,2.15-9.22,4.42-13.43,2.7-4.99,7.16-7.15,12.82-6.34,5.38,.77,10.77,1.43,16.15,2.19,1.29,.18,2.56,.51,3.82,.84,5.52,1.45,8.57,5.4,10.17,10.67,1.41,4.65,2.39,9.29,1.57,14.3-.85,5.21-.8,10.56-1.53,15.8-.98,6.97-2.22,13.91-3.57,20.82-1.27,6.48-2.9,12.88-3.06,19.56-.13,5.92,.92,11.61,2.47,17.28,1.53,5.62,3,11.27,2.97,17.21-.03,4.59-.91,8.96-2.38,13.27-1.96,5.72-3.55,11.53-4.56,17.54-.75,4.49,.05,8.81,.54,13.17,.6,5.36,1.5,10.68,2.31,16.01,1.39,9.14,2.83,18.28,4.21,27.42,.34,2.28,.73,4.6,.73,6.89-.01,6.83,1.62,13.58,.48,20.47-1.27,7.64-7.14,14.03-14.69,15.31-3.1,.53-6.23,1.15-9.36,1.26-3.7,.13-7.45-.4-10.78-2.13-5.71-2.96-11.71-5.25-17.26-8.62-5.73-3.47-12.14-3.44-18.32-1.23-7.16,2.57-14.23,5.44-21.22,8.46-4.98,2.14-10.16,3.11-15.46,3.65-4.77,.49-9.54,.23-14.32,.06-4.84-.18-9.42-1.34-13.92-3.12-8.74-3.45-17.08-7.74-25.15-12.56-4.67-2.79-9.68-4.32-15.03-5.07-4.29-.6-8.62-1.29-12.74-2.57-7.58-2.36-12.65-7.84-15.15-15.28-1.26-3.77-1.08-8.03-1.55-12.07ZM45.58,107.48c.46-2.07,.92-4.15,1.42-6.39-5.28,1.33-6.7,3.28-5.42,7.03-3.54,1.95-6.2,4.7-7.5,8.63-.92,2.78-.07,5.32,2.07,6.63,2.14,1.32,4.33,1.01,6.38-1.27,2.41-2.68,4.22-5.79,5.24-9.31,.27-.93,.3-1.93,.38-2.9,.14-1.86-.78-2.63-2.56-2.43Zm49.02,117.59c1.72,0,3.81,.18,5.86-.04,4.53-.48,9.03-1.25,13.56-1.75,5.9-.66,11.46-2.25,16.62-5.34,9.92-5.94,15.03-14.63,15.28-26.36,.13-5.79-.7-11.42-1.74-17.07-.78-4.2-1.62-8.53-1.4-12.75,.23-4.56,1.52-9.1,2.61-13.58,1.02-4.19,2.19-8.36,1.72-12.71-.91-8.43-4.29-15.36-12.49-18.68-8.21-3.32-16.71-3.75-25.27-1.49-10.89,2.87-18.67,10.07-25.25,18.9-3.73,5-5.93,10.77-7.78,16.67-1.59,5.06-4.02,9.5-8.02,13.02-1.89,1.66-3.68,3.48-5.34,5.38-8.14,9.3-10.82,25.66,.35,36.54,3.07,2.99,6.26,5.84,9.31,8.84,.73,.71,1.08,1.8,1.7,2.65,.8,1.11,1.48,2.69,2.58,3.15,5.57,2.33,10.87,5.82,17.7,4.63Zm76.28-64.99c2.75-4.84,3.46-10.07,4.33-15.22,.62-3.66,.98-7.38,1.24-11.09,.11-1.6-.04-3.37-.61-4.84-1.54-3.99-6.16-5-8.8-1.49-1.25,1.67-1.61,3.6-1.56,5.57,.11,4.95,.2,9.92,.66,14.84,.3,3.24,1.23,6.41,1.88,9.62,.29,1.43,1.06,2.36,2.87,2.62Zm14.49-108.06c-.33-2.6-.47-5.24-1.05-7.78-.48-2.08-2.63-3.33-4.7-3.26-2.24,.08-3.78,1-4.26,3.32-.52,2.55-.82,5.24-.61,7.82,.36,4.45,1.05,8.88,1.87,13.27,.65,3.52,1.67,6.98,2.59,10.45,.11,.41,.65,1.01,.96,.99,.39-.02,.89-.52,1.1-.94,.44-.87,.85-1.79,1.05-2.74,1.42-6.96,2.84-13.93,3.06-21.13Zm15.59-2.65c3.08-2.09,3.71-4.66,3.69-7.34-.05-6.73-1.84-13.03-5.12-18.86-.52-.93-1.29-1.83-2.14-2.44-1.93-1.39-4.07-2.05-6.41-.98-2.68,1.23-3.04,4.06-.86,6.07,.85,.79,1.75,1.68,2.21,2.72,2.61,5.8,5.11,11.66,7.61,17.51,.4,.94,.62,1.97,1.03,3.33ZM38.07,162.48c-5.01,3.13-7.69,7.2-9.67,11.79-1.43,3.31-2.41,6.76-1.94,10.44,.34,2.62,1.71,3.78,3.9,3.97,2.5,.22,3.63-2.02,4.01-3.93,1.24-6.31,2.49-12.61,3.68-18.93,.17-.88,.02-1.81,.02-3.33ZM122.16,82.24c-.76-.31-1.28-.74-1.7-.65-3.35,.7-6.78,1.24-10,2.37-2.07,.73-3.88,2.3-5.71,3.63-1.23,.9-1.15,2.32-.74,3.62,.67,2.12,3.44,3.23,5.7,1.89,4.65-2.76,9.28-5.64,12.44-10.86Zm73.42,149.46c-.81,.24-1.22,.23-1.39,.43-2.76,3.3-6.6,4.43-10.51,5.39-1.57,.38-3.18,.59-4.77,.91-1.53,.3-2.28,1.54-2.18,2.85,.07,.9,.92,2.07,1.73,2.48,1.09,.55,2.53,.79,3.73,.59,2-.34,3.98-.99,5.87-1.77,3.35-1.39,5.8-3.83,7.03-7.33,.36-1.02,.31-2.19,.49-3.55Zm-68.66,11.85c1.64-.71,3.02-1.1,4.19-1.84,4.14-2.62,8.21-5.35,12.27-8.09,.45-.3,.64-.99,.96-1.49-.54-.16-1.08-.47-1.6-.45-4.53,.22-8.62,1.98-12.68,3.83-1.58,.72-3.2,1.42-4.65,2.37-1.18,.77-1.75,2.19-1.03,3.47,.51,.91,1.65,1.47,2.54,2.2ZM169.55,39.1c-2.74,3.06-3.85,6.79-4.72,10.59-.46,2.01-.68,4.11-.66,6.17,.01,1.55,1.18,2.58,2.66,2.94,1.16,.29,2.81-.89,3.1-2.38,1.11-5.74,1.36-11.5-.37-17.32ZM39.08,97.49l-.57-.51c-5.78,2.48-9.38,7.01-11.42,12.97-.23,.67-.18,1.53,0,2.22,.49,1.87,2.4,2.53,3.76,1.22,.84-.81,1.44-1.92,1.98-2.98,1.85-3.61,3.62-7.26,5.41-10.9,.32-.65,.56-1.34,.84-2.01Z"/>
          <path class="cls-11" d="M94.6,225.07c-6.83,1.19-12.13-2.3-17.7-4.63-1.1-.46-1.78-2.04-2.58-3.15-.61-.85-.97-1.94-1.7-2.65-3.05-3-6.25-5.85-9.31-8.84-11.17-10.87-8.49-27.24-.35-36.54,1.66-1.9,3.45-3.72,5.34-5.38,4.01-3.52,6.43-7.97,8.02-13.02,1.85-5.9,4.05-11.67,7.78-16.67,6.57-8.83,14.36-16.03,25.25-18.9,8.57-2.26,17.07-1.83,25.27,1.49,8.2,3.32,11.58,10.25,12.49,18.68,.47,4.35-.71,8.52-1.72,12.71-1.09,4.48-2.38,9.02-2.61,13.58-.22,4.22,.63,8.55,1.4,12.75,1.04,5.66,1.87,11.28,1.74,17.07-.25,11.74-5.37,20.42-15.28,26.36-5.16,3.09-10.71,4.69-16.62,5.34-4.53,.5-9.03,1.27-13.56,1.75-2.05,.22-4.14,.04-5.86,.04Zm-6.92-7.07c4.04-.34,6.86-.59,9.69-.81,5.65-.43,11.32-.75,16.96-1.3,2.26-.22,4.58-.64,6.7-1.44,6.73-2.51,12.56-6.34,15.74-13.16,2.18-4.67,3.07-9.72,2.51-14.89-.4-3.62-1.02-7.24-1.8-10.79-1.88-8.49-1.76-16.9,.36-25.32,.86-3.43,1.74-6.86,2.36-10.34,1.49-8.44-2.98-15.83-11.04-18.17-7.34-2.12-14.74-2.25-21.79,.98-10.34,4.73-17.98,12.37-22.5,23.01-1.29,3.04-2.25,6.22-3.3,9.36-1.48,4.4-3.85,8.13-7.4,11.14-2,1.7-3.79,3.66-5.69,5.49-4.27,4.11-6.15,9.3-6.62,15.11-.47,5.8,1.81,10.64,5.58,14.74,3.95,4.29,8.15,8.33,12.2,12.53,2.56,2.66,5.35,4.6,8.06,3.86Z"/>
          <path class="cls-1" d="M170.88,160.08c-1.81-.26-2.58-1.19-2.87-2.62-.65-3.2-1.58-6.38-1.88-9.62-.46-4.93-.54-9.89-.66-14.84-.04-1.96,.31-3.9,1.56-5.57,2.64-3.51,7.26-2.49,8.8,1.49,.57,1.48,.72,3.24,.61,4.84-.25,3.71-.62,7.43-1.24,11.09-.87,5.15-1.58,10.38-4.33,15.22Z"/>
          <path class="cls-14" d="M200.95,49.37c-.42-1.36-.63-2.39-1.03-3.33-2.5-5.85-5-11.71-7.61-17.51-.47-1.04-1.36-1.93-2.21-2.72-2.18-2.01-1.81-4.84,.86-6.07,2.34-1.08,4.48-.41,6.41,.98,.86,.62,1.62,1.51,2.14,2.44,3.28,5.84,5.07,12.14,5.12,18.86,.02,2.68-.6,5.25-3.69,7.34Z"/>
          <path class="cls-1" d="M38.07,162.48c0,1.52,.14,2.45-.02,3.33-1.19,6.32-2.44,12.62-3.68,18.93-.37,1.91-1.5,4.15-4.01,3.93-2.19-.19-3.56-1.35-3.9-3.97-.47-3.67,.5-7.13,1.94-10.44,1.99-4.59,4.66-8.66,9.67-11.79Z"/>
          <path class="cls-1" d="M45.58,107.48c1.78-.2,2.7,.56,2.56,2.43-.07,.97-.11,1.98-.38,2.9-1.02,3.51-2.84,6.62-5.24,9.31-2.05,2.28-4.24,2.58-6.38,1.27-2.14-1.32-2.99-3.85-2.07-6.63,1.3-3.93,3.96-6.69,7.5-8.63,1.51,.93,2.91,1.13,4-.64Z"/>
          <path class="cls-1" d="M122.16,82.24c-3.16,5.22-7.79,8.11-12.44,10.86-2.27,1.34-5.03,.23-5.7-1.89-.41-1.31-.49-2.72,.74-3.62,1.83-1.33,3.64-2.9,5.71-3.63,3.22-1.13,6.64-1.67,10-2.37,.42-.09,.94,.34,1.7,.65Z"/>
          <path class="cls-15" d="M195.58,231.7c-.17,1.36-.13,2.53-.49,3.55-1.23,3.5-3.68,5.93-7.03,7.33-1.88,.78-3.87,1.43-5.87,1.77-1.2,.2-2.64-.04-3.73-.59-.81-.41-1.66-1.58-1.73-2.48-.1-1.31,.65-2.55,2.18-2.85,1.59-.31,3.2-.52,4.77-.91,3.91-.95,7.75-2.09,10.51-5.39,.17-.2,.58-.19,1.39-.43Z"/>
          <path class="cls-8" d="M126.93,243.55c-.89-.74-2.03-1.29-2.54-2.2-.72-1.28-.15-2.7,1.03-3.47,1.45-.95,3.07-1.65,4.65-2.37,4.06-1.85,8.15-3.61,12.68-3.83,.53-.03,1.07,.29,1.6,.45-.31,.51-.51,1.19-.96,1.49-4.06,2.74-8.13,5.47-12.27,8.09-1.17,.74-2.55,1.13-4.19,1.84Z"/>
          <path class="cls-8" d="M169.55,39.1c1.73,5.82,1.48,11.58,.37,17.32-.29,1.49-1.94,2.66-3.1,2.38-1.48-.37-2.65-1.39-2.66-2.94-.01-2.06,.21-4.17,.66-6.17,.87-3.79,1.98-7.53,4.72-10.59Z"/>
          <path class="cls-8" d="M39.08,97.49c-.28,.67-.52,1.36-.84,2.01-1.79,3.64-3.57,7.29-5.41,10.9-.54,1.06-1.14,2.17-1.98,2.98-1.36,1.31-3.27,.65-3.76-1.22-.18-.7-.23-1.56,0-2.22,2.04-5.96,5.64-10.49,11.42-12.97l.57,.51Z"/>
          <path class="cls-12" d="M45.58,107.48c-1.09,1.77-2.49,1.57-4,.64-1.28-3.75,.14-5.7,5.42-7.03-.5,2.24-.96,4.32-1.42,6.39Z"/>
        </g>
        <g>
          <g>
            <g>
              <path class="cls-17" d="M631.93,65.61c.39,3.26,.81,6.71,.21,9.87-1.37,7.14-2.09,14.28-2.48,21.53-.36,6.72-1.4,13.4-2.31,20.09-.81,6-2.59,11.98-2.57,17.97,.03,7.67-2.37,14.74-3.59,22.09-2.47,14.91-6.5,29.23-13.05,42.93-2.78,5.84-4.21,12.33-6.34,18.49-2.22,6.46-4.54,12.85-8.69,18.43-2.99,4.02-6.62,7.12-10.94,9.58-4.15,2.35-8.28,4.77-12.26,7.39-6.41,4.18-13.18,7.22-20.96,7.35-2.63,.04-5.27-.3-7.9-.42-8.79-.41-17.58-.75-26.38-1.18-4.94-.25-9.63-1.4-13.85-4.14-3.09-2.01-6.53-2.97-10.14-3.51-5.94-.89-10.51-3.84-13.54-9.15-4.07-7.13-5.65-14.74-4.52-22.84,1.6-11.44,10.98-18.37,23.22-17.3,5.22,.46,10.16,1.74,14.66,4.59,6.3,3.99,12.95,3.69,19.7,1.33,1.28-.45,2.53-1.03,3.73-1.66,2.91-1.51,5.86-2.57,9.24-2.22,2.16,.22,3.95-.9,5.58-2.24,5.34-4.44,8.46-10.14,9.56-16.97,.28-1.73,.58-3.48,.65-5.23,.11-3.33-.93-4.07-4.05-3.14-.47,.14-.93,.29-1.4,.4-3.51,.75-6.99,1.64-10.53,2.2-5.11,.8-10.24,1.5-15.39,1.96-3.09,.27-6.26,.24-9.34-.09-7.09-.77-12.73-4.08-16.7-10.13-1.63-2.5-3.88-4.09-6.69-5.36-6.07-2.74-10.52-7.51-13.61-13.32-5.77-10.89-10.69-22.23-12.46-34.5-.95-6.53-.55-13.29-.34-19.93,.17-5.24-2.32-9.2-2.32-15.13v-12.35c0-2.56,1.08-4.63,1.83-6.87,3-8.96,7.53-16.53,17.56-19,3.14,0,6.12,.69,9.25,.69,2.85,0,4.95,.41,7.32,1.06,5.29,1.46,8.84,4.73,11.31,9.76,3.58,7.31,4.87,14.93,5.1,22.95,.09,2.98,1.16,5.92,1.6,8.91,1.06,7.14,2.04,14.3,3.01,21.45,.76,5.64,1.87,11.17,4.73,16.16,2.02,3.55,4.59,6.68,8.92,7.38,1.78,.29,3.66-.18,5.5-.26,3.7-.15,7.43-.65,11.09-.33,7.26,.65,12.76-1.86,16.61-8.02,.26-.42,.46-.88,.78-1.24,3.76-4.14,5.04-9.19,5.03-14.6,0-3.22,.78-6.19,2.09-9.05,1.96-4.26,2.82-8.69,2.66-13.37-.21-5.88-.05-11.75,1.38-17.51,1.67-6.73,4.01-13.06,9.69-17.61,9.39-7.55,26.7-5.96,33.34,2.83,2.7,3.56,6.42,6.51,7.01,11.27Zm-4,11.5c.43-2.19,.85-4.46,.74-6.67-.34-7.68-5.03-13.15-10.88-16.87-10.13-6.45-25.32-3.67-30.06,10.23-2.42,7.1-3.68,14.38-3.3,23.76,.44,3.95-.95,9.34-3.29,14.65-1,2.25-1.41,4.87-1.58,7.36-.34,5.4-1.63,10.39-5.02,14.73-.78,1-1.48,2.06-2.19,3.11-4.53,6.79-11.06,9.49-18.94,8.69-3.85-.39-7.64-.56-11.35,.32-7.29,1.73-12.36-1.31-16.23-7.08-4.33-6.45-5.38-13.9-6.28-21.41-.71-5.89-1.71-11.76-2.67-17.62-.57-3.56-1.74-7.07-1.9-10.63-.33-7.41-1.6-14.47-4.82-21.25-2.21-4.63-5.57-7.37-10.42-8.6-4.51-1.13-9.08-1.18-13.68-1.07-2.49,.07-4.47,1.24-6.23,2.91-9.42,8.96-11.73,20.16-9.81,32.47,1.12,7.22,3.02,14.29,2.1,21.74-.4,3.27-.33,6.7,.14,9.97,1.8,12.53,6.6,24.09,12.27,35.26,2.55,5.05,6.37,9.38,11.66,11.58,3.85,1.59,6.7,3.96,8.92,7.24,3.31,4.91,8.12,7.07,13.72,8.06,3.63,.64,7.18,.18,10.75-.31,3.67-.49,7.33-1.32,11.01-1.41,3.88-.11,7.53-.87,11.18-2.04,1.56-.5,3.2-.93,4.83-1.03,3.33-.2,5.39,1.36,5.94,4.74,.32,1.98,.15,4.07-.04,6.09-.79,8.3-3.89,15.5-10.3,21.04-2.57,2.23-5.35,4.07-8.97,3.62-2.26-.27-4.24,.34-6.18,1.36-1.22,.64-2.42,1.3-3.68,1.83-8.6,3.6-17.08,3.86-25.29-1.1-4.93-2.99-10.26-3.99-15.97-4.06-7.32-.06-13.48,4.58-15.47,11.91-2.04,7.53-.32,14.5,2.92,21.25,2.35,4.91,6.2,7.95,11.69,8.75,4.5,.65,8.55,2.4,12.59,4.49,2.96,1.53,6.39,2.67,9.69,2.94,10.8,.87,21.64,1.25,32.46,1.85,7.65,.42,14.37-2.26,20.69-6.23,3.63-2.29,6.96-5.21,10.84-6.95,8.41-3.76,13.74-10.17,17.2-18.36,1.86-4.4,3.24-9,4.86-13.49,1.89-5.23,3.41-10.64,5.79-15.64,4.85-10.21,8.39-20.8,10.59-31.87,1.32-6.58,1.64-13.4,4.55-19.62,.48-1.02,.65-2.31,.59-3.44-.64-10.58,2.53-20.72,3.44-31.11,.44-5.06,1.22-10.11,1.33-15.17,.13-6.39,.82-12.66,2.05-18.91Z"/>
              <path class="cls-1" d="M628.67,70.44c.11,2.21-.31,4.48-.74,6.67-1.23,6.25-1.92,12.52-2.05,18.91-.11,5.06-.88,10.11-1.33,15.17-.91,10.39-4.07,20.54-3.44,31.11,.06,1.13-.11,2.41-.59,3.44-2.91,6.23-3.23,13.04-4.55,19.62-2.2,11.07-5.73,21.66-10.59,31.87-2.38,5-3.9,10.41-5.79,15.64-1.62,4.5-3,9.09-4.86,13.49-3.45,8.19-8.78,14.61-17.2,18.36-3.88,1.73-7.21,4.66-10.84,6.95-6.32,3.97-13.03,6.65-20.69,6.23-10.82-.6-21.66-.98-32.46-1.85-3.3-.27-6.73-1.41-9.69-2.94-4.04-2.09-8.09-3.84-12.59-4.49-5.49-.8-9.34-3.83-11.69-8.75-3.24-6.75-4.97-13.72-2.92-21.25,2-7.33,8.16-11.97,15.47-11.91,5.71,.06,11.04,1.07,15.97,4.06,8.21,4.96,16.69,4.69,25.29,1.1,1.26-.53,2.47-1.19,3.68-1.83,1.94-1.02,3.91-1.63,6.18-1.36,3.61,.45,6.4-1.4,8.97-3.62,6.42-5.54,9.52-12.74,10.3-21.04,.19-2.01,.36-4.11,.04-6.09-.55-3.38-2.61-4.94-5.94-4.74-1.63,.11-3.27,.53-4.83,1.03-3.65,1.18-7.3,1.94-11.18,2.04-3.68,.1-7.34,.93-11.01,1.41-3.57,.49-7.12,.95-10.75,.31-5.6-.99-10.41-3.15-13.72-8.06-2.22-3.28-5.06-5.65-8.92-7.24-5.29-2.2-9.11-6.54-11.66-11.58-5.67-11.18-10.47-22.74-12.27-35.26-.47-3.27-.54-6.7-.14-9.97,.92-7.45-.98-14.52-2.1-21.74-1.92-12.32,.39-23.51,9.81-32.47,1.76-1.67,3.74-2.84,6.23-2.91,4.59-.11,9.17-.06,13.68,1.07,4.85,1.23,8.21,3.97,10.42,8.6,3.23,6.78,4.5,13.84,4.82,21.25,.16,3.56,1.33,7.07,1.9,10.63,.96,5.86,1.96,11.73,2.67,17.62,.9,7.51,1.95,14.96,6.28,21.41,3.87,5.77,8.94,8.81,16.23,7.08,3.7-.87,7.49-.71,11.35-.32,7.87,.8,14.4-1.9,18.94-8.69,.71-1.05,1.41-2.11,2.19-3.11,3.39-4.34,4.67-9.33,5.02-14.73,.17-2.49,.58-5.11,1.58-7.36,2.34-5.31,3.73-10.7,3.29-14.65-.39-9.38,.87-16.66,3.3-23.76,4.74-13.9,19.93-16.68,30.06-10.23,5.85,3.72,10.54,9.19,10.88,16.87Z"/>
            </g>
            <g>
              <path class="cls-7" d="M494.77,45.83c2.85,0,4.95,.41,7.32,1.06,5.29,1.46,8.84,4.73,11.31,9.76,3.58,7.31,4.87,14.93,5.1,22.95,.09,2.98,1.16,5.92,1.6,8.91,1.06,7.14,2.04,14.3,3.01,21.45,.76,5.64,1.87,11.17,4.73,16.16,2.02,3.55,4.59,6.68,8.92,7.38,1.78,.29,3.66-.18,5.5-.26,3.7-.15,7.43-.65,11.09-.33,7.26,.65,12.76-1.86,16.61-8.02,.26-.42,.46-.88,.78-1.24,3.76-4.14,5.04-9.19,5.03-14.6,0-3.22,.78-6.19,2.09-9.05,1.96-4.26,2.82-8.69,2.66-13.37-.21-5.88-.05-11.75,1.38-17.51,1.67-6.73,4.01-13.06,9.69-17.61,9.39-7.55,26.7-5.96,33.34,2.83,2.7,3.56,6.42,6.51,7.01,11.27,.39,3.26,.81,6.71,.21,9.87-1.37,7.14-2.09,14.28-2.48,21.53-.36,6.72-1.4,13.4-2.31,20.09-.81,6-2.59,11.98-2.57,17.97,.03,7.67-2.37,14.74-3.59,22.09-2.47,14.91-6.5,29.23-13.05,42.93-2.78,5.84-4.21,12.33-6.34,18.49-2.22,6.46-4.54,12.85-8.69,18.43-2.99,4.02-6.62,7.12-10.94,9.58-4.15,2.35-8.28,4.77-12.26,7.39-6.41,4.18-13.18,7.22-20.96,7.35-2.63,.04-5.27-.3-7.9-.42-8.79-.41-17.58-.75-26.38-1.18-4.94-.25-9.63-1.4-13.85-4.14-3.09-2.01-6.53-2.97-10.14-3.51-5.94-.89-10.51-3.84-13.54-9.15-4.07-7.13-5.65-14.74-4.52-22.84,1.6-11.44,10.98-18.37,23.22-17.3,5.22,.46,10.16,1.74,14.66,4.59,6.3,3.99,12.95,3.69,19.7,1.33,1.28-.45,2.53-1.03,3.73-1.66,2.91-1.51,5.86-2.57,9.24-2.22,2.16,.22,3.95-.9,5.58-2.24,5.34-4.44,8.46-10.14,9.56-16.97,.28-1.73,.58-3.48,.65-5.23,.11-3.33-.93-4.07-4.05-3.14-.47,.14-.93,.29-1.4,.4-3.51,.75-6.99,1.64-10.53,2.2-5.11,.8-10.24,1.5-15.39,1.96-3.09,.27-6.26,.24-9.34-.09-7.09-.77-12.73-4.08-16.7-10.13-1.63-2.5-3.88-4.09-6.69-5.36-6.07-2.74-10.52-7.51-13.61-13.32-5.77-10.89-10.69-22.23-12.46-34.5-.95-6.53-.55-13.29-.34-19.93,.17-5.24-2.32-9.2-2.32-15.13v-12.35c0-2.56,1.08-4.63,1.83-6.87,3-8.96,7.53-16.53,17.56-19,3.14,0,6.12,.69,9.25,.69Z"/>
              <path class="cls-7" d="M584.43,87.57c.44,3.95-.95,9.34-3.29,14.65-1,2.25-1.41,4.87-1.58,7.36-.34,5.4-1.63,10.39-5.02,14.73-.78,1-1.48,2.06-2.19,3.11-4.53,6.79-11.06,9.49-18.94,8.69-3.85-.39-7.64-.56-11.35,.32-7.29,1.73-12.36-1.31-16.23-7.08-4.33-6.45-5.38-13.9-6.28-21.41-.71-5.89-1.71-11.76-2.67-17.62-.57-3.56-1.74-7.07-1.9-10.63-.33-7.41-1.6-14.47-4.82-21.25-2.21-4.63-5.57-7.37-10.42-8.6-4.51-1.13-9.08-1.18-13.68-1.07-2.49,.07-4.47,1.24-6.23,2.91-9.42,8.96-11.73,20.16-9.81,32.47,1.12,7.22,3.02,14.29,2.1,21.74-.4,3.27-.33,6.7,.14,9.97,1.8,12.53,6.6,24.09,12.27,35.26,2.55,5.05,6.37,9.38,11.66,11.58,3.85,1.59,6.7,3.96,8.92,7.24,3.31,4.91,8.12,7.07,13.72,8.06,3.63,.64,7.18,.18,10.75-.31,3.67-.49,7.33-1.32,11.01-1.41,3.88-.11,7.53-.87,11.18-2.04,1.56-.5,3.2-.93,4.83-1.03,3.33-.2,5.39,1.36,5.94,4.74,.32,1.98,.15,4.07-.04,6.09-.79,8.3-3.89,15.5-10.3,21.04-2.57,2.23-5.35,4.07-8.97,3.62-2.26-.27-4.24,.34-6.18,1.36-1.22,.64-2.42,1.3-3.68,1.83-8.6,3.6-17.08,3.86-25.29-1.1-4.93-2.99-10.26-3.99-15.97-4.06-7.32-.06-13.48,4.58-15.47,11.91-2.04,7.53-.32,14.5,2.92,21.25,2.35,4.91,6.2,7.95,11.69,8.75,4.5,.65,8.55,2.4,12.59,4.49,2.96,1.53,6.39,2.67,9.69,2.94,10.8,.87,21.64,1.25,32.46,1.85,7.65,.42,14.37-2.26,20.69-6.23,3.63-2.29,6.96-5.21,10.84-6.95,8.41-3.76,13.74-10.17,17.2-18.36,1.86-4.4,3.24-9,4.86-13.49,1.89-5.23,3.41-10.64,5.79-15.64,4.85-10.21,8.39-20.8,10.59-31.87,1.32-6.58,1.64-13.4,4.55-19.62,.48-1.02,.65-2.31,.59-3.44-.64-10.58,2.53-20.72,3.44-31.11,.44-5.06,1.22-10.11,1.33-15.17,.13-6.39,.82-12.66,2.05-18.91,.43-2.19,.85-4.46,.74-6.67-.34-7.68-5.03-13.15-10.88-16.87-10.13-6.45-25.32-3.67-30.06,10.23-2.42,7.1-3.68,14.38-3.3,23.76Z"/>
            </g>
          </g>
          <path class="cls-1" d="M584.44,87.57c-.39-9.38,.87-16.65,3.29-23.76,4.74-13.9,19.93-16.68,30.06-10.24,5.85,3.72,10.54,9.19,10.88,16.87,.1,2.21-.31,4.48-.74,6.67-1.23,6.25-1.92,12.53-2.05,18.91-.11,5.06-.89,10.11-1.33,15.17-.91,10.39-4.08,20.54-3.44,31.11,.07,1.14-.11,2.42-.59,3.44-2.91,6.23-3.24,13.04-4.55,19.62-2.2,11.07-5.74,21.66-10.59,31.87-2.38,5-3.9,10.41-5.78,15.64-1.62,4.5-3,9.1-4.86,13.5-3.46,8.19-8.78,14.61-17.2,18.36-3.87,1.73-7.2,4.66-10.84,6.94-6.31,3.97-13.03,6.65-20.68,6.23-10.82-.6-21.66-.97-32.45-1.85-3.3-.27-6.73-1.41-9.69-2.94-4.04-2.08-8.09-3.84-12.59-4.49-5.49-.79-9.34-3.84-11.69-8.74-3.24-6.75-4.96-13.72-2.92-21.25,1.99-7.33,8.15-11.97,15.47-11.91,5.71,.05,11.03,1.07,15.97,4.05,8.21,4.96,16.7,4.7,25.29,1.1,1.26-.53,2.47-1.19,3.68-1.82,1.94-1.02,3.92-1.64,6.18-1.36,3.61,.45,6.39-1.4,8.96-3.62,6.42-5.55,9.52-12.75,10.31-21.04,.19-2.02,.37-4.11,.04-6.09-.55-3.38-2.6-4.94-5.94-4.74-1.63,.1-3.27,.53-4.83,1.03-3.64,1.17-7.29,1.94-11.17,2.04-3.68,.1-7.34,.92-11.02,1.42-3.57,.48-7.11,.94-10.75,.3-5.61-.99-10.41-3.14-13.73-8.06-2.22-3.28-5.06-5.65-8.91-7.24-5.29-2.19-9.11-6.54-11.67-11.58-5.67-11.18-10.47-22.74-12.27-35.26-.47-3.27-.54-6.69-.14-9.97,.91-7.45-.98-14.52-2.1-21.73-1.92-12.32,.39-23.51,9.81-32.47,1.75-1.67,3.74-2.84,6.22-2.9,4.6-.12,9.18-.07,13.69,1.07,4.85,1.22,8.2,3.96,10.41,8.6,3.23,6.77,4.5,13.83,4.83,21.25,.16,3.56,1.32,7.07,1.9,10.63,.96,5.86,1.96,11.73,2.67,17.63,.9,7.51,1.95,14.96,6.28,21.41,3.87,5.76,8.94,8.81,16.23,7.08,3.7-.88,7.5-.71,11.35-.32,7.87,.8,14.4-1.9,18.93-8.68,.71-1.06,1.42-2.12,2.2-3.12,3.39-4.33,4.67-9.33,5.02-14.73,.16-2.49,.58-5.11,1.58-7.36,2.34-5.3,3.74-10.7,3.29-14.65Zm32.16-12.5c.92,2.17,1.85,4.35,3,7.04,.79-1.13,1.49-1.69,1.57-2.33,.4-3.24-.12-6.4-1.61-9.31-.3-.58-1.65-1.21-2.07-.99-.69,.36-1.32,1.39-1.4,2.19-.11,1.11,.32,2.27,.51,3.41-.62-1.06-1.09-2.25-1.9-3.13-.49-.53-1.62-.94-2.25-.74-.57,.19-1.25,1.35-1.15,1.97,.24,1.59,.69,3.23,1.45,4.63,.42,.78,1.63,1.12,2.49,1.66,.43-.89,.94-1.74,1.27-2.67,.19-.52,.07-1.15,.09-1.73Zm-22.28,135.36c-1.51,4.21-3.03,8.43-4.7,13.08,.91-.42,1.68-.58,2.17-1.04,3.22-3.05,4.91-6.95,5.69-11.22,.33-1.81-.56-2.23-2.72-1.57,.42-1.27,.98-2.52,1.19-3.82,.1-.58-.37-1.69-.81-1.83-.56-.17-1.74,.21-1.97,.68-1.63,3.36-3.08,6.8-4.56,10.23-.02,.06,.26,.25,.66,.62,.83-.64,1.79-1.23,2.55-2.02,.93-.95,1.68-2.07,2.51-3.12Zm-50.23,12.32c-4.53-.25-8.39-.43-12.25-.67-1.44-.09-2.78,.31-2.67,1.85,.06,.84,1.18,2.02,2.06,2.31,4.01,1.3,7.83,.47,11.38-1.66,.44-.26,.69-.83,1.47-1.82Zm68.26-66.88l.59,.31c.61-.82,1.55-1.55,1.78-2.47,.91-3.64,1.69-7.32,2.32-11.02,.15-.86-.26-1.96-.74-2.75-.64-1.05-1.61-1.12-2.2,.14-.32,.68-.43,1.48-.51,2.23-.22,2.22-.36,4.44-.56,6.66-.21,2.3-.45,4.6-.68,6.9Zm-5.29-3.25c4.02-.73,6.88-8.23,4.49-10.89-.48-.53-1.62-.86-2.3-.68-.62,.16-1.37,1.07-1.48,1.75-.24,1.42-.02,2.91-.12,4.37-.12,1.78-.38,3.56-.59,5.46Zm12.32-86.47c.06-.93,.18-1.78,.14-2.64-.13-2.97-3.26-7.48-5.89-8.17-.85-.22-1.91,.37-2.87,.59,.22,.87,.17,2,.71,2.56,2.46,2.56,5.09,4.96,7.91,7.66Zm-5.38-1.24c.07-2.77-3.91-6.46-6.18-6.27-1.52,.13-2.18,1.15-1.72,2.66,.5,1.63,4.27,4.8,5.96,4.71,.75-.04,1.46-.82,1.95-1.11Zm-87.62,74.27c.14-.63,.33-.96,.24-1.16-1.66-3.69-3.3-7.39-5.09-11.01-.21-.43-1.32-.42-2.01-.61-.19,.77-.78,1.73-.51,2.28,1.85,3.82,3.95,7.49,7.38,10.5Zm-18.81-66.12c.43-.82,.87-1.26,.81-1.61-.57-3.22-1.21-6.43-1.88-9.63-.09-.44-.45-.93-.83-1.16-.53-.33-1.32-.74-1.75-.56-.43,.19-.88,1.16-.75,1.65,.98,3.82,2.23,7.54,4.41,11.31Zm-3.75,11.15c.47-.65,.89-.96,.88-1.27-.08-3.23-.89-6.31-2.41-9.13-.3-.55-1.6-1.02-2.2-.82-.53,.18-1.15,1.47-.99,2.06,.87,3.25,2.07,6.38,4.72,9.15Zm74.38,145.49l.55,.6c.69-.29,1.5-.44,2.05-.9,2.05-1.74,4.08-3.52,5.94-5.45,.37-.39,.13-1.6-.17-2.28-.11-.26-1.4-.38-1.78-.08-2.82,2.21-4.94,5-6.59,8.12Zm-35.82-12.79l-.12-.72c-2.77,.2-5.55,.29-8.3,.66-.72,.1-1.33,1.05-2,1.61,.73,.47,1.44,1.29,2.21,1.34,3.11,.21,5.95-.6,8.21-2.88Zm-42.82-155.27c-1.49,.02-2.46,1.68-1.67,2.82,.98,1.41,2.25,2.65,3.54,3.81,.33,.3,1.27,.15,1.78-.1,.23-.12,.28-1.08,.08-1.5-.68-1.38-1.45-2.73-2.32-4-.35-.51-1.04-.78-1.4-1.03Zm7.11,18.64c1.03-3.1,.03-5.85-1.27-8.52-.19-.39-1.01-.74-1.44-.65-.36,.07-.87,.86-.82,1.26,.41,2.95,1.43,5.66,3.53,7.91Zm72.39,155.18l.42,.69c2.68-.3,4.45-2.08,5.87-4.28,.31-.49,.07-1.33,.09-2.01-.7,.16-1.64,.09-2.06,.53-1.53,1.6-2.9,3.37-4.32,5.07Zm30.3-64.14l.87,.21c1.83-1.71,2.22-3.99,2.13-6.4-.01-.39-.7-1.07-1.07-1.06-.42,0-1.11,.59-1.18,1-.34,2.07-.52,4.16-.76,6.24Z"/>
          <path class="cls-9" d="M612.35,155.87c.23-2.3,.47-4.6,.68-6.9,.2-2.22,.34-4.44,.56-6.66,.08-.76,.19-1.55,.51-2.23,.59-1.26,1.56-1.19,2.2-.14,.48,.79,.88,1.89,.74,2.75-.64,3.7-1.41,7.38-2.32,11.02-.23,.91-1.16,1.65-1.78,2.47l-.59-.31Z"/>
          <path class="cls-9" d="M594.75,209.69c2.16-.67,3.06-.25,2.72,1.57-.78,4.27-2.47,8.17-5.69,11.22-.48,.46-1.25,.61-2.17,1.04,1.67-4.65,3.19-8.86,4.7-13.08l.44-.74Z"/>
          <path class="cls-9" d="M619.38,66.16c-2.81-2.69-5.44-5.09-7.91-7.66-.54-.56-.49-1.69-.71-2.56,.96-.22,2.02-.81,2.87-.59,2.63,.69,5.76,5.2,5.89,8.17,.04,.85-.09,1.71-.14,2.64Z"/>
          <path class="cls-9" d="M616.6,75.08c-.2-1.14-.62-2.3-.51-3.41,.08-.8,.72-1.82,1.4-2.19,.42-.22,1.77,.41,2.07,.99,1.49,2.91,2.01,6.06,1.61,9.31-.08,.64-.78,1.2-1.57,2.33-1.15-2.7-2.07-4.87-3-7.04h0Z"/>
          <path class="cls-13" d="M526.39,139.19c-3.43-3.01-5.53-6.68-7.38-10.5-.27-.55,.32-1.51,.51-2.28,1.24,0,1.8,.18,2.01,.61,1.8,3.62,3.44,7.32,5.09,11.01,.09,.2-.1,.54-.24,1.16Z"/>
          <path class="cls-3" d="M507.58,73.07c-2.19-3.77-3.44-7.5-4.41-11.31-.12-.48,.33-1.46,.75-1.65,.43-.19,1.23,.23,1.75,.56,.38,.24,.74,.73,.83,1.16,.68,3.2,1.32,6.41,1.88,9.63,.06,.35-.38,.79-.81,1.61Z"/>
          <path class="cls-9" d="M542.39,216.92c-2.26,2.29-5.09,3.1-8.21,2.88-.76-.05-1.86-.5-2.21-1.34,.24-.99,1.27-1.51,2-1.61,2.75-.37,5.53-.46,8.3-.66l.12,.72Z"/>
          <path class="cls-18" d="M506.68,80.29c-2.11-2.25-3.12-4.96-3.53-7.91-.06-.4,.46-1.19,.82-1.26,.44-.09,1.25,.26,1.44,.65,1.3,2.67,2.3,5.42,1.27,8.52Z"/>
          <path class="cls-16" d="M579.08,235.47c1.43-1.7,2.79-3.47,4.32-5.07,.42-.43,1.36-.37,2.06-.53-.02,.68,.22,1.52-.09,2.01-1.42,2.2-3.19,3.98-5.87,4.28l-.42-.69Z"/>
          <path class="cls-13" d="M609.37,171.32c.24-2.08,.42-4.18,.76-6.24,.07-.41,.76-.99,1.18-1,.37,0,1.05,.67,1.07,1.06,.08,2.41-.3,4.69-2.13,6.4l-.87-.21Z"/>
        </g>
        <g>
          <path class="cls-11" d="M755.48,43.62h8.24c8.52,.56,16.55,2.85,24.36,6.28,6.23,2.73,11.24,6.89,15.46,12.05,6.08,7.42,9.48,15.95,9.89,25.6,.14,3.29,.53,6.6,.35,9.87-.31,5.93-3.03,10.99-6.63,15.53-2.76,3.49-8.45,4.55-12.49,2.61-3.15-1.51-5.6-3.83-7.43-6.78-1.02-1.65-2.13-3.29-2.81-5.08-1.77-4.64-5.52-7.47-9.39-9.93-3.75-2.38-8.16-3.01-12.63-2.56-3.19,.32-6.4,.56-9.54,1.15-4.48,.84-8.68,.13-12.77-1.66-3.94-1.73-7.96-2.87-12.35-2.89-11-.05-21.43,5.39-25.34,16.73-2.73,7.91-3.43,15.84-1.73,24.01,.73,3.52,2.53,6.4,5.05,8.96,6.82,.06,13.46-.83,19.77-3.79,6.84-3.21,13.83-6.1,20.63-9.38,5.45-2.62,11.09-2.51,16.81-1.78,11.33,1.43,21.63,5.93,30.74,12.43,13.72,9.78,21.29,23.01,19.94,40.56-.47,6.07,.04,12.21,.12,18.31,.09,7.18,.31,14.37,.27,21.55-.03,5.53-.3,11.06-.63,16.58-.23,3.91-1.98,7.24-4.56,10.16-2.61,2.94-5.6,5.39-9.13,7.11-6,2.92-12.05,5.74-18.09,8.58-4.98,2.35-10.16,3.76-15.73,3.5-5.16-.24-10.25,.45-15.37,1.05-12.01,1.41-23.97,1.29-35.85-1.66-3.39-.84-7.21-.82-10.69-.27-9.02,1.45-17.55,.19-25.94-3.16-5.12-2.04-10.3-3.97-15.53-5.72-10.45-3.51-16.66-10.88-19.83-21.17-2.05-6.65-1.63-13.25,.62-19.72,2.09-6.01,6.48-10.03,12.04-12.84,6.87-3.47,14.1-4.78,21.75-3.49,2.96,.5,5.98,.77,8.88,1.49,6.74,1.68,11.38,5.98,14.45,12.12,1,1.99,2.03,3.96,3.07,5.93,3.23,6.1,8.8,8.12,15.19,8.53,2.81,.18,5.63,.04,8.45,.03,4.46-.02,8.63,1.07,12.51,3.27,1.85,1.05,3.69,2.14,5.57,3.15,3.01,1.62,6.19,2.08,9.57,1.39,5.91-1.21,11.41-3.1,15.23-8.21,2.13-2.85,3.66-5.88,4.17-9.46,.48-3.36,1.49-6.51,3.23-9.55,1.9-3.34,3.71-6.95,4.48-10.67,1.09-5.2-.2-10.3-3.79-14.41-1.74-1.99-4.41-2.33-6.98-2.37-3.11-.04-6.22-.02-9.32-.04-3.6-.03-6.72-1.25-8.9-4.17-2.14-2.88-4.97-3.76-8.38-3.75-10.15,.02-20.11,1.2-29.88,4.06-12.51,3.66-24.91,3.16-37.06-1.59-5.93-2.32-11.29-5.66-15.78-10.18-5.67-5.72-7.66-13.11-8.82-20.78-2.01-13.33-.07-26.3,3.75-39.08,1.72-5.75,3.44-11.49,5.13-17.25,.22-.73,.44-1.54,.36-2.28-.97-9.13,2.91-16.15,9.47-22.04,8.58-7.7,18.45-11.18,30-9.2,3.44,.59,6.88,1.19,10.31,1.85,5.76,1.1,11.46,.14,17.06-.87,5.51-.99,10.89-2.68,16.32-4.08,3.37-.86,6.74-1.75,10.11-2.62Zm-98.73,86.29c.31,3.47,.48,6.97,.97,10.42,1.02,7.07,3.33,13.55,9.06,18.33,8.92,7.43,19.28,10.92,30.76,11.43,5.52,.24,10.72-1.22,16-2.55,6-1.51,12.06-2.86,18.16-3.86,4.19-.69,8.49-.74,12.75-.98,4.87-.28,9.26,.75,12.44,4.89,1.06,1.37,2.54,2.05,4.3,2.11,3.88,.12,7.76,.18,11.63,.42,4.15,.25,8.04,1.68,10.3,5.18,4.71,7.27,6.38,15,2.5,23.41-2.46,5.34-4.56,10.83-5.14,16.85-.4,4.11-2.4,7.76-5.52,10.65-5.29,4.9-11.58,7.72-18.67,8.72-2.37,.33-4.82,.4-7.22,.26-3.82-.22-6.93-2.38-10.05-4.32-4.35-2.69-9-3.97-14.12-3.66-2.13,.13-4.28,.17-6.41,.05-8.33-.48-15.29-3.42-19.48-11.16-.97-1.79-1.92-3.6-3.03-5.31-1.16-1.78-2.38-3.55-3.79-5.13-3.09-3.46-7.36-4.46-11.68-5.35-8.15-1.67-16.01-1.13-23.5,2.75-4.08,2.12-7.46,4.97-9.21,9.33-5.71,14.16,2.26,28.93,13.85,33.53,8.01,3.18,16.17,6.01,24.27,8.97,4.85,1.77,9.81,1.87,14.91,1.19,4.98-.67,10.05-1.3,15.03,.11,4.99,1.4,10.06,2.04,15.23,1.95,4.95-.08,9.92,.17,14.85-.21,7.23-.56,14.4-2.26,21.71-1,.47,.08,.97,0,1.45-.07,4.17-.54,8.16-1.71,11.94-3.52,5.59-2.67,11.2-5.33,16.7-8.18,5.03-2.61,9.44-5.99,10.68-11.95,.65-3.12,1.02-6.33,1.14-9.51,.22-5.63,.22-11.27,.17-16.9-.04-3.68-.37-7.36-.51-11.04-.19-5.04-.36-10.08-.48-15.11-.11-4.74,.34-9.54-.3-14.2-1.53-11.18-7.45-20.02-16.64-26.26-6.15-4.17-12.79-7.73-20-9.95-9.41-2.91-18.55-4.1-27.85,1.1-6.65,3.72-13.93,6.33-20.97,9.35-4.25,1.82-8.7,2.8-13.34,2.21-1.68-.21-3.64-.54-4.87-1.55-3.4-2.76-6.31-6.02-7.52-10.43-2.19-7.98-1.68-15.94,.36-23.84,1.34-5.19,3.25-10.17,6.84-14.29,7.62-8.78,17.66-10.75,28.55-9.63,3.3,.34,6.47,1.92,9.73,2.83,2.03,.56,4.14,1.37,6.18,1.28,4.05-.18,8.08-.95,12.12-1.38,10.05-1.07,18.68,1.18,24.15,10.56,1.51,2.59,2.98,5.22,4.37,7.88,1.46,2.82,3.4,5.2,6.04,6.95,2.45,1.63,5.69,1.34,7.66-.87,2.67-3,4.67-6.41,5.41-10.45,.93-5.06-.13-10.02-.61-15.03-.86-8.97-5.18-16.13-10.96-22.63-2.8-3.15-6.14-5.6-9.95-7.47-7.13-3.51-14.66-5.44-22.52-6.46-5.35-.7-10.42-.09-15.44,1.68-2.28,.81-4.62,1.45-6.93,2.18-8.29,2.61-16.78,4.25-25.48,3.82-5.01-.25-10.01-1.14-14.94-2.14-4.87-.99-9.7-.84-14.44,.14-7.01,1.44-12.6,5.5-17.03,10.98-4.05,5.01-6.07,10.72-4.75,17.31,.2,1.01,.09,2.15-.15,3.16-.92,3.96-1.89,7.91-2.96,11.83-2.92,10.69-5.41,21.44-5.74,32.62Z"/>
          <path class="cls-1" d="M656.75,129.91c.33-11.18,2.82-21.94,5.74-32.62,1.07-3.92,2.03-7.87,2.96-11.83,.24-1.02,.35-2.16,.15-3.16-1.32-6.59,.7-12.31,4.75-17.31,4.43-5.48,10.03-9.54,17.03-10.98,4.74-.97,9.57-1.12,14.44-.14,4.93,1,9.93,1.89,14.94,2.14,8.7,.43,17.19-1.21,25.48-3.82,2.31-.73,4.65-1.38,6.93-2.18,5.02-1.77,10.09-2.38,15.44-1.68,7.86,1.03,15.39,2.96,22.52,6.46,3.81,1.87,7.15,4.32,9.95,7.47,5.78,6.5,10.1,13.66,10.96,22.63,.48,5.02,1.54,9.97,.61,15.03-.74,4.04-2.74,7.45-5.41,10.45-1.97,2.21-5.21,2.49-7.66,.87-2.64-1.76-4.58-4.14-6.04-6.95-1.38-2.66-2.85-5.29-4.37-7.88-5.48-9.38-14.11-11.64-24.15-10.56-4.05,.43-8.07,1.2-12.12,1.38-2.04,.09-4.15-.72-6.18-1.28-3.26-.9-6.42-2.49-9.73-2.83-10.89-1.12-20.93,.85-28.55,9.63-3.58,4.13-5.5,9.1-6.84,14.29-2.04,7.9-2.55,15.86-.36,23.84,1.21,4.41,4.12,7.67,7.52,10.43,1.24,1,3.19,1.33,4.87,1.55,4.64,.59,9.1-.39,13.34-2.21,7.04-3.01,14.31-5.63,20.97-9.35,9.3-5.2,18.44-4.01,27.85-1.1,7.21,2.23,13.85,5.78,20,9.95,9.2,6.25,15.11,15.08,16.64,26.26,.64,4.66,.19,9.46,.3,14.2,.12,5.04,.29,10.08,.48,15.11,.14,3.68,.48,7.36,.51,11.04,.06,5.63,.05,11.27-.17,16.9-.12,3.18-.49,6.39-1.14,9.51-1.24,5.96-5.65,9.34-10.68,11.95-5.5,2.85-11.11,5.51-16.7,8.18-3.78,1.81-7.77,2.98-11.94,3.52-.48,.06-.98,.15-1.45,.07-7.32-1.26-14.48,.45-21.71,1-4.93,.38-9.9,.13-14.85,.21-5.18,.09-10.24-.55-15.23-1.95-4.98-1.4-10.05-.77-15.03-.11-5.1,.68-10.06,.58-14.91-1.19-8.1-2.96-16.26-5.78-24.27-8.97-11.59-4.6-19.55-19.36-13.85-33.53,1.76-4.36,5.13-7.21,9.21-9.33,7.49-3.88,15.36-4.42,23.5-2.75,4.32,.89,8.6,1.89,11.68,5.35,1.41,1.58,2.63,3.35,3.79,5.13,1.11,1.7,2.06,3.52,3.03,5.31,4.19,7.74,11.15,10.68,19.48,11.16,2.13,.12,4.28,.08,6.41-.05,5.12-.31,9.77,.97,14.12,3.66,3.12,1.93,6.23,4.1,10.05,4.32,2.4,.14,4.84,.07,7.22-.26,7.09-1,13.38-3.82,18.67-8.72,3.12-2.89,5.12-6.54,5.52-10.65,.58-6.02,2.68-11.51,5.14-16.85,3.88-8.41,2.21-16.13-2.5-23.41-2.27-3.5-6.16-4.93-10.3-5.18-3.87-.23-7.75-.3-11.63-.42-1.76-.05-3.25-.74-4.3-2.11-3.18-4.13-7.57-5.16-12.44-4.89-4.26,.24-8.56,.29-12.75,.98-6.1,1.01-12.16,2.35-18.16,3.86-5.27,1.33-10.48,2.79-16,2.55-11.49-.51-21.85-4-30.76-11.43-5.73-4.78-8.04-11.26-9.06-18.33-.5-3.45-.66-6.94-.97-10.42Zm33.15,89.86c-1.02-2.03-1.73-4.18-3.03-5.88-2.43-3.16-5.48-5.74-9.04-7.6-2.69-1.4-5.47-1.85-8.27-.13-2.67,1.64-2.88,4.92-.29,6.57,2.36,1.51,4.81,2.87,7.27,4.19,2.37,1.28,4.73,2.64,7.25,3.56,1.77,.65,3.85,1.49,6.12-.72Zm106.42-3.97c.06-4.42-1.93-6.99-4.92-7.16-2.95-.17-5.32,2.04-5.55,5.45-.31,4.62-.44,9.25-.63,13.88-.06,1.56-.17,3.32,1.73,3.87,1.69,.48,2.91-.68,4.02-1.81,.2-.21,.38-.44,.55-.67,3.15-4.27,3.6-9.45,4.8-13.55Zm-3.68-48.94c.08-.92,.2-1.48,.18-2.04-.17-5.09-7.28-12.23-10.94-13.72-1.66-.68-3.93,.15-4.65,1.41-.81,1.41-.53,3.43,.7,4.78,.39,.43,.84,.79,1.3,1.15,1.51,1.19,2.99,2.42,4.57,3.52,2.66,1.85,5.23,3.89,8.85,4.9Zm-113.97-23.82c1.26-5.51,1.27-10.42,.97-15.32-.13-2.08-1.78-3.11-3.91-3.03-1.82,.06-3.15,.8-3.45,2.89-.69,4.73-.57,9.46,2.91,13.3,.78,.86,2.02,1.29,3.47,2.17Zm111.24-76.51c-.02-.16-.02-.45-.09-.73-.89-3.37-8.4-8.47-11.9-8.03-2.01,.25-4.02,2.31-2.41,4.29,2.82,3.47,6.06,6.49,10.56,7.68,2.03,.54,3.9-1.02,3.84-3.21Zm-130.84,170.99c-1.05-2.46-2-4.23-2.58-6.11-1.17-3.78-2.09-7.64-3.2-11.44-.56-1.93-1.65-2.74-3.03-2.53-1.31,.21-2.23,1.45-2.36,3.26-.03,.38,0,.77,.07,1.15,.96,6.25,4.07,11.2,9.08,14.98,.35,.26,.86,.3,2.02,.68Zm11.16-89.02c-.86-2.82-1.74-5.54-2.51-8.3-.39-1.39-.53-2.86-.85-4.27-.45-1.95-1.66-3.08-3.06-2.96-1.51,.13-2.85,1.74-2.62,3.63,.52,4.25,2.02,8.09,5.44,10.91,1.04,.86,2.2,1.59,3.62,.98Zm126.53,13.36c-.19-1.61-.23-2.72-.46-3.79-.74-3.45-2.75-6.12-5.44-8.29-1.08-.87-2.33-1.01-3.44-.05-.95,.82-.77,2.42,.33,3.61,.33,.35,.75,.62,1.08,.97,2.06,2.16,4.09,4.35,6.17,6.49,.33,.35,.85,.52,1.76,1.06Zm-118.96-95.18c-2.05-.18-2.49-.15-3.46,.79-2.04,1.99-3.06,4.42-2.9,7.31,.09,1.51,.94,2.37,2.35,2.47,1.46,.11,1.86-.92,2.11-2.22,.52-2.74,1.22-5.44,1.9-8.35Zm30.41-2.01c-3.03-1.61-4.76-2.23-6.45-1.68-.85,.28-1.82,1.16-2.09,1.98-.22,.68,.25,1.98,.86,2.46,2.25,1.81,6.72,.12,7.68-2.76Zm-20.74,3.38c-3.07,.43-5.13,1.43-6.62,3.47-.66,.9-.6,1.96,.34,2.55,.5,.32,1.73,.35,2,0,1.42-1.75,2.64-3.67,4.27-6.03Zm111.06,27.36c1.55-1.95,1.44-3.67,1.28-5.37-.11-1.14-.62-2.22-1.97-1.93-1.27,.27-1.52,1.33-1.07,2.52,.54,1.42,1.05,2.85,1.76,4.78Z"/>
          <path class="cls-1" d="M689.9,219.77c-2.27,2.21-4.35,1.36-6.12,.72-2.51-.92-4.88-2.28-7.25-3.56-2.46-1.33-4.92-2.69-7.27-4.19-2.59-1.66-2.37-4.94,.29-6.57,2.8-1.72,5.58-1.27,8.27,.13,3.56,1.86,6.61,4.44,9.04,7.6,1.3,1.7,2.01,3.85,3.03,5.88Z"/>
          <path class="cls-1" d="M796.33,215.8c-1.19,4.1-1.64,9.28-4.8,13.55-.17,.23-.35,.47-.55,.67-1.11,1.13-2.33,2.3-4.02,1.81-1.9-.54-1.79-2.31-1.73-3.87,.18-4.63,.32-9.26,.63-13.88,.23-3.41,2.6-5.62,5.55-5.45,2.98,.17,4.98,2.74,4.92,7.16Z"/>
          <path class="cls-1" d="M792.64,166.86c-3.62-1.01-6.19-3.05-8.85-4.9-1.58-1.1-3.05-2.33-4.57-3.52-.45-.36-.91-.72-1.3-1.15-1.23-1.35-1.51-3.37-.7-4.78,.72-1.26,2.99-2.09,4.65-1.41,3.66,1.49,10.77,8.63,10.94,13.72,.02,.56-.09,1.12-.18,2.04Z"/>
          <path class="cls-1" d="M678.68,143.04c-1.45-.88-2.7-1.31-3.47-2.17-3.48-3.84-3.61-8.57-2.91-13.3,.3-2.09,1.64-2.82,3.45-2.89,2.13-.07,3.78,.96,3.91,3.03,.3,4.9,.29,9.81-.97,15.32Z"/>
          <path class="cls-1" d="M789.92,66.52c.06,2.19-1.82,3.75-3.84,3.21-4.5-1.19-7.74-4.21-10.56-7.68-1.61-1.99,.4-4.04,2.41-4.29,3.51-.44,11.02,4.66,11.9,8.03,.07,.28,.07,.57,.09,.73Z"/>
          <path class="cls-15" d="M659.08,237.51c-1.15-.38-1.67-.42-2.02-.68-5.01-3.78-8.13-8.73-9.08-14.98-.06-.38-.1-.77-.07-1.15,.13-1.81,1.04-3.05,2.36-3.26,1.37-.22,2.46,.6,3.03,2.53,1.11,3.8,2.03,7.65,3.2,11.44,.58,1.89,1.53,3.66,2.58,6.11Z"/>
          <path class="cls-2" d="M670.25,148.5c-1.42,.61-2.58-.12-3.62-.98-3.41-2.83-4.92-6.66-5.44-10.91-.23-1.89,1.11-3.51,2.62-3.63,1.4-.12,2.61,1.01,3.06,2.96,.33,1.41,.47,2.88,.85,4.27,.77,2.76,1.65,5.48,2.51,8.3Z"/>
          <path class="cls-2" d="M796.77,161.86c-.92-.54-1.43-.71-1.76-1.06-2.08-2.14-4.11-4.33-6.17-6.49-.33-.35-.75-.61-1.08-.97-1.1-1.19-1.28-2.79-.33-3.61,1.11-.96,2.36-.82,3.44,.05,2.69,2.17,4.7,4.84,5.44,8.29,.23,1.07,.27,2.18,.46,3.79Z"/>
          <path class="cls-5" d="M677.82,66.68c-.67,2.92-1.38,5.62-1.9,8.35-.25,1.3-.66,2.33-2.11,2.22-1.41-.1-2.26-.97-2.35-2.47-.16-2.89,.86-5.32,2.9-7.31,.97-.94,1.41-.97,3.46-.79Z"/>
          <path class="cls-1" d="M708.22,64.67c-.97,2.88-5.43,4.57-7.68,2.76-.6-.48-1.08-1.78-.86-2.46,.27-.82,1.24-1.7,2.09-1.98,1.68-.55,3.42,.07,6.45,1.68Z"/>
          <path class="cls-10" d="M687.48,68.05c-1.63,2.36-2.85,4.28-4.27,6.03-.28,.34-1.5,.31-2,0-.94-.59-1-1.65-.34-2.55,1.49-2.04,3.54-3.04,6.62-3.47Z"/>
          <path class="cls-4" d="M798.55,95.4c-.71-1.93-1.23-3.36-1.76-4.78-.45-1.19-.21-2.25,1.07-2.52,1.35-.29,1.86,.79,1.97,1.93,.16,1.7,.27,3.42-1.28,5.37Z"/>
        </g>
      </g>
    </g>
  </g>
</svg>