<?xml version="1.0" encoding="UTF-8"?>
<svg xmlns="http://www.w3.org/2000/svg" viewBox="0 0 1598.43 379.99">
  <defs>
    <style>
      .cls-1 {
        fill: #fff;
      }

      .cls-2 {
        fill: #14100f;
      }

      .cls-3 {
        fill: #121210;
      }

      .cls-4 {
        fill: #171012;
      }

      .cls-5 {
        fill: #151010;
      }

      .cls-6 {
        fill: #13110d;
      }

      .cls-7 {
        fill: #12100e;
      }

      .cls-8 {
        fill: #121412;
      }

      .cls-9 {
        fill: #14110e;
      }

      .cls-10 {
        fill: #121716;
      }

      .cls-11 {
        fill: #07bff9;
        stroke: #1d1d1b;
        stroke-miterlimit: 10;
        stroke-width: 10px;
      }

      .cls-12 {
        fill: #191015;
      }

      .cls-13 {
        fill: #14120e;
      }

      .cls-14 {
        fill: #67785a;
      }

      .cls-15 {
        fill: #12100d;
      }

      .cls-16 {
        fill: #141111;
      }

      .cls-17 {
        fill: #13110f;
      }

      .cls-18 {
        fill: #191311;
      }

      .cls-19 {
        fill: #13100d;
      }

      .cls-20 {
        fill: #13100e;
      }

      .cls-21 {
        fill: #17140e;
      }

      .cls-22 {
        fill: #121413;
      }

      .cls-23 {
        fill: #19160f;
      }

      .cls-24 {
        fill: #13100f;
      }
    </style>
  </defs>
  <g id="_лой_1" data-name="Слой 1"/>
  <g id="_лой_2" data-name="Слой 2">
    <g id="_лой_1-2" data-name="Слой 1">
      <rect class="cls-11" x="5" y="5" width="1588.43" height="369.99" rx="32.75" ry="32.75"/>
    </g>
    <g id="_лой_5" data-name="Слой 5">
      <g>
        <g>
          <path class="cls-15" d="M283.06,82.51c1.23,4.28,1.75,8.6,1.5,13.11-.87,15.41-3.22,30.59-6.8,45.56-2.41,10.08-2.13,19.88,1.07,29.73,2.2,6.75,3.68,13.74,2.5,20.9-.61,3.67-1.87,7.23-2.96,10.81-.89,2.95-1.99,5.84-2.94,8.77-2.1,6.44-2.29,13.01-1.25,19.67,2.3,14.75,4.76,29.48,6.82,44.26,1.13,8.1,1.87,16.28,2.27,24.45,.38,7.94-2.91,14.64-8.43,20.18-2.38,2.39-5.38,3.8-8.63,4.46-3.84,.78-7.73,1.32-11.6,2.02-.55,.1-1.33-.14-1.86,.1-1.26,.29-2.02,.29-3.33,.29-1.03,0-2.37-.71-3.44-.9-3.16-.54-6.07-1.64-8.87-3.22-5.43-3.05-10.95-5.93-16.42-8.89-3.46-1.87-7.08-2.26-10.76-.98-5.76,2-11.7,3.66-17.13,6.36-14.2,7.07-29,8.35-44.34,5.95-2.13-.33-4.31-.84-6.3-1.67-8.15-3.41-16.31-6.8-23.92-11.42-4.38-2.66-8.73-5.5-13.85-6.56-2.99-.62-6.01-1.1-9.04-1.49-10.41-1.34-18.38-6.31-23.75-15.63-1.52-2.63-3.9-4.82-4.5-7.94-.68-3.47-1.56-7-1.52-10.49,.1-7.85,.73-15.71,2.43-23.41,1.78-8.04,5.09-15.49,8.48-22.93,1.49-3.29,2.7-6.76,3.55-10.28,1.21-4.97,.12-9.93-1.08-14.77-1.43-5.74-2.21-11.53-1.73-17.43,1.18-14.22,7.5-25.53,19.25-33.41,3.03-2.04,6.61-3.45,10.13-4.48,6.17-1.79,12.45-3.27,18.76-4.5,6.7-1.3,13.48-1.13,20.13,.57,5.15,1.33,10.32,2.15,15.44,.26,3.16-1.16,6.18-2.73,9.2-4.23,1.26-.63,2.41-1.51,3.56-2.35,7.4-5.42,15.49-5.97,24-3.53,4.48,1.28,8.12,3.81,10.75,7.68,1.86,2.73,3.52,5.59,5.2,8.43,1.23,2.09,2.35,4.24,3.75,6.78,.33-.98,.66-1.59,.75-2.24,1.08-8.01,1.91-16.03,1.96-24.14,.09-13.54,1.08-27,4.16-40.22,1.05-4.52,2.43-8.93,4.58-13.08,2.62-5.06,6.59-8.11,12.16-9.08,.98-.17,2.33-.62,3.42-.39,1.96,0,3.26-.23,5.22-.23,.43,.23,.93,.08,1.38,.17,4.92,.94,9.86,1.8,14.78,2.77,9.21,1.81,14.68,7.69,17.25,16.61Zm-4.94,15.09c.81-5.01-.16-9.65-1.57-14.3-1.6-5.27-4.66-9.21-10.17-10.67-1.26-.33-2.54-.66-3.82-.84-5.38-.75-10.77-1.41-16.15-2.18-5.65-.82-10.12,1.35-12.82,6.34-2.27,4.2-3.34,8.79-4.42,13.43-2.82,12.13-3.22,24.47-3.5,36.83-.04,1.86,.42,3.75,.31,5.6-.27,4.52-.59,9.04-1.19,13.52-.52,3.91-1.39,7.79-2.23,11.65-.41,1.91-1.35,3.56-3.49,3.92-2.16,.36-3.85-.59-5.08-2.33-1.21-1.7-2.36-3.45-3.41-5.25-2.27-3.9-4.36-7.91-6.71-11.75-1.97-3.24-4.86-5.31-8.64-5.97-6.4-1.13-12.53-1-18.05,3.18-1.91,1.44-4.03,2.62-6.15,3.76-5.93,3.19-12.15,5.54-19,5.02-3.23-.24-6.43-.99-9.63-1.62-5.06-.99-10.13-1.57-15.22-.46-6.26,1.36-12.55,2.63-18.69,4.43-3.5,1.02-7.03,2.57-10,4.69-11.18,7.98-18.58,23.77-14.5,39.76,.89,3.51,1.5,7.1,2.13,10.67,.98,5.56,.42,11.02-1.72,16.22-1.98,4.79-4.26,9.44-6.27,14.2-4.52,10.74-5.86,22.09-6.36,33.69,.47,4.04,.28,8.3,1.55,12.07,2.49,7.44,7.57,12.92,15.14,15.28,4.12,1.28,8.46,1.97,12.74,2.57,5.35,.74,10.36,2.28,15.03,5.06,8.08,4.82,16.41,9.11,25.15,12.56,4.5,1.78,9.08,2.94,13.92,3.12,4.78,.18,9.55,.43,14.32-.06,5.31-.54,10.48-1.5,15.46-3.65,7-3.01,14.06-5.89,21.23-8.45,6.17-2.21,12.59-2.24,18.32,1.23,5.54,3.36,11.55,5.65,17.26,8.61,3.33,1.73,7.07,2.27,10.77,2.13,3.13-.11,6.26-.72,9.36-1.25,7.55-1.29,13.42-7.68,14.69-15.32,1.15-6.89-.49-13.64-.47-20.47,0-2.3-.39-4.61-.73-6.89-1.38-9.15-2.82-18.28-4.21-27.42-.81-5.33-1.71-10.66-2.31-16.01-.49-4.36-1.29-8.69-.54-13.18,1.01-6,2.6-11.81,4.56-17.54,1.47-4.3,2.36-8.68,2.38-13.27,.04-5.94-1.43-11.59-2.96-17.21-1.55-5.67-2.6-11.35-2.47-17.28,.15-6.67,1.79-13.07,3.06-19.55,1.34-6.91,2.59-13.85,3.57-20.82,.73-5.24,.68-10.59,1.53-15.8Z"/>
          <path class="cls-1" d="M276.55,83.3c1.41,4.65,2.38,9.29,1.57,14.3-.85,5.21-.8,10.56-1.53,15.8-.98,6.97-2.23,13.91-3.57,20.82-1.27,6.48-2.91,12.88-3.06,19.55-.13,5.93,.92,11.61,2.47,17.28,1.53,5.62,3,11.27,2.96,17.21-.02,4.59-.91,8.97-2.38,13.27-1.96,5.73-3.55,11.54-4.56,17.54-.75,4.49,.05,8.82,.54,13.18,.6,5.35,1.5,10.68,2.31,16.01,1.39,9.14,2.83,18.27,4.21,27.42,.34,2.28,.73,4.59,.73,6.89-.02,6.83,1.62,13.58,.47,20.47-1.27,7.64-7.14,14.03-14.69,15.32-3.1,.53-6.23,1.14-9.36,1.25-3.7,.14-7.44-.4-10.77-2.13-5.71-2.96-11.72-5.25-17.26-8.61-5.73-3.47-12.15-3.44-18.32-1.23-7.17,2.56-14.23,5.44-21.23,8.45-4.98,2.15-10.15,3.11-15.46,3.65-4.77,.49-9.54,.24-14.32,.06-4.84-.18-9.42-1.34-13.92-3.12-8.74-3.45-17.07-7.74-25.15-12.56-4.67-2.78-9.68-4.32-15.03-5.06-4.28-.6-8.62-1.29-12.74-2.57-7.57-2.36-12.65-7.84-15.14-15.28-1.27-3.77-1.08-8.03-1.55-12.07,.5-11.6,1.84-22.95,6.36-33.69,2.01-4.76,4.29-9.41,6.27-14.2,2.14-5.2,2.7-10.66,1.72-16.22-.63-3.57-1.24-7.16-2.13-10.67-4.08-15.99,3.32-31.78,14.5-39.76,2.97-2.12,6.5-3.67,10-4.69,6.14-1.8,12.43-3.07,18.69-4.43,5.09-1.11,10.16-.53,15.22,.46,3.2,.63,6.4,1.38,9.63,1.62,6.85,.52,13.07-1.83,19-5.02,2.12-1.14,4.24-2.32,6.15-3.76,5.52-4.18,11.65-4.31,18.05-3.18,3.78,.66,6.67,2.73,8.64,5.97,2.35,3.84,4.44,7.85,6.71,11.75,1.05,1.8,2.2,3.55,3.41,5.25,1.23,1.74,2.92,2.69,5.08,2.33,2.14-.36,3.08-2.01,3.49-3.92,.84-3.86,1.71-7.74,2.23-11.65,.6-4.48,.92-9,1.19-13.52,.11-1.85-.35-3.74-.31-5.6,.28-12.36,.68-24.7,3.5-36.83,1.08-4.64,2.15-9.23,4.42-13.43,2.7-4.99,7.17-7.16,12.82-6.34,5.38,.77,10.77,1.43,16.15,2.18,1.28,.18,2.56,.51,3.82,.84,5.51,1.46,8.57,5.4,10.17,10.67Zm-62.8,146.18c2.8-11.01,4.9-25.03-1.27-35.3-1.14-1.89-2.72-3.14-4.46-3.8-.71-.98-1.68-1.86-2.98-2.58-3.24-1.81-5.52-5.48-8.08-8.37-3.61-4.05-8.08-7.32-13.51-8.3-12.9-2.33-19.74,8.21-28.42,15.38-4,3.3-8.47,6.06-12.11,9.79-4.49,4.59-7.8,10.16-9.76,16.27-1.52,4.77-1.97,9.82-2.3,14.82-.79-.22-1.59-.35-2.36-.35-4.18,0-7.3,2.85-8.68,6.61-2.23,6.06-.84,12.29,3.61,16.05,.5,1.04,1.03,2.06,1.6,3.04-1.52,6.42-2.02,13.01,.95,19.19,4.33,9.01,14.54,12.97,23.81,14.74,11.96,2.27,26.13,1.32,36.7-4.82,5.34-.28,10.4-1.79,14.35-5.86,8.06-8.29,7.85-21.62,7.4-32.58,2.45-4.39,4.25-8.99,5.51-13.93Z"/>
        </g>
        <path class="cls-1" d="M71.77,269.13c.5-11.6,1.84-22.94,6.37-33.68,2.01-4.77,4.29-9.42,6.26-14.2,2.15-5.2,2.7-10.66,1.72-16.22-.63-3.57-1.24-7.16-2.13-10.67-4.08-15.99,3.32-31.78,14.51-39.76,2.96-2.11,6.5-3.67,9.99-4.69,6.14-1.8,12.43-3.07,18.69-4.43,5.09-1.11,10.16-.53,15.22,.46,3.2,.63,6.4,1.38,9.63,1.62,6.85,.52,13.07-1.83,19-5.02,2.11-1.14,4.24-2.32,6.15-3.76,5.52-4.18,11.65-4.3,18.04-3.18,3.78,.67,6.67,2.74,8.64,5.97,2.35,3.85,4.44,7.85,6.71,11.75,1.05,1.8,2.2,3.56,3.41,5.26,1.23,1.73,2.92,2.69,5.08,2.32,2.14-.36,3.08-2.01,3.49-3.92,.83-3.87,1.71-7.74,2.23-11.66,.6-4.48,.91-9,1.19-13.51,.11-1.86-.36-3.74-.31-5.61,.28-12.36,.68-24.7,3.5-36.83,1.08-4.64,2.15-9.22,4.42-13.43,2.7-4.99,7.16-7.15,12.82-6.34,5.38,.77,10.77,1.43,16.15,2.19,1.29,.18,2.56,.51,3.82,.84,5.52,1.45,8.57,5.4,10.17,10.67,1.41,4.65,2.39,9.29,1.57,14.3-.85,5.21-.8,10.56-1.53,15.8-.98,6.97-2.22,13.91-3.57,20.82-1.27,6.48-2.9,12.88-3.06,19.56-.13,5.92,.92,11.61,2.47,17.28,1.53,5.62,3,11.27,2.97,17.21-.03,4.59-.91,8.96-2.38,13.27-1.96,5.72-3.55,11.53-4.56,17.54-.75,4.49,.05,8.81,.54,13.17,.6,5.36,1.5,10.68,2.31,16.01,1.39,9.14,2.83,18.28,4.21,27.42,.34,2.28,.73,4.6,.73,6.89-.01,6.83,1.62,13.58,.48,20.47-1.27,7.64-7.14,14.03-14.69,15.31-3.1,.53-6.23,1.15-9.36,1.26-3.7,.13-7.45-.4-10.78-2.13-5.71-2.96-11.71-5.25-17.26-8.62-5.73-3.47-12.14-3.44-18.32-1.23-7.16,2.57-14.23,5.44-21.22,8.46-4.98,2.14-10.16,3.11-15.46,3.65-4.77,.49-9.54,.23-14.32,.06-4.84-.18-9.42-1.34-13.92-3.12-8.74-3.45-17.08-7.74-25.15-12.56-4.67-2.79-9.68-4.32-15.03-5.07-4.29-.6-8.62-1.29-12.74-2.57-7.58-2.36-12.65-7.84-15.15-15.28-1.26-3.77-1.08-8.03-1.55-12.07Zm39.14-98.94c.46-2.07,.92-4.15,1.42-6.39-5.28,1.33-6.7,3.28-5.42,7.03-3.54,1.95-6.2,4.7-7.5,8.63-.92,2.78-.07,5.32,2.07,6.63,2.14,1.32,4.33,1.01,6.38-1.27,2.41-2.68,4.22-5.79,5.24-9.31,.27-.93,.3-1.93,.38-2.9,.14-1.86-.78-2.63-2.56-2.43Zm49.02,117.59c1.72,0,3.81,.18,5.86-.04,4.53-.48,9.03-1.25,13.56-1.75,5.9-.66,11.46-2.25,16.62-5.34,9.92-5.94,15.03-14.63,15.28-26.36,.13-5.79-.7-11.42-1.74-17.07-.78-4.2-1.62-8.53-1.4-12.75,.23-4.56,1.52-9.1,2.61-13.58,1.02-4.19,2.19-8.36,1.72-12.71-.91-8.43-4.29-15.36-12.49-18.68-8.21-3.32-16.71-3.75-25.27-1.49-10.89,2.87-18.67,10.07-25.25,18.9-3.73,5-5.93,10.77-7.78,16.67-1.59,5.06-4.02,9.5-8.02,13.02-1.89,1.66-3.68,3.48-5.34,5.38-8.14,9.3-10.82,25.66,.35,36.54,3.07,2.99,6.26,5.84,9.31,8.84,.73,.71,1.08,1.8,1.7,2.65,.8,1.11,1.48,2.69,2.58,3.15,5.57,2.33,10.87,5.82,17.7,4.63Zm76.28-64.99c2.75-4.84,3.46-10.07,4.33-15.22,.62-3.66,.98-7.38,1.24-11.09,.11-1.6-.04-3.37-.61-4.84-1.54-3.99-6.16-5-8.8-1.49-1.25,1.67-1.61,3.6-1.56,5.57,.11,4.95,.2,9.92,.66,14.84,.3,3.24,1.23,6.41,1.88,9.62,.29,1.43,1.06,2.36,2.87,2.62Zm14.49-108.06c-.33-2.6-.47-5.24-1.05-7.78-.48-2.08-2.63-3.33-4.7-3.26-2.24,.08-3.78,1-4.26,3.32-.52,2.55-.82,5.24-.61,7.82,.36,4.45,1.05,8.88,1.87,13.27,.65,3.52,1.67,6.98,2.59,10.45,.11,.41,.65,1.01,.96,.99,.39-.02,.89-.52,1.1-.94,.44-.87,.85-1.79,1.05-2.74,1.42-6.96,2.84-13.93,3.06-21.13Zm15.59-2.65c3.08-2.09,3.71-4.66,3.69-7.34-.05-6.73-1.84-13.03-5.12-18.86-.52-.93-1.29-1.83-2.14-2.44-1.93-1.39-4.07-2.05-6.41-.98-2.68,1.23-3.04,4.06-.86,6.07,.85,.79,1.75,1.68,2.21,2.72,2.61,5.8,5.11,11.66,7.61,17.51,.4,.94,.62,1.97,1.03,3.33ZM103.4,225.19c-5.01,3.13-7.69,7.2-9.67,11.79-1.43,3.31-2.41,6.76-1.94,10.44,.34,2.62,1.71,3.78,3.9,3.97,2.5,.22,3.63-2.02,4.01-3.93,1.24-6.31,2.49-12.61,3.68-18.93,.17-.88,.02-1.81,.02-3.33Zm84.09-80.24c-.76-.31-1.28-.74-1.7-.65-3.35,.7-6.78,1.24-10,2.37-2.07,.73-3.88,2.3-5.71,3.63-1.23,.9-1.15,2.32-.74,3.62,.67,2.12,3.44,3.23,5.7,1.89,4.65-2.76,9.28-5.64,12.44-10.86Zm73.42,149.46c-.81,.24-1.22,.23-1.39,.43-2.76,3.3-6.6,4.43-10.51,5.39-1.57,.38-3.18,.59-4.77,.91-1.53,.3-2.28,1.54-2.18,2.85,.07,.9,.92,2.07,1.73,2.48,1.09,.55,2.53,.79,3.73,.59,2-.34,3.98-.99,5.87-1.77,3.35-1.39,5.8-3.83,7.03-7.33,.36-1.02,.31-2.19,.49-3.55Zm-68.66,11.85c1.64-.71,3.02-1.1,4.19-1.84,4.14-2.62,8.21-5.35,12.27-8.09,.45-.3,.64-.99,.96-1.49-.54-.16-1.08-.47-1.6-.45-4.53,.22-8.62,1.98-12.68,3.83-1.58,.72-3.2,1.42-4.65,2.37-1.18,.77-1.75,2.19-1.03,3.47,.51,.91,1.65,1.47,2.54,2.2Zm42.62-204.45c-2.74,3.06-3.85,6.79-4.72,10.59-.46,2.01-.68,4.11-.66,6.17,.01,1.55,1.18,2.58,2.66,2.94,1.16,.29,2.81-.89,3.1-2.38,1.11-5.74,1.36-11.5-.37-17.32Zm-130.47,58.39l-.57-.51c-5.78,2.48-9.38,7.01-11.42,12.97-.23,.67-.18,1.53,0,2.22,.49,1.87,2.4,2.53,3.76,1.22,.84-.81,1.44-1.92,1.98-2.98,1.85-3.61,3.62-7.26,5.41-10.9,.32-.65,.56-1.34,.84-2.01Z"/>
        <path class="cls-15" d="M159.93,287.78c-6.83,1.19-12.13-2.3-17.7-4.63-1.1-.46-1.78-2.04-2.58-3.15-.61-.85-.97-1.94-1.7-2.65-3.05-3-6.25-5.85-9.31-8.84-11.17-10.87-8.49-27.24-.35-36.54,1.66-1.9,3.45-3.72,5.34-5.38,4.01-3.52,6.43-7.97,8.02-13.02,1.85-5.9,4.05-11.67,7.78-16.67,6.57-8.83,14.36-16.03,25.25-18.9,8.57-2.26,17.07-1.83,25.27,1.49,8.2,3.32,11.58,10.25,12.49,18.68,.47,4.35-.71,8.52-1.72,12.71-1.09,4.48-2.38,9.02-2.61,13.58-.22,4.22,.63,8.55,1.4,12.75,1.04,5.66,1.87,11.28,1.74,17.07-.25,11.74-5.37,20.42-15.28,26.36-5.16,3.09-10.71,4.69-16.62,5.34-4.53,.5-9.03,1.27-13.56,1.75-2.05,.22-4.14,.04-5.86,.04Zm-6.92-7.07c4.04-.34,6.86-.59,9.69-.81,5.65-.43,11.32-.75,16.96-1.3,2.26-.22,4.58-.64,6.7-1.44,6.73-2.51,12.56-6.34,15.74-13.16,2.18-4.67,3.07-9.72,2.51-14.89-.4-3.62-1.02-7.24-1.8-10.79-1.88-8.49-1.76-16.9,.36-25.32,.86-3.43,1.74-6.86,2.36-10.34,1.49-8.44-2.98-15.83-11.04-18.17-7.34-2.12-14.74-2.25-21.79,.98-10.34,4.73-17.98,12.37-22.5,23.01-1.29,3.04-2.25,6.22-3.3,9.36-1.48,4.4-3.85,8.13-7.4,11.14-2,1.7-3.79,3.66-5.69,5.49-4.27,4.11-6.15,9.3-6.62,15.11-.47,5.8,1.81,10.64,5.58,14.74,3.95,4.29,8.15,8.33,12.2,12.53,2.56,2.66,5.35,4.6,8.06,3.86Z"/>
        <path class="cls-1" d="M236.21,222.78c-1.81-.26-2.58-1.19-2.87-2.62-.65-3.2-1.58-6.38-1.88-9.62-.46-4.93-.54-9.89-.66-14.84-.04-1.96,.31-3.9,1.56-5.57,2.64-3.51,7.26-2.49,8.8,1.49,.57,1.48,.72,3.24,.61,4.84-.25,3.71-.62,7.43-1.24,11.09-.87,5.15-1.58,10.38-4.33,15.22Z"/>
        <path class="cls-19" d="M266.29,112.07c-.42-1.36-.63-2.39-1.03-3.33-2.5-5.85-5-11.71-7.61-17.51-.47-1.04-1.36-1.93-2.21-2.72-2.18-2.01-1.81-4.84,.86-6.07,2.34-1.08,4.48-.41,6.41,.98,.86,.62,1.62,1.51,2.14,2.44,3.28,5.84,5.07,12.14,5.12,18.86,.02,2.68-.6,5.25-3.69,7.34Z"/>
        <path class="cls-1" d="M103.4,225.19c0,1.52,.14,2.45-.02,3.33-1.19,6.32-2.44,12.62-3.68,18.93-.37,1.91-1.5,4.15-4.01,3.93-2.19-.19-3.56-1.35-3.9-3.97-.47-3.67,.5-7.13,1.94-10.44,1.99-4.59,4.66-8.66,9.67-11.79Z"/>
        <path class="cls-1" d="M110.91,170.19c1.78-.2,2.7,.56,2.56,2.43-.07,.97-.11,1.98-.38,2.9-1.02,3.51-2.84,6.62-5.24,9.31-2.05,2.28-4.24,2.58-6.38,1.27-2.14-1.32-2.99-3.85-2.07-6.63,1.3-3.93,3.96-6.69,7.5-8.63,1.51,.93,2.91,1.13,4-.64Z"/>
        <path class="cls-1" d="M187.49,144.95c-3.16,5.22-7.79,8.11-12.44,10.86-2.27,1.34-5.03,.23-5.7-1.89-.41-1.31-.49-2.72,.74-3.62,1.83-1.33,3.64-2.9,5.71-3.63,3.22-1.13,6.64-1.67,10-2.37,.42-.09,.94,.34,1.7,.65Z"/>
        <path class="cls-20" d="M260.92,294.41c-.17,1.36-.13,2.53-.49,3.55-1.23,3.5-3.68,5.93-7.03,7.33-1.88,.78-3.87,1.43-5.87,1.77-1.2,.2-2.64-.04-3.73-.59-.81-.41-1.66-1.58-1.73-2.48-.1-1.31,.65-2.55,2.18-2.85,1.59-.31,3.2-.52,4.77-.91,3.91-.95,7.75-2.09,10.51-5.39,.17-.2,.58-.19,1.39-.43Z"/>
        <path class="cls-9" d="M192.26,306.26c-.89-.74-2.03-1.29-2.54-2.2-.72-1.28-.15-2.7,1.03-3.47,1.45-.95,3.07-1.65,4.65-2.37,4.06-1.85,8.15-3.61,12.68-3.83,.53-.03,1.07,.29,1.6,.45-.31,.51-.51,1.19-.96,1.49-4.06,2.74-8.13,5.47-12.27,8.09-1.17,.74-2.55,1.13-4.19,1.84Z"/>
        <path class="cls-9" d="M234.88,101.81c1.73,5.82,1.48,11.58,.37,17.32-.29,1.49-1.94,2.66-3.1,2.38-1.48-.37-2.65-1.39-2.66-2.94-.01-2.06,.21-4.17,.66-6.17,.87-3.79,1.98-7.53,4.72-10.59Z"/>
        <path class="cls-9" d="M104.42,160.19c-.28,.67-.52,1.36-.84,2.01-1.79,3.64-3.57,7.29-5.41,10.9-.54,1.06-1.14,2.17-1.98,2.98-1.36,1.31-3.27,.65-3.76-1.22-.18-.7-.23-1.56,0-2.22,2.04-5.96,5.64-10.49,11.42-12.97l.57,.51Z"/>
        <path class="cls-18" d="M110.91,170.19c-1.09,1.77-2.49,1.57-4,.64-1.28-3.75,.14-5.7,5.42-7.03-.5,2.24-.96,4.32-1.42,6.39Z"/>
      </g>
      <g>
        <path class="cls-15" d="M362.28,290.56c-1.11,5.88-3.44,11.32-6.07,16.68-1.2,2.44-2.23,4.95-3.22,7.47-2.24,5.69-5.99,9.76-11.98,11.62-.59,.04-1.19,.07-1.78,.11-.87,.06-2,.66-3.68,.2-2.25,.18-.58,.14-2.88,.14-.7,.04-1.2-.02-1.36-.04-4.12-.57-7.85-2.21-11.54-4-2.5-1.38-5.21-2.49-7.46-4.2-3.98-3.01-5.89-7.43-6.89-12.19-.68-3.25-1.51-6.48-1.22-9.92,.19-2.2-.66-4.48-.66-6.72,0-2.97,.47-5.94,.57-8.92,.14-4.26,.29-8.52,.12-12.77-.08-2.06-.96-4.09-1.35-6.15-.77-4.13-2.02-8.19-1.96-12.46,.01-5.01,.02-10.01,.03-15.02,.44-3.95,.83-7.91,1.32-11.85,.36-2.87,.84-5.73,1.27-8.6l.51-11.48,.11-4.15c.11-.39,.3-.78,.3-1.17,.1-6.58,.18-13.16,.26-19.74,0-1.61-.09-3.23,.02-4.83,.13-1.86,.44-3.71,.67-5.56,.15-1.43,.42-2.86,.44-4.29,.06-4.69-.02-9.37,.04-14.06,.07-5.16,1.69-9.88,4.93-13.86,4.7-5.77,10.47-10.08,17.83-11.97,2.1-.54,4.18-1.16,6.26-1.74,2.59-.2,5.18-.4,7.78-.61,6.58,.13,10.71,6.18,12.65,12.67,.44,1.47,.85,2.94,1.27,4.42-.39,5.57-.86,11.13-1.13,16.7-.12,2.47,.15,4.95,.33,7.43,.25,3.51,.54,7.01,.86,10.51,.56,6.12,1.17,12.24,1.74,18.36,.09,.94,.1,1.89,.09,2.84-.07,6.15,1.11,12.15,2.01,18.19,.44,2.95,.77,5.91,1.2,8.86,.1,.69,.12,1.51,.31,2.18,.06,2.39,.34,4.63,.45,7.02,.09,2.07,.27,4.13,.41,6.19,.04,2.23,.08,4.45,.12,6.68,0,8.35-.01,16.69-.02,25.04-.03,1.18-.07,2.35-.1,3.53-.13,1-.35,2.01-.37,3.01-.1,5.34-.15,10.67-.22,16.01"/>
        <path class="cls-1" d="M308.55,285.36c.19,2.85,.17,6.53,.72,10.12,.68,4.4,1.54,8.83,2.87,13.07,1.8,5.75,6.46,8.85,12.42,9.07,1.45,.05,2.89,.33,4.33,.51,2.27,.28,4.54,.7,6.82,.81,6.08,.29,8.43-1.23,10.9-6.83,2.14-4.86,4.25-9.73,6.36-14.6,1.59-3.67,2.53-7.44,2.53-11.49,0-4.79,.3-9.58,.42-14.38,.41-16.59,.4-33.17-.59-49.75-.15-2.49-.57-4.96-.94-7.43-1.35-8.96-2.62-17.92-2.8-27.01-.06-3.11-.64-6.21-.91-9.32-.54-6.22-1.29-12.45-1.44-18.68-.14-5.4,.37-10.83,.7-16.24,.23-3.73-.41-7.26-2.03-10.62-1.84-3.82-5.2-5.87-9.4-5.2-6.63,1.06-12.99,2.83-18.23,7.46-4.65,4.1-7.31,9.06-7.28,15.28,.04,8.76-.34,17.49-1.12,26.23-.82,9.13-1.02,18.32-1.33,27.48-.31,9.07-1.25,18.05-2.96,26.98-.82,4.28-1.34,8.68-1.3,13.03,.04,4.45,.75,8.91,1.49,13.32,.81,4.84,1.62,9.65,1.38,14.58-.21,4.26-.36,8.53-.57,13.59Z"/>
        <path class="cls-1" d="M308.55,285.36c.21-5.06,.35-9.33,.57-13.59,.25-4.93-.57-9.74-1.38-14.58-.73-4.41-1.45-8.87-1.49-13.32-.04-4.34,.49-8.75,1.3-13.03,1.71-8.93,2.66-17.9,2.96-26.98,.31-9.17,.51-18.36,1.33-27.48,.78-8.74,1.17-17.46,1.12-26.23-.03-6.21,2.64-11.18,7.28-15.28,5.25-4.63,11.6-6.41,18.23-7.46,4.2-.67,7.56,1.38,9.4,5.2,1.62,3.36,2.26,6.88,2.03,10.62-.33,5.41-.83,10.83-.7,16.24,.16,6.24,.91,12.46,1.44,18.68,.27,3.11,.85,6.21,.91,9.32,.19,9.09,1.45,18.05,2.8,27.01,.37,2.47,.79,4.94,.94,7.43,.99,16.57,1,33.16,.59,49.75-.12,4.79-.42,9.59-.42,14.38,0,4.05-.94,7.83-2.53,11.49-2.11,4.87-4.22,9.74-6.36,14.6-2.47,5.6-4.81,7.11-10.9,6.83-2.28-.11-4.55-.53-6.82-.81-1.44-.18-2.88-.45-4.33-.51-5.97-.22-10.62-3.33-12.42-9.07-1.33-4.24-2.19-8.67-2.87-13.07-.55-3.59-.54-7.26-.72-10.12Zm22.06,20.18c2.02,.63,3.66,.05,4.82-1.43,1-1.28,1.89-2.73,2.45-4.25,1.48-4.04,2.91-8.11,4.06-12.25,1.29-4.64,2.31-9.37,2.24-14.25-.06-4.17,.06-8.34-.05-12.5-.05-1.83-.34-3.69-.78-5.47-.2-.81-.89-1.67-1.6-2.16-2.13-1.46-4.79-.11-5.55,2.86-.43,1.68-.61,3.43-.76,5.17-.46,5.33-.69,10.69-1.32,16.01-.51,4.36-1.4,8.68-2.24,13-.96,4.96-2.04,9.9-1.27,15.27Zm6.91-153.38c-.37-1.38-.64-3.46-1.47-5.29-1.54-3.38-5-3.79-7.54-1.07-1.76,1.88-2.02,4.21-1.78,6.63,.13,1.32,.41,2.63,.55,3.95,.41,3.92,1.37,7.69,3.22,11.18,1.23,2.32,3.93,2.38,4.62-.15,.19-.69,.78-1.29,.87-1.98,.54-4.18,.98-8.37,1.54-13.27Zm8.4,143.7c.73-1.77,1.62-3.21,1.9-4.77,.62-3.46,1.15-6.97,1.32-10.48,.39-7.99,.62-15.99,.75-24,.04-2.15-.36-4.34-.8-6.47-.28-1.38-.79-2.86-2.59-3.09-1.54,.71-1.58,2.08-1.61,3.44-.07,3.95-.11,7.91-.19,11.86-.2,10.87,.29,21.74,.23,32.61,0,.13,.28,.27,.98,.89Zm-1.93-79.11l.93,.02c.39-1.02,.97-2.01,1.15-3.06,1.43-8.48,.85-16.97-.24-25.43-.12-.9-.42-1.91-.98-2.58-.53-.63-1.62-1.35-2.26-1.19-.82,.2-1.68,1.13-2.08,1.95-.37,.78-.21,1.84-.19,2.77,.19,7.8,1.52,15.46,2.94,23.11,.27,1.46,.49,2.94,.73,4.41Zm-9.29-24.84c-3.41,1.71-3.82,2.53-3.09,6.2,.08,.4-.03,.85,.07,1.24,1.06,4.04,2.02,8.12,3.3,12.1,.47,1.47,1.02,3.19,3.07,4.11,.18-.87,.42-1.62,.49-2.38,.09-1.03-.17-2.14,.1-3.11,1.35-4.74,.26-9.43-.26-14.11-.22-2.02-1.39-3.65-3.68-4.05Zm5.48-29.99c1.95-.22,2.13-1.69,2.43-2.72,1.27-4.31,1.89-8.73,1.57-13.24-.06-.81-.31-1.65-.69-2.37-.69-1.3-1.87-2.01-3.36-1.71-1.4,.29-2.54,1.12-2.75,2.63-.15,1.12-.15,2.31,.06,3.42,.84,4.57,1.78,9.12,2.74,13.98Z"/>
        <path class="cls-1" d="M330.61,305.54c-.77-5.37,.31-10.31,1.27-15.27,.84-4.32,1.72-8.64,2.24-13,.63-5.31,.86-10.67,1.32-16.01,.15-1.73,.33-3.49,.76-5.17,.76-2.98,3.42-4.33,5.55-2.86,.71,.49,1.4,1.35,1.6,2.16,.44,1.78,.74,3.64,.78,5.47,.11,4.17-.01,8.34,.05,12.5,.07,4.89-.95,9.61-2.24,14.25-1.15,4.14-2.58,8.21-4.06,12.25-.56,1.52-1.45,2.97-2.45,4.25-1.16,1.47-2.8,2.06-4.82,1.43Z"/>
        <path class="cls-15" d="M345.92,295.86c-.7-.62-.98-.76-.98-.89,.06-10.87-.44-21.74-.23-32.61,.07-3.95,.11-7.91,.19-11.86,.03-1.36,.07-2.74,1.61-3.44,1.81,.23,2.31,1.71,2.59,3.09,.43,2.13,.84,4.31,.8,6.47-.14,8-.36,16-.75,24-.17,3.51-.7,7.01-1.32,10.48-.28,1.56-1.17,3-1.9,4.77Z"/>
        <path class="cls-6" d="M343.99,216.75c-.24-1.47-.46-2.94-.73-4.41-1.42-7.65-2.75-15.31-2.94-23.11-.02-.93-.18-1.99,.19-2.77,.39-.83,1.25-1.75,2.08-1.95,.64-.16,1.74,.56,2.26,1.19,.56,.67,.86,1.68,.98,2.58,1.09,8.47,1.66,16.95,.24,25.43-.18,1.06-.75,2.04-1.15,3.06l-.93-.02Z"/>
        <path class="cls-1" d="M334.7,191.91c2.29,.4,3.46,2.04,3.68,4.05,.51,4.68,1.61,9.36,.26,14.11-.27,.97-.01,2.07-.1,3.11-.07,.76-.3,1.51-.49,2.38-2.05-.91-2.6-2.63-3.07-4.11-1.27-3.98-2.24-8.05-3.3-12.1-.1-.39,.01-.84-.07-1.24-.73-3.67-.33-4.49,3.09-6.2Z"/>
        <path class="cls-13" d="M340.18,161.92c-.96-4.86-1.9-9.41-2.74-13.98-.2-1.11-.21-2.3-.06-3.42,.2-1.52,1.34-2.35,2.75-2.63,1.49-.3,2.67,.4,3.36,1.71,.38,.71,.63,1.56,.69,2.37,.32,4.51-.3,8.93-1.57,13.24-.3,1.04-.48,2.5-2.43,2.72Z"/>
        <g>
          <path class="cls-1" d="M349.12,69.35c4.37,3.61,7.3,12.22,4.31,17.91-1.3,2.48-2.26,5.14-3.34,7.73-2.61,6.29-10.99,11.49-17.78,9.92-2.31-.53-4.75-.52-7.1-.92-.84-.14-1.88-.55-2.36-1.19-2.73-3.65-5.43-7.35-7.93-11.17-1.8-2.73-1.9-5.83-1.33-9.03,.5-2.76,.63-5.57,1.03-8.35,.26-1.84,.54-3.71,1.12-5.47,1.05-3.21,3.32-5.27,6.65-5.94,2.85-.58,5.74-.96,8.35-1.39,1.43,.24,2.58,.32,3.68,.62,5.35,1.49,10.38,3.71,14.7,7.28Z"/>
          <path class="cls-15" d="M360.92,76.05l.32,9.38c-.72,4.9-3.56,8.43-5.3,12.66-3.72,9.05-17.11,17.32-30.77,12.04-2.78-1.08-5.13-3.45-7.45-5.5-2.02-1.78-3.76-3.89-5.53-5.94-4.49-5.18-5.6-11.23-4.61-17.86,.48-3.19,.8-6.41,1.08-9.63,.62-7.08,4.79-12.15,11.66-14.22,13.4-4.03,24.84-.19,34.93,8.76,3.05,2.71,5.13,6.53,5.67,10.31Zm-7.49,11.21c2.99-5.69,.06-14.3-4.31-17.91-4.32-3.57-9.35-5.79-14.7-7.28-1.1-.3-2.25-.38-3.68-.62-2.61,.43-5.5,.81-8.35,1.39-3.33,.67-5.6,2.73-6.65,5.94-.58,1.76-.86,3.63-1.12,5.47-.4,2.78-.53,5.59-1.03,8.35-.57,3.2-.47,6.3,1.33,9.03,2.5,3.82,5.2,7.52,7.93,11.17,.48,.64,1.52,1.05,2.36,1.19,2.35,.4,4.79,.39,7.1,.92,6.79,1.57,15.17-3.63,17.78-9.92,1.08-2.59,2.04-5.25,3.34-7.73Z"/>
        </g>
        <path class="cls-1" d="M330.74,61.45c1.43,.24,2.58,.32,3.68,.62,5.36,1.49,10.38,3.71,14.7,7.28,4.37,3.61,7.3,12.22,4.31,17.92-1.3,2.48-2.26,5.14-3.34,7.73-2.62,6.29-10.99,11.49-17.78,9.92-2.31-.54-4.75-.52-7.11-.92-.84-.14-1.88-.55-2.36-1.19-2.73-3.66-5.43-7.36-7.94-11.17-1.8-2.73-1.89-5.83-1.32-9.03,.49-2.76,.62-5.57,1.02-8.35,.26-1.84,.55-3.71,1.12-5.47,1.05-3.21,3.32-5.27,6.65-5.94,2.85-.58,5.73-.96,8.35-1.39Zm5.69,10.68c-1.3-1.8-2.42-3.76-3.94-5.35-1.85-1.95-4.49-2.05-6.53-.68-1.88,1.27-2.99,4.2-1.84,6.39,2.08,3.98,5.14,7.22,8.84,9.81,.08,.06,.17,.12,.27,.16,2.53,1.05,4.22-.07,4.44-2.81,.21-2.63-.31-5.11-1.25-7.53,2.2,1.71,4.38,3.43,6.6,5.11,.9,.68,1.38,.02,1.46-.75,.25-2.33-.12-4.54-1.58-6.47-1.33-1.78-2.99-2.49-4.5-1.94-1.95,.72-2.18,2.29-1.97,4.06Zm2.68,23.08c.84-3.5,.39-6.23-.41-8.88-.38-1.28-1.58-1.97-3.01-1.56-1.17,.33-1.9,.99-1.85,2.45,.05,1.52,.27,2.9,1.32,4.03,1.13,1.21,2.33,2.34,3.95,3.96Zm6.08-8.54c-.03-.64-.72-1.39-2.12-1.4-1.34,0-2.58,1.22-2.14,2.45,.42,1.17,1.3,2.28,2.24,3.12,.45,.4,2.08-2.16,2.02-4.17Z"/>
        <path class="cls-21" d="M336.43,72.13c-.72-1.66,.02-3.34,1.97-4.06,1.51-.56,3.17,.16,4.5,1.94,1.45,1.93,1.82,4.15,1.58,6.47-.08,.76-.56,1.43-1.46,.75-2.22-1.68-4.4-3.4-6.6-5.11h0Z"/>
        <path class="cls-1" d="M339.11,95.21c-1.62-1.62-2.82-2.76-3.95-3.96-1.05-1.12-1.28-2.5-1.32-4.03-.04-1.45,.69-2.12,1.85-2.45,1.43-.41,2.62,.29,3.01,1.56,.79,2.64,1.25,5.37,.41,8.88Z"/>
        <path class="cls-23" d="M345.19,86.68c.06,2-1.57,4.57-2.02,4.17-.94-.84-1.81-1.95-2.24-3.12-.44-1.22,.8-2.45,2.14-2.45,1.39,0,2.09,.76,2.12,1.4Z"/>
      </g>
      <g>
        <g>
          <path class="cls-1" d="M545.69,269.87c.06,5.63,.05,11.27-.17,16.89-.12,3.19-.49,6.4-1.14,9.51-1.24,5.97-5.65,9.35-10.68,11.96-5.5,2.85-11.1,5.51-16.7,8.18-3.78,1.81-7.77,2.98-11.93,3.52-.48,.06-.99,.15-1.45,.07-7.32-1.26-14.48,.44-21.72,1-4.92,.38-9.9,.13-14.85,.21-5.17,.09-10.24-.55-15.23-1.95-4.98-1.4-10.05-.77-15.03-.11-5.1,.69-10.06,.59-14.91-1.18-8.1-2.96-16.26-5.79-24.27-8.97-11.59-4.6-19.55-19.36-13.85-33.53,1.76-4.36,5.13-7.21,9.21-9.32,7.5-3.89,15.36-4.42,23.51-2.75,4.32,.89,8.59,1.89,11.68,5.35,1.41,1.58,2.63,3.35,3.79,5.13,1.11,1.7,2.05,3.51,3.02,5.3,4.2,7.75,11.15,10.68,19.48,11.16,2.13,.12,4.28,.09,6.41-.04,5.12-.31,9.77,.97,14.12,3.66,3.13,1.93,6.23,4.1,10.06,4.32,2.39,.13,4.84,.07,7.21-.27,7.09-.99,13.38-3.81,18.68-8.72,3.12-2.89,5.12-6.54,5.52-10.65,.58-6.02,2.67-11.51,5.14-16.84,3.88-8.42,2.21-16.14-2.5-23.41-2.27-3.5-6.16-4.93-10.3-5.18-3.87-.24-7.76-.3-11.63-.42-1.77-.06-3.25-.74-4.31-2.11-3.18-4.13-7.56-5.16-12.44-4.89-4.25,.25-8.56,.29-12.75,.99-6.1,1-12.16,2.35-18.16,3.86-5.27,1.33-10.48,2.79-16,2.55-11.49-.51-21.84-4-30.76-11.43-5.74-4.78-8.04-11.26-9.06-18.33-.5-3.45-.66-6.94-.97-10.42,.33-11.18,2.82-21.93,5.74-32.62,1.07-3.92,2.03-7.87,2.95-11.83,.24-1.01,.35-2.15,.15-3.16-1.32-6.59,.7-12.31,4.75-17.31,4.44-5.49,10.03-9.54,17.04-10.98,4.73-.98,9.57-1.13,14.44-.14,4.92,1,9.93,1.89,14.94,2.14,8.69,.43,17.18-1.21,25.48-3.82,2.31-.73,4.64-1.38,6.92-2.19,5.03-1.77,10.1-2.38,15.45-1.68,7.86,1.03,15.38,2.96,22.52,6.47,3.8,1.87,7.14,4.31,9.94,7.46,5.78,6.5,10.1,13.66,10.96,22.63,.49,5.02,1.54,9.97,.61,15.04-.74,4.04-2.74,7.44-5.41,10.45-1.97,2.2-5.21,2.49-7.66,.86-2.64-1.75-4.57-4.13-6.04-6.95-1.38-2.66-2.85-5.29-4.36-7.88-5.48-9.38-14.11-11.64-24.15-10.56-4.05,.43-8.07,1.2-12.13,1.38-2.04,.09-4.15-.72-6.18-1.29-3.26-.9-6.42-2.48-9.73-2.82-10.89-1.13-20.93,.85-28.55,9.63-3.58,4.12-5.5,9.1-6.84,14.29-2.03,7.9-2.55,15.86-.35,23.85,1.21,4.4,4.12,7.67,7.52,10.43,1.24,1,3.19,1.33,4.88,1.54,4.63,.59,9.09-.39,13.34-2.21,7.03-3.01,14.31-5.63,20.96-9.35,9.3-5.2,18.45-4,27.85-1.09,7.21,2.23,13.86,5.78,20,9.95,9.2,6.25,15.11,15.08,16.64,26.26,.64,4.66,.2,9.47,.31,14.2,.12,5.04,.28,10.08,.48,15.12,.14,3.68,.47,7.36,.51,11.04Z"/>
          <path class="cls-15" d="M549.68,256.98c.1,7.19,.31,14.37,.27,21.55-.03,5.53-.3,11.06-.63,16.58-.23,3.91-1.97,7.24-4.56,10.16-2.61,2.95-5.6,5.39-9.13,7.11-6.01,2.91-12.06,5.74-18.09,8.58-4.98,2.35-10.16,3.76-15.73,3.5-5.16-.23-10.25,.45-15.37,1.05-12.02,1.41-23.97,1.29-35.86-1.66-3.39-.84-7.21-.82-10.68-.26-9.02,1.45-17.55,.19-25.94-3.16-5.12-2.04-10.3-3.97-15.53-5.72-10.45-3.51-16.66-10.89-19.82-21.17-2.05-6.66-1.63-13.25,.62-19.73,2.08-6.01,6.47-10.02,12.03-12.83,6.87-3.48,14.1-4.79,21.75-3.49,2.96,.5,5.98,.76,8.88,1.49,6.74,1.67,11.38,5.98,14.45,12.11,1,1.99,2.03,3.97,3.08,5.93,3.23,6.1,8.79,8.13,15.19,8.54,2.8,.18,5.63,.04,8.45,.02,4.46-.02,8.63,1.07,12.51,3.28,1.85,1.05,3.69,2.14,5.56,3.15,3.02,1.62,6.19,2.08,9.58,1.39,5.91-1.2,11.41-3.1,15.23-8.2,2.13-2.85,3.66-5.88,4.17-9.46,.48-3.36,1.49-6.52,3.23-9.56,1.9-3.33,3.7-6.95,4.48-10.66,1.09-5.2-.2-10.3-3.79-14.41-1.73-1.99-4.4-2.34-6.98-2.37-3.11-.04-6.21-.02-9.32-.04-3.6-.03-6.72-1.25-8.9-4.18-2.14-2.88-4.97-3.75-8.38-3.75-10.15,.02-20.11,1.2-29.88,4.06-12.51,3.66-24.91,3.17-37.07-1.59-5.92-2.32-11.28-5.66-15.78-10.18-5.67-5.72-7.65-13.11-8.81-20.78-2.01-13.33-.07-26.3,3.75-39.08,1.72-5.75,3.44-11.49,5.13-17.25,.22-.73,.45-1.53,.37-2.27-.97-9.13,2.91-16.15,9.47-22.04,8.58-7.71,18.45-11.18,29.99-9.2,3.45,.59,6.89,1.19,10.32,1.85,5.76,1.1,11.46,.14,17.06-.87,5.51-.99,10.89-2.68,16.32-4.08,3.38-.86,6.75-1.74,10.12-2.62,2.74,.01,5.49,.01,8.24,.01,8.52,.56,16.55,2.85,24.36,6.27,6.23,2.73,11.24,6.89,15.46,12.05,6.08,7.42,9.48,15.95,9.89,25.6,.14,3.29,.52,6.6,.35,9.87-.31,5.93-3.03,10.99-6.63,15.54-2.76,3.48-8.45,4.54-12.49,2.6-3.15-1.51-5.6-3.82-7.43-6.78-1.02-1.64-2.12-3.29-2.81-5.08-1.77-4.64-5.51-7.46-9.39-9.93-3.75-2.38-8.16-3.01-12.62-2.56-3.19,.33-6.41,.57-9.55,1.16-4.48,.84-8.68,.13-12.77-1.66-3.94-1.73-7.96-2.88-12.36-2.9-10.99-.04-21.43,5.4-25.34,16.74-2.73,7.91-3.42,15.84-1.73,24.01,.73,3.53,2.53,6.41,5.05,8.97,6.82,.05,13.46-.84,19.77-3.79,6.84-3.21,13.82-6.1,20.63-9.38,5.45-2.62,11.09-2.5,16.81-1.78,11.33,1.43,21.63,5.93,30.74,12.43,13.72,9.78,21.29,23.01,19.94,40.56-.46,6.07,.05,12.21,.12,18.31Zm-4.16,29.78c.22-5.62,.23-11.26,.17-16.89-.04-3.68-.37-7.36-.51-11.04-.2-5.04-.36-10.08-.48-15.12-.11-4.73,.33-9.54-.31-14.2-1.53-11.18-7.44-20.01-16.64-26.26-6.14-4.17-12.79-7.72-20-9.95-9.4-2.91-18.55-4.11-27.85,1.09-6.65,3.72-13.93,6.34-20.96,9.35-4.25,1.82-8.71,2.8-13.34,2.21-1.69-.21-3.64-.54-4.88-1.54-3.4-2.76-6.31-6.03-7.52-10.43-2.2-7.99-1.68-15.95,.35-23.85,1.34-5.19,3.26-10.17,6.84-14.29,7.62-8.78,17.66-10.76,28.55-9.63,3.31,.34,6.47,1.92,9.73,2.82,2.03,.57,4.14,1.38,6.18,1.29,4.06-.18,8.08-.95,12.13-1.38,10.04-1.08,18.67,1.18,24.15,10.56,1.51,2.59,2.98,5.22,4.36,7.88,1.47,2.82,3.4,5.2,6.04,6.95,2.45,1.63,5.69,1.34,7.66-.86,2.67-3.01,4.67-6.41,5.41-10.45,.93-5.07-.12-10.02-.61-15.04-.86-8.97-5.18-16.13-10.96-22.63-2.8-3.15-6.14-5.59-9.94-7.46-7.14-3.51-14.66-5.44-22.52-6.47-5.35-.7-10.42-.09-15.45,1.68-2.28,.81-4.61,1.46-6.92,2.19-8.3,2.61-16.79,4.25-25.48,3.82-5.01-.25-10.02-1.14-14.94-2.14-4.87-.99-9.71-.84-14.44,.14-7.01,1.44-12.6,5.49-17.04,10.98-4.05,5-6.07,10.72-4.75,17.31,.2,1.01,.09,2.15-.15,3.16-.92,3.96-1.88,7.91-2.95,11.83-2.92,10.69-5.41,21.44-5.74,32.62,.31,3.48,.47,6.97,.97,10.42,1.02,7.07,3.32,13.55,9.06,18.33,8.92,7.43,19.27,10.92,30.76,11.43,5.52,.24,10.73-1.22,16-2.55,6-1.51,12.06-2.86,18.16-3.86,4.19-.7,8.5-.74,12.75-.99,4.88-.27,9.26,.76,12.44,4.89,1.06,1.37,2.54,2.05,4.31,2.11,3.87,.12,7.76,.18,11.63,.42,4.14,.25,8.03,1.68,10.3,5.18,4.71,7.27,6.38,14.99,2.5,23.41-2.47,5.33-4.56,10.82-5.14,16.84-.4,4.11-2.4,7.76-5.52,10.65-5.3,4.91-11.59,7.73-18.68,8.72-2.37,.34-4.82,.4-7.21,.27-3.83-.22-6.93-2.39-10.06-4.32-4.35-2.69-9-3.97-14.12-3.66-2.13,.13-4.28,.16-6.41,.04-8.33-.48-15.28-3.41-19.48-11.16-.97-1.79-1.91-3.6-3.02-5.3-1.16-1.78-2.38-3.55-3.79-5.13-3.09-3.46-7.36-4.46-11.68-5.35-8.15-1.67-16.01-1.14-23.51,2.75-4.08,2.11-7.45,4.96-9.21,9.32-5.7,14.17,2.26,28.93,13.85,33.53,8.01,3.18,16.17,6.01,24.27,8.97,4.85,1.77,9.81,1.87,14.91,1.18,4.98-.66,10.05-1.29,15.03,.11,4.99,1.4,10.06,2.04,15.23,1.95,4.95-.08,9.93,.17,14.85-.21,7.24-.56,14.4-2.26,21.72-1,.46,.08,.97-.01,1.45-.07,4.16-.54,8.15-1.71,11.93-3.52,5.6-2.67,11.2-5.33,16.7-8.18,5.03-2.61,9.44-5.99,10.68-11.96,.65-3.11,1.02-6.32,1.14-9.51Z"/>
        </g>
        <path class="cls-1" d="M392.71,193.01c.33-11.18,2.82-21.94,5.74-32.62,1.07-3.92,2.03-7.87,2.96-11.83,.24-1.02,.35-2.16,.15-3.16-1.32-6.59,.7-12.31,4.75-17.31,4.43-5.48,10.03-9.54,17.03-10.98,4.74-.97,9.57-1.12,14.44-.14,4.93,1,9.93,1.89,14.94,2.14,8.7,.43,17.19-1.21,25.48-3.82,2.31-.73,4.65-1.38,6.93-2.18,5.02-1.77,10.09-2.38,15.44-1.68,7.86,1.03,15.39,2.96,22.52,6.46,3.81,1.87,7.15,4.32,9.95,7.47,5.78,6.5,10.1,13.66,10.96,22.63,.48,5.02,1.54,9.97,.61,15.03-.74,4.04-2.74,7.45-5.41,10.45-1.97,2.21-5.21,2.49-7.66,.87-2.64-1.76-4.58-4.14-6.04-6.95-1.38-2.66-2.85-5.29-4.37-7.88-5.48-9.38-14.11-11.64-24.15-10.56-4.05,.43-8.07,1.2-12.12,1.38-2.04,.09-4.15-.72-6.18-1.28-3.26-.9-6.42-2.49-9.73-2.83-10.89-1.12-20.93,.85-28.55,9.63-3.58,4.13-5.5,9.1-6.84,14.29-2.04,7.9-2.55,15.86-.36,23.84,1.21,4.41,4.12,7.67,7.52,10.43,1.24,1,3.19,1.33,4.87,1.55,4.64,.59,9.1-.39,13.34-2.21,7.04-3.01,14.31-5.63,20.97-9.35,9.3-5.2,18.44-4.01,27.85-1.1,7.21,2.23,13.85,5.78,20,9.95,9.2,6.25,15.11,15.08,16.64,26.26,.64,4.66,.19,9.46,.3,14.2,.12,5.04,.29,10.08,.48,15.11,.14,3.68,.48,7.36,.51,11.04,.06,5.63,.05,11.27-.17,16.9-.12,3.18-.49,6.39-1.14,9.51-1.24,5.96-5.65,9.34-10.68,11.95-5.5,2.85-11.11,5.51-16.7,8.18-3.78,1.81-7.77,2.98-11.94,3.52-.48,.06-.98,.15-1.45,.07-7.32-1.26-14.48,.45-21.71,1-4.93,.38-9.9,.13-14.85,.21-5.18,.09-10.24-.55-15.23-1.95-4.98-1.4-10.05-.77-15.03-.11-5.1,.68-10.06,.58-14.91-1.19-8.1-2.96-16.26-5.78-24.27-8.97-11.59-4.6-19.55-19.36-13.85-33.53,1.76-4.36,5.13-7.21,9.21-9.33,7.49-3.88,15.36-4.42,23.5-2.75,4.32,.89,8.6,1.89,11.68,5.35,1.41,1.58,2.63,3.35,3.79,5.13,1.11,1.7,2.06,3.52,3.03,5.31,4.19,7.74,11.15,10.68,19.48,11.16,2.13,.12,4.28,.08,6.41-.05,5.12-.31,9.77,.97,14.12,3.66,3.12,1.93,6.23,4.1,10.05,4.32,2.4,.14,4.84,.07,7.22-.26,7.09-1,13.38-3.82,18.67-8.72,3.12-2.89,5.12-6.54,5.52-10.65,.58-6.02,2.68-11.51,5.14-16.85,3.88-8.41,2.21-16.13-2.5-23.41-2.27-3.5-6.16-4.93-10.3-5.18-3.87-.23-7.75-.3-11.63-.42-1.76-.05-3.25-.74-4.3-2.11-3.18-4.13-7.57-5.16-12.44-4.89-4.26,.24-8.56,.29-12.75,.98-6.1,1.01-12.16,2.35-18.16,3.86-5.27,1.33-10.48,2.79-16,2.55-11.49-.51-21.85-4-30.76-11.43-5.73-4.78-8.04-11.26-9.06-18.33-.5-3.45-.66-6.94-.97-10.42Zm33.15,89.86c-1.02-2.03-1.73-4.18-3.03-5.88-2.43-3.16-5.48-5.74-9.04-7.6-2.69-1.4-5.47-1.85-8.27-.13-2.67,1.64-2.88,4.92-.29,6.57,2.36,1.51,4.81,2.87,7.27,4.19,2.37,1.28,4.73,2.64,7.25,3.56,1.77,.65,3.85,1.49,6.12-.72Zm106.42-3.97c.06-4.42-1.93-6.99-4.92-7.16-2.95-.17-5.32,2.04-5.55,5.45-.31,4.62-.44,9.25-.63,13.88-.06,1.56-.17,3.32,1.73,3.87,1.69,.48,2.91-.68,4.02-1.81,.2-.21,.38-.44,.55-.67,3.15-4.27,3.6-9.45,4.8-13.55Zm-3.68-48.94c.08-.92,.2-1.48,.18-2.04-.17-5.09-7.28-12.23-10.94-13.72-1.66-.68-3.93,.15-4.65,1.41-.81,1.41-.53,3.43,.7,4.78,.39,.43,.84,.79,1.3,1.15,1.51,1.19,2.99,2.42,4.57,3.52,2.66,1.85,5.23,3.89,8.85,4.9Zm-113.97-23.82c1.26-5.51,1.27-10.42,.97-15.32-.13-2.08-1.78-3.11-3.91-3.03-1.82,.06-3.15,.8-3.45,2.89-.69,4.73-.57,9.46,2.91,13.3,.78,.86,2.02,1.29,3.47,2.17Zm111.24-76.51c-.02-.16-.02-.45-.09-.73-.89-3.37-8.4-8.47-11.9-8.03-2.01,.25-4.02,2.31-2.41,4.29,2.82,3.47,6.06,6.49,10.56,7.68,2.03,.54,3.9-1.02,3.84-3.21Zm-130.84,170.99c-1.05-2.46-2-4.23-2.58-6.11-1.17-3.78-2.09-7.64-3.2-11.44-.56-1.93-1.65-2.74-3.03-2.53-1.31,.21-2.23,1.45-2.36,3.26-.03,.38,0,.77,.07,1.15,.96,6.25,4.07,11.2,9.08,14.98,.35,.26,.86,.3,2.02,.68Zm11.16-89.02c-.86-2.82-1.74-5.54-2.51-8.3-.39-1.39-.53-2.86-.85-4.27-.45-1.95-1.66-3.08-3.06-2.96-1.51,.13-2.85,1.74-2.62,3.63,.52,4.25,2.02,8.09,5.44,10.91,1.04,.86,2.2,1.59,3.62,.98Zm126.53,13.36c-.19-1.61-.23-2.72-.46-3.79-.74-3.45-2.75-6.12-5.44-8.29-1.08-.87-2.33-1.01-3.44-.05-.95,.82-.77,2.42,.33,3.61,.33,.35,.75,.62,1.08,.97,2.06,2.16,4.09,4.35,6.17,6.49,.33,.35,.85,.52,1.76,1.06Zm-118.96-95.18c-2.05-.18-2.49-.15-3.46,.79-2.04,1.99-3.06,4.42-2.9,7.31,.09,1.51,.94,2.37,2.35,2.47,1.46,.11,1.86-.92,2.11-2.22,.52-2.74,1.22-5.44,1.9-8.35Zm30.41-2.01c-3.03-1.61-4.76-2.23-6.45-1.68-.85,.28-1.82,1.16-2.09,1.98-.22,.68,.25,1.98,.86,2.46,2.25,1.81,6.72,.12,7.68-2.76Zm-20.74,3.38c-3.07,.43-5.13,1.43-6.62,3.47-.66,.9-.6,1.96,.34,2.55,.5,.32,1.73,.35,2,0,1.42-1.75,2.64-3.67,4.27-6.03Zm111.06,27.36c1.55-1.95,1.44-3.67,1.28-5.37-.11-1.14-.62-2.22-1.97-1.93-1.27,.27-1.52,1.33-1.07,2.52,.54,1.42,1.05,2.85,1.76,4.78Z"/>
        <path class="cls-1" d="M425.86,282.87c-2.27,2.21-4.35,1.36-6.12,.72-2.51-.92-4.88-2.28-7.25-3.56-2.46-1.33-4.92-2.69-7.27-4.19-2.59-1.66-2.37-4.94,.29-6.57,2.8-1.72,5.58-1.27,8.27,.13,3.56,1.86,6.61,4.44,9.04,7.6,1.3,1.7,2.01,3.85,3.03,5.88Z"/>
        <path class="cls-1" d="M532.28,278.9c-1.19,4.1-1.64,9.28-4.8,13.55-.17,.23-.35,.47-.55,.67-1.11,1.13-2.33,2.3-4.02,1.81-1.9-.54-1.79-2.31-1.73-3.87,.18-4.63,.32-9.26,.63-13.88,.23-3.41,2.6-5.62,5.55-5.45,2.98,.17,4.98,2.74,4.92,7.16Z"/>
        <path class="cls-1" d="M528.6,229.96c-3.62-1.01-6.19-3.05-8.85-4.9-1.58-1.1-3.05-2.33-4.57-3.52-.45-.36-.91-.72-1.3-1.15-1.23-1.35-1.51-3.37-.7-4.78,.72-1.26,2.99-2.09,4.65-1.41,3.66,1.49,10.77,8.63,10.94,13.72,.02,.56-.09,1.12-.18,2.04Z"/>
        <path class="cls-1" d="M414.63,206.14c-1.45-.88-2.7-1.31-3.47-2.17-3.48-3.84-3.61-8.57-2.91-13.3,.3-2.09,1.64-2.82,3.45-2.89,2.13-.07,3.78,.96,3.91,3.03,.3,4.9,.29,9.81-.97,15.32Z"/>
        <path class="cls-20" d="M395.04,300.61c-1.15-.38-1.67-.42-2.02-.68-5.01-3.78-8.13-8.73-9.08-14.98-.06-.38-.1-.77-.07-1.15,.13-1.81,1.04-3.05,2.36-3.26,1.37-.22,2.46,.6,3.03,2.53,1.11,3.8,2.03,7.65,3.2,11.44,.58,1.89,1.53,3.66,2.58,6.11Z"/>
        <path class="cls-2" d="M406.2,211.6c-1.42,.61-2.58-.12-3.62-.98-3.41-2.83-4.92-6.66-5.44-10.91-.23-1.89,1.11-3.51,2.62-3.63,1.4-.12,2.61,1.01,3.06,2.96,.33,1.41,.47,2.88,.85,4.27,.77,2.76,1.65,5.48,2.51,8.3Z"/>
        <path class="cls-2" d="M532.73,224.96c-.92-.54-1.43-.71-1.76-1.06-2.08-2.14-4.11-4.33-6.17-6.49-.33-.35-.75-.61-1.08-.97-1.1-1.19-1.28-2.79-.33-3.61,1.11-.96,2.36-.82,3.44,.05,2.69,2.17,4.7,4.84,5.44,8.29,.23,1.07,.27,2.18,.46,3.79Z"/>
        <path class="cls-5" d="M413.77,129.78c-.67,2.92-1.38,5.62-1.9,8.35-.25,1.3-.66,2.33-2.11,2.22-1.41-.1-2.26-.97-2.35-2.47-.16-2.89,.86-5.32,2.9-7.31,.97-.94,1.41-.97,3.46-.79Z"/>
        <path class="cls-1" d="M444.18,127.77c-.97,2.88-5.43,4.57-7.68,2.76-.6-.48-1.08-1.78-.86-2.46,.27-.82,1.24-1.7,2.09-1.98,1.68-.55,3.42,.07,6.45,1.68Z"/>
        <path class="cls-12" d="M423.44,131.15c-1.63,2.36-2.85,4.28-4.27,6.03-.28,.34-1.5,.31-2,0-.94-.59-1-1.65-.34-2.55,1.49-2.04,3.54-3.04,6.62-3.47Z"/>
        <path class="cls-4" d="M534.5,158.5c-.71-1.93-1.23-3.36-1.76-4.78-.45-1.19-.21-2.25,1.07-2.52,1.35-.29,1.86,.79,1.97,1.93,.16,1.7,.27,3.42-1.28,5.37Z"/>
      </g>
      <g>
        <path class="cls-14" d="M671.74,108.43c2.89-.01,5.79-.02,8.68-.03,1.62,.22,3.23,.53,4.86,.65,6.08,.44,11.31,2.59,15.68,7,1.44,1.45,3.41,2.67,5.36,3.25,13.51,3.96,22.05,13.77,30.9,24.02,7.33,8.49,7.47,17.02,4.2,27.06-4.57,14.01-21.06,18.83-32.97,10.11-7.75-5.67-16.42-8.2-25.51-10.62-6.19-1.65-12.56-4.77-18.51-7.18-6.71-2.72-14.17-.27-18.21,5.77-5.09,7.61-10.6,15-12.85,24.33-.66,2.75-2.51,4.87-4.6,6.78-6.27,5.7-7.35,13.42-8.75,21.19-2.6,14.38,3.65,27.31,10.47,39.22,3.91,6.83,10.79,7.67,17.7,6.93,6.28-.67,12.47-2.22,18.7-3.36,1.04-.19,2.09-.37,3.14-.42,6-.34,11.16-2.46,15.44-6.82,8.72-8.9,19.08-15.23,31.06-18.62,10.55-2.99,18.19,.32,23.56,9.84,3.29,5.84,7.07,11.46,8.22,18.31,.81,4.84-.47,9.22-2.08,13.9-4.75,13.78-12.49,22.85-26.5,27.94-4.76,1.73-10.36,4.06-14.76,6.6-8.18,4.73-15.87,5.7-24.88,7.66-6.47,1.41-12.79,2.91-19.57,2.43-8.68-.61-15.8-3.6-23.9-6.3-8.38-2.79-16.93-5.71-25.34-8.42-10.74-3.47-16.91-8.84-20.48-19.5-1.09-3.26-2.24-7.07-4.25-9.94-4.13-5.89-10.5-10.84-14.39-16.88-1.46-2.26-1.62-5.19-2.31-7.95-.23-.91-.14-2.08-.55-2.9-6.76-13.48-8.15-26.67-1.09-40.39,6.69-13,9.25-27.25,11.67-41.47,3.87-22.72,14.8-40.77,34.55-53.12,7.51-4.69,15.98-5.61,24.45-5.34,8.67,.28,17.02-1.26,25.45-2.71,2.46-.42,4.95-.67,7.43-1Zm-49.34,12.2c-11.98,4.39-20.23,13.56-27.04,24.02-6.26,9.61-8.86,20.48-10.85,31.6-2.38,13.32-5.53,26.43-11.53,38.73-2.79,5.72-5.21,11.63-4.11,18.45,2.38,14.65,7.24,28.14,17.06,39.54,4.45,5.16,8.78,10.26,10.73,17.12,2.05,7.22,7.37,11.81,14.32,14.3,14.16,5.08,28.29,10.28,42.61,14.86,6.06,1.94,12.51,2.45,18.98,.67,5.62-1.54,11.45-2.28,17.11-3.68,3.88-.96,7.75-2.18,11.42-3.75,6.51-2.8,12.66-6.53,19.32-8.84,11.53-4,17.43-12.66,21.19-23.39,1.76-5.02,1.98-10.28,.03-15.25-1.88-4.78-4.3-9.37-6.71-13.93-3.83-7.27-8.89-8.81-16.44-7.1-9.58,2.17-18.04,6.82-25.33,13.57-4.56,4.22-9.1,8.72-15.5,10.05-4.11,.85-8.33,1.15-12.49,1.73-7.38,1.02-14.73,2.68-22.13,2.93-6.48,.22-12.54-2.17-16.27-8.13-2.44-3.9-4.81-7.88-6.72-12.05-3.5-7.63-6.13-15.56-5.48-24.16,.29-3.81,.65-7.63,1.21-11.41,1.05-7.13,3.18-13.77,8.63-19,1.76-1.69,3.63-3.82,4.23-6.08,2.67-9.95,9.21-17.64,14.62-25.95,5.58-8.57,14.46-10.57,23.7-6.36,5.82,2.65,11.88,4.95,18.03,6.69,8.84,2.49,17.43,5.22,24.57,11.36,4.91,4.22,10.78,4.36,16.62,2.76,2.48-.68,5.18-2.09,6.85-3.98,5.76-6.53,6.49-14.56,4.23-22.47-1.03-3.61-4.23-6.73-6.84-9.73-6.34-7.3-13.51-13.57-22.84-16.9-4.93-1.76-9.47-4.13-13.15-8.02-1.14-1.21-2.74-2.33-4.32-2.72-7.54-1.87-15.26-1.82-22.89-.97-9,1.01-17.94,2.62-26.9,3.97"/>
        <path class="cls-1" d="M639.74,115.73c8.97-1.35,20.73-1.92,29.74-2.93,7.63-.86,13.16,.16,20.7,2.03,1.58,.39,5.52,2.33,6.66,3.54,3.68,3.89,7.66,5.31,12.59,7.07,9.32,3.33,15.96,10.04,22.3,17.33,2.61,3,6.1,7.03,7.13,10.64,2.26,7.91,.9,17.37-4.86,23.91-1.67,1.9-5.4,1.87-7.89,2.56-5.84,1.61-11.71,1.47-16.62-2.76-7.14-6.14-15.73-8.87-24.57-11.36-6.16-1.74-12.21-4.03-18.03-6.69-9.24-4.21-18.12-2.21-23.7,6.36-5.41,8.32-10.39,15.71-13.06,25.66-.61,2.26-4.03,4.69-5.79,6.38-5.44,5.23-6.62,12.19-7.67,19.32-.56,3.78-1.18,7.23-1.47,11.04-.65,8.6,2.64,16.34,6.14,23.97,1.91,4.17,4.24,7.56,6.68,11.46,3.72,5.95,8.62,7.5,15.1,7.28,7.4-.25,13.79-2.16,21.17-3.19,4.16-.58,8.34-1.35,12.44-2.2,6.39-1.33,10.09-5.13,14.64-9.35,7.3-6.76,17.12-11.01,26.7-13.18,7.55-1.71,15.28,.99,19.12,8.27,2.4,4.56,3.96,9.1,5.84,13.88,1.95,4.96,1.08,10.53-.68,15.55-3.76,10.73-10.46,19.27-21.99,23.27-6.66,2.31-12.81,6.04-19.32,8.84-3.67,1.58-7.54,2.79-11.42,3.75-5.66,1.4-11.49,2.15-17.11,3.68-6.48,1.77-12.92,1.26-18.98-.67-14.32-4.58-28.45-9.78-42.61-14.86-6.96-2.5-12.27-7.08-14.32-14.3-1.95-6.86-6.28-11.96-10.73-17.12-9.82-11.39-15.38-24.59-17.76-39.24-1.11-6.82,1.59-13.25,4.38-18.97,6.01-12.3,9.02-25.02,11.4-38.35,1.99-11.12,4.48-22.64,10.73-32.24,6.81-10.46,13.71-20.45,25.69-24.84m102.73,34.21c.2-3.88-1.05-7.28-4.17-9.55-1.26-.92-3.62-1.5-4.87-.92-1.24,.58-2.49,2.89-2.36,4.3,.44,4.68,3.6,7.81,7.31,10.35,1.94,1.32,3.69,.48,4.06-1.88,.12-.75,.02-1.53,.02-2.29Zm-22.33-15.14c-.28-1.54,0-2.84-.76-3.81-3.25-4.12-6.96-7.74-12.72-7.56-1.09,.03-2.49,1.04-3.1,2-.42,.66-.08,2.46,.56,3.02,4.34,3.85,9.09,6.91,16.02,6.35Zm-98.11,100.04c.94-6.34,.31-11.62-1.98-16.55-.53-1.13-2.73-2.23-4.02-2.09-2.17,.25-3.21,2.51-2.59,4.41,1.28,3.87,2.98,7.63,4.81,11.29,.55,1.1,2.11,1.7,3.77,2.94Zm8.72-53.67c.35,2.46,.47,4.58,.98,6.6,.53,2.14,2.03,2.5,3.55,.86,2.82-3.04,4.83-6.64,4.3-10.86-.19-1.5-1.85-3.53-3.25-3.95-1.17-.35-3.46,.95-4.3,2.18-.99,1.44-.94,3.59-1.28,5.16Zm109.84,81.33c2.37,.05,2.76-1.6,2.37-3.29-.97-4.12-3.26-7.42-7.38-8.81-1.26-.43-3.4-.06-4.3,.81-.82,.79-.91,2.85-.59,4.18,.63,2.63,7.15,7.06,9.91,7.11Zm5.49,19.89c.34,.2,.68,.41,1.02,.61,.37-.65,1.04-1.29,1.06-1.95,.13-3.66,.25-7.33,0-10.97-.04-.63-1.84-1.14-2.83-1.71-.72,1.3-2.22,2.73-2.03,3.87,.57,3.44,1.8,6.77,2.77,10.14Zm-90.49-153.1c-.4-4.45-6.66-8.12-10.47-5.96-.87,.5-1.89,2.05-1.69,2.81,.25,.96,1.6,2.13,2.62,2.3,3.07,.51,6.21,.59,9.54,.85Z"/>
        <path class="cls-1" d="M700.71,138.35c-6.93,.56-11.68-2.5-16.02-6.35-.64-.57-.98-2.36-.56-3.02,.61-.97,2.01-1.97,3.1-2,5.75-.18,9.75,3.46,13,7.58,.65,.82,.2,2.26,.48,3.8Z"/>
        <path class="cls-1" d="M602.66,238.43c-1.71-1.27-3.32-1.88-3.89-3-1.89-3.72-3.64-7.56-4.96-11.51-.65-1.93,.43-4.24,2.67-4.49,1.33-.15,3.6,.98,4.14,2.13,2.36,5.02,3.01,10.41,2.04,16.87Z"/>
        <path class="cls-1" d="M610.97,185.23c.34-1.59,.3-4.53,1.29-5.99,.84-1.24,3.55-2.4,4.72-2.05,1.4,.42,3.06,2.48,3.25,4,.52,4.28-1.48,7.93-4.3,11.02-1.52,1.66-3.51,1.51-4.04-.66-.51-2.05-.56-3.82-.91-6.32Z"/>
        <path class="cls-1" d="M721.23,266.09c-2.76-.05-9.52-4.37-10.15-7-.32-1.33-.19-3.66,.62-4.45,.9-.87,3.27-1.29,4.53-.86,4.12,1.39,6.4,4.91,7.36,9.03,.4,1.69,0,3.34-2.37,3.29Z"/>
        <path class="cls-1" d="M726.6,285.94c-1.02-3.37-2.31-6.7-2.91-10.14-.2-1.15,.81-3.05,2.13-3.87,1.62,0,2.93,1.08,2.97,1.71,.26,3.64,.14,7.32,0,10.97-.03,.66-.33,1.45-1.11,1.95-.4,0-.85-.27-1.08-.61Z"/>
        <path class="cls-1" d="M636.24,132.88c-3.42-.27-6.65-.34-9.8-.87-1.05-.18-2.44-1.38-2.7-2.37-.21-.78,.84-2.38,1.74-2.89,3.92-2.23,10.35,1.56,10.76,6.14Z"/>
        <g>
          <path class="cls-1" d="M739.44,258.17c4.4,8.88,4.77,17.84-.09,26.74-2.29,4.2-4.31,8.56-8.15,11.74-2.46,2.04-5.01,3.91-8.03,4.98-7.73,2.73-14.99,6.45-22.27,10.15-3.01,1.53-6.15,2.64-9.48,3.32-6.68,1.37-13.33,2.91-20.01,4.27-2.06,.41-4.19,.64-6.29,.61-5.1-.07-10.14-.76-15.03-2.34-3.2-1.03-6.45-1.9-9.66-2.89-1.84-.57-3.66-1.17-5.46-1.85-7.37-2.78-14.69-5.69-22.08-8.38-5.65-2.06-10.75-4.85-13.93-10.13-1.47-2.44-2.64-5.11-3.58-7.81-1.2-3.41-2.82-6.51-5.28-9.15-5.13-5.51-9.34-11.7-13.39-18-.51-.79-.86-1.69-1.18-2.57-1.31-3.7-2.55-7.43-3.87-11.13-1.62-4.54-2.56-9.23-3.2-13.99-.43-3.22,.2-6.33,1.17-9.35,.81-2.55,1.72-5.11,2.91-7.5,5.32-10.76,8.44-22.19,10.78-33.89,1.28-6.39,2.24-12.88,4.06-19.12,4.72-16.23,13.96-29.33,28.34-38.58,5.39-3.46,11.28-5.27,17.71-5.3,2.11-.01,4.23,0,6.34,0,8.98,.74,17.58-1.79,26.29-3.15,7.6-1.18,15.14-.82,22.67,.48,2.15,.37,4.01,1.4,5.51,2.95,3.69,3.82,8.12,6.34,13.13,8.06,9.18,3.18,16.13,9.53,22.66,16.38,1.72,1.81,3.2,3.84,4.84,5.72,2.54,2.91,3.64,6.39,3.47,10.11-.15,3.32-.62,6.69-1.44,9.92-1.61,6.37-5.95,10.09-12.33,11.52-5.69,1.28-11.08,.38-15.46-3.43-6.69-5.82-14.69-8.56-23.01-10.75-6.7-1.77-13.31-3.76-19.48-7.01-8.43-4.44-16.17-2.54-21.74,4.32-4.75,5.86-8.63,12.43-12.73,18.8-1.06,1.66-1.54,3.71-2.16,5.62-1.06,3.24-2.51,6.28-4.98,8.65-6.08,5.87-8.56,13.27-9.47,21.38-.45,3.99-1.1,8.01-1.05,12.01,.05,3.6,.64,7.26,1.52,10.76,1.72,6.82,4.88,13.06,8.16,19.29,5.01,9.5,13.37,12.94,24.13,11.86,4.2-.41,8.34-1.39,12.51-2.07,4.55-.74,9.09-1.58,13.66-2.1,4.77-.54,8.87-2.44,12.51-5.41,2.98-2.42,5.76-5.09,8.78-7.47,7.41-5.86,15.62-10.16,25.05-11.65,5.54-.87,10.04,1.14,13.06,5.96,1.94,3.09,3.96,6.16,5.57,9.42Z"/>
          <path d="M745.69,257.53c3.78,8.21,4.19,16.62,.36,25.06-3.21,7.07-6.92,13.78-13.4,18.4-3.03,2.16-6.33,3.99-9.66,5.68-4.71,2.38-9.74,4.17-14.3,6.78-8.15,4.66-16.95,7.13-26.04,8.93-3.11,.61-6.2,1.34-9.29,2.07-3.86,.9-7.77,1.3-11.72,1.09-9.14-.08-17.53-3.38-25.99-6.17-8.57-2.83-16.98-6.14-25.51-9.1-6.34-2.19-11.82-5.47-15.8-11.02-2.09-2.94-3.63-6.12-4.64-9.53-1.09-3.68-3.11-6.69-5.6-9.59-3.62-4.22-6.97-8.68-10.28-13.16-1.3-1.76-2.29-3.78-3.22-5.77-.6-1.28-1.26-2.77-1.15-4.1,.25-2.97-1-5.37-2.16-7.89-2.31-5.01-3.63-10.32-4.2-15.78-.57-5.55,.58-10.88,2.52-16.06,.54-1.44,1.1-2.87,1.79-4.24,6.38-12.56,9.59-26.09,11.75-39.85,1.84-11.71,5.14-22.81,11.61-32.83,5.73-8.89,12.69-16.6,21.79-22.26,6.19-3.86,12.87-5.94,20.15-6.1,5.09-.11,10.21,.1,15.27-.39,5.53-.53,11-1.71,16.5-2.6,7.27-1.19,14.53-1.42,21.81-.09,.57,.1,1.14,.18,1.71,.23,3.97,.33,7.51,1.72,10.37,4.52,3.23,3.16,7.03,5.19,11.34,6.58,5.16,1.66,9.77,4.38,13.93,7.93,5.51,4.69,10.41,9.9,15.03,15.48,5.51,6.65,6.76,14.02,4.96,22.13-.56,2.51-1.25,5.08-2.41,7.35-3.63,7.11-9.63,11.06-17.52,12.06-6.55,.83-12.68-.24-17.86-4.69-5.24-4.51-11.5-6.85-18.07-8.56-8.1-2.09-16.11-4.43-23.74-7.94-6.09-2.81-11.66-1.39-15.94,3.86-.97,1.19-1.76,2.52-2.61,3.8-1.92,2.87-3.76,5.79-5.77,8.61-1.81,2.53-3.24,5.23-3.99,8.24-1.3,5.26-3.81,9.8-7.77,13.53-3.37,3.17-5.09,7.21-5.85,11.63-.81,4.62-1.44,9.28-1.95,13.95-.36,3.35,.13,6.68,1.01,9.96,1.67,6.24,4.2,12.12,6.97,17.94,4.1,8.6,9.5,11.39,20.25,10.6,3.9-.28,7.75-1.29,11.63-1.97,4.35-.77,8.68-1.67,13.05-2.25,4.08-.53,7.53-2.17,10.56-4.85,3.1-2.73,6.09-5.61,9.32-8.17,2.47-1.96,5.11-3.79,7.91-5.21,4.53-2.31,9.17-4.43,13.91-6.25,3.69-1.42,7.62-1.81,11.64-1.13,4.92,.85,8.92,3.19,11.56,7.35,2.82,4.46,5.55,9.02,7.74,13.79Zm-6.34,27.38c4.86-8.9,4.49-17.86,.09-26.74-1.61-3.26-3.63-6.33-5.57-9.42-3.02-4.82-7.52-6.83-13.06-5.96-9.43,1.49-17.64,5.79-25.05,11.65-3.02,2.38-5.8,5.05-8.78,7.47-3.64,2.97-7.74,4.87-12.51,5.41-4.57,.52-9.11,1.36-13.66,2.1-4.17,.68-8.31,1.66-12.51,2.07-10.76,1.08-19.12-2.36-24.13-11.86-3.28-6.23-6.44-12.47-8.16-19.29-.88-3.5-1.47-7.16-1.52-10.76-.05-4,.6-8.02,1.05-12.01,.91-8.11,3.39-15.51,9.47-21.38,2.47-2.37,3.92-5.41,4.98-8.65,.62-1.91,1.1-3.96,2.16-5.62,4.1-6.37,7.98-12.94,12.73-18.8,5.57-6.86,13.31-8.76,21.74-4.32,6.17,3.25,12.78,5.24,19.48,7.01,8.32,2.19,16.32,4.93,23.01,10.75,4.38,3.81,9.77,4.71,15.46,3.43,6.38-1.43,10.72-5.15,12.33-11.52,.82-3.23,1.29-6.6,1.44-9.92,.17-3.72-.93-7.2-3.47-10.11-1.64-1.88-3.12-3.91-4.84-5.72-6.53-6.85-13.48-13.2-22.66-16.38-5.01-1.72-9.44-4.24-13.13-8.06-1.5-1.55-3.36-2.58-5.51-2.95-7.53-1.3-15.07-1.66-22.67-.48-8.71,1.36-17.31,3.89-26.29,3.15-2.11,0-4.23-.01-6.34,0-6.43,.03-12.32,1.84-17.71,5.3-14.38,9.25-23.62,22.35-28.34,38.58-1.82,6.24-2.78,12.73-4.06,19.12-2.34,11.7-5.46,23.13-10.78,33.89-1.19,2.39-2.1,4.95-2.91,7.5-.97,3.02-1.6,6.13-1.17,9.35,.64,4.76,1.58,9.45,3.2,13.99,1.32,3.7,2.56,7.43,3.87,11.13,.32,.88,.67,1.78,1.18,2.57,4.05,6.3,8.26,12.49,13.39,18,2.46,2.64,4.08,5.74,5.28,9.15,.94,2.7,2.11,5.37,3.58,7.81,3.18,5.28,8.28,8.07,13.93,10.13,7.39,2.69,14.71,5.6,22.08,8.38,1.8,.68,3.62,1.28,5.46,1.85,3.21,.99,6.46,1.86,9.66,2.89,4.89,1.58,9.93,2.27,15.03,2.34,2.1,.03,4.23-.2,6.29-.61,6.68-1.36,13.33-2.9,20.01-4.27,3.33-.68,6.47-1.79,9.48-3.32,7.28-3.7,14.54-7.42,22.27-10.15,3.02-1.07,5.57-2.94,8.03-4.98,3.84-3.18,5.86-7.54,8.15-11.74Z"/>
        </g>
        <path d="M726.55,153.15c-.03,.37-.06,1.33-.19,2.27-.03,.22-.35,.55-.54,.55-.32,0-.86-.15-.93-.36-1.44-4.27-4.6-7.48-6.93-11.2-.25-.4-.61-.89-.57-1.29,.1-.89,.2-1.92,.7-2.6,.7-.94,1.87-.9,2.88-.34,.57,.32,1.16,.74,1.54,1.26,2.42,3.31,4.2,6.86,4.03,11.7Z"/>
        <path d="M604.68,229.22c-.42-1.7-.99-3.23-1.12-4.79-.21-2.38-.15-4.78-.11-7.17,.01-.62,.24-1.46,.68-1.8,.61-.47,1.54-.84,2.28-.75,.59,.07,1.52,.84,1.57,1.36,.39,4.42,.22,8.78-2.25,12.71-.08,.13-.33,.15-1.05,.45Z"/>
        <path d="M707.94,133.21c-.41,.12-.62,.25-.76,.21-3.35-1.12-6.69-2.25-10.03-3.4-.36-.12-.85-.25-.99-.52-.38-.72-.93-1.58-.79-2.26,.14-.67,.97-1.28,1.62-1.75,.33-.23,.93-.13,1.41-.1,3.83,.22,8.21,3.77,9.54,7.82Z"/>
        <path d="M727.24,261.14c-2.41-2.18-4.39-3.96-6.36-5.76-.21-.19-.4-.42-.56-.65-.97-1.39-.98-2.69-.05-3.67,.96-1,2.71-1.1,3.91,.02,2.74,2.55,4.16,5.61,3.06,10.06Z"/>
        <path d="M640.73,127.09c-.97,0-1.47,.12-1.87-.02-1.92-.67-3.87-.98-5.89-.63-.37,.06-.77,.06-1.14,0-1.53-.2-2.35-1.02-2.4-2.35-.05-1.46,.8-2.49,2.37-2.72,2.93-.43,5.21,.83,7.1,2.91,.62,.68,1.04,1.56,1.84,2.8Z"/>
        <path d="M712.15,256.52c-1.67,.42-3.1,.94-4.58,1.12-1.52,.18-2.72-.9-2.85-2.24-.15-1.48,.95-2.66,2.6-2.82,2.24-.22,3.45,.68,4.82,3.94Z"/>
        <path d="M619.03,186.88c-.86-2.89-.35-4.98,.73-6.89,.82-1.45,2.59-1.75,3.72-.91,1.1,.82,1.15,2.46-.09,3.78-1.23,1.3-2.63,2.45-4.36,4.03Z"/>
        <path d="M735.23,267.88c-.1,.82-.04,1.25-.21,1.56-.35,.62-.82,1.18-1.25,1.76-.47-.41-1.02-.76-1.38-1.25-.62-.84-1.19-1.73-1.63-2.67-.6-1.28-.21-2.49,.79-2.97,1.13-.54,2.46-.06,3.06,1.26,.38,.84,.49,1.8,.62,2.31Z"/>
      </g>
      <g>
        <path class="cls-1" d="M943.34,194.94c-1.11-1.76-2.01-3.65-2.94-5.52-1.44,.43-3.3-.03-4.04-1.76-3.08-7.22-4.13-14.9-3.15-22.67,.73-5.79,1.71-11.6,1.39-17.37-2.84-7.41-6.56-14.33-14.12-18.19-5.91-3.02-12.04-5.66-18.17-8.25-2.56-1.08-4.56-2.48-5.83-4.96-2.54-4.95-6.93-7.48-12.27-8.59-3.74-.77-7.49-1.66-11.28-2.05-5.65-.57-11.34-1.04-17.01-1-4.69,.04-9.36,.94-14.06,1.35-10.96,.96-21.32,3.43-29.85,10.86-1,.87-2.28,1.65-3.56,1.96-5.67,1.36-9.94,4.6-13.94,8.65-4.62,4.66-7.94,9.86-8.86,16.28-1.43,9.94-4.86,19.04-11.06,27.07-2.02,2.61-4.23,5.07-6.31,7.64-4.67,5.75-9.26,11.49-9.64,19.38-.18,3.81-1.01,7.59-1.61,11.37-.57,3.61-1.41,7.08-2.02,10.93,.99,.38,1.81,1.23,1.93,2.53,.43,4.79,.49,9.66,.76,14.5,.1,.14,.2,.29,.28,.47,3.56,7.31,5.69,14.81,5.16,22.97-.03,.52-.21,.99-.47,1.39,.31,1.38,.59,2.77,.82,4.16,.65,3.96,1.82,7.55,3.55,10.84,1.1-.23,2.33,.08,3.14,1.22,3.11,4.37,7.23,7.97,10.44,12.3,3.36,4.53,8.12,7.18,13.04,9.89,4.44,2.45,9.06,4.72,13.82,6.5,3.84,1.44,7.92,2.27,10.72,5.47,3.26,3.72,5.41,7.77,10.64,9.07,4.39,1.1,9.12,.44,13.61,.71,4.11,.25,8.64,.91,12.67-.17,3.96-1.06,7.41-3.54,11.37-4.7,3.46-1.01,7.05-1.13,10.63-1.23,.27-1.09,1.18-2.04,2.75-2.16,5.35-.4,10.37-3.02,15.81-2.21,2.61,.39,5.11,1.4,7.75,1.6,2.66,.21,5.4-.15,7.99-.74,2.41-.55,4.72-1.37,7.06-2.12,2.18-.69,4.58-1.15,6.51-2.44,3.5-2.33,4.69-6.83,7.97-9.48,.01-.01,.03-.02,.04-.03-.1-1.36,.05-2.74,.36-4.12-.17-.94,.04-1.97,.75-2.72,.79-2.45,1.8-4.87,2.35-7.12,.09-.37,.19-.72,.3-1.08,.09-1.26,.15-2.52,.3-3.78,.17-1.49,1.15-2.38,2.27-2.68,.3-.7,.6-1.41,.88-2.13,1.26-3.23,2.06-6.58,2.56-10,1.03-6.99,3.96-13.4,5.87-20.17,2.04-7.27,2.44-14.94,2.47-22.44,0-1.05,.47-1.8,1.15-2.26-1.28-8.67-3.97-17.05-8.95-24.99Zm-116.87,43.85c-.53,2.32-2.1,2.85-3.61,1.03-3.17-3.81-4.9-8.34-5.19-13.22-.13-2.12,1.19-3.92,3.63-4.19,2.46-.27,3.94,1.23,4.47,3.32,.7,2.77,1.02,5.64,1.46,8.27-.27,1.78-.42,3.31-.76,4.79Zm.69-40.19c-1.51,1.75-3.97,2.51-6.46,1.27-2.41-1.2-3.08-3.32-3.19-6.77,.63-1.24,1.26-3.63,2.76-5.22,3.45-3.66,7.26-7.14,12.37-8.41,1.67-.41,4.02-.16,5.33,.78,.73,.52,.55,3.47-.25,4.63-3.27,4.74-6.78,9.36-10.55,13.73Zm52.05,32.43c-.24,.74-.58,1.36-1.01,1.89-.35,1.7-1.25,3.25-2.5,4.67-5.41,6.15-11.81,10.55-20.48,10.24-2.23-.08-4.67-.85-6.56-2.02-2.89-1.8-6.43-2.74-8.44-5.84-.69-.42-1.37-.95-2.03-1.61-2.72-2.7-4.32-6.13-4.08-9.93,.32-5.14,1.61-10.21,.65-15.37-.2-1.07,.15-1.95,.75-2.58-1.01-.36-1.81-1.23-1.79-2.6,.05-4.28,2.55-9.36,5.31-12.63,2.81-3.33,6.93-4.6,11.06-5.57,7.83-1.83,18.01-2.81,23.86,3.82,2.23,2.53-.93,6.12-3.4,4.73,0,.04,0,.07,0,.11,.09,3.03,.45,5.97,1.07,8.85,.8,.06,1.56,.51,2.01,1.5,1.84,4.03,2.39,8.28,3.61,12.49,.9,3.09,3.01,6.52,1.96,9.83Zm25.49-77.96c-5.43-4.18-10.72-8.27-16.05-12.32-2.18-1.65-2.79-3.87-1.71-6.14,1.08-2.25,3.6-2.43,5.69-1.87,2.01,.53,4,1.56,5.67,2.8,3.97,2.95,7.06,6.63,8.57,11.41,.74,2.35,.38,4.34-2.18,6.12Zm24.76,84.31c-1.29,2.44-3.49,4.44-5.44,6.5-.34,.36-1.53,.32-2.09,.03-1.67-.87-2.4-4.93-1.55-7.77,.67-2.26,2.95-3.97,5.21-3.91,2.6,.06,5.06,2.9,3.87,5.15Zm.83-23.36c-3.19,.87-5.06-2.1-6.08-4.46-2.56-5.9-4.82-11.95-6.78-18.07-1.05-3.29,.97-7.05,3.44-7.83,3.1-.98,6.29,.36,7.62,4.21,2.15,6.23,3.65,12.68,5.43,19.03-.98,2.81-.41,6.23-3.62,7.11Z"/>
        <path class="cls-1" d="M933.91,206.9c-.98,2.81-.41,6.23-3.62,7.11-3.19,.87-5.06-2.1-6.08-4.46-2.56-5.9-4.82-11.95-6.78-18.07-1.05-3.29,.97-7.05,3.44-7.83,3.1-.98,6.29,.36,7.62,4.21,2.15,6.23,3.65,12.68,5.43,19.03Z"/>
        <path class="cls-1" d="M817.51,193.09c.63-1.24,1.26-3.63,2.76-5.22,3.45-3.66,7.26-7.14,12.37-8.41,1.67-.41,4.02-.16,5.33,.78,.73,.52,.55,3.47-.25,4.63-3.27,4.74-6.78,9.36-10.55,13.73-1.51,1.75-3.97,2.51-6.46,1.27-2.41-1.2-3.08-3.32-3.19-6.77Z"/>
        <path class="cls-1" d="M827.23,233.99c-.27,1.78-.42,3.31-.76,4.79-.53,2.32-2.1,2.85-3.61,1.03-3.17-3.81-4.9-8.34-5.19-13.22-.13-2.12,1.19-3.92,3.63-4.19,2.46-.27,3.94,1.23,4.47,3.32,.7,2.77,1.02,5.64,1.46,8.27Z"/>
        <path class="cls-1" d="M925.59,232.22c2.6,.06,5.06,2.9,3.87,5.15-1.29,2.44-3.49,4.44-5.44,6.5-.34,.36-1.53,.32-2.09,.03-1.67-.87-2.4-4.93-1.55-7.77,.67-2.26,2.95-3.97,5.21-3.91Z"/>
        <g>
          <path class="cls-1" d="M945.95,220.36c.41,3.53,.52,7.09,.7,9.57-.41,9.26-.53,17.48-3.17,25.34-2.02,6.02-4.18,12.02-6.67,17.87-2.35,5.53-4.32,11.15-5.47,17.02-.92,4.67-3.29,8.65-5.92,12.46-2.03,2.93-5.14,4.68-8.57,5.85-7.18,2.43-14.39,2.75-21.72,.7-5.06-1.42-10.23-2.01-15.43-.79-2.18,.52-4.3,1.34-6.44,2.04-10.58,3.46-21.34,5.95-32.61,5.69-6.37-.15-12.5-1.36-18.35-3.75-1.88-.76-3.66-1.88-5.28-3.09-4.08-3.04-8.27-5.89-13.08-7.71-6.5-2.45-11.78-6.33-15.93-11.9-1.87-2.52-4.45-4.6-6.91-6.64-3.25-2.7-6.17-5.67-8.53-9.12-1.02-1.49-1.91-3.19-2.33-4.91-.98-4.02-1.46-8.15-2.47-12.16-1.27-5.03-2.79-10.01-4.34-14.97-3.93-12.61-3.96-25.18,.21-37.74,.61-1.83,1.32-3.65,1.71-5.52,1.29-6.31,5-11.18,9.34-15.75,6.99-7.35,12.25-15.78,15.42-25.33,1.41-4.28,2.14-8.78,3.06-13.2,.68-3.27,1.98-6.23,4.07-8.86,2.3-2.88,4.65-5.72,6.9-8.64,1.02-1.3,2.31-2.07,3.9-2.38,3.16-.62,5.9-2.05,8.39-4.02,6.75-5.33,14.61-7.67,23.13-8.36,5.58-.44,11.13-1.12,16.7-1.61,1.76-.15,3.57-.25,5.3,.01,6.79,1.04,13.57,2.15,20.32,3.39,3.64,.67,6.59,2.52,8.37,5.82,1.93,3.59,4.97,5.7,8.77,7.26,6.16,2.52,12.18,5.37,18.15,8.29,1.7,.83,3.26,2.19,4.49,3.63,4.67,5.44,7.5,11.76,8.17,18.84,.27,2.93-.02,5.97-.52,8.89-1.24,7.26,.44,13.98,3.56,20.43,2.09,4.35,4.32,8.65,6.82,12.78,3.86,6.38,5.41,13.37,6.26,20.57Zm-58.12,19.62c7.92-16.63,10.83-39.41-5.07-52.53-15.82-13.07-43.2-16.83-55.44,2.78-4.51,7.25-5.97,16.81-6.19,25.19-.23,8.34,1.12,17.61,5.74,24.74,1.15,1.77,2.44,3.3,3.84,4.64-.44,3.51,1.02,7.42,4.32,8.99,10.35,4.96,23.24,3.89,34.27,1.79,8.96-1.71,14.71-7.58,18.53-15.6Z"/>
          <path d="M952.65,223.1c.97,8.37,.69,16.73-.72,25-.65,3.86-1.9,7.66-3.24,11.35-3.95,10.85-8.95,21.35-11.27,32.74-.76,3.72-2.38,7.1-4.18,10.43-3.4,6.3-8.61,10.28-15.54,12.39-7.71,2.35-15.41,2.69-23.24,.75-1.9-.47-3.86-.67-5.78-1.07-3.6-.73-6.99-.04-10.39,1.14-7.12,2.46-14.21,5.07-21.47,7.08-4.68,1.3-9.62,1.93-14.49,2.32-6.58,.52-12.89-1.07-18.86-3.74-3.27-1.46-5.95-3.68-8.09-6.56-.72-.97-1.69-1.91-2.76-2.48-3.61-1.93-7.18-4.08-11.02-5.42-7.44-2.61-13.61-6.71-18.53-12.77-1.82-2.24-4.13-4.11-6.19-6.16-2-1.99-4.02-3.96-5.96-6-4.14-4.38-6.31-9.61-7.26-15.48-.81-5.02-1.84-10.02-3.04-14.97-.79-3.26-2.08-6.4-3.09-9.62-1.87-5.93-2.29-12.07-2.7-17.9,.17-6.41,1.24-12.35,2.75-18.24,.62-2.39,.89-4.91,.96-7.38,.13-4.22,.82-8.26,3.27-11.8,2.26-3.26,4.65-6.42,7.05-9.58,2.58-3.4,5.36-6.64,7.82-10.11,4.5-6.34,7.23-13.4,8.28-21.07,1.08-7.8,4.46-14.3,10.38-19.84,3.74-3.49,7.63-6.18,12.58-7.55,1.55-.43,3.07-1.35,4.31-2.38,7.32-6.07,15.86-9.05,25.27-10.02,6.44-.66,12.86-1.6,19.32-2.04,3.49-.24,7.07,.09,10.56,.54,5.54,.71,11.06,1.65,16.55,2.67,5.48,1.01,9.91,3.66,12.49,8.7,1.22,2.38,3.16,3.71,5.63,4.76,6.2,2.64,12.37,5.4,18.42,8.38,2.14,1.05,4.17,2.61,5.77,4.37,5.42,5.94,8.82,12.87,10.04,20.82,.48,3.12,.04,6.12-.5,9.15-.35,1.99-.63,3.99-.88,5.99-.64,5.03,.44,9.76,2.76,14.24,2.12,4.12,4.08,8.34,6.49,12.29,5.11,8.37,7.39,17.52,8.5,27.07Zm-6,6.83c-.18-2.48-.29-6.04-.7-9.57-.85-7.2-2.4-14.19-6.26-20.57-2.5-4.13-4.73-8.43-6.82-12.78-3.12-6.45-4.8-13.17-3.56-20.43,.5-2.92,.79-5.96,.52-8.89-.67-7.08-3.5-13.4-8.17-18.84-1.23-1.44-2.79-2.8-4.49-3.63-5.97-2.92-11.99-5.77-18.15-8.29-3.8-1.56-6.84-3.67-8.77-7.26-1.78-3.3-4.73-5.15-8.37-5.82-6.75-1.24-13.53-2.35-20.32-3.39-1.73-.26-3.54-.16-5.3-.01-5.57,.49-11.12,1.17-16.7,1.61-8.52,.69-16.38,3.03-23.13,8.36-2.49,1.97-5.23,3.4-8.39,4.02-1.59,.31-2.88,1.08-3.9,2.38-2.25,2.92-4.6,5.76-6.9,8.64-2.09,2.63-3.39,5.59-4.07,8.86-.92,4.42-1.65,8.92-3.06,13.2-3.17,9.55-8.43,17.98-15.42,25.33-4.34,4.57-8.05,9.44-9.34,15.75-.39,1.87-1.1,3.69-1.71,5.52-4.17,12.56-4.14,25.13-.21,37.74,1.55,4.96,3.07,9.94,4.34,14.97,1.01,4.01,1.49,8.14,2.47,12.16,.42,1.72,1.31,3.42,2.33,4.91,2.36,3.45,5.28,6.42,8.53,9.12,2.46,2.04,5.04,4.12,6.91,6.64,4.15,5.57,9.43,9.45,15.93,11.9,4.81,1.82,9,4.67,13.08,7.71,1.62,1.21,3.4,2.33,5.28,3.09,5.85,2.39,11.98,3.6,18.35,3.75,11.27,.26,22.03-2.23,32.61-5.69,2.14-.7,4.26-1.52,6.44-2.04,5.2-1.22,10.37-.63,15.43,.79,7.33,2.05,14.54,1.73,21.72-.7,3.43-1.17,6.54-2.92,8.57-5.85,2.63-3.81,5-7.79,5.92-12.46,1.15-5.87,3.12-11.49,5.47-17.02,2.49-5.85,4.65-11.85,6.67-17.87,2.64-7.86,2.76-16.08,3.17-25.34Z"/>
        </g>
        <path d="M866.57,185.4c5.6,.74,9.99,5.33,10.53,10.87,.18,1.82,.35,3.65,.35,5.47,0,3.84,.94,7.39,2.82,10.77,2.47,4.42,3.99,9.14,4.75,14.16,.85,5.67-.14,10.73-4.1,15.05-6.91,7.54-15.18,12.58-25.87,12.35-7.07-.15-12.62-3.19-15.78-9.7-.28-.58-.84-1.04-1.23-1.58-1.42-1.96-2.93-3.85-4.2-5.9-2.23-3.59-2.8-7.49-2.07-11.66,.31-1.76,.2-3.63,.03-5.43-.4-4.2-1.31-8.39-1.39-12.59-.2-11.39,7.7-20.28,19.15-21.98,.87-.13,1.75-.33,2.62-.36,1.67-.06,3.34-.02,5.01-.02m-4.39,5.81c-9.38,.15-16.98,7.59-16.93,16.8,.02,3.35,.61,6.68,.79,10.03,.15,2.77,.43,5.61-.03,8.31-.49,2.89-.38,5.53,.92,8.12,1.12,2.24,2.28,4.46,3.52,6.64,.35,.62,.97,1.19,1.61,1.56,2.18,1.28,4.37,2.56,6.66,3.63,1.47,.68,3.1,1.31,4.69,1.42,9.16,.62,15.89-3.82,21.61-10.25,2.39-2.68,2.87-5.76,2.4-9.16-.65-4.7-1.85-9.21-4.12-13.44-1.9-3.53-2.93-7.31-2.98-11.33-.02-1.63-.25-3.26-.41-4.88-.39-4-2.27-6.17-6.3-6.84-2.69-.45-5.45-.57-8.17-.84"/>
        <path d="M842.3,122.57c-.5,.32-1.01,.61-1.48,.96-4.59,3.3-9.29,6.41-14.75,8.19-1.18,.39-2.47,.58-3.72,.64-1.4,.07-2.43-.67-2.89-2.01-.46-1.36,.04-2.49,1.1-3.33,.67-.52,1.49-.98,2.31-1.19,5.95-1.53,11.91-3.01,17.88-4.45,.35-.09,.83,.29,1.24,.46l.3,.73Z"/>
        <path d="M807.9,146.54c0,1.03,.18,1.82-.03,2.51-1.44,4.78-2.95,9.55-4.46,14.31-.2,.64-.46,1.28-.84,1.83-.77,1.12-1.85,1.7-3.28,1.4-1.37-.29-2.38-1.38-2.45-2.88-.03-.84,.11-1.74,.43-2.52,2.08-5.15,5.05-9.77,9.01-13.73,.36-.36,.92-.53,1.61-.92Z"/>
        <path d="M940.62,240.33c-.74,2.61-1.24,5.32-2.29,7.8-1.64,3.88-3.65,7.62-5.51,11.41-.13,.26-.3,.49-.47,.73-1.38,1.91-3.04,2.58-4.41,1.8-1.29-.73-1.43-2.53-.08-4.63,3.6-5.59,7.3-11.13,10.98-16.67,.23-.35,.67-.57,1.01-.84l.77,.4Z"/>
        <path d="M829.04,133.83c-.21,.72-.26,1.18-.46,1.58-1.71,3.43-3.43,6.86-5.18,10.27-.3,.59-.63,1.35-1.16,1.59-.81,.37-1.84,.59-2.72,.47-1.06-.15-1.6-1.12-1.55-2.16,.04-.93,.13-1.95,.53-2.77,1.93-3.92,5.03-6.76,8.93-8.79,.37-.19,.88-.12,1.61-.2Z"/>
        <path d="M806.96,295.51c-.96,0-1.67,.15-2.28-.02-3.91-1.1-7.01-3.34-9.25-6.67-.37-.55-.67-1.19-.86-1.82-.41-1.39,.14-2.71,1.28-3.19,1.3-.55,2.31,0,3.07,1.01,.76,1,1.35,2.12,2.11,3.12,1.86,2.43,3.77,4.82,5.93,7.57Z"/>
        <path d="M914.3,295.84c-.82,.73-1.53,1.71-2.49,2.14-3.2,1.42-6.47,2.68-9.75,3.92-.7,.27-1.55,.24-2.33,.24-1.06,0-1.95-.34-2.17-1.51-.2-1.06,.2-1.94,1.16-2.43,.77-.39,1.63-.68,2.49-.82,3.47-.6,6.95-1.11,10.42-1.68,.73-.12,1.45-.34,2.17-.51l.5,.64Z"/>
        <path d="M774.09,232.67c-.74-.93-1.26-1.35-1.45-1.88-1.38-3.72-1.7-7.62-1.79-11.53-.01-.62,.21-1.43,.63-1.84,.57-.55,1.48-1.12,2.18-1.06,.7,.06,1.44,.81,1.95,1.43,.32,.39,.37,1.11,.3,1.65-.55,4.21-1.15,8.42-1.83,13.24Z"/>
        <path d="M783.2,261.94c-.8-.25-1.3-.27-1.62-.52-2.98-2.32-5-5.32-6.35-8.78-.1-.27-.19-.54-.23-.83-.24-1.59,.44-2.79,1.8-3.18,1.22-.35,2.33,.23,3.05,1.61,.22,.42,.37,.88,.5,1.34,.92,3.28,1.82,6.57,2.86,10.36Z"/>
      </g>
      <path class="cls-7" d="M1144.75,183.27c-.46,2.79-.89,5.54-1.39,8.27-.54,2.98-1.14,5.94-1.75,8.91-.14,.66-.32,1.34-.62,1.94-.95,1.88-3.27,2.04-4.08,.14-.59-1.37-.86-3.09-.63-4.54,.7-4.25,1.82-8.41,4.14-12.12,1.24-1.98,2.03-2.45,4.33-2.59Z"/>
      <path class="cls-20" d="M1148.82,293.05c-1.22-1.04-2.62-1.92-3.63-3.14-2.05-2.47-3.98-5.06-5.76-7.73-.6-.9-.72-2.2-.84-3.33-.15-1.43,.6-2.48,1.99-2.87,1.42-.4,2.54,.2,3.17,1.49,.99,2.02,1.93,4.06,2.78,6.14,.85,2.07,1.6,4.19,2.3,6.31,.29,.89,.35,1.85,.51,2.78l-.53,.35Z"/>
      <g>
        <g>
          <path class="cls-15" d="M1321.21,140.33c3.79,6,6.39,12.42,6.27,19.69-.08,4.52-1.14,8.82-3.47,12.66-2.18,3.61-3.59,7.42-4.27,11.54-1.36,8.23-6.31,14.01-13.37,17.73-5.34,2.81-10.46,5.84-15.3,9.42-4.13,3.03-8.52,5.72-12.55,8.87-7.61,5.97-16.39,9.25-25.53,11.87-6.45,1.84-13.03,2.24-19.63,1.62-5.38-.5-10.74-1.37-16.04-2.39-4.57-.88-8.76-2.83-12.77-5.25-4.54-2.75-9.25-5.21-13.91-7.82-.65,.41-.88,.61-1.14,.72-4.89,2.13-6.44,6.44-7.01,11.18-.54,4.57-2.32,8.28-6.13,10.96-1.04,.74-2.01,1.59-2.94,2.47-2.36,2.23-2.62,4.03-1,6.79,.54,.94,1.32,1.76,1.73,2.74,.7,1.7,1.44,3.45,1.7,5.25,.23,1.52,.8,2.6,1.98,3.42,.81,.56,1.65,1.1,2.55,1.49,7.73,3.4,15.41,6.95,23.25,10.06,3.25,1.29,6.83,1.95,10.32,2.33,5.96,.64,11.9,1.48,17.96,1.33,7.41-.19,14.68-.85,21.92-2.63,5.42-1.34,11.05-1.79,16.6-2.59,2.73-.39,5.47-.7,8.21-.99,6.83-.71,13.34,.59,19.52,3.48,3.35,1.57,5.04,4.56,6.12,7.95,2.02,6.36,1.11,12.65-.44,18.92-.78,3.16-2.38,5.82-4.89,7.91-6.19,5.15-12.78,9.39-20.96,10.83-6.58,1.16-13.06,2.86-19.6,4.23-2.02,.42-4.08,.65-6.14,.83-5.89,.53-11.77,1.25-17.67,1.4-7.19,.18-14.39,.01-21.57-.33-4.6-.21-9.22-.79-13.77-1.57-9.6-1.64-18.63-4.89-26.9-10.11-4.18-2.64-8.47-5.06-13.34-6.12-2.79-.6-5.61-1.07-8.44-1.42-2.71-.33-5.07-1.13-7.01-3.23-1.03-1.13-2.5-1.88-3.82-2.71-2.74-1.74-4.8-4.11-6.33-6.89-3.76-6.83-5.75-14.15-6.13-21.96-.35-7.28-.89-14.56-1.59-21.81-.97-9.98-.83-19.86,1.32-29.68,1.83-8.36,2.18-16.74,.46-25.2-1.63-8.04,.08-15.61,3.68-22.88,4.33-8.77,10.06-16.39,17.7-22.56,8.89-7.19,17.93-14.17,27.54-20.39,4.64-3,9.53-5.42,15.04-6.52,4.33-.86,8.07-3.2,11.46-5.87,8.3-6.53,17.77-8.44,27.85-6.77,5.26,.87,10.35,3.02,15.41,4.87,7.67,2.81,15.19,6,23.38,7.03,5.56,.71,11.11,1.61,16.7,2.04,7.65,.59,14.92,2.62,22.01,5.3,5.47,2.08,9.84,5.79,12.98,10.76Zm-2.15,29.21c1.77-4.01,3.07-8.24,2.24-12.58-.69-3.63-1.87-7.25-3.45-10.59-2.78-5.9-7.32-10-13.58-12.36-9.56-3.61-19.56-4.77-29.57-6.13-5.61-.77-11.28-1.68-16.68-3.32-8.24-2.52-16.29-5.69-24.39-8.64-5.56-2.02-11.19-1.78-16.85-.73-4.13,.77-7.71,2.78-11.14,5.14-4.53,3.12-9.11,6.22-14.63,7.38-4.21,.9-7.92,2.88-11.5,5.13-8.58,5.41-16.53,11.69-24.58,17.85-8.87,6.78-15.8,14.98-20.25,25.27-2.27,5.22-3.57,10.61-3.12,16.31,.3,3.81,.62,7.64,1.3,11.4,.71,3.89-.01,7.63-.53,11.4-.77,5.53-2.2,11.01-2.44,16.56-.31,6.86,.18,13.77,.58,20.64,.35,6.07,1.19,12.11,1.56,18.18,.32,5.23,1.23,10.3,2.99,15.23,1.85,5.2,4.34,9.88,9.34,12.8,1.08,.63,2.01,1.55,2.99,2.37,1.4,1.16,2.89,1.77,4.81,1.8,2.83,.05,5.68,.4,8.47,.88,5.13,.89,9.57,3.46,13.91,6.19,5.11,3.21,10.52,5.65,16.37,7.21,5.12,1.36,10.26,2.54,15.57,2.92,6.96,.49,13.9,1.41,20.85,1.48,6.67,.07,13.35-.62,20.01-1.17,4.09-.33,8.18-.91,12.23-1.59,4.73-.79,9.42-1.78,14.11-2.75,2.87-.59,5.78-1.11,8.57-2,5.05-1.6,9.17-4.85,13.23-8.14,1.82-1.48,2.97-3.51,3.44-5.73,1.17-5.52,1.25-11.07-.1-16.6-.62-2.56-2.04-4.41-4.55-5.38-4.15-1.6-8.38-2.9-12.88-2.61-3.81,.25-7.63,.63-11.4,1.19-5.14,.75-10.32,1.39-15.33,2.67-7.19,1.85-14.4,3.08-21.83,2.75-1.86,0-3.73,.13-5.58-.02-4-.33-7.99-.97-12-1.18-5.67-.31-11.07-1.66-16.22-3.92-6.02-2.64-11.92-5.57-17.87-8.39-1.77-.84-3.58-1.65-5.27-2.64-2.37-1.38-4.33-3.32-4.6-6.15-.2-2.2-1.13-3.91-2.25-5.65-.7-1.07-1.37-2.18-1.89-3.34-1.39-3.09-.85-5.97,1.29-8.51,1.2-1.42,2.51-2.76,3.93-3.96,2.61-2.22,4.06-4.82,4.24-8.38,.17-3.6,.9-7.2,2.66-10.47,2.53-4.69,7.24-6.52,12.13-4.74,.45,.17,.95,.23,1.42,.34,3.83,.92,7.54,2.09,10.88,4.3,4.35,2.87,8.85,5.5,14.05,6.54,3.17,.63,6.34,1.42,9.55,1.62,5.78,.37,11.68,1.07,17.37,.34,8.76-1.13,17.34-3.67,24.96-8.31,6.29-3.82,12.22-8.27,18.19-12.59,4.62-3.34,9.17-6.66,14.45-9.04,6.51-2.93,10.7-8.09,12.16-15.31,.58-2.87,1.51-5.67,2.47-8.44,.53-1.57,1.49-3,2.16-4.53Z"/>
          <path class="cls-1" d="M1321.3,156.96c.83,4.34-.47,8.57-2.24,12.58-.67,1.53-1.63,2.96-2.16,4.53-.96,2.77-1.89,5.57-2.47,8.44-1.46,7.22-5.65,12.38-12.16,15.31-5.28,2.38-9.83,5.7-14.45,9.04-5.97,4.32-11.9,8.77-18.19,12.59-7.62,4.64-16.2,7.18-24.96,8.31-5.69,.73-11.59,.03-17.37-.34-3.21-.2-6.38-.99-9.55-1.62-5.2-1.04-9.7-3.67-14.05-6.54-3.34-2.21-7.05-3.38-10.88-4.3-.47-.11-.97-.17-1.42-.34-4.89-1.78-9.6,.05-12.13,4.74-1.76,3.27-2.49,6.87-2.66,10.47-.18,3.56-1.63,6.16-4.24,8.38-1.42,1.2-2.73,2.54-3.93,3.96-2.14,2.54-2.68,5.42-1.29,8.51,.52,1.16,1.19,2.27,1.89,3.34,1.12,1.74,2.05,3.45,2.25,5.65,.27,2.83,2.23,4.77,4.6,6.15,1.69,.99,3.5,1.8,5.27,2.64,5.95,2.82,11.85,5.75,17.87,8.39,5.15,2.26,10.55,3.61,16.22,3.92,4.01,.21,8,.85,12,1.18,1.85,.15,3.72,.02,5.58,.02,7.43,.33,14.64-.9,21.83-2.75,5.01-1.28,10.19-1.92,15.33-2.67,3.77-.56,7.59-.94,11.4-1.19,4.5-.29,8.73,1.01,12.88,2.61,2.51,.97,3.93,2.82,4.55,5.38,1.35,5.53,1.27,11.08,.1,16.6-.47,2.22-1.62,4.25-3.44,5.73-4.06,3.29-8.18,6.54-13.23,8.14-2.79,.89-5.7,1.41-8.57,2-4.69,.97-9.38,1.96-14.11,2.75-4.05,.68-8.14,1.26-12.23,1.59-6.66,.55-13.34,1.24-20.01,1.17-6.95-.07-13.89-.99-20.85-1.48-5.31-.38-10.45-1.56-15.57-2.92-5.85-1.56-11.26-4-16.37-7.21-4.34-2.73-8.78-5.3-13.91-6.19-2.79-.48-5.64-.83-8.47-.88-1.92-.03-3.41-.64-4.81-1.8-.98-.82-1.91-1.74-2.99-2.37-5-2.92-7.49-7.6-9.34-12.8-1.76-4.93-2.67-10-2.99-15.23-.37-6.07-1.21-12.11-1.56-18.18-.4-6.87-.89-13.78-.58-20.64,.24-5.55,1.67-11.03,2.44-16.56,.52-3.77,1.24-7.51,.53-11.4-.68-3.76-1-7.59-1.3-11.4-.45-5.7,.85-11.09,3.12-16.31,4.45-10.29,11.38-18.49,20.25-25.27,8.05-6.16,16-12.44,24.58-17.85,3.58-2.25,7.29-4.23,11.5-5.13,5.52-1.16,10.1-4.26,14.63-7.38,3.43-2.36,7.01-4.37,11.14-5.14,5.66-1.05,11.29-1.29,16.85,.73,8.1,2.95,16.15,6.12,24.39,8.64,5.4,1.64,11.07,2.55,16.68,3.32,10.01,1.36,20.01,2.52,29.57,6.13,6.26,2.36,10.8,6.46,13.58,12.36,1.58,3.34,2.76,6.96,3.45,10.59Zm-45.63,27.94c3.68-2,5.38-7.35,3.78-11.29,.01-.01,0-.01,0-.01,.32-4.01-.52-8.08-2.92-11.82-6.23-9.75-19.42-11.92-29.97-13.03-9.17-.97-18.35-.57-27.55-.54-2.56,0-4.55,.89-5.98,2.28-2.66,.78-5.2,1.77-7.48,2.93-9.94,5.07-13.06,14.16-14.08,23.99-.01,0-.01,.01,0,.02-1.04,3.92-1.35,8.02-.5,11.86,.01,.26,0,.52,.01,.78-1.03,1.44-1.61,3.15-1.46,4.98,.7,8.86,5.66,15.63,14.97,16.27,4.32,.3,9.3-1.1,13.56-2.15,0,0,0,0,.01,0,7.05,.83,14.24-.04,21.45-1.87,11.45-2.91,23.83-8.23,32.06-16.99,1.54-1.64,2.93-3.47,4.1-5.41Z"/>
          <path class="cls-1" d="M1279.45,173.61c1.6,3.94-.1,9.29-3.78,11.29,2.1-3.49,3.49-7.37,3.78-11.29Z"/>
          <path class="cls-1" d="M1213.03,150.49c-1.23,1.18-2.05,2.73-2.44,4.4-6.01,2.3-11.27,6.42-15.08,12.91-1.7,2.89-3.14,6.18-4.04,9.61,1.02-9.83,4.14-18.92,14.08-23.99,2.28-1.16,4.82-2.15,7.48-2.93Z"/>
          <path class="cls-1" d="M1189.52,195.05c-.15-1.83,.43-3.54,1.46-4.98-.01-.26,0-.52-.01-.78,.05,.25,.11,.5,.18,.75,1.79,6.83,7.2,12.16,13.41,15.2,4.41,2.16,8.92,3.41,13.49,3.93-4.26,1.05-9.24,2.45-13.56,2.15-9.31-.64-14.27-7.41-14.97-16.27Z"/>
        </g>
        <path class="cls-1" d="M1232.83,281.97c7.44,.33,14.64-.91,21.83-2.75,5.01-1.28,10.19-1.93,15.33-2.68,3.78-.55,7.59-.94,11.4-1.19,4.5-.29,8.73,1.01,12.88,2.61,2.51,.97,3.94,2.82,4.56,5.37,1.34,5.53,1.26,11.09,.1,16.6-.47,2.22-1.62,4.25-3.44,5.73-4.05,3.29-8.17,6.54-13.23,8.15-2.79,.89-5.69,1.4-8.57,1.99-4.69,.97-9.38,1.96-14.11,2.76-4.05,.68-8.14,1.25-12.24,1.59-6.66,.55-13.34,1.24-20,1.17-6.95-.07-13.9-.99-20.85-1.48-5.31-.38-10.45-1.56-15.58-2.92-5.84-1.56-11.26-4-16.37-7.21-4.33-2.72-8.77-5.3-13.91-6.18-2.79-.48-5.64-.83-8.47-.88-1.92-.03-3.41-.64-4.81-1.81-.98-.82-1.91-1.73-2.99-2.37-4.99-2.92-7.48-7.6-9.33-12.8-1.76-4.93-2.67-10-2.99-15.23-.37-6.07-1.21-12.11-1.57-18.18-.4-6.87-.88-13.78-.58-20.64,.24-5.54,1.68-11.03,2.44-16.55,.52-3.77,1.24-7.52,.53-11.41-.68-3.75-1-7.58-1.3-11.39-.45-5.7,.85-11.09,3.11-16.32,4.45-10.28,11.38-18.48,20.25-25.26,8.05-6.16,16-12.44,24.59-17.85,3.58-2.25,7.29-4.24,11.5-5.13,5.51-1.17,10.09-4.26,14.62-7.38,3.43-2.36,7.01-4.37,11.14-5.14,5.66-1.05,11.29-1.29,16.85,.73,8.11,2.95,16.15,6.12,24.39,8.64,5.4,1.65,11.07,2.56,16.68,3.32,10.01,1.36,20.01,2.52,29.57,6.13,6.26,2.36,10.8,6.47,13.58,12.36,1.57,3.34,2.76,6.96,3.45,10.58,.83,4.35-.47,8.57-2.24,12.59-.68,1.53-1.63,2.95-2.17,4.53-.95,2.77-1.89,5.58-2.47,8.44-1.46,7.22-5.65,12.38-12.16,15.31-5.28,2.38-9.83,5.69-14.45,9.04-5.97,4.32-11.9,8.77-18.19,12.59-7.62,4.63-16.2,7.18-24.96,8.3-5.69,.73-11.59,.03-17.37-.33-3.2-.2-6.38-.99-9.55-1.62-5.2-1.04-9.7-3.67-14.05-6.54-3.34-2.21-7.06-3.37-10.89-4.3-.47-.11-.96-.17-1.42-.34-4.89-1.78-9.6,.04-12.13,4.74-1.76,3.26-2.49,6.86-2.66,10.47-.17,3.56-1.62,6.16-4.24,8.37-1.41,1.2-2.73,2.54-3.93,3.96-2.14,2.54-2.68,5.43-1.29,8.52,.52,1.16,1.19,2.26,1.89,3.33,1.13,1.74,2.05,3.46,2.26,5.65,.27,2.83,2.22,4.77,4.59,6.15,1.69,.99,3.5,1.79,5.28,2.64,5.95,2.82,11.85,5.75,17.87,8.39,5.14,2.26,10.55,3.61,16.22,3.91,4.01,.22,8,.85,12,1.18,1.85,.15,3.71,.03,5.57,.03Zm-23.2-149.16c1.08,2.09,2.66,2.86,5.33,2.12,4.68-1.3,9.33-2.73,13.93-4.27,1.6-.54,3.03-1.57,5.19-2.72-1.5-.84-2.3-1.54-3.23-1.77-4.52-1.13-9.03-.97-13.49,.44-.47-.08-.94-.16-1.41-.23-2.64-.43-5.28-.65-7.84,.36-1.87,.74-2.66,2.57-1.92,4.32,.65,1.54,2.04,1.67,3.44,1.75Zm-36.05,13.97c-.35,.18-.67,.47-1.04,.54-3.61,.68-6.47,2.66-9.04,5.15-.63,.61-1.28,1.25-1.71,2-.77,1.34-.57,2.96,.32,3.79,.9,.85,2.82,.77,4.06-.21,.68-.54,1.32-1.15,1.97-1.73,1.92,3.08,4.18,3.96,7.06,2.09,3.01-1.95,5.73-4.38,8.46-6.73,.7-.6,1.08-1.63,1.44-2.53,.78-1.95,.3-3.22-1.59-4.08-.77-.35-1.68-.5-2.53-.56-2.74-.2-5.05,1.1-7.39,2.26Zm50.15,5.07c-2.4,.44-4.84,.72-7.18,1.36-7.89,2.14-13.8,7.08-18.12,13.8-4.14,6.46-6.98,13.42-5.32,21.41,.13,.63-.05,1.32-.05,1.98-.01,3.41,.42,6.84,3,9.23,1.83,1.69,4.16,3.18,6.52,3.89,4.58,1.37,9.33,2.2,14.04,3.12,5.18,1.01,10.4,.44,15.59,0,4.53-.38,9.07-1.12,12.83-3.84,4.29-3.11,8.44-6.45,12.4-9.97,3.29-2.92,6.9-5.18,10.94-6.85,1.99-.82,3.96-1.74,5.87-2.75,1.53-.81,2.77-2.1,2.86-3.87,.1-2.14,0-4.33-.35-6.45-.94-5.76-5.01-8.87-9.9-11.19-2.51-1.2-5.16-1.86-7.97-1.71-3.24,.18-6.47,.51-9.71,.48-1.61-.01-3.31-.46-4.81-1.1-2.71-1.16-5.33-2.53-7.92-3.95-3.96-2.17-8.14-3.35-12.73-3.59Zm59.91,133.7c-.05-1.82-1.27-2.37-2.44-2.8-1.17-.43-2.44-.81-3.67-.87-5.99-.26-11.9,.24-17.59,2.29-.8,.29-1.52,.82-2.21,1.33-1.24,.92-1.77,2.24-1.14,3.63,.63,1.38,1.76,2.43,3.49,2.19,2.5-.35,5.01-.67,7.47-1.2,5.4-1.18,10.9-2.03,16.1-4.56Zm26.48-131.15c-.25-1.54-.31-2.63-.61-3.64-.7-2.35-3.42-4.23-5.31-3.79-2.4,.56-4.5,3.37-3.87,5.76,.72,2.71,1.69,5.4,2.95,7.9,1.26,2.5,4.39,2.38,5.48-.24,.84-2.01,1-4.31,1.36-6Zm-165.37,28.86c-2.3,.14-3.08,.6-4.33,2.59-2.33,3.71-3.45,7.88-4.14,12.12-.24,1.46,.04,3.18,.63,4.54,.81,1.9,3.13,1.74,4.08-.14,.3-.6,.49-1.28,.62-1.94,.61-2.96,1.21-5.93,1.75-8.91,.5-2.73,.92-5.48,1.39-8.27Zm72.85,105.73c-.48-.92-.7-1.89-1.3-2.39-2.62-2.18-5.65-3.51-9.1-3.56-2.34-.03-3.81,1.29-4.11,3.38-.35,2.42,.83,4.28,3.2,4.87,4.02,.99,7.63-.07,11.31-2.3Zm-68.78,4.06l.53-.35c-.16-.93-.22-1.89-.51-2.78-.7-2.13-1.45-4.24-2.3-6.31-.85-2.08-1.79-4.12-2.78-6.14-.63-1.29-1.75-1.88-3.17-1.49-1.39,.39-2.14,1.43-1.99,2.87,.12,1.14,.24,2.43,.84,3.33,1.78,2.67,3.71,5.26,5.76,7.73,1.01,1.21,2.41,2.1,3.63,3.14Zm156.5-114.76c-2.51,2.78-4.71,5.01-6.64,7.45-.97,1.21-.81,2.76,.18,4.09,.76,1.03,1.72,1.67,3.01,1.41,1.6-.32,2.11-1.68,2.43-3.03,.63-2.66,1.18-5.34,1.69-8.02,.07-.38-.27-.83-.66-1.9Zm-21.34,118.36c2.15,.09,4.34-1.26,4.36-2.68,.02-1.81-2.29-3.77-4.55-3.85-1.96-.07-3.67,1.3-3.7,2.96-.04,1.95,1.63,3.48,3.89,3.57Zm-116.28-.35c-.21-.41-.32-.68-.48-.91-1.49-2.05-2.96-4.11-4.5-6.12-.73-.96-1.64-1.77-2.98-1.04-1.13,.62-1.5,1.89-1.04,3.3,.06,.19,.07,.4,.17,.56,1.86,2.73,4.59,4.15,7.71,4.9,.29,.07,.72-.43,1.12-.68Zm-20.68-100.79s-.19-.14-.36-.11c-.28,.05-.64,.13-.78,.33-1.75,2.56-2.86,5.34-2.43,8.5,.23,1.71,1.42,2.97,2.46,2.89,1.22-.1,1.71-1.06,1.64-3.25-.02-.59-.07-1.17-.1-1.76-.13-2.09-.27-4.19-.42-6.6Z"/>
        <path class="cls-15" d="M1223.73,151.86c4.58,.24,8.77,1.42,12.73,3.59,2.58,1.42,5.21,2.79,7.92,3.95,1.49,.64,3.19,1.08,4.81,1.1,3.23,.03,6.47-.31,9.71-.48,2.81-.15,5.46,.51,7.97,1.71,4.88,2.32,8.96,5.43,9.9,11.19,.35,2.12,.46,4.31,.35,6.45-.09,1.77-1.33,3.06-2.86,3.87-1.91,1.01-3.87,1.92-5.87,2.75-4.04,1.67-7.64,3.93-10.94,6.85-3.96,3.52-8.11,6.87-12.4,9.97-3.76,2.72-8.3,3.46-12.83,3.84-5.19,.44-10.41,1.02-15.59,0-4.71-.92-9.46-1.75-14.04-3.12-2.37-.71-4.69-2.2-6.52-3.89-2.58-2.39-3.01-5.82-3-9.23,0-.66,.18-1.35,.05-1.98-1.66-7.99,1.17-14.95,5.32-21.41,4.31-6.72,10.23-11.66,18.12-13.8,2.34-.64,4.79-.92,7.18-1.36Zm.27,49.72c1.97-.09,3.94-.13,5.91-.28,5.8-.43,11.26-1.82,15.83-5.7,2.1-1.79,4.28-3.49,6.38-5.27,4.45-3.78,9.14-7.16,14.68-9.22,1.47-.55,2.9-1.23,4.34-1.86,1.1-.48,1.79-1.3,1.64-2.53-.5-3.91-1.56-7.44-5.36-9.63-3.08-1.77-6.17-3-9.78-2.44-1.17,.18-2.35,.23-3.52,.38-4.61,.58-9.02,.02-13.2-2.12-2.27-1.17-4.56-2.31-6.85-3.45-7.26-3.6-14.46-3.31-21.47,.6-7.94,4.43-12.61,11.39-14.75,20.09-.48,1.97-.66,4.12-.45,6.13,.27,2.62,1.02,5.19,1.68,7.75,.14,.56,.72,1.13,1.24,1.44,7.28,4.39,15.23,6.23,23.69,6.1Z"/>
        <path class="cls-24" d="M1173.58,146.78l1.8,.21c-.02,1.88-1.2,2.94-2.21,4.04-1.64,1.79-3.35,3.52-5.03,5.28-.66,.58-1.29,1.19-1.97,1.73-1.24,.98-3.15,1.06-4.06,.21-.88-.83-1.09-2.45-.32-3.79,.43-.75,1.08-1.39,1.71-2,2.57-2.49,5.43-4.47,9.04-5.15,.37-.07,.69-.35,1.04-.54Z"/>
        <path class="cls-17" d="M1217.35,126.62c1.09,.42,2.88,.18,2.84,1.73-.02,.67-1.57,1.52-2.57,1.89-2.62,.97-5.33,1.73-8,2.57-1.4-.08-2.79-.21-3.44-1.75-.73-1.74,.05-3.58,1.92-4.32,2.56-1.01,5.2-.79,7.84-.36,.47,.08,.94,.16,1.41,.23Z"/>
        <path class="cls-24" d="M1305.31,178.29c.39,1.07,1.19,2.05,.86,2.12-.51,2.68-1.25,5.15-1.88,7.81-.32,1.35-.83,2.71-2.43,3.03-1.29,.26-2.25-.39-3.01-1.41-.99-1.34-1.15-2.88-.18-4.09,1.94-2.44,4.14-4.67,6.64-7.45Z"/>
        <path class="cls-24" d="M1167.69,296.3c-.4,.26-.83,.75-1.12,.68-3.11-.75-5.84-2.17-7.71-4.9-.1-.15-.11-.37-.17-.56-.46-1.41-.09-2.68,1.04-3.3,1.34-.73,2.25,.08,2.98,1.04,1.53,2.01,3.01,4.07,4.5,6.12,.16,.23,.27,.5,.48,.91Z"/>
      </g>
      <path class="cls-16" d="M1147,195.5c.16,2.41,.29,4.51,.42,6.6,.04,.59,.09,1.17,.1,1.76,.07,2.19-.42,3.15-1.64,3.25-1.03,.09-2.23-1.18-2.46-2.89-.42-3.16,.68-5.94,2.43-8.5,.14-.2,.5-.28,.78-.33,.16-.03,.36,.11,.36,.11Z"/>
      <g>
        <path class="cls-1" d="M1524.27,170.5c-.07-4.1-.86-8.09-1.49-12.13-.5-3.18-.53-6.33-.88-9.51-.35-3.15-2.86-5.44-4.76-7.82-1.87-2.36-3.52-4.76-4.37-7.66-.17-.6-.16-1.13,0-1.6-5.79-4.9-11.48-9.94-17.71-14.22-3.9-2.68-8.89-4.82-13.57-5.26-.89-.08-1.79-.16-2.68-.23-.45,.69-1.23,1.17-2.33,1.16-4.68-.07-9.29-1.07-13.89-1.82-5.98,.03-11.94,.41-17.86,1.24-.46,.18-.91,.24-1.32,.19-6.27,.95-12.49,2.42-18.66,4.55-9.6,3.31-19.56,4.18-29.66,1.22-2.95-.86-6.33-.76-9.46-.46-3.12,.29-5.88,.2-8.53-1.66-4.05-2.85-8.62-3.15-12.95-1.03-7.32,3.59-13.38,8.62-17.21,15.99-2.83,5.47-3.98,11.22-4.51,17.07,1.33,.13,2.56,1.05,2.55,2.74-.04,5.83-.59,11.62-1,17.42-.41,5.63-.33,11.26-.58,16.89-.25,5.42-.77,10.84-1.64,16.2-.25,1.55-.57,3.1-.9,4.65-.24,3-.68,5.98-1.49,8.94-.05,.64-.07,1.28-.08,1.92,.68,.62,1.05,1.56,.7,2.71-2.14,7.12-1.17,14.39-1.12,21.69,0,1.44-.87,2.31-1.94,2.63,0,.08,0,.16-.01,.23-.49,7.98-1.35,15.94-1.48,23.93-.06,3.91,.35,8.13,1.83,11.69,.26,.14,.51,.34,.75,.6,3.65,3.95,2.11,11.81,2.06,16.64-.09,7.95,4.03,14.27,7.19,21.36,.77,1.72,1.35,3.11,3.17,3.86,1.78,.73,3.78,1.12,5.66,1.5,4.63,.95,9.64-1.1,14.23-1.88,6.07-1.03,17.87-2.41,17.93-10.39,0-1.37,.82-2.23,1.83-2.58-1.27-5.12-.95-10.06-.47-15.32,.51-5.6-.41-11.16,.57-16.73,.17-.94,.67-1.53,1.31-1.83-.03-1.15-.08-2.3-.16-3.46-.66-.29-1.23-.81-1.56-1.61-1.32-3.17-1.62-6.68-1.66-10.08-.03-2.86-.17-6,.94-8.69,2.27-5.52,8.3-9.06,14.27-8,1.25,.22,2.18,1.62,2.16,2.9,.05,.02,.09,.03,.13,.04,.89,.23,1.81,.38,2.71,.58,2.03,.45,3.52,1.12,5.09,2.5,2.37,2.11,4.13,4.78,5.98,7.31,1.86,2.55,4.18,4.85,5.64,7.68,1.27,2.45,1.55,5.2,2.93,7.61,1.38,2.41,2.92,4.75,4.43,7.09,3.21,4.95,6.52,9.86,9.28,15.08,2.43,4.58,3.73,9.43,5.78,14.13,2.09,4.76,7.58,7.49,12.14,9.55,10.42,4.72,23.71,7.61,35.03,4.82,4.39-1.08,9.31-3.64,11.94-7.37,2.84-4.02-.01-10.02-1.53-14.08-.54-1.43,.11-2.53,1.15-3.07-2.75-5.57-5.53-11.16-9.09-16.19-7.57-10.69-15.95-20.82-23.98-31.2-4.13-2.13-4.59-8.29-3.64-12.35,1.34-5.66,7.84-9.55,12.31-12.73,2.44-1.74,5.42-3.51,6.91-6.19,1.75-3.15,1.48-7.03,3.13-10.27,2.57-5.05,7.64-10.72,13.6-11.55,.64-.09,1.22,.01,1.72,.24,.07-.3,.21-.61,.41-.93,2.07-3.11,5.19-4.15,7.99-6.39,2.73-2.19,4.65-5.91,6.41-8.87,1.75-2.95,2.64-6.15,3.08-9.46-.45-.45-.75-1.09-.76-1.9Zm-156.54,79.8c1.13-.25,2.74,0,3.65,.69,2.18,1.63,3.01,7.31,1.46,9.47-.38,.53-2.33,.77-2.53,.48-1.68-2.49-3.11-5.13-4.78-8,.87-1.11,1.4-2.47,2.2-2.64Zm5.26,38.79c-2.62-1.69-4.33-7.96-2.93-9.84,.46-.62,1.75-1.24,2.34-1.02,.79,.29,1.81,1.44,1.76,2.16-.17,2.83-.73,5.64-1.17,8.7Zm21.14-143.07c-.67,.49-2.53,.15-3.38-.47-3.4-2.48-6.83-4.99-9.79-7.95-1.08-1.08-1.42-3.57-1.03-5.16,.27-1.08,2.39-1.72,3.9-2.69,1.92,1.07,3.75,1.66,4.98,2.86,2.89,2.81,5.54,5.91,6.12,10.07,.15,1.11-.08,2.8-.81,3.34Zm54.23,50.4c-2.79,2.03-6.03,3.02-9.4,3.69-5.66,1.13-12.98,2.6-18.62,.68-6.28-2.15-7.68-8.87-9.13-14.49-1.38-5.33-3.6-12.84,1.39-16.93,.51-.42,1.07-.63,1.61-.69,.82-.94,1.46-2.09,2.44-2.86,1.49-1.18,3.24-1.77,5.07-2.22,4.42-1.09,9.22-1.98,13.76-2.35,1.45-.12,2.96-.11,4.49-.12,.19-.58,.59-1.11,1.28-1.5,1.22-.7,2.57-.9,3.86-1.41,1.47-.58,2.82-1.36,4.4-1.66,1.36-.25,2.74,.25,3.36,1.46,.48-.13,1-.23,1.6-.27,1.65-.11,3.4,.01,4.95,.57,1.63,.58,2.88,2.57,1.74,4.2-1.93,2.76-1.73,4.7-1.26,7.86,.47,3.12,.59,6.21-.23,9.3-.68,2.54-1.86,4.79-3.82,6.51,.43,.77,.48,1.71-.18,2.59-2.12,2.83-4.4,5.54-7.29,7.64Zm13.66,75.09c-1.77-1.56-3.66-2.78-4.91-4.45-2.26-3.03-4.36-6.23-6.03-9.6-.5-.99,.22-3.47,1.15-4.02,1.05-.63,3.79-.42,4.36,.39,3.42,4.92,6.01,10.28,6.43,16.39,.01,.21-.32,.44-.99,1.29Zm-5.34-116.58c-3.18,.05-5.38-2.1-5.09-4.55,.28-2.32,3.18-3.82,6.15-3.18,4.98,1.08,7.39,3.14,8.02,6.98-3.03,.26-6.06,.7-9.09,.75Zm14.89,121.99c3.25,3.8,4.65,8.38,4.91,13.3,.02,.29-.33,.6-1.09,1.92-.4-.99-.54-1.55-.82-2.02-2.17-3.56-4.49-7.04-6.48-10.7-.48-.87,.12-2.32,.23-3.5,1.11,.32,2.64,.28,3.26,1Zm13.87-87.11c-.65-.07-1.81-1.31-1.7-1.58,1.09-2.59,2.24-5.19,3.78-7.54,.46-.7,2.37-1.09,3.26-.74,1.03,.41,1.67,1.78,2.07,2.26,.04,3.71-4.45,7.95-7.4,7.61Zm8.5-42.2c-.57,.38-2.39-.37-3.15-1.11-3.33-3.25-6.64-6.54-9.62-10.1-1.58-1.89-2.08-4.37,.18-6.4,1.91-1.72,4.68-1.86,6.79,.25,3.81,3.83,6.54,8.37,7.28,14.49-.34,.74-.58,2.28-1.48,2.87Zm9.28,3.61c-.3,3.17-.94,6.33-1.69,9.43-.26,1.07-1.27,1.96-1.93,2.94l-.97-.23c-.76-3.97-1.66-7.92-2.22-11.92-.37-2.6,1.2-4.45,3.32-4.44,2.85,.02,3.71,2,3.5,4.23Z"/>
        <path class="cls-1" d="M1383.84,129.75c1.92,1.07,3.75,1.66,4.98,2.86,2.89,2.81,5.54,5.91,6.12,10.07,.15,1.11-.08,2.8-.81,3.34-.67,.49-2.53,.15-3.38-.47-3.4-2.48-6.83-4.99-9.79-7.95-1.08-1.08-1.42-3.57-1.03-5.16,.27-1.08,2.39-1.72,3.9-2.69Z"/>
        <path class="cls-1" d="M1462.03,271.52c-1.77-1.56-3.66-2.78-4.91-4.45-2.26-3.03-4.36-6.23-6.03-9.6-.5-.99,.22-3.47,1.15-4.02,1.05-.63,3.79-.42,4.36,.39,3.42,4.92,6.01,10.28,6.43,16.39,.01,.21-.32,.44-.99,1.29Z"/>
        <path class="cls-1" d="M1465.78,154.2c-3.03,.26-6.06,.7-9.09,.75-3.18,.05-5.38-2.1-5.09-4.55,.28-2.32,3.18-3.82,6.15-3.18,4.98,1.08,7.39,3.14,8.02,6.98Z"/>
        <path class="cls-1" d="M1498.65,163.37c-.76-3.97-1.66-7.92-2.22-11.92-.37-2.6,1.2-4.45,3.32-4.44,2.85,.02,3.71,2,3.5,4.23-.3,3.17-.94,6.33-1.69,9.43-.26,1.07-1.27,1.96-1.93,2.94l-.97-.23Z"/>
        <path class="cls-1" d="M1492.86,182.22c.04,3.71-4.45,7.95-7.4,7.61-.65-.07-1.81-1.31-1.7-1.58,1.09-2.59,2.24-5.19,3.78-7.54,.46-.7,2.37-1.09,3.26-.74,1.03,.41,1.67,1.78,2.07,2.26Z"/>
        <path class="cls-1" d="M1365.53,252.94c0-1.8,1.4-2.47,2.2-2.64,1.13-.25,2.74,0,3.65,.69,2.18,1.63,3.01,7.31,1.46,9.47-.38,.53-2.33,.77-2.53,.48-1.68-2.49-3.11-5.13-4.78-8Z"/>
        <path class="cls-1" d="M1475.4,292.15c-.97-.62-.36-1.17-.88-1.99-2.17-3.56-4.43-7.08-6.42-10.73-.48-.87-.74-2.51,.23-3.5,1.4-.24,2.64,.28,3.26,1,3.25,3.8,5.39,8.63,4.91,13.3,.02,.29-.33,.6-1.09,1.92Z"/>
        <path class="cls-1" d="M1373,289.09c-2.62-1.69-4.33-7.96-2.93-9.84,.46-.62,1.75-1.24,2.34-1.02,.79,.29,1.81,1.44,1.76,2.16-.17,2.83-.73,5.64-1.17,8.7Z"/>
        <g>
          <path d="M1525.7,165.09c-.34,4.16-.54,7.48-.89,10.78-.62,5.91-3.2,10.97-7.58,15-4.73,4.35-9.67,8.49-14.52,12.71-2.68,2.34-5.45,4.57-8.02,7.02-2.93,2.78-4.9,6.14-5.22,10.23-.23,2.9-1.76,4.95-4.04,6.61-3.03,2.2-6.1,4.37-9.07,6.66-1.59,1.23-3.13,2.57-4.45,4.07-2.98,3.36-3.13,6.14-.59,9.83,1.64,2.35,3.45,4.59,5.2,6.86,6.98,9,14.04,17.95,20.93,27.01,4.18,5.5,7.53,11.5,10.07,17.92,1.62,4.1,2.04,8.25,1.03,12.58-1.07,4.63-3.8,7.6-8.23,9.57-10.48,4.66-21.08,3.95-31.82,1.3-9.16-2.26-16.43-7.46-22.7-14.16-2.45-2.62-3.92-5.86-5.26-9.13-1.02-2.47-1.91-4.99-3.02-7.41-.95-2.07-1.94-4.17-3.27-6.01-2.42-3.36-4.46-6.9-5.99-10.72-1.48-3.68-3.59-6.93-6.51-9.68-1.92-1.8-3.24-4-4.19-6.43-.51-1.33-.99-2.68-1.59-3.98-.51-1.12-.98-2.34-1.79-3.23-3.52-3.85-7.97-6.37-13.05-7.52-3.06-.68-5.7,.82-7.63,3.2-2.62,3.25-3.98,6.97-3.62,11.14,.31,3.59,.69,7.19,1.28,10.75,.93,5.62,.31,11.17-.21,16.76-.37,3.97-.41,7.96-.49,11.95-.07,3.42,.08,6.84,.02,10.27-.08,5.41-2.58,9.15-7.87,11.12-3.97,1.48-7.87,3.17-11.75,4.88-4,1.76-7.92,1.57-11.77-.25-1.19-.57-2.3-.8-3.6-.73-4.5,.24-8.11-1.48-10.83-4.99-3.49-4.51-5.07-9.75-6.05-15.24-.9-5.04-.28-10.06,.34-15.05,.27-2.26,.14-4.34-.81-6.39-2.81-6.06-3.25-12.4-2.72-18.96,.65-8.15,1.01-16.31,1.35-24.48,.18-4.36-.14-8.74,.11-13.09,.17-2.81,.73-5.66,1.53-8.38,1.74-5.99,2.54-12.02,2.61-18.27,.2-16.73,.62-33.46,1.18-50.18,.19-5.91,1.64-11.66,4.18-17.08,3.65-7.81,10-12.99,17.55-16.79,4.09-2.06,8.53-1.98,12.43,.71,3.01,2.08,6.11,2.52,9.62,1.82,2.99-.6,6.04-.4,8.91,.53,9.95,3.19,19.74,1.85,29.4-1.03,6.95-2.08,13.94-3.95,21.11-5.08,2.57-.41,5.2-.71,7.8-.71,8.71,0,17.42,.02,26.13,.29,5.85,.17,11.26,2.18,15.91,5.59,7.12,5.22,14.26,10.44,20.49,16.79,4.65,4.73,7.42,10.17,8.35,16.54,.73,5.07,1.15,10.18,1.62,14.48Zm-6.52,11.45c.27-3.03,.73-6.07,.68-9.09-.11-6.86-1.09-13.63-2.93-20.27-.84-3-2.46-5.48-4.59-7.8-6.02-6.58-13.44-11.45-20.66-16.56-3.27-2.31-7.01-3.7-11-4.19-9.05-1.11-18.15-1.24-27.26-1.15-2.12,.03-4.31-.03-6.36,.43-6.31,1.41-12.63,2.86-18.83,4.66-5.5,1.59-11.01,2.96-16.74,3.39-5.83,.44-11.62,.29-17.2-1.7-3-1.06-6.03-1.25-9.15-.65-3.79,.73-7.32,.11-10.49-2.14-.48-.33-.98-.62-1.46-.94-2.31-1.54-4.78-1.69-7.13-.33-6.37,3.67-11.89,8.14-14.6,15.26-1.99,5.22-3.12,10.62-3.34,16.14-.52,13.39-.76,26.8-1.25,40.2-.22,6.07-.53,12.16-1.23,18.19-.39,3.36-1.84,6.59-2.48,9.94-.63,3.35-1.37,6.8-1.16,10.15,.75,12.01-.21,23.95-1.25,35.88-.42,4.73-.1,9.31,1.64,13.73,.97,2.44,1.44,4.93,1.32,7.52-.11,2.47-.29,4.94-.44,7.4,.05,0,.1,.01,.14,.01,0,2.09-.25,4.21,.05,6.26,.79,5.29,2.07,10.45,5.5,14.82,1.9,2.42,4.39,3.64,7.49,3.74,1.16,.03,2.35-.03,3.47,.2,3.35,.71,6.56,.21,9.67-.98,3.79-1.44,7.51-3.06,11.29-4.51,2.21-.86,3.5-2.33,3.69-4.65,.21-2.37,.4-4.74,.5-7.11,.27-5.78,.24-11.6,.81-17.36,.44-4.47,.74-8.91,.34-13.36-.32-3.5-.93-6.97-1.36-10.46-.73-5.92,.64-11.35,4.19-16.19,3.78-5.16,10.17-7.21,16.17-4.93,3.14,1.19,6.07,2.93,9.02,4.55,3.45,1.88,5.67,4.83,7.04,8.41,.51,1.34,.94,2.7,1.39,4.05,.71,2.11,1.79,3.99,3.49,5.51,3.23,2.87,5.36,6.43,6.91,10.41,.96,2.48,1.91,5.03,3.35,7.25,3.58,5.48,6.37,11.31,8.57,17.41,2.12,5.87,5.89,10.43,11,13.99,1.43,.98,2.83,2,4.31,2.9,6.78,4.15,14.44,5.56,22.18,5.85,5.16,.19,10.35-.69,15.28-2.8,4.84-2.08,7.27-5.67,6.31-10.78-.37-1.94-.86-3.95-1.76-5.7-2.09-4.07-4.08-8.26-6.78-11.93-7.64-10.41-15.62-20.58-23.44-30.85-1.97-2.59-4.01-5.15-5.77-7.87-3.22-5.01-3.12-10.1,.41-14.94,1.35-1.84,2.91-3.6,4.66-5.06,3.02-2.52,6.19-4.88,9.45-7.11,2.05-1.41,3.28-3.11,3.6-5.53,.56-4.12,2.53-7.6,5.44-10.5,2.3-2.3,4.87-4.34,7.37-6.44,6.7-5.62,13.46-11.16,18.98-17.99,1.55-1.91,2.73-3.93,2.95-6.38Z"/>
          <path class="cls-1" d="M1463.49,166.72c2.12-5.31-.53-12.73-7.98-12.73-2.34,0-4.21,.75-5.61,1.92-10.23,.11-23.46,6.27-30.65,6.49-6,.18-8.89,5.11-8.67,9.76-7.42,9.82-4.8,25.68,6.49,31.46,11.68,5.98,28.56,3.95,36.87-6.58,4.1-5.19,6-11.4,7.73-17.69,1.12-4.1,2.42-8.39,1.82-12.63Zm56.37,.73c.05,3.02-.41,6.06-.68,9.09-.22,2.45-1.4,4.47-2.95,6.38-5.52,6.83-12.28,12.37-18.98,17.99-2.5,2.1-5.07,4.14-7.37,6.44-2.91,2.9-4.88,6.38-5.44,10.5-.32,2.42-1.55,4.12-3.6,5.53-3.26,2.23-6.43,4.59-9.45,7.11-1.75,1.46-3.31,3.22-4.66,5.06-3.53,4.84-3.63,9.93-.41,14.94,1.76,2.72,3.8,5.28,5.77,7.87,7.82,10.27,15.8,20.44,23.44,30.85,2.7,3.67,4.69,7.86,6.78,11.93,.9,1.75,1.39,3.76,1.76,5.7,.96,5.11-1.47,8.7-6.31,10.78-4.93,2.11-10.12,2.99-15.28,2.8-7.74-.29-15.4-1.7-22.18-5.85-1.48-.9-2.88-1.92-4.31-2.9-5.11-3.56-8.88-8.12-11-13.99-2.2-6.1-4.99-11.93-8.57-17.41-1.44-2.22-2.39-4.77-3.35-7.25-1.55-3.98-3.68-7.54-6.91-10.41-1.7-1.52-2.78-3.4-3.49-5.51-.45-1.35-.88-2.71-1.39-4.05-1.37-3.58-3.59-6.53-7.04-8.41-2.95-1.62-5.88-3.36-9.02-4.55-6-2.28-12.39-.23-16.17,4.93-3.55,4.84-4.92,10.27-4.19,16.19,.43,3.49,1.04,6.96,1.36,10.46,.4,4.45,.1,8.89-.34,13.36-.57,5.76-.54,11.58-.81,17.36-.1,2.37-.29,4.74-.5,7.11-.19,2.32-1.48,3.79-3.69,4.65-3.78,1.45-7.5,3.07-11.29,4.51-3.11,1.19-6.32,1.69-9.67,.98-1.12-.23-2.31-.17-3.47-.2-3.1-.1-5.59-1.32-7.49-3.74-3.43-4.37-4.71-9.53-5.5-14.82-.3-2.05-.05-4.17-.05-6.26-.04,0-.09-.01-.14-.01,.15-2.46,.33-4.93,.44-7.4,.12-2.59-.35-5.08-1.32-7.52-1.74-4.42-2.06-9-1.64-13.73,1.04-11.93,2-23.87,1.25-35.88-.21-3.35,.53-6.8,1.16-10.15,.64-3.35,2.09-6.58,2.48-9.94,.7-6.03,1.01-12.12,1.23-18.19,.49-13.4,.73-26.81,1.25-40.2,.22-5.52,1.35-10.92,3.34-16.14,2.71-7.12,8.23-11.59,14.6-15.26,2.35-1.36,4.82-1.21,7.13,.33,.48,.32,.98,.61,1.46,.94,3.17,2.25,6.7,2.87,10.49,2.14,3.12-.6,6.15-.41,9.15,.65,5.58,1.99,11.37,2.14,17.2,1.7,5.73-.43,11.24-1.8,16.74-3.39,6.2-1.8,12.52-3.25,18.83-4.66,2.05-.46,4.24-.4,6.36-.43,9.11-.09,18.21,.04,27.26,1.15,3.99,.49,7.73,1.88,11,4.19,7.22,5.11,14.64,9.98,20.66,16.56,2.13,2.32,3.75,4.8,4.59,7.8,1.84,6.64,2.82,13.41,2.93,20.27Z"/>
        </g>
        <path d="M1454.97,154.27c2.59,.27,5.2,.46,7.78,.83,3.67,.52,4.83,2.9,3.08,6.16-.95,1.76-1.92,3.51-2.85,5.28-.93,1.77-1.15,3.6-.43,5.51,1.52,4.07,1.11,8.06-.8,11.89-1.99,4.01-4,8.02-6.17,11.94-2.59,4.69-6.59,7.64-11.98,8.66-5.6,1.06-11.14,2.29-16.94,2.14-7.75-.2-17.47-6.43-18.36-16.39-.21-2.42-.39-4.86-1.72-7.11-.57-.96-.54-2.42-.38-3.61,.69-5.07,2.46-9.75,5.7-13.83,2.88-3.62,6.77-5.22,11.36-5.42,2.51-.11,5.07,0,7.51-.48,3.3-.66,6.55-1.66,9.73-2.77,4.69-1.64,9.42-2.91,14.48-2.82Zm4.82,5.6c-1.49-.24-2.61-.48-3.75-.59-4.94-.48-9.62,.6-14.16,2.4-3.88,1.54-7.88,2.63-12.06,2.98-2.22,.19-4.45,.25-6.67,.29-3.71,.06-6.43,1.8-8.52,4.67-1.92,2.65-3.29,5.55-4.27,8.63,1.82,2.03,2.72,4.42,3.36,6.93,.59,2.3,1.14,4.61,1.67,6.93,.47,2.04,1.64,3.6,3.21,4.96,3.34,2.9,7.29,3.92,11.59,3.4,3.64-.43,7.22-1.36,10.86-1.86,4.49-.61,7.72-2.92,9.87-6.7,1.89-3.31,3.55-6.75,5.37-10.1,1.58-2.92,1.97-5.89,.85-9.06-1.07-3.04-.6-6,.72-8.87,.55-1.2,1.14-2.39,1.92-4.01Z"/>
        <path d="M1501.31,142.27c-.76-.47-1.11-.6-1.34-.84-2.58-2.76-5.7-4.8-9.01-6.6-2.18-1.18-2.82-2.3-2.17-3.7,.58-1.24,2.5-1.79,4.39-.98,4.01,1.72,6.79,4.65,8.09,8.77,.28,.9,.04,1.95,.04,3.35Z"/>
        <path d="M1376.62,268.15c-.68-1-1.07-1.4-1.27-1.88-1.5-3.52-2.45-7.17-2.67-10.99-.01-.19-.05-.38-.06-.57-.03-2.05,.98-3.47,2.53-3.57,1.45-.09,2.65,.95,2.9,2.97,.55,4.53,.33,9.02-1.43,14.03Z"/>
        <path d="M1404.18,139.05c-1.96,1.21-3.42,1.26-5.01,.99-2.7-.45-5.28-1.16-7.53-2.72-1.83-1.27-2.35-2.96-1.44-4.35,.86-1.32,2.53-1.63,4.39-.65,3.39,1.78,6.16,4.38,9.59,6.73Z"/>
        <path d="M1469.78,271.68c-.5-.29-.79-.37-.94-.56-2.54-3.2-5.04-6.42-7.59-9.62-1.31-1.64-1.56-2.92-.63-3.75,.97-.86,2.32-.48,3.61,1.19,2.56,3.33,4.86,6.8,5.61,11.02,.08,.48-.03,.99-.07,1.71Z"/>
        <path d="M1489.78,192.43c.71-2.94,1.79-5.75,4.33-7.77,.58-.46,1.65-.59,2.43-.46,.63,.1,1.52,.73,1.65,1.27,.16,.68-.07,1.83-.58,2.23-2.29,1.8-4.74,3.4-7.13,5.07l-.69-.34Z"/>
        <path d="M1505.83,153.43c-.43-.8-.94-1.57-1.27-2.41-.63-1.59-1.18-3.21-1.7-4.83-.63-1.95-.2-3.22,1.13-3.58,1.49-.4,2.7,.54,3.07,2.59,.2,1.11,.19,2.27,.13,3.4-.04,.84-.33,1.67-.46,2.51-.11,.72-.16,1.45-.24,2.18l-.66,.14Z"/>
        <path d="M1376.72,289.36c-1.97-2.29-2.27-4.81-1.68-7.47,.24-1.09,.99-1.86,2.27-1.73,1.26,.12,1.95,.99,1.91,2.1-.08,2.52-.26,5.07-2.51,7.1Z"/>
        <path d="M1481.38,291.32c-.88-.75-1.43-1.03-1.68-1.47-1.09-1.98-2.18-3.96-3.1-6.02-.35-.79-.63-1.95,.54-2.46,1.08-.47,1.84,.17,2.27,1.14,1.17,2.61,2.71,5.16,1.97,8.82Z"/>
        <path d="M1473.93,216.44c.64-3.22,2.12-5.3,4.33-6.85,1.06-.75,2.53-.37,3.08,.52,.58,.95,.16,1.88-1.24,2.71-1.87,1.11-3.75,2.2-6.17,3.63Z"/>
      </g>
      <path class="cls-8" d="M1106.78,130.05l1.14-4.77c3.44-.28,4.42,.73,3.91,4.07-.46,3.09-1.05,6.15-3.01,8.71-.36,.47-1.03,.69-1.56,1.02-.06-.52-.15-1.04-.18-1.57-.11-2.49-.21-4.98-.3-7.46Z"/>
      <g>
        <path class="cls-15" d="M1123.22,112.78c-1.88-4.62-4.83-8.11-9.89-9.48-7.37-2-13.21,.49-17.65,6.29-2.44,3.19-4.28,6.85-6.41,10.28-1.96,3.18-3.62,6.6-5.97,9.47-5.2,6.37-8.68,13.32-9.48,21.61-.29,2.98-.94,6.04-3.07,8.43-3.6,4.05-6.21,8.73-8.62,13.53-3.23,6.43-6.79,12.65-11.12,18.43-2.15,2.88-3.77,6.07-3.98,9.7-.25,4.33-.36,8.69-.21,13.02,.22,6.39-.51,12.53-3.86,18.12-1.73,2.9-3.77,5.51-6.13,7.85,1.03,1.47,1.91,2.99,2.55,4.61,7.25-6.4,12.38-14.16,13.36-24.37,.44-4.62,.59-9.29,.56-13.93-.03-4.73,1.32-8.82,3.87-12.82,4.24-6.64,8.11-13.52,12-20.38,2.06-3.62,4.13-7.18,7.04-10.21,2.71-2.82,3.83-6.37,4.45-10.11,.33-1.99,.54-4.01,.88-6,.74-4.41,2.82-8.21,5.57-11.64,3.75-4.69,6.72-9.83,9.54-15.11,1.6-3,3.65-5.83,5.92-8.36,2.22-2.47,5.19-3.3,8.59-2.21,2.17,.7,3.69,1.99,4.78,3.92,2.41,4.26,2.81,8.87,2.05,13.54-.52,3.16-1.45,6.3-2.55,9.32-3.56,9.78-7.14,19.53-9.51,29.7-.86,3.7-2.28,7.36-4,10.76-4.66,9.2-9.54,18.28-14.47,27.34-6.97,12.79-13.93,25.58-17.99,39.68-1.23,4.26-2.28,8.6-3.13,12.95-1.45,7.42-4.82,14.14-7.41,21.14-2.56,6.93-4.84,13.91-6.45,21.13-1.08,4.84-2.8,9.49-5.85,13.55-3.23,4.31-7.51,6.67-12.82,7.19-3.11,.3-4.46-.44-5.7-3.34-.83-1.94-1.44-3.99-2.12-6-1.37-4.01-2.93-7.93-4.78-11.7-.95,1.74-3.74,3.51-5.74,3.99,2.73,4.96,4.59,10.22,6.83,15.41,2.41,5.57,5.71,8.26,11.74,7.86,6.83-.46,12.4-3.3,16.79-8.57,4.13-4.95,6.13-10.85,7.97-16.88,2.22-7.24,4.53-14.46,6.97-21.63,2.21-6.5,5.44-12.63,6.82-19.43,.86-4.26,1.79-8.52,2.96-12.7,3.99-14.26,11.09-27.09,18.64-39.69,3.17-5.29,6.42-10.55,9.39-15.95,4.33-7.89,8.57-15.87,10.41-24.79,1.54-7.46,3.86-14.64,6.59-21.73,1.38-3.58,2.56-7.24,3.58-10.94,1.93-7.02,1.81-14.02-.96-20.84Z"/>
        <path class="cls-1" d="M1115.82,113.32c-1.09-1.93-2.61-3.22-4.78-3.92-3.4-1.09-6.38-.26-8.59,2.21-2.27,2.53-4.33,5.36-5.92,8.36-2.82,5.29-5.79,10.42-9.54,15.11-2.75,3.44-4.83,7.23-5.57,11.64-.33,1.99-.55,4-.88,6-.62,3.75-1.74,7.3-4.45,10.11-2.91,3.03-4.98,6.59-7.04,10.21-3.89,6.85-7.77,13.73-12,20.38-2.55,4-3.9,8.09-3.87,12.82,.03,4.64-.12,9.31-.56,13.93-1.12,11.7-7.69,20.17-16.64,27.08-1.59,1.23-3.43,2.04-5.49,2.16-.11,.48-.23,.96-.37,1.45-1.44,5.02-4.86,9.27-8.37,13.09-.77,2.36-1.61,4.69-2.71,6.93-2.14,4.34-5.5,7.75-9.53,10.16,1.04,1.71,2.22,3.36,3.55,4.97,5.92,7.13,9.83,15.49,12.82,24.27,.68,2.01,1.29,4.05,2.12,6,1.24,2.9,2.59,3.65,5.7,3.34,5.32-.52,9.59-2.87,12.82-7.19,3.05-4.06,4.76-8.71,5.85-13.55,1.62-7.22,3.9-14.2,6.45-21.13,2.58-7,5.96-13.72,7.41-21.14,.85-4.36,1.9-8.69,3.13-12.95,4.06-14.1,11.02-26.89,17.99-39.68,4.93-9.06,9.81-18.14,14.47-27.34,1.72-3.4,3.14-7.06,4-10.76,2.37-10.17,5.95-19.92,9.51-29.7,1.1-3.02,2.03-6.16,2.55-9.32,.77-4.67,.36-9.28-2.05-13.54Zm-3.98,16.03c-.46,3.09-1.05,6.15-3.01,8.71-.36,.47-1.03,.69-1.56,1.02-.06-.52-.15-1.04-.18-1.57-.11-2.49-.21-4.98-.3-7.46l1.14-4.77c3.44-.28,4.42,.73,3.91,4.07Z"/>
        <path class="cls-1" d="M1039.27,245.15c-.17-.44-.27-.88-.31-1.33-.28-.32-.48-.69-.62-1.09-.11-.23-.2-.48-.26-.74-.56-.21-.88-.87-.73-1.44-.99-.77-1.61-1.94-2.1-3.1-.25-.42-.44-.86-.58-1.33-.32-.63-.75-1.24-1.12-1.85-.35-.58-.69-1.18-1.02-1.78-1.86-2.68-3.44-5.53-4.59-8.66-3.56-9.67-7.08-19.35-10.85-28.94-1.66-4.22-3.68-8.33-5.87-12.3-4.17-7.53-8.05-15.18-11.06-23.26-2.22-5.97-4.29-12.02-6.94-17.79-2.4-5.21-5.2-10.3-8.39-15.08-2.7-4.05-5.36-8.04-7.44-12.46-1.22-2.59-3.03-5.06-5.07-7.08-3.36-3.33-7.77-4.46-12.35-3.67-5.17,.89-7.92,4.57-9.1,9.46-1.5,6.19-1.65,12.47-.15,18.63,4.54,18.61,10.48,36.72,19.87,53.56,4.39,7.87,7.96,16.1,11.04,24.58,2.2,6.07,4.67,12.07,7.51,17.86,5.2,10.59,9.03,21.61,11.64,33.08,2.03,8.9,5.67,17.04,11.06,24.39,3.01,4.11,5.43,8.49,7.15,13.3,1.99,5.54,4.59,10.81,8.13,15.54,1.05,1.41,2.62,2.46,4.04,3.54,.98,.74,2.03,.6,3.08-.13,.35-.24,.7-.48,1.05-.72-.65-1.71-1.13-3.49-1.45-5.33-1.8-2.57-3.17-5.41-3.93-8.15-1.92-6.97-.53-13.84,2.63-20.14h0c-.96-1.57-1.25-3.55-.98-5.52,.92-6.49,2.26-12.24,5.9-17.8,1.65-2.51,2.33-3.7,2.17-6.71-.12-2.28,.39-5.48-.4-7.55Zm-64.62-119.78c-1.99-2.75-3.62-5.17-3.62-5.17-2.72-5.17-4.06-6.52-3.54-7.08,.48-.52,2.05,.13,2.78,.54,2.46,1.38,4.2,3.49,4.99,6.24,.47,1.63,.79,3.32,1.07,5,.06,.38-.34,.84-.53,1.26-.39-.26-.9-.43-1.15-.79Zm16.09,27.53c-.67-.38-1.21-1.05-1.74-1.65-1.4-1.58-2.77-3.18-4.15-4.78-.27-.66-.54-1.32-.8-1.98,.15-1.37,.48-2.66,2.11-2.91,1.53-.23,2.58,.64,3.07,1.95,1.05,2.81,2.03,5.66,2.87,8.54,.29,1.01-.68,1.19-1.35,.81Zm16.53,38.77c-2.7-1.84-4.43-3.78-5.76-6.04-.88-1.48-.53-3.15,.56-3.8,1.26-.75,2.95-.19,3.78,1.44,1.25,2.47,1.82,5.09,1.43,8.4Z"/>
        <path class="cls-3" d="M969.09,118.81l-3.19-2.89c.59-2.91,1.89-3.66,4.37-2.26,2.46,1.38,4.2,3.49,4.99,6.24,.47,1.63,.79,3.32,1.07,5,.06,.38-.34,.84-.53,1.26-.39-.26-.9-.43-1.15-.79-1.23-1.7-2.34-3.5-3.62-5.17-.46-.6-1.28-.93-1.94-1.38Z"/>
        <path class="cls-3" d="M984.86,146.47l-.8-1.98c.15-1.37,.48-2.66,2.11-2.91,1.53-.23,2.58,.64,3.07,1.95,1.05,2.81,2.03,5.66,2.87,8.54,.29,1.01-.68,1.19-1.35,.81-.67-.38-1.21-1.05-1.74-1.65-1.4-1.58-2.77-3.18-4.15-4.78Z"/>
        <path class="cls-3" d="M1007.28,191.67c-2.7-1.84-4.43-3.78-5.77-6.04-.88-1.48-.53-3.15,.56-3.8,1.26-.75,2.95-.19,3.78,1.44,1.25,2.47,1.82,5.09,1.43,8.4Z"/>
        <path class="cls-22" d="M1100.54,154.96l-.17-5.39c.22-1.39,.39-2.8,.68-4.18,.25-1.2,1.12-1.64,2.27-1.41,1.09,.22,1.62,1.12,1.31,2.04-.98,2.93-2.14,5.81-3.27,8.69-.06,.16-.54,.17-.82,.24Z"/>
        <path class="cls-10" d="M1051.35,277.75c-.23-2.82-.45-5.64-.68-8.46,.57-.93,1.03-2.16,2.48-1.56,1.25,.51,1.45,1.72,1.17,2.82-.64,2.53-.47,5.43-2.97,7.19Z"/>
        <path class="cls-15" d="M1039.12,244.67c.6-3.12,1.2-6.23,1.8-9.35-2.04-3.35-4.99-8.53-7.94-15.15-3.64-8.15-3.86-10.14-7.96-21.31-2.62-7.12-5.47-14.13-9.13-20.81-2.67-4.87-5.13-9.88-7.29-14.99-2.99-7.08-5.61-14.31-8.4-21.47-2.89-7.4-6.63-14.29-11.63-20.51-1.69-2.1-2.88-4.61-4.22-6.98-1.44-2.55-2.56-5.31-4.22-7.7-4.94-7.12-12.12-9.6-20.42-8.68-7.18,.8-12.88,7.12-14.32,15.02-.31,1.7-.42,3.36-.83,5.05l.23,8.48c.28,1.69,.29,3.44,.73,5.09,1.76,6.53,3.71,13.02,5.49,19.55,3.2,11.76,7.84,22.92,13.65,33.63,5.1,9.41,9.8,19,13.3,29.17,1.93,5.61,4.44,11.06,7.07,16.39,5.4,10.91,9.72,22.21,12.5,34.05,2.09,8.89,5.69,17.02,11.15,24.33,2.63,3.52,4.57,7.36,5.91,11.54,1.39,4.37,3.14,8.58,5.45,12.53,.33-1.94,1.62-3.75,3.3-4.78-1.71-3.08-3.13-6.31-4.33-9.64-1.73-4.81-4.14-9.19-7.15-13.3-5.39-7.35-9.03-15.49-11.06-24.39-2.61-11.47-6.45-22.49-11.64-33.08-2.84-5.79-5.31-11.79-7.51-17.86-3.08-8.48-6.65-16.72-11.04-24.58-9.39-16.83-15.33-34.94-19.87-53.56-1.51-6.17-1.35-12.45,.15-18.63,1.18-4.89,3.93-8.57,9.1-9.46,4.59-.79,9,.34,12.35,3.67,2.04,2.02,3.85,4.49,5.07,7.08,2.08,4.43,4.74,8.41,7.44,12.46,3.18,4.77,5.99,9.86,8.39,15.08,2.66,5.77,4.72,11.82,6.94,17.79,3.01,8.08,6.9,15.73,11.06,23.26,2.2,3.97,4.22,8.08,5.87,12.3,3.97,10.1,6.34,17.73,10.85,28.94,1.13,2.81,2.2,5.31,3.87,8.29,1.18,2.09,1.94,3.15,3.75,6.23,1.57,2.66,2.77,4.88,3.54,6.33Z"/>
      </g>
    </g>
  </g>
</svg>