<?xml version="1.0" encoding="UTF-8"?>
<svg xmlns="http://www.w3.org/2000/svg" viewBox="0 0 420.43 420.43">
  <defs>
    <style>
      .cls-1 {
        fill: #fff;
      }

      .cls-2 {
        fill: #9d9d9c;
        stroke: #1d1d1b;
        stroke-miterlimit: 10;
        stroke-width: 10px;
      }
    </style>
  </defs>
  <g id="_лой_1" data-name="Слой 1"/>
  <g id="_лой_2" data-name="Слой 2">
    <g id="_лой_4" data-name="Слой 4">
      <rect class="cls-2" x="5" y="5" width="410.43" height="410.43" rx="32.75" ry="32.75"/>
    </g>
    <g id="_лой_3" data-name="Слой 3">
      <g>
        <path d="M110.67,286.88c-1.1,0-2.11-.08-3.09-.24-6.92-1.14-12.38-4.89-15.79-10.84-6.24-10.88-10.92-22.63-13.91-34.9-1.3-5.36-2.29-10.84-2.94-16.29-.41-3.46-.67-6.86-.78-10.11-.13-.49-.2-1-.2-1.51v-7.47c0-.56,.08-1.12,.24-1.65,.02-.4,.04-.8,.06-1.2,.07-1.4,.15-2.81,.26-4.21,.18-2.28,.35-4.33,.66-6.45,.48-3.25,1.02-6.43,1.61-9.46,1.13-5.82,2.75-11.69,4.96-17.93,4.13-11.64,9.83-22.64,16.95-32.7,5.01-7.09,10.75-13.72,17.06-19.72,5.06-4.8,10.51-9.23,16.21-13.15,9.4-6.47,19.64-11.72,30.44-15.61,9.22-3.33,18.71-5.64,28.2-6.87,4.46-.58,8.18-.83,10-.93,2.39-.13,4.81-.2,7.2-.2s4.78,.07,7.15,.19c.7,.04,1.67,.09,2.82,.18,1.24,.09,4.51,.35,8.1,.83,4.11,.55,8.29,1.33,12.78,2.39,11.07,2.62,21.78,6.64,31.83,11.96,12.81,6.78,24.35,15.5,34.3,25.93,3.96,4.15,7.66,8.55,10.99,13.09,7.8,10.62,14,22.4,18.43,35,.68,1.94,1.09,3.73,1.24,5.48,.1,1.13,.12,2.35,.08,3.72-.05,1.53-.22,2.92-.52,4.26-.74,3.32-2.09,6.26-4,8.76-1.82,2.38-3.73,4.77-5.84,7.3-1.45,1.75-2.97,3.41-4.53,5.09-1.49,1.61-3.08,3.32-4.78,4.99-2.07,2.03-4.2,4.02-6.25,5.95l-.43,.4c-1.45,1.36-3.02,2.81-4.65,4.23-1.82,1.58-3.69,3.12-5.46,4.57-1.89,1.55-3.92,3.2-6.02,4.84-1.49,1.16-3,2.29-4.52,3.42l-1.33,.99c-.47,.35-.95,.69-1.46,1.05l-.67,.47c-.98,.7-2.14,1.06-3.3,1.06-.88,0-1.77-.21-2.59-.63-1.89-.97-3.08-2.92-3.08-5.04v-69.14c0-2.8,0-5.6-.01-8.39,0-.09-.06-.41-.1-.65-.04-.26-.09-.52-.13-.79,0-.04-.06-.29-.53-1.04l-.21-.33c-.08-.13-.16-.27-.25-.4-.17-.14-.35-.28-.52-.42-.25-.2-.49-.41-.75-.59-.59-.41-1.33-.66-2.33-.78-.18-.02-.37-.05-.55-.08l-.1-.02c-2.88,0-5.76,0-8.64,0s-5.92,0-8.89,0c0,0-1.01,.15-1.23,.18-.21,.03-.42,.05-.62,.1-1.11,.3-1.95,.89-2.64,1.86-.81,1.14-.9,1.84-.89,2.27,0,.22,0,.44-.03,.66-.02,.16-.07,.61-.07,.61-.01,31.31-.02,62.61-.03,93.91v.69c0,.48-.06,.96-.18,1.42l-.09,.33c-.03,.12-.07,.24-.09,.35-1,4.51-3.75,8-7.96,10.08-.83,.41-1.64,.74-2.36,1.03l-2.36,.97c-.72,.3-1.44,.59-2.16,.89-.57,.24-1.13,.49-1.69,.74l-.76,.33c-.73,.32-1.5,.48-2.28,.48s-1.61-.17-2.36-.51c-1.93-.88-3.97-3.09-3.55-6.47-.01-10.64-.01-21.29-.01-31.94v-8.97c0-12.08,0-24.16,0-36.23,0,0-.05-.35-.07-.5l-.05-.4c-.02-.15-.03-.31-.06-.46-.08-.46-.22-.85-.42-1.2-.14-.24-.39-.58-.65-.94-.09-.12-.18-.24-.27-.37-.26-.2-.61-.47-.98-.82-1.08-.57-2.08-.84-3.11-.84h-.12c-1.65,.04-3.31,.04-4.96,.04,0,0-2.13,0-2.14,0-.1,0-.19,0-.29,0l-.48-.03h-6c-1.28,0-2.56,0-3.84,0-1.71,.01-2.93,.63-4.08,2.08-.46,.58-1.07,1.57-1.07,3.59,0,26.94,0,53.89,0,80.83,0,1.14-.01,2.28-.02,3.43v1.53c-.02,.54-.1,1.08-.26,1.6l-.09,.29c-.69,3.16-2.42,5.97-5.02,8.13-1.11,.92-2.65,2.05-4.75,2.59-1.51,.39-3.01,.79-4.52,1.19-.88,.24-1.76,.48-2.64,.73l-1.27,.35c-.5,.14-1,.2-1.51,.2-1.13,0-2.25-.34-3.2-.99-1.38-.94-2.27-2.45-2.44-4.11l-.03-.21c-.05-.35-.11-.89-.11-1.52v-22.39c0-14.93,0-29.85-.02-44.78,0-.48-.06-.98-.16-1.45-.49-2.16-2.58-3.87-4.75-3.89-4.33-.04-8.67-.05-13-.05h-5.59c-.21,0-.57,.03-1.1,.16-2.54,.61-3.91,3.09-3.9,5.11,.04,17.24,.03,34.77,.03,51.72v15.02c0,1-.08,1.94-.13,2.56-.54,6.42-5.49,11.87-11.77,12.97-1.99,.35-3.94,.55-5.83,.74-.67,.07-1.33,.14-2,.21-1.19,.13-2.38,.25-3.57,.37l-1.29,.13c-1.1,.11-2.3,.21-3.55,.21Z"/>
        <path class="cls-1" d="M214.64,81.31c.68,.04,1.61,.09,2.72,.17,.91,.07,4.18,.32,7.77,.8,4.11,.55,8.18,1.33,12.22,2.28,10.65,2.52,20.81,6.34,30.48,11.45,12.29,6.5,23.25,14.77,32.85,24.83,3.77,3.95,7.29,8.13,10.52,12.53,7.56,10.29,13.42,21.48,17.65,33.53,.47,1.33,.82,2.7,.94,4.09,.09,1,.09,2.01,.06,3.03-.04,1.09-.15,2.15-.39,3.21-.53,2.39-1.48,4.61-2.97,6.55-1.85,2.41-3.75,4.78-5.7,7.12-1.39,1.67-2.86,3.27-4.33,4.87-1.5,1.62-3.01,3.24-4.59,4.79-2.16,2.12-4.37,4.19-6.58,6.25-1.48,1.38-2.96,2.76-4.49,4.09-1.75,1.52-3.54,2.99-5.33,4.46-1.96,1.6-3.92,3.2-5.91,4.76-1.89,1.48-3.83,2.9-5.75,4.34-.64,.48-1.3,.94-2.03,1.46v-66.19c0-3.79,.02-7.59-.01-11.38,0-.73-.18-1.47-.29-2.2-.17-1.2-.71-2.25-1.34-3.25-.45-.72-.87-1.49-1.57-2.03-.58-.45-1.13-.94-1.73-1.36-1.46-1.01-3.12-1.53-4.87-1.74-.38-.05-.77-.13-1.15-.13-5.96,0-11.92,0-17.88,0-.41,0-.82,.09-1.23,.15-.64,.11-1.3,.16-1.93,.33-2.4,.65-4.34,2.03-5.77,4.03-1.19,1.67-1.98,3.53-1.95,5.64-.04,.35-.1,.7-.1,1.06-.01,31.58-.02,63.15-.02,94.73-.08,.29-.16,.58-.22,.87-.64,2.88-2.32,4.93-4.94,6.23-.88,.43-1.8,.78-2.7,1.15-1.29,.54-2.58,1.06-3.86,1.6-.85,.36-1.69,.74-2.53,1.11-.48-.22-.24-.64-.24-.96-.01-12.04-.01-24.07-.01-36.11,0-13.86,0-27.71,0-41.57,0-.32-.07-.64-.1-.97-.05-.41-.08-.81-.16-1.22-.19-1.07-.55-2.09-1.1-3.04-.43-.75-.98-1.41-1.47-2.11-.48-.69-1.28-.97-1.73-1.63-2.13-1.32-4.41-2.09-6.95-2.04-2.33,.05-4.66,.03-6.98,.04-.24-.01-.48-.04-.72-.04-3.31,0-6.61-.02-9.92,0-3.5,.02-6.31,1.5-8.47,4.22-1.65,2.07-2.3,4.49-2.3,7.12,0,26.94,0,53.89,0,80.83,0,1.64-.02,3.27-.03,4.91-.06,.2-.14,.4-.18,.6-.42,2.08-1.52,3.76-3.13,5.1-.75,.62-1.56,1.21-2.54,1.46-1.53,.39-3.05,.8-4.58,1.21-1.32,.35-2.63,.73-3.94,1.09-.04-.39-.11-.77-.11-1.16,0-22.39,0-44.79-.02-67.18,0-.9-.1-1.82-.3-2.7-1.07-4.7-5.41-8.26-10.22-8.31-6.22-.06-12.44-.06-18.66-.05-.81,0-1.63,.12-2.42,.31-5.19,1.25-8.26,6.04-8.25,10.63,.05,22.24,.03,44.48,.02,66.72,0,.69-.04,1.39-.1,2.08-.31,3.72-3.21,7.18-7.1,7.86-2.47,.43-4.98,.62-7.48,.9-1.59,.18-3.19,.33-4.79,.49-1.72,.17-3.45,.3-5.16,.02-5.18-.85-9.17-3.5-11.79-8.07-6.03-10.51-10.46-21.65-13.32-33.42-1.25-5.15-2.19-10.36-2.81-15.62-.41-3.49-.68-6.99-.77-10.51,0-.15-.11-.3-.18-.45v-7.47c.06-.09,.17-.17,.17-.26,.13-2.12,.21-4.23,.38-6.35,.16-2.02,.32-4.05,.62-6.05,.46-3.08,.98-6.16,1.57-9.21,1.13-5.83,2.76-11.52,4.74-17.11,3.97-11.19,9.38-21.63,16.23-31.33,4.83-6.83,10.27-13.12,16.34-18.88,4.85-4.6,10.01-8.8,15.52-12.59,9.07-6.24,18.79-11.22,29.14-14.95,8.76-3.16,17.76-5.38,27-6.58,4.44-.58,8.07-.81,9.58-.89,5.37-.29,10.02-.2,13.73,0Z"/>
        <path d="M205.39,342.9c-1.23,0-2.33-.02-3.56-.07-.11,0-2.76-.11-6.02-.4-1.79-.16-3.01-.32-3.47-.37-1.14-.14-2.24-.33-3.35-.51-.47-.08-.94-.16-1.42-.23-.39-.06-.79-.12-1.19-.18-.85-.12-1.7-.25-2.55-.4-1.47-.27-3.22-.6-5.03-1-1.8-.41-3.56-.86-5.19-1.29-1.25-.33-2.46-.7-3.63-1.05l-1.21-.36c-1.3-.39-2.64-.79-4.01-1.27-2.6-.92-5.14-1.87-7.53-2.82-3.77-1.5-7.68-3.34-12.33-5.81-2.09-1.11-4.09-2.32-6.02-3.49l-1.32-.8c-1.6-.96-3.13-1.96-4.41-2.81-.91-.6-1.8-1.23-2.69-1.86l-.8-.56c-.68-.48-1.1-.98-1.28-1.2-1.41-1.55-1.83-3.73-1.13-5.7,.7-1.97,2.45-3.38,4.52-3.68l1.26-.18c.89-.13,1.76-.26,2.62-.4,.69-.11,1.37-.23,2.04-.35,.67-.12,1.34-.23,2.01-.34,.63-.1,1.25-.19,1.88-.29,.64-.09,1.28-.19,1.92-.3,1.04-.17,2.07-.37,3.11-.57,1.18-.23,2.35-.46,3.52-.69l5.55-1.1,9.33-2.08c.9-.2,1.79-.4,2.69-.61,.3-.13,.6-.23,.92-.31l1.42-.34c.94-.23,1.88-.45,2.82-.71l1.91-.51c3.09-.83,6.29-1.69,9.39-2.58,5.67-1.63,11.48-3.5,17.26-5.53,2.87-1.02,5.75-2.09,8.68-3.19,3.34-1.26,6.09-2.31,8.64-3.32,.76-.3,1.51-.64,2.25-.97,.56-.25,1.12-.5,1.68-.75,.85-.36,1.7-.72,2.55-1.08,.76-.32,1.53-.64,2.29-.96,.4-.17,.78-.36,1.17-.54l1.21-.57c1.02-.48,2.04-.96,3.05-1.45,0,0,4.08-1.97,4.99-2.41,.47-.22,.94-.44,1.42-.66,.67-.3,1.33-.61,1.99-.94,2.61-1.35,4.92-2.57,7.06-3.73,2.51-1.37,4.97-2.71,7.38-4.12,2.93-1.72,5.86-3.53,8.07-4.92,3.13-1.96,5.49-3.47,7.64-4.91,2.08-1.39,4.19-2.89,6.23-4.34l.65-.46c1.09-.78,2.17-1.58,3.24-2.38l1.38-1.03c1.04-.78,2.09-1.55,3.11-2.35,.58-.45,1.14-.93,1.7-1.4,.44-.37,.89-.74,1.34-1.11,.44-.36,.88-.71,1.33-1.06,.46-.36,.92-.72,1.37-1.09,.21-.18,.42-.37,.63-.56,.3-.28,.6-.55,.91-.82,.48-.41,.98-.82,1.48-1.22l.53-.43,.82-.77c.56-.53,1.13-1.06,1.7-1.59l.49-.46c.55-.52,1.17-1.1,1.88-1.67,.48-.39,1.01-.93,1.58-1.5,.66-.68,1.42-1.44,2.3-2.18,.83-.7,1.67-1.54,2.54-2.43,.29-.29,.58-.59,.88-.88,1.02-1.01,2-2.06,3.05-3.17l.85-.9c.63-.66,1.25-1.33,1.85-2.02,.58-.67,1.15-1.34,1.72-2.02,.47-.55,.93-1.1,1.41-1.65,.27-.32,.55-.63,.84-.94,.25-.27,.5-.55,.73-.83,.59-.7,1.16-1.41,1.73-2.11l.48-.59c.54-.66,1.07-1.32,1.59-1.98l.81-1.02c.65-.81,1.3-1.62,1.93-2.45,1.49-1.98,2.95-3.98,4.4-5.98,.28-.39,.54-.79,.8-1.18,.24-.36,.47-.72,.71-1.08,.24-.35,.51-.69,.78-1.02l.16-.2c.98-1.23,2.42-2,3.98-2.12,.15-.01,.31-.02,.46-.02,1.4,0,2.76,.52,3.81,1.47,1.04,.95,2.22,2.62,2.04,5.25,.06,.92,.1,1.83,.15,2.75l.06,1.15c0,.1,0,.19,0,.29v7.27c0,.08-.01,.51-.01,.51l-.08,1.83c-.04,1.04-.09,2.07-.16,3.11-.09,1.44-.22,2.89-.38,4.28-.09,.84-.21,1.68-.33,2.51-.07,.47-.14,.94-.2,1.41-.06,.45-.11,.9-.16,1.34-.07,.6-.14,1.21-.22,1.8-.14,1.01-.28,1.89-.44,2.7-.21,1.09-.45,2.17-.68,3.26l-.39,1.84c-.31,1.48-.64,3.01-1.02,4.55-1.12,4.47-2.36,8.5-3.77,12.32-.75,2.03-1.56,4.04-2.35,5.98l-.51,1.26c-1.21,3.02-2.68,6.12-4.76,10.04-2,3.79-3.76,6.81-5.55,9.5l-.53,.79c-.96,1.45-1.95,2.95-3,4.43-1.27,1.79-2.57,3.5-3.79,5.09-.96,1.25-1.95,2.48-2.94,3.71l-.56,.69c-.45,.55-.91,1.08-1.39,1.61l-.36,.4c-.61,.68-1.21,1.35-1.85,2.01l-1.23,1.28c-1.42,1.49-2.89,3.02-4.42,4.52-1.33,1.29-2.69,2.48-4.01,3.62l-.99,.86c-1.2,1.05-2.56,2.24-3.98,3.38-1.85,1.48-3.39,2.66-4.83,3.69-2.52,1.8-4.62,3.24-6.6,4.52-1.48,.96-2.97,1.84-4.41,2.7-.58,.34-1.16,.69-1.74,1.04-2.5,1.51-5.05,2.76-7.52,3.97-.69,.34-1.38,.67-2.06,1.02-1.53,.77-3.05,1.37-4.51,1.96l-.92,.37c-1.82,.74-3.88,1.58-5.96,2.33-4.59,1.67-9.61,3.15-15.34,4.5-1.38,.33-2.73,.57-4.03,.8-.45,.08-.9,.16-1.35,.24l-2.3,.43c-1.83,.34-2.67,.5-3.79,.67-1.59,.24-3.2,.44-4.81,.6-2.48,.24-4.38,.33-6.23,.41-2.05,.09-3.56,.12-5.02,.15-2.12,.04-3.64,.07-5.05,.07Z"/>
        <path class="cls-1" d="M156.83,308.37c3.13-.7,6.27-1.4,9.4-2.1,1.17-.26,2.35-.53,3.52-.8,.08-.02,.14-.1,.21-.15,1.45-.36,2.91-.69,4.35-1.08,3.8-1.02,7.61-2.03,11.39-3.12,5.91-1.7,11.77-3.59,17.57-5.64,2.94-1.04,5.87-2.13,8.79-3.23,2.92-1.1,5.83-2.21,8.73-3.35,1.38-.55,2.72-1.2,4.08-1.78,1.61-.69,3.23-1.35,4.84-2.03,.63-.27,1.24-.57,1.86-.86,1.26-.6,2.53-1.19,3.79-1.8,1.66-.8,3.32-1.61,4.98-2.4,1.18-.56,2.39-1.08,3.55-1.68,2.4-1.24,4.8-2.5,7.18-3.79,2.53-1.38,5.05-2.76,7.54-4.21,2.76-1.62,5.49-3.3,8.21-5,2.62-1.64,5.22-3.29,7.79-5.01,2.37-1.58,4.69-3.24,7.02-4.9,1.41-1,2.78-2.04,4.17-3.07,1.26-.94,2.54-1.88,3.78-2.85,1.06-.83,2.07-1.72,3.11-2.56,.9-.73,1.83-1.43,2.73-2.17,.55-.46,1.06-.97,1.61-1.44,.66-.56,1.34-1.1,2.01-1.65,.07-.06,.14-.12,.2-.18,.83-.78,1.67-1.57,2.51-2.34,.68-.63,1.35-1.29,2.07-1.88,1.42-1.14,2.56-2.58,3.95-3.74,1.35-1.13,2.55-2.41,3.79-3.64,1.37-1.36,2.69-2.78,4.02-4.19,.68-.72,1.36-1.45,2.01-2.2,1.06-1.22,2.09-2.47,3.15-3.69,.53-.62,1.09-1.2,1.61-1.82,.77-.91,1.51-1.84,2.27-2.77,.55-.67,1.09-1.35,1.63-2.02,.95-1.19,1.92-2.38,2.84-3.59,1.51-2.01,2.99-4.03,4.46-6.06,.56-.77,1.06-1.59,1.6-2.38,.21-.31,.47-.6,.7-.89,.35,.31,.15,.73,.18,1.09,.09,1.38,.15,2.77,.22,4.15v7.27c0,.27-.02,.54-.03,.82-.07,1.42-.11,2.83-.2,4.25-.09,1.35-.21,2.69-.36,4.03-.14,1.28-.35,2.55-.52,3.82-.14,1.04-.24,2.08-.38,3.12-.11,.8-.23,1.6-.39,2.39-.21,1.11-.46,2.22-.7,3.32-.44,2.01-.83,4.03-1.33,6.02-1,3.97-2.17,7.89-3.59,11.72-.88,2.38-1.85,4.74-2.8,7.1-1.31,3.26-2.87,6.41-4.51,9.51-1.63,3.08-3.34,6.11-5.26,9.02-1.13,1.7-2.24,3.41-3.42,5.08-1.18,1.67-2.41,3.29-3.66,4.91-1.12,1.45-2.27,2.88-3.42,4.31-.38,.47-.78,.92-1.18,1.37-.69,.76-1.37,1.53-2.08,2.27-1.83,1.9-3.63,3.83-5.52,5.66-1.53,1.49-3.17,2.88-4.78,4.29-1.25,1.09-2.5,2.18-3.79,3.22-1.5,1.2-3.02,2.38-4.59,3.5-2.1,1.5-4.22,2.97-6.38,4.37-1.96,1.27-3.99,2.43-5.99,3.63-2.96,1.78-6.1,3.23-9.19,4.77-1.63,.81-3.34,1.46-5.03,2.15-1.91,.78-3.82,1.55-5.76,2.26-4.81,1.75-9.73,3.13-14.71,4.31-1.69,.4-3.4,.67-5.11,.98-3.58,.67-4.52,.86-5.9,1.07-1.88,.28-3.45,.46-4.52,.56-2.28,.22-3.99,.3-5.92,.39-1.99,.09-3.46,.12-4.88,.15-3.68,.07-5.59,.11-8.28,0,0,0-2.58-.1-5.74-.38-1.72-.15-2.86-.3-3.29-.35-1.53-.19-3.05-.47-4.57-.71-1.2-.19-2.41-.34-3.6-.56-1.6-.29-3.21-.6-4.8-.96-1.67-.38-3.34-.8-5-1.24-1.17-.31-2.33-.66-3.5-1.01-1.64-.5-3.3-.96-4.92-1.53-2.46-.87-4.91-1.78-7.33-2.75-4.03-1.6-7.93-3.51-11.76-5.55-2.41-1.28-4.73-2.73-7.07-4.14-1.42-.86-2.82-1.76-4.2-2.68-1.14-.75-2.25-1.55-3.36-2.34-.09-.07-.16-.17-.31-.34,1.37-.2,2.66-.38,3.94-.59,1.36-.22,2.71-.47,4.06-.69,1.27-.21,2.55-.38,3.82-.59,1.09-.18,2.18-.38,3.26-.59,1.73-.33,3.46-.68,5.19-1.02,1.32-.26,2.64-.52,3.97-.78Z"/>
      </g>
    </g>
  </g>
</svg>