<?xml version="1.0" encoding="UTF-8"?>
<svg xmlns="http://www.w3.org/2000/svg" viewBox="0 0 1001.86 301.31">
  <defs>
    <style>
      .cls-1 {
        fill: #fff;
      }

      .cls-2 {
        fill: #14100f;
      }

      .cls-3 {
        fill: #171012;
      }

      .cls-4 {
        fill: #151010;
      }

      .cls-5 {
        fill: #14100e;
      }

      .cls-6 {
        fill: #14110e;
      }

      .cls-7 {
        fill: #191015;
      }

      .cls-8 {
        fill: #12100d;
      }

      .cls-9 {
        fill: #13100d;
      }

      .cls-10 {
        fill: #16110f;
      }

      .cls-11 {
        fill: #13100e;
      }
    </style>
  </defs>
  <g id="_лой_1" data-name="Слой 1"/>
  <g id="_лой_2" data-name="Слой 2">
    <g id="_лой_6" data-name="Слой 6">
      <g>
        <g>
          <path class="cls-8" d="M196.04,269.34c.57,3.15,.17,4.99,.17,8.13,.09,.45-.07,1.35-.26,1.57-2.29,10.45-9.65,16.68-20.35,20.04-1.96,.61-4.16,.85-6.24,.85-4.46-.01-8.92-.22-13.37-.5-1.36-.08-2.8-.48-4-1.06-9.42-4.52-14.14-11.94-15.09-21.31-1.22-11.95-1.29-23.92,.76-35.82,1.57-9.18,1.46-18.34,.27-27.52-1.1-8.5-2.26-17-3.21-25.5-.5-4.58-.6-9.2-.88-13.79-.21-3.44-1.47-6.45-4.31-8.84-1.61-1.35-3.42-1.95-5.56-1.62-1.29,.2-2.56,.52-3.85,.77-4.86,.92-8.36,3.23-10.6,7.42-1.49,2.77-3.81,5.18-5.7,7.79-.89,1.21-1.68,2.5-2.46,3.78-1.87,3.05-3.57,6.2-5.61,9.14-3.2,4.59-7.65,7.87-13.57,9.13-7.3,1.55-11.71,5.74-13.3,12.2-1.44,5.82-2.62,11.72-3.47,17.63-1.17,8.22-2.11,16.46-2.8,24.72-.57,6.79-.65,13.62-.91,20.43-.23,6.19-2.44,11.9-5.08,17.5-1.18,2.52-3.55,3.98-6.35,4.78-7.1,2.05-14.33,2.39-21.59,.94-3.05-.61-6.09-1.42-8.97-2.48-2.26-.82-4.78-1.67-5.24-4.42-.06-.29-.51-.55-.82-.78-4.21-3.27-5.72-7.64-6.41-12.42-1.08-7.38-.62-14.69,.37-22.03,.77-5.67,1.37-11.34,2.1-17.02,1.19-9.24-.09-18.4-1.39-27.52-1.26-8.84-3.36-17.6-4.25-26.47-1.22-12-2.17-24.05-1.09-36.14,1.54-17.12,3.76-19.21,5.07-34.17,1.32-14.91-2.13-39.79-2.13-39.79-1.01-7.1-3.61-25.54-5.25-47.16C.22,24.37-1.16,4.25,6.06,1.75c1.54-.53,5.32-.91,9.1-1.28,3.79-.36,4.92-.24,5.95,0,2.17,.52,3.22,1.44,6.31,3.51,3.76,2.53,5.5,3.36,6.64,4.14,7.26,4.92,11.44,19.62,11.44,19.62,4.94,35.6,7.74,71.27,5.84,94.37-.41,4.95-.36,9.93-.9,14.87-.39,3.56-.29,7.17-.22,10.75,.02,1.21,.58,2.43,1.06,4.28,1.37-2.21,2.37-3.79,3.34-5.39,2.8-4.62,5.76-9.07,10.48-12.37,2.95-2.06,6.1-3.63,9.78-4.19,2.47-.37,4.64-1.27,6.52-2.74,5.36-4.23,10.94-8.24,16.03-12.71,9.12-8,19.7-13.49,31.95-16.23,7.69-1.73,15.52-2.82,23.47-1.54,2.26,.36,4.47,1.1,6.7,1.7,3.48,.94,6.92,2,10.43,2.83,4.07,.96,7.49,2.8,10.07,5.81,6.3,7.37,10.96,15.46,12.66,24.75,.39,2.07,.33,4.23,.31,6.33-.12,9.59-.19,19.16-.51,28.74-.39,11.6-.97,23.18-1.56,34.77-.52,10.15-.17,20.27,.89,30.36,.89,8.41,2.21,16.8,3.24,25.2,.4,3.29,.55,6.6,.86,9.91,.06,.54,.12,1.5,.09,2.1Zm-7.18,10.59c1.05-3.81,1.2-7.8,.89-11.75-.14-1.83-.33-3.65-.45-5.48-.25-3.66-.41-7.33-.69-10.99-.14-1.92-.02-4-.82-5.69-1.76-3.72-1.56-7.52-1.58-11.38-.02-3.22,.11-6.46-.07-9.67-.21-3.84-.82-7.66-.98-11.49-.11-2.55,.33-5.13,.4-7.69,.26-9.19,.46-18.39,.66-27.58,.07-3.68,.02-7.37,.11-11.05,.07-2.39,.47-4.76,.41-7.14-.09-3.66-.45-7.33-.68-10.99,.14-.01,.28-.02,.42-.02-.27-3.85-.54-7.69-.81-11.53-.71-9.87-5.2-18.35-11.74-26.03-1.85-2.18-4.25-3.55-7.31-4.08-2.35-.41-4.64-1.18-6.95-1.83-.96-.27-1.9-.62-2.83-.96-3.87-1.43-7.87-2.1-12.05-1.67-4.5,.47-9.11,.5-13.49,1.42-11.24,2.38-20.95,7.4-29.33,14.66-4.76,4.11-9.81,7.93-14.84,11.77-3.18,2.43-6.6,4.47-10.88,5.11-4.36,.66-7.84,2.86-10.45,6.06-2.21,2.72-4.27,5.56-6.27,8.41-1.57,2.26-3.01,4.58-5.7,5.94-3.07,1.55-5.88,1.03-7.39-1.84-1.22-2.27-2.32-4.8-2.46-7.26-.25-4.48,.21-8.98,.43-13.47,.17-3.21,.51-6.4,.6-9.62,.03-1.44-.43-2.9-.51-4.35-.18-3.13-1.25-6.01-3.4-8.37-3.04-3.34-6.51-6.36-10.66-8.54-3.34-1.76-6.77-1.57-9.05,1.05-1.36,1.56-2.72,3.21-3.63,5-2.17,4.27-2.84,8.94-3.67,13.53-.78,4.42-1.37,8.87-1.96,13.32-.61,4.63-1.46,9.26-1.63,13.91-.33,9.73-.33,19.48,1.05,29.18,.59,4.18,.84,8.39,1.44,12.57,1.27,8.89,2.99,17.72,3.96,26.62,.77,7.14-.03,14.3-1.28,21.39-1,5.69-2.15,11.38-2.65,17.1-.57,6.4-.68,12.85-.62,19.28,.02,2.88,.79,5.79,1.48,8.63,.87,3.6,4.12,5.55,7.02,7.66,.56,.41,1.52,.41,2.31,.49,4.19,.48,8.41,.84,12.58,1.42,3.97,.55,7.79,.24,11.66-.68,1.98-.47,3.41-1.42,3.99-3.03,1.28-3.55,2.61-7.13,3.32-10.79,.64-3.32,.49-6.76,.7-10.14,.41-6.88,.8-13.74,1.26-20.62,.12-1.92,.39-3.83,.65-5.74,.75-5.35,1.52-10.7,2.31-16.04,.76-5.15,1.33-10.33,3-15.35,2.46-7.44,7.21-12.82,15.59-15.19,4.15-1.17,7.96-2.91,10.39-6.28,2.1-2.91,3.76-6.07,5.65-9.09,1.24-1.98,2.45-3.99,3.84-5.88,2.12-2.9,4.56-5.61,6.54-8.56,2.39-3.54,5.53-6.07,9.88-7.27,2.4-.67,4.85-1.15,7.28-1.72,6.19-1.43,10.74,.91,14.58,5.1,3.14,3.43,4.2,7.43,4.24,11.76,.02,2.39-.16,4.8,.1,7.18,.66,5.91,1.62,11.79,2.27,17.71,.7,6.37,1.29,12.77,1.78,19.16,.6,7.91-.01,15.79-1.26,23.62-.97,6-1.74,11.99-1.63,18.05,.09,4.5,.37,9,.49,13.49,.12,4.69,1.59,9.03,3.87,13.17,.57,1.04,1.47,2,2.46,2.74,1.71,1.28,3.63,2.31,5.41,3.53,1.28,.88,2.68,1.22,4.26,1.13,2.51-.17,5.13-.74,7.51-.31,3.63,.64,6.83-.21,9.97-1.41,6.35-2.42,11.23-6.32,12.97-12.58Z"/>
          <path class="cls-1" d="M189.75,268.18c.31,3.96,.16,7.94-.89,11.75-1.74,6.26-6.61,10.16-12.97,12.58-3.13,1.2-6.33,2.05-9.97,1.41-2.39-.43-5.01,.15-7.51,.31-1.58,.09-2.98-.25-4.26-1.13-1.77-1.21-3.7-2.25-5.41-3.53-.99-.74-1.9-1.71-2.46-2.74-2.27-4.13-3.75-8.48-3.87-13.17-.12-4.49-.4-8.99-.49-13.49-.11-6.06,.66-12.06,1.63-18.05,1.25-7.83,1.86-15.71,1.26-23.62-.49-6.39-1.08-12.79-1.78-19.16-.66-5.91-1.62-11.79-2.27-17.71-.26-2.38-.08-4.79-.1-7.18-.03-4.33-1.09-8.33-4.24-11.76-3.85-4.19-8.39-6.53-14.58-5.1-2.43,.57-4.88,1.05-7.28,1.72-4.35,1.2-7.49,3.74-9.88,7.27-1.98,2.95-4.43,5.66-6.54,8.56-1.38,1.89-2.6,3.9-3.84,5.88-1.9,3.02-3.56,6.19-5.65,9.09-2.43,3.37-6.24,5.11-10.39,6.28-8.37,2.37-13.12,7.74-15.59,15.19-1.67,5.02-2.24,10.2-3,15.35-.79,5.35-1.56,10.7-2.31,16.04-.26,1.9-.52,3.82-.65,5.74-.46,6.88-.85,13.74-1.26,20.62-.21,3.38-.07,6.82-.7,10.14-.71,3.66-2.04,7.24-3.32,10.79-.58,1.61-2.01,2.56-3.99,3.03-3.87,.92-7.69,1.23-11.66,.68-4.17-.59-8.38-.94-12.58-1.42-.79-.08-1.75-.08-2.31-.49-2.9-2.11-6.15-4.06-7.02-7.66-.69-2.85-1.46-5.76-1.48-8.63-.06-6.43,.06-12.87,.62-19.28,.5-5.72,1.65-11.41,2.65-17.1,1.25-7.1,2.05-14.25,1.28-21.39-.97-8.91-2.69-17.74-3.96-26.62-.6-4.18-.85-8.39-1.44-12.57-1.38-9.7-1.38-19.44-1.05-29.18,.17-4.65,1.01-9.28,1.63-13.91,.59-4.45,1.18-8.91,1.96-13.32,.82-4.59,1.49-9.26,3.67-13.53,.91-1.79,2.27-3.44,3.63-5,2.29-2.62,5.71-2.8,9.05-1.05,4.15,2.18,7.61,5.2,10.66,8.54,2.15,2.37,3.22,5.24,3.4,8.37,.08,1.45,.55,2.91,.51,4.35-.09,3.21-.43,6.4-.6,9.62-.22,4.49-.68,8.99-.43,13.47,.14,2.46,1.25,4.99,2.46,7.26,1.52,2.87,4.33,3.39,7.39,1.84,2.69-1.36,4.12-3.68,5.7-5.94,2-2.86,4.06-5.69,6.27-8.41,2.61-3.2,6.09-5.4,10.45-6.06,4.28-.64,7.7-2.68,10.88-5.11,5.03-3.84,10.08-7.66,14.84-11.77,8.38-7.26,18.09-12.29,29.33-14.66,4.38-.92,8.99-.95,13.49-1.42,4.18-.43,8.18,.24,12.05,1.67,.94,.35,1.87,.69,2.83,.96,2.31,.65,4.59,1.42,6.95,1.83,3.07,.53,5.46,1.9,7.31,4.08,6.54,7.68,11.03,16.16,11.74,26.03,.28,3.84,.55,7.68,.81,11.53-.14,0-.28,.01-.42,.02,.23,3.66,.59,7.33,.68,10.99,.06,2.38-.35,4.75-.41,7.14-.09,3.68-.04,7.37-.11,11.05-.2,9.19-.4,18.39-.66,27.58-.07,2.56-.51,5.14-.4,7.69,.16,3.83,.77,7.65,.98,11.49,.18,3.21,.04,6.45,.07,9.67,.02,3.85-.18,7.66,1.58,11.38,.8,1.7,.68,3.78,.82,5.69,.28,3.66,.45,7.33,.69,10.99,.11,1.83,.3,3.65,.45,5.48Z"/>
        </g>
        <path class="cls-1" d="M186.74,160.02c.06,2.37-.34,4.75-.41,7.13-.1,3.68-.04,7.37-.12,11.05-.19,9.19-.4,18.39-.65,27.58-.07,2.56-.52,5.13-.41,7.68,.16,3.84,.77,7.66,.98,11.49,.18,3.22,.05,6.45,.06,9.67,.02,3.85-.17,7.67,1.59,11.38,.8,1.69,.67,3.77,.82,5.69,.28,3.66,.45,7.33,.69,10.99,.12,1.83,.31,3.65,.45,5.48,.31,3.96,.15,7.95-.9,11.76-1.73,6.26-6.61,10.16-12.96,12.58-3.14,1.2-6.33,2.05-9.96,1.41-2.39-.43-5.01,.15-7.52,.31-1.58,.1-2.97-.25-4.25-1.13-1.77-1.21-3.7-2.25-5.41-3.53-.99-.74-1.89-1.71-2.46-2.74-2.28-4.13-3.75-8.48-3.88-13.16-.12-4.5-.4-8.99-.49-13.49-.11-6.06,.66-12.06,1.62-18.06,1.26-7.83,1.87-15.71,1.26-23.62-.49-6.4-1.08-12.79-1.79-19.16-.66-5.91-1.61-11.79-2.26-17.71-.26-2.37-.08-4.79-.1-7.18-.04-4.33-1.09-8.33-4.24-11.76-3.84-4.19-8.39-6.54-14.58-5.09-2.43,.57-4.88,1.05-7.28,1.71-4.35,1.2-7.5,3.74-9.88,7.27-1.99,2.96-4.43,5.67-6.55,8.56-1.39,1.89-2.6,3.9-3.84,5.88-1.89,3.03-3.56,6.19-5.66,9.09-2.43,3.37-6.24,5.11-10.39,6.28-8.38,2.36-13.12,7.74-15.59,15.18-1.67,5.03-2.24,10.2-3,15.36-.79,5.34-1.55,10.69-2.3,16.04-.27,1.91-.53,3.82-.66,5.74-.45,6.87-.84,13.74-1.26,20.61-.2,3.39-.06,6.83-.7,10.15-.71,3.66-2.03,7.24-3.32,10.79-.58,1.6-2.01,2.56-3.99,3.03-3.87,.92-7.69,1.23-11.66,.67-4.17-.58-8.39-.94-12.58-1.42-.79-.09-1.75-.08-2.3-.49-2.9-2.12-6.16-4.07-7.02-7.66-.69-2.85-1.46-5.75-1.48-8.64-.06-6.42,.05-12.87,.62-19.27,.51-5.73,1.65-11.41,2.65-17.1,1.26-7.1,2.06-14.26,1.28-21.39-.97-8.91-2.68-17.74-3.96-26.62-.6-4.17-.84-8.39-1.43-12.57-1.39-9.7-1.38-19.45-1.04-29.18,.16-4.65,1.01-9.28,1.62-13.91,.96-7.2,1.82-12.36,1.97-13.32,2.86-17.96-4-60.33-5.6-69.99-.77-4.66-6.3-38.09,1.28-43.49,3.15-2.25,6.43-2.39,6.43-2.39,1.19-.05,3.77,.03,7.35,2.23,6.43,3.94,10.87,10.88,11.59,12.2,8.21,15.08,8.51,37.2,9.96,56.68,.48,6.48,.06,20.96,.16,32.76,.06,7.33-.25,13.69-.25,13.69-.27,5.5-.6,9.61-.6,9.61-.22,4.49-.69,9-.43,13.47,.14,2.47,1.25,5,2.45,7.27,1.52,2.86,4.33,3.38,7.39,1.84,2.69-1.36,4.13-3.69,5.7-5.94,2-2.86,4.06-5.69,6.27-8.41,2.6-3.21,6.08-5.4,10.44-6.06,4.28-.64,7.7-2.68,10.88-5.11,5.03-3.84,10.08-7.67,14.83-11.78,8.39-7.26,18.1-12.29,29.33-14.66,4.38-.92,8.99-.96,13.49-1.42,4.19-.43,8.18,.24,12.06,1.67,.93,.35,1.87,.69,2.83,.97,2.3,.65,4.59,1.42,6.95,1.83,3.06,.54,5.46,1.9,7.31,4.08,6.55,7.69,11.03,16.16,11.74,26.03,.28,3.84,.54,7.69,.81,11.53m-10.05,55.51c.8-1.5,1.65-2.49,1.85-3.57,.56-3.04,1.11-6.11,1.19-9.19,.09-3.55-.21-7.12-.59-10.66-.2-1.86-.53-3.8-2.18-5.26-2.32-2.04-6.11-1.34-6.95,1.48-.43,1.44-.46,3.05-.27,4.55,.38,3.06,1.03,6.09,1.56,9.14,.69,3.96,1.82,7.82,3.66,11.47,.28,.56,.83,1,1.72,2.04Zm-2.39,70.02c0-.83,.07-1.66-.02-2.48-.13-1.17-.23-2.38-.62-3.49-.38-1.11-.93-2.25-1.69-3.18-1.62-1.98-6.05-2.67-7.39,1.11-.33,.94-.58,1.95-.6,2.92-.06,3.03-.12,6.07,.09,9.09,.15,2.07,.67,4.12,1.18,6.15,.37,1.46,1.59,1.95,3.2,1.92,1.8-.03,2.7-1.08,3.47-2.28,1.94-3.02,2.12-6.4,2.36-9.76ZM123.99,118.47c.22-.05,.87-.06,1.37-.31,3.33-1.68,7.04-1.95,10.69-2.56,2.64-.44,5.24-1.25,7.7-2.23,1.13-.45,3.04-.87,2.88-2.44-.15-1.57-1.85-2.01-3.3-2.42-5.52-1.57-11.11-1.41-16.66-.23-3.11,.66-5.35,2.48-6.43,5.29-.96,2.49,.73,4.93,3.75,4.92Zm-97.53,22c.97-1.37,1.79-2.21,2.19-3.18,.66-1.6,1.18-3.28,1.52-4.96,.62-3.03,1.2-6.07,1.54-9.14,.21-1.92-1.17-3.4-2.85-3.61-1.75-.22-3.25,.71-3.85,2.76-.44,1.47-.32,3.08-.73,4.57-.96,3.48-.44,6.89,.44,10.27,.26,1,.98,1.89,1.74,3.31Zm80.05-11.39c-.54-.31-.84-.63-1.03-.57-5.03,1.34-9.78,3.23-13.95,6.14-1.61,1.13-1.88,2.65-.94,3.84,.93,1.18,3.02,1.53,4.6,.51,4.27-2.75,8.35-5.7,11.33-9.92ZM26.34,288.17c-.47-4.59-2.11-8.58-4.05-12.46-.24-.48-1.67-.86-2.35-.68-.82,.22-1.71,.98-2.06,1.7-.32,.67-.22,1.7,.12,2.4,1.16,2.33,2.38,4.64,3.83,6.82,.82,1.24,2.18,2.15,4.51,2.22Zm4.04-11.63c-2.87-.01-4.3,1.78-3.09,4.01,1.1,2.02,2.58,3.88,3.98,5.76,.31,.42,.93,.77,1.47,.89,.82,.18,1.94,.44,2.48,.09,.54-.35,.87-1.51,.66-2.15-.79-2.42-1.84-4.78-2.78-7.16-.5-1.27-1.59-1.54-2.72-1.44Zm-11.64-136.14l.56-.04c.28-.74,.69-1.47,.82-2.23,.67-3.96,1.26-7.94,1.88-11.91,.21-1.35,.52-2.71,.57-4.07,.02-.49-.58-1.4-.91-1.41-.8-.02-1.91,.17-2.36,.68-.59,.65-.87,1.67-.93,2.55-.28,3.93-.54,7.86-.57,11.8-.01,1.54,.61,3.09,.94,4.64Zm159.99,139.5c1.41-.46,2.42-1.26,2.69-2.62,.44-2.23,.87-4.46,1.12-6.71,.17-1.54,.03-3.11,.05-4.66,.01-1.23-.5-2.27-1.85-2.49-1.45-.24-2.16,.74-2.44,1.92-.21,.88-.45,1.79-.44,2.68,.03,1.36,.31,2.71,.41,4.07,.18,2.56,.3,5.13,.46,7.83Zm-6.08-158.91c.28-1.52-.74-2.54-2.21-2.52-1.44,.01-3.1,1.54-2.89,3.01,.34,2.42,1.65,4.48,3.62,6.14,.58,.49,1.47,.04,1.48-.7,.02-1.97,0-3.95,0-5.92ZM18.41,174.84c0-.27,0-.55,0-.82,0-1.14,0-2.31-1.66-2.47-1.6-.15-1.93,.93-2.29,2.04-.88,2.7,.29,5.19,.87,7.74,.06,.27,.58,.71,.72,.66,.39-.14,.92-.43,1-.75"/>
        <path class="cls-1" d="M176.44,204.52c-.89-1.04-1.44-1.48-1.72-2.04-1.84-3.66-2.97-7.51-3.66-11.47-.53-3.05-1.18-6.08-1.56-9.14-.19-1.49-.15-3.11,.27-4.55,.83-2.82,4.62-3.52,6.95-1.48,1.65,1.45,1.98,3.39,2.18,5.26,.38,3.54,.68,7.11,.59,10.66-.08,3.07-.63,6.15-1.19,9.19-.2,1.09-1.05,2.08-1.85,3.57Z"/>
        <path class="cls-1" d="M26.46,140.47c-.76-1.41-1.48-2.31-1.74-3.31-.89-3.38-1.4-6.79-.44-10.27,.41-1.48,.29-3.09,.73-4.57,.61-2.04,2.1-2.98,3.85-2.76,1.68,.21,3.06,1.69,2.85,3.61-.34,3.06-.92,6.11-1.54,9.14-.34,1.68-.86,3.36-1.52,4.96-.4,.98-1.22,1.81-2.19,3.18Z"/>
        <path class="cls-1" d="M106.51,129.08c-2.98,4.21-7.06,7.17-11.33,9.92-1.58,1.02-3.67,.67-4.6-.51-.93-1.19-.67-2.71,.94-3.84,4.18-2.92,8.93-4.8,13.95-6.14,.19-.05,.49,.26,1.03,.57Z"/>
        <path class="cls-5" d="M26.34,288.17c-2.33-.06-3.68-.97-4.51-2.22-1.45-2.18-2.67-4.5-3.83-6.82-.35-.7-.45-1.74-.12-2.4,.35-.73,1.24-1.49,2.06-1.7,.68-.18,2.11,.2,2.35,.68,1.94,3.88,3.58,7.87,4.05,12.46Z"/>
        <path class="cls-1" d="M30.38,276.55c1.14-.1,2.22,.17,2.72,1.44,.94,2.38,1.99,4.73,2.78,7.16,.21,.64-.12,1.8-.66,2.15-.53,.35-1.66,.09-2.48-.09-.55-.12-1.16-.47-1.47-.89-1.4-1.88-2.88-3.74-3.98-5.76-1.21-2.23,.21-4.02,3.09-4.01Z"/>
        <path class="cls-9" d="M18.74,140.41c-.33-1.55-.96-3.09-.94-4.64,.03-3.93,.3-7.87,.57-11.8,.06-.88,.34-1.9,.93-2.55,.45-.5,1.56-.69,2.36-.68,.33,0,.93,.92,.91,1.41-.05,1.36-.36,2.71-.57,4.07-.62,3.97-1.22,7.95-1.88,11.91-.13,.76-.54,1.49-.82,2.23l-.56,.04Z"/>
        <path class="cls-11" d="M178.73,279.9c-.15-2.7-.28-5.26-.46-7.83-.1-1.36-.38-2.71-.41-4.07-.02-.89,.23-1.8,.44-2.68,.28-1.18,.99-2.15,2.44-1.92,1.35,.22,1.86,1.26,1.85,2.49-.02,1.56,.13,3.12-.05,4.66-.25,2.25-.68,4.48-1.12,6.71-.27,1.36-1.28,2.16-2.69,2.62Z"/>
        <path class="cls-6" d="M172.65,121c0,1.97,.02,3.95,0,5.92,0,.75-.89,1.19-1.48,.7-1.97-1.66-3.28-3.72-3.62-6.14-.21-1.47,1.45-2.99,2.89-3.01,1.48-.02,2.49,1,2.21,2.52Z"/>
        <path class="cls-10" d="M17.06,181.24c-.09,.32-.61,.62-1,.75-.14,.05-.66-.39-.72-.66-.59-2.55-1.75-5.04-.87-7.74,.36-1.11,.69-2.19,2.29-2.04,1.67,.16,1.67,1.33,1.66,2.47,0,.27,0,.55,0,.82"/>
      </g>
      <g>
        <path class="cls-1" d="M396.43,168.94c-1.11-1.76-2.01-3.65-2.94-5.52-1.44,.43-3.3-.03-4.04-1.76-3.08-7.22-4.13-14.9-3.15-22.67,.73-5.79,1.71-11.6,1.39-17.37-2.84-7.41-6.56-14.33-14.12-18.19-5.91-3.02-12.04-5.66-18.17-8.25-2.56-1.08-4.56-2.48-5.83-4.96-2.54-4.95-6.93-7.48-12.27-8.59-3.74-.77-7.49-1.66-11.28-2.05-5.65-.57-11.34-1.04-17.01-1-4.69,.04-9.36,.94-14.06,1.35-10.96,.96-21.32,3.43-29.85,10.86-1,.87-2.28,1.65-3.56,1.96-5.67,1.36-9.94,4.6-13.94,8.65-4.62,4.66-7.94,9.86-8.86,16.28-1.43,9.94-4.86,19.04-11.06,27.07-2.02,2.61-4.23,5.07-6.31,7.64-4.67,5.75-9.26,11.49-9.64,19.38-.18,3.81-1.01,7.59-1.61,11.37-.57,3.61-1.41,7.08-2.02,10.93,.99,.38,1.81,1.23,1.93,2.53,.43,4.79,.49,9.66,.76,14.5,.1,.14,.2,.29,.28,.47,3.56,7.31,5.69,14.81,5.16,22.97-.03,.52-.21,.99-.47,1.39,.31,1.38,.59,2.77,.82,4.16,.65,3.96,1.82,7.55,3.55,10.84,1.1-.23,2.33,.08,3.14,1.22,3.11,4.37,7.23,7.97,10.44,12.3,3.36,4.53,8.12,7.18,13.04,9.89,4.44,2.45,9.06,4.72,13.82,6.5,3.84,1.44,7.92,2.27,10.72,5.47,3.26,3.72,5.41,7.77,10.64,9.07,4.39,1.1,9.12,.44,13.61,.71,4.11,.25,8.64,.91,12.67-.17,3.96-1.06,7.41-3.54,11.37-4.7,3.46-1.01,7.05-1.13,10.63-1.23,.27-1.09,1.18-2.04,2.75-2.16,5.35-.4,10.37-3.02,15.81-2.21,2.61,.39,5.11,1.4,7.75,1.6,2.66,.21,5.4-.15,7.99-.74,2.41-.55,4.72-1.37,7.06-2.12,2.18-.69,4.58-1.15,6.51-2.44,3.5-2.33,4.69-6.83,7.97-9.48,.01-.01,.03-.02,.04-.03-.1-1.36,.05-2.74,.36-4.12-.17-.94,.04-1.97,.75-2.72,.79-2.45,1.8-4.87,2.35-7.12,.09-.37,.19-.72,.3-1.08,.09-1.26,.15-2.52,.3-3.78,.17-1.49,1.15-2.38,2.27-2.68,.3-.7,.6-1.41,.88-2.13,1.26-3.23,2.06-6.58,2.56-10,1.03-6.99,3.96-13.4,5.87-20.17,2.04-7.27,2.44-14.94,2.47-22.44,0-1.05,.47-1.8,1.15-2.26-1.28-8.67-3.97-17.05-8.95-24.99Zm-64.13,36.09c-.24,.74-.58,1.36-1.01,1.89-.35,1.7-1.25,3.25-2.5,4.67-5.41,6.15-11.81,10.55-20.48,10.24-2.23-.08-4.67-.85-6.56-2.02-2.89-1.8-6.43-2.74-8.44-5.84-.69-.42-1.37-.95-2.03-1.61-2.72-2.7-4.32-6.13-4.08-9.93,.32-5.14,1.61-10.21,.65-15.37-.2-1.07,.15-1.95,.75-2.58-1.01-.36-1.81-1.23-1.79-2.6,.05-4.28,2.55-9.36,5.31-12.63,2.81-3.33,6.93-4.6,11.06-5.57,7.83-1.83,18.01-2.81,23.86,3.82,2.23,2.53-.93,6.12-3.4,4.73,0,.04,0,.07,0,.11,.09,3.03,.45,5.97,1.07,8.85,.8,.06,1.56,.51,2.01,1.5,1.84,4.03,2.39,8.28,3.61,12.49,.9,3.09,3.01,6.52,1.96,9.83Z"/>
        <path d="M207.92,198.13c.17-6.41,1.24-12.35,2.76-18.24,.61-2.39,.88-4.91,.96-7.38,.13-4.22,.81-8.26,3.27-11.8,2.26-3.25,4.65-6.42,7.05-9.58,2.58-3.39,5.36-6.64,7.82-10.11,4.5-6.34,7.22-13.4,8.28-21.06,1.08-7.81,4.45-14.31,10.37-19.84,3.74-3.5,7.63-6.18,12.58-7.56,1.55-.43,3.07-1.35,4.31-2.38,7.31-6.07,15.86-9.05,25.27-10.02,6.44-.67,12.86-1.6,19.32-2.04,3.5-.24,7.07,.08,10.56,.53,5.54,.71,11.06,1.65,16.55,2.67,5.48,1.02,9.9,3.66,12.48,8.7,1.22,2.38,3.16,3.71,5.63,4.76,6.21,2.64,12.37,5.4,18.42,8.38,2.14,1.05,4.18,2.62,5.78,4.37,5.42,5.94,8.82,12.87,10.04,20.82,.48,3.13,.05,6.12-.5,9.16-.35,1.98-.63,3.99-.88,5.99-.64,5.03,.44,9.76,2.76,14.24,2.13,4.12,4.09,8.34,6.5,12.29,5.1,8.37,7.38,17.52,8.5,27.07,.98,8.38,.69,16.73-.71,25.01-.66,3.85-1.9,7.65-3.25,11.35-3.95,10.85-8.95,21.35-11.27,32.74-.76,3.72-2.38,7.1-4.17,10.43-3.4,6.3-8.61,10.28-15.54,12.39-7.71,2.35-15.41,2.69-23.24,.75-1.9-.47-3.86-.67-5.78-1.07-3.6-.74-6.99-.04-10.39,1.13-7.12,2.46-14.21,5.07-21.46,7.08-4.69,1.3-9.62,1.93-14.49,2.32-6.58,.52-12.89-1.07-18.86-3.74-3.26-1.46-5.95-3.68-8.08-6.56-.72-.98-1.69-1.92-2.76-2.49-3.61-1.93-7.18-4.07-11.02-5.42-7.44-2.61-13.61-6.71-18.53-12.77-1.82-2.24-4.13-4.11-6.19-6.16-2-1.99-4.02-3.96-5.95-6-4.15-4.37-6.32-9.61-7.26-15.48-.81-5.02-1.84-10.02-3.04-14.96-.79-3.26-2.08-6.41-3.09-9.62-1.87-5.93-2.29-12.08-2.7-17.9Zm191.82,5.8c-.17-2.47-.28-6.04-.7-9.57-.85-7.2-2.4-14.19-6.25-20.57-2.5-4.13-4.73-8.43-6.83-12.78-3.12-6.46-4.8-13.18-3.56-20.43,.5-2.92,.8-5.97,.52-8.9-.66-7.07-3.5-13.39-8.16-18.83-1.24-1.44-2.79-2.81-4.49-3.64-5.97-2.92-11.99-5.77-18.15-8.29-3.8-1.56-6.84-3.67-8.78-7.26-1.78-3.3-4.73-5.15-8.36-5.82-6.75-1.24-13.53-2.35-20.32-3.39-1.73-.26-3.54-.17-5.3-.01-5.57,.49-11.13,1.17-16.7,1.61-8.52,.68-16.38,3.02-23.13,8.36-2.48,1.96-5.22,3.4-8.39,4.02-1.59,.31-2.88,1.08-3.9,2.38-2.26,2.91-4.6,5.76-6.9,8.64-2.09,2.63-3.39,5.59-4.07,8.86-.92,4.42-1.65,8.92-3.06,13.2-3.16,9.55-8.43,17.98-15.42,25.34-4.34,4.56-8.04,9.44-9.34,15.74-.39,1.88-1.1,3.69-1.7,5.52-4.17,12.56-4.14,25.13-.21,37.75,1.55,4.96,3.07,9.94,4.34,14.97,1.01,4.01,1.49,8.14,2.47,12.15,.42,1.73,1.31,3.42,2.32,4.91,2.36,3.45,5.28,6.42,8.54,9.12,2.46,2.04,5.03,4.12,6.91,6.64,4.14,5.57,9.42,9.45,15.92,11.9,4.82,1.82,9,4.67,13.08,7.71,1.62,1.21,3.4,2.32,5.28,3.09,5.86,2.39,11.99,3.6,18.35,3.74,11.27,.26,22.03-2.22,32.61-5.68,2.14-.7,4.25-1.52,6.44-2.04,5.2-1.22,10.37-.64,15.43,.78,7.33,2.06,14.54,1.73,21.71-.7,3.44-1.16,6.54-2.91,8.57-5.84,2.64-3.81,5.01-7.79,5.92-12.47,1.15-5.87,3.13-11.48,5.48-17.02,2.48-5.85,4.64-11.85,6.67-17.87,2.64-7.86,2.76-16.08,3.16-25.34Z"/>
        <path d="M319.65,159.4c5.6,.74,9.99,5.33,10.53,10.87,.18,1.82,.35,3.65,.35,5.47,0,3.84,.94,7.39,2.82,10.77,2.47,4.42,3.99,9.14,4.75,14.16,.85,5.67-.14,10.73-4.1,15.05-6.91,7.54-15.18,12.58-25.87,12.35-7.07-.15-12.62-3.19-15.78-9.7-.28-.58-.84-1.04-1.23-1.58-1.42-1.96-2.93-3.85-4.2-5.9-2.23-3.59-2.8-7.49-2.07-11.66,.31-1.76,.2-3.63,.03-5.43-.4-4.2-1.31-8.39-1.39-12.59-.2-11.39,7.7-20.28,19.15-21.98,.87-.13,1.75-.33,2.62-.36,1.67-.06,3.34-.02,5.01-.02m-4.39,5.81c-9.38,.15-16.98,7.59-16.93,16.8,.02,3.35,.61,6.68,.79,10.03,.15,2.77,.43,5.61-.03,8.31-.49,2.89-.38,5.53,.92,8.12,1.12,2.24,2.28,4.46,3.52,6.64,.35,.62,.97,1.19,1.61,1.56,2.18,1.28,4.37,2.56,6.66,3.63,1.47,.68,3.1,1.31,4.69,1.42,9.16,.62,15.89-3.82,21.61-10.25,2.39-2.68,2.87-5.76,2.4-9.16-.65-4.7-1.85-9.21-4.12-13.44-1.9-3.53-2.93-7.31-2.98-11.33-.02-1.63-.25-3.26-.41-4.88-.39-4-2.27-6.17-6.3-6.84-2.69-.45-5.45-.57-8.17-.84"/>
        <path d="M295.38,96.57c-.5,.32-1.01,.61-1.48,.96-4.59,3.3-9.29,6.41-14.75,8.19-1.18,.39-2.47,.58-3.72,.64-1.4,.07-2.43-.67-2.89-2.01-.46-1.36,.04-2.49,1.1-3.33,.67-.52,1.49-.98,2.31-1.19,5.95-1.53,11.91-3.01,17.88-4.45,.35-.09,.83,.29,1.24,.46l.3,.73Z"/>
        <path d="M260.99,120.54c0,1.03,.18,1.82-.03,2.51-1.44,4.78-2.95,9.55-4.46,14.31-.2,.64-.46,1.28-.84,1.83-.77,1.12-1.85,1.7-3.28,1.4-1.37-.29-2.38-1.38-2.45-2.88-.03-.84,.11-1.74,.43-2.52,2.08-5.15,5.05-9.77,9.01-13.73,.36-.36,.92-.53,1.61-.92Z"/>
        <path d="M393.7,214.33c-.74,2.61-1.24,5.32-2.29,7.8-1.64,3.88-3.65,7.62-5.51,11.41-.13,.26-.3,.49-.47,.73-1.38,1.91-3.04,2.58-4.41,1.8-1.29-.73-1.43-2.53-.08-4.63,3.6-5.59,7.3-11.13,10.98-16.67,.23-.35,.67-.57,1.01-.84l.77,.4Z"/>
        <path d="M282.12,107.83c-.21,.72-.26,1.18-.46,1.58-1.71,3.43-3.43,6.86-5.18,10.27-.3,.59-.63,1.35-1.16,1.59-.81,.37-1.84,.59-2.72,.47-1.06-.15-1.6-1.12-1.55-2.16,.04-.93,.13-1.95,.53-2.77,1.93-3.92,5.03-6.76,8.93-8.79,.37-.19,.88-.12,1.61-.2Z"/>
        <path d="M260.05,269.51c-.96,0-1.67,.15-2.28-.02-3.91-1.1-7.01-3.34-9.25-6.67-.37-.55-.67-1.19-.86-1.82-.41-1.39,.14-2.71,1.28-3.19,1.3-.55,2.31,0,3.07,1.01,.76,1,1.35,2.12,2.11,3.12,1.86,2.43,3.77,4.82,5.93,7.57Z"/>
        <path d="M367.39,269.84c-.82,.73-1.53,1.71-2.49,2.14-3.2,1.42-6.47,2.68-9.75,3.92-.7,.27-1.55,.24-2.33,.24-1.06,0-1.95-.34-2.17-1.51-.2-1.06,.2-1.94,1.16-2.43,.77-.39,1.63-.68,2.49-.82,3.47-.6,6.95-1.11,10.42-1.68,.73-.12,1.45-.34,2.17-.51l.5,.64Z"/>
        <path d="M227.18,206.67c-.74-.93-1.26-1.35-1.45-1.88-1.38-3.72-1.7-7.62-1.79-11.53-.01-.62,.21-1.43,.63-1.84,.57-.55,1.48-1.12,2.18-1.06,.7,.06,1.44,.81,1.95,1.43,.32,.39,.37,1.11,.3,1.65-.55,4.21-1.15,8.42-1.83,13.24Z"/>
        <path d="M236.29,235.94c-.8-.25-1.3-.27-1.62-.52-2.98-2.32-5-5.32-6.35-8.78-.1-.27-.19-.54-.23-.83-.24-1.59,.44-2.79,1.8-3.18,1.22-.35,2.33,.23,3.05,1.61,.22,.42,.37,.88,.5,1.34,.92,3.28,1.82,6.57,2.86,10.36Z"/>
      </g>
      <g>
        <g>
          <path class="cls-8" d="M608.62,198.53c1.19,12.99,2.15,26.01,1.07,39.1-1.01,12.41-2.62,24.73-4.99,36.96-.66,3.4-1.78,6.73-2.9,10.01-1.24,3.64-3.45,6.69-6.34,9.28-3.95,3.55-8.41,4.3-13.33,2.46-1.11-.41-2.29-.85-3.19-1.59-4.04-3.39-8.23-6.64-11.91-10.39-4.16-4.25-4.65-9.96-4.98-15.58-.32-5.4,.35-10.73,.89-16.09,.38-3.85,.27-7.74,.21-11.62-.02-1.32-.57-2.63-1.04-4.64-1.35,2.39-2.34,4.1-3.29,5.83-2.75,4.99-5.67,9.82-10.32,13.39-2.9,2.23-6,3.94-9.63,4.52-2.43,.4-4.56,1.38-6.42,2.98-5.27,4.57-10.76,8.91-15.78,13.74-8.97,8.65-19.39,14.59-31.45,17.57-7.57,1.87-15.27,3.04-23.09,1.66-2.24-.39-4.4-1.19-6.6-1.84-3.43-1.02-6.82-2.16-10.27-3.06-4-1.04-7.38-3.04-9.91-6.29-6.2-7.96-10.78-16.72-12.47-26.76-.38-2.25-.33-4.57-.3-6.86,.13-10.36,.19-20.72,.5-31.07,.39-12.55,.96-25.08,1.54-37.62,.52-10.98,.17-21.92-.88-32.84-.88-9.11-2.17-18.17-3.19-27.26-.4-3.56-.54-7.15-.85-10.72-.05-.6-.12-1.62-.09-2.28-.55-3.42-.16-5.41-.16-8.8-.1-.49,.06-1.46,.24-1.71,2.25-11.31,9.51-18.03,20.03-21.67,1.93-.67,4.1-.93,6.15-.92,4.38,0,8.78,.23,13.15,.54,1.35,.1,2.75,.52,3.94,1.15,9.28,4.88,13.91,12.91,14.85,23.04,1.2,12.93,1.27,25.88-.74,38.75-1.54,9.93-1.44,19.84-.25,29.78,1.08,9.2,2.23,18.39,3.14,27.59,.5,4.95,.61,9.95,.88,14.92,.21,3.72,1.45,6.97,4.25,9.57,1.58,1.45,3.37,2.1,5.48,1.75,1.27-.21,2.52-.57,3.79-.83,4.77-1,8.22-3.5,10.43-8.03,1.47-3.01,3.75-5.6,5.61-8.43,.87-1.32,1.65-2.7,2.42-4.09,1.84-3.29,3.51-6.7,5.52-9.88,3.14-4.97,7.53-8.51,13.36-9.87,7.18-1.68,11.52-6.2,13.09-13.19,1.42-6.31,2.58-12.68,3.41-19.09,1.15-8.89,2.07-17.81,2.75-26.74,.56-7.35,.64-14.73,.9-22.1,.23-6.7,2.4-12.88,5-18.93,1.17-2.73,3.51-4.31,6.27-5.18,6.98-2.22,14.1-2.58,21.26-1.02,3,.65,5.99,1.53,8.83,2.68,2.23,.89,4.71,1.81,5.17,4.78,.05,.31,.5,.6,.8,.85,4.15,3.52,5.63,8.26,6.32,13.44,1.05,7.98,.61,15.9-.37,23.84-.75,6.13-1.35,12.27-2.06,18.41-1.17,10,.1,19.9,1.38,29.77,1.24,9.57,3.3,19.05,4.18,28.64Zm-6.38,40.46c.33-10.54,.33-21.07-1.03-31.57-.6-4.52-.82-9.08-1.42-13.6-1.26-9.6-2.95-19.17-3.9-28.8-.76-7.72,.02-15.47,1.26-23.15,.99-6.14,2.11-12.29,2.62-18.49,.56-6.92,.66-13.89,.61-20.85-.02-3.12-.78-6.27-1.45-9.34-.86-3.9-4.06-6-6.91-8.29-.55-.44-1.49-.44-2.28-.54-4.12-.52-8.27-.9-12.38-1.53-3.91-.6-7.67-.26-11.48,.73-1.94,.51-3.35,1.54-3.93,3.28-1.26,3.84-2.56,7.71-3.26,11.68-.63,3.58-.49,7.3-.69,10.98-.41,7.43-.79,14.86-1.24,22.3-.13,2.07-.38,4.14-.64,6.2-.73,5.79-1.49,11.57-2.27,17.35-.75,5.59-1.31,11.18-2.95,16.62-2.43,8.05-7.11,13.87-15.35,16.42-4.08,1.26-7.83,3.14-10.22,6.8-2.06,3.14-3.7,6.56-5.57,9.83-1.22,2.15-2.41,4.32-3.78,6.37-2.09,3.13-4.48,6.06-6.44,9.27-2.34,3.82-5.43,6.56-9.72,7.87-2.36,.71-4.77,1.23-7.17,1.85-6.09,1.56-10.57-.98-14.35-5.51-3.1-3.72-4.13-8.05-4.17-12.72-.03-2.59,.16-5.2-.11-7.77-.64-6.4-1.58-12.76-2.23-19.15-.69-6.9-1.28-13.82-1.76-20.74-.6-8.55,0-17.09,1.24-25.55,.95-6.48,1.71-12.98,1.6-19.53-.09-4.87-.36-9.74-.48-14.6-.13-5.06-1.58-9.76-3.82-14.24-.56-1.11-1.45-2.17-2.42-2.97-1.68-1.38-3.57-2.5-5.32-3.81-1.27-.96-2.64-1.34-4.19-1.23-2.47,.18-5.05,.8-7.4,.34-3.58-.69-6.72,.22-9.81,1.52-6.25,2.62-11.05,6.84-12.75,13.61-1.04,4.12-1.19,8.44-.89,12.72,.14,1.97,.33,3.94,.45,5.93,.23,3.96,.39,7.93,.67,11.89,.15,2.07,.02,4.32,.81,6.14,1.73,4.02,1.54,8.15,1.56,12.31,.02,3.5-.11,6.99,.06,10.47,.21,4.15,.81,8.28,.98,12.43,.11,2.76-.34,5.55-.41,8.32-.24,9.94-.45,19.89-.63,29.83-.08,3.98-.02,7.98-.12,11.96-.06,2.58-.46,5.15-.4,7.71,.09,3.96,.43,7.93,.66,11.89-.14,0-.27,.02-.42,.03,.27,4.15,.53,8.31,.8,12.47,.7,10.67,5.12,19.84,11.56,28.16,1.83,2.35,4.19,3.83,7.2,4.41,2.32,.44,4.57,1.28,6.84,1.98,.95,.29,1.87,.67,2.79,1.04,3.81,1.55,7.74,2.28,11.86,1.81,4.43-.51,8.96-.55,13.28-1.54,11.05-2.57,20.62-8.01,28.87-15.86,4.68-4.44,9.66-8.59,14.61-12.74,3.12-2.63,6.49-4.82,10.7-5.53,4.3-.7,7.72-3.09,10.28-6.55,2.18-2.95,4.21-6.01,6.17-9.1,1.55-2.44,2.97-4.96,5.61-6.43,3.01-1.67,5.78-1.1,7.27,1.99,1.19,2.45,2.28,5.19,2.42,7.87,.24,4.83-.21,9.71-.43,14.57-.16,3.47-.5,6.92-.59,10.4-.04,1.56,.42,3.13,.51,4.71,.18,3.39,1.22,6.49,3.34,9.06,2.99,3.61,6.41,6.88,10.49,9.24,3.29,1.9,6.66,1.7,8.91-1.13,1.34-1.69,2.68-3.47,3.57-5.41,2.14-4.63,2.8-9.67,3.61-14.64,.77-4.78,1.36-9.6,1.93-14.41,.61-5.01,1.45-10.02,1.6-15.05Z"/>
          <path class="cls-1" d="M601.21,207.42c1.36,10.5,1.36,21.03,1.03,31.57-.16,5.03-1,10.04-1.6,15.05-.58,4.81-1.16,9.63-1.93,14.41-.81,4.97-1.47,10.01-3.61,14.64-.9,1.94-2.24,3.72-3.57,5.41-2.26,2.83-5.62,3.04-8.91,1.13-4.08-2.35-7.5-5.62-10.49-9.24-2.12-2.57-3.16-5.67-3.34-9.06-.09-1.57-.55-3.14-.51-4.71,.09-3.48,.43-6.93,.59-10.4,.22-4.86,.67-9.74,.43-14.57-.15-2.68-1.23-5.42-2.42-7.87-1.49-3.1-4.27-3.66-7.27-1.99-2.65,1.47-4.06,3.99-5.61,6.43-1.96,3.1-3.99,6.15-6.17,9.1-2.56,3.47-5.99,5.85-10.28,6.55-4.21,.7-7.58,2.9-10.7,5.53-4.95,4.15-9.93,8.3-14.61,12.74-8.25,7.85-17.82,13.29-28.87,15.86-4.32,1-8.85,1.04-13.28,1.54-4.12,.47-8.06-.25-11.86-1.81-.92-.37-1.85-.75-2.79-1.04-2.27-.7-4.51-1.54-6.84-1.98-3.01-.59-5.37-2.06-7.2-4.41-6.44-8.32-10.86-17.49-11.56-28.16-.27-4.16-.53-8.32-.8-12.47,.15,0,.28-.02,.42-.03-.23-3.96-.58-7.93-.66-11.89-.06-2.57,.34-5.14,.4-7.71,.1-3.98,.04-7.98,.12-11.96,.19-9.94,.39-19.89,.63-29.83,.07-2.77,.52-5.56,.41-8.32-.17-4.15-.76-8.28-.98-12.43-.17-3.48-.04-6.97-.06-10.47-.02-4.16,.17-8.29-1.56-12.31-.79-1.83-.66-4.07-.81-6.14-.28-3.96-.44-7.93-.67-11.89-.12-1.98-.31-3.95-.45-5.93-.3-4.29-.16-8.6,.89-12.72,1.7-6.77,6.5-10.99,12.75-13.61,3.1-1.3,6.23-2.22,9.81-1.52,2.35,.46,4.93-.17,7.4-.34,1.55-.11,2.92,.27,4.19,1.23,1.75,1.31,3.64,2.43,5.32,3.81,.98,.8,1.87,1.86,2.42,2.97,2.24,4.47,3.69,9.18,3.82,14.24,.12,4.86,.39,9.73,.48,14.6,.11,6.55-.65,13.05-1.6,19.53-1.24,8.47-1.84,17-1.24,25.55,.48,6.92,1.06,13.84,1.76,20.74,.64,6.39,1.58,12.75,2.23,19.15,.26,2.57,.08,5.18,.11,7.77,.04,4.68,1.07,9,4.17,12.72,3.78,4.53,8.26,7.07,14.35,5.51,2.39-.62,4.8-1.13,7.17-1.85,4.29-1.31,7.37-4.05,9.72-7.87,1.96-3.2,4.35-6.13,6.44-9.27,1.37-2.05,2.56-4.22,3.78-6.37,1.87-3.27,3.51-6.69,5.57-9.83,2.39-3.65,6.14-5.54,10.22-6.8,8.24-2.56,12.92-8.38,15.35-16.42,1.64-5.44,2.2-11.03,2.95-16.62,.77-5.78,1.53-11.56,2.27-17.35,.26-2.06,.52-4.13,.64-6.2,.45-7.44,.83-14.87,1.24-22.3,.21-3.67,.06-7.39,.69-10.98,.7-3.96,2-7.84,3.26-11.68,.58-1.74,1.98-2.77,3.93-3.28,3.81-1,7.58-1.33,11.48-.73,4.11,.63,8.26,1.02,12.38,1.53,.78,.1,1.73,.1,2.28,.54,2.85,2.29,6.05,4.39,6.91,8.29,.67,3.08,1.44,6.22,1.45,9.34,.06,6.95-.05,13.92-.61,20.85-.51,6.2-1.63,12.35-2.62,18.49-1.24,7.68-2.02,15.43-1.26,23.15,.95,9.63,2.64,19.2,3.9,28.8,.6,4.52,.82,9.08,1.42,13.6Z"/>
        </g>
        <path class="cls-1" d="M428.76,227.75c-.06-2.57,.34-5.14,.4-7.72,.1-3.98,.04-7.97,.12-11.96,.19-9.95,.39-19.89,.64-29.84,.07-2.77,.51-5.55,.4-8.31-.16-4.15-.76-8.28-.97-12.43-.17-3.48-.05-6.97-.06-10.46-.02-4.16,.17-8.29-1.56-12.31-.79-1.83-.66-4.08-.81-6.15-.28-3.96-.44-7.93-.68-11.89-.12-1.98-.3-3.95-.45-5.93-.31-4.28-.15-8.6,.89-12.72,1.7-6.77,6.51-10.99,12.76-13.61,3.09-1.29,6.23-2.22,9.81-1.52,2.36,.46,4.93-.17,7.41-.34,1.56-.11,2.92,.27,4.19,1.22,1.75,1.31,3.64,2.43,5.33,3.81,.97,.8,1.86,1.85,2.42,2.97,2.24,4.47,3.69,9.17,3.81,14.23,.12,4.87,.39,9.73,.48,14.59,.11,6.56-.65,13.04-1.6,19.53-1.24,8.47-1.84,17-1.24,25.56,.48,6.92,1.06,13.83,1.76,20.73,.65,6.39,1.58,12.76,2.23,19.15,.26,2.57,.08,5.18,.1,7.77,.04,4.68,1.07,9.01,4.17,12.72,3.78,4.53,8.26,7.07,14.35,5.51,2.39-.61,4.81-1.13,7.16-1.85,4.29-1.3,7.38-4.05,9.72-7.87,1.96-3.2,4.36-6.13,6.44-9.26,1.37-2.05,2.56-4.22,3.78-6.37,1.86-3.28,3.5-6.69,5.57-9.84,2.39-3.64,6.14-5.53,10.22-6.79,8.24-2.55,12.92-8.37,15.34-16.42,1.64-5.44,2.21-11.04,2.95-16.62,.77-5.78,1.53-11.56,2.26-17.35,.26-2.06,.52-4.13,.65-6.21,.44-7.43,.83-14.87,1.24-22.3,.2-3.66,.06-7.39,.69-10.98,.7-3.96,2-7.84,3.27-11.67,.57-1.74,1.97-2.77,3.92-3.28,3.81-.99,7.57-1.33,11.48-.73,4.11,.63,8.26,1.01,12.38,1.53,.78,.1,1.72,.09,2.27,.53,2.85,2.29,6.06,4.4,6.91,8.29,.68,3.08,1.43,6.22,1.46,9.35,.06,6.95-.05,13.93-.61,20.85-.5,6.2-1.62,12.35-2.61,18.5-1.24,7.68-2.03,15.43-1.26,23.15,.95,9.63,2.64,19.2,3.9,28.8,.59,4.52,.82,9.08,1.41,13.6,1.36,10.49,1.36,21.04,1.03,31.57-.16,5.03-.99,10.04-1.6,15.04-.58,4.81-1.16,9.63-1.94,14.41-.8,4.97-1.47,10.01-3.61,14.63-.9,1.94-2.23,3.73-3.58,5.42-2.25,2.83-5.62,3.03-8.91,1.13-4.08-2.36-7.5-5.62-10.49-9.24-2.12-2.57-3.17-5.68-3.35-9.06-.08-1.58-.54-3.15-.5-4.71,.09-3.47,.43-6.93,.59-10.4,.22-4.86,.68-9.74,.43-14.57-.14-2.67-1.23-5.41-2.42-7.86-1.49-3.09-4.27-3.66-7.28-1.99-2.65,1.47-4.06,3.99-5.61,6.43-1.97,3.09-4,6.15-6.17,9.1-2.56,3.47-5.98,5.84-10.28,6.55-4.21,.7-7.58,2.9-10.71,5.52-4.95,4.15-9.92,8.3-14.6,12.74-8.26,7.85-17.82,13.29-28.88,15.86-4.31,1-8.85,1.04-13.27,1.54-4.12,.47-8.06-.25-11.87-1.81-.92-.37-1.84-.75-2.79-1.04-2.27-.7-4.52-1.54-6.84-1.98-3.01-.58-5.37-2.06-7.2-4.41-6.45-8.32-10.86-17.48-11.56-28.16-.27-4.16-.53-8.32-.8-12.48m9.89-60.06c-.79,1.62-1.62,2.69-1.82,3.87-.55,3.29-1.09,6.61-1.17,9.94-.09,3.84,.2,7.71,.58,11.54,.2,2.02,.52,4.11,2.15,5.69,2.29,2.21,6.02,1.45,6.84-1.6,.42-1.56,.45-3.3,.27-4.92-.37-3.31-1.02-6.59-1.54-9.89-.68-4.29-1.79-8.46-3.6-12.41-.28-.6-.82-1.08-1.7-2.21Zm2.36-75.74c0,.89-.07,1.79,.02,2.68,.13,1.27,.23,2.57,.61,3.78,.38,1.21,.91,2.43,1.66,3.44,1.6,2.15,5.96,2.89,7.28-1.2,.33-1.02,.57-2.1,.59-3.16,.05-3.28,.12-6.56-.09-9.83-.14-2.23-.66-4.46-1.16-6.65-.36-1.58-1.56-2.1-3.15-2.08-1.77,.03-2.66,1.17-3.42,2.47-1.91,3.26-2.08,6.92-2.32,10.56Zm49.28,168.84c-.21,.05-.85,.06-1.35,.33-3.28,1.82-6.93,2.11-10.52,2.77-2.59,.48-5.16,1.35-7.58,2.42-1.11,.49-2.99,.94-2.84,2.64,.15,1.7,1.82,2.18,3.25,2.62,5.44,1.7,10.94,1.52,16.4,.25,3.06-.71,5.26-2.68,6.33-5.73,.94-2.69-.72-5.34-3.7-5.32Zm96.01-23.8c-.95,1.48-1.76,2.39-2.16,3.44-.65,1.74-1.16,3.55-1.5,5.37-.61,3.28-1.18,6.57-1.51,9.88-.21,2.08,1.15,3.68,2.8,3.91,1.72,.24,3.2-.77,3.79-2.98,.43-1.6,.32-3.33,.72-4.94,.95-3.77,.44-7.45-.44-11.11-.26-1.08-.96-2.05-1.71-3.58Zm-78.8,12.32c.53,.34,.83,.68,1.02,.62,4.95-1.45,9.63-3.49,13.74-6.65,1.59-1.22,1.85-2.87,.93-4.15-.91-1.28-2.97-1.65-4.53-.55-4.2,2.97-8.22,6.17-11.15,10.73Zm78.91-172.11c.46,4.97,2.08,9.28,3.99,13.48,.24,.52,1.64,.94,2.31,.74,.81-.24,1.68-1.06,2.03-1.84,.32-.72,.22-1.84-.12-2.6-1.14-2.52-2.34-5.02-3.77-7.38-.81-1.34-2.14-2.33-4.44-2.4Zm-3.98,12.58c2.83,.01,4.23-1.92,3.04-4.34-1.08-2.19-2.54-4.2-3.92-6.23-.3-.45-.91-.83-1.45-.96-.8-.2-1.91-.48-2.44-.1-.53,.38-.85,1.64-.65,2.32,.78,2.62,1.81,5.17,2.73,7.74,.49,1.37,1.56,1.67,2.68,1.56Zm11.45,147.28l-.55,.04c-.28,.8-.68,1.59-.81,2.42-.66,4.29-1.24,8.59-1.85,12.89-.21,1.47-.51,2.93-.56,4.4-.02,.53,.57,1.52,.9,1.53,.79,.02,1.88-.19,2.32-.73,.58-.7,.85-1.81,.91-2.76,.27-4.25,.54-8.51,.56-12.76,.01-1.67-.6-3.35-.93-5.02ZM436.65,98.06c-1.39,.5-2.39,1.36-2.65,2.84-.43,2.41-.86,4.83-1.1,7.26-.17,1.67-.03,3.36-.05,5.05-.01,1.33,.49,2.45,1.82,2.69,1.43,.26,2.13-.8,2.4-2.07,.21-.95,.45-1.93,.43-2.9-.03-1.47-.31-2.93-.4-4.4-.18-2.77-.3-5.55-.45-8.47Zm5.99,171.91c-.27,1.65,.72,2.74,2.18,2.73,1.42-.02,3.05-1.67,2.85-3.25-.33-2.62-1.62-4.85-3.56-6.64-.57-.53-1.44-.04-1.45,.76-.02,2.14,0,4.27,0,6.41Zm151.83-58.25c0,.3,0,.59,0,.89,0,1.23,0,2.5,1.63,2.67,1.58,.16,1.9-1.01,2.25-2.21,.86-2.92-.28-5.62-.86-8.38-.06-.29-.57-.76-.71-.71-.39,.15-.9,.47-.99,.82"/>
        <path class="cls-1" d="M438.9,179.62c.88,1.12,1.42,1.6,1.7,2.21,1.81,3.96,2.92,8.12,3.6,12.41,.52,3.3,1.17,6.58,1.54,9.89,.18,1.62,.15,3.36-.27,4.92-.82,3.05-4.55,3.81-6.84,1.6-1.63-1.57-1.95-3.67-2.15-5.69-.38-3.83-.67-7.7-.58-11.54,.07-3.32,.62-6.65,1.17-9.94,.2-1.18,1.03-2.25,1.82-3.87Z"/>
        <path class="cls-1" d="M441.26,103.87c.24-3.64,.42-7.3,2.32-10.56,.76-1.3,1.65-2.44,3.42-2.47,1.59-.03,2.79,.5,3.15,2.08,.5,2.19,1.02,4.42,1.16,6.65,.21,3.27,.15,6.55,.09,9.83-.02,1.06-.26,2.15-.59,3.16-1.32,4.08-5.68,3.34-7.28,1.2-.75-1.01-1.29-2.23-1.66-3.44-.38-1.21-.48-2.51-.61-3.78-.09-.88-.02-1.79-.02-2.68Z"/>
        <path class="cls-1" d="M586.55,248.9c.75,1.53,1.46,2.5,1.71,3.58,.87,3.66,1.38,7.34,.44,11.11-.4,1.61-.29,3.34-.72,4.94-.6,2.21-2.07,3.22-3.79,2.98-1.65-.23-3.01-1.83-2.8-3.91,.33-3.31,.9-6.61,1.51-9.88,.34-1.82,.85-3.63,1.5-5.37,.4-1.06,1.2-1.96,2.16-3.44Z"/>
        <path class="cls-1" d="M507.75,261.23c2.94-4.56,6.95-7.75,11.15-10.73,1.56-1.1,3.62-.73,4.53,.55,.92,1.29,.66,2.94-.93,4.15-4.11,3.15-8.79,5.2-13.74,6.65-.18,.05-.48-.29-1.02-.62Z"/>
        <path class="cls-5" d="M586.66,89.12c2.3,.07,3.63,1.05,4.44,2.4,1.43,2.36,2.63,4.86,3.77,7.38,.34,.75,.44,1.88,.12,2.6-.35,.79-1.22,1.61-2.03,1.84-.67,.2-2.07-.22-2.31-.74-1.91-4.2-3.52-8.51-3.99-13.48Z"/>
        <path class="cls-9" d="M594.14,248.98c.33,1.67,.94,3.35,.93,5.02-.03,4.26-.29,8.51-.56,12.76-.06,.95-.33,2.06-.91,2.76-.45,.54-1.53,.75-2.32,.73-.33,0-.92-1-.9-1.53,.05-1.47,.35-2.93,.56-4.4,.61-4.3,1.2-8.6,1.85-12.89,.13-.83,.53-1.61,.81-2.42l.55-.04Z"/>
        <path class="cls-11" d="M436.65,98.06c.15,2.92,.27,5.7,.45,8.47,.09,1.47,.37,2.93,.4,4.4,.02,.96-.22,1.94-.43,2.9-.27,1.27-.97,2.33-2.4,2.07-1.33-.24-1.83-1.36-1.82-2.69,.02-1.68-.12-3.38,.05-5.05,.25-2.43,.67-4.85,1.1-7.26,.26-1.47,1.26-2.34,2.65-2.84Z"/>
        <path class="cls-6" d="M442.63,269.97c0-2.14-.02-4.27,0-6.41,0-.81,.88-1.29,1.45-.76,1.94,1.79,3.23,4.03,3.56,6.64,.2,1.59-1.43,3.24-2.85,3.25-1.45,.02-2.45-1.08-2.18-2.73Z"/>
        <path class="cls-10" d="M595.8,204.8c.09-.35,.6-.67,.99-.82,.13-.05,.65,.42,.71,.71,.58,2.76,1.73,5.45,.86,8.38-.36,1.2-.68,2.37-2.25,2.21-1.64-.17-1.64-1.44-1.63-2.67,0-.3,0-.59,0-.89"/>
      </g>
      <g>
        <path class="cls-1" d="M822.78,136.84c-.07-4.28-.88-8.44-1.53-12.65-.51-3.31-.55-6.6-.91-9.91-.36-3.29-2.94-5.67-4.89-8.16-1.92-2.46-3.62-4.96-4.48-7.99-.18-.62-.16-1.18,0-1.67-5.94-5.11-11.79-10.36-18.18-14.83-4.01-2.8-9.12-5.02-13.93-5.48-.92-.09-1.83-.17-2.75-.24-.47,.72-1.26,1.23-2.39,1.21-4.8-.07-9.53-1.11-14.26-1.9-6.14,.03-12.25,.42-18.33,1.29-.47,.19-.93,.25-1.36,.2-6.43,.99-12.82,2.52-19.16,4.74-9.85,3.45-20.08,4.36-30.44,1.28-3.03-.9-6.5-.79-9.71-.48-3.2,.3-6.04,.21-8.76-1.74-4.16-2.98-8.85-3.28-13.29-1.07-7.51,3.74-13.74,8.98-17.66,16.68-2.91,5.7-4.08,11.7-4.63,17.8,1.37,.14,2.63,1.09,2.62,2.86-.04,6.07-.6,12.11-1.03,18.17-.42,5.87-.33,11.74-.6,17.61-.25,5.65-.79,11.3-1.68,16.89-.26,1.62-.59,3.23-.92,4.85-.25,3.12-.7,6.23-1.53,9.32-.05,.66-.07,1.33-.08,2,.7,.64,1.08,1.62,.72,2.83-2.19,7.42-1.2,15.01-1.15,22.62,0,1.5-.89,2.41-1.99,2.74,0,.08,0,.16-.01,.24-.5,8.32-1.38,16.63-1.52,24.95-.07,4.07,.36,8.48,1.88,12.19,.26,.15,.52,.35,.77,.62,3.75,4.11,2.16,12.31,2.11,17.35-.09,8.29,4.14,14.88,7.38,22.28,.79,1.8,1.38,3.24,3.25,4.02,1.82,.76,3.88,1.17,5.81,1.57,4.75,.99,9.89-1.15,14.61-1.96,6.23-1.07,18.34-2.51,18.4-10.84,0-1.43,.84-2.33,1.88-2.69-1.3-5.33-.97-10.49-.48-15.98,.52-5.83-.43-11.63,.58-17.45,.17-.98,.69-1.6,1.34-1.91-.04-1.2-.08-2.4-.16-3.6-.67-.3-1.26-.85-1.6-1.68-1.35-3.31-1.66-6.97-1.7-10.51-.03-2.98-.17-6.26,.97-9.06,2.33-5.75,8.52-9.44,14.64-8.34,1.28,.23,2.24,1.69,2.22,3.02,.05,.02,.1,.04,.14,.05,.92,.24,1.85,.4,2.78,.6,2.09,.47,3.62,1.16,5.22,2.61,2.44,2.2,4.24,4.98,6.14,7.62,1.91,2.66,4.29,5.06,5.79,8.01,1.3,2.56,1.59,5.42,3,7.93,1.42,2.52,2.99,4.96,4.55,7.39,3.3,5.16,6.69,10.28,9.53,15.72,2.49,4.78,3.82,9.84,5.94,14.74,2.14,4.97,7.78,7.81,12.46,9.96,10.7,4.92,24.34,7.93,35.95,5.02,4.51-1.13,9.55-3.79,12.26-7.69,2.91-4.2-.01-10.45-1.57-14.68-.55-1.5,.12-2.63,1.18-3.21-2.83-5.81-5.68-11.63-9.33-16.88-7.77-11.15-16.38-21.71-24.61-32.53-4.23-2.22-4.72-8.64-3.73-12.88,1.37-5.9,8.05-9.95,12.64-13.28,2.5-1.81,5.57-3.65,7.1-6.45,1.8-3.29,1.52-7.33,3.22-10.71,2.64-5.26,7.84-11.18,13.96-12.04,.66-.09,1.25,.01,1.76,.25,.08-.32,.21-.64,.43-.97,2.13-3.24,5.33-4.32,8.2-6.67,2.8-2.29,4.77-6.16,6.57-9.25,1.8-3.07,2.71-6.41,3.16-9.86-.46-.47-.77-1.14-.78-1.98Zm-160.67,83.2c1.16-.26,2.81,.01,3.75,.72,2.23,1.7,3.09,7.63,1.49,9.88-.39,.55-2.39,.81-2.6,.5-1.72-2.59-3.19-5.35-4.9-8.34,.89-1.16,1.44-2.57,2.26-2.76Zm5.4,40.45c-2.69-1.77-4.45-8.3-3.01-10.26,.47-.65,1.8-1.3,2.4-1.07,.81,.31,1.86,1.5,1.81,2.26-.18,2.95-.74,5.88-1.2,9.07Zm21.7-149.18c-.69,.51-2.59,.16-3.46-.49-3.49-2.58-7.02-5.21-10.04-8.29-1.11-1.13-1.46-3.72-1.05-5.38,.27-1.13,2.45-1.79,4-2.81,1.97,1.12,3.85,1.73,5.11,2.98,2.96,2.93,5.69,6.16,6.28,10.5,.16,1.16-.08,2.92-.83,3.48Zm55.67,52.56c-2.86,2.12-6.19,3.15-9.65,3.85-5.81,1.18-13.33,2.71-19.11,.71-6.45-2.24-7.88-9.25-9.38-15.1-1.42-5.55-3.69-13.39,1.43-17.65,.53-.44,1.09-.66,1.66-.72,.84-.98,1.5-2.18,2.5-2.99,1.53-1.23,3.33-1.84,5.2-2.31,4.54-1.13,9.46-2.06,14.12-2.45,1.49-.12,3.04-.12,4.61-.13,.19-.6,.61-1.16,1.31-1.57,1.25-.73,2.64-.94,3.96-1.47,1.51-.6,2.89-1.42,4.51-1.73,1.39-.26,2.82,.26,3.45,1.52,.49-.14,1.02-.24,1.65-.28,1.69-.11,3.49,.01,5.08,.59,1.67,.61,2.96,2.68,1.78,4.38-1.98,2.87-1.78,4.9-1.29,8.2,.48,3.25,.6,6.48-.24,9.69-.69,2.65-1.91,5-3.93,6.79,.44,.81,.49,1.79-.19,2.7-2.18,2.95-4.52,5.77-7.48,7.97Zm14.02,78.3c-1.81-1.63-3.76-2.89-5.04-4.64-2.32-3.16-4.47-6.5-6.19-10.01-.51-1.04,.23-3.61,1.18-4.19,1.08-.65,3.89-.44,4.47,.41,3.51,5.13,6.17,10.72,6.6,17.09,.01,.22-.33,.46-1.01,1.34Zm-5.48-121.55c-3.27,.05-5.53-2.19-5.22-4.74,.29-2.42,3.27-3.99,6.32-3.32,5.11,1.13,7.58,3.28,8.23,7.28-3.11,.28-6.22,.73-9.33,.78Zm15.28,127.2c3.34,3.97,4.77,8.73,5.04,13.87,.02,.3-.33,.63-1.12,2-.41-1.03-.55-1.61-.85-2.11-2.23-3.71-4.61-7.34-6.65-11.16-.49-.91,.13-2.41,.24-3.65,1.14,.33,2.71,.29,3.34,1.05Zm14.24-90.83c-.67-.08-1.86-1.37-1.74-1.65,1.12-2.7,2.3-5.42,3.87-7.86,.47-.73,2.43-1.14,3.34-.78,1.06,.42,1.71,1.86,2.12,2.35,.04,3.86-4.57,8.29-7.6,7.94Zm8.73-44c-.58,.39-2.45-.39-3.23-1.16-3.42-3.39-6.82-6.82-9.88-10.53-1.63-1.97-2.13-4.56,.19-6.67,1.96-1.79,4.81-1.94,6.96,.26,3.91,4,6.71,8.72,7.47,15.11-.35,.77-.6,2.37-1.52,2.99Zm9.53,3.77c-.3,3.31-.97,6.6-1.74,9.83-.26,1.12-1.3,2.05-1.98,3.06l-1-.24c-.78-4.14-1.7-8.26-2.28-12.43-.38-2.71,1.23-4.64,3.4-4.63,2.93,.02,3.8,2.08,3.59,4.41Z"/>
        <path class="cls-1" d="M678.65,94.36c1.97,1.12,3.85,1.73,5.11,2.98,2.96,2.93,5.69,6.16,6.28,10.5,.16,1.16-.08,2.92-.83,3.48-.69,.51-2.59,.16-3.46-.49-3.49-2.58-7.02-5.21-10.04-8.29-1.11-1.13-1.46-3.72-1.05-5.38,.27-1.13,2.45-1.79,4-2.81Z"/>
        <path class="cls-1" d="M758.9,242.17c-1.81-1.63-3.76-2.89-5.04-4.64-2.32-3.16-4.47-6.5-6.19-10.01-.51-1.04,.23-3.61,1.18-4.19,1.08-.65,3.89-.44,4.47,.41,3.51,5.13,6.17,10.72,6.6,17.09,.01,.22-.33,.46-1.01,1.34Z"/>
        <path class="cls-1" d="M762.75,119.85c-3.11,.28-6.22,.73-9.33,.78-3.27,.05-5.53-2.19-5.22-4.74,.29-2.42,3.27-3.99,6.32-3.32,5.11,1.13,7.58,3.28,8.23,7.28Z"/>
        <path class="cls-1" d="M796.48,129.41c-.78-4.14-1.7-8.26-2.28-12.43-.38-2.71,1.23-4.64,3.4-4.63,2.93,.02,3.8,2.08,3.59,4.41-.3,3.31-.97,6.6-1.74,9.83-.26,1.12-1.3,2.05-1.98,3.06l-1-.24Z"/>
        <path class="cls-1" d="M790.54,149.06c.04,3.86-4.57,8.29-7.6,7.94-.67-.08-1.86-1.37-1.74-1.65,1.12-2.7,2.3-5.42,3.87-7.86,.47-.73,2.43-1.14,3.34-.78,1.06,.42,1.71,1.86,2.12,2.35Z"/>
        <path class="cls-1" d="M659.85,222.8c0-1.87,1.44-2.57,2.26-2.76,1.16-.26,2.81,.01,3.75,.72,2.23,1.7,3.09,7.63,1.49,9.88-.39,.55-2.39,.81-2.6,.5-1.72-2.59-3.19-5.35-4.9-8.34Z"/>
        <path class="cls-1" d="M772.62,263.69c-1-.65-.37-1.22-.91-2.08-2.23-3.71-4.55-7.38-6.59-11.19-.49-.91-.76-2.62,.24-3.65,1.43-.25,2.71,.29,3.34,1.05,3.34,3.97,5.53,9,5.04,13.87,.02,.3-.33,.63-1.12,2Z"/>
        <path class="cls-1" d="M667.51,260.5c-2.69-1.77-4.45-8.3-3.01-10.26,.47-.65,1.8-1.3,2.4-1.07,.81,.31,1.86,1.5,1.81,2.26-.18,2.95-.74,5.88-1.2,9.07Z"/>
        <g>
          <path d="M824.25,131.21c-.35,4.33-.56,7.79-.92,11.23-.64,6.17-3.28,11.44-7.79,15.64-4.85,4.54-9.92,8.85-14.9,13.25-2.74,2.44-5.6,4.77-8.22,7.32-3.01,2.89-5.02,6.41-5.36,10.66-.23,3.03-1.8,5.17-4.15,6.9-3.11,2.29-6.26,4.56-9.31,6.94-1.63,1.28-3.21,2.68-4.58,4.24-3.06,3.52-3.21,6.41-.59,10.25,1.67,2.46,3.53,4.79,5.33,7.15,7.16,9.39,14.41,18.71,21.48,28.17,4.29,5.74,7.73,11.99,10.33,18.68,1.66,4.28,2.09,8.6,1.06,13.12-1.11,4.82-3.9,7.93-8.45,9.98-10.76,4.85-21.64,4.12-32.65,1.36-9.41-2.35-16.87-7.78-23.31-14.77-2.52-2.73-4.02-6.1-5.4-9.52-1.04-2.58-1.96-5.2-3.1-7.73-.98-2.16-1.99-4.35-3.35-6.27-2.49-3.51-4.58-7.2-6.16-11.17-1.51-3.84-3.67-7.24-6.68-10.09-1.97-1.89-3.32-4.18-4.29-6.72-.53-1.39-1.03-2.79-1.64-4.14-.52-1.17-1.01-2.45-1.84-3.37-3.61-4.02-8.17-6.65-13.39-7.84-3.14-.71-5.85,.85-7.83,3.33-2.69,3.38-4.08,7.27-3.71,11.62,.32,3.74,.69,7.49,1.3,11.2,.96,5.86,.32,11.65-.21,17.48-.38,4.14-.42,8.31-.5,12.45-.07,3.57,.08,7.14,.02,10.71-.09,5.64-2.65,9.55-8.07,11.6-4.09,1.54-8.08,3.3-12.07,5.09-4.11,1.83-8.12,1.64-12.08-.26-1.22-.58-2.36-.83-3.7-.75-4.62,.24-8.33-1.54-11.11-5.2-3.59-4.71-5.22-10.18-6.22-15.9-.93-5.26-.29-10.49,.35-15.69,.29-2.35,.14-4.54-.83-6.67-2.88-6.32-3.33-12.93-2.79-19.77,.67-8.49,1.04-17.01,1.39-25.52,.18-4.55-.14-9.11,.11-13.65,.17-2.95,.75-5.91,1.56-8.74,1.79-6.24,2.62-12.54,2.69-19.05,.2-17.44,.64-34.89,1.2-52.32,.2-6.17,1.69-12.15,4.29-17.82,3.75-8.14,10.27-13.53,18.02-17.5,4.2-2.14,8.75-2.07,12.76,.74,3.09,2.16,6.28,2.63,9.88,1.9,3.06-.62,6.2-.42,9.14,.55,10.21,3.33,20.26,1.94,30.17-1.07,7.14-2.17,14.31-4.12,21.68-5.3,2.64-.42,5.33-.74,8-.74,8.94,0,17.89,.03,26.82,.31,6,.18,11.56,2.27,16.33,5.83,7.32,5.45,14.64,10.88,21.03,17.5,4.78,4.94,7.62,10.61,8.57,17.25,.75,5.28,1.18,10.61,1.67,15.1Zm-6.7,11.92c.28-3.15,.74-6.32,.69-9.47-.1-7.15-1.11-14.22-3.01-21.14-.86-3.13-2.52-5.71-4.7-8.13-6.19-6.86-13.81-11.93-21.21-17.26-3.35-2.42-7.2-3.86-11.29-4.37-9.28-1.15-18.63-1.28-27.98-1.19-2.18,.02-4.42-.04-6.52,.44-6.48,1.47-12.97,2.99-19.34,4.86-5.64,1.66-11.29,3.09-17.17,3.54-5.98,.46-11.92,.31-17.66-1.76-3.07-1.11-6.19-1.31-9.39-.68-3.89,.75-7.51,.1-10.77-2.23-.48-.35-1-.64-1.49-.98-2.37-1.61-4.91-1.77-7.33-.36-6.53,3.83-12.2,8.5-14.98,15.92-2.04,5.44-3.2,11.07-3.42,16.83-.53,13.96-.78,27.95-1.28,41.92-.22,6.33-.54,12.68-1.26,18.97-.4,3.51-1.89,6.87-2.54,10.37-.65,3.49-1.41,7.08-1.19,10.58,.76,12.53-.21,24.97-1.29,37.41-.43,4.93-.09,9.7,1.69,14.32,.99,2.54,1.48,5.14,1.36,7.84-.12,2.58-.31,5.15-.46,7.72,.05,0,.1,0,.15,.01,0,2.17-.26,4.39,.05,6.53,.81,5.5,2.12,10.88,5.64,15.45,1.96,2.52,4.51,3.79,7.69,3.89,1.18,.04,2.41-.03,3.56,.21,3.44,.73,6.74,.21,9.93-1.02,3.88-1.51,7.7-3.19,11.59-4.72,2.27-.89,3.59-2.43,3.79-4.84,.21-2.47,.4-4.93,.52-7.41,.26-6.03,.23-12.1,.83-18.1,.45-4.66,.75-9.28,.35-13.93-.33-3.65-.96-7.27-1.4-10.91-.75-6.18,.66-11.83,4.3-16.88,3.88-5.38,10.44-7.52,16.6-5.14,3.21,1.23,6.22,3.05,9.25,4.73,3.54,1.97,5.82,5.03,7.23,8.78,.52,1.4,.96,2.81,1.43,4.23,.73,2.2,1.83,4.16,3.58,5.74,3.31,3,5.5,6.71,7.09,10.85,.98,2.59,1.96,5.25,3.44,7.56,3.67,5.72,6.53,11.78,8.8,18.15,2.17,6.12,6.03,10.87,11.29,14.58,1.46,1.03,2.9,2.09,4.42,3.03,6.96,4.33,14.81,5.8,22.76,6.09,5.3,.2,10.63-.71,15.69-2.91,4.97-2.17,7.46-5.91,6.47-11.24-.38-2.03-.88-4.12-1.8-5.94-2.14-4.24-4.19-8.61-6.95-12.43-7.85-10.85-16.03-21.46-24.06-32.18-2.03-2.7-4.12-5.36-5.92-8.2-3.31-5.23-3.2-10.53,.42-15.57,1.39-1.92,2.99-3.75,4.78-5.28,3.11-2.63,6.36-5.09,9.7-7.41,2.1-1.47,3.36-3.24,3.7-5.77,.56-4.29,2.6-7.93,5.57-10.95,2.36-2.4,4.99-4.53,7.56-6.72,6.88-5.86,13.83-11.63,19.49-18.75,1.59-2,2.8-4.1,3.03-6.67Z"/>
          <path class="cls-1" d="M731.72,125.51c-.04,.06-.09,.14-.16,.25-.41,.12-.82,.22-1.23,.31,.09-.01,.17-.01,.24-.02-.05,0-.1,.01-.16,.02-2.29,.29-4.67,.11-6.98,.1-5.79,0-11.81,.51-16.35,4.51-8.93,7.89-5.24,22.57-.45,31.84,5.56,10.75,23.68,10.86,32.88,4.76,.76-.51,1.47-1.06,2.1-1.6,2.34,.25,4.83-.43,7.04-2.48,3.96-3.67,7.38-7.41,8.13-12.96,.76-5.73-1.21-9.64,2.59-14.59,3.02-3.93,.6-10.27-3.29-12.56-3.77-2.2-7.57-1.3-10.5,1.14-3.82-3.14-10.16-3.69-13.87,1.32,0-.02,.01-.03,.01-.05Zm.03-.08s.04-.05,.04-.07c-.01,.01-.02,.03-.04,.07Zm86.5,8.23c.05,3.15-.42,6.32-.69,9.47-.22,2.57-1.44,4.67-3.03,6.67-5.66,7.12-12.61,12.89-19.49,18.75-2.57,2.19-5.2,4.32-7.56,6.72-2.98,3.02-5.01,6.66-5.57,10.95-.34,2.53-1.6,4.3-3.7,5.77-3.34,2.32-6.59,4.78-9.7,7.41-1.79,1.53-3.39,3.36-4.78,5.28-3.62,5.04-3.73,10.34-.42,15.57,1.8,2.84,3.89,5.5,5.92,8.2,8.03,10.71,16.22,21.32,24.06,32.18,2.76,3.82,4.81,8.19,6.95,12.43,.93,1.82,1.43,3.91,1.8,5.94,.99,5.33-1.5,9.07-6.47,11.24-5.06,2.2-10.39,3.12-15.69,2.91-7.95-.3-15.8-1.76-22.76-6.09-1.52-.94-2.97-2-4.42-3.03-5.26-3.71-9.12-8.47-11.29-14.58-2.26-6.37-5.13-12.43-8.8-18.15-1.49-2.31-2.47-4.97-3.44-7.56-1.59-4.15-3.78-7.86-7.09-10.85-1.74-1.58-2.84-3.54-3.58-5.74-.47-1.42-.91-2.83-1.43-4.23-1.41-3.74-3.69-6.81-7.23-8.78-3.04-1.68-6.04-3.5-9.25-4.73-6.17-2.38-12.72-.24-16.6,5.14-3.64,5.04-5.06,10.7-4.3,16.88,.44,3.64,1.07,7.26,1.4,10.91,.41,4.65,.1,9.27-.35,13.93-.59,6-.56,12.07-.83,18.1-.12,2.48-.31,4.94-.52,7.41-.2,2.42-1.52,3.95-3.79,4.84-3.88,1.53-7.7,3.21-11.59,4.72-3.19,1.23-6.48,1.75-9.93,1.02-1.15-.24-2.37-.17-3.56-.21-3.18-.1-5.74-1.38-7.69-3.89-3.52-4.57-4.83-9.95-5.64-15.45-.32-2.14-.05-4.36-.05-6.53-.05-.01-.1-.01-.15-.01,.15-2.57,.34-5.14,.46-7.72,.12-2.7-.37-5.3-1.36-7.84-1.78-4.62-2.12-9.39-1.69-14.32,1.08-12.44,2.06-24.89,1.29-37.41-.21-3.5,.54-7.09,1.19-10.58,.65-3.5,2.14-6.86,2.54-10.37,.72-6.29,1.04-12.64,1.26-18.97,.5-13.97,.75-27.96,1.28-41.92,.22-5.76,1.39-11.38,3.42-16.83,2.78-7.42,8.45-12.09,14.98-15.92,2.42-1.42,4.95-1.25,7.33,.36,.49,.34,1.01,.63,1.49,.98,3.26,2.33,6.88,2.99,10.77,2.23,3.2-.63,6.32-.43,9.39,.68,5.74,2.07,11.68,2.22,17.66,1.76,5.88-.45,11.54-1.88,17.17-3.54,6.37-1.88,12.86-3.39,19.34-4.86,2.1-.48,4.34-.42,6.52-.44,9.35-.09,18.69,.04,27.98,1.19,4.1,.51,7.94,1.96,11.29,4.37,7.4,5.33,15.02,10.41,21.21,17.26,2.18,2.43,3.84,5,4.7,8.13,1.9,6.92,2.9,13.98,3.01,21.14Z"/>
          <path class="cls-1" d="M731.89,125.66c-.1,.03-.2,.06-.32,.09,.04-.07,.09-.13,.13-.19-.01,.07,.03,.14,.18,.1Z"/>
          <path class="cls-1" d="M731.72,125.51s-.01,.03-.01,.05c-.04,.06-.09,.12-.13,.19,0,0-.01,.01-.02,.01,.07-.11,.12-.19,.16-.25Z"/>
          <path class="cls-1" d="M731.58,125.76c-.07,.09-.13,.18-.19,.28,.07-.1,.12-.19,.17-.26,.01,0,.02-.01,.02-.01Z"/>
        </g>
        <path d="M751.65,119.92c2.66,.28,5.34,.48,7.99,.86,3.77,.54,4.96,3.03,3.16,6.43-.97,1.84-1.97,3.66-2.93,5.51-.95,1.84-1.18,3.75-.45,5.74,1.56,4.25,1.13,8.4-.82,12.4-2.04,4.18-4.11,8.36-6.33,12.45-2.66,4.89-6.76,7.97-12.3,9.03-5.75,1.1-11.44,2.39-17.39,2.23-7.96-.21-17.94-6.7-18.84-17.09-.22-2.52-.4-5.07-1.77-7.42-.58-1-.56-2.53-.39-3.76,.71-5.29,2.53-10.17,5.85-14.42,2.96-3.78,6.95-5.45,11.66-5.65,2.58-.11,5.21,0,7.71-.5,3.39-.69,6.72-1.73,9.98-2.89,4.82-1.71,9.67-3.03,14.86-2.94Zm4.95,5.84c-1.53-.25-2.68-.5-3.85-.61-5.07-.5-9.87,.63-14.54,2.5-3.99,1.6-8.09,2.74-12.38,3.1-2.27,.19-4.56,.27-6.85,.3-3.81,.06-6.6,1.88-8.74,4.87-1.97,2.76-3.38,5.79-4.38,9,1.87,2.12,2.8,4.61,3.45,7.23,.6,2.4,1.17,4.81,1.71,7.23,.48,2.12,1.68,3.75,3.29,5.17,3.43,3.03,7.49,4.08,11.9,3.55,3.74-.45,7.41-1.42,11.14-1.94,4.61-.64,7.93-3.05,10.14-6.99,1.94-3.45,3.64-7.04,5.51-10.53,1.62-3.04,2.02-6.14,.88-9.45-1.1-3.17-.62-6.26,.74-9.25,.57-1.25,1.17-2.49,1.97-4.18Z"/>
        <path d="M799.22,107.41c-.78-.49-1.14-.62-1.38-.88-2.65-2.88-5.85-5.01-9.25-6.88-2.23-1.23-2.89-2.4-2.22-3.86,.59-1.29,2.57-1.87,4.5-1.03,4.11,1.79,6.97,4.85,8.31,9.15,.29,.93,.04,2.04,.04,3.5Z"/>
        <path d="M671.23,238.66c-.7-1.04-1.09-1.46-1.3-1.96-1.54-3.67-2.52-7.47-2.74-11.45-.01-.2-.06-.39-.06-.59-.03-2.14,1.01-3.62,2.6-3.72,1.48-.09,2.72,.99,2.97,3.1,.57,4.72,.34,9.41-1.47,14.63Z"/>
        <path d="M699.52,104.06c-2.01,1.26-3.51,1.31-5.14,1.03-2.77-.47-5.42-1.21-7.73-2.84-1.87-1.32-2.41-3.09-1.47-4.54,.89-1.37,2.59-1.7,4.51-.68,3.48,1.86,6.32,4.57,9.84,7.02Z"/>
        <path d="M766.85,242.34c-.51-.3-.81-.39-.96-.58-2.6-3.34-5.17-6.7-7.79-10.03-1.34-1.71-1.6-3.04-.64-3.91,.99-.9,2.38-.5,3.7,1.24,2.63,3.47,4.99,7.1,5.76,11.49,.09,.5-.03,1.03-.07,1.78Z"/>
        <path d="M787.38,159.71c.73-3.07,1.84-6,4.44-8.1,.59-.48,1.69-.61,2.49-.48,.65,.11,1.56,.76,1.69,1.33,.17,.71-.08,1.91-.6,2.33-2.35,1.87-4.87,3.54-7.32,5.28l-.7-.35Z"/>
        <path d="M803.85,119.05c-.44-.84-.97-1.64-1.3-2.52-.64-1.66-1.21-3.34-1.75-5.04-.65-2.04-.21-3.36,1.16-3.73,1.53-.42,2.77,.56,3.15,2.7,.21,1.16,.19,2.37,.14,3.55-.04,.88-.34,1.74-.47,2.62-.12,.75-.17,1.52-.25,2.27l-.68,.15Z"/>
        <path d="M671.33,260.78c-2.03-2.39-2.33-5.01-1.72-7.79,.25-1.13,1.01-1.94,2.33-1.81,1.3,.13,2,1.03,1.97,2.19-.08,2.63-.26,5.29-2.58,7.41Z"/>
        <path d="M778.76,262.82c-.9-.78-1.47-1.07-1.72-1.54-1.12-2.06-2.24-4.13-3.18-6.28-.36-.83-.65-2.04,.56-2.56,1.11-.49,1.88,.18,2.33,1.18,1.2,2.73,2.78,5.38,2.02,9.2Z"/>
        <path d="M771.11,184.75c.65-3.35,2.18-5.52,4.45-7.15,1.09-.78,2.6-.38,3.16,.54,.6,.99,.17,1.96-1.27,2.82-1.92,1.15-3.85,2.3-6.33,3.78Z"/>
      </g>
      <g>
        <path class="cls-8" d="M943.34,80.38h8.24c8.52,.56,16.55,2.85,24.36,6.28,6.23,2.73,11.24,6.89,15.46,12.05,6.08,7.42,9.48,15.95,9.89,25.6,.14,3.29,.53,6.6,.35,9.87-.31,5.93-3.03,10.99-6.63,15.53-2.76,3.49-8.45,4.55-12.49,2.61-3.15-1.51-5.6-3.83-7.43-6.78-1.02-1.65-2.13-3.29-2.81-5.08-1.77-4.64-5.52-7.47-9.39-9.93-3.75-2.38-8.16-3.01-12.63-2.56-3.19,.32-6.4,.56-9.54,1.15-4.48,.84-8.68,.13-12.77-1.66-3.94-1.73-7.96-2.87-12.35-2.89-11-.05-21.43,5.39-25.34,16.73-2.73,7.91-3.43,15.84-1.73,24.01,.73,3.52,2.53,6.4,5.05,8.96,6.82,.06,13.46-.83,19.77-3.79,6.84-3.21,13.83-6.1,20.63-9.38,5.45-2.62,11.09-2.51,16.81-1.78,11.33,1.43,21.63,5.93,30.74,12.43,13.72,9.78,21.29,23.01,19.94,40.56-.47,6.07,.04,12.21,.12,18.31,.09,7.18,.31,14.37,.27,21.55-.03,5.53-.3,11.06-.63,16.58-.23,3.91-1.98,7.24-4.56,10.16-2.61,2.94-5.6,5.39-9.13,7.11-6,2.92-12.05,5.74-18.09,8.58-4.98,2.35-10.16,3.76-15.73,3.5-5.16-.24-10.25,.45-15.37,1.05-12.01,1.41-23.97,1.29-35.85-1.66-3.39-.84-7.21-.82-10.69-.27-9.02,1.45-17.55,.19-25.94-3.16-5.12-2.04-10.3-3.97-15.53-5.72-10.45-3.51-16.66-10.88-19.83-21.17-2.05-6.65-1.63-13.25,.62-19.72,2.09-6.01,6.48-10.03,12.04-12.84,6.87-3.47,14.1-4.78,21.75-3.49,2.96,.5,5.98,.77,8.88,1.49,6.74,1.68,11.38,5.98,14.45,12.12,1,1.99,2.03,3.96,3.07,5.93,3.23,6.1,8.8,8.12,15.19,8.53,2.81,.18,5.63,.04,8.45,.03,4.46-.02,8.63,1.07,12.51,3.27,1.85,1.05,3.69,2.14,5.57,3.15,3.01,1.62,6.19,2.08,9.57,1.39,5.91-1.21,11.41-3.1,15.23-8.21,2.13-2.85,3.66-5.88,4.17-9.46,.48-3.36,1.49-6.51,3.23-9.55,1.9-3.34,3.71-6.95,4.48-10.67,1.09-5.2-.2-10.3-3.79-14.41-1.74-1.99-4.41-2.33-6.98-2.37-3.11-.04-6.22-.02-9.32-.04-3.6-.03-6.72-1.25-8.9-4.17-2.14-2.88-4.97-3.76-8.38-3.75-10.15,.02-20.11,1.2-29.88,4.06-12.51,3.66-24.91,3.16-37.06-1.59-5.93-2.32-11.29-5.66-15.78-10.18-5.67-5.72-7.66-13.11-8.82-20.78-2.01-13.33-.07-26.3,3.75-39.08,1.72-5.75,3.44-11.49,5.13-17.25,.22-.73,.44-1.54,.36-2.28-.97-9.13,2.91-16.15,9.47-22.04,8.58-7.7,18.45-11.18,30-9.2,3.44,.59,6.88,1.19,10.31,1.85,5.76,1.1,11.46,.14,17.06-.87,5.51-.99,10.89-2.68,16.32-4.08,3.37-.86,6.74-1.75,10.11-2.62Zm-98.73,86.29c.31,3.47,.48,6.97,.97,10.42,1.02,7.07,3.33,13.55,9.06,18.33,8.92,7.43,19.28,10.92,30.76,11.43,5.52,.24,10.72-1.22,16-2.55,6-1.51,12.06-2.86,18.16-3.86,4.19-.69,8.49-.74,12.75-.98,4.87-.28,9.26,.75,12.44,4.89,1.06,1.37,2.54,2.05,4.3,2.11,3.88,.12,7.76,.18,11.63,.42,4.15,.25,8.04,1.68,10.3,5.18,4.71,7.27,6.38,15,2.5,23.41-2.46,5.34-4.56,10.83-5.14,16.85-.4,4.11-2.4,7.76-5.52,10.65-5.29,4.9-11.58,7.72-18.67,8.72-2.37,.33-4.82,.4-7.22,.26-3.82-.22-6.93-2.38-10.05-4.32-4.35-2.69-9-3.97-14.12-3.66-2.13,.13-4.28,.17-6.41,.05-8.33-.48-15.29-3.42-19.48-11.16-.97-1.79-1.92-3.6-3.03-5.31-1.16-1.78-2.38-3.55-3.79-5.13-3.09-3.46-7.36-4.46-11.68-5.35-8.15-1.67-16.01-1.13-23.5,2.75-4.08,2.12-7.46,4.97-9.21,9.33-5.71,14.16,2.26,28.93,13.85,33.53,8.01,3.18,16.17,6.01,24.27,8.97,4.85,1.77,9.81,1.87,14.91,1.19,4.98-.67,10.05-1.3,15.03,.11,4.99,1.4,10.06,2.04,15.23,1.95,4.95-.08,9.92,.17,14.85-.21,7.23-.56,14.4-2.26,21.71-1,.47,.08,.97,0,1.45-.07,4.17-.54,8.16-1.71,11.94-3.52,5.59-2.67,11.2-5.33,16.7-8.18,5.03-2.61,9.44-5.99,10.68-11.95,.65-3.12,1.02-6.33,1.14-9.51,.22-5.63,.22-11.27,.17-16.9-.04-3.68-.37-7.36-.51-11.04-.19-5.04-.36-10.08-.48-15.11-.11-4.74,.34-9.54-.3-14.2-1.53-11.18-7.45-20.02-16.64-26.26-6.15-4.17-12.79-7.73-20-9.95-9.41-2.91-18.55-4.1-27.85,1.1-6.65,3.72-13.93,6.33-20.97,9.35-4.25,1.82-8.7,2.8-13.34,2.21-1.68-.21-3.64-.54-4.87-1.55-3.4-2.76-6.31-6.02-7.52-10.43-2.19-7.98-1.68-15.94,.36-23.84,1.34-5.19,3.25-10.17,6.84-14.29,7.62-8.78,17.66-10.75,28.55-9.63,3.3,.34,6.47,1.92,9.73,2.83,2.03,.56,4.14,1.37,6.18,1.28,4.05-.18,8.08-.95,12.12-1.38,10.05-1.07,18.68,1.18,24.15,10.56,1.51,2.59,2.98,5.22,4.37,7.88,1.46,2.82,3.4,5.2,6.04,6.95,2.45,1.63,5.69,1.34,7.66-.87,2.67-3,4.67-6.41,5.41-10.45,.93-5.06-.13-10.02-.61-15.03-.86-8.97-5.18-16.13-10.96-22.63-2.8-3.15-6.14-5.6-9.95-7.47-7.13-3.51-14.66-5.44-22.52-6.46-5.35-.7-10.42-.09-15.44,1.68-2.28,.81-4.62,1.45-6.93,2.18-8.29,2.61-16.78,4.25-25.48,3.82-5.01-.25-10.01-1.14-14.94-2.14-4.87-.99-9.7-.84-14.44,.14-7.01,1.44-12.6,5.5-17.03,10.98-4.05,5.01-6.07,10.72-4.75,17.31,.2,1.01,.09,2.15-.15,3.16-.92,3.96-1.89,7.91-2.96,11.83-2.92,10.69-5.41,21.44-5.74,32.62Z"/>
        <path class="cls-1" d="M844.61,166.67c.33-11.18,2.82-21.94,5.74-32.62,1.07-3.92,2.03-7.87,2.96-11.83,.24-1.02,.35-2.16,.15-3.16-1.32-6.59,.7-12.31,4.75-17.31,4.43-5.48,10.03-9.54,17.03-10.98,4.74-.97,9.57-1.12,14.44-.14,4.93,1,9.93,1.89,14.94,2.14,8.7,.43,17.19-1.21,25.48-3.82,2.31-.73,4.65-1.38,6.93-2.18,5.02-1.77,10.09-2.38,15.44-1.68,7.86,1.03,15.39,2.96,22.52,6.46,3.81,1.87,7.15,4.32,9.95,7.47,5.78,6.5,10.1,13.66,10.96,22.63,.48,5.02,1.54,9.97,.61,15.03-.74,4.04-2.74,7.45-5.41,10.45-1.97,2.21-5.21,2.49-7.66,.87-2.64-1.76-4.58-4.14-6.04-6.95-1.38-2.66-2.85-5.29-4.37-7.88-5.48-9.38-14.11-11.64-24.15-10.56-4.05,.43-8.07,1.2-12.12,1.38-2.04,.09-4.15-.72-6.18-1.28-3.26-.9-6.42-2.49-9.73-2.83-10.89-1.12-20.93,.85-28.55,9.63-3.58,4.13-5.5,9.1-6.84,14.29-2.04,7.9-2.55,15.86-.36,23.84,1.21,4.41,4.12,7.67,7.52,10.43,1.24,1,3.19,1.33,4.87,1.55,4.64,.59,9.1-.39,13.34-2.21,7.04-3.01,14.31-5.63,20.97-9.35,9.3-5.2,18.44-4.01,27.85-1.1,7.21,2.23,13.85,5.78,20,9.95,9.2,6.25,15.11,15.08,16.64,26.26,.64,4.66,.19,9.46,.3,14.2,.12,5.04,.29,10.08,.48,15.11,.14,3.68,.48,7.36,.51,11.04,.06,5.63,.05,11.27-.17,16.9-.12,3.18-.49,6.39-1.14,9.51-1.24,5.96-5.65,9.34-10.68,11.95-5.5,2.85-11.11,5.51-16.7,8.18-3.78,1.81-7.77,2.98-11.94,3.52-.48,.06-.98,.15-1.45,.07-7.32-1.26-14.48,.45-21.71,1-4.93,.38-9.9,.13-14.85,.21-5.18,.09-10.24-.55-15.23-1.95-4.98-1.4-10.05-.77-15.03-.11-5.1,.68-10.06,.58-14.91-1.19-8.1-2.96-16.26-5.78-24.27-8.97-11.59-4.6-19.55-19.36-13.85-33.53,1.76-4.36,5.13-7.21,9.21-9.33,7.49-3.88,15.36-4.42,23.5-2.75,4.32,.89,8.6,1.89,11.68,5.35,1.41,1.58,2.63,3.35,3.79,5.13,1.11,1.7,2.06,3.52,3.03,5.31,4.19,7.74,11.15,10.68,19.48,11.16,2.13,.12,4.28,.08,6.41-.05,5.12-.31,9.77,.97,14.12,3.66,3.12,1.93,6.23,4.1,10.05,4.32,2.4,.14,4.84,.07,7.22-.26,7.09-1,13.38-3.82,18.67-8.72,3.12-2.89,5.12-6.54,5.52-10.65,.58-6.02,2.68-11.51,5.14-16.85,3.88-8.41,2.21-16.13-2.5-23.41-2.27-3.5-6.16-4.93-10.3-5.18-3.87-.23-7.75-.3-11.63-.42-1.76-.05-3.25-.74-4.3-2.11-3.18-4.13-7.57-5.16-12.44-4.89-4.26,.24-8.56,.29-12.75,.98-6.1,1.01-12.16,2.35-18.16,3.86-5.27,1.33-10.48,2.79-16,2.55-11.49-.51-21.85-4-30.76-11.43-5.73-4.78-8.04-11.26-9.06-18.33-.5-3.45-.66-6.94-.97-10.42Zm33.15,89.86c-1.02-2.03-1.73-4.18-3.03-5.88-2.43-3.16-5.48-5.74-9.04-7.6-2.69-1.4-5.47-1.85-8.27-.13-2.67,1.64-2.88,4.92-.29,6.57,2.36,1.51,4.81,2.87,7.27,4.19,2.37,1.28,4.73,2.64,7.25,3.56,1.77,.65,3.85,1.49,6.12-.72Zm106.42-3.97c.06-4.42-1.93-6.99-4.92-7.16-2.95-.17-5.32,2.04-5.55,5.45-.31,4.62-.44,9.25-.63,13.88-.06,1.56-.17,3.32,1.73,3.87,1.69,.48,2.91-.68,4.02-1.81,.2-.21,.38-.44,.55-.67,3.15-4.27,3.6-9.45,4.8-13.55Zm-3.68-48.94c.08-.92,.2-1.48,.18-2.04-.17-5.09-7.28-12.23-10.94-13.72-1.66-.68-3.93,.15-4.65,1.41-.81,1.41-.53,3.43,.7,4.78,.39,.43,.84,.79,1.3,1.15,1.51,1.19,2.99,2.42,4.57,3.52,2.66,1.85,5.23,3.89,8.85,4.9Zm-113.97-23.82c1.26-5.51,1.27-10.42,.97-15.32-.13-2.08-1.78-3.11-3.91-3.03-1.82,.06-3.15,.8-3.45,2.89-.69,4.73-.57,9.46,2.91,13.3,.78,.86,2.02,1.29,3.47,2.17Zm111.24-76.51c-.02-.16-.02-.45-.09-.73-.89-3.37-8.4-8.47-11.9-8.03-2.01,.25-4.02,2.31-2.41,4.29,2.82,3.47,6.06,6.49,10.56,7.68,2.03,.54,3.9-1.02,3.84-3.21Zm-130.84,170.99c-1.05-2.46-2-4.23-2.58-6.11-1.17-3.78-2.09-7.64-3.2-11.44-.56-1.93-1.65-2.74-3.03-2.53-1.31,.21-2.23,1.45-2.36,3.26-.03,.38,0,.77,.07,1.15,.96,6.25,4.07,11.2,9.08,14.98,.35,.26,.86,.3,2.02,.68Zm11.16-89.02c-.86-2.82-1.74-5.54-2.51-8.3-.39-1.39-.53-2.86-.85-4.27-.45-1.95-1.66-3.08-3.06-2.96-1.51,.13-2.85,1.74-2.62,3.63,.52,4.25,2.02,8.09,5.44,10.91,1.04,.86,2.2,1.59,3.62,.98Zm126.53,13.36c-.19-1.61-.23-2.72-.46-3.79-.74-3.45-2.75-6.12-5.44-8.29-1.08-.87-2.33-1.01-3.44-.05-.95,.82-.77,2.42,.33,3.61,.33,.35,.75,.62,1.08,.97,2.06,2.16,4.09,4.35,6.17,6.49,.33,.35,.85,.52,1.76,1.06Zm-118.96-95.18c-2.05-.18-2.49-.15-3.46,.79-2.04,1.99-3.06,4.42-2.9,7.31,.09,1.51,.94,2.37,2.35,2.47,1.46,.11,1.86-.92,2.11-2.22,.52-2.74,1.22-5.44,1.9-8.35Zm30.41-2.01c-3.03-1.61-4.76-2.23-6.45-1.68-.85,.28-1.82,1.16-2.09,1.98-.22,.68,.25,1.98,.86,2.46,2.25,1.81,6.72,.12,7.68-2.76Zm-20.74,3.38c-3.07,.43-5.13,1.43-6.62,3.47-.66,.9-.6,1.96,.34,2.55,.5,.32,1.73,.35,2,0,1.42-1.75,2.64-3.67,4.27-6.03Zm111.06,27.36c1.55-1.95,1.44-3.67,1.28-5.37-.11-1.14-.62-2.22-1.97-1.93-1.27,.27-1.52,1.33-1.07,2.52,.54,1.42,1.05,2.85,1.76,4.78Z"/>
        <path class="cls-1" d="M877.76,256.53c-2.27,2.21-4.35,1.36-6.12,.72-2.51-.92-4.88-2.28-7.25-3.56-2.46-1.33-4.92-2.69-7.27-4.19-2.59-1.66-2.37-4.94,.29-6.57,2.8-1.72,5.58-1.27,8.27,.13,3.56,1.86,6.61,4.44,9.04,7.6,1.3,1.7,2.01,3.85,3.03,5.88Z"/>
        <path class="cls-1" d="M984.18,252.56c-1.19,4.1-1.64,9.28-4.8,13.55-.17,.23-.35,.47-.55,.67-1.11,1.13-2.33,2.3-4.02,1.81-1.9-.54-1.79-2.31-1.73-3.87,.18-4.63,.32-9.26,.63-13.88,.23-3.41,2.6-5.62,5.55-5.45,2.98,.17,4.98,2.74,4.92,7.16Z"/>
        <path class="cls-1" d="M980.5,203.62c-3.62-1.01-6.19-3.05-8.85-4.9-1.58-1.1-3.05-2.33-4.57-3.52-.45-.36-.91-.72-1.3-1.15-1.23-1.35-1.51-3.37-.7-4.78,.72-1.26,2.99-2.09,4.65-1.41,3.66,1.49,10.77,8.63,10.94,13.72,.02,.56-.09,1.12-.18,2.04Z"/>
        <path class="cls-1" d="M866.53,179.79c-1.45-.88-2.7-1.31-3.47-2.17-3.48-3.84-3.61-8.57-2.91-13.3,.3-2.09,1.64-2.82,3.45-2.89,2.13-.07,3.78,.96,3.91,3.03,.3,4.9,.29,9.81-.97,15.32Z"/>
        <path class="cls-1" d="M977.77,103.28c.06,2.19-1.82,3.75-3.84,3.21-4.5-1.19-7.74-4.21-10.56-7.68-1.61-1.99,.4-4.04,2.41-4.29,3.51-.44,11.02,4.66,11.9,8.03,.07,.28,.07,.57,.09,.73Z"/>
        <path class="cls-11" d="M846.93,274.27c-1.15-.38-1.67-.42-2.02-.68-5.01-3.78-8.13-8.73-9.08-14.98-.06-.38-.1-.77-.07-1.15,.13-1.81,1.04-3.05,2.36-3.26,1.37-.22,2.46,.6,3.03,2.53,1.11,3.8,2.03,7.65,3.2,11.44,.58,1.89,1.53,3.66,2.58,6.11Z"/>
        <path class="cls-2" d="M858.1,185.25c-1.42,.61-2.58-.12-3.62-.98-3.41-2.83-4.92-6.66-5.44-10.91-.23-1.89,1.11-3.51,2.62-3.63,1.4-.12,2.61,1.01,3.06,2.96,.33,1.41,.47,2.88,.85,4.27,.77,2.76,1.65,5.48,2.51,8.3Z"/>
        <path class="cls-2" d="M984.63,198.62c-.92-.54-1.43-.71-1.76-1.06-2.08-2.14-4.11-4.33-6.17-6.49-.33-.35-.75-.61-1.08-.97-1.1-1.19-1.28-2.79-.33-3.61,1.11-.96,2.36-.82,3.44,.05,2.69,2.17,4.7,4.84,5.44,8.29,.23,1.07,.27,2.18,.46,3.79Z"/>
        <path class="cls-4" d="M865.67,103.43c-.67,2.92-1.38,5.62-1.9,8.35-.25,1.3-.66,2.33-2.11,2.22-1.41-.1-2.26-.97-2.35-2.47-.16-2.89,.86-5.32,2.9-7.31,.97-.94,1.41-.97,3.46-.79Z"/>
        <path class="cls-1" d="M896.08,101.42c-.97,2.88-5.43,4.57-7.68,2.76-.6-.48-1.08-1.78-.86-2.46,.27-.82,1.24-1.7,2.09-1.98,1.68-.55,3.42,.07,6.45,1.68Z"/>
        <path class="cls-7" d="M875.34,104.8c-1.63,2.36-2.85,4.28-4.27,6.03-.28,.34-1.5,.31-2,0-.94-.59-1-1.65-.34-2.55,1.49-2.04,3.54-3.04,6.62-3.47Z"/>
        <path class="cls-3" d="M986.4,132.16c-.71-1.93-1.23-3.36-1.76-4.78-.45-1.19-.21-2.25,1.07-2.52,1.35-.29,1.86,.79,1.97,1.93,.16,1.7,.27,3.42-1.28,5.37Z"/>
      </g>
    </g>
  </g>
</svg>