<?xml version="1.0" encoding="UTF-8"?>
<svg xmlns="http://www.w3.org/2000/svg" viewBox="0 0 2667 424.41">
  <defs>
    <style>
      .cls-1 {
        fill: #14100f;
      }

      .cls-2 {
        fill: #100e0b;
      }

      .cls-3 {
        fill: #171012;
      }

      .cls-4 {
        fill: #151010;
      }

      .cls-5 {
        fill: #100f0b;
      }

      .cls-6 {
        fill: #12100e;
      }

      .cls-7 {
        fill: #63eefe;
      }

      .cls-8 {
        fill: #0f0d0a;
      }

      .cls-9 {
        fill: #14100e;
      }

      .cls-10 {
        fill: #14110e;
      }

      .cls-11 {
        fill: #191015;
      }

      .cls-12 {
        fill: #12100d;
      }

      .cls-13 {
        fill: #141111;
      }

      .cls-14 {
        fill: #13110f;
      }

      .cls-15 {
        fill: #191311;
      }

      .cls-16 {
        fill: #07bffb;
      }

      .cls-17 {
        fill: #13100d;
      }

      .cls-18 {
        fill: #16110f;
      }

      .cls-19 {
        fill: #13100e;
      }

      .cls-20 {
        fill: #0f0e0a;
      }

      .cls-21 {
        fill: #0e0d09;
      }

      .cls-22 {
        fill: #0e0c09;
      }

      .cls-23 {
        fill: #13100f;
      }
    </style>
  </defs>
  <g id="_лой_1" data-name="Слой 1"/>
  <g id="_лой_2" data-name="Слой 2">
    <g id="_лой_1-2" data-name="Слой 1">
      <g>
        <path class="cls-12" d="M1690.9,234.16c-1.09,.69-1.48,1.02-1.93,1.21-8.25,3.59-10.87,10.87-11.83,18.88-.93,7.72-3.92,13.99-10.36,18.52-1.76,1.24-3.4,2.69-4.97,4.17-3.99,3.77-4.42,6.81-1.69,11.48,.92,1.58,2.24,2.97,2.93,4.63,1.19,2.87,2.43,5.83,2.88,8.86,.38,2.56,1.35,4.4,3.35,5.78,1.36,.94,2.78,1.85,4.3,2.52,13.06,5.74,26.03,11.73,39.29,16.99,5.48,2.17,11.53,3.3,17.42,3.94,10.07,1.09,20.11,2.51,30.34,2.24,12.52-.32,24.79-1.44,37.02-4.45,9.15-2.25,18.68-3.02,28.05-4.37,4.61-.66,9.23-1.19,13.86-1.67,11.54-1.2,22.53,.99,32.97,5.87,5.67,2.65,8.53,7.71,10.35,13.44,3.41,10.73,1.87,21.36-.75,31.96-1.32,5.34-4.02,9.83-8.25,13.35-10.45,8.71-21.6,15.87-35.42,18.3-11.11,1.95-22.05,4.82-33.1,7.14-3.41,.72-6.9,1.1-10.38,1.41-9.95,.89-19.89,2.11-29.86,2.36-12.13,.3-24.3,.01-36.42-.55-7.79-.36-15.59-1.34-23.28-2.65-16.21-2.77-31.47-8.26-45.44-17.08-7.05-4.45-14.3-8.54-22.54-10.34-4.7-1.02-9.47-1.81-14.24-2.4-4.59-.56-8.58-1.91-11.85-5.47-1.75-1.9-4.22-3.16-6.46-4.58-4.62-2.93-8.1-6.93-10.69-11.64-6.35-11.54-9.71-23.89-10.35-37.09-.6-12.3-1.5-24.59-2.7-36.85-1.64-16.85-1.39-33.55,2.24-50.14,3.09-14.12,3.68-28.27,.78-42.56-2.76-13.59,.13-26.38,6.2-38.66,7.32-14.81,17-27.68,29.9-38.12,15.02-12.15,30.29-23.93,46.52-34.43,7.85-5.08,16.1-9.17,25.42-11.02,7.3-1.45,13.63-5.41,19.36-9.92,14.01-11.02,30.02-14.25,47.03-11.44,8.9,1.47,17.49,5.1,26.05,8.24,12.94,4.74,25.66,10.13,39.49,11.88,9.4,1.19,18.77,2.72,28.21,3.44,12.92,.99,25.21,4.42,37.18,8.96,9.25,3.5,16.62,9.78,21.93,18.17,6.41,10.13,10.79,20.98,10.59,33.25-.13,7.64-1.92,14.91-5.85,21.39-3.7,6.09-6.07,12.53-7.22,19.5-2.3,13.91-10.66,23.67-22.59,29.94-9.03,4.75-17.66,9.88-25.85,15.91-6.97,5.13-14.39,9.67-21.19,15-12.86,10.08-27.69,15.63-43.13,20.04-10.89,3.11-22.01,3.78-33.16,2.75-9.09-.84-18.14-2.32-27.11-4.04-7.71-1.48-14.8-4.78-21.56-8.87-7.67-4.64-15.62-8.8-23.51-13.2Zm71.27,107.61c-3.14,0-6.3,.21-9.41-.04-6.77-.56-13.5-1.63-20.28-2-9.58-.52-18.71-2.8-27.39-6.61-10.18-4.47-20.14-9.41-30.19-14.18-3-1.42-6.05-2.78-8.91-4.45-4.01-2.34-7.31-5.62-7.76-10.4-.35-3.71-1.91-6.61-3.81-9.55-1.17-1.81-2.31-3.67-3.19-5.63-2.34-5.22-1.44-10.1,2.18-14.39,2.02-2.39,4.24-4.66,6.63-6.69,4.42-3.75,6.87-8.14,7.16-14.15,.3-6.09,1.53-12.17,4.5-17.69,4.27-7.94,12.23-11.02,20.49-8.01,.76,.28,1.59,.38,2.39,.57,6.47,1.56,12.75,3.53,18.39,7.26,7.35,4.86,14.94,9.29,23.73,11.05,5.35,1.07,10.71,2.4,16.13,2.74,9.77,.62,19.74,1.8,29.35,.56,14.8-1.9,29.29-6.2,42.17-14.03,10.63-6.46,20.63-13.97,30.73-21.27,7.8-5.65,15.49-11.25,24.41-15.27,11.01-4.96,18.08-13.67,20.54-25.87,.98-4.84,2.56-9.58,4.16-14.26,.91-2.65,2.52-5.06,3.66-7.65,2.99-6.78,5.18-13.92,3.79-21.26-1.17-6.12-3.17-12.24-5.83-17.88-4.7-9.96-12.36-16.89-22.94-20.89-16.16-6.1-33.05-8.05-49.96-10.35-9.48-1.29-19.05-2.83-28.17-5.61-13.93-4.24-27.52-9.6-41.21-14.59-9.38-3.42-18.9-3.01-28.46-1.23-6.98,1.3-13.02,4.7-18.82,8.68-7.66,5.27-15.39,10.5-24.71,12.47-7.12,1.51-13.39,4.86-19.43,8.67-14.5,9.14-27.93,19.75-41.53,30.15-14.99,11.46-26.69,25.31-34.21,42.68-3.83,8.83-6.02,17.93-5.26,27.57,.51,6.44,1.05,12.9,2.2,19.24,1.19,6.57-.02,12.9-.9,19.27-1.3,9.34-3.72,18.6-4.13,27.96-.51,11.59,.31,23.26,.98,34.87,.6,10.25,2.02,20.46,2.64,30.71,.54,8.84,2.08,17.39,5.05,25.73,3.13,8.78,7.33,16.69,15.77,21.62,1.84,1.07,3.41,2.62,5.06,4,2.36,1.97,4.87,3,8.12,3.05,4.78,.08,9.59,.67,14.31,1.48,8.67,1.5,16.17,5.85,23.49,10.45,8.63,5.42,17.78,9.55,27.65,12.18,8.66,2.31,17.34,4.3,26.32,4.94,11.74,.83,23.48,2.39,35.22,2.51,11.26,.11,22.54-1.05,33.79-1.97,6.92-.57,13.82-1.54,20.67-2.69,7.98-1.34,15.91-3.02,23.83-4.66,4.85-1,9.76-1.87,14.47-3.37,8.54-2.72,15.5-8.2,22.35-13.76,3.07-2.5,5.02-5.93,5.81-9.67,1.97-9.32,2.11-18.71-.16-28.05-1.05-4.32-3.45-7.44-7.7-9.08-7.01-2.7-14.16-4.9-21.75-4.41-6.44,.41-12.88,1.07-19.26,2-8.67,1.27-17.43,2.36-25.89,4.52-12.15,3.11-24.32,5.2-36.88,4.65Z"/>
        <path class="cls-16" d="M1762.17,341.77c12.56,.55,24.73-1.53,36.88-4.65,8.46-2.17,17.22-3.25,25.89-4.52,6.38-.94,12.82-1.59,19.26-2,7.6-.49,14.75,1.71,21.75,4.41,4.24,1.64,6.65,4.76,7.7,9.08,2.27,9.34,2.13,18.73,.16,28.05-.79,3.75-2.74,7.18-5.81,9.67-6.85,5.56-13.81,11.05-22.35,13.76-4.71,1.5-9.62,2.37-14.47,3.37-7.93,1.63-15.85,3.32-23.83,4.66-6.85,1.15-13.75,2.12-20.67,2.69-11.25,.92-22.53,2.09-33.79,1.97-11.75-.12-23.48-1.68-35.22-2.51-8.97-.63-17.66-2.63-26.32-4.94-9.87-2.63-19.02-6.76-27.65-12.18-7.32-4.6-14.82-8.95-23.49-10.45-4.72-.81-9.53-1.41-14.31-1.48-3.25-.05-5.76-1.08-8.12-3.05-1.65-1.38-3.22-2.93-5.06-4-8.43-4.92-12.64-12.84-15.77-21.62-2.97-8.34-4.51-16.89-5.05-25.73-.63-10.25-2.05-20.46-2.64-30.71-.68-11.61-1.49-23.28-.98-34.87,.41-9.36,2.83-18.62,4.13-27.96,.89-6.37,2.1-12.7,.9-19.27-1.15-6.34-1.69-12.81-2.2-19.24-.76-9.64,1.44-18.74,5.26-27.57,7.53-17.37,19.22-31.22,34.21-42.68,13.6-10.4,27.03-21.01,41.53-30.15,6.04-3.81,12.31-7.16,19.43-8.67,9.31-1.97,17.05-7.2,24.71-12.47,5.8-3.99,11.84-7.38,18.82-8.68,9.56-1.78,19.08-2.19,28.46,1.23,13.69,4.99,27.28,10.35,41.21,14.59,9.12,2.78,18.69,4.32,28.17,5.61,16.91,2.3,33.8,4.25,49.96,10.35,10.58,3.99,18.24,10.92,22.94,20.89,2.66,5.64,4.66,11.76,5.83,17.88,1.4,7.34-.8,14.49-3.79,21.26-1.14,2.59-2.75,4.99-3.66,7.65-1.61,4.68-3.19,9.42-4.16,14.26-2.46,12.2-9.54,20.91-20.54,25.87-8.92,4.02-16.6,9.62-24.41,15.27-10.09,7.31-20.1,14.81-30.73,21.27-12.88,7.83-27.37,12.13-42.17,14.03-9.61,1.23-19.58,.06-29.35-.56-5.41-.35-10.78-1.67-16.13-2.74-8.79-1.76-16.38-6.2-23.73-11.05-5.64-3.73-11.92-5.7-18.39-7.26-.8-.19-1.63-.29-2.39-.57-8.27-3.01-16.22,.07-20.49,8.01-2.97,5.52-4.21,11.59-4.5,17.69-.29,6.01-2.74,10.4-7.16,14.15-2.39,2.02-4.61,4.3-6.63,6.69-3.62,4.29-4.52,9.17-2.18,14.39,.88,1.96,2.01,3.82,3.19,5.63,1.91,2.94,3.47,5.84,3.81,9.55,.45,4.78,3.75,8.05,7.76,10.4,2.86,1.67,5.91,3.03,8.91,4.45,10.04,4.77,20.01,9.71,30.19,14.18,8.69,3.81,17.82,6.09,27.39,6.61,6.78,.37,13.51,1.44,20.28,2,3.12,.26,6.28,.04,9.41,.04Zm-39.2-251.98c1.83,3.53,4.49,4.84,9,3.59,7.9-2.19,15.75-4.61,23.53-7.22,2.7-.9,5.12-2.64,8.76-4.59-2.53-1.42-3.89-2.61-5.46-3-7.64-1.9-15.26-1.64-22.79,.75-.79-.13-1.59-.27-2.38-.4-4.46-.73-8.92-1.09-13.25,.61-3.16,1.25-4.49,4.35-3.25,7.29,1.1,2.6,3.45,2.82,5.82,2.96Zm-60.89,23.6c-.58,.31-1.13,.79-1.75,.91-6.09,1.16-10.93,4.5-15.27,8.7-1.06,1.03-2.16,2.12-2.89,3.38-1.31,2.26-.96,4.99,.53,6.4,1.53,1.44,4.76,1.3,6.86-.36,1.16-.92,2.23-1.94,3.34-2.92,3.24,5.21,7.05,6.7,11.93,3.54,5.09-3.3,9.67-7.4,14.29-11.36,1.17-1.01,1.82-2.75,2.43-4.27,1.32-3.3,.51-5.44-2.69-6.89-1.31-.59-2.83-.84-4.28-.94-4.63-.33-8.53,1.86-12.49,3.82Zm84.72,8.57c-4.05,.75-8.17,1.22-12.13,2.29-13.32,3.61-23.32,11.96-30.61,23.31-7,10.91-11.79,22.66-8.99,36.17,.22,1.06-.08,2.23-.08,3.34-.02,5.76,.71,11.56,5.07,15.59,3.09,2.86,7.02,5.37,11.02,6.57,7.74,2.32,15.77,3.72,23.72,5.27,8.75,1.71,17.57,.74,26.34,0,7.65-.65,15.33-1.9,21.67-6.49,7.25-5.25,14.25-10.9,20.95-16.85,5.56-4.94,11.65-8.76,18.47-11.57,3.37-1.39,6.69-2.93,9.91-4.64,2.58-1.37,4.68-3.55,4.83-6.53,.18-3.62,0-7.32-.59-10.89-1.59-9.73-8.47-14.99-16.72-18.91-4.25-2.02-8.72-3.14-13.47-2.88-5.47,.3-10.93,.86-16.4,.82-2.72-.02-5.59-.78-8.12-1.85-4.57-1.95-9-4.27-13.37-6.67-6.69-3.67-13.76-5.67-21.5-6.07Zm101.21,225.85c-.08-3.07-2.15-4-4.12-4.73-1.98-.73-4.12-1.37-6.21-1.46-10.12-.44-20.11,.4-29.72,3.86-1.34,.48-2.57,1.39-3.73,2.25-2.09,1.55-3,3.78-1.93,6.13,1.06,2.33,2.97,4.11,5.89,3.69,4.22-.6,8.46-1.12,12.62-2.03,9.12-1.99,18.41-3.43,27.2-7.71Zm44.73-221.55c-.42-2.6-.52-4.44-1.03-6.15-1.18-3.97-5.77-7.14-8.97-6.39-4.05,.94-7.6,5.69-6.53,9.73,1.21,4.58,2.86,9.12,4.99,13.34,2.12,4.22,7.41,4.01,9.25-.4,1.42-3.4,1.69-7.28,2.3-10.13Zm-279.36,48.76c-3.88,.23-5.21,1.02-7.31,4.37-3.93,6.27-5.82,13.31-7,20.48-.4,2.46,.07,5.37,1.06,7.67,1.38,3.21,5.29,2.93,6.9-.24,.51-1.01,.82-2.15,1.05-3.27,1.03-5.01,2.04-10.02,2.96-15.04,.84-4.62,1.56-9.26,2.34-13.97Zm123.07,178.6c-.82-1.56-1.18-3.19-2.2-4.04-4.42-3.68-9.54-5.93-15.37-6.01-3.95-.05-6.44,2.18-6.95,5.71-.59,4.08,1.41,7.24,5.41,8.22,6.79,1.67,12.89-.12,19.1-3.89Zm-116.19,6.86c.3-.2,.59-.4,.89-.59-.28-1.57-.37-3.2-.86-4.7-1.18-3.59-2.45-7.16-3.88-10.66-1.43-3.51-3.03-6.96-4.7-10.37-1.06-2.17-2.96-3.18-5.36-2.51-2.35,.66-3.62,2.42-3.37,4.84,.2,1.92,.41,4.11,1.42,5.63,3.01,4.51,6.27,8.88,9.73,13.06,1.7,2.05,4.07,3.55,6.13,5.3Zm264.37-193.87c-4.24,4.69-7.95,8.46-11.22,12.58-1.63,2.05-1.36,4.66,.31,6.92,1.28,1.73,2.9,2.83,5.08,2.39,2.7-.54,3.56-2.84,4.1-5.12,1.07-4.49,1.99-9.02,2.85-13.55,.12-.64-.46-1.41-1.12-3.21Zm-36.05,199.95c3.63,.16,7.33-2.12,7.36-4.53,.04-3.05-3.88-6.37-7.68-6.51-3.32-.12-6.2,2.19-6.26,5-.07,3.29,2.75,5.87,6.58,6.04Zm-196.44-.6c-.36-.69-.53-1.15-.81-1.53-2.51-3.46-5-6.94-7.59-10.34-1.24-1.63-2.77-3-5.03-1.76-1.91,1.04-2.54,3.2-1.76,5.57,.1,.31,.11,.68,.29,.94,3.15,4.62,7.76,7.01,13.02,8.28,.49,.12,1.21-.72,1.9-1.16Zm-34.94-170.27s-.33-.23-.6-.18c-.46,.09-1.08,.22-1.31,.56-2.96,4.32-4.83,9.02-4.11,14.36,.39,2.88,2.41,5.02,4.15,4.87,2.06-.17,2.88-1.79,2.77-5.49-.03-.99-.11-1.98-.17-2.97-.23-3.54-.46-7.08-.72-11.16Z"/>
        <path class="cls-12" d="M1746.8,121.96c7.74,.4,14.81,2.4,21.5,6.07,4.37,2.39,8.8,4.71,13.37,6.67,2.52,1.08,5.4,1.83,8.12,1.85,5.46,.04,10.93-.52,16.4-.82,4.75-.26,9.22,.86,13.47,2.88,8.25,3.92,15.13,9.18,16.72,18.91,.58,3.57,.77,7.28,.59,10.89-.15,2.99-2.25,5.17-4.83,6.53-3.22,1.71-6.54,3.25-9.91,4.64-6.82,2.82-12.91,6.63-18.47,11.57-6.7,5.95-13.7,11.6-20.95,16.85-6.34,4.59-14.02,5.84-21.67,6.49-8.77,.74-17.58,1.72-26.34,0-7.95-1.55-15.98-2.95-23.72-5.27-4-1.2-7.93-3.71-11.02-6.57-4.36-4.03-5.09-9.83-5.07-15.59,0-1.12,.3-2.28,.08-3.34-2.8-13.5,1.98-25.26,8.99-36.17,7.29-11.36,17.29-19.7,30.61-23.31,3.96-1.07,8.08-1.55,12.13-2.29Zm.45,83.99c3.33-.15,6.66-.22,9.98-.47,9.8-.72,19.02-3.07,26.74-9.63,3.55-3.02,7.22-5.89,10.78-8.91,7.52-6.39,15.44-12.1,24.79-15.58,2.49-.93,4.89-2.07,7.33-3.14,1.85-.81,3.03-2.2,2.77-4.27-.84-6.61-2.63-12.57-9.05-16.27-5.2-3-10.42-5.07-16.52-4.12-1.97,.31-3.97,.4-5.95,.65-7.78,.98-15.24,.03-22.29-3.58-3.84-1.97-7.7-3.9-11.57-5.82-12.27-6.09-24.43-5.59-36.27,1.01-13.42,7.48-21.3,19.24-24.92,33.93-.82,3.32-1.11,6.95-.76,10.35,.46,4.42,1.72,8.77,2.84,13.1,.24,.94,1.21,1.9,2.1,2.44,12.3,7.41,25.73,10.53,40.01,10.31Z"/>
        <path class="cls-7" d="M1848.01,347.81c-8.8,4.28-18.09,5.71-27.2,7.71-4.16,.91-8.4,1.44-12.62,2.03-2.92,.41-4.83-1.36-5.89-3.69-1.07-2.35-.16-4.58,1.93-6.13,1.16-.86,2.39-1.77,3.73-2.25,9.61-3.46,19.6-4.31,29.72-3.86,2.09,.09,4.22,.73,6.21,1.46,1.97,.73,4.04,1.66,4.12,4.73Z"/>
        <path class="cls-7" d="M1662.08,113.39c3.96-1.96,7.86-4.15,12.49-3.82,1.45,.1,2.97,.35,4.28,.94,3.2,1.45,4.02,3.59,2.69,6.89-.61,1.52-1.26,3.26-2.43,4.27-4.62,3.96-9.21,8.06-14.29,11.36-4.87,3.16-8.69,1.67-11.93-3.54,2.84-2.97,5.73-5.89,8.5-8.92,1.71-1.87,3.69-3.65,3.73-6.83l-3.04-.36Z"/>
        <path class="cls-7" d="M1892.74,126.26c-.61,2.86-.88,6.74-2.3,10.13-1.84,4.41-7.13,4.62-9.25,.4-2.12-4.22-3.78-8.77-4.99-13.34-1.07-4.04,2.48-8.79,6.53-9.73,3.2-.75,7.79,2.42,8.97,6.39,.51,1.71,.61,3.55,1.03,6.15Z"/>
        <path class="cls-7" d="M1736.03,79.32c7.53-2.38,15.15-2.65,22.79-.75,1.56,.39,2.93,1.58,5.46,3-3.64,1.94-6.06,3.68-8.76,4.59-7.78,2.61-15.63,5.02-23.53,7.22-4.51,1.25-7.18-.06-9-3.59,4.51-1.42,9.08-2.7,13.51-4.35,1.69-.63,4.32-2.07,4.34-3.2,.06-2.61-2.97-2.21-4.8-2.92Z"/>
        <path class="cls-6" d="M1613.38,175.02c-.78,4.71-1.5,9.35-2.34,13.97-.92,5.03-1.93,10.04-2.96,15.04-.23,1.12-.54,2.26-1.05,3.27-1.61,3.17-5.52,3.45-6.9,.24-.99-2.31-1.46-5.21-1.06-7.67,1.18-7.18,3.07-14.21,7-20.48,2.1-3.35,3.43-4.14,7.31-4.37Z"/>
        <path class="cls-7" d="M1736.44,353.62c-6.22,3.77-12.32,5.55-19.1,3.89-4-.98-6-4.14-5.41-8.22,.51-3.53,3-5.77,6.95-5.71,5.83,.08,10.95,2.33,15.37,6.01,1.02,.85,1.38,2.48,2.2,4.04Z"/>
        <path class="cls-19" d="M1620.25,360.48c-2.07-1.75-4.43-3.25-6.13-5.3-3.46-4.18-6.72-8.55-9.73-13.06-1.02-1.53-1.22-3.71-1.42-5.63-.25-2.42,1.02-4.19,3.37-4.84,2.4-.67,4.29,.34,5.36,2.51,1.67,3.41,3.27,6.86,4.7,10.37,1.43,3.5,2.7,7.07,3.88,10.66,.49,1.5,.59,3.13,.86,4.7-.3,.2-.59,.4-.89,.59Z"/>
        <path class="cls-23" d="M1662.08,113.39c.95,.11,1.91,.23,3.04,.36-.04,3.18-2.03,4.97-3.73,6.83-2.77,3.03-5.66,5.95-8.5,8.92-1.11,.98-2.18,2-3.34,2.92-2.1,1.66-5.33,1.8-6.86,.36-1.49-1.41-1.84-4.14-.53-6.4,.73-1.26,1.82-2.35,2.89-3.38,4.34-4.2,9.18-7.54,15.27-8.7,.62-.12,1.17-.6,1.75-.91Z"/>
        <path class="cls-14" d="M1736.03,79.32c1.84,.71,4.86,.31,4.8,2.92-.03,1.12-2.65,2.57-4.34,3.2-4.43,1.65-9,2.92-13.51,4.35-2.37-.14-4.72-.36-5.82-2.96-1.24-2.94,.09-6.04,3.25-7.29,4.32-1.71,8.79-1.34,13.25-.61,.79,.13,1.59,.26,2.38,.4Z"/>
        <path class="cls-23" d="M1884.62,166.61c.65,1.8,2.01,3.46,1.45,3.58-.86,4.54-2.11,8.7-3.18,13.19-.54,2.28-1.41,4.58-4.1,5.12-2.18,.44-3.8-.66-5.08-2.39-1.67-2.26-1.94-4.87-.31-6.92,3.28-4.12,6.99-7.89,11.22-12.58Z"/>
        <path class="cls-7" d="M1848.57,366.56c-3.83-.17-6.64-2.75-6.58-6.04,.06-2.81,2.94-5.12,6.26-5,3.8,.13,7.72,3.45,7.68,6.51-.03,2.41-3.73,4.69-7.36,4.53Z"/>
        <path class="cls-23" d="M1652.13,365.96c-.68,.44-1.4,1.27-1.9,1.16-5.26-1.27-9.87-3.66-13.02-8.28-.18-.26-.19-.63-.29-.94-.78-2.37-.15-4.53,1.76-5.57,2.27-1.24,3.79,.13,5.03,1.76,2.59,3.4,5.08,6.88,7.59,10.34,.28,.38,.45,.84,.81,1.53Z"/>
        <path class="cls-13" d="M1617.19,195.69c.26,4.08,.49,7.62,.72,11.16,.06,.99,.14,1.98,.17,2.97,.11,3.7-.71,5.32-2.77,5.49-1.74,.15-3.76-1.99-4.15-4.87-.71-5.34,1.15-10.04,4.11-14.36,.23-.34,.85-.47,1.31-.56,.27-.05,.6,.18,.6,.18Z"/>
      </g>
      <g>
        <path class="cls-22" d="M764.8,293.89c1.34-11.59-.83-22.76-3.15-33.99-1.63-7.9-2.77-15.9-3.9-23.89-2.21-15.62,1.53-30.07,9.32-43.53,5.11-8.82,12.63-14.7,22.7-17.17,10.14-2.49,18.46-7.78,24.87-16.15,6.24-8.15,12.76-16.09,19.18-24.1,7.96-9.94,17.85-17.44,29.69-21.98,10.65-4.09,21.46-7.87,32.42-11.04,12.18-3.53,24.7-2.63,37.09-.88,12.71,1.8,24.74,6.13,36.87,10.14,9.41,3.11,18.86,6.08,28.36,8.93,4.35,1.31,6.28,.29,7.03-3.88,3.59-19.84,15.8-34.3,29.94-47.31,7.69-7.07,16.49-12.93,27.04-15.03,4.23-.84,8.68-1.03,13-.85,4.35,.19,7.86,2.53,10.8,5.84,6.46,7.29,8.12,16.14,8.13,25.37,.03,14.06-2.27,27.78-7.07,41.05-2.23,6.16-4.24,12.4-6.49,18.56-3.25,8.88-2.44,17.4,1.38,25.97,2.25,5.03,4.35,10.28,5.44,15.64,1.81,8.89,.46,17.68-2.6,26.26-3.44,9.64-7.3,19.22-9.68,29.14-4.32,17.98-5.2,36.25-1.9,54.6,1.39,7.7,5.39,14.07,9.71,20.3,1.91,2.76,4.03,5.39,6.18,7.98,10.35,12.5,16.27,27.01,19.08,42.81,.94,5.27,1.05,10.72,1.13,16.1,.15,9.94-5.36,16.75-13.79,20.58-11.97,5.44-24.69,7.51-37.9,5.26-14.62-2.5-26.53-10.26-37.7-19.36-6.65-5.42-13-11.21-19.49-16.82-1.15-.99-2.37-1.89-3.52-2.88-5.1-4.41-10.55-2.65-13.51,1.65-1.43,2.07-3.15,3.94-4.7,5.94-5,6.46-11.75,9.41-19.75,9.47-4.18,.03-8.38-.3-12.53-.82-2.13-.27-3.41,.24-4.69,1.93-5.68,7.52-13.03,13.06-21.33,17.41-5.36,2.81-10.62,5.8-16.05,8.47-11.53,5.67-23.69,8.58-36.62,7.57-18.78-1.47-37.09-5.05-53.58-14.57-8.41-4.86-16.64-10.35-24.01-16.65-17.63-15.06-27.42-34.19-27.32-57.81,.01-3.2,0-6.4,0-9.6m10.36,12.01c-.02,17.36,6.77,31.95,19.39,43.39,10.34,9.37,21.89,17.31,34.85,22.95,15.1,6.57,31.03,8.79,47.27,8.66,5.59-.04,11.51-1.21,16.67-3.34,8.66-3.59,16.88-8.26,25.19-12.66,5.86-3.1,11.23-7.11,15.05-12.49,4.64-6.54,10.07-8.79,18.12-7.45,9.75,1.61,18.86-.34,24.74-9.62,.18-.28,.46-.49,.68-.75,7.5-8.79,20.13-8.82,27.38-3.25,3.2,2.46,6.35,4.98,9.41,7.6,6.26,5.37,12.27,11.05,18.71,16.19,7.55,6.02,15.95,10.51,25.5,12.73,10.81,2.52,21.36,1.84,31.79-1.71,7.76-2.64,11.05-7.71,10.31-15.73-.37-4.02-.59-8.08-1.36-12.03-2.68-13.76-8.05-26.31-17.37-36.99-1.77-2.03-3.34-4.22-5.08-6.28-8.92-10.57-13.29-23.05-14.14-36.57-1.6-25.13,1.02-49.65,11.54-72.99,6.18-13.71,8.33-27.72-.27-41.53-.87-1.4-1.28-3.1-1.85-4.68-3.06-8.5-3.55-17.04-.59-25.7,2.83-8.27,5.5-16.59,8.33-24.85,4.07-11.88,6.45-24.05,5.71-36.63-.2-3.43-1.17-7-2.61-10.13-2.56-5.56-7.16-7.68-13.21-7.07-5.44,.54-10.51,2.01-15.14,5.04-18.36,12.02-30.66,28.43-36.3,49.72-2.39,9.01-7.9,13.29-17.19,12.8-3.66-.19-7.39-.81-10.9-1.85-14.01-4.14-28.01-8.37-41.91-12.87-11.2-3.63-22.62-5.05-34.31-4.66-12.3,.4-23.66,4.69-35.11,8.59-15.76,5.37-28.51,14.81-38.58,28.09-4.87,6.43-10.16,12.56-15.43,18.68-7.03,8.15-16.08,13.26-26.32,16.08-5.75,1.58-10.71,4.35-14.47,8.71-4.37,5.08-8.23,10.63-11.92,16.22-1.19,1.81-1.65,4.41-1.62,6.65,.07,5.04,.37,10.1,1.07,15.09,1.74,12.48,3.57,24.95,5.74,37.36,1.4,8.04,1.77,15.96,.69,24.08-1.39,10.48-2.26,21.03-3.35,31.55"/>
        <path class="cls-16" d="M775.7,291.31c1.08-8.11,.71-16.04-.69-24.08-2.16-12.41-3.99-24.88-5.74-37.36-.7-4.99-1-10.06-1.07-15.09-.03-2.23,.43-4.84,1.62-6.65,3.7-5.6,7.56-11.14,11.92-16.22,3.76-4.37,8.71-7.14,14.47-8.71,10.25-2.81,19.29-7.92,26.32-16.08,5.27-6.12,10.56-12.25,15.43-18.68,10.06-13.28,22.81-22.72,38.58-28.09,11.45-3.9,22.81-8.19,35.11-8.59,11.7-.38,23.12,1.04,34.31,4.66,13.9,4.5,27.89,8.73,41.91,12.87,3.51,1.04,7.24,1.65,10.9,1.85,9.29,.49,14.8-3.79,17.19-12.8,5.64-21.28,17.95-37.7,36.3-49.72,4.63-3.03,9.7-4.5,15.14-5.04,6.05-.6,10.65,1.51,13.21,7.07,1.44,3.13,2.41,6.7,2.61,10.13,.74,12.58-1.64,24.75-5.71,36.63-2.83,8.27-5.5,16.59-8.33,24.85-2.96,8.66-2.47,17.2,.59,25.7,.57,1.58,.98,3.28,1.85,4.68,8.6,13.81,6.46,27.82,.27,41.53-10.52,23.34-13.14,47.86-11.54,72.99,.86,13.52,5.23,26,14.14,36.57,1.74,2.06,3.31,4.26,5.08,6.28,9.32,10.68,14.69,23.23,17.37,36.99,.77,3.95,.98,8.01,1.36,12.03,.74,8.02-2.56,13.09-10.31,15.73-10.42,3.55-20.98,4.22-31.79,1.71-9.56-2.22-17.96-6.71-25.5-12.73-6.44-5.14-12.45-10.82-18.71-16.19-3.06-2.62-6.22-5.15-9.41-7.6-7.25-5.57-19.88-5.54-27.38,3.25-.22,.26-.5,.47-.68,.75-5.88,9.28-14.99,11.24-24.74,9.62-8.06-1.33-13.48,.91-18.12,7.45-3.82,5.38-9.19,9.39-15.05,12.49-8.31,4.4-16.53,9.08-25.19,12.66-5.16,2.13-11.08,3.3-16.67,3.34-16.24,.13-32.17-2.09-47.27-8.66-12.96-5.64-24.51-13.57-34.85-22.95-12.61-11.44-19.41-26.03-19.39-43.39,0-3.87-1.02-7.31-1.02-11.19m77.78-43.73c0,.84,.08,1.69-.01,2.52-1.2,10.24,7.53,21.59,18.74,23.51,5.86,1,10.75,3.59,15.25,7.3,7.2,5.93,15.17,10.43,24.06,13.49,16.53,5.69,31.53,2.85,45.11-7.71,9.59-7.46,14.76-17.39,14.34-29.71-.21-6.2-.9-12.42-1.77-18.57-1.99-14.02-3.7-28.02-1.39-42.18,.89-5.47,1.99-10.92,2.53-16.42,.47-4.83,.91-9.81,.25-14.58-1.28-9.32-7.55-14.66-16.12-17.55-13.41-4.52-25.84-1.45-37.74,5.13-10,5.52-16.58,14.26-21.36,24.25-5.86,12.27-14.39,22.24-24.4,31.17-2.63,2.35-5.33,4.69-7.6,7.36-7.82,9.22-9.83,20.33-9.89,31.99Zm53.85-149.56c-1.01,0-2.04-.12-3.03,.02-11.03,1.53-20.65,6.41-29.63,12.69-2.46,1.72-4.91,3.6-6.86,5.85-5.05,5.78-3.32,14,3.79,16.18,3.98,1.22,7.12-.68,10.1-2.91,9.61-7.22,19.17-14.5,28.81-21.67,1.3-.97,2.95-1.46,4.47-2.12,.98-.43,2.91-.87,2.88-1.11-.18-1.38-.49-2.96-1.35-3.98-2.37-2.82-5.76-3.09-9.19-2.94Zm133.34,97.64c-.28-1.72-.89-4.33-1.07-6.96-.15-2.16-.35-4.11-2.84-4.62-2.53-.52-4.83-.44-6.93,1.7-3.08,3.15-4.59,6.98-5.51,11.08-1.45,6.48-2.89,12.98-3.91,19.53-.74,4.77-.99,9.64-1.08,14.48-.06,3.14,.67,6.29,.86,9.44,.16,2.64,.04,5.29,2.4,7.16,1.93-1.72,3.89-3.41,5.77-5.19,.45-.43,.65-1.17,.87-1.79,2.02-5.65,4.31-11.23,5.97-16.99,2.52-8.79,4.86-17.65,5.47-27.83Zm-225.08,13.07c3.78-.01,7.56-2.74,8.44-6.69,2.55-11.45,7.1-22.2,11.11-33.14,.46-1.25,.89-2.53,1.1-3.84,.44-2.77-.62-4.05-3.27-3.33-3.03,.83-6.34,1.73-8.72,3.61-9.93,7.83-16.59,18.06-18.99,30.48-1.19,6.16,3.59,12.32,10.33,12.9Zm239.05-125.65c0,2.02-.13,4.05,.04,6.05,.13,1.47,.57,2.94,1,4.37,1.05,3.54,4.23,5.56,7.11,4.23,1.44-.66,2.87-1.96,3.62-3.35,1.41-2.61,2.61-5.42,3.37-8.29,1.33-4.96,2.01-10.1,3.44-15.03,1-3.46,.53-6.62-.59-9.79-1.36-3.85-2.98-4.84-7.19-4.79-4.1,.05-6.51,1.63-7.69,6.45m-16.9,250.58c-1.8,1.5-3.43,2.41-4.41,3.79-1.6,2.24-1.07,4.79-.06,7.21,4.04,9.7,10.37,17.53,19.19,23.27,.68,.44,1.77,.25,2.67,.35-.18-.9-.21-1.86-.55-2.69-3.5-8.31-7.04-16.6-10.58-24.89-.46-1.08-.69-2.37-1.45-3.17-1.3-1.36-2.93-2.41-4.8-3.88Zm-17.64-221.53c-.22,4.55,1.39,7.3,4.18,8.04,3.3,.88,5.92-.6,7.51-4.32,.39-.92,.71-1.89,.92-2.87,1.45-6.72,2.82-13.46,4.31-20.18,.4-1.79-.56-2.22-1.85-1.98-1.27,.23-2.67,.67-3.64,1.47-6.5,5.38-10.09,12.44-11.43,19.84Zm26.57,120.29c.14,.02-.3,.23-.17,.25,0,1.51-.12,3.03,.05,4.53,.08,.7,.7,1.35,1.07,2.02,.64-.36,1.36-.63,1.88-1.12,.46-.44,.8-1.09,1.01-1.71,2.69-7.9,5.43-15.79,7.96-23.75,.49-1.53,.58-3.46,.09-4.95-.45-1.39-1.78-3.21-2.99-3.45-1.51-.3-3.53,.49-4.9,1.43-.9,.62-1.28,2.31-1.46,3.58-1.11,7.78-1.52,15.38-2.54,23.16Zm-243.21-44.58c-1.22,0-2.58-.24-3.82,.04-6.98,1.54-16.57,15.15-15.79,22.31,.26,2.38,1.46,4.21,3.84,4.8,2.62,.65,4.07-1.01,5.04-3.17,3.55-7.92,7.09-15.84,10.73-23.98Zm-9.58,51.98c-6.87,3.71-11.44,14.95-9.09,21.81,.89,2.58,3.4,4.32,5.74,3.96,2.26-.34,3.81-2.13,3.9-5.13,.07-2.33-.48-4.67-.53-7-.09-4.49-.03-8.99-.03-13.64Z"/>
        <path class="cls-22" d="M850,279.63c.06-11.66,2.08-22.77,9.89-31.99,2.27-2.68,4.97-5.01,7.6-7.36,10-8.93,18.53-18.91,24.4-31.17,4.77-9.99,11.36-18.72,21.36-24.25,11.91-6.58,24.33-9.65,37.74-5.13,8.57,2.89,14.84,8.23,16.12,17.55,.65,4.76,.22,9.75-.25,14.58-.54,5.5-1.64,10.96-2.53,16.42-2.31,14.15-.59,28.16,1.39,42.18,.87,6.15,1.56,12.37,1.77,18.57,.42,12.32-4.75,22.25-14.34,29.71-13.58,10.57-28.58,13.4-45.11,7.71-8.89-3.06-16.85-7.56-24.06-13.49-4.5-3.7-9.39-6.29-15.25-7.3-11.21-1.92-19.94-13.27-18.74-23.51,.1-.83,.01-1.68,.01-2.52Zm6.61-2.4c.43,1.7,.34,4.65,1.76,6.33,4.56,5.42,9.74,10.32,16.62,12.77,6.75,2.4,12.71,6.06,18.31,10.44,6.05,4.74,13.02,7.58,20.37,9.63,12.35,3.43,23.37,.58,33.06-7.33,7.18-5.86,10.77-13.72,10.07-23.1-.46-6.2-1.15-12.41-2.23-18.53-2.87-16.4-3.5-32.71,.22-49.09,1.22-5.37,1.76-10.95,2.1-16.46,.4-6.44-2.79-10.8-8.8-13.26-4.19-1.71-8.44-2.14-12.85-1.5-14.67,2.12-25.7,9.71-32.69,22.67-8.28,15.33-19.12,28.35-32.75,39.2-8.71,6.93-11.91,16.74-13.19,28.23Z"/>
        <path class="cls-7" d="M903.85,130.07c3.42-.15,6.82,.12,9.19,2.94,.86,1.02,1.17,2.6,1.35,3.98,.03,.24-1.89,.68-2.88,1.11-1.51,.66-3.17,1.16-4.47,2.12-9.64,7.17-19.2,14.46-28.81,21.67-2.98,2.24-6.12,4.13-10.1,2.91-7.11-2.18-8.84-10.4-3.79-16.18,1.96-2.24,4.41-4.13,6.86-5.85,8.98-6.28,18.6-11.16,29.63-12.69,.99-.14,2.02-.02,3.03-.02Z"/>
        <path class="cls-7" d="M1037.19,227.71c-.61,10.18-2.95,19.04-5.47,27.83-1.65,5.76-3.94,11.34-5.97,16.99-.22,.63-.42,1.36-.87,1.79-1.87,1.78-3.84,3.47-5.77,5.19-2.36-1.87-2.24-4.52-2.4-7.16-.19-3.16-.92-6.3-.86-9.44,.09-4.83,.34-9.71,1.08-14.48,1.02-6.56,2.46-13.05,3.91-19.53,.92-4.1,2.43-7.93,5.51-11.08,2.1-2.14,4.4-2.22,6.93-1.7,2.49,.51,2.69,2.46,2.84,4.62,.19,2.64,.79,5.25,1.07,6.96Z"/>
        <path class="cls-7" d="M812.11,240.78c-6.74-.58-11.51-6.75-10.33-12.9,2.39-12.42,9.06-22.65,18.99-30.48,2.39-1.88,5.69-2.79,8.72-3.61,2.65-.72,3.72,.55,3.27,3.33-.21,1.31-.64,2.59-1.1,3.84-4.02,10.94-8.56,21.7-11.11,33.14-.88,3.95-4.67,6.67-8.44,6.69Z"/>
        <path class="cls-7" d="M1054.27,94.98c1.18-4.82,3.59-6.41,7.69-6.45,4.2-.05,5.83,.94,7.19,4.79,1.12,3.17,1.59,6.33,.59,9.79-1.43,4.93-2.11,10.07-3.44,15.03-.77,2.87-1.96,5.67-3.37,8.29-.75,1.38-2.18,2.69-3.62,3.35-2.88,1.33-6.06-.7-7.11-4.23-.43-1.43-.87-2.89-1-4.37-.17-2-.04-4.03-.04-6.05"/>
        <path class="cls-8" d="M1037.37,345.56c2.42,1.12,3.5,2.52,4.8,3.88,.76,.79,.99,2.09,1.45,3.17,3.54,8.29,7.08,16.58,10.58,24.89,.35,.83,.38,1.79,.55,2.69-.9-.1-1.99,.09-2.67-.35-8.82-5.74-15.15-13.57-19.19-23.27-1.01-2.42-1.54-4.97,.06-7.21,.98-1.37,2.15-2.67,4.41-3.79Z"/>
        <path class="cls-8" d="M1019.73,124.03c1.34-7.4,4.93-14.46,11.43-19.84,.97-.8,2.37-1.24,3.64-1.47,1.29-.24,2.25,.2,1.85,1.98-1.49,6.71-2.86,13.46-4.31,20.18-.21,.98-.53,1.95-.92,2.87-1.59,3.72-4.21,5.2-7.51,4.32-2.78-.74-4.39-3.49-4.18-8.04Z"/>
        <path class="cls-8" d="M1048.84,221.16c.18-1.27,.56-2.97,1.46-3.58,1.37-.95,3.39-1.74,4.9-1.43,1.22,.25,2.54,2.06,2.99,3.45,.49,1.5,.4,3.42-.09,4.95-2.53,7.95-5.27,15.84-7.96,23.75-.21,.62-.54,1.27-1.01,1.71-.52,.49-1.24,.76-1.88,1.12-.38-.67-1-1.31-1.07-2.02-.17-1.49-.05-3.02-.05-4.53"/>
        <path class="cls-2" d="M803.08,199.74c-3.64,8.13-7.18,16.06-10.73,23.98-.97,2.17-2.42,3.82-5.04,3.17-2.38-.59-3.58-2.42-3.84-4.8-.78-7.16,8.81-20.77,15.79-22.31,1.24-.27,2.6-.04,3.82-.04Z"/>
        <path class="cls-2" d="M793.5,251.72c0,4.65-.07,9.15,.03,13.64,.05,2.34,.59,4.68,.53,7-.09,3-1.64,4.79-3.9,5.13-2.35,.35-4.86-1.38-5.74-3.96-2.35-6.85,2.22-18.1,9.09-21.81Z"/>
      </g>
      <g>
        <path class="cls-16" d="M681.83,201.35c-1.86-3.02-3.38-6.24-4.94-9.44-2.42,.73-5.54-.04-6.78-3.01-5.16-12.35-6.93-25.5-5.29-38.77,1.23-9.9,2.87-19.84,2.33-29.72-4.77-12.67-11.01-24.51-23.71-31.12-9.93-5.17-20.22-9.68-30.51-14.12-4.31-1.86-7.65-4.24-9.79-8.49-4.26-8.46-11.63-12.8-20.6-14.69-6.29-1.32-12.58-2.84-18.95-3.5-9.48-.98-19.04-1.79-28.55-1.71-7.87,.06-15.72,1.61-23.6,2.31-18.41,1.63-35.8,5.87-50.12,18.57-1.68,1.49-3.83,2.82-5.97,3.35-9.52,2.32-16.68,7.87-23.41,14.79-7.75,7.98-13.33,16.86-14.88,27.85-2.4,17.01-8.16,32.58-18.57,46.3-3.39,4.47-7.1,8.68-10.6,13.06-7.85,9.84-15.54,19.66-16.18,33.16-.31,6.51-1.7,12.98-2.71,19.46-.96,6.17-2.37,12.11-3.39,18.7,1.66,.66,3.04,2.1,3.23,4.33,.72,8.19,.83,16.53,1.28,24.81,.17,.24,.33,.5,.47,.8,5.97,12.5,9.55,25.34,8.66,39.29-.06,.88-.35,1.69-.79,2.38,.51,2.36,.99,4.73,1.38,7.12,1.09,6.77,3.06,12.91,5.96,18.54,1.85-.39,3.91,.13,5.27,2.08,5.22,7.48,12.15,13.64,17.53,21.05,5.64,7.76,13.64,12.28,21.9,16.92,7.46,4.19,15.21,8.07,23.21,11.13,6.44,2.46,13.3,3.89,18,9.35,5.47,6.36,9.09,13.29,17.87,15.52,7.38,1.87,15.31,.76,22.85,1.22,6.9,.42,14.51,1.56,21.28-.29,6.65-1.82,12.44-6.06,19.08-8.04,5.82-1.73,11.84-1.93,17.85-2.1,.46-1.87,1.98-3.49,4.61-3.69,8.98-.68,17.42-5.17,26.55-3.78,4.38,.67,8.58,2.39,13.01,2.74,4.47,.35,9.07-.26,13.42-1.27,4.05-.93,7.92-2.35,11.86-3.62,3.67-1.19,7.7-1.97,10.93-4.17,5.88-3.99,7.88-11.69,13.39-16.21,.02-.02,.05-.03,.07-.05-.18-2.32,.09-4.68,.6-7.05-.29-1.6,.07-3.37,1.26-4.65,1.33-4.19,3.02-8.33,3.95-12.18,.15-.63,.32-1.24,.5-1.85,.14-2.16,.26-4.31,.5-6.46,.28-2.54,1.94-4.08,3.81-4.58,.51-1.2,1.01-2.41,1.48-3.64,2.11-5.53,3.46-11.25,4.3-17.1,1.72-11.97,6.66-22.93,9.85-34.51,3.43-12.43,4.1-25.56,4.15-38.39,0-1.79,.8-3.08,1.92-3.87-2.15-14.84-6.67-29.16-15.02-42.75Zm-196.23,75.01c-.9,3.97-3.52,4.87-6.06,1.76-5.33-6.52-8.23-14.26-8.72-22.62-.21-3.63,2-6.71,6.1-7.17,4.12-.47,6.61,2.1,7.51,5.69,1.18,4.74,1.7,9.65,2.45,14.14-.46,3.04-.7,5.66-1.28,8.2Zm1.16-68.76c-2.54,3-6.67,4.29-10.85,2.17-4.05-2.05-5.17-5.68-5.36-11.59,1.05-2.12,2.11-6.2,4.64-8.93,5.79-6.27,12.2-12.22,20.77-14.38,2.8-.71,6.74-.27,8.95,1.33,1.22,.88,.93,5.93-.42,7.92-5.5,8.11-11.39,16.01-17.72,23.49Zm87.4,55.48c-.4,1.27-.98,2.33-1.7,3.23-.6,2.91-2.1,5.57-4.2,8-9.08,10.53-19.82,18.05-34.38,17.51-3.74-.14-7.85-1.45-11.01-3.45-4.86-3.07-10.8-4.69-14.17-9.99-1.16-.73-2.3-1.63-3.41-2.75-4.57-4.62-7.25-10.49-6.86-16.98,.54-8.8,2.7-17.47,1.1-26.29-.33-1.82,.25-3.34,1.27-4.41-1.7-.62-3.03-2.1-3.01-4.45,.08-7.32,4.28-16.01,8.91-21.6,4.72-5.7,11.63-7.87,18.58-9.53,13.14-3.14,30.24-4.8,40.06,6.54,3.75,4.33-1.56,10.47-5.7,8.09,0,.07,.01,.13,.01,.19,.15,5.19,.76,10.22,1.79,15.14,1.35,.1,2.61,.87,3.37,2.56,3.09,6.89,4.01,14.16,6.06,21.36,1.51,5.29,5.05,11.15,3.28,16.82Zm42.79-133.37c-9.12-7.14-18-14.15-26.94-21.08-3.65-2.83-4.69-6.63-2.87-10.5,1.81-3.85,6.04-4.16,9.56-3.2,3.37,.91,6.71,2.68,9.52,4.8,6.66,5.04,11.85,11.34,14.39,19.51,1.25,4.02,.63,7.42-3.66,10.47Zm41.57,144.23c-2.16,4.17-5.86,7.59-9.14,11.11-.57,.61-2.57,.55-3.51,.05-2.8-1.49-4.03-8.43-2.6-13.29,1.13-3.86,4.96-6.79,8.75-6.69,4.37,.11,8.49,4.96,6.49,8.82Zm1.39-39.96c-5.36,1.49-8.5-3.59-10.21-7.62-4.29-10.1-8.09-20.44-11.38-30.91-1.77-5.64,1.63-12.06,5.77-13.4,5.21-1.68,10.56,.62,12.79,7.21,3.61,10.66,6.13,21.69,9.11,32.56-1.65,4.81-.69,10.67-6.08,12.17Z"/>
        <path class="cls-7" d="M666,221.82c-1.65,4.81-.69,10.67-6.08,12.17-5.36,1.49-8.5-3.59-10.21-7.62-4.29-10.1-8.09-20.44-11.38-30.91-1.77-5.64,1.63-12.06,5.77-13.4,5.21-1.68,10.56,.62,12.79,7.21,3.61,10.66,6.13,21.69,9.11,32.56Z"/>
        <path class="cls-7" d="M470.55,198.19c1.05-2.12,2.11-6.2,4.64-8.93,5.79-6.27,12.2-12.22,20.77-14.38,2.8-.71,6.74-.27,8.95,1.33,1.22,.88,.93,5.93-.42,7.92-5.5,8.11-11.39,16.01-17.72,23.49-2.54,3-6.67,4.29-10.85,2.17-4.05-2.05-5.17-5.68-5.36-11.59Z"/>
        <path class="cls-7" d="M616.95,129.71c-9.12-7.14-18-14.15-26.94-21.08-3.65-2.83-4.69-6.63-2.87-10.5,1.81-3.85,6.04-4.16,9.56-3.2,3.37,.91,6.71,2.68,9.52,4.8,6.66,5.04,11.85,11.34,14.39,19.51,1.25,4.02,.63,7.42-3.66,10.47Z"/>
        <path class="cls-7" d="M486.88,268.16c-.46,3.04-.7,5.66-1.28,8.2-.9,3.97-3.52,4.87-6.06,1.76-5.33-6.52-8.23-14.26-8.72-22.62-.21-3.63,2-6.71,6.1-7.17,4.12-.47,6.61,2.1,7.51,5.69,1.18,4.74,1.7,9.65,2.45,14.14Z"/>
        <path class="cls-7" d="M652.03,265.13c4.37,.11,8.49,4.96,6.49,8.82-2.16,4.17-5.86,7.59-9.14,11.11-.57,.61-2.57,.55-3.51,.05-2.8-1.49-4.03-8.43-2.6-13.29,1.13-3.86,4.96-6.79,8.75-6.69Z"/>
        <path d="M365.32,251.28c.29-10.96,2.08-21.12,4.63-31.21,1.03-4.09,1.48-8.4,1.61-12.62,.22-7.22,1.37-14.13,5.49-20.18,3.79-5.57,7.81-10.99,11.83-16.39,4.33-5.8,9-11.36,13.13-17.29,7.56-10.85,12.13-22.92,13.91-36.03,1.81-13.35,7.47-24.47,17.42-33.94,6.28-5.98,12.81-10.58,21.13-12.93,2.6-.73,5.15-2.3,7.24-4.07,12.28-10.38,26.63-15.48,42.43-17.14,10.81-1.14,21.59-2.73,32.43-3.49,5.87-.41,11.88,.14,17.74,.91,9.3,1.22,18.57,2.82,27.79,4.57,9.2,1.74,16.63,6.26,20.96,14.89,2.04,4.07,5.31,6.34,9.45,8.14,10.43,4.52,20.77,9.25,30.93,14.34,3.6,1.8,7.01,4.48,9.7,7.48,9.1,10.16,14.8,22.02,16.85,35.61,.81,5.35,.08,10.47-.84,15.67-.6,3.4-1.05,6.82-1.48,10.24-1.07,8.61,.74,16.69,4.63,24.36,3.57,7.04,6.86,14.26,10.91,21.02,8.57,14.32,12.4,29.96,14.27,46.3,1.64,14.33,1.16,28.62-1.2,42.78-1.1,6.59-3.19,13.09-5.45,19.41-6.63,18.57-15.02,36.53-18.93,56.01-1.27,6.36-3.99,12.15-7.01,17.85-5.71,10.78-14.46,17.58-26.1,21.19-12.95,4.01-25.87,4.6-39.02,1.28-3.19-.8-6.49-1.15-9.71-1.82-6.04-1.26-11.74-.07-17.45,1.94-11.96,4.21-23.85,8.68-36.04,12.12-7.87,2.22-16.16,3.31-24.33,3.97-11.05,.89-21.64-1.82-31.67-6.4-5.48-2.5-9.99-6.29-13.57-11.22-1.21-1.67-2.84-3.28-4.63-4.26-6.07-3.3-12.05-6.97-18.51-9.27-12.49-4.46-22.85-11.48-31.11-21.84-3.06-3.84-6.93-7.03-10.4-10.54-3.36-3.4-6.74-6.77-10-10.27-6.96-7.48-10.61-16.44-12.19-26.48-1.36-8.59-3.09-17.14-5.1-25.6-1.33-5.58-3.49-10.96-5.19-16.46-3.13-10.15-3.84-20.66-4.54-30.63Zm322.06,9.92c-.29-4.23-.47-10.33-1.17-16.36-1.42-12.32-4.02-24.28-10.5-35.19-4.2-7.07-7.94-14.43-11.46-21.86-5.24-11.04-8.06-22.54-5.97-34.95,.84-4.99,1.34-10.21,.87-15.22-1.11-12.1-5.87-22.91-13.71-32.22-2.07-2.46-4.69-4.8-7.54-6.22-10.03-4.99-20.14-9.87-30.47-14.18-6.38-2.66-11.48-6.28-14.74-12.42-2.99-5.64-7.94-8.82-14.04-9.96-11.34-2.11-22.72-4.02-34.12-5.8-2.9-.45-5.95-.28-8.89-.02-9.36,.84-18.68,1.99-28.04,2.76-14.31,1.17-27.51,5.17-38.84,14.3-4.17,3.36-8.77,5.82-14.08,6.87-2.67,.53-4.84,1.84-6.54,4.08-3.79,4.98-7.73,9.85-11.59,14.78-3.51,4.49-5.69,9.55-6.84,15.15-1.55,7.56-2.76,15.26-5.14,22.58-5.31,16.34-14.15,30.75-25.89,43.34-7.28,7.81-13.5,16.15-15.68,26.93-.65,3.21-1.84,6.31-2.86,9.44-7,21.49-6.96,43-.36,64.58,2.59,8.49,5.16,17,7.29,25.6,1.7,6.85,2.5,13.92,4.15,20.79,.71,2.95,2.19,5.86,3.9,8.4,3.97,5.9,8.87,10.99,14.33,15.6,4.13,3.5,8.45,7.05,11.6,11.37,6.96,9.52,15.82,16.17,26.74,20.36,8.09,3.11,15.11,7.99,21.96,13.19,2.73,2.07,5.72,3.98,8.87,5.29,9.83,4.09,20.13,6.15,30.81,6.41,18.93,.45,36.98-3.8,54.76-9.72,3.59-1.2,7.14-2.61,10.81-3.49,8.73-2.09,17.4-1.09,25.91,1.34,12.31,3.52,24.41,2.96,36.46-1.2,5.77-1.99,10.98-4.98,14.39-9.99,4.43-6.52,8.4-13.33,9.94-21.32,1.93-10.04,5.25-19.65,9.2-29.11,4.17-10.01,7.8-20.27,11.19-30.57,4.43-13.45,4.63-27.51,5.31-43.35Z"/>
        <path d="M552.93,185.03c9.41,1.27,16.78,9.13,17.67,18.59,.29,3.11,.59,6.24,.58,9.36-.01,6.57,1.57,12.65,4.73,18.42,4.14,7.57,6.7,15.64,7.97,24.23,1.43,9.7-.24,18.36-6.88,25.75-11.6,12.9-25.48,21.51-43.44,21.12-11.88-.26-21.18-5.45-26.5-16.6-.48-1-1.41-1.78-2.07-2.7-2.38-3.34-4.92-6.59-7.05-10.09-3.75-6.15-4.7-12.81-3.47-19.95,.52-3.01,.34-6.21,.05-9.28-.68-7.19-2.21-14.35-2.33-21.54-.34-19.49,12.93-34.7,32.16-37.6,1.47-.22,2.93-.56,4.41-.61,2.8-.1,5.61-.03,8.41-.03m-7.38,9.93c-15.76,.25-28.5,12.98-28.43,28.74,.03,5.72,1.03,11.44,1.33,17.17,.24,4.73,.72,9.59-.04,14.21-.82,4.94-.64,9.46,1.54,13.89,1.89,3.83,3.82,7.63,5.9,11.35,.6,1.07,1.63,2.04,2.69,2.67,3.66,2.18,7.34,4.38,11.19,6.2,2.47,1.17,5.2,2.24,7.88,2.43,15.38,1.06,26.67-6.54,36.29-17.54,4.01-4.59,4.82-9.86,4.04-15.67-1.09-8.04-3.1-15.76-6.92-22.99-3.19-6.04-4.92-12.5-5-19.39-.04-2.79-.42-5.57-.68-8.35-.65-6.85-3.81-10.55-10.58-11.7-4.52-.77-9.14-.97-13.72-1.43"/>
        <path d="M512.18,77.54c-.83,.54-1.69,1.05-2.49,1.64-7.71,5.64-15.6,10.97-24.76,14.02-1.99,.66-4.15,.99-6.25,1.09-2.36,.11-4.08-1.15-4.85-3.44-.78-2.32,.07-4.26,1.85-5.69,1.12-.9,2.49-1.67,3.88-2.03,9.99-2.62,20-5.15,30.03-7.61,.6-.15,1.39,.5,2.09,.78l.5,1.25Z"/>
        <path d="M454.43,118.55c0,1.77,.3,3.12-.05,4.29-2.42,8.19-4.95,16.34-7.49,24.49-.34,1.09-.78,2.19-1.41,3.13-1.29,1.92-3.11,2.91-5.5,2.4-2.3-.49-4-2.36-4.11-4.92-.06-1.43,.19-2.98,.72-4.31,3.5-8.81,8.47-16.71,15.14-23.49,.61-.62,1.55-.91,2.7-1.57Z"/>
        <path d="M677.26,279c-1.25,4.46-2.09,9.1-3.85,13.35-2.75,6.64-6.13,13.03-9.25,19.52-.21,.44-.5,.85-.79,1.25-2.32,3.26-5.1,4.42-7.41,3.08-2.16-1.25-2.4-4.33-.13-7.92,6.05-9.57,12.25-19.04,18.44-28.52,.39-.6,1.12-.97,1.7-1.44,.43,.23,.86,.46,1.29,.69Z"/>
        <path d="M489.91,96.81c-.35,1.24-.44,2.02-.77,2.7-2.87,5.87-5.76,11.73-8.7,17.57-.51,1-1.06,2.31-1.95,2.72-1.37,.64-3.1,1.02-4.57,.8-1.78-.26-2.68-1.92-2.6-3.69,.07-1.6,.22-3.33,.9-4.73,3.24-6.71,8.45-11.56,14.99-15.04,.61-.33,1.47-.2,2.71-.34Z"/>
        <path d="M452.84,373.4c-1.61,0-2.8,.25-3.83-.04-6.57-1.88-11.76-5.71-15.53-11.4-.63-.95-1.13-2.03-1.44-3.12-.68-2.37,.24-4.64,2.15-5.45,2.19-.93,3.89,0,5.15,1.73,1.27,1.71,2.26,3.63,3.54,5.34,3.11,4.16,6.33,8.24,9.95,12.95Z"/>
        <path d="M633.08,373.95c-1.38,1.25-2.56,2.93-4.18,3.67-5.37,2.44-10.87,4.59-16.37,6.71-1.18,.46-2.6,.41-3.91,.42-1.78,.02-3.28-.58-3.65-2.58-.33-1.82,.33-3.32,1.94-4.15,1.29-.66,2.74-1.16,4.17-1.41,5.82-1.02,11.67-1.9,17.5-2.88,1.23-.21,2.43-.58,3.64-.87l.84,1.1Z"/>
        <path d="M397.66,265.9c-1.24-1.6-2.11-2.31-2.44-3.21-2.31-6.37-2.85-13.03-3-19.73-.02-1.07,.35-2.45,1.06-3.15,.95-.93,2.48-1.92,3.66-1.81,1.18,.11,2.42,1.38,3.27,2.44,.53,.66,.62,1.89,.51,2.82-.92,7.21-1.94,14.4-3.07,22.65Z"/>
        <path d="M412.95,315.97c-1.34-.42-2.18-.47-2.72-.9-5.01-3.96-8.39-9.11-10.66-15.02-.17-.45-.32-.93-.39-1.41-.41-2.73,.74-4.78,3.02-5.44,2.04-.59,3.91,.39,5.11,2.75,.37,.72,.62,1.51,.83,2.29,1.54,5.61,3.05,11.23,4.81,17.72Z"/>
      </g>
      <g>
        <path class="cls-22" d="M62.63,38.97c.87,.15,1.05,0,1.57,.17,22.88,7.32,36.42,22.94,41,46.37,2.3,11.79,3.01,23.75,2.94,35.76-.07,12.16-.2,24.27-2.55,36.29-1.37,6.99-.25,13.92,1.84,20.7,2.54,8.26,5.24,16.49,7.42,24.85,2.92,11.2,1.78,22.39-.44,33.63-3.13,15.82-6.83,31.54-8.2,47.68-.75,8.81-.39,17.25,3.81,25.25,1.15,2.2,2.18,4.53,2.77,6.93,.71,2.89,2.38,3.42,5.06,3.42,9.62,.01,18.67-2.64,27.76-5.36,7.61-2.28,15.35-4.17,23.1-5.96,2.72-.63,5.62-.66,8.43-.6,5.81,.12,11.62,.56,17.44,.7,4.35,.11,8.47,1.36,11.51,4.18,6.63,6.12,14.68,7.32,23.07,7.87,13.49,.88,26.96,.54,40.43-.46,13.4-1,26.55,.07,39.36,4.63,17.34,6.18,26.92,18.76,30.65,36.27,1.17,5.46,.6,10.93-1.2,16.25-3.12,9.23-8.18,17.1-16.1,22.92-11.47,8.43-23.85,14.51-38.53,14.44-.66,0-1.32,.18-1.97,.27-8.67,0-17.34-.01-26.02-.02-1.31-.26-2.61-.71-3.92-.74-8.21-.2-15.54-2.94-22.62-6.96-6.62-3.75-13.82-4.29-21.27-2.44-9.51,2.36-19.02,4.75-28.63,6.62-9.15,1.78-18.21,1.23-26.77-3.12-2.66-1.35-5.56-2.2-8.29-3.43-12.23-5.51-24.77-5.88-37.52-2.31-11.19,3.14-22.34,6.44-33.51,9.67-4.22,1.22-8.46,1.5-12.83,.79-2.08-.34-4.29,.08-6.36-.31-3.07-.58-6.42-.96-9.01-2.5-7.7-4.57-15.28-9.42-22.54-14.66-4.77-3.44-8.06-8.49-10.41-13.85-10.41-23.82-14.93-48.51-10.32-74.43,.49-2.76,1.25-5.52,2.25-8.14,3.5-9.19,4.22-18.76,4.23-28.45,.01-9.01-1.06-17.89-2.51-26.79-2.16-13.26-.49-26.27,4.68-38.63,6.8-16.23,7.43-32.85,4.46-49.94-3.22-18.53-5.46-37.19-5.38-56.05,.05-12,2.87-23.25,8.2-34.1,6.88-13.99,18.44-21.34,32.81-25.38,1.48-.42,2.8-.86,4.64-1.08,2.67,0,4.78,.04,7.45,.04Zm36.05,83.51c.31-9.49-1.34-19.1-2.74-28.79-2.34-16.18-9.41-28.93-23.06-38.34-8.31-5.73-16.6-6.96-25.7-3.14-5.94,2.49-12.2,4.59-16.1,10.35-9.25,13.66-11.9,29.01-11.06,45.07,.52,9.91,1.76,19.78,2.82,29.65,.97,9.04,1.83,18.12,3.27,27.09,1.34,8.36,.99,16.64-.97,24.69-2.08,8.5-5.25,16.73-7.88,25.1-3.34,10.6-4.04,21.3-1.89,32.31,1.27,6.47,1.77,13.11,2.21,19.7,.23,3.44-.66,6.93-.63,10.4,.07,8.9-1.45,17.53-4.43,25.83-3.24,9.03-3.94,18.42-4.59,27.82-.58,8.35,1.29,16.52,3.1,24.55,2.73,12.14,7.5,23.58,17.09,31.97,5.07,4.44,11.19,7.68,16.88,11.39,2.08,1.36,4.28,2.53,6.43,3.78,2.46-2.28,4.94,.21,7.35-.03,6.08-.6,12.23-1.08,18.15-2.46,11.42-2.66,22.63-6.29,34.08-8.75,5.9-1.27,12.21-1.51,18.25-1.08,9.32,.66,18.01,4.18,26.51,7.96,6.02,2.68,12.26,4.56,18.82,3.32,7.46-1.41,14.79-3.49,22.19-5.21,5.3-1.23,10.58-3.06,15.95-3.39,9.21-.56,17.6,2.81,25.3,7.68,3.45,2.18,7.12,3.53,11.08,4.09,3.6,.51,7.3,.51,10.86,1.19,10.68,2.06,21.16,.01,31.58-1.66,7.87-1.26,14.22-6.14,20.73-10.45,6.04-3.99,10.36-9.41,12.92-16.06,1.63-4.25,3.09-8.55,1.98-13.49-2.7-12.08-9.72-20.47-20.51-26.04-9.15-4.72-18.96-7-29.16-7.26-6.12-.16-12.26,.55-18.39,.72-12.96,.36-25.87-.3-38.77-1.75-6.3-.71-11.9-2.53-16.82-6.63-3.95-3.29-8.53-4.73-13.84-4.55-11.99,.4-23.56,3.16-35.2,5.63-10.98,2.33-21.66,6.04-33,6.72-4.32,.26-8.25-.41-11.67-2.97-9.64-7.21-14.51-16.96-15.08-28.94-.59-12.36,1.56-24.49,3.36-36.6,1.45-9.78,4.17-19.37,6.27-29.06,1.73-8.02,2.53-16.1,.47-24.16-1.96-7.69-3.87-15.41-6.36-22.93-3.62-10.95-4.83-22.04-2.5-33.3,2.03-9.81,2.71-19.68,2.68-29.99Z"/>
        <path class="cls-16" d="M98.68,122.47c.03,10.31-.65,20.17-2.68,29.99-2.33,11.26-1.11,22.35,2.5,33.3,2.49,7.52,4.4,15.24,6.36,22.93,2.06,8.06,1.26,16.15-.47,24.16-2.1,9.69-4.81,19.28-6.27,29.06-1.8,12.11-3.95,24.24-3.36,36.6,.57,11.98,5.44,21.73,15.08,28.94,3.42,2.56,7.36,3.23,11.67,2.97,11.34-.68,22.02-4.39,33-6.72,11.64-2.47,23.21-5.23,35.2-5.63,5.31-.18,9.89,1.26,13.84,4.55,4.92,4.09,10.51,5.92,16.82,6.63,12.9,1.45,25.81,2.1,38.77,1.75,6.14-.17,12.27-.88,18.39-.72,10.2,.27,20.01,2.54,29.16,7.26,10.79,5.57,17.81,13.97,20.51,26.04,1.11,4.95-.35,9.24-1.98,13.49-2.56,6.65-6.88,12.07-12.92,16.06-6.51,4.31-12.87,9.19-20.73,10.45-10.42,1.67-20.9,3.71-31.58,1.66-3.56-.69-7.26-.68-10.86-1.19-3.96-.57-7.63-1.91-11.08-4.09-7.7-4.87-16.09-8.24-25.3-7.68-5.37,.33-10.65,2.15-15.95,3.39-7.4,1.72-14.73,3.8-22.19,5.21-6.56,1.24-12.8-.65-18.82-3.32-8.5-3.77-17.18-7.29-26.51-7.96-6.04-.43-12.35-.18-18.25,1.08-11.46,2.46-22.66,6.09-34.08,8.75-5.92,1.38-12.08,1.86-18.15,2.46-2.41,.24-4.88-2.26-7.35,.03-2.15-1.25-4.35-2.42-6.43-3.78-5.69-3.71-11.81-6.95-16.88-11.39-9.59-8.39-14.36-19.83-17.09-31.97-1.81-8.04-3.68-16.2-3.1-24.55,.65-9.4,1.35-18.79,4.59-27.82,2.98-8.31,4.5-16.94,4.43-25.83-.03-3.47,.86-6.96,.63-10.4-.44-6.59-.94-13.24-2.21-19.7-2.15-11-1.45-21.71,1.89-32.31,2.63-8.37,5.8-16.6,7.88-25.1,1.97-8.05,2.31-16.33,.97-24.69-1.44-8.97-2.3-18.05-3.27-27.09-1.05-9.87-2.3-19.75-2.82-29.65-.84-16.06,1.81-31.4,11.06-45.07,3.9-5.76,10.15-7.86,16.1-10.35,9.1-3.82,17.39-2.58,25.7,3.14,13.64,9.41,20.71,22.16,23.06,38.34,1.4,9.7,3.05,19.3,2.74,28.79Zm-12.4-30.12c-.89-4.84-1.31-9.83-2.79-14.48-1.55-4.87-4.26-9.34-8.79-12.27-4.18-2.71-10.02-2.09-13.15,1.2-2.89,3.03-2.17,6.4-.96,9.73,1.34,3.72,2.76,7.43,4.47,10.99,3.36,7,6.47,14.19,11.75,20.06,2.65,2.95,3.29,2.89,5.52-.49,2.91-4.43,3.6-9.46,3.95-14.74Zm199.42,269.4c5.12-.57,8-2.82,9.73-7.94,1.22-3.63-.59-9.05-4.12-11.43-10.42-7.01-21.33-6.73-32.42-1.8-2.36,1.05-3.81,3.09-4.09,5.75-.4,3.92,2.83,7.45,7.26,7.73,3.15,.19,6.33-.16,9.47,.11,3.31,.28,6.74,.14,8.63,4.22,.75,1.63,3.63,2.27,5.55,3.36ZM93.13,208.08c-.44-3.75-1.05-7.49-1.28-11.25-.29-4.56-1.74-8.69-4.01-12.57-1.27-2.18-5.58-4.4-7.45-3.94-2.85,.7-5.35,3.66-5.56,6.92-.15,2.48-.32,5.04,.09,7.46,1.85,10.81,3.93,21.58,5.86,32.37,.37,2.09,1.49,3.01,3.37,2.27,1.6-.63,3.41-1.51,4.37-2.82,3.97-5.47,4.43-11.88,4.61-18.42Zm88.52,123.52c-4.34,.72-8.11,1.09-11.75,2.01-3.48,.88-6.94,2.05-10.17,3.59-3.24,1.54-4.86,5.92-3.85,8.89,.78,2.3,4.65,3.62,8.26,2.8,.32-.07,.6-.29,.91-.41,9.06-3.39,18.14-6.74,27.17-10.22,.94-.36,1.59-1.44,2.38-2.19-.8-.74-1.49-1.9-2.42-2.15-3.61-.96-7.3-1.63-10.53-2.32Zm-160.46-5.1c-.51,.38-.94,.53-1.01,.78-2.47,9.04-2.68,18.22-1.23,27.42,.27,1.71,1.18,3.55,2.36,4.81,.84,.9,2.82,1.53,3.92,1.17,1.11-.36,2.12-1.99,2.52-3.27,.42-1.36,.33-3.01,.03-4.44-1.71-8.21-3.52-16.39-5.37-24.57-.15-.68-.8-1.26-1.22-1.89Zm12.44-236.39c.21-2.96,.43-5.91,.63-8.87,.06-.92,.06-1.85,.09-2.77-1.03,.33-2.27,.41-3.05,1.05-.98,.8-1.76,1.98-2.33,3.14-2.54,5.16-2.79,10.8-3.08,16.38-.07,1.35,.68,2.95,1.53,4.07,.7,.92,2.09,1.72,3.21,1.77,.62,.03,1.73-1.51,1.91-2.48m-4.29,119.13l-1.25,.13c-2.71,5.9-3.53,12.16-3.27,18.62,.08,2.1-.4,4.56,2.79,4.84,1.85,.16,3.25-2.22,3.17-5.23,0-.16-.03-.33-.04-.49-.28-4.59-.54-9.18-.85-13.77-.09-1.37-.35-2.73-.54-4.09Zm13.06-134.12c-.23,2.08,.68,4.02,2.86,4.18,1.16,.08,2.67-1.41,3.62-2.53,.67-.8,.74-2.15,.97-3.27,.53-2.57,1.05-5.15,1.47-7.74,.14-.88,0-1.8-.01-2.71-.91,.2-2.04,.12-2.69,.65-3.58,2.89-6.51,6.22-6.22,11.42Zm251.59,308.71l.07,.36c2.42-.45,4.91-.68,7.25-1.4,3.11-.95,4.96-3.44,4.34-5.22-.67-1.91-3.5-2.53-6.62-1.25-2.45,1-4.85,2.16-7.2,3.4-1.33,.7-2.51,1.68-3.76,2.54,1.47,.52,2.93,1.08,4.42,1.54,.46,.14,.99,.02,1.49,.02Z"/>
        <path class="cls-7" d="M86.28,92.36c-.35,5.28-1.04,10.31-3.95,14.74-2.22,3.38-2.86,3.44-5.52,.49-5.28-5.87-8.39-13.06-11.75-20.06-1.71-3.56-3.13-7.27-4.47-10.99-1.2-3.33-1.92-6.7,.96-9.73,3.14-3.29,8.98-3.9,13.15-1.2,4.52,2.93,7.23,7.39,8.79,12.27,1.48,4.65,1.9,9.64,2.79,14.48Z"/>
        <path class="cls-7" d="M285.71,361.75c-1.91-1.09-4.79-1.73-5.55-3.36-1.89-4.09-5.32-3.94-8.63-4.22-3.14-.27-6.32,.09-9.47-.11-4.43-.27-7.66-3.81-7.26-7.73,.27-2.66,1.72-4.7,4.09-5.75,11.08-4.92,22-5.21,32.42,1.8,3.53,2.38,5.34,7.79,4.12,11.43-1.73,5.12-4.6,7.37-9.73,7.94Z"/>
        <path class="cls-7" d="M93.13,208.08c-.19,6.54-.64,12.95-4.61,18.42-.96,1.32-2.77,2.19-4.37,2.82-1.88,.75-3-.17-3.37-2.27-1.92-10.8-4.01-21.56-5.86-32.37-.41-2.42-.24-4.98-.09-7.46,.2-3.26,2.71-6.22,5.56-6.92,1.88-.46,6.18,1.76,7.45,3.94,2.27,3.89,3.72,8.01,4.01,12.57,.24,3.76,.84,7.5,1.28,11.25Z"/>
        <path class="cls-7" d="M181.65,331.6c3.23,.69,6.92,1.36,10.53,2.32,.93,.25,1.62,1.41,2.42,2.15-.79,.75-1.44,1.83-2.38,2.19-9.03,3.47-18.11,6.83-27.17,10.22-.31,.12-.59,.33-.91,.41-3.62,.82-7.48-.5-8.26-2.8-1.01-2.97,.61-7.34,3.85-8.89,3.23-1.54,6.7-2.71,10.17-3.59,3.63-.92,7.41-1.3,11.75-2.01Z"/>
        <path class="cls-8" d="M21.2,326.51c.42,.64,1.07,1.21,1.22,1.89,1.85,8.18,3.66,16.36,5.37,24.57,.3,1.43,.39,3.08-.03,4.44-.4,1.28-1.41,2.91-2.52,3.27-1.11,.36-3.08-.27-3.92-1.17-1.18-1.26-2.09-3.1-2.36-4.81-1.45-9.2-1.24-18.37,1.23-27.42,.07-.25,.5-.4,1.01-.78Z"/>
        <path class="cls-21" d="M32.54,102.39c-.17,.96-1.28,2.5-1.91,2.48-1.12-.05-2.51-.84-3.21-1.77-.85-1.12-1.6-2.72-1.53-4.07,.29-5.58,.54-11.22,3.08-16.38,.57-1.16,1.35-2.33,2.33-3.14,.78-.64,2.02-.72,3.05-1.05-.03,.92-.03,1.85-.09,2.77-.2,2.96-.42,5.91-.63,8.87"/>
        <path class="cls-8" d="M28.25,221.52c.18,1.36,.44,2.72,.54,4.09,.32,4.59,.57,9.18,.85,13.77,.01,.16,.03,.33,.04,.49,.09,3.01-1.32,5.39-3.17,5.23-3.19-.27-2.71-2.74-2.79-4.84-.25-6.46,.56-12.72,3.27-18.62l1.25-.13Z"/>
        <path class="cls-5" d="M41.31,87.4c-.29-5.2,2.64-8.53,6.22-11.42,.65-.52,1.78-.45,2.69-.65,.01,.9,.16,1.83,.01,2.71-.42,2.59-.94,5.17-1.47,7.74-.23,1.12-.3,2.47-.97,3.27-.95,1.12-2.45,2.61-3.62,2.53-2.17-.16-3.08-2.1-2.86-4.18Z"/>
        <path class="cls-20" d="M292.9,396.11c-.5,0-1.04,.12-1.49-.02-1.49-.46-2.95-1.02-4.42-1.54,1.25-.86,2.43-1.84,3.76-2.54,2.35-1.23,4.75-2.39,7.2-3.4,3.12-1.28,5.95-.66,6.62,1.25,.62,1.78-1.23,4.27-4.34,5.22-2.34,.72-4.83,.95-7.25,1.4l-.07-.36Z"/>
      </g>
      <path class="cls-12" d="M2566.61,39.16c4.71,0,9.43,0,14.14,.01,14.61,.95,28.39,4.88,41.79,10.75,10.69,4.68,19.28,11.83,26.53,20.67,10.43,12.73,16.26,27.37,16.96,43.92,.24,5.65,.9,11.32,.61,16.94-.54,10.17-5.21,18.85-11.38,26.65-4.74,5.99-14.5,7.81-21.43,4.47-5.4-2.59-9.61-6.56-12.74-11.63-1.75-2.82-3.65-5.64-4.82-8.71-3.04-7.97-9.46-12.81-16.11-17.04-6.43-4.09-14-5.16-21.66-4.38-5.47,.55-10.98,.97-16.37,1.98-7.69,1.45-14.89,.23-21.91-2.85-6.76-2.96-13.66-4.93-21.2-4.96-18.87-.08-36.77,9.25-43.48,28.71-4.68,13.57-5.88,27.17-2.97,41.2,1.25,6.04,4.33,10.98,8.66,15.38,11.69,.1,23.1-1.43,33.92-6.5,11.73-5.5,23.72-10.47,35.39-16.08,9.36-4.5,19.03-4.3,28.84-3.06,19.43,2.46,37.1,10.18,52.74,21.32,23.54,16.78,36.53,39.48,34.21,69.59-.8,10.41,.07,20.94,.2,31.42,.16,12.32,.53,24.65,.46,36.97-.06,9.48-.52,18.97-1.08,28.44-.4,6.71-3.39,12.42-7.83,17.43-4.47,5.05-9.61,9.25-15.67,12.19-10.3,5-20.67,9.84-31.03,14.73-8.54,4.03-17.43,6.44-26.99,6.01-8.85-.4-17.58,.77-26.37,1.8-20.61,2.42-41.12,2.21-61.51-2.84-5.82-1.44-12.37-1.41-18.33-.46-15.47,2.49-30.11,.32-44.5-5.42-8.79-3.51-17.67-6.81-26.64-9.82-17.93-6.02-28.58-18.67-34.01-36.32-3.51-11.41-2.8-22.73,1.06-33.84,3.58-10.32,11.11-17.2,20.65-22.02,11.78-5.96,24.19-8.21,37.31-5.99,5.08,.86,10.25,1.32,15.24,2.56,11.56,2.88,19.53,10.26,24.79,20.78,1.71,3.42,3.49,6.8,5.27,10.18,5.54,10.46,15.09,13.94,26.06,14.64,4.81,.31,9.66,.07,14.5,.04,7.66-.04,14.81,1.83,21.46,5.62,3.18,1.81,6.33,3.67,9.55,5.41,5.17,2.78,10.62,3.57,16.42,2.39,10.15-2.07,19.57-5.32,26.14-14.08,3.66-4.88,6.28-10.09,7.16-16.23,.82-5.76,2.56-11.18,5.54-16.39,3.27-5.73,6.36-11.92,7.69-18.3,1.87-8.92-.35-17.67-6.5-24.73-2.98-3.41-7.56-4-11.98-4.06-5.33-.07-10.66-.03-15.99-.07-6.18-.05-11.53-2.14-15.26-7.16-3.67-4.94-8.53-6.45-14.38-6.43-17.41,.04-34.51,2.06-51.27,6.97-21.47,6.28-42.74,5.43-63.59-2.73-10.16-3.98-19.37-9.71-27.07-17.47-9.73-9.81-13.14-22.49-15.12-35.65-3.45-22.87-.12-45.12,6.44-67.04,2.95-9.86,5.9-19.71,8.8-29.58,.37-1.26,.76-2.64,.63-3.91-1.66-15.66,5-27.71,16.25-37.81,14.72-13.22,31.66-19.18,51.46-15.78,5.91,1.01,11.81,2.04,17.7,3.17,9.88,1.89,19.66,.24,29.27-1.49,9.45-1.7,18.68-4.6,28-6.99,5.79-1.48,11.57-3,17.35-4.49Zm-169.38,148.03c.54,5.96,.82,11.96,1.67,17.87,1.74,12.13,5.71,23.24,15.54,31.45,15.3,12.75,33.07,18.74,52.78,19.61,9.47,.42,18.4-2.09,27.44-4.38,10.29-2.6,20.69-4.9,31.16-6.63,7.19-1.19,14.57-1.27,21.87-1.68,8.36-.48,15.88,1.29,21.34,8.38,1.81,2.36,4.36,3.52,7.38,3.62,6.65,.2,13.31,.32,19.95,.72,7.11,.43,13.79,2.88,17.68,8.89,8.07,12.48,10.94,25.73,4.28,40.16-4.22,9.15-7.82,18.57-8.82,28.9-.68,7.05-4.11,13.31-9.47,18.27-9.08,8.41-19.87,13.25-32.03,14.96-4.07,.57-8.27,.69-12.38,.45-6.56-.38-11.89-4.09-17.25-7.41-7.47-4.62-15.45-6.82-24.23-6.29-3.65,.22-7.34,.29-10.99,.08-14.29-.82-26.22-5.86-33.42-19.14-1.66-3.07-3.29-6.18-5.19-9.1-1.99-3.05-4.08-6.09-6.49-8.8-5.3-5.94-12.63-7.66-20.05-9.18-13.97-2.86-27.47-1.95-40.32,4.71-7.01,3.63-12.79,8.52-15.8,16-9.79,24.3,3.87,49.62,23.76,57.52,13.75,5.46,27.73,10.31,41.63,15.38,8.33,3.04,16.82,3.21,25.58,2.04,8.55-1.15,17.24-2.22,25.79,.18,8.56,2.41,17.25,3.5,26.13,3.35,8.49-.14,17.03,.29,25.48-.37,12.41-.96,24.7-3.88,37.25-1.72,.8,.14,1.66,0,2.49-.11,7.15-.92,13.99-2.93,20.48-6.04,9.59-4.59,19.21-9.14,28.65-14.04,8.63-4.48,16.19-10.28,18.32-20.51,1.11-5.35,1.75-10.86,1.96-16.32,.37-9.65,.38-19.33,.29-28.99-.06-6.31-.64-12.62-.88-18.94-.33-8.64-.62-17.28-.82-25.93-.19-8.13,.58-16.37-.52-24.36-2.63-19.19-12.78-34.34-28.55-45.05-10.54-7.16-21.94-13.25-34.31-17.08-16.14-4.99-31.82-7.04-47.78,1.88-11.41,6.38-23.89,10.87-35.97,16.03-7.28,3.12-14.93,4.81-22.89,3.79-2.88-.37-6.24-.93-8.36-2.65-5.83-4.73-10.83-10.33-12.9-17.89-3.77-13.69-2.89-27.35,.61-40.91,2.3-8.91,5.58-17.44,11.73-24.52,13.08-15.06,30.3-18.45,48.98-16.52,5.67,.58,11.1,3.3,16.68,4.85,3.49,.97,7.11,2.35,10.61,2.2,6.95-.3,13.86-1.63,20.8-2.37,17.24-1.84,32.04,2.03,41.44,18.12,2.6,4.45,5.12,8.95,7.49,13.52,2.51,4.83,5.83,8.91,10.36,11.93,4.2,2.79,9.76,2.3,13.13-1.49,4.59-5.15,8.02-11,9.29-17.93,1.6-8.69-.22-17.18-1.05-25.79-1.48-15.39-8.89-27.67-18.8-38.82-4.81-5.41-10.54-9.6-17.07-12.81-12.23-6.02-25.15-9.33-38.63-11.09-9.18-1.2-17.88-.16-26.5,2.89-3.91,1.38-7.92,2.5-11.88,3.74-14.23,4.48-28.79,7.29-43.71,6.56-8.59-.42-17.18-1.96-25.63-3.67-8.36-1.69-16.65-1.44-24.78,.23-12.02,2.47-21.62,9.43-29.22,18.84-6.94,8.59-10.42,18.4-8.15,29.7,.35,1.73,.15,3.68-.25,5.43-1.58,6.79-3.24,13.57-5.07,20.29-5,18.34-9.28,36.78-9.85,55.97Z"/>
      <path class="cls-16" d="M2397.23,187.2c.57-19.18,4.84-37.63,9.85-55.97,1.84-6.72,3.49-13.5,5.07-20.29,.41-1.74,.6-3.7,.25-5.43-2.27-11.3,1.21-21.11,8.15-29.7,7.61-9.41,17.2-16.37,29.22-18.84,8.13-1.67,16.42-1.93,24.78-.23,8.45,1.71,17.04,3.25,25.63,3.67,14.92,.73,29.48-2.08,43.71-6.56,3.96-1.25,7.97-2.36,11.88-3.74,8.62-3.04,17.31-4.09,26.5-2.89,13.49,1.76,26.4,5.07,38.63,11.09,6.53,3.21,12.26,7.4,17.07,12.81,9.91,11.15,17.32,23.43,18.8,38.82,.83,8.61,2.64,17.1,1.05,25.79-1.27,6.93-4.7,12.78-9.29,17.93-3.37,3.79-8.93,4.28-13.13,1.49-4.53-3.01-7.85-7.1-10.36-11.93-2.37-4.57-4.89-9.07-7.49-13.52-9.4-16.09-24.2-19.96-41.44-18.12-6.94,.74-13.85,2.07-20.8,2.37-3.5,.15-7.12-1.23-10.61-2.2-5.59-1.55-11.02-4.26-16.68-4.85-18.69-1.93-35.91,1.47-48.98,16.52-6.15,7.08-9.43,15.61-11.73,24.52-3.5,13.56-4.38,27.21-.61,40.91,2.08,7.56,7.08,13.16,12.9,17.89,2.12,1.72,5.48,2.28,8.36,2.65,7.95,1.02,15.6-.68,22.89-3.79,12.07-5.17,24.55-9.65,35.97-16.03,15.96-8.92,31.64-6.88,47.78-1.88,12.37,3.83,23.76,9.92,34.31,17.08,15.78,10.71,25.92,25.87,28.55,45.05,1.1,7.99,.33,16.24,.52,24.36,.2,8.64,.49,17.29,.82,25.93,.24,6.31,.82,12.62,.88,18.94,.1,9.66,.08,19.34-.29,28.99-.21,5.46-.84,10.97-1.96,16.32-2.13,10.23-9.69,16.03-18.32,20.51-9.44,4.9-19.05,9.45-28.65,14.04-6.49,3.1-13.33,5.12-20.48,6.04-.82,.11-1.69,.25-2.49,.11-12.55-2.16-24.84,.76-37.25,1.72-8.45,.65-16.98,.23-25.48,.37-8.88,.15-17.57-.94-26.13-3.35-8.55-2.41-17.24-1.33-25.79-.18-8.75,1.17-17.25,1-25.58-2.04-13.9-5.07-27.89-9.92-41.63-15.38-19.89-7.9-33.55-33.22-23.76-57.52,3.01-7.48,8.8-12.37,15.8-16,12.85-6.66,26.35-7.58,40.32-4.71,7.41,1.52,14.75,3.23,20.05,9.18,2.42,2.71,4.51,5.75,6.49,8.8,1.9,2.92,3.53,6.03,5.19,9.1,7.19,13.28,19.13,18.32,33.42,19.14,3.65,.21,7.34,.14,10.99-.08,8.78-.53,16.76,1.66,24.23,6.29,5.36,3.32,10.69,7.03,17.25,7.41,4.11,.24,8.31,.12,12.38-.45,12.16-1.71,22.95-6.55,32.03-14.96,5.36-4.96,8.78-11.22,9.47-18.27,1-10.33,4.6-19.75,8.82-28.9,6.66-14.43,3.79-27.68-4.28-40.16-3.89-6.01-10.56-8.46-17.68-8.89-6.64-.4-13.3-.51-19.95-.72-3.02-.09-5.57-1.26-7.38-3.62-5.46-7.09-12.98-8.86-21.34-8.38-7.3,.42-14.69,.5-21.87,1.68-10.47,1.73-20.87,4.03-31.16,6.63-9.05,2.28-17.98,4.79-27.44,4.38-19.71-.87-37.48-6.86-52.78-19.61-9.84-8.2-13.8-19.32-15.54-31.45-.85-5.92-1.13-11.91-1.67-17.87Zm56.87,154.17c-1.75-3.48-2.97-7.18-5.2-10.09-4.17-5.42-9.41-9.85-15.51-13.04-4.61-2.41-9.39-3.17-14.19-.22-4.57,2.81-4.94,8.44-.5,11.28,4.04,2.59,8.25,4.92,12.48,7.2,4.07,2.19,8.12,4.53,12.43,6.11,3.03,1.11,6.6,2.56,10.49-1.23Zm182.57-6.81c.11-7.59-3.32-12-8.43-12.29-5.06-.28-9.13,3.5-9.52,9.35-.53,7.93-.76,15.87-1.07,23.81-.11,2.68-.3,5.7,2.97,6.64,2.89,.83,4.99-1.17,6.89-3.11,.35-.35,.65-.75,.95-1.15,5.41-7.33,6.18-16.21,8.23-23.25Zm-6.32-83.96c.14-1.57,.34-2.54,.3-3.5-.29-8.73-12.49-20.98-18.77-23.55-2.85-1.16-6.75,.26-7.98,2.43-1.38,2.43-.91,5.88,1.2,8.2,.66,.73,1.45,1.36,2.23,1.97,2.59,2.04,5.13,4.15,7.83,6.03,4.56,3.17,8.97,6.67,15.18,8.41Zm-195.52-40.87c2.16-9.45,2.18-17.88,1.67-26.28-.22-3.57-3.05-5.33-6.7-5.21-3.11,.11-5.4,1.37-5.92,4.95-1.19,8.12-.98,16.23,5,22.81,1.33,1.47,3.47,2.21,5.96,3.72Zm190.85-131.27c-.03-.27-.03-.78-.16-1.25-1.52-5.78-14.41-14.52-20.42-13.77-3.44,.43-6.9,3.96-4.13,7.37,4.84,5.95,10.4,11.13,18.12,13.17,3.47,.92,6.7-1.75,6.59-5.51Zm-224.46,293.34c-1.81-4.21-3.43-7.25-4.43-10.49-2-6.49-3.59-13.1-5.49-19.62-.97-3.31-2.84-4.71-5.19-4.34-2.25,.35-3.82,2.49-4.05,5.59-.05,.65,.02,1.33,.12,1.98,1.64,10.72,6.98,19.21,15.58,25.7,.6,.45,1.48,.52,3.46,1.17Zm19.15-152.71c-1.48-4.83-2.99-9.5-4.31-14.24-.67-2.39-.91-4.9-1.47-7.33-.77-3.34-2.85-5.28-5.25-5.08-2.6,.22-4.9,2.99-4.5,6.24,.88,7.29,3.47,13.87,9.33,18.72,1.79,1.48,3.77,2.73,6.21,1.68Zm217.07,22.92c-.32-2.76-.39-4.66-.79-6.5-1.27-5.93-4.72-10.49-9.34-14.22-1.86-1.5-4-1.73-5.9-.09-1.64,1.41-1.32,4.16,.56,6.2,.56,.61,1.28,1.06,1.85,1.66,3.53,3.71,7.02,7.46,10.58,11.14,.57,.59,1.45,.89,3.03,1.81Zm-204.08-163.29c-3.52-.3-4.27-.26-5.94,1.36-3.51,3.41-5.26,7.58-4.98,12.53,.15,2.59,1.61,4.07,4.03,4.25,2.5,.18,3.2-1.58,3.62-3.81,.9-4.69,2.1-9.33,3.26-14.33Zm52.16-3.45c-5.19-2.76-8.17-3.82-11.06-2.88-1.46,.48-3.12,1.99-3.59,3.39-.38,1.16,.44,3.39,1.47,4.22,3.86,3.11,11.52,.21,13.18-4.74Zm-35.58,5.8c-5.27,.73-8.8,2.45-11.35,5.95-1.13,1.55-1.03,3.36,.59,4.38,.86,.54,2.96,.6,3.44,.02,2.44-3.01,4.52-6.3,7.33-10.35Zm190.53,46.93c2.66-3.35,2.47-6.3,2.19-9.21-.19-1.96-1.07-3.81-3.38-3.31-2.18,.47-2.6,2.27-1.83,4.32,.92,2.44,1.81,4.89,3.02,8.2Z"/>
      <path class="cls-7" d="M2454.1,341.36c-3.89,3.79-7.46,2.34-10.49,1.23-4.31-1.58-8.36-3.92-12.43-6.11-4.23-2.28-8.44-4.61-12.48-7.2-4.44-2.84-4.07-8.47,.5-11.28,4.8-2.95,9.58-2.19,14.19,.22,6.1,3.19,11.35,7.62,15.51,13.04,2.24,2.91,3.46,6.61,5.2,10.09Z"/>
      <path class="cls-7" d="M2636.67,334.55c-2.05,7.04-2.81,15.92-8.23,23.25-.3,.4-.6,.8-.95,1.15-1.9,1.94-3.99,3.94-6.89,3.11-3.26-.93-3.07-3.96-2.97-6.64,.31-7.94,.55-15.89,1.07-23.81,.39-5.85,4.46-9.64,9.52-9.35,5.11,.29,8.54,4.7,8.43,12.29Z"/>
      <path class="cls-7" d="M2630.36,250.59c-6.22-1.74-10.62-5.24-15.18-8.41-2.7-1.88-5.24-4-7.83-6.03-.78-.61-1.56-1.24-2.23-1.97-2.11-2.32-2.58-5.77-1.2-8.2,1.23-2.16,5.13-3.59,7.98-2.43,6.29,2.56,18.48,14.81,18.77,23.55,.03,.96-.16,1.92-.3,3.5Z"/>
      <path class="cls-7" d="M2434.84,209.72c-2.49-1.51-4.62-2.26-5.96-3.72-5.98-6.58-6.18-14.69-5-22.81,.52-3.58,2.81-4.84,5.92-4.95,3.65-.13,6.48,1.64,6.7,5.21,.52,8.4,.5,16.83-1.67,26.28Z"/>
      <path class="cls-7" d="M2625.68,78.45c.1,3.76-3.12,6.43-6.59,5.51-7.72-2.04-13.28-7.22-18.12-13.17-2.77-3.41,.69-6.94,4.13-7.37,6.02-.75,18.9,7.99,20.42,13.77,.12,.47,.13,.98,.16,1.25Z"/>
      <path class="cls-19" d="M2401.22,371.8c-1.98-.65-2.86-.72-3.46-1.17-8.6-6.49-13.94-14.99-15.58-25.7-.1-.65-.16-1.32-.12-1.98,.23-3.1,1.79-5.24,4.05-5.59,2.35-.37,4.22,1.02,5.19,4.34,1.9,6.52,3.49,13.13,5.49,19.62,1,3.23,2.62,6.28,4.43,10.49Z"/>
      <path class="cls-1" d="M2420.37,219.08c-2.44,1.05-4.42-.2-6.21-1.68-5.86-4.85-8.44-11.43-9.33-18.72-.39-3.24,1.9-6.02,4.5-6.24,2.4-.2,4.48,1.74,5.25,5.08,.56,2.43,.8,4.94,1.47,7.33,1.32,4.73,2.84,9.41,4.31,14.24Z"/>
      <path class="cls-1" d="M2637.44,242.01c-1.57-.92-2.45-1.22-3.03-1.81-3.56-3.68-7.05-7.43-10.58-11.14-.57-.6-1.29-1.05-1.85-1.66-1.88-2.04-2.2-4.78-.56-6.2,1.9-1.64,4.04-1.41,5.9,.09,4.62,3.73,8.07,8.3,9.34,14.22,.39,1.84,.46,3.74,.79,6.5Z"/>
      <path class="cls-4" d="M2433.37,78.72c-1.16,5-2.36,9.64-3.26,14.33-.43,2.23-1.13,3.99-3.62,3.81-2.42-.18-3.88-1.66-4.03-4.25-.28-4.96,1.47-9.13,4.98-12.53,1.66-1.62,2.42-1.66,5.94-1.36Z"/>
      <path class="cls-7" d="M2485.53,75.27c-1.66,4.95-9.32,7.84-13.18,4.74-1.03-.83-1.85-3.06-1.47-4.22,.46-1.41,2.12-2.92,3.59-3.39,2.89-.94,5.87,.12,11.06,2.88Z"/>
      <path class="cls-11" d="M2449.95,81.07c-2.8,4.05-4.89,7.34-7.33,10.35-.47,.59-2.57,.53-3.44-.02-1.62-1.01-1.72-2.83-.59-4.38,2.55-3.5,6.08-5.22,11.35-5.95Z"/>
      <path class="cls-3" d="M2640.48,128c-1.22-3.3-2.1-5.76-3.02-8.2-.77-2.05-.35-3.85,1.83-4.32,2.31-.5,3.19,1.35,3.38,3.31,.28,2.91,.47,5.86-2.19,9.21Z"/>
      <g>
        <path class="cls-12" d="M1465.19,0c.69,.37,1.5,.13,2.23,.27,7.95,1.5,15.92,2.87,23.87,4.4,14.89,2.88,23.71,12.25,27.86,26.44,1.99,6.8,2.83,13.69,2.42,20.87-1.4,24.53-5.2,48.69-10.97,72.51-3.89,16.06-3.44,31.64,1.73,47.33,3.54,10.75,5.94,21.87,4.03,33.26-.98,5.84-3.02,11.52-4.77,17.22-1.44,4.69-3.21,9.29-4.76,13.95-3.39,10.26-3.7,20.72-2.02,31.31,3.72,23.48,7.69,46.92,11.03,70.45,1.83,12.89,3.02,25.92,3.65,38.92,.62,12.64-4.7,23.29-13.6,32.11-3.85,3.81-8.69,6.05-13.95,7.1-6.21,1.25-12.49,2.11-18.73,3.21-.89,.16-2.16-.22-3.01,.16-2.04,.46-3.26,.46-5.38,.46-1.67,0-3.82-1.13-5.56-1.43-5.1-.87-9.8-2.61-14.33-5.12-8.76-4.86-17.68-9.44-26.53-14.15-5.58-2.97-11.44-3.61-17.38-1.57-9.3,3.19-18.9,5.83-27.67,10.13-22.93,11.26-46.84,13.29-71.61,9.47-3.45-.53-6.96-1.34-10.18-2.66-13.17-5.42-26.35-10.83-38.64-18.18-7.08-4.23-14.11-8.75-22.38-10.43-4.83-.98-9.71-1.76-14.6-2.38-16.81-2.13-29.68-10.05-38.36-24.87-2.46-4.2-6.3-7.67-7.28-12.64-1.09-5.52-2.52-11.13-2.45-16.69,.16-12.51,1.18-25.01,3.93-37.27,2.87-12.79,8.22-24.65,13.68-36.5,2.41-5.23,4.38-10.76,5.75-16.36,1.94-7.91,.18-15.81-1.76-23.51-2.31-9.14-3.57-18.36-2.78-27.75,1.9-22.64,12.11-40.63,31.08-53.18,4.9-3.24,10.69-5.5,16.37-7.13,9.97-2.86,20.11-5.21,30.29-7.17,10.83-2.07,21.78-1.8,32.52,.91,8.32,2.1,16.67,3.41,24.95,.41,5.1-1.85,9.97-4.34,14.85-6.73,2.04-1,3.9-2.41,5.75-3.75,11.95-8.62,25.01-9.49,38.77-5.61,7.23,2.04,13.11,6.06,17.36,12.22,2.99,4.34,5.68,8.9,8.4,13.43,1.99,3.32,3.79,6.74,6.05,10.78,.54-1.56,1.08-2.53,1.22-3.56,1.74-12.75,3.08-25.52,3.17-38.43,.14-21.54,1.74-42.96,6.72-64.01,1.7-7.2,3.93-14.21,7.4-20.82,4.23-8.06,10.64-12.9,19.64-14.45,1.59-.27,3.77-.99,5.53-.62,3.18,0,5.26-.37,8.44-.37Zm-287.33,328.17c.76,6.43,.46,13.22,2.5,19.22,4.03,11.84,12.23,20.56,24.47,24.32,6.65,2.04,13.65,3.14,20.57,4.09,8.65,1.18,16.74,3.63,24.28,8.06,13.04,7.66,26.5,14.49,40.62,19.99,7.27,2.83,14.66,4.68,22.48,4.97,7.71,.28,15.42,.68,23.13-.09,8.57-.86,16.93-2.4,24.98-5.81,11.3-4.79,22.71-9.37,34.28-13.46,9.98-3.52,20.34-3.57,29.59,1.96,8.96,5.35,18.66,9,27.88,13.71,5.38,2.75,11.43,3.6,17.41,3.39,5.06-.18,10.1-1.16,15.12-2,12.2-2.05,21.68-12.21,23.73-24.37,1.85-10.97-.79-21.72-.77-32.59,0-3.66-.62-7.34-1.17-10.97-2.22-14.56-4.55-29.09-6.8-43.65-1.31-8.49-2.76-16.96-3.73-25.48-.79-6.94-2.09-13.82-.87-20.97,1.62-9.56,4.2-18.8,7.36-27.91,2.38-6.86,3.81-13.82,3.85-21.13,.05-9.45-2.32-18.44-4.79-27.39-2.49-9.03-4.2-18.07-3.98-27.5,.24-10.63,2.89-20.81,4.94-31.13,2.18-11,4.18-22.04,5.77-33.14,1.19-8.33,1.11-16.85,2.48-25.14,1.32-7.97-.26-15.37-2.54-22.77-2.58-8.38-7.52-14.66-16.43-16.98-2.03-.53-4.09-1.05-6.17-1.33-8.69-1.2-17.4-2.25-26.08-3.48-9.14-1.29-16.35,2.15-20.71,10.09-3.67,6.69-5.4,13.99-7.14,21.38-4.56,19.31-5.2,38.95-5.66,58.62-.07,2.97,.69,5.97,.5,8.93-.44,7.18-.95,14.38-1.92,21.51-.85,6.23-2.26,12.4-3.61,18.56-.67,3.04-2.19,5.66-5.64,6.23-3.49,.58-6.23-.94-8.21-3.7-1.95-2.71-3.81-5.49-5.51-8.37-3.66-6.2-7.04-12.58-10.83-18.71-3.19-5.15-7.85-8.44-13.96-9.5-10.33-1.79-20.23-1.59-29.15,5.06-3.09,2.3-6.52,4.18-9.93,5.99-9.59,5.08-19.63,8.81-30.7,7.99-5.22-.39-10.39-1.58-15.55-2.58-8.17-1.58-16.37-2.5-24.59-.74-10.11,2.17-20.28,4.18-30.19,7.05-5.65,1.63-11.36,4.1-16.14,7.47-18.06,12.7-30.02,37.83-23.43,63.28,1.45,5.59,2.43,11.3,3.45,16.99,1.58,8.86,.68,17.54-2.79,25.82-3.19,7.61-6.87,15.01-10.12,22.6-7.31,17.09-9.47,35.15-10.28,53.61Z"/>
        <path class="cls-16" d="M1177.86,328.17c.81-18.46,2.97-36.52,10.28-53.61,3.24-7.59,6.93-14.99,10.12-22.6,3.47-8.28,4.36-16.97,2.79-25.82-1.01-5.69-2-11.4-3.45-16.99-6.59-25.45,5.37-50.58,23.43-63.28,4.79-3.37,10.5-5.83,16.14-7.47,9.91-2.87,20.09-4.88,30.19-7.05,8.22-1.76,16.42-.84,24.59,.74,5.16,1,10.33,2.19,15.55,2.58,11.06,.82,21.11-2.91,30.7-7.99,3.41-1.81,6.85-3.69,9.93-5.99,8.92-6.65,18.82-6.85,29.15-5.06,6.11,1.06,10.77,4.36,13.96,9.5,3.79,6.12,7.17,12.5,10.83,18.71,1.7,2.87,3.56,5.66,5.51,8.37,1.99,2.76,4.72,4.28,8.21,3.7,3.45-.57,4.97-3.2,5.64-6.23,1.35-6.16,2.76-12.32,3.61-18.56,.97-7.13,1.48-14.32,1.92-21.51,.18-2.95-.57-5.96-.5-8.93,.46-19.67,1.11-39.31,5.66-58.62,1.74-7.38,3.47-14.68,7.14-21.38,4.36-7.94,11.57-11.39,20.71-10.09,8.68,1.23,17.39,2.28,26.08,3.48,2.08,.29,4.13,.8,6.17,1.33,8.92,2.32,13.85,8.59,16.43,16.98,2.28,7.4,3.85,14.79,2.54,22.77-1.37,8.29-1.29,16.81-2.48,25.14-1.58,11.1-3.59,22.14-5.77,33.14-2.05,10.32-4.69,20.5-4.94,31.13-.22,9.43,1.49,18.47,3.98,27.5,2.47,8.95,4.85,17.94,4.79,27.39-.04,7.31-1.47,14.27-3.85,21.13-3.16,9.11-5.74,18.36-7.36,27.91-1.22,7.15,.08,14.03,.87,20.97,.97,8.53,2.42,17,3.73,25.48,2.25,14.55,4.57,29.09,6.8,43.65,.56,3.64,1.18,7.32,1.17,10.97-.02,10.87,2.62,21.62,.77,32.59-2.05,12.16-11.53,22.32-23.73,24.37-5.01,.84-10.06,1.83-15.12,2-5.98,.21-12.03-.64-17.41-3.39-9.22-4.72-18.92-8.36-27.88-13.71-9.25-5.52-19.61-5.48-29.59-1.96-11.57,4.08-22.98,8.66-34.28,13.46-8.05,3.41-16.4,4.95-24.98,5.81-7.7,.77-15.41,.37-23.13,.09-7.82-.28-15.22-2.14-22.48-4.97-14.12-5.5-27.58-12.33-40.62-19.99-7.55-4.43-15.64-6.88-24.28-8.06-6.92-.95-13.92-2.05-20.57-4.09-12.24-3.76-20.43-12.47-24.47-24.32-2.04-5.99-1.74-12.79-2.5-19.22Zm63.22-157.48c.74-3.3,1.49-6.61,2.29-10.17-8.53,2.12-10.83,5.23-8.75,11.19-5.72,3.1-10.02,7.49-12.12,13.74-1.48,4.42-.11,8.46,3.34,10.56,3.45,2.09,6.99,1.61,10.3-2.02,3.89-4.27,6.82-9.22,8.47-14.81,.43-1.47,.49-3.07,.61-4.62,.23-2.97-1.27-4.18-4.14-3.86Zm79.18,187.16c2.78,0,6.15,.29,9.46-.06,7.32-.77,14.59-1.99,21.9-2.79,9.54-1.05,18.51-3.59,26.84-8.51,16.02-9.46,24.27-23.28,24.68-41.96,.2-9.22-1.12-18.17-2.81-27.17-1.25-6.69-2.61-13.58-2.26-20.3,.38-7.26,2.46-14.48,4.22-21.61,1.64-6.67,3.54-13.3,2.78-20.23-1.47-13.41-6.93-24.44-20.18-29.73-13.25-5.29-26.99-5.97-40.83-2.37-17.59,4.57-30.17,16.03-40.78,30.08-6.02,7.96-9.57,17.14-12.56,26.54-2.56,8.05-6.49,15.12-12.96,20.73-3.06,2.65-5.94,5.54-8.63,8.56-13.15,14.8-17.48,40.85,.56,58.16,4.95,4.75,10.11,9.29,15.05,14.06,1.17,1.14,1.75,2.87,2.74,4.22,1.3,1.77,2.39,4.28,4.17,5.01,9,3.7,17.56,9.26,28.59,7.36Zm123.21-103.45c4.45-7.71,5.59-16.03,7-24.23,1-5.83,1.59-11.75,2-17.65,.18-2.55-.07-5.36-.99-7.71-2.49-6.34-9.96-7.96-14.22-2.38-2.02,2.65-2.59,5.73-2.52,8.86,.18,7.88,.32,15.79,1.06,23.63,.49,5.15,1.98,10.21,3.04,15.31,.47,2.27,1.71,3.75,4.64,4.17Zm23.4-172.01c-.54-4.14-.76-8.35-1.7-12.39-.77-3.32-4.25-5.31-7.6-5.2-3.61,.12-6.11,1.59-6.88,5.29-.84,4.05-1.33,8.34-.99,12.44,.58,7.08,1.7,14.14,3.02,21.13,1.06,5.61,2.7,11.11,4.19,16.63,.18,.66,1.05,1.61,1.56,1.58,.63-.03,1.43-.83,1.78-1.49,.71-1.38,1.38-2.85,1.69-4.36,2.29-11.08,4.59-22.17,4.94-33.63Zm25.18-4.21c4.98-3.32,5.99-7.42,5.96-11.68-.09-10.71-2.97-20.74-8.28-30.03-.85-1.48-2.08-2.9-3.46-3.89-3.12-2.22-6.57-3.27-10.35-1.56-4.32,1.96-4.91,6.46-1.39,9.66,1.38,1.25,2.82,2.68,3.57,4.33,4.22,9.23,8.25,18.55,12.29,27.87,.65,1.5,1,3.13,1.67,5.3Zm-263.11,180.05c-8.09,4.98-12.42,11.46-15.62,18.77-2.31,5.27-3.89,10.76-3.13,16.61,.55,4.17,2.77,6.02,6.3,6.32,4.04,.34,5.87-3.22,6.47-6.26,2-10.04,4.02-20.08,5.94-30.13,.27-1.4,.04-2.89,.04-5.3Zm135.83-127.72c-1.23-.49-2.08-1.18-2.75-1.04-5.42,1.12-10.95,1.98-16.15,3.78-3.34,1.16-6.27,3.66-9.22,5.78-1.99,1.43-1.86,3.69-1.19,5.77,1.08,3.38,5.55,5.14,9.21,3,7.52-4.39,14.99-8.98,20.1-17.29Zm118.6,237.89c-1.31,.38-1.97,.37-2.24,.69-4.46,5.25-10.66,7.06-16.98,8.58-2.54,.61-5.14,.95-7.7,1.44-2.48,.48-3.69,2.45-3.52,4.54,.12,1.43,1.49,3.29,2.8,3.94,1.76,.87,4.09,1.26,6.02,.94,3.23-.54,6.44-1.57,9.48-2.82,5.41-2.22,9.36-6.09,11.35-11.66,.58-1.63,.51-3.48,.79-5.65Zm-110.9,18.86c2.65-1.13,4.88-1.75,6.77-2.93,6.68-4.18,13.26-8.51,19.82-12.88,.72-.48,1.04-1.57,1.54-2.38-.86-.25-1.74-.75-2.59-.71-7.31,.36-13.93,3.15-20.48,6.09-2.56,1.15-5.16,2.27-7.51,3.77-1.91,1.23-2.82,3.49-1.66,5.52,.83,1.45,2.67,2.33,4.1,3.51Zm68.85-325.42c-4.42,4.87-6.22,10.81-7.62,16.85-.74,3.19-1.1,6.55-1.07,9.82,.02,2.46,1.91,4.1,4.3,4.68,1.87,.45,4.53-1.42,5-3.79,1.79-9.14,2.19-18.3-.6-27.57Zm-210.74,92.93l-.92-.82c-9.34,3.95-15.16,11.16-18.45,20.64-.37,1.06-.3,2.43,0,3.54,.78,2.97,3.87,4.02,6.07,1.94,1.35-1.28,2.32-3.05,3.2-4.74,2.98-5.75,5.85-11.56,8.74-17.36,.52-1.04,.91-2.14,1.36-3.21Z"/>
        <path class="cls-12" d="M1320.26,357.85c-11.03,1.9-19.59-3.66-28.59-7.36-1.78-.73-2.87-3.24-4.17-5.01-.99-1.35-1.57-3.09-2.74-4.22-4.93-4.77-10.09-9.31-15.05-14.06-18.04-17.31-13.72-43.36-.56-58.16,2.69-3.02,5.57-5.91,8.63-8.56,6.47-5.61,10.39-12.68,12.96-20.73,2.99-9.39,6.54-18.57,12.56-26.54,10.61-14.05,23.19-25.51,40.78-30.08,13.84-3.6,27.57-2.92,40.83,2.37,13.24,5.28,18.71,16.31,20.18,29.73,.76,6.92-1.14,13.55-2.78,20.23-1.75,7.13-3.84,14.35-4.22,21.61-.35,6.72,1.01,13.61,2.26,20.3,1.69,9,3.01,17.96,2.81,27.17-.41,18.68-8.67,32.5-24.68,41.96-8.33,4.92-17.3,7.46-26.84,8.51-7.31,.8-14.58,2.02-21.9,2.79-3.31,.35-6.69,.06-9.46,.06Zm-11.18-11.26c6.53-.54,11.09-.94,15.65-1.28,9.13-.68,18.28-1.2,27.39-2.07,3.65-.35,7.39-1.02,10.82-2.29,10.86-4,20.28-10.09,25.42-20.94,3.52-7.43,4.96-15.47,4.05-23.69-.64-5.77-1.64-11.52-2.91-17.18-3.04-13.51-2.85-26.9,.58-40.3,1.39-5.46,2.82-10.92,3.81-16.46,2.41-13.43-4.81-25.2-17.84-28.91-11.85-3.38-23.8-3.58-35.2,1.56-16.7,7.53-29.04,19.69-36.34,36.62-2.09,4.83-3.63,9.9-5.33,14.9-2.38,7-6.23,12.94-11.95,17.73-3.24,2.71-6.13,5.83-9.2,8.74-6.89,6.54-9.93,14.8-10.69,24.05-.76,9.24,2.92,16.93,9.01,23.46,6.38,6.83,13.17,13.26,19.71,19.94,4.14,4.23,8.64,7.32,13.02,6.14Z"/>
        <path class="cls-7" d="M1443.47,254.4c-2.93-.42-4.17-1.9-4.64-4.17-1.06-5.1-2.55-10.15-3.04-15.31-.74-7.84-.88-15.74-1.06-23.63-.07-3.13,.5-6.21,2.52-8.86,4.26-5.58,11.73-3.97,14.22,2.38,.92,2.35,1.17,5.16,.99,7.71-.41,5.9-1,11.82-2,17.65-1.41,8.2-2.55,16.52-7,24.23Z"/>
        <path class="cls-7" d="M1466.88,82.39c-.35,11.46-2.65,22.55-4.94,33.63-.31,1.51-.98,2.98-1.69,4.36-.34,.66-1.14,1.46-1.78,1.49-.51,.03-1.38-.92-1.56-1.58-1.49-5.52-3.13-11.02-4.19-16.63-1.31-6.99-2.43-14.05-3.02-21.13-.34-4.1,.15-8.39,.99-12.44,.77-3.7,3.26-5.17,6.88-5.29,3.35-.11,6.82,1.88,7.6,5.2,.94,4.04,1.17,8.25,1.7,12.39Z"/>
        <path class="cls-17" d="M1492.06,78.18c-.67-2.17-1.02-3.8-1.67-5.3-4.04-9.32-8.07-18.63-12.29-27.87-.75-1.65-2.19-3.07-3.57-4.33-3.52-3.2-2.93-7.7,1.39-9.66,3.78-1.71,7.23-.66,10.35,1.56,1.39,.98,2.62,2.41,3.46,3.89,5.31,9.29,8.19,19.32,8.28,30.03,.04,4.26-.97,8.35-5.96,11.68Z"/>
        <path class="cls-7" d="M1228.95,258.22c0,2.41,.23,3.91-.04,5.3-1.92,10.05-3.94,20.09-5.94,30.13-.61,3.04-2.43,6.6-6.47,6.26-3.54-.3-5.76-2.14-6.3-6.32-.77-5.85,.81-11.34,3.13-16.61,3.21-7.31,7.53-13.78,15.62-18.77Z"/>
        <path class="cls-7" d="M1241.08,170.68c2.88-.31,4.37,.9,4.14,3.86-.12,1.55-.18,3.15-.61,4.62-1.65,5.59-4.58,10.54-8.47,14.81-3.3,3.63-6.85,4.11-10.3,2.02-3.45-2.09-4.83-6.14-3.34-10.56,2.1-6.25,6.4-10.64,12.12-13.74,2.44,1.48,4.7,1.8,6.46-1.02Z"/>
        <path class="cls-7" d="M1364.78,130.51c-5.11,8.31-12.58,12.9-20.1,17.29-3.66,2.14-8.13,.37-9.21-3-.66-2.08-.8-4.34,1.19-5.77,2.95-2.12,5.87-4.62,9.22-5.78,5.2-1.8,10.73-2.66,16.15-3.78,.67-.14,1.52,.55,2.75,1.04Z"/>
        <path class="cls-19" d="M1483.39,368.4c-.28,2.16-.21,4.02-.79,5.65-1.99,5.57-5.95,9.44-11.35,11.66-3.04,1.25-6.25,2.28-9.48,2.82-1.93,.32-4.26-.07-6.02-.94-1.31-.65-2.68-2.52-2.8-3.94-.17-2.09,1.04-4.05,3.52-4.54,2.56-.5,5.16-.83,7.7-1.44,6.32-1.52,12.52-3.32,16.98-8.58,.27-.32,.93-.3,2.24-.69Z"/>
        <path class="cls-10" d="M1372.49,387.26c-1.44-1.17-3.27-2.05-4.1-3.51-1.16-2.04-.25-4.3,1.66-5.52,2.34-1.5,4.95-2.62,7.51-3.77,6.55-2.94,13.16-5.74,20.48-6.09,.85-.04,1.73,.46,2.59,.71-.5,.81-.82,1.9-1.54,2.38-6.56,4.37-13.14,8.7-19.82,12.88-1.88,1.18-4.12,1.8-6.77,2.93Z"/>
        <path class="cls-10" d="M1441.33,61.84c2.79,9.27,2.4,18.43,.6,27.57-.46,2.37-3.13,4.24-5,3.79-2.39-.58-4.28-2.22-4.3-4.68-.02-3.28,.33-6.63,1.07-9.82,1.4-6.04,3.2-11.98,7.62-16.85Z"/>
        <path class="cls-10" d="M1230.59,154.77c-.45,1.07-.85,2.17-1.36,3.21-2.89,5.8-5.76,11.6-8.74,17.36-.88,1.69-1.84,3.46-3.2,4.74-2.2,2.08-5.28,1.03-6.07-1.94-.29-1.11-.36-2.48,0-3.54,3.29-9.48,9.11-16.69,18.45-20.64l.92,.82Z"/>
        <path class="cls-15" d="M1241.08,170.68c-1.76,2.82-4.02,2.5-6.46,1.02-2.07-5.96,.22-9.07,8.75-11.19-.8,3.57-1.55,6.87-2.29,10.17Z"/>
      </g>
      <g>
        <path class="cls-12" d="M2304.53,374.48c.16,.81-.1,2.44-.41,2.84-3.75,18.86-15.86,30.08-33.4,36.14-3.22,1.11-6.83,1.54-10.26,1.53-7.31-.01-14.63-.39-21.93-.9-2.24-.16-4.59-.87-6.58-1.91-15.45-8.14-23.19-21.54-24.76-38.43-2-21.55-2.12-43.15,1.24-64.61,2.59-16.55,2.39-33.08,.44-49.66-1.81-15.33-3.71-30.66-5.26-46.01-.83-8.26-1-16.58-1.46-24.88-.35-6.21-2.4-11.62-7.08-15.95-2.64-2.43-5.61-3.51-9.13-2.93-2.12,.35-4.21,.95-6.32,1.39-7.97,1.66-13.71,5.84-17.4,13.39-2.45,5.01-6.25,9.35-9.35,14.05-1.46,2.2-2.75,4.52-4.04,6.83-3.07,5.49-5.84,11.17-9.2,16.47-5.25,8.3-12.55,14.19-22.28,16.46-11.97,2.79-19.21,10.34-21.83,22-2.36,10.5-4.29,21.14-5.68,31.82-1.92,14.82-3.46,29.7-4.59,44.59-.93,12.25-1.07,24.56-1.5,36.84-.39,11.16-4.01,21.47-8.34,31.56-1.96,4.56-5.84,7.18-10.44,8.64-11.65,3.69-23.52,4.29-35.44,1.69-5-1.09-9.98-2.57-14.73-4.46-3.71-1.48-7.84-3.02-8.6-7.98-.08-.53-.84-.99-1.34-1.42-6.91-5.88-9.39-13.78-10.54-22.41-1.76-13.29-1.01-26.51,.62-39.74,1.26-10.22,2.25-20.46,3.44-30.69,1.95-16.68-.16-33.18-2.29-49.64-2.07-15.96-5.51-31.76-6.98-47.76-1.98-21.65-3.57-43.38-1.79-65.19,1.69-20.7,4.36-41.26,8.33-61.63,1.1-5.67,2.96-11.21,4.83-16.69,2.08-6.07,5.76-11.16,10.56-15.47,6.6-5.93,14.03-7.15,22.23-4.11,1.86,.69,3.84,1.42,5.32,2.66,6.74,5.64,13.73,11.07,19.87,17.32,6.94,7.07,7.75,16.6,8.31,25.99,.53,9-.58,17.89-1.48,26.83-.64,6.41-.47,12.91-.37,19.37,.03,2.2,.95,4.38,1.74,7.73,2.25-3.98,3.91-6.83,5.5-9.72,4.58-8.33,9.46-16.38,17.2-22.33,4.84-3.72,10-6.55,16.05-7.54,4.06-.66,7.61-2.28,10.7-4.96,8.79-7.61,17.95-14.85,26.31-22.91,14.97-14.42,32.34-24.33,52.45-29.29,12.62-3.11,25.47-5.07,38.51-2.78,3.73,.66,7.35,1.99,11,3.07,5.72,1.69,11.37,3.59,17.14,5.09,6.68,1.74,12.31,5.06,16.52,10.48,10.34,13.28,17.98,27.88,20.8,44.64,.63,3.74,.55,7.62,.5,11.43-.2,17.28-.31,34.56-.84,51.82-.64,20.92-1.59,41.83-2.57,62.73-.86,18.3-.27,36.56,1.47,54.76,1.46,15.18,3.62,30.29,5.32,45.45,.67,5.94,.89,11.92,1.42,17.88,.09,1,.19,2.7,.14,3.8,.92,5.69,.26,9.02,.26,14.67Zm-16.65-231.7l.7-.04c-.44-6.93-.88-13.87-1.34-20.8-1.17-17.8-8.53-33.09-19.28-46.95-3.04-3.92-6.98-6.39-12-7.36-3.87-.74-7.62-2.14-11.4-3.31-1.58-.49-3.11-1.12-4.65-1.74-6.36-2.59-12.91-3.79-19.79-3.01-7.39,.84-14.95,.9-22.14,2.57-18.44,4.28-34.38,13.35-48.15,26.44-7.8,7.42-16.1,14.32-24.35,21.25-5.21,4.38-10.83,8.05-17.86,9.21-7.17,1.18-12.88,5.14-17.14,10.93-3.63,4.92-7.01,10.02-10.29,15.18-2.59,4.07-4.95,8.27-9.36,10.72-5.02,2.79-9.64,1.84-12.13-3.31-1.98-4.09-3.8-8.67-4.03-13.11-.42-8.07,.34-16.2,.71-24.3,.26-5.78,.83-11.55,.98-17.33,.07-2.61-.7-5.23-.84-7.86-.3-5.64-2.05-10.83-5.58-15.1-4.98-6.03-10.68-11.47-17.49-15.41-5.49-3.17-11.11-2.84-14.86,1.88-2.24,2.82-4.46,5.79-5.96,9.03-3.57,7.7-4.68,16.12-6.02,24.4-1.29,7.98-2.26,16.01-3.23,24.03-1.01,8.35-2.4,16.7-2.66,25.09-.55,17.56-.56,35.14,1.71,52.64,.98,7.53,1.36,15.14,2.35,22.67,2.1,16.02,4.91,31.96,6.5,48.03,1.27,12.87-.04,25.79-2.11,38.59-1.65,10.25-3.52,20.51-4.36,30.84-.94,11.55-1.11,23.18-1.02,34.77,.04,5.2,1.31,10.45,2.43,15.58,1.42,6.49,6.77,10,11.53,13.82,.91,.73,2.49,.72,3.78,.89,6.88,.87,13.8,1.5,20.65,2.56,6.52,1,12.8,.44,19.15-1.22,3.25-.85,5.59-2.58,6.54-5.47,2.11-6.4,4.28-12.86,5.45-19.46,1.06-5.98,.82-12.19,1.15-18.3,.68-12.4,1.33-24.79,2.07-37.19,.21-3.46,.64-6.91,1.08-10.35,1.23-9.65,2.49-19.29,3.78-28.93,1.25-9.3,2.19-18.64,4.92-27.71,4.05-13.42,11.84-23.13,25.59-27.39,6.81-2.11,13.06-5.25,17.05-11.33,3.44-5.24,6.18-10.94,9.28-16.41,2.03-3.58,4.02-7.2,6.3-10.61,3.48-5.22,7.47-10.11,10.75-15.45,3.91-6.37,9.07-10.95,16.21-13.12,3.93-1.19,7.96-2.06,11.94-3.08,10.16-2.6,17.63,1.63,23.94,9.19,5.17,6.19,6.89,13.4,6.96,21.21,.04,4.32-.27,8.67,.17,12.96,1.08,10.66,2.64,21.28,3.72,31.94,1.16,11.51,2.14,23.03,2.94,34.57,.99,14.27-.01,28.5-2.07,42.62-1.58,10.82-2.85,21.63-2.66,32.57,.14,8.11,.6,16.22,.8,24.34,.2,8.44,2.63,16.28,6.36,23.73,.94,1.87,2.42,3.62,4.04,4.95,2.81,2.31,5.97,4.18,8.88,6.36,2.11,1.58,4.38,2.22,6.98,2.04,4.13-.29,8.42-1.33,12.35-.57,5.96,1.17,11.2-.38,16.36-2.53,10.42-4.36,18.43-11.41,21.27-22.7,1.73-6.88,1.99-14.07,1.48-21.21-.24-3.3-.55-6.59-.74-9.89-.39-6.61-.66-13.23-1.13-19.83-.24-3.45-.03-7.21-1.35-10.26-2.89-6.7-2.58-13.59-2.61-20.53-.03-5.82,.18-11.64-.11-17.45-.35-6.92-1.35-13.81-1.62-20.73-.18-4.6,.56-9.24,.67-13.86,.41-16.58,.75-33.17,1.06-49.75,.13-6.65,.04-13.3,.2-19.94,.1-4.29,.76-8.58,.67-12.86-.15-6.62-.72-13.22-1.12-19.83Z"/>
        <path class="cls-16" d="M2288.99,162.61c.09,4.28-.56,8.57-.67,12.86-.16,6.64-.07,13.29-.2,19.94-.31,16.58-.66,33.17-1.06,49.75-.11,4.62-.85,9.26-.67,13.86,.27,6.92,1.27,13.81,1.62,20.73,.29,5.8,.08,11.63,.11,17.45,.03,6.94-.28,13.83,2.61,20.53,1.32,3.05,1.11,6.8,1.35,10.26,.46,6.6,.73,13.22,1.13,19.83,.2,3.3,.51,6.59,.74,9.89,.51,7.14,.25,14.33-1.48,21.21-2.84,11.29-10.85,18.33-21.27,22.7-5.15,2.16-10.39,3.7-16.36,2.53-3.93-.77-8.22,.28-12.35,.57-2.6,.18-4.87-.46-6.98-2.04-2.91-2.18-6.07-4.05-8.88-6.36-1.62-1.33-3.1-3.08-4.04-4.95-3.74-7.45-6.16-15.29-6.36-23.73-.19-8.11-.66-16.22-.8-24.34-.19-10.94,1.08-21.75,2.66-32.57,2.06-14.12,3.07-28.34,2.07-42.62-.8-11.54-1.78-23.07-2.94-34.57-1.08-10.66-2.64-21.28-3.72-31.94-.43-4.28-.13-8.63-.17-12.96-.07-7.81-1.79-15.02-6.96-21.21-6.31-7.55-13.78-11.79-23.94-9.19-3.98,1.02-8.01,1.89-11.94,3.08-7.15,2.17-12.31,6.75-16.21,13.12-3.27,5.34-7.26,10.23-10.75,15.45-2.28,3.42-4.26,7.04-6.3,10.61-3.11,5.46-5.84,11.16-9.28,16.41-3.99,6.08-10.24,9.22-17.05,11.33-13.75,4.26-21.54,13.96-25.59,27.39-2.74,9.07-3.68,18.41-4.92,27.71-1.29,9.64-2.55,19.28-3.78,28.93-.44,3.44-.87,6.89-1.08,10.35-.74,12.39-1.39,24.79-2.07,37.19-.34,6.11-.1,12.32-1.15,18.3-1.17,6.61-3.34,13.07-5.45,19.46-.95,2.89-3.29,4.63-6.54,5.47-6.35,1.65-12.63,2.22-19.15,1.22-6.85-1.05-13.77-1.69-20.65-2.56-1.29-.16-2.87-.15-3.78-.89-4.75-3.83-10.1-7.34-11.53-13.82-1.13-5.13-2.39-10.38-2.43-15.58-.09-11.59,.08-23.22,1.02-34.77,.84-10.33,2.71-20.59,4.36-30.84,2.06-12.81,3.38-25.73,2.11-38.59-1.59-16.07-4.4-32.01-6.5-48.03-.99-7.53-1.37-15.14-2.35-22.67-2.27-17.5-2.26-35.08-1.71-52.64,.26-8.38,1.65-16.74,2.66-25.09,.97-8.02,1.94-16.06,3.23-24.03,1.34-8.29,2.45-16.7,6.02-24.4,1.5-3.24,3.72-6.21,5.96-9.03,3.75-4.72,9.37-5.05,14.86-1.88,6.81,3.93,12.5,9.38,17.49,15.41,3.54,4.28,5.29,9.47,5.58,15.1,.14,2.63,.91,5.25,.84,7.86-.15,5.78-.71,11.55-.98,17.33-.37,8.1-1.13,16.23-.71,24.3,.23,4.45,2.05,9.02,4.03,13.11,2.49,5.16,7.11,6.1,12.13,3.31,4.41-2.45,6.77-6.65,9.36-10.72,3.28-5.16,6.66-10.26,10.29-15.18,4.27-5.79,9.98-9.75,17.14-10.93,7.03-1.16,12.64-4.83,17.86-9.21,8.25-6.93,16.55-13.83,24.35-21.25,13.77-13.09,29.71-22.16,48.15-26.44,7.19-1.67,14.75-1.73,22.14-2.57,6.88-.78,13.43,.43,19.79,3.01,1.53,.62,3.07,1.25,4.65,1.74,3.78,1.17,7.53,2.56,11.4,3.31,5.02,.97,8.96,3.43,12,7.36,10.75,13.87,18.1,29.15,19.28,46.95,.46,6.93,.89,13.87,1.34,20.8m-16.49,100.14c1.31-2.7,2.71-4.48,3.04-6.45,.92-5.48,1.83-11.03,1.95-16.57,.14-6.41-.34-12.85-.97-19.24-.33-3.36-.87-6.86-3.59-9.48-3.81-3.69-10.03-2.42-11.4,2.67-.7,2.6-.75,5.51-.45,8.21,.63,5.52,1.7,10.99,2.57,16.49,1.13,7.15,2.98,14.1,6.01,20.7,.46,1,1.36,1.8,2.83,3.68Zm-3.93,126.3c0-1.49,.12-2.99-.03-4.47-.21-2.12-.38-4.29-1.01-6.3-.63-2.01-1.52-4.05-2.77-5.73-2.67-3.58-9.93-4.81-12.14,2-.55,1.69-.95,3.51-.98,5.28-.09,5.46-.2,10.94,.15,16.39,.24,3.73,1.1,7.44,1.94,11.09,.6,2.64,2.61,3.51,5.26,3.47,2.96-.05,4.43-1.95,5.7-4.12,3.18-5.44,3.47-11.54,3.88-17.61Zm-82.17-281.53c.36-.08,1.42-.1,2.25-.56,5.47-3.03,11.55-3.52,17.54-4.62,4.33-.8,8.61-2.26,12.64-4.03,1.86-.82,4.99-1.56,4.73-4.41-.25-2.83-3.04-3.63-5.42-4.37-9.07-2.84-18.24-2.54-27.34-.42-5.11,1.19-8.78,4.47-10.56,9.55-1.57,4.49,1.2,8.9,6.16,8.87Zm-160.09,39.69c1.59-2.47,2.94-3.98,3.59-5.74,1.08-2.89,1.93-5.92,2.49-8.96,1.02-5.46,1.97-10.96,2.53-16.48,.35-3.47-1.92-6.13-4.67-6.52-2.87-.4-5.33,1.29-6.33,4.97-.72,2.66-.53,5.56-1.2,8.24-1.58,6.28-.73,12.42,.73,18.52,.43,1.8,1.61,3.41,2.86,5.97Zm131.4-20.55c-.89-.56-1.39-1.13-1.69-1.04-8.25,2.42-16.05,5.83-22.91,11.08-2.65,2.03-3.08,4.78-1.55,6.92,1.52,2.13,4.96,2.75,7.55,.92,7.01-4.96,13.7-10.29,18.6-17.89Zm-131.58,286.99c-.77-8.28-3.46-15.48-6.65-22.48-.4-.87-2.74-1.56-3.86-1.23-1.35,.39-2.81,1.76-3.39,3.07-.53,1.2-.36,3.08,.2,4.33,1.9,4.2,3.91,8.37,6.29,12.31,1.35,2.24,3.57,3.88,7.4,4Zm6.63-20.97c-4.71-.02-7.05,3.21-5.06,7.24,1.8,3.65,4.24,7,6.53,10.39,.51,.75,1.52,1.38,2.42,1.6,1.34,.33,3.19,.8,4.07,.16,.88-.64,1.42-2.73,1.08-3.88-1.29-4.37-3.01-8.61-4.56-12.91-.82-2.29-2.6-2.78-4.47-2.6Zm-19.1-245.59l.92-.07c.46-1.34,1.13-2.65,1.35-4.03,1.1-7.15,2.08-14.32,3.09-21.49,.35-2.44,.85-4.88,.93-7.34,.03-.88-.95-2.53-1.5-2.55-1.32-.03-3.13,.31-3.87,1.22-.97,1.17-1.42,3.02-1.52,4.61-.46,7.09-.89,14.18-.94,21.28-.02,2.79,1,5.58,1.55,8.37Zm262.61,251.64c2.32-.83,3.98-2.27,4.42-4.73,.72-4.02,1.43-8.05,1.84-12.1,.28-2.78,.05-5.61,.08-8.41,.02-2.22-.82-4.09-3.04-4.49-2.38-.43-3.54,1.33-4,3.45-.34,1.59-.75,3.22-.72,4.83,.04,2.45,.51,4.88,.67,7.33,.3,4.62,.5,9.26,.75,14.12Zm-9.98-286.65c.45-2.75-1.21-4.58-3.63-4.55-2.36,.03-5.08,2.78-4.75,5.43,.56,4.36,2.71,8.08,5.94,11.08,.96,.88,2.41,.07,2.42-1.27,.04-3.56,.01-7.12,.01-10.68Zm-253.17,97.13c0-.5,0-.99,0-1.49,.01-2.05,.01-4.17-2.72-4.45-2.63-.27-3.17,1.68-3.76,3.69-1.44,4.87,.47,9.37,1.44,13.97,.1,.49,.96,1.27,1.18,1.19,.65-.25,1.5-.78,1.65-1.36"/>
        <path class="cls-7" d="M2272.09,242.88c-1.47-1.87-2.37-2.68-2.83-3.68-3.02-6.6-4.88-13.54-6.01-20.7-.87-5.5-1.94-10.97-2.57-16.49-.31-2.7-.25-5.61,.45-8.21,1.37-5.08,7.59-6.36,11.4-2.67,2.71,2.62,3.26,6.12,3.59,9.48,.63,6.39,1.11,12.83,.97,19.24-.12,5.54-1.03,11.09-1.95,16.57-.33,1.96-1.73,3.75-3.04,6.45Z"/>
        <path class="cls-7" d="M2268.16,369.18c-.4,6.06-.69,12.17-3.88,17.61-1.27,2.17-2.75,4.07-5.7,4.12-2.65,.04-4.66-.83-5.26-3.47-.84-3.66-1.7-7.37-1.94-11.09-.35-5.44-.24-10.93-.15-16.39,.03-1.77,.44-3.58,.98-5.28,2.2-6.81,9.47-5.57,12.14-2,1.25,1.68,2.15,3.72,2.77,5.73,.63,2.01,.8,4.18,1.01,6.3,.15,1.48,.03,2.98,.03,4.47Z"/>
        <path class="cls-7" d="M2185.99,87.65c-4.96,.03-7.74-4.38-6.16-8.87,1.78-5.08,5.45-8.36,10.56-9.55,9.1-2.12,18.28-2.41,27.34,.42,2.38,.75,5.17,1.54,5.42,4.37,.25,2.85-2.87,3.59-4.73,4.41-4.03,1.77-8.31,3.23-12.64,4.03-5.99,1.1-12.07,1.59-17.54,4.62-.82,.46-1.89,.47-2.25,.56Z"/>
        <path class="cls-7" d="M2025.9,127.35c-1.25-2.55-2.43-4.17-2.86-5.97-1.46-6.1-2.31-12.24-.73-18.52,.67-2.68,.48-5.58,1.2-8.24,.99-3.68,3.46-5.37,6.33-4.97,2.76,.38,5.02,3.05,4.67,6.52-.55,5.52-1.51,11.02-2.53,16.48-.57,3.04-1.41,6.06-2.49,8.96-.66,1.76-2.01,3.27-3.59,5.74Z"/>
        <path class="cls-7" d="M2157.29,106.8c-4.89,7.6-11.59,12.93-18.6,17.89-2.59,1.84-6.03,1.22-7.55-.92-1.53-2.14-1.09-4.89,1.55-6.92,6.85-5.26,14.66-8.66,22.91-11.08,.31-.09,.81,.48,1.69,1.04Z"/>
        <path class="cls-9" d="M2025.71,393.79c-3.83-.12-6.05-1.76-7.4-4-2.38-3.94-4.39-8.11-6.29-12.31-.57-1.26-.74-3.13-.2-4.33,.58-1.31,2.04-2.68,3.39-3.07,1.12-.33,3.46,.36,3.86,1.23,3.19,7,5.88,14.2,6.65,22.48Z"/>
        <path class="cls-7" d="M2032.34,372.82c1.87-.18,3.65,.31,4.47,2.6,1.54,4.3,3.26,8.54,4.56,12.91,.34,1.15-.2,3.24-1.08,3.88-.88,.63-2.73,.16-4.07-.16-.89-.22-1.91-.85-2.42-1.6-2.29-3.39-4.73-6.74-6.53-10.39-1.99-4.03,.35-7.26,5.06-7.24Z"/>
        <path class="cls-17" d="M2013.24,127.23c-.55-2.79-1.57-5.58-1.55-8.37,.05-7.1,.48-14.19,.94-21.28,.1-1.59,.56-3.43,1.52-4.61,.75-.9,2.55-1.25,3.87-1.22,.55,.01,1.53,1.67,1.5,2.55-.08,2.45-.58,4.89-.93,7.34-1.02,7.16-2,14.33-3.09,21.49-.21,1.38-.89,2.69-1.35,4.03l-.92,.07Z"/>
        <path class="cls-19" d="M2275.85,378.87c-.25-4.87-.45-9.5-.75-14.12-.16-2.45-.62-4.89-.67-7.33-.03-1.61,.37-3.24,.72-4.83,.46-2.12,1.62-3.88,4-3.45,2.21,.4,3.06,2.27,3.04,4.49-.03,2.81,.21,5.64-.08,8.41-.42,4.06-1.12,8.09-1.84,12.1-.44,2.46-2.1,3.9-4.42,4.73Z"/>
        <path class="cls-10" d="M2265.87,92.22c0,3.56,.03,7.12-.01,10.68-.02,1.34-1.47,2.15-2.42,1.27-3.24-2.99-5.38-6.71-5.94-11.08-.34-2.64,2.38-5.4,4.75-5.43,2.43-.03,4.08,1.8,3.63,4.55Z"/>
        <path class="cls-18" d="M2010.47,200.89c-.14,.58-1,1.11-1.65,1.36-.22,.09-1.08-.7-1.18-1.19-.96-4.6-2.88-9.09-1.44-13.97,.59-2.01,1.13-3.96,3.76-3.69,2.74,.28,2.73,2.4,2.72,4.45,0,.5,0,.99,0,1.49"/>
      </g>
    </g>
  </g>
</svg>