<?xml version="1.0" encoding="UTF-8"?>
<svg xmlns="http://www.w3.org/2000/svg" viewBox="0 0 1328.51 248.75">
  <defs>
    <style>
      .cls-1 {
        fill: #110c0b;
      }

      .cls-2 {
        fill: #100c0a;
      }

      .cls-3 {
        fill: #fff;
      }

      .cls-4 {
        fill: #14100f;
      }

      .cls-5 {
        fill: #13110e;
      }

      .cls-6 {
        fill: #171012;
      }

      .cls-7 {
        fill: #151010;
      }

      .cls-8 {
        fill: #110d0b;
      }

      .cls-9 {
        fill: #13110d;
      }

      .cls-10 {
        fill: #12100e;
      }

      .cls-11 {
        fill: #14100e;
      }

      .cls-12 {
        fill: #14110e;
      }

      .cls-13 {
        fill: #14130f;
      }

      .cls-14 {
        fill: #100d0a;
      }

      .cls-15 {
        fill: #191015;
      }

      .cls-16 {
        fill: #14120e;
      }

      .cls-17 {
        fill: #110c0a;
      }

      .cls-18 {
        fill: #12100d;
      }

      .cls-19 {
        fill: #141111;
      }

      .cls-20 {
        fill: #13110f;
      }

      .cls-21 {
        fill: #14150f;
      }

      .cls-22 {
        fill: #13120e;
      }

      .cls-23 {
        fill: #0f0c09;
      }

      .cls-24 {
        fill: #13100d;
      }

      .cls-25 {
        fill: #16110f;
      }

      .cls-26 {
        fill: #13100e;
      }

      .cls-27 {
        fill: #17140e;
      }

      .cls-28 {
        fill: #19160f;
      }

      .cls-29 {
        fill: #0e0c09;
      }

      .cls-30 {
        fill: #0f0c0a;
      }

      .cls-31 {
        fill: #13100f;
      }
    </style>
  </defs>
  <g id="_лой_1" data-name="Слой 1"/>
  <g id="_лой_2" data-name="Слой 2">
    <g id="_лой_6" data-name="Слой 6">
      <g>
        <g>
          <path class="cls-29" d="M218.27,247.71c-4.87,.31-9.65-.34-14.23-2-10.44-3.79-15.5-11.42-16.87-21.52-.76-5.56,.22-11.07,1.29-16.53,2.95-14.92,3.36-29.98,2.92-45.08-.43-14.91,.08-29.78,2.26-44.56,.65-4.37-.12-8.48-2.2-12.45-1.18-2.26-1.97-4.69-2.92-7.05-1.05-2.59-1.84-3.01-4.67-2.2-4.54,1.29-7.99,3.81-10.15,7.91-2.38,4.52-3.77,9.3-4.04,14.27-.67,12.11-3.12,23.92-5.82,35.71-1.88,8.18-2.24,16.4-.96,24.66,1.37,8.83,1.08,17.64,.21,26.49-.6,6.1-1.31,12.21-1.52,18.33-.27,7.68-4.27,12.88-11.34,16.01-7.48,3.31-15.42,3.86-23.51,2.35-5.45-1.01-8.87-4.14-9.76-9.26-.94-5.46-1.66-10.97-2.01-16.49-.36-5.72-.1-11.47-.19-17.22-.08-5.25-.34-10.5-.4-15.75-.04-3.6,.11-7.2,.18-10.79,.11-5.35,.26-10.7,.32-16.05,.05-3.99-.93-7.8-3.45-11-5.06-6.43-7.9-13.79-10.63-21.25-1.03-2.82-2.23-5.69-3.93-8.18-3.33-4.87-7.03-5.42-11.92-1.9-5.62,4.05-8.37,9.75-9.45,16.18-.46,2.66-.44,5.44-.37,8.15,.16,5.6-1.14,10.86-4.18,15.62-3.71,5.78-4.81,12.05-5.04,18.68-.23,6.21-.67,12.46-1.76,18.58-1.51,8.53-1.96,16.98-.73,25.55,.84,5.88-.2,11.61-2.57,17.14-2.25,5.23-6.24,8.34-12.13,9.17-5.01,.71-9.86,1.88-14.56,3.67-2.97,1.13-6.1,1.77-9.34,1.55-1.52-.11-3.24-.1-4.51-.76-5.94-3.05-11.88-6.03-14.73-12.53-5.07-11.55-6.75-23.31-4.01-35.64,1.55-6.94,2.62-13.97,3.94-20.96,1.28-6.77,1.05-13.55,.6-20.37-.88-12.84-1.04-25.67,.68-38.48,1.11-8.17,.43-16.24-.81-24.39-1.66-10.96-2.78-22.02-3.63-33.07-.62-8.03,.89-15.91,4.61-23.27,.73-1.43,3.44-5.96,7.83-9.18,8.96-6.58,20.8-4.34,23-3.9,7.01,1.07,12.15,5.01,16.63,9.85,2.21,2.4,2.78,5.38,2.63,8.48-.31,6.22-.73,12.43-.99,18.66-.14,3.4-.28,6.82-.03,10.21,.29,4.06,2.42,7.56,4.6,11.59,.32-1.16,.57-1.86,.7-2.57,.79-4.31,1.39-8.66,2.35-12.93,1.17-5.3,3.68-10.11,6.98-14.5,9.37-12.47,21.67-21.17,37.39-25.23,2.46-.63,5.06-.84,7.61-.96,9.77-.48,20.19,9.58,18.58,19.17-.47,2.74,.24,5.36,.85,8.04,1.01,4.35,1.69,8.8,2.18,13.23,.51,4.7,1.72,9.16,3.8,13.45,.12,.24,.37,.43,.77,.88,.82-1.91,1.43-3.69,2.31-5.35,4.02-7.65,7.97-15.35,12.2-22.9,4.14-7.41,10.58-12.85,17.93-17.34,3.34-2.05,6.99-3.17,11.06-3.15,1.46,0,2.95-.66,4.39-1.1,3.02-.94,5.95-2.18,9.03-2.86,7.12-1.6,13.86,.22,20.47,2.54,1.93,.68,3.75,1.6,5.65,2.36,4.1,1.64,7.33,4.21,9.7,7.81,2.23,3.37,4.9,6.52,6.81,10.04,1.43,2.61,2.35,5.62,2.82,8.54,1.6,9.84,.32,19.6-1.55,29.3-1.58,8.23-3.32,16.43-4.86,24.67-1.92,10.25-2.08,20.47,.62,30.68,2.42,9.18,2.18,18.55,1.16,27.87-1.33,12.21-2.67,24.4-2.29,36.69,.17,4.96,.65,9.91,.72,14.87,.05,3.19-.22,6.4-.62,9.57-.36,2.83-2.07,5-4.38,6.82-4.27,3.35-9.24,5.05-14.7,5.39Zm-17.96-10.75c6.95,4.71,14.88,6,22.84,3.61,7.09-2.14,8.94-4.21,8.58-10.94-.35-6.39-.95-12.78-1.03-19.17-.07-6.4,.23-12.82,.64-19.21,.31-4.63,1.25-9.21,1.56-13.85,.41-6.2,.6-12.41,.63-18.63,.02-2.69-.45-5.41-.95-8.06-1.27-6.67-2.79-13.33-2.55-20.15,.18-4.83,.55-9.68,1.26-14.47,1.25-8.42,2.93-16.78,4.26-25.2,.93-5.92,1.56-11.9,2.34-17.85-.2,0-.39-.03-.59-.05,0-2.15,.2-4.3-.05-6.42-.32-2.67-.37-5.62-1.64-7.89-2.62-4.69-5.87-9.08-9.07-13.47-2.09-2.85-5.65-3.83-8.79-5.19-7.77-3.36-15.7-4.33-23.75-.75-3.21,1.44-6.54,2.07-10.14,1.93-1.54-.06-3.31,.42-4.65,1.18-6.05,3.41-11.6,7.53-15.3,13.28-4.21,6.54-7.94,13.36-11.85,20.07-1.78,3.06-3.63,6.09-5.22,9.24-1.66,3.31-3.11,4.32-6.63,3.32-1.57-.44-3-1.63-4.21-2.75-1-.91-1.71-2.19-2.34-3.4-2.76-5.28-4.24-10.85-4.35-16.78-.05-2.8-.23-5.65-.82-8.37-.7-3.16-1.46-6.29-1.08-9.5,.49-4.09-1.31-7.08-4.34-9.75-2.95-2.6-6.42-3.7-10.19-2.81-4.54,1.08-9.07,2.44-13.36,4.22-8.82,3.68-15.84,9.63-21.85,16.68-4.57,5.35-7.9,11.35-9.47,18.09-1.31,5.61-3.08,11.02-5.9,16.12-1.22,2.21-3.23,2.69-5.23,1.07-1.09-.87-2.16-1.87-2.92-2.99-4.52-6.68-6.33-14-5.74-21.91,.44-5.99,.78-12,1.16-18,.06-1.06-.04-2.17,.21-3.2,.7-2.91-.57-5.13-2.69-6.98-1.5-1.3-3.14-2.52-4.9-3.5-1.66-.91-3.51-1.94-5.34-2.06-3.55-.24-7.07-.97-10.7-.25-4.41,.87-8.2,2.54-10.68,6.2-5.74,8.41-6.6,17.81-5.79,27.43,.52,6.17,1.45,12.31,2.26,18.46,.65,4.99,1.19,10,2.12,14.95,1.19,6.29,.81,12.55,.22,18.84-.55,5.77-1.48,11.55-1.63,17.34-.26,10.21,0,20.44-.07,30.65-.02,3-.22,6.03-.78,8.98-1.58,8.47-3.53,16.88-5.06,25.36-.88,4.93-1.62,9.87-1.13,14.97,.6,6.26,2.37,12.2,4.67,17.98,.83,2.12,2.49,3.99,4.04,5.77,1.6,1.87,3.97,2.29,6.42,2.15,2.46-.13,4.92-.21,7.37-.46,1.61-.16,3.2-.52,4.78-.85,4.08-.87,8.1-2.03,12.23-2.64,7.25-1.09,8.6-2.67,10.67-8.05,2.08-5.38,1.6-10.99,.98-16.45-.62-5.39-.49-10.67,.42-15.93,1.57-9.09,3.15-18.16,2.89-27.42-.04-1.54,.21-3.09,.35-4.63,.44-4.95,2.56-9.33,5-13.63,2.27-4,3.37-8.25,3.46-12.83,.07-3.86,.21-7.82,1.18-11.53,1.88-7.08,5.27-13.55,11.85-17.85,5.51-3.6,10.83-4.33,15.46-1.14,2.19,1.51,4.1,3.56,5.65,5.69,3.29,4.52,4.58,9.9,6.53,14.99,1.58,4.11,3.5,8.05,6.26,11.61,3.56,4.58,5.62,9.68,5.49,15.44-.15,6.4-.54,12.81-.55,19.21,0,8.06,.31,16.13,.43,24.19,.02,1.44-.4,2.89-.37,4.33,.12,5.05,.25,10.1,.55,15.14,.27,4.54,.83,9.07,2.46,13.4,.42,1.1,1.26,2.42,2.3,2.88,1.7,.79,3.69,1.16,5.6,1.33,2.35,.22,4.73,.02,7.1,.06,3.13,.05,6.17-.51,8.93-1.84,3.87-1.88,7.01-4.5,7.41-8.98,.49-5.41,.83-10.82,1.29-16.23,.34-4.06,.87-8.1,1.09-12.16,.17-3,.12-6.03-.11-9.03-.43-5.79-1.26-11.57-1.55-17.36-.4-8.11,1.59-15.96,3.4-23.81,2.12-9.17,3.86-18.42,4.49-27.79,.37-5.49,1.54-10.72,3.85-15.75,2.84-6.19,7.4-10.79,14.42-12.55,7.43-1.86,10.56,.17,12.83,5.93,.14,.36,.3,.72,.45,1.07,1.01,2.44,2.03,4.86,3.01,7.31,.51,1.26,1.03,2.53,1.39,3.84,1.46,5.31,.66,10.66-.22,15.9-1.19,7.1-1.94,14.22-2.15,21.38-.49,16.8,.9,33.64-1.31,50.4-.83,6.33-1.75,12.66-2.72,18.98-.56,3.69-.65,7.36,.38,10.96,1.16,4.09,2.91,7.97,6.68,10.54Z"/>
          <path class="cls-3" d="M223.15,240.56c-7.96,2.4-15.89,1.1-22.84-3.61-3.77-2.56-5.52-6.45-6.68-10.54-1.02-3.61-.93-7.28-.38-10.96,.97-6.32,1.89-12.65,2.72-18.98,2.22-16.76,.82-33.61,1.31-50.4,.21-7.16,.95-14.28,2.15-21.38,.87-5.25,1.68-10.6,.22-15.9-.36-1.3-.88-2.57-1.39-3.84-.98-2.45-2-4.87-3.01-7.31-.15-.36-.31-.72-.45-1.07-2.28-5.76-5.4-7.79-12.83-5.93-7.02,1.76-11.58,6.36-14.42,12.55-2.31,5.03-3.48,10.27-3.85,15.75-.64,9.37-2.38,18.62-4.49,27.79-1.81,7.85-3.8,15.7-3.4,23.81,.29,5.79,1.12,11.57,1.55,17.36,.23,3,.28,6.03,.11,9.03-.22,4.06-.76,8.1-1.09,12.16-.46,5.41-.81,10.82-1.29,16.23-.41,4.47-3.55,7.1-7.41,8.98-2.75,1.33-5.79,1.89-8.93,1.84-2.37-.04-4.75,.16-7.1-.06-1.91-.17-3.9-.55-5.6-1.33-1.03-.47-1.88-1.78-2.3-2.88-1.62-4.32-2.19-8.86-2.46-13.4-.3-5.04-.43-10.09-.55-15.14-.03-1.44,.39-2.89,.37-4.33-.12-8.06-.43-16.13-.43-24.19,0-6.4,.4-12.81,.55-19.21,.13-5.75-1.93-10.85-5.49-15.44-2.76-3.56-4.68-7.49-6.26-11.61-1.95-5.09-3.24-10.47-6.53-14.99-1.54-2.13-3.46-4.17-5.65-5.69-4.62-3.19-9.95-2.46-15.46,1.14-6.58,4.3-9.97,10.77-11.85,17.85-.97,3.71-1.11,7.67-1.18,11.53-.09,4.58-1.19,8.84-3.46,12.83-2.44,4.29-4.56,8.68-5,13.63-.14,1.54-.39,3.09-.35,4.63,.26,9.26-1.32,18.33-2.89,27.42-.9,5.26-1.03,10.55-.42,15.93,.62,5.46,1.09,11.07-.98,16.45-2.07,5.38-3.42,6.96-10.67,8.05-4.12,.62-8.15,1.77-12.23,2.64-1.58,.34-3.17,.7-4.78,.85-2.45,.25-4.91,.33-7.37,.46-2.46,.14-4.82-.28-6.42-2.15-1.54-1.79-3.2-3.66-4.04-5.77-2.31-5.78-4.08-11.72-4.67-17.98-.49-5.1,.25-10.04,1.13-14.97,1.53-8.48,3.48-16.89,5.06-25.36,.56-2.94,.76-5.97,.78-8.98,.08-10.22-.19-20.45,.07-30.65,.15-5.79,1.08-11.57,1.63-17.34,.59-6.28,.97-12.54-.22-18.84-.92-4.95-1.47-9.96-2.12-14.95-.81-6.15-1.74-12.29-2.26-18.46-.81-9.62,.05-19.02,5.79-27.43,2.48-3.66,6.27-5.33,10.68-6.2,3.64-.73,7.16,0,10.7,.25,1.83,.12,3.68,1.14,5.34,2.06,1.76,.97,3.4,2.2,4.9,3.5,2.13,1.85,3.39,4.07,2.69,6.98-.25,1.03-.15,2.14-.21,3.2-.39,6-.73,12.01-1.16,18-.59,7.9,1.22,15.23,5.74,21.91,.77,1.12,1.83,2.12,2.92,2.99,2,1.62,4.01,1.13,5.23-1.07,2.82-5.1,4.59-10.52,5.9-16.12,1.57-6.74,4.9-12.74,9.47-18.09,6-7.05,13.03-13,21.85-16.68,4.28-1.79,8.82-3.14,13.36-4.22,3.77-.88,7.24,.21,10.19,2.81,3.03,2.67,4.83,5.67,4.34,9.75-.38,3.21,.39,6.34,1.08,9.5,.6,2.72,.78,5.57,.82,8.37,.11,5.92,1.59,11.5,4.35,16.78,.63,1.21,1.33,2.48,2.34,3.4,1.21,1.12,2.64,2.32,4.21,2.75,3.52,1,4.97,0,6.63-3.32,1.59-3.15,3.44-6.18,5.22-9.24,3.91-6.71,7.63-13.53,11.85-20.07,3.7-5.74,9.24-9.87,15.3-13.28,1.34-.77,3.11-1.24,4.65-1.18,3.6,.14,6.93-.49,10.14-1.93,8.04-3.59,15.97-2.61,23.75,.75,3.14,1.36,6.7,2.34,8.79,5.19,3.2,4.38,6.45,8.78,9.07,13.47,1.27,2.28,1.32,5.22,1.64,7.89,.25,2.12,.05,4.27,.05,6.42,.2,.02,.39,.04,.59,.05-.78,5.95-1.4,11.93-2.34,17.85-1.33,8.42-3.01,16.78-4.26,25.2-.72,4.79-1.08,9.64-1.26,14.47-.24,6.82,1.28,13.48,2.55,20.15,.51,2.65,.97,5.37,.95,8.06-.03,6.21-.22,12.42-.63,18.63-.31,4.63-1.25,9.21-1.56,13.85-.41,6.39-.71,12.81-.64,19.21,.08,6.39,.69,12.78,1.03,19.17,.36,6.73-1.49,8.81-8.58,10.94Z"/>
        </g>
        <path class="cls-3" d="M237.86,73.04c-.77,5.95-1.4,11.92-2.34,17.85-1.32,8.41-3.01,16.77-4.26,25.19-.71,4.79-1.08,9.64-1.26,14.48-.24,6.82,1.28,13.47,2.55,20.14,.51,2.66,.97,5.37,.96,8.06-.03,6.21-.22,12.43-.63,18.63-.31,4.63-1.26,9.22-1.56,13.84-.41,6.4-.71,12.81-.64,19.22,.07,6.39,.68,12.78,1.03,19.17,.36,6.73-1.48,8.8-8.58,10.94-7.96,2.39-15.89,1.11-22.83-3.61-3.77-2.56-5.52-6.44-6.69-10.54-1.02-3.61-.93-7.27-.37-10.96,.97-6.32,1.89-12.65,2.72-18.98,2.21-16.76,.82-33.6,1.31-50.4,.21-7.16,.95-14.29,2.14-21.39,.88-5.24,1.68-10.59,.23-15.9-.36-1.31-.89-2.57-1.39-3.84-.98-2.44-2-4.87-3.01-7.3-.15-.36-.31-.72-.46-1.08-2.28-5.77-5.39-7.79-12.83-5.93-7.01,1.75-11.57,6.36-14.42,12.55-2.31,5.03-3.48,10.27-3.85,15.75-.64,9.37-2.38,18.61-4.49,27.79-1.81,7.86-3.8,15.71-3.4,23.82,.28,5.8,1.12,11.57,1.55,17.37,.22,3,.27,6.03,.11,9.03-.22,4.06-.76,8.1-1.1,12.16-.46,5.41-.8,10.83-1.29,16.24-.41,4.47-3.54,7.09-7.41,8.97-2.75,1.33-5.79,1.9-8.92,1.84-2.37-.04-4.75,.16-7.1-.05-1.91-.17-3.9-.55-5.6-1.33-1.03-.47-1.88-1.78-2.29-2.89-1.62-4.32-2.19-8.85-2.46-13.4-.3-5.04-.43-10.09-.54-15.14-.03-1.44,.38-2.89,.36-4.33-.11-8.06-.42-16.12-.42-24.19,0-6.41,.4-12.81,.54-19.22,.13-5.75-1.93-10.85-5.48-15.43-2.76-3.56-4.68-7.49-6.26-11.61-1.95-5.09-3.24-10.47-6.53-14.99-1.55-2.13-3.46-4.17-5.65-5.68-4.62-3.19-9.94-2.45-15.45,1.14-6.58,4.3-9.98,10.77-11.85,17.85-.98,3.71-1.11,7.67-1.19,11.53-.09,4.58-1.19,8.83-3.46,12.83-2.44,4.3-4.56,8.68-5,13.63-.14,1.54-.39,3.09-.34,4.64,.26,9.26-1.33,18.33-2.89,27.42-.91,5.26-1.03,10.55-.42,15.94,.62,5.45,1.1,11.07-.98,16.45-2.07,5.37-3.42,6.96-10.67,8.05-4.12,.62-8.15,1.76-12.23,2.64-1.58,.34-3.17,.7-4.78,.86-2.44,.24-4.91,.32-7.36,.46-2.46,.14-4.82-.28-6.43-2.15-1.54-1.79-3.19-3.66-4.03-5.77-2.31-5.79-4.07-11.72-4.67-17.98-.49-5.1,.25-10.04,1.14-14.97,1.52-8.48,3.47-16.89,5.06-25.35,.55-2.94,.75-5.98,.77-8.98,.08-10.22-.19-20.44,.07-30.66,.15-5.79,1.08-11.56,1.62-17.35,.59-6.28,.98-12.54-.21-18.83-.93-4.95-1.47-9.96-2.12-14.95-.8-6.15-1.74-12.28-2.25-18.45-.8-9.62,.05-19.02,5.79-27.43,2.49-3.65,6.27-5.32,10.69-6.21,3.64-.73,7.16,0,10.7,.25,1.83,.12,3.68,1.14,5.34,2.06,1.76,.97,3.4,2.2,4.9,3.5,2.13,1.84,3.39,4.07,2.69,6.98-.25,1.03-.15,2.13-.21,3.2-.38,6-.72,12-1.16,18-.59,7.9,1.23,15.23,5.75,21.91,.76,1.13,1.83,2.12,2.92,3,2,1.61,4.01,1.13,5.23-1.07,2.82-5.1,4.6-10.52,5.91-16.13,1.57-6.74,4.9-12.74,9.47-18.09,6-7.04,13.03-12.99,21.85-16.68,4.28-1.79,8.82-3.14,13.36-4.22,3.76-.89,7.24,.2,10.18,2.81,3.03,2.68,4.83,5.67,4.35,9.76-.38,3.21,.39,6.34,1.08,9.49,.6,2.73,.77,5.57,.83,8.37,.11,5.92,1.59,11.5,4.35,16.78,.63,1.21,1.34,2.48,2.34,3.4,1.21,1.12,2.65,2.31,4.22,2.75,3.52,1,4.97-.02,6.63-3.32,1.59-3.15,3.43-6.19,5.22-9.25,3.91-6.71,7.64-13.53,11.85-20.07,3.7-5.75,9.24-9.87,15.3-13.28,1.34-.76,3.11-1.24,4.66-1.18,3.59,.14,6.92-.49,10.13-1.93,8.04-3.59,15.97-2.61,23.74,.74,3.15,1.36,6.71,2.34,8.79,5.19,3.2,4.38,6.45,8.77,9.07,13.46,1.27,2.28,1.33,5.22,1.64,7.9m-88.16,129.34c.15-.84,.38-1.68,.44-2.53,.12-1.64-.91-3.17-2.16-3.37-1.62-.26-2.71,.39-3.47,2.15-.23,.52-.45,1.11-.42,1.65,.11,1.9,.4,3.8,.5,5.7,.08,1.54,.98,2.45,2.43,3.25,.63-.98,1.25-1.93,1.86-2.89,.28,3.88,.38,7.78,1.72,12.11,.42-.66,.69-.9,.72-1.16,.51-4.2,1.1-8.4,1.42-12.62,.17-2.2-.24-2.36-3.04-2.31Zm-31.57-119.22c-3.07,.05-4.45,1.05-4.31,3.14,.23,3.26,5.29,7.22,9.38,7.05-.86-2.49-1.7-4.91-2.53-7.32l2.41,.5c-.39-2.56-.52-4.8-1.37-6.93-.44-1.09-1.6-1.45-2.51-1.02-.74,.35-1.43,1.3-1.61,2.1-.17,.75,.34,1.64,.55,2.47Zm105.63,109.17c1.07-1.22,.73-2.39-.82-2.81-2.56-.7-4.67,.42-5.33,3.02-.7,2.74-.18,5.53,.14,8.25,.23,1.99,1.33,2.29,3.48,1.52,.3,1.92,.61,3.84,1.01,6.32,.68-.9,1.1-1.23,1.22-1.64,1.16-3.89,2.38-7.76,3.34-11.69,.56-2.29-.11-2.79-3.03-2.97Zm-6.16-105.65c-.16-.11-.37-.19-.48-.33-1.64-2.06-2.77-2.5-4.51-1.72-1.68,.75-2.36,2.32-1.45,4.45,1.03,2.39,2.35,4.68,3.71,6.93,.38,.63,1.31,.96,2.04,1.46,1.64-2.96,1.14-5.79,1.33-8.53,.56,.98,1.12,1.96,1.68,2.94,1.55,.2,2.05-.94,2.33-1.9,.88-3.04,.8-6.1-.56-9.02-.83-1.77-2.65-2.44-4.27-1.77-1.09,.45-1.45,1.8-.94,3.62,.36,1.29,.75,2.58,1.13,3.87Zm-68,63.65c.33,1.12,.66,2.25,1.19,4.06,2.86-5.05,4.78-9.7,5.05-14.88,0-.1,0-.19-.02-.29-.13-1.15-.83-1.65-2.02-1.81-1.29-.17-2.12,.4-2.87,1.24-.25-.5-.36-1.18-.78-1.47-2.04-1.43-5.06-.28-6.08,2.33-1.02,2.62-.93,5.3-.08,7.95,1.03,3.25,2.11,3.77,5.61,2.87ZM110.72,53.27c1.02,2.08,2.07,4.16,3.07,6.25,.98,2.05,1.92,4.11,2.94,6.31,1.55-1.04,1.93-2.19,2.01-3.49,.28-4.2-.02-8.34-1.74-12.28-.42-.96-1.01-1.9-1.73-2.67-1.26-1.34-2.86-1.65-4.73-1.12-1.97,.56-2.41,1.91-2.42,3.59-2.06-1.43-3.77-1.64-5.32-.65-1.49,.95-2.17,3.18-1.45,5.16,1.38,3.8,3.32,7.28,6.48,10.07,1.16,1.02,2.32,1.54,3.89,.9,1.28-1.99,1.02-4.08,.5-6.19-.49-1.96-1-3.92-1.5-5.88Zm98.17-6.93c-3.77,.04-6.69,2.57-6.01,5.64,.82,3.69,2.31,7.26,4.91,10.16,2.22,2.48,5.28,1.96,6.12-1.35,.47-1.84,.41-3.8,.59-5.71,1.97,3.5,3.87,7.04,5.14,10.97,.77-.85,1.47-1.66,1.57-2.53,.64-5.53-.33-10.83-3.4-15.61-2.1-3.27-5.58-3.76-8.91-1.58ZM34.48,62.13c1.79-5.77,.4-10.71-3.18-15.15-1.52-1.87-3.6-2.17-5.3-.87-1.61,1.23-1.4,2.74,.21,4.8,2.41,3.08,4.63,6.3,6.93,9.46,.43,.59,.89,1.17,1.33,1.76Zm10.49,117.49c.61-.42,.96-.53,1.07-.75,2.21-4.4,2.62-9.1,2.16-13.84-.18-1.88-2.46-2.41-4.05-1.19-1.02,.79-1.44,1.76-1.46,3.04-.04,4.28,1.01,8.35,2.27,12.74Zm-3.86-111.77c-.73-1.55-2.7-2.21-4.29-1.79-2.22,.59-2.74,1.24-2.78,3.51-.06,2.85,1.73,5.49,4.48,6.63,2.07,.85,3.38,.18,3.64-1.89,.07-.57,.01-1.16,.01-1.74m-3.52-19.3c.43-1.24,1.01-2.07,.9-2.79-.45-2.94-.88-5.95-2.96-8.35-.74-.86-1.8-1.61-2.87-2.05-1.35-.55-2.57,.01-3.39,1.2-.86,1.23-.34,2.16,.68,3.03,.82,.7,1.67,1.4,2.35,2.21,1.68,2.04,3.26,4.14,5.3,6.75Zm8.59,157.97l-.66,.02c-.54,1.68-1.13,3.35-1.6,5.06-.87,3.16-2,6.31-1.6,9.64,.09,.71,.72,1.64,1.37,1.94,1.06,.48,1.95-.16,2.41-1.19,.2-.44,.49-.89,.52-1.35,.24-3.85,.49-7.69,.57-11.54,.02-.85-.65-1.71-1-2.57Zm175.07,8.07c-.98,.86-1.55,1.16-1.8,1.62-1.59,2.98-1.95,6.26-2.22,9.5-.14,1.77,1.43,3.25,2.86,3.24,1.19,0,2.42-1.52,2.55-3.17,.04-.48,.08-.98,.02-1.45-.42-3.03-.87-6.06-1.41-9.74ZM53.02,164.01c-.54,.88-.95,1.32-1.1,1.82-1,3.31-2,6.63-2.88,9.97-.19,.71-.21,1.72,.19,2.23,.53,.67,1.52,1.25,2.4,1.38,1.03,.16,1.62-.68,1.67-1.68,.18-3.85,.37-7.7,.48-11.55,.02-.58-.39-1.17-.76-2.18Zm162.81,62.29c2.12-4.99,1.62-7.44-1.61-8.66-2.82,2.3-2.26,5.68,1.61,8.66Zm-174.79-1.38c.33-1.3,.92-2.63,.9-3.96-.01-.77-.84-1.82-1.61-2.19-.55-.27-1.92,.14-2.34,.67-.51,.64-.69,1.78-.5,2.59,.35,1.49,1.51,2.46,3.54,2.88Zm-1.5-160.88c1.17-2.22,1.07-4.16,.08-6.01-.29-.54-1.25-1.08-1.88-1.06-1.15,.04-1.25,1.04-1.25,1.96,.01,2,1.25,3.36,3.04,5.11Z"/>
        <path class="cls-3" d="M214.48,55.09c-.18,1.91-.12,3.86-.59,5.71-.84,3.31-3.9,3.83-6.12,1.35-2.59-2.9-4.09-6.48-4.91-10.16-.68-3.07,2.24-5.6,6.01-5.64-.16,1.27-.17,2.47,1.26,3.2,2.36,1.2,3.58,3.22,4.34,5.55Z"/>
        <path class="cls-3" d="M110.72,53.27c.5,1.96,1.01,3.91,1.5,5.88,.53,2.11,.78,4.2-.5,6.19-1.56,.64-2.73,.12-3.89-.9-3.17-2.79-5.11-6.27-6.48-10.07-.72-1.98-.03-4.21,1.45-5.16,1.55-.99,3.26-.78,5.32,.65,.86,1.14,1.73,2.28,2.59,3.42Z"/>
        <path class="cls-23" d="M214.48,55.09c-.76-2.33-1.98-4.35-4.34-5.55-1.43-.73-1.42-1.93-1.26-3.2,3.33-2.18,6.81-1.69,8.91,1.58,3.07,4.78,4.04,10.08,3.4,15.61-.1,.87-.8,1.68-1.57,2.53-1.27-3.93-3.17-7.47-5.14-10.97Z"/>
        <path class="cls-23" d="M110.72,53.27c-.86-1.14-1.73-2.28-2.59-3.42,0-1.68,.45-3.03,2.42-3.59,1.86-.53,3.47-.22,4.73,1.12,.72,.77,1.32,1.71,1.73,2.67,1.72,3.94,2.01,8.07,1.74,12.28-.09,1.3-.46,2.45-2.01,3.49-1.02-2.19-1.96-4.26-2.94-6.31-1-2.09-2.04-4.17-3.07-6.25Z"/>
        <path class="cls-3" d="M34.48,62.13c-.45-.58-.9-1.16-1.33-1.76-2.3-3.16-4.52-6.38-6.93-9.46-1.61-2.06-1.82-3.57-.21-4.8,1.7-1.3,3.78-1,5.3,.87,3.58,4.43,4.97,9.38,3.18,15.15Z"/>
        <path class="cls-3" d="M44.97,179.62c-1.26-4.38-2.31-8.46-2.27-12.74,.01-1.28,.44-2.25,1.46-3.04,1.58-1.23,3.87-.7,4.05,1.19,.46,4.74,.05,9.44-2.16,13.84-.11,.22-.46,.33-1.07,.75Z"/>
        <path class="cls-3" d="M42.17,72.56c0,.58,.06,1.17-.01,1.74-.26,2.07-1.57,2.74-3.64,1.89-2.75-1.14-4.54-3.77-4.48-6.63,.05-2.27,.56-2.92,2.78-3.51,1.58-.42,3.55,.25,4.29,1.79"/>
        <path class="cls-3" d="M217.61,82.46c-.19,2.75,.32,5.58-1.33,8.53-.73-.5-1.66-.83-2.04-1.46-1.35-2.25-2.68-4.53-3.71-6.93-.91-2.13-.23-3.7,1.45-4.45,1.74-.78,2.87-.34,4.51,1.72,.11,.14,.32,.22,.48,.33,.21,.75,.42,1.5,.64,2.25Z"/>
        <path class="cls-14" d="M148.97,143.86c.44-3.89,.89-7.78,1.33-11.68,.75-.84,1.58-1.42,2.87-1.24,1.19,.16,1.89,.67,2.02,1.81,.01,.1,.03,.19,.02,.29-.27,5.18-2.2,9.83-5.05,14.88-.53-1.82-.86-2.94-1.19-4.06Z"/>
        <path class="cls-3" d="M220.59,195.83c-2.15,.77-3.24,.46-3.48-1.52-.32-2.72-.84-5.51-.14-8.25,.66-2.59,2.77-3.72,5.33-3.02,1.55,.42,1.89,1.6,.82,2.81-1.65,.91-1.67,2.5-1.86,4-.25,1.99-.45,3.98-.68,5.97Z"/>
        <path class="cls-2" d="M38.65,53.26c-2.04-2.61-3.62-4.71-5.3-6.75-.67-.82-1.53-1.51-2.35-2.21-1.02-.87-1.53-1.8-.68-3.03,.83-1.19,2.04-1.75,3.39-1.2,1.08,.44,2.13,1.19,2.87,2.05,2.08,2.4,2.51,5.41,2.96,8.35,.11,.73-.48,1.55-.9,2.79Z"/>
        <path class="cls-30" d="M47.25,211.23c.35,.86,1.02,1.72,1,2.57-.08,3.85-.33,7.7-.57,11.54-.03,.46-.32,.9-.52,1.35-.46,1.02-1.36,1.67-2.41,1.19-.65-.3-1.28-1.23-1.37-1.94-.4-3.33,.73-6.48,1.6-9.64,.47-1.7,1.06-3.37,1.6-5.06l.66-.02Z"/>
        <path class="cls-30" d="M217.61,82.46c-.21-.75-.42-1.5-.64-2.25-.38-1.29-.77-2.58-1.13-3.87-.51-1.82-.16-3.17,.94-3.62,1.62-.67,3.44,0,4.27,1.77,1.36,2.92,1.45,5.98,.56,9.02-.28,.95-.78,2.1-2.33,1.9-.56-.98-1.12-1.96-1.68-2.94Z"/>
        <path class="cls-3" d="M120.05,79.56c.83,2.41,1.67,4.83,2.53,7.32-4.09,.17-9.16-3.8-9.38-7.05-.15-2.08,1.24-3.09,4.31-3.14,.85,.96,1.7,1.92,2.55,2.87Z"/>
        <path class="cls-3" d="M148.25,199.88c-.62,.96-1.23,1.91-1.86,2.89-1.45-.81-2.35-1.72-2.43-3.25-.1-1.9-.39-3.8-.5-5.7-.03-.54,.19-1.13,.42-1.65,.77-1.76,1.85-2.41,3.47-2.15,1.25,.2,2.27,1.73,2.16,3.37-.06,.85-.29,1.68-.44,2.53-.27,1.32-.54,2.65-.81,3.97Z"/>
        <path class="cls-14" d="M220.59,195.83c.22-1.99,.42-3.98,.68-5.97,.19-1.5,.21-3.1,1.86-4,2.92,.18,3.59,.67,3.03,2.97-.96,3.93-2.18,7.8-3.34,11.69-.12,.41-.54,.74-1.22,1.64-.4-2.49-.7-4.41-1.01-6.32Z"/>
        <path class="cls-2" d="M222.31,219.3c.54,3.69,.99,6.71,1.41,9.74,.07,.47,.02,.97-.02,1.45-.13,1.65-1.36,3.16-2.55,3.17-1.43,0-3-1.47-2.86-3.24,.27-3.24,.63-6.52,2.22-9.5,.24-.46,.82-.75,1.8-1.62Z"/>
        <path class="cls-1" d="M53.02,164.01c.37,1.01,.78,1.6,.76,2.18-.11,3.85-.29,7.7-.48,11.55-.05,1-.65,1.83-1.67,1.68-.88-.13-1.87-.71-2.4-1.38-.41-.51-.38-1.53-.19-2.23,.89-3.34,1.88-6.66,2.88-9.97,.15-.51,.56-.94,1.1-1.82Z"/>
        <path class="cls-30" d="M148.25,199.88c.27-1.32,.54-2.65,.81-3.97,2.8-.05,3.21,.11,3.04,2.31-.32,4.22-.91,8.41-1.42,12.62-.03,.26-.3,.49-.72,1.16-1.34-4.33-1.44-8.23-1.72-12.11Z"/>
        <path class="cls-3" d="M215.83,226.3c-3.87-2.99-4.42-6.36-1.61-8.66,3.23,1.23,3.72,3.67,1.61,8.66Z"/>
        <path class="cls-8" d="M120.05,79.56c-.85-.96-1.7-1.92-2.55-2.87-.21-.83-.72-1.72-.55-2.47,.18-.8,.86-1.75,1.61-2.1,.92-.43,2.08-.07,2.51,1.02,.86,2.13,.99,4.37,1.37,6.93l-2.41-.5Z"/>
        <path class="cls-3" d="M41.04,224.92c-2.03-.42-3.2-1.39-3.54-2.88-.19-.82-.01-1.95,.5-2.59,.42-.53,1.79-.94,2.34-.67,.76,.37,1.6,1.42,1.61,2.19,.02,1.33-.57,2.66-.9,3.96Z"/>
        <path class="cls-17" d="M39.55,64.04c-1.79-1.75-3.03-3.11-3.04-5.11,0-.92,.1-1.93,1.25-1.96,.63-.02,1.59,.52,1.88,1.06,.99,1.85,1.08,3.79-.08,6.01Z"/>
      </g>
      <g>
        <path class="cls-18" d="M326.74,213.71c-1,5.34-3.12,10.28-5.51,15.14-1.09,2.21-2.02,4.49-2.93,6.78-2.04,5.16-5.44,8.86-10.87,10.55-.54,.03-1.08,.06-1.62,.1-.79,.06-1.82,.6-3.34,.18-2.04,.16-.53,.12-2.61,.12-.64,.04-1.09-.02-1.24-.04-3.74-.52-7.13-2.01-10.48-3.63-2.27-1.25-4.73-2.26-6.77-3.81-3.62-2.73-5.35-6.75-6.25-11.06-.62-2.95-1.37-5.88-1.1-9,.17-2-.6-4.06-.6-6.1,0-2.7,.43-5.39,.52-8.1,.13-3.86,.26-7.74,.11-11.59-.08-1.87-.87-3.71-1.22-5.58-.7-3.75-1.83-7.44-1.78-11.31,0-4.54,.02-9.09,.03-13.63,.4-3.59,.75-7.18,1.2-10.76,.33-2.61,.77-5.2,1.16-7.81l.47-10.42,.1-3.77c.1-.35,.27-.7,.28-1.06,.09-5.97,.16-11.94,.24-17.91,0-1.46-.08-2.93,.02-4.39,.12-1.69,.4-3.37,.61-5.05,.14-1.3,.38-2.59,.4-3.89,.05-4.25-.02-8.51,.04-12.76,.07-4.68,1.53-8.97,4.48-12.58,4.27-5.23,9.51-9.15,16.18-10.87,1.9-.49,3.79-1.05,5.68-1.58,2.35-.18,4.7-.37,7.06-.55,5.97,.11,9.72,5.61,11.48,11.5,.4,1.33,.77,2.67,1.16,4.01-.35,5.05-.78,10.1-1.02,15.16-.11,2.24,.14,4.5,.3,6.74,.22,3.18,.49,6.36,.78,9.54,.51,5.56,1.06,11.11,1.58,16.66,.08,.86,.09,1.71,.08,2.57-.06,5.58,1.01,11.03,1.82,16.51,.4,2.68,.7,5.36,1.09,8.04,.09,.63,.1,1.37,.28,1.98,.05,2.17,.31,4.2,.4,6.37,.08,1.88,.25,3.75,.38,5.62,.04,2.02,.07,4.04,.11,6.06,0,7.58-.01,15.15-.02,22.73-.03,1.07-.06,2.14-.09,3.2-.12,.91-.32,1.82-.33,2.73-.09,4.84-.14,9.69-.2,14.53"/>
        <path class="cls-3" d="M277.97,209c.17,2.59,.15,5.93,.65,9.18,.62,4,1.39,8.01,2.6,11.86,1.64,5.22,5.86,8.03,11.28,8.24,1.31,.05,2.62,.3,3.93,.46,2.06,.25,4.12,.64,6.19,.73,5.52,.26,7.65-1.11,9.89-6.2,1.94-4.41,3.86-8.83,5.77-13.25,1.44-3.33,2.3-6.76,2.3-10.43,0-4.35,.27-8.7,.38-13.05,.37-15.06,.36-30.11-.54-45.15-.13-2.26-.52-4.5-.86-6.74-1.23-8.13-2.38-16.26-2.54-24.51-.06-2.82-.58-5.63-.83-8.46-.49-5.65-1.17-11.3-1.31-16.96-.12-4.9,.33-9.83,.63-14.74,.21-3.39-.37-6.59-1.84-9.64-1.67-3.47-4.72-5.33-8.53-4.72-6.02,.96-11.79,2.57-16.55,6.77-4.22,3.72-6.64,8.23-6.61,13.87,.04,7.96-.31,15.87-1.02,23.81-.74,8.29-.93,16.63-1.21,24.95-.28,8.24-1.14,16.38-2.69,24.49-.74,3.88-1.22,7.88-1.18,11.82,.03,4.04,.68,8.09,1.35,12.09,.73,4.39,1.47,8.76,1.25,13.23-.19,3.87-.33,7.75-.52,12.34Z"/>
        <path class="cls-3" d="M277.97,209c.19-4.59,.32-8.47,.52-12.34,.22-4.48-.52-8.84-1.25-13.23-.67-4-1.31-8.05-1.35-12.09-.03-3.94,.44-7.94,1.18-11.82,1.55-8.1,2.41-16.25,2.69-24.49,.28-8.32,.47-16.66,1.21-24.95,.71-7.93,1.06-15.85,1.02-23.81-.03-5.64,2.39-10.15,6.61-13.87,4.76-4.2,10.53-5.82,16.55-6.77,3.81-.61,6.86,1.25,8.53,4.72,1.47,3.05,2.05,6.25,1.84,9.64-.3,4.91-.76,9.83-.63,14.74,.14,5.66,.82,11.31,1.31,16.96,.24,2.82,.77,5.63,.83,8.46,.17,8.25,1.32,16.38,2.54,24.51,.34,2.24,.72,4.49,.86,6.74,.9,15.04,.91,30.1,.54,45.15-.11,4.35-.38,8.7-.38,13.05,0,3.68-.86,7.11-2.3,10.43-1.91,4.42-3.83,8.84-5.77,13.25-2.24,5.08-4.37,6.46-9.89,6.2-2.07-.1-4.13-.48-6.19-.73-1.31-.16-2.62-.41-3.93-.46-5.42-.2-9.64-3.02-11.28-8.24-1.21-3.85-1.99-7.87-2.6-11.86-.5-3.26-.49-6.59-.65-9.18Zm20.02,18.31c1.84,.57,3.33,.04,4.38-1.29,.91-1.16,1.72-2.48,2.22-3.86,1.34-3.66,2.64-7.36,3.69-11.11,1.17-4.22,2.1-8.5,2.03-12.94-.05-3.78,.06-7.57-.04-11.35-.04-1.66-.31-3.35-.71-4.97-.18-.74-.81-1.52-1.46-1.96-1.93-1.33-4.34-.1-5.04,2.6-.39,1.52-.55,3.12-.69,4.69-.42,4.84-.63,9.71-1.2,14.53-.47,3.96-1.27,7.88-2.03,11.8-.87,4.51-1.85,8.99-1.15,13.86Zm6.27-139.21c-.33-1.25-.58-3.14-1.34-4.8-1.4-3.07-4.53-3.44-6.85-.97-1.6,1.7-1.83,3.82-1.61,6.02,.12,1.2,.37,2.39,.5,3.59,.37,3.56,1.24,6.98,2.92,10.15,1.12,2.11,3.57,2.16,4.2-.14,.17-.62,.71-1.17,.79-1.79,.49-3.79,.89-7.6,1.39-12.04Zm7.63,130.43c.66-1.6,1.47-2.92,1.72-4.33,.56-3.14,1.04-6.32,1.2-9.51,.36-7.25,.56-14.52,.68-21.78,.03-1.96-.33-3.94-.73-5.87-.26-1.26-.71-2.59-2.35-2.8-1.39,.64-1.44,1.89-1.46,3.13-.07,3.59-.1,7.18-.17,10.76-.19,9.87,.27,19.73,.21,29.6,0,.12,.25,.24,.89,.81Zm-1.75-71.81l.84,.02c.36-.93,.88-1.82,1.04-2.78,1.3-7.7,.77-15.4-.21-23.08-.1-.82-.38-1.73-.89-2.34-.48-.57-1.47-1.22-2.05-1.08-.75,.18-1.53,1.02-1.88,1.77-.34,.71-.19,1.67-.17,2.51,.17,7.08,1.38,14.04,2.66,20.98,.25,1.33,.44,2.67,.66,4Zm-8.43-22.55c-3.1,1.55-3.47,2.3-2.8,5.63,.07,.37-.03,.77,.06,1.13,.96,3.67,1.84,7.37,2.99,10.98,.43,1.34,.93,2.9,2.79,3.73,.17-.79,.38-1.47,.44-2.16,.08-.94-.16-1.94,.09-2.82,1.22-4.3,.23-8.56-.23-12.8-.2-1.83-1.26-3.32-3.34-3.68Zm4.98-27.22c1.77-.2,1.93-1.53,2.21-2.47,1.15-3.91,1.72-7.92,1.43-12.01-.05-.73-.28-1.5-.62-2.15-.63-1.18-1.7-1.82-3.05-1.55-1.28,.26-2.31,1.01-2.49,2.39-.14,1.02-.13,2.09,.05,3.1,.76,4.15,1.61,8.28,2.48,12.69Z"/>
        <path class="cls-18" d="M311.89,218.53c-.63-.57-.89-.69-.89-.81,.06-9.87-.4-19.73-.21-29.6,.07-3.59,.1-7.18,.17-10.76,.02-1.23,.06-2.49,1.46-3.13,1.64,.21,2.09,1.55,2.35,2.8,.39,1.93,.76,3.92,.73,5.87-.12,7.26-.33,14.53-.68,21.78-.16,3.18-.64,6.37-1.2,9.51-.25,1.41-1.07,2.73-1.72,4.33Z"/>
        <path class="cls-9" d="M310.14,146.72c-.22-1.33-.42-2.67-.66-4-1.29-6.94-2.49-13.9-2.66-20.98-.02-.85-.16-1.81,.17-2.51,.36-.75,1.14-1.59,1.88-1.77,.58-.14,1.58,.51,2.05,1.08,.51,.61,.78,1.52,.89,2.34,.99,7.68,1.51,15.38,.21,23.08-.16,.96-.68,1.86-1.04,2.78l-.84-.02Z"/>
        <path class="cls-3" d="M301.7,124.17c2.08,.36,3.14,1.85,3.34,3.68,.47,4.25,1.46,8.5,.23,12.8-.25,.88-.01,1.88-.09,2.82-.06,.69-.27,1.37-.44,2.16-1.86-.83-2.36-2.39-2.79-3.73-1.16-3.61-2.03-7.31-2.99-10.98-.09-.36,.01-.76-.06-1.13-.66-3.33-.3-4.08,2.8-5.63Z"/>
        <path class="cls-16" d="M306.68,96.95c-.87-4.41-1.72-8.54-2.48-12.69-.18-1.01-.19-2.09-.05-3.1,.19-1.38,1.22-2.13,2.49-2.39,1.35-.27,2.42,.37,3.05,1.55,.34,.65,.57,1.42,.62,2.15,.29,4.09-.28,8.1-1.43,12.01-.28,.94-.44,2.27-2.21,2.47Z"/>
        <g>
          <path class="cls-18" d="M325.51,19.01l.29,8.52c-.65,4.45-3.24,7.64-4.81,11.49-3.38,8.21-15.53,15.72-27.93,10.92-2.52-.98-4.67-3.13-6.76-4.98-1.83-1.62-3.41-3.54-5.03-5.4-4.07-4.69-5.07-10.19-4.18-16.2,.43-2.9,.73-5.82,.98-8.74,.55-6.43,4.34-11.04,10.58-12.92,12.16-3.66,22.54-.17,31.7,7.96,2.78,2.46,4.67,5.93,5.16,9.35Zm-6.8,10.18c2.71-5.17,.05-12.99-3.91-16.27-3.92-3.24-8.49-5.25-13.35-6.6-.99-.28-2.03-.35-3.33-.56-2.38,.38-4.99,.74-7.58,1.25-3.02,.61-5.08,2.49-6.04,5.39-.53,1.6-.78,3.29-1.03,4.96-.35,2.52-.48,5.08-.93,7.58-.52,2.9-.43,5.72,1.21,8.2,2.27,3.47,4.72,6.83,7.2,10.15,.44,.58,1.38,.94,2.14,1.07,2.13,.36,4.35,.35,6.44,.84,6.16,1.43,13.77-3.29,16.14-8.99,.98-2.35,1.84-4.77,3.03-7.02Z"/>
          <path class="cls-3" d="M314.8,12.93c3.97,3.28,6.63,11.09,3.91,16.27-1.19,2.24-2.05,4.67-3.03,7.02-2.37,5.7-9.98,10.42-16.14,8.99-2.1-.48-4.31-.47-6.44-.84-.76-.13-1.71-.49-2.14-1.07-2.48-3.32-4.93-6.68-7.2-10.15-1.63-2.48-1.72-5.29-1.21-8.2,.44-2.5,.57-5.06,.93-7.58,.25-1.67,.5-3.37,1.03-4.96,.95-2.9,3.01-4.78,6.04-5.39,2.59-.52,5.2-.87,7.58-1.25,1.3,.21,2.34,.28,3.33,.56,4.87,1.35,9.43,3.36,13.35,6.6Z"/>
        </g>
        <path class="cls-3" d="M298.11,5.76c1.3,.21,2.35,.29,3.34,.56,4.86,1.35,9.42,3.36,13.34,6.6,3.97,3.28,6.63,11.09,3.91,16.26-1.18,2.25-2.05,4.66-3.03,7.02-2.37,5.71-9.97,10.43-16.14,9-2.1-.49-4.31-.47-6.45-.84-.76-.13-1.71-.5-2.14-1.08-2.48-3.32-4.93-6.68-7.2-10.14-1.63-2.48-1.72-5.29-1.2-8.2,.45-2.5,.57-5.06,.93-7.58,.24-1.67,.5-3.37,1.02-4.96,.95-2.91,3.02-4.78,6.04-5.39,2.58-.52,5.2-.87,7.58-1.26Zm5.16,9.7c-1.18-1.63-2.2-3.41-3.57-4.86-1.68-1.77-4.08-1.86-5.92-.61-1.71,1.16-2.71,3.81-1.67,5.8,1.89,3.62,4.67,6.55,8.02,8.91,.08,.05,.16,.11,.24,.14,2.3,.95,3.83-.07,4.03-2.55,.19-2.39-.28-4.63-1.13-6.84,1.99,1.55,3.97,3.11,5.99,4.64,.82,.62,1.25,.01,1.32-.68,.22-2.11-.11-4.12-1.43-5.88-1.21-1.61-2.71-2.26-4.09-1.76-1.77,.65-1.98,2.07-1.79,3.69Zm2.43,20.95c.76-3.18,.35-5.66-.37-8.06-.35-1.16-1.43-1.79-2.73-1.42-1.06,.3-1.72,.9-1.68,2.22,.04,1.38,.25,2.64,1.2,3.65,1.02,1.09,2.11,2.13,3.58,3.6Zm5.52-7.75c-.02-.58-.66-1.26-1.92-1.27-1.22,0-2.34,1.11-1.94,2.22,.38,1.06,1.18,2.07,2.03,2.83,.41,.37,1.89-1.96,1.83-3.78Z"/>
        <path class="cls-27" d="M303.27,15.46c-.65-1.51,.02-3.03,1.79-3.69,1.37-.5,2.87,.15,4.09,1.76,1.32,1.75,1.65,3.76,1.43,5.88-.07,.69-.51,1.3-1.32,.68-2.01-1.52-3.99-3.09-5.99-4.64h0Z"/>
        <path class="cls-3" d="M305.7,36.41c-1.47-1.47-2.56-2.5-3.58-3.6-.95-1.02-1.16-2.27-1.2-3.65-.04-1.32,.62-1.92,1.68-2.22,1.3-.37,2.38,.26,2.73,1.42,.72,2.4,1.13,4.88,.37,8.06Z"/>
        <path class="cls-28" d="M311.23,28.66c.06,1.82-1.42,4.15-1.83,3.78-.85-.76-1.65-1.77-2.03-2.83-.4-1.11,.72-2.22,1.94-2.22,1.26,0,1.9,.69,1.92,1.27Z"/>
      </g>
      <g>
        <g>
          <path class="cls-18" d="M741.57,149.83c1.19,12.95,2.13,25.95,1.07,38.99-1.01,12.38-2.61,24.67-4.99,36.85-.65,3.39-1.76,6.71-2.89,9.98-1.24,3.63-3.44,6.68-6.31,9.26-3.95,3.53-8.39,4.27-13.29,2.45-1.11-.42-2.3-.86-3.18-1.6-4.03-3.37-8.22-6.62-11.89-10.36-4.15-4.23-4.63-9.92-4.97-15.54-.31-5.38,.35-10.7,.89-16.05,.38-3.83,.28-7.72,.21-11.58-.02-1.31-.56-2.62-1.04-4.62-1.34,2.38-2.33,4.08-3.28,5.8-2.75,4.99-5.66,9.8-10.28,13.36-2.9,2.22-5.99,3.91-9.6,4.51-2.42,.4-4.55,1.36-6.4,2.97-5.26,4.55-10.74,8.88-15.73,13.69-8.96,8.63-19.35,14.56-31.36,17.52-7.56,1.87-15.24,3.04-23.04,1.66-2.23-.39-4.39-1.19-6.57-1.84-3.42-1-6.81-2.14-10.25-3.04-3.99-1.04-7.35-3.03-9.87-6.27-6.18-7.95-10.76-16.68-12.44-26.7-.37-2.23-.32-4.56-.3-6.84,.13-10.33,.18-20.67,.51-30.99,.38-12.51,.94-25.01,1.54-37.52,.51-10.94,.16-21.86-.89-32.74-.87-9.07-2.16-18.11-3.17-27.18-.4-3.55-.54-7.14-.86-10.7-.05-.59-.11-1.61-.08-2.27-.55-3.4-.17-5.39-.17-8.77-.09-.49,.06-1.46,.24-1.69,2.25-11.28,9.48-17.99,19.98-21.62,1.92-.66,4.08-.92,6.13-.92,4.37,0,8.74,.23,13.12,.54,1.33,.1,2.75,.53,3.93,1.15,9.24,4.87,13.87,12.88,14.81,22.98,1.2,12.89,1.27,25.81-.74,38.64-1.55,9.9-1.43,19.78-.26,29.7,1.08,9.16,2.22,18.32,3.14,27.52,.5,4.94,.59,9.91,.87,14.87,.21,3.72,1.44,6.95,4.25,9.54,1.57,1.46,3.35,2.1,5.45,1.75,1.27-.21,2.51-.56,3.78-.83,4.76-.99,8.2-3.5,10.41-8.01,1.46-2.99,3.73-5.59,5.59-8.39,.88-1.32,1.65-2.71,2.41-4.09,1.84-3.28,3.5-6.68,5.5-9.85,3.14-4.96,7.51-8.48,13.33-9.84,7.16-1.66,11.48-6.18,13.05-13.15,1.41-6.28,2.57-12.65,3.4-19.03,1.15-8.86,2.07-17.76,2.75-26.67,.55-7.32,.64-14.68,.9-22.03,.23-6.67,2.4-12.83,4.99-18.87,1.17-2.74,3.49-4.29,6.24-5.17,6.97-2.21,14.07-2.57,21.2-1.01,2.99,.65,5.97,1.54,8.81,2.67,2.22,.89,4.69,1.81,5.14,4.77,.05,.32,.51,.59,.81,.85,4.13,3.51,5.61,8.24,6.3,13.41,1.05,7.95,.6,15.85-.37,23.77-.76,6.1-1.34,12.23-2.06,18.34-1.17,9.98,.1,19.84,1.37,29.69,1.24,9.54,3.3,19,4.18,28.56Zm-6.37,40.35c.33-10.5,.34-21.01-1.02-31.48-.58-4.5-.82-9.06-1.41-13.55-1.26-9.58-2.93-19.11-3.88-28.72-.76-7.69,.03-15.42,1.26-23.08,.99-6.13,2.11-12.27,2.61-18.45,.55-6.9,.66-13.86,.61-20.79-.03-3.12-.79-6.25-1.46-9.32-.85-3.88-4.05-5.98-6.89-8.27-.55-.44-1.49-.43-2.26-.53-4.12-.52-8.26-.91-12.36-1.53-3.89-.6-7.64-.26-11.44,.72-1.95,.51-3.35,1.55-3.91,3.28-1.27,3.83-2.56,7.68-3.26,11.64-.63,3.57-.49,7.29-.69,10.94-.4,7.41-.79,14.83-1.24,22.24-.12,2.06-.38,4.13-.64,6.19-.73,5.76-1.48,11.53-2.26,17.3-.74,5.56-1.3,11.14-2.94,16.56-2.42,8.03-7.08,13.84-15.3,16.38-4.07,1.27-7.81,3.14-10.19,6.78-2.06,3.14-3.7,6.54-5.56,9.81-1.22,2.13-2.4,4.3-3.76,6.34-2.08,3.13-4.47,6.05-6.43,9.24-2.34,3.82-5.42,6.55-9.7,7.85-2.35,.71-4.76,1.24-7.15,1.84-6.08,1.56-10.54-.97-14.31-5.49-3.09-3.7-4.12-8.01-4.16-12.69-.02-2.58,.16-5.18-.1-7.74-.64-6.38-1.58-12.73-2.23-19.1-.69-6.88-1.28-13.78-1.75-20.67-.59-8.54,0-17.05,1.24-25.49,.94-6.47,1.71-12.93,1.6-19.47-.09-4.85-.36-9.7-.48-14.56-.12-5.04-1.57-9.74-3.81-14.19-.55-1.12-1.44-2.17-2.41-2.96-1.67-1.38-3.56-2.5-5.31-3.81-1.26-.94-2.62-1.32-4.18-1.22-2.46,.18-5.03,.8-7.38,.34-3.56-.7-6.7,.22-9.79,1.51-6.22,2.61-11.02,6.83-12.72,13.57-1.03,4.12-1.19,8.41-.89,12.69,.15,1.97,.33,3.94,.45,5.91,.23,3.95,.4,7.91,.67,11.86,.15,2.06,.02,4.31,.81,6.13,1.73,4.01,1.54,8.13,1.56,12.28,.02,3.48-.11,6.96,.07,10.43,.2,4.14,.81,8.27,.96,12.4,.11,2.76-.33,5.52-.4,8.29-.24,9.92-.45,19.83-.64,29.76-.07,3.97-.02,7.95-.12,11.92-.06,2.57-.45,5.14-.4,7.69,.09,3.96,.44,7.92,.67,11.86-.15,0-.28,.02-.42,.03,.26,4.15,.53,8.3,.8,12.44,.7,10.64,5.09,19.78,11.53,28.07,1.81,2.35,4.17,3.83,7.18,4.4,2.31,.45,4.56,1.28,6.82,1.98,.94,.29,1.86,.67,2.77,1.04,3.81,1.55,7.72,2.27,11.84,1.8,4.41-.5,8.94-.54,13.23-1.54,11.03-2.55,20.56-7.97,28.79-15.8,4.67-4.44,9.63-8.57,14.57-12.72,3.12-2.61,6.47-4.81,10.68-5.5,4.28-.71,7.69-3.08,10.24-6.53,2.17-2.94,4.2-6,6.15-9.08,1.56-2.43,2.97-4.95,5.6-6.41,3.01-1.66,5.76-1.1,7.26,1.98,1.18,2.45,2.27,5.19,2.4,7.85,.25,4.82-.2,9.69-.43,14.53-.16,3.46-.5,6.91-.58,10.37-.04,1.56,.42,3.13,.51,4.7,.18,3.37,1.23,6.47,3.34,9.03,2.98,3.61,6.38,6.86,10.46,9.22,3.28,1.89,6.64,1.69,8.88-1.13,1.34-1.68,2.67-3.47,3.56-5.4,2.13-4.61,2.8-9.64,3.6-14.6,.77-4.77,1.35-9.57,1.94-14.37,.6-4.99,1.43-9.99,1.59-15Z"/>
          <path class="cls-3" d="M734.18,158.7c1.36,10.47,1.35,20.98,1.02,31.48-.16,5.01-.98,10.01-1.59,15-.58,4.8-1.17,9.6-1.94,14.37-.8,4.96-1.47,9.99-3.6,14.6-.9,1.94-2.22,3.72-3.56,5.4-2.24,2.82-5.6,3.02-8.88,1.13-4.08-2.36-7.48-5.61-10.46-9.22-2.11-2.55-3.16-5.66-3.34-9.03-.09-1.58-.55-3.14-.51-4.7,.09-3.46,.43-6.91,.58-10.37,.22-4.84,.68-9.71,.43-14.53-.14-2.66-1.23-5.39-2.4-7.85-1.5-3.08-4.25-3.64-7.26-1.98-2.63,1.46-4.04,3.97-5.6,6.41-1.96,3.09-3.98,6.14-6.15,9.08-2.55,3.46-5.96,5.82-10.24,6.53-4.21,.69-7.57,2.89-10.68,5.5-4.94,4.15-9.89,8.28-14.57,12.72-8.23,7.83-17.76,13.25-28.79,15.8-4.29,1-8.82,1.04-13.23,1.54-4.12,.47-8.03-.25-11.84-1.8-.92-.37-1.83-.75-2.77-1.04-2.26-.7-4.51-1.53-6.82-1.98-3.01-.57-5.36-2.05-7.18-4.4-6.44-8.29-10.83-17.43-11.53-28.07-.27-4.15-.54-8.3-.8-12.44,.14,0,.27-.02,.42-.03-.23-3.94-.58-7.9-.67-11.86-.05-2.55,.34-5.12,.4-7.69,.1-3.97,.05-7.95,.12-11.92,.19-9.92,.4-19.83,.64-29.76,.07-2.77,.51-5.53,.4-8.29-.16-4.14-.76-8.27-.96-12.4-.18-3.47-.05-6.95-.07-10.43-.02-4.15,.18-8.27-1.56-12.28-.79-1.82-.66-4.07-.81-6.13-.27-3.95-.44-7.91-.67-11.86-.12-1.97-.3-3.94-.45-5.91-.3-4.27-.15-8.57,.89-12.69,1.69-6.75,6.49-10.96,12.72-13.57,3.09-1.29,6.22-2.21,9.79-1.51,2.35,.46,4.92-.17,7.38-.34,1.56-.11,2.92,.27,4.18,1.22,1.74,1.3,3.63,2.42,5.31,3.81,.97,.79,1.86,1.84,2.41,2.96,2.24,4.45,3.69,9.14,3.81,14.19,.12,4.86,.39,9.71,.48,14.56,.12,6.54-.65,13.01-1.6,19.47-1.23,8.44-1.83,16.95-1.24,25.49,.48,6.89,1.06,13.79,1.75,20.67,.65,6.38,1.59,12.73,2.23,19.1,.25,2.56,.08,5.16,.1,7.74,.04,4.67,1.07,8.99,4.16,12.69,3.78,4.52,8.24,7.05,14.31,5.49,2.39-.6,4.8-1.13,7.15-1.84,4.27-1.29,7.36-4.03,9.7-7.85,1.96-3.19,4.34-6.11,6.43-9.24,1.36-2.03,2.54-4.21,3.76-6.34,1.86-3.27,3.5-6.68,5.56-9.81,2.39-3.63,6.12-5.51,10.19-6.78,8.22-2.54,12.87-8.34,15.3-16.38,1.64-5.42,2.2-11,2.94-16.56,.78-5.77,1.53-11.54,2.26-17.3,.26-2.06,.53-4.13,.64-6.19,.45-7.41,.84-14.83,1.24-22.24,.2-3.65,.06-7.37,.69-10.94,.7-3.95,2-7.81,3.26-11.64,.56-1.73,1.97-2.77,3.91-3.28,3.8-.98,7.55-1.32,11.44-.72,4.1,.62,8.24,1.01,12.36,1.53,.77,.1,1.71,.09,2.26,.53,2.84,2.29,6.05,4.39,6.89,8.27,.67,3.07,1.43,6.2,1.46,9.32,.05,6.93-.06,13.88-.61,20.79-.5,6.18-1.62,12.32-2.61,18.45-1.23,7.65-2.02,15.38-1.26,23.08,.95,9.61,2.63,19.14,3.88,28.72,.59,4.5,.83,9.06,1.41,13.55Z"/>
        </g>
        <path class="cls-3" d="M562.22,178.98c-.06-2.56,.34-5.13,.4-7.69,.1-3.97,.04-7.95,.12-11.92,.19-9.92,.39-19.84,.64-29.75,.07-2.77,.51-5.54,.4-8.29-.16-4.14-.76-8.26-.97-12.4-.17-3.47-.05-6.95-.06-10.43-.02-4.15,.17-8.27-1.56-12.28-.79-1.82-.66-4.07-.81-6.13-.28-3.95-.44-7.91-.67-11.86-.12-1.97-.3-3.94-.44-5.91-.31-4.27-.15-8.57,.88-12.68,1.7-6.75,6.49-10.96,12.72-13.57,3.08-1.29,6.21-2.21,9.78-1.52,2.35,.46,4.92-.17,7.38-.34,1.55-.11,2.91,.27,4.17,1.22,1.74,1.31,3.63,2.42,5.31,3.8,.97,.8,1.85,1.84,2.41,2.96,2.23,4.46,3.68,9.15,3.8,14.19,.12,4.85,.39,9.7,.48,14.55,.11,6.54-.65,13.01-1.59,19.48-1.23,8.44-1.83,16.95-1.24,25.48,.48,6.9,1.06,13.79,1.76,20.67,.64,6.38,1.58,12.72,2.22,19.1,.26,2.56,.08,5.16,.1,7.75,.04,4.67,1.07,8.98,4.16,12.68,3.77,4.52,8.24,7.05,14.31,5.49,2.38-.61,4.79-1.13,7.14-1.84,4.27-1.3,7.36-4.03,9.69-7.85,1.96-3.19,4.34-6.12,6.43-9.24,1.36-2.04,2.55-4.21,3.77-6.35,1.86-3.27,3.49-6.68,5.55-9.81,2.39-3.63,6.12-5.51,10.19-6.77,8.22-2.55,12.88-8.35,15.3-16.38,1.64-5.43,2.2-11.01,2.94-16.57,.77-5.76,1.53-11.53,2.26-17.3,.26-2.06,.52-4.12,.64-6.19,.44-7.41,.83-14.82,1.24-22.24,.2-3.65,.06-7.37,.69-10.95,.7-3.95,1.99-7.81,3.26-11.64,.57-1.73,1.97-2.77,3.91-3.27,3.8-.99,7.55-1.33,11.45-.73,4.1,.63,8.23,1.01,12.35,1.53,.77,.1,1.72,.09,2.26,.53,2.84,2.29,6.04,4.39,6.89,8.27,.67,3.07,1.43,6.21,1.46,9.32,.06,6.93-.05,13.89-.61,20.79-.5,6.18-1.62,12.31-2.6,18.44-1.23,7.66-2.02,15.38-1.26,23.08,.95,9.61,2.63,19.14,3.89,28.72,.59,4.5,.82,9.05,1.41,13.56,1.36,10.46,1.35,20.98,1.03,31.48-.16,5.01-.99,10.01-1.59,15-.58,4.8-1.16,9.6-1.93,14.37-.8,4.96-1.47,9.99-3.6,14.59-.9,1.94-2.23,3.72-3.57,5.4-2.24,2.82-5.6,3.02-8.88,1.13-4.07-2.35-7.48-5.61-10.46-9.21-2.12-2.56-3.16-5.66-3.34-9.03-.08-1.57-.54-3.14-.5-4.7,.09-3.46,.43-6.91,.58-10.37,.22-4.84,.68-9.71,.43-14.53-.14-2.66-1.23-5.39-2.41-7.84-1.49-3.08-4.25-3.65-7.25-1.98-2.64,1.47-4.05,3.98-5.6,6.41-1.96,3.08-3.98,6.14-6.15,9.08-2.55,3.46-5.97,5.83-10.25,6.53-4.2,.69-7.56,2.89-10.68,5.51-4.93,4.14-9.9,8.27-14.56,12.71-8.23,7.83-17.77,13.25-28.79,15.81-4.3,1-8.82,1.03-13.24,1.54-4.11,.47-8.03-.25-11.84-1.8-.92-.37-1.84-.75-2.78-1.04-2.26-.7-4.5-1.53-6.82-1.98-3-.58-5.36-2.05-7.17-4.4-6.43-8.29-10.83-17.43-11.53-28.08-.27-4.15-.53-8.29-.8-12.44m9.86-59.88c-.79,1.61-1.62,2.68-1.82,3.86-.55,3.28-1.09,6.6-1.17,9.91-.09,3.83,.2,7.69,.58,11.5,.2,2.01,.52,4.1,2.14,5.67,2.28,2.21,6,1.44,6.82-1.6,.42-1.55,.45-3.29,.27-4.91-.37-3.3-1.02-6.57-1.54-9.86-.68-4.28-1.78-8.43-3.59-12.38-.28-.6-.82-1.08-1.69-2.2Zm2.35-75.53c0,.89-.07,1.79,.02,2.67,.13,1.27,.23,2.56,.6,3.77,.37,1.2,.91,2.42,1.66,3.43,1.59,2.14,5.94,2.88,7.26-1.19,.33-1.01,.57-2.1,.59-3.15,.05-3.27,.12-6.54-.09-9.8-.14-2.23-.66-4.45-1.16-6.63-.36-1.58-1.56-2.1-3.14-2.07-1.77,.03-2.65,1.17-3.41,2.46-1.9,3.25-2.08,6.9-2.32,10.53Zm49.14,168.36c-.21,.05-.85,.06-1.34,.33-3.27,1.81-6.91,2.1-10.49,2.76-2.59,.48-5.15,1.35-7.56,2.41-1.11,.49-2.98,.93-2.83,2.64,.15,1.69,1.82,2.17,3.24,2.62,5.42,1.7,10.91,1.52,16.35,.25,3.05-.71,5.25-2.67,6.31-5.71,.94-2.68-.72-5.32-3.68-5.3Zm95.74-23.74c-.95,1.48-1.76,2.38-2.15,3.44-.65,1.73-1.15,3.54-1.49,5.36-.61,3.27-1.18,6.55-1.51,9.86-.21,2.07,1.15,3.67,2.8,3.9,1.72,.24,3.19-.77,3.78-2.97,.43-1.59,.31-3.32,.72-4.93,.94-3.76,.44-7.43-.43-11.08-.26-1.07-.96-2.04-1.71-3.57Zm-78.57,12.29c.53,.34,.83,.67,1.01,.62,4.93-1.45,9.6-3.48,13.7-6.63,1.58-1.21,1.84-2.86,.93-4.14-.91-1.28-2.97-1.65-4.52-.55-4.19,2.97-8.19,6.15-11.12,10.7Zm78.69-171.62c.46,4.95,2.07,9.26,3.98,13.44,.24,.52,1.64,.93,2.31,.74,.81-.24,1.68-1.05,2.03-1.84,.32-.72,.22-1.84-.12-2.59-1.13-2.51-2.34-5.01-3.76-7.36-.81-1.34-2.14-2.32-4.43-2.39Zm-3.96,12.54c2.82,.01,4.22-1.92,3.03-4.33-1.08-2.18-2.53-4.19-3.9-6.21-.3-.45-.91-.83-1.44-.96-.8-.19-1.91-.48-2.43-.1-.53,.38-.85,1.63-.65,2.32,.77,2.61,1.8,5.15,2.73,7.72,.49,1.37,1.56,1.66,2.67,1.56Zm11.42,146.86l-.55,.04c-.28,.8-.68,1.58-.8,2.41-.66,4.28-1.24,8.56-1.85,12.85-.21,1.46-.51,2.92-.56,4.39-.02,.53,.57,1.52,.9,1.52,.79,.02,1.87-.19,2.32-.73,.58-.7,.85-1.8,.91-2.76,.27-4.24,.53-8.48,.56-12.72,.01-1.67-.6-3.34-.93-5ZM570.08,49.66c-1.39,.5-2.38,1.36-2.64,2.83-.43,2.4-.85,4.81-1.1,7.24-.17,1.66-.03,3.35-.05,5.03-.01,1.33,.49,2.45,1.82,2.69,1.42,.26,2.12-.8,2.39-2.07,.2-.95,.45-1.93,.43-2.89-.03-1.46-.31-2.92-.4-4.39-.18-2.77-.3-5.53-.45-8.44Zm5.97,171.42c-.27,1.64,.72,2.74,2.17,2.72,1.41-.02,3.04-1.66,2.84-3.24-.33-2.61-1.62-4.83-3.55-6.62-.57-.53-1.44-.04-1.45,.76-.02,2.13,0,4.26,0,6.39Zm151.4-58.08c0,.3,0,.59,0,.89,0,1.22,0,2.49,1.63,2.66,1.57,.16,1.89-1.01,2.25-2.21,.86-2.91-.28-5.6-.86-8.35-.06-.29-.57-.76-.7-.71-.39,.15-.9,.47-.98,.81"/>
        <path class="cls-3" d="M572.33,130.98c.88,1.12,1.42,1.6,1.69,2.2,1.81,3.94,2.92,8.1,3.59,12.38,.52,3.29,1.16,6.56,1.54,9.86,.18,1.61,.15,3.35-.27,4.91-.82,3.04-4.54,3.8-6.82,1.6-1.62-1.57-1.95-3.66-2.14-5.67-.38-3.82-.66-7.67-.58-11.5,.07-3.31,.61-6.63,1.17-9.91,.2-1.17,1.03-2.24,1.82-3.86Z"/>
        <path class="cls-3" d="M574.68,55.45c.24-3.63,.41-7.28,2.32-10.53,.76-1.3,1.64-2.43,3.41-2.46,1.59-.03,2.78,.49,3.14,2.07,.5,2.19,1.02,4.41,1.16,6.63,.21,3.26,.15,6.53,.09,9.8-.02,1.06-.26,2.14-.59,3.15-1.32,4.07-5.66,3.33-7.26,1.19-.75-1-1.28-2.22-1.66-3.43-.37-1.2-.48-2.5-.6-3.77-.09-.88-.02-1.78-.02-2.67Z"/>
        <path class="cls-3" d="M719.56,200.07c.75,1.53,1.45,2.49,1.71,3.57,.87,3.65,1.38,7.32,.43,11.08-.4,1.6-.29,3.33-.72,4.93-.59,2.2-2.07,3.21-3.78,2.97-1.65-.23-3-1.82-2.8-3.9,.33-3.3,.9-6.59,1.51-9.86,.34-1.82,.84-3.62,1.49-5.36,.39-1.05,1.2-1.96,2.15-3.44Z"/>
        <path class="cls-3" d="M640.98,212.36c2.93-4.54,6.93-7.73,11.12-10.7,1.55-1.1,3.61-.73,4.52,.55,.91,1.28,.65,2.93-.93,4.14-4.1,3.14-8.76,5.18-13.7,6.63-.18,.05-.48-.28-1.01-.62Z"/>
        <path class="cls-11" d="M719.67,40.74c2.29,.07,3.62,1.05,4.43,2.39,1.42,2.35,2.62,4.85,3.76,7.36,.34,.75,.44,1.87,.12,2.59-.35,.79-1.22,1.6-2.03,1.84-.67,.19-2.07-.22-2.31-.74-1.91-4.19-3.51-8.49-3.98-13.44Z"/>
        <path class="cls-24" d="M727.13,200.14c.33,1.67,.94,3.34,.93,5-.03,4.24-.29,8.49-.56,12.72-.06,.95-.33,2.05-.91,2.76-.45,.54-1.53,.75-2.32,.73-.33,0-.91-1-.9-1.52,.05-1.47,.35-2.93,.56-4.39,.61-4.28,1.19-8.57,1.85-12.85,.13-.82,.53-1.61,.8-2.41l.55-.04Z"/>
        <path class="cls-26" d="M570.08,49.66c.15,2.91,.27,5.68,.45,8.44,.09,1.46,.37,2.92,.4,4.39,.02,.96-.22,1.94-.43,2.89-.27,1.27-.97,2.32-2.39,2.07-1.32-.24-1.83-1.36-1.82-2.69,.02-1.68-.12-3.37,.05-5.03,.25-2.43,.67-4.84,1.1-7.24,.26-1.47,1.25-2.33,2.64-2.83Z"/>
        <path class="cls-12" d="M576.05,221.08c0-2.13-.02-4.26,0-6.39,0-.8,.88-1.29,1.45-.76,1.94,1.79,3.22,4.01,3.55,6.62,.2,1.58-1.43,3.23-2.84,3.24-1.45,.02-2.44-1.08-2.17-2.72Z"/>
        <path class="cls-25" d="M728.78,156.09c.09-.35,.6-.66,.98-.81,.13-.05,.64,.42,.7,.71,.58,2.75,1.72,5.44,.86,8.35-.36,1.2-.68,2.37-2.25,2.21-1.64-.17-1.63-1.44-1.63-2.66,0-.3,0-.59,0-.89"/>
      </g>
      <g>
        <g>
          <path class="cls-18" d="M538.39,221.96c.09,.48-.06,1.42-.24,1.66-2.18,10.98-9.23,17.52-19.44,21.05-1.88,.64-3.98,.9-5.98,.9-4.25,0-8.52-.23-12.77-.53-1.3-.1-2.67-.51-3.83-1.12-9.01-4.74-13.51-12.54-14.43-22.38-1.17-12.55-1.23-25.13,.72-37.63,1.51-9.64,1.39-19.27,.25-28.92-1.05-8.93-2.16-17.86-3.06-26.81-.49-4.8-.58-9.65-.85-14.48-.2-3.62-1.4-6.78-4.13-9.3-1.54-1.41-3.27-2.04-5.32-1.7-1.24,.2-2.45,.55-3.68,.81-4.63,.97-7.98,3.41-10.14,7.8-1.42,2.92-3.63,5.44-5.44,8.18-.85,1.29-1.61,2.64-2.36,3.98-1.79,3.19-3.4,6.5-5.36,9.59-3.06,4.83-7.31,8.27-12.98,9.59-6.97,1.63-11.19,6.03-12.72,12.81-1.37,6.11-2.49,12.32-3.3,18.53-1.12,8.64-2.02,17.3-2.68,25.98-.55,7.14-.62,14.3-.88,21.46-.22,6.49-2.34,12.5-4.86,18.38-1.14,2.66-3.4,4.18-6.08,5.02-6.79,2.15-13.7,2.5-20.64,.98-2.92-.63-5.82-1.49-8.59-2.59-2.16-.87-4.57-1.76-5-4.64-.05-.31-.5-.58-.79-.83-4.02-3.43-5.46-8.02-6.13-13.06-1.02-7.74-.58-15.43,.36-23.14,.74-5.95,1.31-11.92,2.01-17.88,1.14-9.71-.09-19.33-1.33-28.91-1.21-9.3-3.21-18.5-4.07-27.82-1.15-12.61-2.07-25.27-1.04-37.96,.98-12.05,2.54-24.03,4.85-35.9,.64-3.3,1.72-6.52,2.81-9.72,1.22-3.53,3.36-6.5,6.15-9.01,3.85-3.46,8.17-4.17,12.95-2.4,1.08,.4,2.23,.83,3.1,1.55,3.93,3.28,8,6.46,11.58,10.1,4.04,4.11,4.52,9.67,4.84,15.13,.3,5.24-.34,10.42-.87,15.63-.37,3.73-.27,7.52-.21,11.28,.02,1.29,.55,2.55,1.02,4.51,1.3-2.32,2.27-3.98,3.19-5.66,2.67-4.85,5.51-9.54,10.02-13.01,2.81-2.16,5.83-3.82,9.35-4.39,2.37-.38,4.43-1.32,6.23-2.89,5.12-4.43,10.46-8.65,15.33-13.34,8.72-8.39,18.84-14.17,30.54-17.06,7.35-1.81,14.84-2.95,22.43-1.62,2.17,.38,4.27,1.16,6.41,1.79,3.33,.98,6.62,2.09,9.98,2.96,3.88,1.01,7.17,2.95,9.62,6.1,6.02,7.74,10.48,16.24,12.11,26.01,.37,2.17,.32,4.43,.29,6.66-.12,10.06-.18,20.13-.49,30.17-.37,12.19-.92,24.36-1.5,36.54-.5,10.65-.16,21.29,.86,31.89,.86,8.84,2.11,17.64,3.11,26.47,.38,3.46,.52,6.94,.82,10.42,.06,.57,.12,1.57,.09,2.21,.54,3.31,.16,5.25,.16,8.54Zm-7.03,2.59c1.01-4,1.16-8.2,.87-12.36-.14-1.92-.32-3.84-.44-5.75-.22-3.85-.38-7.7-.65-11.55-.15-2.02-.02-4.2-.79-5.98-1.68-3.9-1.5-7.92-1.52-11.96,0-3.39,.11-6.78-.06-10.16-.2-4.03-.79-8.05-.94-12.08-.1-2.68,.32-5.37,.39-8.07,.24-9.66,.44-19.32,.62-28.98,.08-3.87,.02-7.74,.12-11.61,.06-2.5,.44-5,.39-7.5-.09-3.86-.42-7.7-.65-11.55l.41-.03c-.25-4.03-.51-8.07-.78-12.11-.68-10.37-4.97-19.27-11.23-27.34-1.77-2.29-4.06-3.73-6.99-4.29-2.25-.43-4.43-1.24-6.64-1.92-.92-.29-1.81-.65-2.71-1.02-3.7-1.5-7.52-2.2-11.52-1.75-4.3,.5-8.7,.53-12.89,1.5-10.75,2.49-20.03,7.77-28.05,15.4-4.54,4.31-9.38,8.33-14.18,12.38-3.04,2.54-6.31,4.68-10.4,5.36-4.18,.68-7.5,2.99-9.99,6.36-2.11,2.86-4.08,5.84-5.99,8.84-1.51,2.38-2.88,4.82-5.45,6.24-2.92,1.63-5.62,1.08-7.07-1.93-1.15-2.39-2.21-5.04-2.35-7.63-.24-4.7,.2-9.43,.42-14.16,.15-3.37,.48-6.73,.56-10.1,.04-1.52-.41-3.05-.49-4.58-.18-3.28-1.19-6.3-3.25-8.79-2.9-3.51-6.22-6.69-10.18-8.98-3.19-1.84-6.47-1.66-8.66,1.1-1.3,1.65-2.6,3.37-3.47,5.26-2.08,4.49-2.73,9.39-3.51,14.22-.76,4.64-1.32,9.33-1.89,14-.58,4.86-1.39,9.73-1.55,14.61-.32,10.23-.33,20.47,.99,30.66,.57,4.39,.8,8.82,1.37,13.2,1.23,9.33,2.86,18.62,3.79,27.97,.74,7.5-.03,15.02-1.23,22.48-.95,5.97-2.04,11.95-2.53,17.96-.55,6.72-.65,13.5-.59,20.24,.02,3.03,.76,6.09,1.41,9.07,.83,3.78,3.94,5.82,6.72,8.05,.53,.43,1.45,.42,2.2,.52,4.01,.51,8.03,.88,12.02,1.49,3.8,.58,7.46,.25,11.16-.71,1.89-.49,3.25-1.5,3.81-3.18,1.23-3.73,2.49-7.49,3.17-11.33,.61-3.49,.48-7.11,.67-10.66,.39-7.22,.77-14.44,1.2-21.66,.13-2.01,.38-4.02,.63-6.03,.71-5.62,1.44-11.24,2.2-16.84,.72-5.42,1.27-10.86,2.86-16.14,2.36-7.82,6.89-13.47,14.91-15.95,3.96-1.23,7.6-3.06,9.92-6.59,2.01-3.06,3.6-6.38,5.41-9.56,1.18-2.08,2.34-4.19,3.66-6.18,2.03-3.04,4.35-5.88,6.26-9,2.28-3.71,5.28-6.38,9.44-7.63,2.29-.7,4.63-1.21,6.95-1.8,5.92-1.51,10.27,.95,13.94,5.36,3.01,3.6,4.01,7.81,4.05,12.36,.02,2.51-.16,5.04,.1,7.54,.62,6.21,1.54,12.39,2.16,18.61,.68,6.7,1.25,13.42,1.71,20.14,.58,8.32,0,16.6-1.21,24.82-.92,6.3-1.66,12.6-1.55,18.97,.08,4.73,.35,9.45,.47,14.18,.12,4.92,1.53,9.48,3.7,13.83,.55,1.08,1.41,2.1,2.35,2.88,1.64,1.34,3.48,2.43,5.18,3.7,1.23,.92,2.55,1.29,4.06,1.19,2.4-.17,4.91-.78,7.2-.33,3.48,.68,6.52-.21,9.52-1.47,6.07-2.54,10.74-6.65,12.39-13.22Z"/>
          <path class="cls-3" d="M532.23,212.2c.29,4.16,.15,8.35-.87,12.36-1.65,6.57-6.32,10.68-12.39,13.22-3,1.26-6.05,2.15-9.52,1.47-2.29-.45-4.79,.17-7.2,.33-1.51,.11-2.83-.26-4.06-1.19-1.7-1.27-3.54-2.36-5.18-3.7-.93-.78-1.8-1.8-2.35-2.88-2.17-4.34-3.58-8.91-3.7-13.83-.12-4.72-.39-9.44-.47-14.18-.11-6.37,.63-12.67,1.55-18.97,1.2-8.22,1.79-16.5,1.21-24.82-.47-6.72-1.03-13.44-1.71-20.14-.62-6.21-1.54-12.39-2.16-18.61-.25-2.49-.08-5.02-.1-7.54-.04-4.55-1.04-8.75-4.05-12.36-3.67-4.4-8.02-6.86-13.94-5.36-2.32,.59-4.66,1.1-6.95,1.8-4.17,1.26-7.17,3.92-9.44,7.63-1.91,3.12-4.24,5.96-6.26,9-1.32,2-2.48,4.1-3.66,6.18-1.81,3.18-3.41,6.5-5.41,9.56-2.32,3.53-5.96,5.36-9.92,6.59-8.01,2.48-12.55,8.13-14.91,15.95-1.6,5.29-2.14,10.72-2.86,16.14-.76,5.61-1.49,11.23-2.2,16.84-.25,2.01-.51,4.02-.63,6.03-.43,7.22-.81,14.44-1.2,21.66-.19,3.55-.06,7.18-.67,10.66-.68,3.85-1.95,7.6-3.17,11.33-.55,1.68-1.92,2.7-3.81,3.18-3.7,.96-7.36,1.29-11.16,.71-3.99-.61-8.01-.98-12.02-1.49-.75-.1-1.67-.09-2.2-.52-2.77-2.23-5.89-4.27-6.72-8.05-.65-2.99-1.39-6.05-1.41-9.07-.06-6.75,.05-13.52,.59-20.24,.49-6.02,1.58-12,2.53-17.96,1.2-7.46,1.97-14.98,1.23-22.48-.92-9.36-2.56-18.65-3.79-27.97-.57-4.38-.8-8.81-1.37-13.2-1.32-10.19-1.31-20.43-.99-30.66,.16-4.88,.96-9.75,1.55-14.61,.56-4.67,1.13-9.36,1.89-14,.78-4.83,1.42-9.73,3.51-14.22,.87-1.89,2.16-3.61,3.47-5.26,2.19-2.76,5.46-2.94,8.66-1.1,3.96,2.29,7.28,5.46,10.18,8.98,2.06,2.49,3.08,5.51,3.25,8.79,.08,1.53,.53,3.06,.49,4.58-.09,3.37-.42,6.73-.56,10.1-.21,4.72-.66,9.45-.42,14.16,.14,2.59,1.2,5.25,2.35,7.63,1.45,3.01,4.15,3.55,7.07,1.93,2.57-1.42,3.94-3.87,5.45-6.24,1.91-3,3.88-5.98,5.99-8.84,2.49-3.37,5.81-5.68,9.99-6.36,4.09-.68,7.36-2.82,10.4-5.36,4.8-4.04,9.64-8.06,14.18-12.38,8.02-7.63,17.3-12.91,28.05-15.4,4.19-.97,8.59-1,12.89-1.5,4-.45,7.82,.25,11.52,1.75,.9,.37,1.79,.73,2.71,1.02,2.21,.68,4.39,1.49,6.64,1.92,2.93,.56,5.22,2.01,6.99,4.29,6.26,8.07,10.54,16.97,11.23,27.34,.27,4.04,.53,8.08,.78,12.11l-.41,.03c.23,3.85,.56,7.69,.65,11.55,.05,2.49-.33,4.99-.39,7.5-.1,3.87-.04,7.74-.12,11.61-.18,9.66-.38,19.32-.62,28.98-.07,2.7-.49,5.39-.39,8.07,.16,4.03,.74,8.05,.94,12.08,.17,3.38,.05,6.77,.06,10.16,.02,4.04-.17,8.05,1.52,11.96,.77,1.78,.64,3.96,.79,5.98,.27,3.85,.43,7.7,.65,11.55,.12,1.92,.3,3.84,.44,5.75Z"/>
        </g>
        <path class="cls-3" d="M529.34,98.57c.05,2.49-.33,4.99-.39,7.49-.09,3.87-.04,7.74-.12,11.61-.18,9.66-.38,19.32-.62,28.98-.07,2.69-.49,5.39-.39,8.07,.16,4.03,.74,8.04,.94,12.08,.17,3.38,.05,6.77,.06,10.16,.02,4.04-.16,8.05,1.52,11.96,.77,1.78,.64,3.96,.79,5.97,.27,3.85,.43,7.7,.66,11.55,.11,1.92,.3,3.84,.43,5.76,.3,4.16,.15,8.35-.86,12.35-1.65,6.57-6.32,10.68-12.39,13.22-3,1.26-6.05,2.16-9.53,1.48-2.29-.45-4.79,.16-7.19,.33-1.51,.11-2.84-.27-4.07-1.19-1.7-1.27-3.54-2.36-5.17-3.7-.94-.78-1.81-1.8-2.35-2.88-2.18-4.34-3.59-8.91-3.7-13.82-.11-4.73-.38-9.45-.46-14.17-.11-6.37,.63-12.67,1.55-18.97,1.2-8.22,1.79-16.51,1.21-24.82-.47-6.72-1.03-13.43-1.71-20.13-.63-6.21-1.54-12.39-2.17-18.6-.25-2.49-.08-5.03-.1-7.55-.04-4.55-1.04-8.75-4.05-12.35-3.67-4.4-8.02-6.87-13.94-5.35-2.32,.59-4.67,1.1-6.96,1.79-4.16,1.26-7.17,3.93-9.44,7.64-1.91,3.11-4.23,5.96-6.26,9-1.33,1.99-2.48,4.1-3.67,6.18-1.81,3.18-3.4,6.5-5.41,9.55-2.32,3.54-5.96,5.37-9.93,6.6-8.01,2.48-12.54,8.13-14.9,15.95-1.59,5.29-2.14,10.72-2.87,16.14-.75,5.61-1.49,11.23-2.2,16.85-.25,2-.51,4.01-.63,6.03-.43,7.22-.81,14.44-1.2,21.66-.2,3.56-.06,7.18-.67,10.66-.68,3.85-1.94,7.61-3.17,11.34-.56,1.69-1.92,2.69-3.81,3.19-3.7,.96-7.36,1.29-11.15,.71-3.99-.61-8.02-.98-12.03-1.49-.75-.09-1.67-.09-2.2-.52-2.77-2.23-5.88-4.27-6.71-8.05-.66-2.99-1.39-6.04-1.42-9.08-.05-6.75,.05-13.53,.59-20.25,.49-6.02,1.58-11.99,2.54-17.96,1.2-7.46,1.97-14.98,1.23-22.48-.92-9.36-2.56-18.64-3.79-27.97-.58-4.39-.8-8.82-1.37-13.2-1.32-10.19-1.32-20.43-1-30.66,.15-4.88,.96-9.75,1.55-14.61,.57-4.67,1.13-9.35,1.88-14,.78-4.83,1.43-9.73,3.51-14.21,.87-1.89,2.17-3.62,3.47-5.26,2.18-2.75,5.46-2.94,8.65-1.1,3.97,2.29,7.28,5.46,10.18,8.97,2.06,2.49,3.08,5.51,3.25,8.8,.08,1.53,.53,3.06,.49,4.58-.09,3.37-.42,6.73-.57,10.1-.21,4.72-.66,9.45-.41,14.15,.13,2.59,1.19,5.25,2.35,7.64,1.45,3,4.14,3.55,7.07,1.93,2.57-1.43,3.94-3.87,5.45-6.25,1.91-3,3.88-5.98,5.99-8.84,2.49-3.37,5.81-5.68,9.98-6.36,4.09-.68,7.36-2.82,10.4-5.36,4.8-4.03,9.64-8.06,14.18-12.38,8.02-7.63,17.3-12.91,28.04-15.4,4.19-.97,8.59-1.01,12.89-1.5,4.01-.46,7.82,.25,11.53,1.75,.89,.36,1.79,.73,2.71,1.01,2.2,.68,4.39,1.49,6.64,1.93,2.92,.56,5.22,2,6.99,4.28,6.26,8.08,10.54,16.98,11.23,27.35,.27,4.04,.52,8.08,.78,12.12m-9.61,58.32c.76-1.57,1.58-2.61,1.77-3.76,.54-3.19,1.06-6.42,1.14-9.65,.08-3.73-.2-7.48-.56-11.2-.19-1.96-.51-4-2.09-5.52-2.22-2.15-5.84-1.41-6.64,1.55-.41,1.51-.44,3.21-.26,4.78,.36,3.22,.99,6.4,1.5,9.6,.66,4.17,1.74,8.21,3.5,12.05,.27,.58,.79,1.05,1.65,2.14Zm-2.29,73.56c0-.87,.07-1.74-.02-2.6-.12-1.23-.22-2.5-.59-3.67-.36-1.17-.89-2.36-1.62-3.34-1.55-2.08-5.79-2.8-7.07,1.16-.32,.99-.56,2.04-.57,3.07-.05,3.18-.12,6.37,.09,9.55,.14,2.17,.64,4.33,1.13,6.46,.35,1.54,1.52,2.04,3.06,2.02,1.72-.03,2.58-1.14,3.32-2.4,1.85-3.17,2.02-6.72,2.26-10.26Zm-47.86-163.97c.21-.05,.83-.06,1.31-.32,3.19-1.77,6.73-2.05,10.22-2.69,2.52-.46,5.01-1.31,7.36-2.35,1.08-.48,2.9-.91,2.76-2.57-.15-1.65-1.77-2.11-3.16-2.55-5.28-1.65-10.62-1.48-15.93-.25-2.97,.69-5.11,2.6-6.15,5.56-.92,2.61,.7,5.18,3.59,5.16Zm-93.24,23.12c.92-1.44,1.71-2.32,2.09-3.35,.63-1.69,1.12-3.45,1.45-5.22,.59-3.18,1.15-6.38,1.47-9.6,.2-2.02-1.12-3.57-2.72-3.8-1.67-.23-3.11,.75-3.68,2.9-.42,1.55-.31,3.24-.7,4.8-.92,3.66-.42,7.24,.42,10.79,.25,1.05,.94,1.99,1.66,3.47Zm76.53-11.97c-.52-.33-.81-.66-.99-.6-4.8,1.41-9.35,3.39-13.34,6.46-1.54,1.18-1.79,2.78-.9,4.03,.89,1.24,2.89,1.6,4.4,.53,4.08-2.89,7.98-5.99,10.83-10.42Zm-76.64,167.15c-.45-4.82-2.02-9.01-3.87-13.09-.23-.51-1.59-.91-2.25-.72-.79,.23-1.64,1.03-1.97,1.79-.31,.7-.21,1.79,.12,2.52,1.11,2.44,2.28,4.87,3.66,7.17,.79,1.31,2.08,2.26,4.31,2.33Zm3.86-12.21c-2.74-.01-4.11,1.87-2.95,4.22,1.05,2.13,2.47,4.08,3.8,6.05,.3,.44,.89,.81,1.41,.93,.78,.19,1.86,.46,2.37,.1,.51-.37,.83-1.59,.63-2.26-.75-2.55-1.76-5.02-2.65-7.52-.48-1.33-1.52-1.62-2.6-1.52Zm-11.12-143.03l.53-.04c.27-.78,.66-1.54,.78-2.35,.64-4.17,1.21-8.34,1.8-12.51,.2-1.42,.49-2.84,.54-4.27,.02-.51-.55-1.48-.87-1.48-.77-.02-1.82,.18-2.26,.71-.56,.68-.83,1.76-.89,2.68-.27,4.13-.52,8.26-.55,12.39-.01,1.62,.58,3.25,.9,4.87Zm152.95,146.56c1.35-.49,2.32-1.32,2.57-2.76,.42-2.34,.83-4.69,1.07-7.05,.17-1.62,.03-3.27,.05-4.9,.01-1.29-.48-2.38-1.77-2.62-1.39-.25-2.06,.78-2.33,2.01-.2,.93-.43,1.88-.42,2.81,.03,1.43,.3,2.84,.39,4.27,.17,2.69,.29,5.39,.44,8.22Zm-5.81-166.95c.26-1.6-.7-2.67-2.12-2.65-1.38,.02-2.96,1.62-2.76,3.16,.33,2.54,1.58,4.71,3.46,6.45,.56,.52,1.4,.04,1.41-.74,.02-2.07,0-4.15,0-6.22Zm-147.45,56.57c0-.29,0-.58,0-.87,0-1.19,0-2.43-1.59-2.59-1.53-.16-1.84,.98-2.19,2.15-.84,2.84,.28,5.46,.84,8.14,.06,.28,.56,.74,.69,.69,.38-.14,.88-.46,.96-.79"/>
        <path class="cls-3" d="M517.21,218.88c-.23,3.53-.4,7.09-2.26,10.26-.74,1.26-1.6,2.37-3.32,2.4-1.54,.03-2.71-.48-3.06-2.02-.49-2.13-.99-4.29-1.13-6.46-.2-3.17-.14-6.36-.09-9.55,.02-1.03,.25-2.09,.57-3.07,1.28-3.97,5.51-3.25,7.07-1.16,.73,.98,1.25,2.17,1.62,3.34,.36,1.17,.46,2.43,.59,3.67,.09,.86,.02,1.73,.02,2.6Z"/>
        <path class="cls-3" d="M376.11,78.03c-.73-1.49-1.41-2.43-1.66-3.47-.85-3.55-1.34-7.13-.42-10.79,.39-1.56,.28-3.25,.7-4.8,.58-2.15,2.01-3.13,3.68-2.9,1.61,.22,2.93,1.78,2.72,3.8-.32,3.22-.88,6.42-1.47,9.6-.33,1.77-.82,3.53-1.45,5.22-.38,1.03-1.17,1.9-2.09,3.35Z"/>
        <path class="cls-3" d="M452.64,66.06c-2.85,4.42-6.75,7.53-10.83,10.42-1.51,1.07-3.51,.71-4.4-.53-.89-1.25-.64-2.85,.9-4.03,3.99-3.06,8.54-5.05,13.34-6.46,.18-.05,.47,.28,.99,.6Z"/>
        <path class="cls-11" d="M376,233.21c-2.23-.07-3.52-1.02-4.31-2.33-1.38-2.29-2.56-4.72-3.66-7.17-.33-.73-.43-1.82-.12-2.52,.34-.76,1.19-1.56,1.97-1.79,.65-.19,2.01,.21,2.25,.72,1.86,4.08,3.42,8.27,3.87,13.09Z"/>
        <path class="cls-3" d="M379.86,220.99c1.09-.1,2.12,.18,2.6,1.52,.9,2.5,1.9,4.97,2.65,7.52,.2,.67-.12,1.89-.63,2.26-.51,.37-1.59,.09-2.37-.1-.52-.13-1.11-.49-1.41-.93-1.33-1.97-2.75-3.92-3.8-6.05-1.16-2.35,.2-4.23,2.95-4.22Z"/>
        <path class="cls-24" d="M368.74,77.96c-.32-1.62-.91-3.25-.9-4.87,.03-4.13,.28-8.27,.55-12.39,.06-.93,.32-2,.89-2.68,.43-.53,1.49-.73,2.26-.71,.32,0,.89,.97,.87,1.48-.05,1.43-.34,2.85-.54,4.27-.59,4.17-1.16,8.35-1.8,12.51-.12,.8-.52,1.56-.78,2.35l-.53,.04Z"/>
        <path class="cls-26" d="M521.69,224.52c-.15-2.83-.26-5.53-.44-8.22-.09-1.43-.36-2.85-.39-4.27-.02-.94,.22-1.89,.42-2.81,.27-1.24,.95-2.26,2.33-2.01,1.29,.23,1.78,1.32,1.77,2.62-.02,1.63,.12,3.28-.05,4.9-.24,2.36-.65,4.71-1.07,7.05-.26,1.43-1.22,2.27-2.57,2.76Z"/>
        <path class="cls-12" d="M515.87,57.57c0,2.07,.02,4.15,0,6.22,0,.78-.85,1.25-1.41,.74-1.88-1.74-3.14-3.91-3.46-6.45-.2-1.54,1.39-3.14,2.76-3.16,1.41-.02,2.38,1.05,2.12,2.65Z"/>
        <path class="cls-25" d="M367.13,120.86c-.08,.34-.58,.65-.96,.79-.13,.05-.63-.41-.69-.69-.56-2.68-1.68-5.3-.84-8.14,.35-1.17,.66-2.3,2.19-2.15,1.59,.16,1.59,1.4,1.59,2.59,0,.29,0,.58,0,.87"/>
      </g>
      <g>
        <g>
          <path class="cls-18" d="M1149.5,61.25c3.79,6,6.39,12.42,6.27,19.69-.07,4.52-1.13,8.82-3.46,12.66-2.19,3.61-3.6,7.42-4.28,11.54-1.36,8.23-6.31,14.01-13.37,17.73-5.34,2.81-10.46,5.84-15.3,9.42-4.13,3.03-8.52,5.72-12.55,8.87-7.61,5.97-16.39,9.25-25.53,11.87-6.45,1.84-13.03,2.24-19.63,1.62-5.38-.5-10.74-1.37-16.04-2.39-4.57-.88-8.76-2.83-12.77-5.25-4.54-2.75-9.25-5.21-13.91-7.82-.65,.41-.88,.61-1.14,.72-4.89,2.13-6.44,6.44-7,11.18-.55,4.57-2.33,8.28-6.14,10.96-1.04,.74-2.01,1.59-2.94,2.47-2.36,2.23-2.62,4.03-1,6.79,.54,.94,1.32,1.76,1.73,2.74,.7,1.7,1.44,3.45,1.7,5.25,.23,1.52,.8,2.6,1.98,3.42,.81,.56,1.65,1.1,2.55,1.49,7.73,3.4,15.41,6.95,23.25,10.06,3.25,1.29,6.83,1.95,10.32,2.33,5.96,.64,11.9,1.48,17.96,1.33,7.41-.19,14.68-.85,21.92-2.63,5.42-1.34,11.05-1.79,16.6-2.59,2.73-.39,5.47-.7,8.21-.99,6.83-.71,13.34,.59,19.52,3.48,3.35,1.57,5.05,4.56,6.12,7.95,2.02,6.36,1.11,12.65-.44,18.92-.78,3.16-2.38,5.82-4.89,7.91-6.19,5.15-12.78,9.39-20.96,10.83-6.58,1.16-13.06,2.86-19.6,4.23-2.01,.42-4.08,.65-6.14,.83-5.89,.53-11.77,1.25-17.67,1.4-7.18,.18-14.39,.01-21.56-.33-4.61-.21-9.23-.79-13.78-1.57-9.6-1.64-18.63-4.89-26.9-10.11-4.18-2.64-8.47-5.06-13.34-6.12-2.79-.6-5.61-1.07-8.43-1.42-2.72-.33-5.08-1.13-7.02-3.23-1.03-1.13-2.5-1.88-3.82-2.71-2.74-1.74-4.8-4.11-6.33-6.89-3.76-6.83-5.75-14.15-6.13-21.96-.35-7.28-.89-14.56-1.59-21.81-.97-9.98-.83-19.86,1.32-29.68,1.83-8.36,2.18-16.74,.46-25.2-1.63-8.04,.08-15.61,3.68-22.88,4.33-8.77,10.06-16.39,17.7-22.56,8.89-7.19,17.93-14.17,27.54-20.39,4.64-3,9.53-5.42,15.04-6.52,4.33-.86,8.07-3.2,11.46-5.87,8.3-6.52,17.77-8.44,27.85-6.77,5.26,.87,10.35,3.02,15.41,4.87,7.67,2.81,15.19,6,23.38,7.03,5.56,.71,11.11,1.61,16.7,2.04,7.65,.59,14.92,2.62,22.01,5.3,5.48,2.08,9.84,5.79,12.98,10.76Zm-2.15,29.21c1.77-4.01,3.07-8.24,2.24-12.58-.69-3.63-1.87-7.25-3.45-10.59-2.78-5.9-7.32-10-13.58-12.36-9.56-3.61-19.56-4.77-29.57-6.13-5.61-.77-11.28-1.68-16.68-3.32-8.24-2.52-16.29-5.69-24.39-8.64-5.56-2.02-11.19-1.78-16.85-.73-4.13,.77-7.71,2.78-11.14,5.14-4.53,3.12-9.11,6.22-14.62,7.38-4.22,.9-7.93,2.88-11.51,5.13-8.58,5.41-16.53,11.69-24.58,17.85-8.87,6.78-15.8,14.98-20.25,25.27-2.27,5.22-3.57,10.61-3.12,16.31,.3,3.81,.62,7.64,1.3,11.4,.71,3.89-.01,7.63-.53,11.4-.77,5.53-2.2,11.01-2.44,16.56-.31,6.86,.18,13.77,.58,20.64,.35,6.07,1.19,12.11,1.56,18.18,.32,5.23,1.23,10.3,2.99,15.23,1.85,5.2,4.34,9.88,9.34,12.8,1.08,.63,2.01,1.55,2.99,2.37,1.4,1.16,2.89,1.77,4.81,1.8,2.83,.05,5.68,.4,8.47,.88,5.13,.89,9.57,3.46,13.91,6.19,5.11,3.21,10.52,5.65,16.37,7.21,5.12,1.36,10.26,2.54,15.57,2.92,6.96,.49,13.9,1.41,20.85,1.48,6.67,.07,13.35-.62,20.01-1.17,4.09-.33,8.18-.91,12.23-1.59,4.73-.79,9.42-1.78,14.11-2.75,2.87-.59,5.78-1.11,8.57-2,5.05-1.6,9.18-4.85,13.23-8.14,1.82-1.48,2.97-3.51,3.44-5.73,1.17-5.52,1.25-11.07-.1-16.6-.62-2.56-2.04-4.41-4.55-5.38-4.15-1.6-8.38-2.9-12.88-2.61-3.81,.25-7.63,.63-11.4,1.19-5.14,.75-10.32,1.39-15.33,2.67-7.19,1.85-14.4,3.08-21.83,2.75-1.86,0-3.73,.13-5.58-.02-4-.33-7.99-.97-12-1.18-5.67-.31-11.07-1.66-16.22-3.92-6.02-2.64-11.92-5.57-17.87-8.39-1.77-.84-3.58-1.65-5.27-2.64-2.37-1.38-4.33-3.32-4.59-6.15-.21-2.2-1.13-3.91-2.26-5.65-.7-1.07-1.37-2.18-1.89-3.34-1.39-3.09-.85-5.97,1.29-8.51,1.2-1.42,2.51-2.76,3.93-3.96,2.61-2.22,4.06-4.82,4.24-8.38,.17-3.6,.9-7.2,2.66-10.47,2.53-4.69,7.24-6.52,12.13-4.74,.45,.17,.95,.23,1.42,.34,3.83,.92,7.54,2.09,10.88,4.3,4.35,2.87,8.85,5.5,14.05,6.54,3.17,.63,6.34,1.42,9.55,1.62,5.78,.37,11.68,1.07,17.37,.34,8.76-1.13,17.34-3.67,24.96-8.31,6.29-3.82,12.22-8.26,18.19-12.59,4.62-3.34,9.17-6.66,14.45-9.04,6.51-2.93,10.7-8.09,12.16-15.31,.58-2.87,1.51-5.67,2.47-8.44,.54-1.57,1.49-3,2.16-4.53Z"/>
          <path class="cls-3" d="M1149.59,77.88c.83,4.34-.47,8.57-2.24,12.58-.67,1.53-1.62,2.96-2.16,4.53-.96,2.77-1.89,5.57-2.47,8.44-1.46,7.22-5.65,12.38-12.16,15.31-5.28,2.38-9.83,5.7-14.45,9.04-5.97,4.33-11.9,8.77-18.19,12.59-7.62,4.64-16.2,7.18-24.96,8.31-5.69,.73-11.59,.03-17.37-.34-3.21-.2-6.38-.99-9.55-1.62-5.2-1.04-9.7-3.67-14.05-6.54-3.34-2.21-7.05-3.38-10.88-4.3-.47-.11-.97-.17-1.42-.34-4.89-1.78-9.6,.05-12.13,4.74-1.76,3.27-2.49,6.87-2.66,10.47-.18,3.56-1.63,6.16-4.24,8.38-1.42,1.2-2.73,2.54-3.93,3.96-2.14,2.54-2.68,5.42-1.29,8.51,.52,1.16,1.19,2.27,1.89,3.34,1.13,1.74,2.05,3.45,2.26,5.65,.26,2.83,2.22,4.77,4.59,6.15,1.69,.99,3.5,1.8,5.27,2.64,5.95,2.82,11.85,5.75,17.87,8.39,5.15,2.26,10.55,3.61,16.22,3.92,4.01,.21,8,.85,12,1.18,1.85,.15,3.72,.02,5.58,.02,7.43,.33,14.64-.9,21.83-2.75,5.01-1.28,10.19-1.92,15.33-2.67,3.77-.56,7.59-.94,11.4-1.19,4.5-.29,8.73,1.01,12.88,2.61,2.51,.97,3.93,2.82,4.55,5.38,1.35,5.53,1.27,11.08,.1,16.6-.47,2.22-1.62,4.25-3.44,5.73-4.05,3.29-8.18,6.54-13.23,8.14-2.79,.89-5.7,1.41-8.57,2-4.69,.97-9.38,1.96-14.11,2.75-4.05,.68-8.14,1.26-12.23,1.59-6.66,.55-13.34,1.24-20.01,1.17-6.95-.07-13.89-.99-20.85-1.48-5.31-.38-10.45-1.56-15.57-2.92-5.85-1.56-11.26-4-16.37-7.21-4.34-2.73-8.78-5.3-13.91-6.19-2.79-.48-5.64-.83-8.47-.88-1.92-.03-3.41-.64-4.81-1.8-.98-.82-1.91-1.74-2.99-2.37-5-2.92-7.49-7.6-9.34-12.8-1.76-4.93-2.67-10-2.99-15.23-.37-6.07-1.21-12.11-1.56-18.18-.4-6.87-.89-13.78-.58-20.64,.24-5.55,1.67-11.03,2.44-16.56,.52-3.77,1.24-7.51,.53-11.4-.68-3.76-1-7.59-1.3-11.4-.45-5.7,.85-11.09,3.12-16.31,4.45-10.29,11.38-18.49,20.25-25.27,8.05-6.16,16-12.44,24.58-17.85,3.58-2.25,7.29-4.23,11.51-5.13,5.51-1.16,10.09-4.26,14.62-7.38,3.43-2.36,7.01-4.37,11.14-5.14,5.66-1.05,11.29-1.29,16.85,.73,8.1,2.95,16.15,6.12,24.39,8.64,5.4,1.64,11.07,2.55,16.68,3.32,10.01,1.36,20.01,2.52,29.57,6.13,6.26,2.36,10.8,6.46,13.58,12.36,1.58,3.34,2.76,6.96,3.45,10.59Zm-55.52,28.98c5.6,.66,12.17-3.9,10.48-11.15-1.62-6.94-10.54-14.44-17.71-13.57-1.01,.12-1.94,.37-2.78,.73-1.06-.5-2.22-.8-3.41-.91-.54-1.34-1.43-2.65-2.73-3.84-5.01-4.63-14.08-6.12-20.58-6.9-7.44-.89-15.5-.15-21.86,4.13-6.32,4.26-10.96,12.52-13.04,19.74-5.51,19.1,13.92,32.86,31.5,30.58,5.07-.66,9.57-2.47,14.39-4,4.09-1.29,8.32-1.93,12.12-4.04,3.03-1.67,5.34-4.06,6.81-6.97,2.72-.05,5.3-1.25,6.81-3.8Z"/>
        </g>
        <path class="cls-3" d="M1061.12,202.89c7.44,.33,14.64-.91,21.83-2.75,5.01-1.28,10.19-1.93,15.33-2.68,3.78-.55,7.59-.94,11.4-1.19,4.5-.29,8.73,1.01,12.88,2.61,2.51,.97,3.94,2.82,4.56,5.37,1.34,5.53,1.26,11.09,.1,16.6-.47,2.22-1.62,4.25-3.44,5.73-4.05,3.29-8.17,6.54-13.23,8.15-2.79,.89-5.69,1.4-8.57,1.99-4.69,.97-9.38,1.96-14.11,2.76-4.05,.68-8.14,1.25-12.24,1.59-6.66,.55-13.34,1.24-20,1.17-6.95-.07-13.9-.99-20.85-1.48-5.31-.38-10.45-1.56-15.58-2.92-5.84-1.56-11.26-4-16.37-7.21-4.33-2.72-8.77-5.3-13.91-6.18-2.79-.48-5.64-.83-8.47-.88-1.92-.03-3.41-.64-4.81-1.81-.98-.82-1.91-1.73-2.99-2.37-4.99-2.92-7.48-7.6-9.33-12.8-1.76-4.93-2.67-10-2.99-15.23-.37-6.07-1.21-12.11-1.57-18.18-.4-6.87-.88-13.78-.58-20.64,.24-5.54,1.68-11.03,2.44-16.55,.52-3.77,1.24-7.52,.53-11.41-.68-3.75-1-7.58-1.3-11.39-.45-5.7,.85-11.09,3.11-16.32,4.45-10.28,11.38-18.48,20.25-25.26,8.05-6.16,16-12.44,24.59-17.85,3.58-2.25,7.29-4.24,11.5-5.13,5.51-1.17,10.09-4.26,14.62-7.38,3.43-2.36,7.01-4.37,11.14-5.14,5.66-1.05,11.29-1.29,16.85,.73,8.11,2.95,16.15,6.12,24.39,8.64,5.4,1.65,11.07,2.56,16.68,3.32,10.01,1.36,20.01,2.52,29.57,6.13,6.26,2.36,10.8,6.47,13.58,12.36,1.57,3.34,2.76,6.96,3.45,10.58,.83,4.35-.47,8.57-2.24,12.59-.68,1.53-1.63,2.95-2.17,4.53-.95,2.77-1.89,5.58-2.47,8.44-1.46,7.22-5.65,12.38-12.16,15.31-5.28,2.38-9.83,5.69-14.45,9.04-5.97,4.32-11.9,8.77-18.19,12.59-7.62,4.63-16.2,7.18-24.96,8.3-5.69,.73-11.59,.03-17.37-.33-3.2-.2-6.38-.99-9.55-1.62-5.2-1.04-9.7-3.67-14.05-6.54-3.34-2.21-7.06-3.37-10.89-4.3-.47-.11-.96-.17-1.42-.34-4.89-1.78-9.6,.04-12.13,4.74-1.76,3.26-2.49,6.86-2.66,10.47-.17,3.56-1.62,6.16-4.24,8.37-1.41,1.2-2.73,2.54-3.93,3.96-2.14,2.54-2.68,5.43-1.29,8.52,.52,1.16,1.19,2.26,1.89,3.33,1.13,1.74,2.05,3.46,2.26,5.65,.27,2.83,2.22,4.77,4.59,6.15,1.69,.99,3.5,1.79,5.28,2.64,5.95,2.82,11.85,5.75,17.87,8.39,5.14,2.26,10.55,3.61,16.22,3.91,4.01,.22,8,.85,12,1.18,1.85,.15,3.71,.03,5.57,.03Zm-23.2-149.16c1.08,2.09,2.66,2.86,5.33,2.12,4.68-1.3,9.33-2.73,13.93-4.27,1.6-.54,3.03-1.57,5.19-2.72-1.5-.84-2.3-1.54-3.23-1.77-4.52-1.13-9.03-.97-13.49,.44-.47-.08-.94-.16-1.41-.23-2.64-.43-5.28-.65-7.84,.36-1.87,.74-2.66,2.57-1.92,4.32,.65,1.54,2.04,1.67,3.44,1.75Zm-36.05,13.97c-.35,.18-.67,.47-1.04,.54-3.61,.68-6.47,2.66-9.04,5.15-.63,.61-1.28,1.25-1.71,2-.77,1.34-.57,2.96,.32,3.79,.9,.85,2.82,.77,4.06-.21,.68-.54,1.32-1.15,1.97-1.73,1.92,3.08,4.18,3.96,7.06,2.09,3.01-1.95,5.73-4.38,8.46-6.73,.7-.6,1.08-1.63,1.44-2.53,.78-1.95,.3-3.22-1.59-4.08-.77-.35-1.68-.5-2.53-.56-2.74-.2-5.05,1.1-7.39,2.26Zm50.15,5.07c-2.4,.44-4.84,.72-7.18,1.36-7.89,2.14-13.8,7.08-18.12,13.8-4.14,6.46-6.98,13.42-5.32,21.41,.13,.63-.05,1.32-.05,1.98-.01,3.41,.42,6.84,3,9.23,1.83,1.69,4.16,3.18,6.52,3.89,4.58,1.37,9.33,2.2,14.04,3.12,5.18,1.01,10.4,.44,15.59,0,4.53-.38,9.07-1.12,12.83-3.84,4.29-3.11,8.44-6.45,12.4-9.97,3.29-2.92,6.9-5.18,10.94-6.85,1.99-.82,3.96-1.74,5.87-2.75,1.53-.81,2.77-2.1,2.86-3.87,.1-2.14,0-4.33-.35-6.45-.94-5.76-5.01-8.87-9.9-11.19-2.51-1.2-5.16-1.86-7.97-1.71-3.24,.18-6.47,.51-9.71,.48-1.61-.01-3.31-.46-4.81-1.1-2.71-1.16-5.33-2.53-7.92-3.95-3.96-2.17-8.14-3.35-12.73-3.59Zm59.91,133.7c-.05-1.82-1.27-2.37-2.44-2.8-1.17-.43-2.44-.81-3.67-.87-5.99-.26-11.9,.24-17.59,2.29-.8,.29-1.52,.82-2.21,1.33-1.24,.92-1.77,2.24-1.14,3.63,.63,1.38,1.76,2.43,3.49,2.19,2.5-.35,5.01-.67,7.47-1.2,5.4-1.18,10.9-2.03,16.1-4.56Zm26.48-131.15c-.25-1.54-.31-2.63-.61-3.64-.7-2.35-3.42-4.23-5.31-3.79-2.4,.56-4.5,3.37-3.87,5.76,.72,2.71,1.69,5.4,2.95,7.9,1.26,2.5,4.39,2.38,5.48-.24,.84-2.01,1-4.31,1.36-6Zm-165.37,28.86c-2.3,.14-3.08,.6-4.33,2.59-2.33,3.71-3.45,7.88-4.14,12.12-.24,1.46,.04,3.18,.63,4.54,.81,1.9,3.13,1.74,4.08-.14,.3-.6,.49-1.28,.62-1.94,.61-2.96,1.21-5.93,1.75-8.91,.5-2.73,.92-5.48,1.39-8.27Zm72.85,105.73c-.48-.92-.7-1.89-1.3-2.39-2.62-2.18-5.65-3.51-9.1-3.56-2.34-.03-3.81,1.29-4.11,3.38-.35,2.42,.83,4.28,3.2,4.87,4.02,.99,7.63-.07,11.31-2.3Zm-68.78,4.06l.53-.35c-.16-.93-.22-1.89-.51-2.78-.7-2.13-1.45-4.24-2.3-6.31-.85-2.08-1.79-4.12-2.78-6.14-.63-1.29-1.75-1.88-3.17-1.49-1.39,.39-2.14,1.43-1.99,2.87,.12,1.14,.24,2.43,.84,3.33,1.78,2.67,3.71,5.26,5.76,7.73,1.01,1.21,2.41,2.1,3.63,3.14Zm156.5-114.76c-2.51,2.78-4.71,5.01-6.64,7.45-.97,1.21-.81,2.76,.18,4.09,.76,1.03,1.72,1.67,3.01,1.41,1.6-.32,2.11-1.68,2.43-3.03,.63-2.66,1.18-5.34,1.69-8.02,.07-.38-.27-.83-.66-1.9Zm-21.34,118.36c2.15,.09,4.34-1.26,4.36-2.68,.02-1.81-2.29-3.77-4.55-3.85-1.96-.07-3.67,1.3-3.7,2.96-.04,1.95,1.63,3.48,3.89,3.57Zm-116.28-.35c-.21-.41-.32-.68-.48-.91-1.49-2.05-2.96-4.11-4.5-6.12-.73-.96-1.64-1.77-2.98-1.04-1.13,.62-1.5,1.89-1.04,3.3,.06,.19,.07,.4,.17,.56,1.86,2.73,4.59,4.15,7.71,4.9,.29,.07,.72-.43,1.12-.68Zm-20.68-100.79s-.19-.14-.36-.11c-.28,.05-.64,.13-.78,.33-1.75,2.56-2.86,5.34-2.43,8.5,.23,1.71,1.42,2.97,2.46,2.89,1.22-.1,1.71-1.06,1.64-3.25-.02-.59-.07-1.17-.1-1.76-.13-2.09-.27-4.19-.42-6.6Z"/>
        <path class="cls-18" d="M1052.02,72.77c4.58,.24,8.77,1.42,12.73,3.59,2.58,1.42,5.21,2.79,7.92,3.95,1.49,.64,3.19,1.08,4.81,1.1,3.23,.03,6.47-.31,9.71-.48,2.81-.15,5.46,.51,7.97,1.71,4.88,2.32,8.96,5.43,9.9,11.19,.35,2.12,.46,4.31,.35,6.45-.09,1.77-1.33,3.06-2.86,3.87-1.91,1.01-3.87,1.92-5.87,2.75-4.04,1.67-7.64,3.93-10.94,6.85-3.96,3.52-8.11,6.87-12.4,9.97-3.76,2.72-8.3,3.46-12.83,3.84-5.19,.44-10.41,1.02-15.59,0-4.71-.92-9.46-1.75-14.04-3.12-2.37-.71-4.69-2.2-6.52-3.89-2.58-2.39-3.01-5.82-3-9.23,0-.66,.18-1.35,.05-1.98-1.66-7.99,1.17-14.95,5.32-21.41,4.31-6.72,10.23-11.66,18.12-13.8,2.34-.64,4.79-.92,7.18-1.36Zm.27,49.72c1.97-.09,3.94-.13,5.91-.28,5.8-.43,11.26-1.82,15.83-5.7,2.1-1.79,4.28-3.49,6.38-5.27,4.45-3.78,9.14-7.16,14.68-9.22,1.47-.55,2.9-1.23,4.34-1.86,1.1-.48,1.79-1.3,1.64-2.53-.5-3.91-1.56-7.44-5.36-9.63-3.08-1.77-6.17-3-9.78-2.44-1.17,.18-2.35,.23-3.52,.38-4.61,.58-9.02,.02-13.2-2.12-2.27-1.17-4.56-2.31-6.85-3.45-7.26-3.6-14.46-3.31-21.47,.6-7.94,4.43-12.61,11.39-14.75,20.09-.48,1.97-.66,4.12-.45,6.13,.27,2.62,1.02,5.19,1.68,7.75,.14,.56,.72,1.13,1.24,1.44,7.28,4.39,15.23,6.23,23.69,6.1Z"/>
        <path class="cls-3" d="M1111.93,206.47c-5.21,2.53-10.71,3.38-16.1,4.56-2.46,.54-4.97,.85-7.47,1.2-1.73,.24-2.86-.81-3.49-2.19-.63-1.39-.09-2.71,1.14-3.63,.69-.51,1.42-1.05,2.21-1.33,5.69-2.05,11.6-2.55,17.59-2.29,1.24,.05,2.5,.43,3.67,.87,1.17,.43,2.39,.98,2.44,2.8Z"/>
        <path class="cls-3" d="M1001.87,67.7c2.34-1.16,4.65-2.46,7.39-2.26,.86,.06,1.76,.21,2.53,.56,1.9,.86,2.38,2.13,1.59,4.08-.36,.9-.74,1.93-1.44,2.53-2.74,2.35-5.45,4.77-8.46,6.73-2.88,1.87-5.15,.99-7.06-2.09,1.68-1.76,3.39-3.49,5.03-5.28,1.01-1.1,2.19-2.16,2.21-4.04l-1.8-.21Z"/>
        <path class="cls-3" d="M1045.65,47.53c4.46-1.41,8.97-1.57,13.49-.44,.93,.23,1.73,.93,3.23,1.77-2.16,1.15-3.59,2.18-5.19,2.72-4.6,1.54-9.25,2.97-13.93,4.27-2.67,.74-4.25-.03-5.33-2.12,2.67-.84,5.38-1.6,8-2.57,1-.37,2.55-1.23,2.57-1.89,.04-1.55-1.76-1.31-2.84-1.73Z"/>
        <path class="cls-10" d="M973.04,104.18c-.46,2.79-.89,5.54-1.39,8.27-.54,2.98-1.14,5.94-1.75,8.91-.14,.66-.32,1.34-.62,1.94-.95,1.88-3.27,2.04-4.08,.14-.59-1.37-.86-3.09-.63-4.54,.7-4.25,1.82-8.41,4.14-12.12,1.24-1.98,2.03-2.45,4.33-2.59Z"/>
        <path class="cls-26" d="M977.11,213.97c-1.22-1.04-2.62-1.92-3.63-3.14-2.05-2.47-3.98-5.06-5.76-7.73-.6-.9-.72-2.2-.84-3.33-.15-1.43,.6-2.48,1.99-2.87,1.42-.4,2.54,.2,3.17,1.49,.99,2.02,1.93,4.06,2.78,6.14,.85,2.07,1.6,4.19,2.3,6.31,.29,.89,.35,1.85,.51,2.78l-.53,.35Z"/>
        <path class="cls-31" d="M1001.87,67.7l1.8,.21c-.02,1.88-1.2,2.94-2.21,4.04-1.64,1.79-3.35,3.52-5.03,5.28-.66,.58-1.29,1.19-1.97,1.73-1.24,.98-3.15,1.06-4.06,.21-.88-.83-1.09-2.45-.32-3.79,.43-.75,1.08-1.39,1.71-2,2.57-2.49,5.43-4.47,9.04-5.15,.37-.07,.69-.35,1.04-.54Z"/>
        <path class="cls-20" d="M1045.65,47.53c1.09,.42,2.88,.18,2.84,1.73-.02,.67-1.57,1.52-2.57,1.89-2.62,.97-5.33,1.73-8,2.57-1.4-.08-2.79-.21-3.44-1.75-.73-1.74,.05-3.58,1.92-4.32,2.56-1.01,5.2-.79,7.84-.36,.47,.08,.94,.16,1.41,.23Z"/>
        <path class="cls-31" d="M1133.61,99.21c.39,1.07,1.19,2.05,.86,2.12-.51,2.68-1.25,5.15-1.88,7.81-.32,1.35-.83,2.71-2.43,3.03-1.29,.26-2.25-.39-3.01-1.41-.99-1.34-1.15-2.88-.18-4.09,1.94-2.44,4.14-4.67,6.64-7.45Z"/>
        <path class="cls-3" d="M1112.26,217.57c-2.27-.1-3.93-1.63-3.89-3.57,.03-1.67,1.74-3.03,3.7-2.96,2.25,.08,4.57,2.05,4.55,3.85-.02,1.43-2.21,2.78-4.36,2.68Z"/>
        <path class="cls-31" d="M995.98,217.21c-.4,.26-.83,.75-1.12,.68-3.11-.75-5.84-2.17-7.71-4.9-.1-.15-.11-.37-.17-.56-.46-1.41-.09-2.68,1.04-3.3,1.34-.73,2.25,.08,2.98,1.04,1.53,2.01,3.01,4.07,4.5,6.12,.16,.23,.27,.5,.48,.91Z"/>
        <path class="cls-19" d="M975.3,116.42c.16,2.41,.29,4.51,.42,6.6,.04,.59,.09,1.17,.1,1.76,.07,2.19-.42,3.15-1.64,3.25-1.03,.09-2.23-1.18-2.46-2.89-.42-3.16,.68-5.94,2.43-8.5,.14-.2,.5-.28,.78-.33,.16-.03,.36,.11,.36,.11Z"/>
      </g>
      <g>
        <g>
          <path class="cls-18" d="M1327.98,178c.09,7.18,.31,14.37,.27,21.55-.03,5.53-.3,11.06-.63,16.57-.23,3.92-1.98,7.25-4.56,10.17-2.61,2.94-5.6,5.39-9.14,7.1-6,2.92-12.05,5.74-18.08,8.59-4.98,2.34-10.16,3.75-15.73,3.5-5.16-.24-10.25,.44-15.38,1.05-12.01,1.41-23.97,1.28-35.85-1.66-3.39-.84-7.21-.83-10.69-.27-9.01,1.45-17.55,.19-25.93-3.16-5.13-2.04-10.3-3.96-15.53-5.72-10.45-3.51-16.66-10.88-19.83-21.17-2.04-6.65-1.63-13.25,.62-19.72,2.09-6.02,6.48-10.03,12.04-12.84,6.87-3.47,14.1-4.78,21.75-3.49,2.96,.5,5.98,.77,8.88,1.49,6.74,1.68,11.38,5.98,14.45,12.11,1,2,2.03,3.97,3.08,5.94,3.23,6.1,8.79,8.12,15.19,8.53,2.8,.18,5.63,.04,8.45,.03,4.46-.02,8.63,1.07,12.51,3.27,1.85,1.06,3.69,2.14,5.56,3.15,3.02,1.63,6.19,2.09,9.58,1.4,5.91-1.21,11.4-3.1,15.23-8.21,2.13-2.85,3.66-5.88,4.17-9.46,.48-3.36,1.49-6.51,3.23-9.55,1.9-3.34,3.7-6.95,4.48-10.67,1.09-5.2-.2-10.3-3.79-14.41-1.73-1.99-4.4-2.33-6.98-2.37-3.11-.04-6.22-.02-9.32-.04-3.61-.03-6.73-1.25-8.9-4.17-2.14-2.88-4.97-3.76-8.38-3.75-10.15,.02-20.11,1.2-29.88,4.06-12.52,3.66-24.91,3.16-37.07-1.6-5.92-2.32-11.29-5.65-15.78-10.18-5.67-5.71-7.65-13.11-8.81-20.78-2.02-13.33-.07-26.3,3.75-39.08,1.72-5.74,3.44-11.49,5.13-17.24,.22-.74,.44-1.54,.37-2.28-.97-9.13,2.91-16.15,9.47-22.04,8.58-7.7,18.45-11.18,29.99-9.2,3.45,.6,6.89,1.19,10.32,1.85,5.76,1.1,11.46,.14,17.06-.87,5.51-.99,10.89-2.68,16.32-4.07,3.37-.87,6.74-1.75,10.12-2.62,2.74,0,5.49,0,8.24,0,8.51,.55,16.55,2.84,24.36,6.26,6.23,2.73,11.24,6.9,15.46,12.05,6.08,7.42,9.48,15.95,9.89,25.6,.14,3.29,.52,6.6,.35,9.87-.31,5.93-3.03,10.99-6.63,15.54-2.76,3.49-8.45,4.55-12.49,2.61-3.15-1.52-5.6-3.83-7.43-6.78-1.02-1.65-2.13-3.29-2.81-5.08-1.77-4.65-5.51-7.47-9.39-9.94-3.75-2.38-8.16-3-12.63-2.55-3.18,.32-6.4,.56-9.54,1.15-4.48,.84-8.68,.13-12.77-1.66-3.94-1.73-7.96-2.87-12.36-2.89-10.99-.05-21.43,5.39-25.34,16.73-2.73,7.92-3.43,15.84-1.73,24.02,.73,3.52,2.53,6.4,5.05,8.96,6.81,.06,13.46-.83,19.77-3.79,6.84-3.2,13.82-6.1,20.63-9.37,5.45-2.63,11.09-2.51,16.81-1.79,11.33,1.43,21.63,5.94,30.74,12.43,13.72,9.78,21.29,23.01,19.94,40.56-.46,6.07,.04,12.21,.12,18.32Zm-4.16,29.78c.22-5.63,.22-11.27,.17-16.9-.04-3.68-.37-7.36-.51-11.04-.2-5.04-.37-10.07-.48-15.11-.11-4.74,.33-9.54-.31-14.2-1.53-11.19-7.44-20.02-16.64-26.27-6.15-4.17-12.79-7.72-20-9.95-9.41-2.91-18.55-4.1-27.85,1.1-6.65,3.72-13.93,6.33-20.97,9.34-4.24,1.82-8.7,2.81-13.34,2.21-1.68-.21-3.63-.54-4.87-1.54-3.4-2.76-6.31-6.02-7.52-10.43-2.2-7.98-1.68-15.94,.35-23.84,1.34-5.2,3.26-10.17,6.84-14.3,7.62-8.77,17.66-10.75,28.55-9.63,3.31,.34,6.47,1.92,9.73,2.83,2.03,.56,4.14,1.37,6.18,1.28,4.05-.18,8.08-.95,12.12-1.38,10.05-1.07,18.68,1.18,24.16,10.56,1.51,2.59,2.98,5.22,4.36,7.88,1.47,2.82,3.4,5.2,6.04,6.96,2.45,1.62,5.69,1.34,7.66-.87,2.67-3,4.67-6.41,5.41-10.45,.93-5.06-.13-10.02-.61-15.03-.86-8.98-5.18-16.13-10.96-22.63-2.8-3.15-6.14-5.6-9.95-7.47-7.13-3.51-14.65-5.44-22.51-6.46-5.36-.7-10.42-.1-15.45,1.68-2.28,.8-4.62,1.45-6.93,2.18-8.29,2.61-16.78,4.25-25.48,3.82-5-.24-10.01-1.14-14.93-2.14-4.87-.98-9.71-.83-14.44,.14-7.01,1.44-12.61,5.5-17.04,10.98-4.05,5.01-6.07,10.72-4.75,17.31,.2,1.01,.09,2.15-.15,3.17-.92,3.95-1.88,7.9-2.95,11.82-2.92,10.69-5.41,21.44-5.74,32.63,.31,3.47,.47,6.97,.97,10.41,1.01,7.07,3.32,13.55,9.06,18.33,8.91,7.44,19.27,10.93,30.76,11.43,5.52,.25,10.73-1.22,16-2.55,6-1.51,12.06-2.85,18.16-3.86,4.19-.69,8.5-.74,12.75-.98,4.88-.28,9.26,.75,12.44,4.88,1.06,1.38,2.54,2.06,4.31,2.11,3.87,.12,7.75,.19,11.63,.42,4.14,.25,8.03,1.68,10.3,5.18,4.71,7.28,6.38,15,2.5,23.41-2.47,5.34-4.56,10.83-5.15,16.85-.39,4.1-2.39,7.75-5.51,10.65-5.3,4.9-11.59,7.72-18.68,8.72-2.37,.33-4.82,.4-7.21,.26-3.83-.22-6.93-2.38-10.06-4.32-4.35-2.69-9-3.97-14.12-3.66-2.13,.13-4.28,.17-6.41,.04-8.33-.47-15.29-3.41-19.48-11.15-.97-1.79-1.92-3.6-3.02-5.31-1.16-1.78-2.38-3.55-3.79-5.13-3.09-3.46-7.36-4.46-11.68-5.35-8.15-1.67-16.01-1.13-23.51,2.75-4.08,2.12-7.45,4.97-9.21,9.33-5.7,14.16,2.26,28.92,13.85,33.52,8.01,3.19,16.17,6.02,24.27,8.97,4.85,1.77,9.8,1.87,14.91,1.19,4.98-.67,10.05-1.3,15.03,.1,4.99,1.41,10.06,2.04,15.23,1.96,4.95-.08,9.92,.16,14.85-.22,7.23-.55,14.4-2.26,21.72-1,.46,.08,.97-.01,1.44-.07,4.17-.53,8.16-1.71,11.94-3.52,5.59-2.67,11.2-5.32,16.7-8.18,5.03-2.61,9.44-5.99,10.68-11.95,.65-3.12,1.02-6.33,1.14-9.51Z"/>
          <path class="cls-3" d="M1323.99,190.88c.05,5.63,.05,11.27-.17,16.9-.12,3.18-.49,6.39-1.14,9.51-1.24,5.96-5.65,9.34-10.68,11.95-5.5,2.86-11.11,5.51-16.7,8.18-3.78,1.81-7.77,2.99-11.94,3.52-.47,.06-.98,.15-1.44,.07-7.32-1.26-14.49,.45-21.72,1-4.93,.38-9.9,.14-14.85,.22-5.17,.08-10.24-.55-15.23-1.96-4.98-1.4-10.05-.77-15.03-.1-5.11,.68-10.06,.58-14.91-1.19-8.1-2.95-16.26-5.78-24.27-8.97-11.59-4.6-19.55-19.36-13.85-33.52,1.76-4.36,5.13-7.21,9.21-9.33,7.5-3.88,15.36-4.42,23.51-2.75,4.32,.89,8.59,1.89,11.68,5.35,1.41,1.58,2.63,3.35,3.79,5.13,1.1,1.71,2.05,3.52,3.02,5.31,4.19,7.74,11.15,10.68,19.48,11.15,2.13,.13,4.28,.09,6.41-.04,5.12-.31,9.77,.97,14.12,3.66,3.13,1.94,6.23,4.1,10.06,4.32,2.39,.14,4.84,.07,7.21-.26,7.09-1,13.38-3.82,18.68-8.72,3.12-2.9,5.12-6.55,5.51-10.65,.59-6.02,2.68-11.51,5.15-16.85,3.88-8.41,2.21-16.13-2.5-23.41-2.27-3.5-6.16-4.93-10.3-5.18-3.88-.23-7.76-.3-11.63-.42-1.77-.05-3.25-.73-4.31-2.11-3.18-4.13-7.56-5.16-12.44-4.88-4.25,.24-8.56,.29-12.75,.98-6.1,1.01-12.16,2.35-18.16,3.86-5.27,1.33-10.48,2.8-16,2.55-11.49-.5-21.85-3.99-30.76-11.43-5.74-4.78-8.05-11.26-9.06-18.33-.5-3.44-.66-6.94-.97-10.41,.33-11.19,2.82-21.94,5.74-32.63,1.07-3.92,2.03-7.87,2.95-11.82,.24-1.02,.35-2.16,.15-3.17-1.32-6.59,.7-12.3,4.75-17.31,4.43-5.48,10.03-9.54,17.04-10.98,4.73-.97,9.57-1.12,14.44-.14,4.92,1,9.93,1.9,14.93,2.14,8.7,.43,17.19-1.21,25.48-3.82,2.31-.73,4.65-1.38,6.93-2.18,5.03-1.78,10.09-2.38,15.45-1.68,7.86,1.02,15.38,2.95,22.51,6.46,3.81,1.87,7.15,4.32,9.95,7.47,5.78,6.5,10.1,13.65,10.96,22.63,.48,5.01,1.54,9.97,.61,15.03-.74,4.04-2.74,7.45-5.41,10.45-1.97,2.21-5.21,2.49-7.66,.87-2.64-1.76-4.57-4.14-6.04-6.96-1.38-2.66-2.85-5.29-4.36-7.88-5.48-9.38-14.11-11.63-24.16-10.56-4.04,.43-8.07,1.2-12.12,1.38-2.04,.09-4.15-.72-6.18-1.28-3.26-.91-6.42-2.49-9.73-2.83-10.89-1.12-20.93,.86-28.55,9.63-3.58,4.13-5.5,9.1-6.84,14.3-2.03,7.9-2.55,15.86-.35,23.84,1.21,4.41,4.12,7.67,7.52,10.43,1.24,1,3.19,1.33,4.87,1.54,4.64,.6,9.1-.39,13.34-2.21,7.04-3.01,14.32-5.62,20.97-9.34,9.3-5.2,18.44-4.01,27.85-1.1,7.21,2.23,13.85,5.78,20,9.95,9.2,6.25,15.11,15.08,16.64,26.27,.64,4.66,.2,9.46,.31,14.2,.11,5.04,.28,10.07,.48,15.11,.14,3.68,.47,7.36,.51,11.04Z"/>
        </g>
        <path class="cls-3" d="M1171.01,114.02c.33-11.18,2.82-21.94,5.74-32.62,1.07-3.92,2.03-7.87,2.96-11.83,.24-1.02,.35-2.16,.15-3.16-1.32-6.59,.7-12.31,4.75-17.31,4.43-5.48,10.03-9.54,17.03-10.98,4.74-.97,9.57-1.12,14.44-.14,4.93,1,9.93,1.89,14.94,2.14,8.7,.43,17.19-1.21,25.48-3.82,2.31-.73,4.65-1.38,6.93-2.18,5.02-1.77,10.09-2.38,15.44-1.68,7.86,1.03,15.39,2.96,22.52,6.46,3.81,1.87,7.15,4.32,9.95,7.47,5.78,6.5,10.1,13.66,10.96,22.63,.48,5.02,1.54,9.97,.61,15.03-.74,4.04-2.74,7.45-5.41,10.45-1.97,2.21-5.21,2.49-7.66,.87-2.64-1.76-4.58-4.14-6.04-6.95-1.38-2.66-2.85-5.29-4.37-7.88-5.48-9.38-14.11-11.64-24.15-10.56-4.05,.43-8.07,1.2-12.12,1.38-2.04,.09-4.15-.72-6.18-1.28-3.26-.9-6.42-2.49-9.73-2.83-10.89-1.12-20.93,.85-28.55,9.63-3.58,4.13-5.5,9.1-6.84,14.29-2.04,7.9-2.55,15.86-.36,23.84,1.21,4.41,4.12,7.67,7.52,10.43,1.24,1,3.19,1.33,4.87,1.55,4.64,.59,9.1-.39,13.34-2.21,7.04-3.01,14.31-5.63,20.97-9.35,9.3-5.2,18.44-4.01,27.85-1.1,7.21,2.23,13.85,5.78,20,9.95,9.2,6.25,15.11,15.08,16.64,26.26,.64,4.66,.19,9.46,.3,14.2,.12,5.04,.29,10.08,.48,15.11,.14,3.68,.48,7.36,.51,11.04,.06,5.63,.05,11.27-.17,16.9-.12,3.18-.49,6.39-1.14,9.51-1.24,5.96-5.65,9.34-10.68,11.95-5.5,2.85-11.11,5.51-16.7,8.18-3.78,1.81-7.77,2.98-11.94,3.52-.48,.06-.98,.15-1.45,.07-7.32-1.26-14.48,.45-21.71,1-4.93,.38-9.9,.13-14.85,.21-5.18,.09-10.24-.55-15.23-1.95-4.98-1.4-10.05-.77-15.03-.11-5.1,.68-10.06,.58-14.91-1.19-8.1-2.96-16.26-5.78-24.27-8.97-11.59-4.6-19.55-19.36-13.85-33.53,1.76-4.36,5.13-7.21,9.21-9.33,7.49-3.88,15.36-4.42,23.5-2.75,4.32,.89,8.6,1.89,11.68,5.35,1.41,1.58,2.63,3.35,3.79,5.13,1.11,1.7,2.06,3.52,3.03,5.31,4.19,7.74,11.15,10.68,19.48,11.16,2.13,.12,4.28,.08,6.41-.05,5.12-.31,9.77,.97,14.12,3.66,3.12,1.93,6.23,4.1,10.05,4.32,2.4,.14,4.84,.07,7.22-.26,7.09-1,13.38-3.82,18.67-8.72,3.12-2.89,5.12-6.54,5.52-10.65,.58-6.02,2.68-11.51,5.14-16.85,3.88-8.41,2.21-16.13-2.5-23.41-2.27-3.5-6.16-4.93-10.3-5.18-3.87-.23-7.75-.3-11.63-.42-1.76-.05-3.25-.74-4.3-2.11-3.18-4.13-7.57-5.16-12.44-4.89-4.26,.24-8.56,.29-12.75,.98-6.1,1.01-12.16,2.35-18.16,3.86-5.27,1.33-10.48,2.79-16,2.55-11.49-.51-21.85-4-30.76-11.43-5.73-4.78-8.04-11.26-9.06-18.33-.5-3.45-.66-6.94-.97-10.42Zm33.15,89.86c-1.02-2.03-1.73-4.18-3.03-5.88-2.43-3.16-5.48-5.74-9.04-7.6-2.69-1.4-5.47-1.85-8.27-.13-2.67,1.64-2.88,4.92-.29,6.57,2.36,1.51,4.81,2.87,7.27,4.19,2.37,1.28,4.73,2.64,7.25,3.56,1.77,.65,3.85,1.49,6.12-.72Zm106.42-3.97c.06-4.42-1.93-6.99-4.92-7.16-2.95-.17-5.32,2.04-5.55,5.45-.31,4.62-.44,9.25-.63,13.88-.06,1.56-.17,3.32,1.73,3.87,1.69,.48,2.91-.68,4.02-1.81,.2-.21,.38-.44,.55-.67,3.15-4.27,3.6-9.45,4.8-13.55Zm-3.68-48.94c.08-.92,.2-1.48,.18-2.04-.17-5.09-7.28-12.23-10.94-13.72-1.66-.68-3.93,.15-4.65,1.41-.81,1.41-.53,3.43,.7,4.78,.39,.43,.84,.79,1.3,1.15,1.51,1.19,2.99,2.42,4.57,3.52,2.66,1.85,5.23,3.89,8.85,4.9Zm-113.97-23.82c1.26-5.51,1.27-10.42,.97-15.32-.13-2.08-1.78-3.11-3.91-3.03-1.82,.06-3.15,.8-3.45,2.89-.69,4.73-.57,9.46,2.91,13.3,.78,.86,2.02,1.29,3.47,2.17Zm111.24-76.51c-.02-.16-.02-.45-.09-.73-.89-3.37-8.4-8.47-11.9-8.03-2.01,.25-4.02,2.31-2.41,4.29,2.82,3.47,6.06,6.49,10.56,7.68,2.03,.54,3.9-1.02,3.84-3.21Zm-130.84,170.99c-1.05-2.46-2-4.23-2.58-6.11-1.17-3.78-2.09-7.64-3.2-11.44-.56-1.93-1.65-2.74-3.03-2.53-1.31,.21-2.23,1.45-2.36,3.26-.03,.38,0,.77,.07,1.15,.96,6.25,4.07,11.2,9.08,14.98,.35,.26,.86,.3,2.02,.68Zm11.16-89.02c-.86-2.82-1.74-5.54-2.51-8.3-.39-1.39-.53-2.86-.85-4.27-.45-1.95-1.66-3.08-3.06-2.96-1.51,.13-2.85,1.74-2.62,3.63,.52,4.25,2.02,8.09,5.44,10.91,1.04,.86,2.2,1.59,3.62,.98Zm126.53,13.36c-.19-1.61-.23-2.72-.46-3.79-.74-3.45-2.75-6.12-5.44-8.29-1.08-.87-2.33-1.01-3.44-.05-.95,.82-.77,2.42,.33,3.61,.33,.35,.75,.62,1.08,.97,2.06,2.16,4.09,4.35,6.17,6.49,.33,.35,.85,.52,1.76,1.06Zm-118.96-95.18c-2.05-.18-2.49-.15-3.46,.79-2.04,1.99-3.06,4.42-2.9,7.31,.09,1.51,.94,2.37,2.35,2.47,1.46,.11,1.86-.92,2.11-2.22,.52-2.74,1.22-5.44,1.9-8.35Zm30.41-2.01c-3.03-1.61-4.76-2.23-6.45-1.68-.85,.28-1.82,1.16-2.09,1.98-.22,.68,.25,1.98,.86,2.46,2.25,1.81,6.72,.12,7.68-2.76Zm-20.74,3.38c-3.07,.43-5.13,1.43-6.62,3.47-.66,.9-.6,1.96,.34,2.55,.5,.32,1.73,.35,2,0,1.42-1.75,2.64-3.67,4.27-6.03Zm111.06,27.36c1.55-1.95,1.44-3.67,1.28-5.37-.11-1.14-.62-2.22-1.97-1.93-1.27,.27-1.52,1.33-1.07,2.52,.54,1.42,1.05,2.85,1.76,4.78Z"/>
        <path class="cls-3" d="M1204.16,203.88c-2.27,2.21-4.35,1.36-6.12,.72-2.51-.92-4.88-2.28-7.25-3.56-2.46-1.33-4.92-2.69-7.27-4.19-2.59-1.66-2.37-4.94,.29-6.57,2.8-1.72,5.58-1.27,8.27,.13,3.56,1.86,6.61,4.44,9.04,7.6,1.3,1.7,2.01,3.85,3.03,5.88Z"/>
        <path class="cls-3" d="M1310.58,199.91c-1.19,4.1-1.64,9.28-4.8,13.55-.17,.23-.35,.47-.55,.67-1.11,1.13-2.33,2.3-4.02,1.81-1.9-.54-1.79-2.31-1.73-3.87,.18-4.63,.32-9.26,.63-13.88,.23-3.41,2.6-5.62,5.55-5.45,2.98,.17,4.98,2.74,4.92,7.16Z"/>
        <path class="cls-3" d="M1192.93,127.15c-1.45-.88-2.7-1.31-3.47-2.17-3.48-3.84-3.61-8.57-2.91-13.3,.3-2.09,1.64-2.82,3.45-2.89,2.13-.07,3.78,.96,3.91,3.03,.3,4.9,.29,9.81-.97,15.32Z"/>
        <path class="cls-26" d="M1173.34,221.63c-1.15-.38-1.67-.42-2.02-.68-5.01-3.78-8.13-8.73-9.08-14.98-.06-.38-.1-.77-.07-1.15,.13-1.81,1.04-3.05,2.36-3.26,1.37-.22,2.46,.6,3.03,2.53,1.11,3.8,2.03,7.65,3.2,11.44,.58,1.89,1.53,3.66,2.58,6.11Z"/>
        <path class="cls-4" d="M1184.5,132.61c-1.42,.61-2.58-.12-3.62-.98-3.41-2.83-4.92-6.66-5.44-10.91-.23-1.89,1.11-3.51,2.62-3.63,1.4-.12,2.61,1.01,3.06,2.96,.33,1.41,.47,2.88,.85,4.27,.77,2.76,1.65,5.48,2.51,8.3Z"/>
        <path class="cls-4" d="M1311.03,145.97c-.92-.54-1.43-.71-1.76-1.06-2.08-2.14-4.11-4.33-6.17-6.49-.33-.35-.75-.61-1.08-.97-1.1-1.19-1.28-2.79-.33-3.61,1.11-.96,2.36-.82,3.44,.05,2.69,2.17,4.7,4.84,5.44,8.29,.23,1.07,.27,2.18,.46,3.79Z"/>
        <path class="cls-7" d="M1192.07,50.79c-.67,2.92-1.38,5.62-1.9,8.35-.25,1.3-.66,2.33-2.11,2.22-1.41-.1-2.26-.97-2.35-2.47-.16-2.89,.86-5.32,2.9-7.31,.97-.94,1.41-.97,3.46-.79Z"/>
        <path class="cls-3" d="M1222.48,48.78c-.97,2.88-5.43,4.57-7.68,2.76-.6-.48-1.08-1.78-.86-2.46,.27-.82,1.24-1.7,2.09-1.98,1.68-.55,3.42,.07,6.45,1.68Z"/>
        <path class="cls-15" d="M1201.74,52.16c-1.63,2.36-2.85,4.28-4.27,6.03-.28,.34-1.5,.31-2,0-.94-.59-1-1.65-.34-2.55,1.49-2.04,3.54-3.04,6.62-3.47Z"/>
        <path class="cls-6" d="M1312.8,79.51c-.71-1.93-1.23-3.36-1.76-4.78-.45-1.19-.21-2.25,1.07-2.52,1.35-.29,1.86,.79,1.97,1.93,.16,1.7,.27,3.42-1.28,5.37Z"/>
      </g>
      <g>
        <g>
          <path class="cls-18" d="M963.08,57.42v1.75c-6.44,11.33-17.34,15.01-29.2,16.08-9.45,.86-19.01,.47-28.52,.56-3.98,.04-7.97-.21-11.95-.11-1.6,.04-3.25,.49-4.78,1.03-3.63,1.3-5.76,3.97-5.93,7.84-.25,5.71-.29,11.44-.32,17.17-.01,1.04,.31,2.12,.69,3.11,2.27,6.01,2.29,12.15,1.11,18.35-1.23,6.48-2.43,12.96-3.77,19.41-.8,3.88-.8,7.68,.24,11.51,.93,3.46,1.74,6.96,2.56,10.45,1.29,5.52,.52,11.04-.21,16.51-1.1,8.16-.95,16.22,.59,24.33,1.89,9.97,.88,19.66-3.36,29.01-3.21,7.08-8.67,10.93-16.11,12.39-6.78,1.33-13.38,.48-19.73-1.92-7.56-2.86-11.53-8.96-13.53-16.4-.85-3.15-1.24-6.5-1.32-9.77-.19-7.37-.46-14.78,.08-22.12,.44-5.96,1.86-11.87,3.1-17.74,2.1-10.01,3.3-20.1,3.68-30.31,.22-5.78-.72-11.41-1.69-17.05-1.72-9.97-1.51-19.9,.37-29.83,.53-2.76,1.07-5.54,1.26-8.33,.15-2.3-.02-4.66-.39-6.94-.39-2.38-1.78-4.27-3.89-5.56-2.31-1.41-4.6-2.87-6.97-4.19-.57-.32-1.46-.39-2.1-.21-2.78,.81-5.59,1.58-8.25,2.67-8.04,3.3-16.44,4.4-25.03,4.52-4.67,.07-9.32,.08-13.91-1-7.44-1.76-13.6-5.69-18.44-11.46-3.54-4.22-5.2-9.4-4.42-14.92,.86-6,4.72-10.07,9.89-12.89,2.27-1.24,4.74-2.17,7.17-3.11,5.41-2.08,10.83-4.14,16.28-6.11,5.16-1.86,10.54-2.75,15.98-2.83,11.16-.16,22.33-.24,33.49-.01,7.95,.16,15.88,1.18,23.83,1.27,6.87,.08,13.75-.64,20.63-.96,8.14-.39,16.29-.73,24.43-1.1,3.39-.15,6.79-.32,10.18-.46,7.7-.34,15.4-.05,22.77,2.34,10.75,3.47,18.64,10.47,23.72,20.58,.71,1.42,1.18,2.97,1.77,4.45Zm-8.67,4.54c3.56-2.48,3.93-3.94,1.8-7.82-4.43-8.08-11.57-12.99-20.06-15.84-8.02-2.7-16.42-2.49-24.79-2.22-5.52,.17-11.05,.1-16.58,.14-1.94,.02-3.88-.07-5.8,.07-6.19,.43-12.38,1.33-18.56,1.33-8.82,0-17.64-.62-26.45-1.02-3-.14-6-.56-9-.59-10.77-.12-21.55-.16-32.32-.17-2.13,0-4.32-.03-6.37,.45-4.42,1.03-8.82,2.2-13.12,3.64-5.96,2-11.94,4.01-17.69,6.53-8.62,3.78-11.18,12.55-5.87,20.26,4.36,6.32,10.7,10.2,18.19,11.57,9.27,1.7,18.57,.56,27.77-.97,4.46-.75,8.82-2.16,13.24-3.23,1.67-.4,3.48-.44,5.04-1.09,4.57-1.89,8.82-1.23,12.68,1.51,5.75,4.07,7.81,9.98,7.31,16.78-.27,3.56-.9,7.11-1.64,10.61-1.9,9.02-2.15,18.08-.99,27.2,.64,5.08,1.6,10.16,1.79,15.27,.45,11.99-1.29,23.79-3.78,35.49-1.88,8.82-3.88,17.63-3.56,26.8,.52,6.07,.65,12.22,1.69,18.21,.96,5.46,3.51,10.36,9.14,12.66,5.52,2.26,11.24,2.86,17.1,1.55,4.68-1.05,8.12-3.55,9.84-8.16,.34-.91,.75-1.79,1.1-2.69,3.04-7.78,2.6-15.77,1.47-23.82-.84-5.96-1.38-11.93-.51-17.97,.56-3.83,.84-7.7,1.24-11.56,.56-5.31-.41-10.44-1.94-15.48-1.93-6.33-2.58-12.65-.93-19.19,1.44-5.72,2.49-11.54,3.82-17.29,1.36-5.84,1.93-11.65-.01-17.48-.21-.63-.3-1.33-.3-2.01,.01-6.02-.16-12.05,.15-18.05,.41-7.93,4.25-12.66,11.67-14.8,2.03-.59,4.19-.92,6.3-.92,4.36-.01,8.72,.42,13.08,.42,5.14,0,10.28-.24,15.42-.43,3.88-.14,7.75-.31,11.62-.57,6.98-.47,13.15-3.18,18.81-7.12Z"/>
          <path class="cls-3" d="M956.21,54.14c2.13,3.88,1.76,5.34-1.8,7.82-5.66,3.94-11.83,6.65-18.81,7.12-3.87,.26-7.74,.43-11.62,.57-5.14,.19-10.28,.43-15.42,.43-4.36,0-8.72-.43-13.08-.42-2.11,0-4.27,.33-6.3,.92-7.42,2.14-11.26,6.87-11.67,14.8-.31,6-.14,12.03-.15,18.05,0,.68,.09,1.38,.3,2.01,1.94,5.83,1.37,11.64,.01,17.48-1.33,5.75-2.38,11.57-3.82,17.29-1.65,6.54-1,12.86,.93,19.19,1.53,5.04,2.5,10.17,1.94,15.48-.4,3.86-.68,7.73-1.24,11.56-.87,6.04-.33,12.01,.51,17.97,1.13,8.05,1.57,16.04-1.47,23.82-.35,.9-.76,1.78-1.1,2.69-1.72,4.61-5.16,7.11-9.84,8.16-5.86,1.31-11.58,.71-17.1-1.55-5.63-2.3-8.18-7.2-9.14-12.66-1.04-5.99-1.17-12.14-1.69-18.21-.32-9.17,1.68-17.98,3.56-26.8,2.49-11.7,4.23-23.5,3.78-35.49-.19-5.11-1.15-10.19-1.79-15.27-1.16-9.12-.91-18.18,.99-27.2,.74-3.5,1.37-7.05,1.64-10.61,.5-6.8-1.56-12.71-7.31-16.78-3.86-2.74-8.11-3.4-12.68-1.51-1.56,.65-3.37,.69-5.04,1.09-4.42,1.07-8.78,2.48-13.24,3.23-9.2,1.53-18.5,2.67-27.77,.97-7.49-1.37-13.83-5.25-18.19-11.57-5.31-7.71-2.75-16.48,5.87-20.26,5.75-2.52,11.73-4.53,17.69-6.53,4.3-1.44,8.7-2.61,13.12-3.64,2.05-.48,4.24-.45,6.37-.45,10.77,.01,21.55,.05,32.32,.17,3,.03,6,.45,9,.59,8.81,.4,17.63,1.02,26.45,1.02,6.18,0,12.37-.9,18.56-1.33,1.92-.14,3.86-.05,5.8-.07,5.53-.04,11.06,.03,16.58-.14,8.37-.27,16.77-.48,24.79,2.22,8.49,2.85,15.63,7.76,20.06,15.84Z"/>
        </g>
        <path class="cls-3" d="M835.65,206.65c-.32-9.17,1.69-17.98,3.56-26.8,2.49-11.7,4.23-23.5,3.78-35.49-.19-5.11-1.15-10.19-1.8-15.27-1.16-9.12-.91-18.17,1-27.19,.74-3.5,1.37-7.05,1.63-10.62,.51-6.8-1.56-12.71-7.31-16.78-3.86-2.74-8.11-3.4-12.68-1.51-1.56,.65-3.37,.69-5.04,1.09-4.42,1.07-8.77,2.48-13.24,3.22-9.19,1.53-18.5,2.67-27.76,.98-7.5-1.37-13.83-5.26-18.19-11.58-5.31-7.7-2.76-16.48,5.86-20.26,5.75-2.52,11.73-4.53,17.69-6.53,4.3-1.44,8.7-2.62,13.12-3.65,2.05-.48,4.24-.45,6.37-.44,10.78,0,21.55,.04,32.33,.16,3,.03,5.99,.46,8.99,.59,8.81,.4,17.63,1.02,26.45,1.02,6.19,0,12.37-.9,18.56-1.33,1.92-.13,3.86-.05,5.8-.06,5.53-.04,11.06,.03,16.59-.14,8.37-.27,16.77-.48,24.79,2.22,8.49,2.85,15.63,7.76,20.06,15.85,2.13,3.88,1.76,5.34-1.8,7.82-5.66,3.94-11.83,6.64-18.81,7.12-3.87,.26-7.74,.43-11.62,.57-5.14,.19-10.28,.43-15.42,.43-4.36,0-8.72-.43-13.09-.42-2.1,0-4.27,.33-6.29,.92-7.42,2.14-11.26,6.87-11.67,14.8-.31,6.01-.14,12.04-.15,18.06,0,.67,.09,1.37,.3,2.01,1.94,5.83,1.37,11.64,.02,17.48-1.34,5.75-2.39,11.57-3.83,17.29-1.65,6.53-1,12.86,.93,19.19,1.54,5.04,2.5,10.17,1.95,15.48-.41,3.86-.69,7.73-1.24,11.56-.87,6.03-.33,12.01,.51,17.97,1.13,8.05,1.57,16.04-1.47,23.82-.35,.9-.76,1.78-1.1,2.69-1.72,4.61-5.16,7.12-9.83,8.16-5.87,1.31-11.59,.72-17.11-1.54-5.63-2.3-8.18-7.2-9.14-12.67-1.04-5.99-1.17-12.13-1.7-18.21Zm29.06-50.79c1.37,2.58,1.45,5.79,3.96,8.34,.91-2.86,.1-5.21-.22-7.5-.71-5.09-2.78-10.1-.45-15.28,.03-.06-.06-.18-.11-.31-1.03-.75-2.12-.55-2.76,.41-.77,1.17-1.46,2.51-1.7,3.86-.31,1.69-.13,3.46-.17,5.2-.24-1.86-.48-3.72-.71-5.55-3.02-.22-4.96,1.33-4.93,4.25,.04,3.87,.9,7.63,2.52,11.18,.46,1,1.07,1.93,1.66,2.97,2.28-2.34,2.64-3.34,2.9-7.58Zm59.66-103.67c-.34,2.45,1.57,5.34,4.39,6.31,0-1.33,.05-2.57-.01-3.81-.09-1.84-.86-3.15-2.91-3.3,1.85-1.06,1.31-2.64,.69-4.02-1.58-3.52-4.33-5.91-7.93-7.23-1.69-.62-3.46-.45-4.98,.65-2,1.45-1.79,4.56,.38,5.75,2.69,1.48,5.41,2.92,8.12,4.38,.75,.41,1.5,.83,2.25,1.25Zm-62.19,174.8c-.04,1.04,.57,1.21,1.46,1.2,2.33-.02,5.42-2.73,6.26-5.56,.67-2.25,.2-2.91-2.33-3.32,2.29-2.66,3.02-7.48,1.34-10.24-.72-1.19-1.63-2.48-3.35-2.47-1.82,.01-3.26,.84-3.91,2.5-1.75,4.48-3.46,9-3.51,13.91-.03,3.54,.49,4,4.04,3.97Zm2.35-125.26c-.27-.8-.38-1.7-.85-2.36-.63-.89-1.4-1.91-2.35-2.3-2.39-.97-4.76,.79-4.85,3.67-.07,2.19,.1,4.45,.58,6.58,.75,3.35,1.63,6.71,2.87,9.9,.79,2.01,2.4,3.64,5.21,3.59,0-.94,.02-1.7,0-2.46-.16-5-.34-10.01-.5-15.01,.57,2.12,1,4.3,1.76,6.36,.78,2.09,1.27,4.39,3.49,6.38,.35-1.69,.92-2.99,.81-4.23-.41-4.8-1-9.58-1.6-14.35-.13-1.02-.82-1.72-2-1.72-1.14,0-1.84,.55-2.01,1.66-.22,1.42-.38,2.86-.56,4.29Zm.54-53.43l.03-.24c1.06,0,2.13,.08,3.19-.02,2.87-.26,5.78-.57,8.25-2.21,.86-.57,1.6-1.6,1.88-2.57,.11-.37-1.15-1.3-1.93-1.73-3.11-1.75-6.64-1.86-10.06-2.08-2.56-.17-5.21,.07-7.72,.6-3.21,.67-3.87,4.7-1.52,6.24,.71,.46,1.41,1.09,2.2,1.25,1.87,.38,3.78,.53,5.68,.76Zm-78.2-5.28c-.45-.2-.87-.43-1.32-.57-.36-.12-.77-.21-1.14-.17-4.33,.39-8.38,1.53-11.67,4.56-.42,.39-.95,.87-1.03,1.38-.14,.97-.26,2.13,.15,2.93,.19,.36,1.72,.23,2.56,.01,2.04-.53,4.08-1.13,6.04-1.91,1.77-.71,3.53-1.56,5.11-2.62,1.01-.68,1.81-1.8,1.31-3.6Zm133.94,21.25c1.55-3.52,0-8.28-3.13-9.94-.33-.18-.7-.32-1.07-.39-2.71-.48-4.9,1.85-4.32,4.57,.68,3.19,4.55,5.86,8.52,5.76Zm17.72-11.38c1.73-1.06,1.37-2.49,1.15-3.6-.72-3.52-2.68-6.37-5.44-8.62-.62-.5-1.58-.7-2.41-.8-1.07-.13-2.19,.02-2.58,1.32-.33,1.11-.02,2.02,.88,2.84,1.42,1.29,2.76,2.68,4.07,4.08,1.44,1.53,2.82,3.12,4.32,4.78Zm-119.95-12.66l-.29-.67c-.74-.19-1.48-.57-2.21-.55-3.35,.06-6.73,.04-10.05,.41-1.92,.22-3.05,2.29-2.6,3.87,.41,1.44,1.98,1.93,4.1,1.22,2.83-.94,5.67-1.87,8.47-2.89,.91-.33,1.73-.92,2.59-1.39Zm49.19,156.42l.63-.02c1.34-3.99,.86-8.13,.86-12.23,0-.56-.75-1.13-1.16-1.69-.57,.52-1.28,.96-1.67,1.6-.26,.42-.1,1.13-.06,1.7,.16,1.91,.31,3.82,.56,5.72,.21,1.65,.55,3.28,.83,4.91Z"/>
        <path class="cls-5" d="M786.87,43.03c.5,1.8-.3,2.92-1.31,3.6-1.58,1.06-3.34,1.91-5.11,2.62-1.95,.78-3.99,1.38-6.04,1.91-.84,.22-2.37,.35-2.56-.01-.41-.8-.29-1.95-.15-2.93,.07-.5,.6-.99,1.03-1.38,3.29-3.03,7.34-4.17,11.67-4.56,.37-.03,.78,.06,1.14,.17,.45,.14,.88,.37,1.32,.57Z"/>
        <path class="cls-22" d="M864.64,103.35c-.04-.54-.07-1.07-.11-1.61,.18-1.43,.34-2.86,.56-4.29,.17-1.12,.87-1.66,2.01-1.66,1.18,0,1.87,.7,2,1.72,.6,4.78,1.2,9.56,1.6,14.35,.11,1.24-.47,2.53-.81,4.23-2.22-1.99-2.71-4.29-3.49-6.38-.76-2.05-1.19-4.23-1.76-6.36Z"/>
        <path class="cls-22" d="M864.71,155.87c-.48-1.76-.96-3.51-1.44-5.27,.03-1.74-.14-3.51,.17-5.2,.25-1.35,.94-2.7,1.7-3.86,.63-.96,1.73-1.16,2.76-.41,.05,.14,.14,.25,.11,.31-2.33,5.17-.26,10.19,.45,15.28,.32,2.28,1.13,4.64,.22,7.5-2.51-2.55-2.59-5.76-3.96-8.34Z"/>
        <path class="cls-22" d="M938.54,52.9c-1.5-1.66-2.88-3.25-4.32-4.78-1.32-1.4-2.66-2.78-4.07-4.08-.9-.82-1.21-1.73-.88-2.84,.38-1.3,1.5-1.44,2.58-1.32,.83,.1,1.79,.3,2.41,.8,2.76,2.25,4.72,5.11,5.44,8.62,.23,1.1,.59,2.53-1.15,3.6Z"/>
        <path class="cls-13" d="M862.18,227c1.01-1.8,1.93-3.66,3.06-5.39,.58-.89,1.54-1.54,2.33-2.3,2.53,.41,3,1.08,2.33,3.32-.84,2.83-3.93,5.54-6.26,5.56-.89,0-1.5-.16-1.46-1.2Z"/>
        <path class="cls-22" d="M867.78,196.67c-.28-1.64-.62-3.27-.83-4.91-.25-1.9-.4-3.81-.56-5.72-.05-.57-.2-1.28,.06-1.7,.39-.63,.74-1.23,1.67-1.6,.85,.38,1.48,1.2,1.24,1.86,0,4.09,.4,8.07-.94,12.06l-.63,.02Z"/>
        <path class="cls-21" d="M924.37,52.2c.49-.27,.98-.53,1.47-.8,2.05,.15,2.81,1.46,2.91,3.3,.06,1.24,.01,2.48,.01,3.81-2.82-.97-4.73-3.86-4.39-6.31Z"/>
      </g>
    </g>
  </g>
</svg>