<?xml version="1.0" encoding="UTF-8"?>
<svg xmlns="http://www.w3.org/2000/svg" viewBox="0 0 420.43 420.43">
  <defs>
    <style>
      .cls-1 {
        fill: #fff;
      }

      .cls-2 {
        fill: #07bff9;
        stroke: #1d1d1b;
        stroke-miterlimit: 10;
        stroke-width: 10px;
      }
    </style>
  </defs>
  <g id="_лой_1" data-name="Слой 1"/>
  <g id="_лой_2" data-name="Слой 2">
    <g id="_лой_4" data-name="Слой 4">
      <rect class="cls-2" x="5" y="5" width="410.43" height="410.43" rx="32.75" ry="32.75"/>
    </g>
    <g id="_лой_5" data-name="Слой 5">
      <path d="M151.97,326.72c-1.55,0-3.09-.03-4.64-.07-1.86-.04-3.69-.21-5.44-.49h-.11c-.24-.02-.48-.04-.72-.07-2.04-.24-4.07-.59-6.05-1.05-.48-.11-.97-.22-1.45-.33-.8-.18-1.61-.36-2.41-.56-1.18-.29-2.17-.58-3.1-.89-2.48-.84-4.91-1.68-7.34-2.72-4.25-1.82-8.33-4.01-12.13-6.51-4.67-3.08-8.99-6.62-12.82-10.53-2.48-2.53-4.82-5.24-6.94-8.06-2.69-3.58-5.05-7.36-7.02-11.24-2.07-4.08-3.62-7.82-4.72-11.44l-.37-1.2c-.39-1.24-.78-2.52-1.12-3.87-.46-1.82-.79-3.62-1.12-5.35l-.02-.12c-.15-.79-.26-1.58-.37-2.38-.05-.38-.1-.76-.16-1.14-.41-2.68-.53-5.28-.64-7.79-.03-.64-.06-1.27-.09-1.91-.04-.8-.12-2.29,.39-3.94,.82-2.69,2.92-4.64,5.61-5.21,.68-.14,1.3-.19,1.7-.22,.22-.01,.46-.02,.7-.02h61.01c.48,0,1.08,0,1.74,.07,3.91,.34,6.89,3.49,7.08,7.48,.03,.55,.04,1.39-.14,2.33-.09,.48,.04,1.42,.16,2.32l.05,.38c.4,3,1.62,5.73,3.75,8.35,.74,.91,1.32,1.48,1.87,1.84,.33,.22,.64,.47,.91,.75,.39,.39,1.18,.83,2.02,1.3,1.09,.61,2.19,1.06,3.3,1.35,1.6,.42,3.26,.63,4.94,.63,4.67-.01,9.29-.02,13.91-.02h11.07v-12.96h-18.93c-.15,0-.29,.02-.44,.03l-.5,.03c-.1,0-.2,0-.31,0-.05,0-.94-.02-.94-.02-.68-.02-1.35-.04-2.03-.05-.37,0-.74-.01-1.1-.01-.23,0-.82,0-.86,0-2.74,0-5.27-1.49-6.6-3.88-1.36-2.43-1.29-5.43,.19-7.83,.53-.86,1.07-1.64,1.6-2.4l.38-.55c2.78-4.02,5.52-8.34,8.38-13.19,2.47-4.2,4.42-7.75,6.14-11.19,1.46-2.91,2.55-5.34,3.45-7.63l.14-.35c.65-1.65,1.26-3.22,1.79-4.79,.88-2.63,1.53-5.07,1.98-7.46,.33-1.79,.56-3.78,.7-6.26,.09-1.55,.13-3.08,.16-4.92,.03-1.3-.1-2.7-.23-4.19l-.07-.84c-.04-.5-.08-1-.1-1.5-.05-1.18-.19-2.47-.43-3.95-.12-.74-.22-1.48-.33-2.23-.12-.84-.24-1.69-.38-2.53-.31-1.75-.72-4.04-1.21-6.29-.39-1.79-.84-3.6-1.33-5.39-.91-3.26-1.78-6.24-2.67-9.11-.56-1.81-1.2-3.61-1.88-5.52-.94-2.63-1.93-5.37-2.95-8.04-.79-2.07-1.65-4.1-2.39-5.82-1.02-2.38-2.12-4.92-3.27-7.43-.69-1.49-1.4-2.97-2.12-4.45-.53-1.1-1.06-2.2-1.58-3.3-1.1-2.34-2.35-4.62-3.67-7.03l-.9-1.65c-.17-.3-.51-.94-.74-1.77-.57-2.06-.14-4.32,1.17-6.03,1.28-1.68,3.29-2.69,5.38-2.69,.19,0,.47,.01,.66,.03,.46,.05,1.13,.11,1.89,.32,4.28,1.15,8.55,2.3,12.83,3.46,.85,.23,1.7,.47,2.55,.72,.83,.24,1.67,.48,2.5,.7,1.11,.3,2.22,.59,3.33,.88,.92,.24,1.85,.49,2.77,.73,0-2.04,0-4.08,0-6.12,0-2.25,.3-4.29,.94-6.23,1.1-3.33,3.05-6.16,5.81-8.4,2.33-1.9,5.07-3.13,8.14-3.67,1.02-.18,2.06-.27,3.08-.27,2.14,0,4.24,.4,6.25,1.18,4.86,1.9,8.46,5.52,10.4,10.48,.7,1.8,1.06,3.5,1.11,5.21v.1c.02,.68,.04,1.36,.04,2.04v15.92c.25,.14,.51,.3,.76,.48,.94,.66,1.72,1.24,2.43,1.83l.51,.42c2.71,2.21,5.51,4.49,8.21,6.88,3.27,2.9,6.25,5.65,9.11,8.43,4.3,4.17,7.65,7.71,10.55,11.14l.58,.68c1.54,1.82,3.13,3.7,4.66,5.65,1.95,2.48,3.91,5.22,6.17,8.61,2.3,3.46,4.16,6.63,5.68,9.69,1.58,3.18,2.95,6.48,4.09,9.83,.75,2.21,1.38,4.54,1.88,6.94,.39,1.88,.78,3.9,.79,6.07,0,.41,.04,.83,.07,1.25,.05,.7,.11,1.5,.1,2.37-.03,2.34-.25,4.71-.66,7.02-.48,2.73-1.28,5.53-2.5,8.81-1.5,4.03-3.45,8.02-5.8,11.87l-.54,.89c-.38,.63-.76,1.26-1.16,1.88-2.06,3.22-4.28,6.27-6.58,9.07-.13,.16-.25,.33-.37,.5-.3,.42-.61,.84-.94,1.24-1.53,1.81-3.07,3.62-4.62,5.4-1.17,1.35-2.5,2.87-3.9,4.37-3.03,3.22-5.8,5.95-8.48,8.34-.32,.29-.63,.59-.95,.89l-.18,.18c-1.62,1.56-3.64,2.38-5.86,2.38h-.28c-.48-.02-.96-.02-1.44-.02h-11.33s0,10.17,0,12.98h8.82c3.1,0,6.2,0,9.29,0h0c2.08,0,4.01-.36,5.96-1.09,1.86-.7,3.6-1.76,5.18-3.14,2.93-2.57,5.27-4.77,7.38-6.92,1.75-1.78,3.48-3.56,5.22-5.35,.2-.21,.4-.44,.59-.67,1.28-1.57,2.9-2.64,4.82-3.17,2.52-.7,5.02-1.42,7.53-2.14,1.2-.35,2.4-.7,3.6-1.05,1-.29,2-.59,3.01-.88,1.22-.35,7.22-2.08,7.22-2.08,1.05-.3,5.3-1.55,6.37-1.86l7.46-2.14s5.43-1.58,6.62-1.93c1.11-.32,2.23-.64,3.34-.95,1.33-.38,2.66-.76,3.99-1.14,1.15-.33,2.29-.67,3.43-1.01,.89-.27,1.79-.53,2.68-.79,1.2-.35,2.39-.7,3.59-1.04l2.83-.82c.85-.25,1.7-.49,2.55-.75,.86-.26,1.91-.52,3.16-.52,.19,0,.38,0,.57,.02,3.5,.23,6.25,2.69,6.85,6.12,.13,.75,.2,1.53,.2,2.34,0,4.02,0,8.04,0,12.06,0,.45-.03,.91-.08,1.37l-.02,.28c-.18,2.49-1.56,4.64-3.79,5.91-.38,.22-.8,.45-1.3,.67-3.72,1.63-7.27,3.45-10.53,5.38-3.54,2.1-6.45,4.18-8.87,6.35-1.45,1.3-2.61,2.61-3.53,3.99-.65,.97-1.31,1.94-1.96,2.91-1.07,1.58-2.13,3.15-3.17,4.74-1.01,1.54-1.99,3.11-2.96,4.67l-.93,1.48c-.47,.75-.94,1.51-1.41,2.26-.73,1.17-1.45,2.35-2.2,3.51-2.44,3.83-4.67,7.28-7.12,10.7-3.74,5.19-6.92,8.97-10.31,12.26-2.82,2.73-5.58,4.94-8.44,6.74-2.56,1.61-5.36,2.96-8.33,4.02-2.9,1.03-5.77,1.51-7.94,1.81-.94,.13-1.82,.15-2.53,.17h-.46c-.66,.03-1.32,.03-1.99,.03h-111.47Z"/>
      <path class="cls-1" d="M173.08,247.8c-.96-.02-1.92-.05-2.88-.07-.67-.01-1.34-.02-2.01,0-1.55,.03-2.49-1.68-1.63-3.07,.57-.92,1.2-1.81,1.82-2.7,3.04-4.4,5.88-8.93,8.6-13.54,2.23-3.78,4.37-7.61,6.33-11.53,1.33-2.65,2.58-5.34,3.66-8.1,.7-1.79,1.41-3.58,2.02-5.4,.9-2.69,1.65-5.43,2.18-8.23,.43-2.31,.65-4.63,.79-6.97,.1-1.71,.14-3.42,.17-5.14,.04-1.88-.16-3.76-.32-5.63-.04-.42-.07-.83-.09-1.25-.07-1.55-.25-3.08-.49-4.61-.26-1.61-.44-3.23-.72-4.83-.38-2.18-.78-4.36-1.25-6.52-.41-1.92-.89-3.82-1.42-5.71-.86-3.1-1.76-6.18-2.71-9.25-.6-1.95-1.29-3.88-1.98-5.8-.97-2.71-1.95-5.42-2.98-8.11-.78-2.03-1.62-4.03-2.47-6.02-1.09-2.53-2.18-5.06-3.34-7.56-1.2-2.62-2.49-5.19-3.72-7.8-1.44-3.06-3.11-6-4.72-8.97-.1-.18-.2-.37-.26-.57-.23-.82,.43-1.61,1.17-1.54,.33,.03,.67,.07,.99,.15,4.27,1.15,8.55,2.3,12.81,3.46,1.69,.46,3.37,.96,5.06,1.42,2.38,.64,4.76,1.25,7.14,1.9,1.65,.45,3.29,.94,4.94,1.42,.24,.07,.48,.14,.73,.19,.23,.05,.42-.09,.43-.32,.01-.38,.02-.75,.02-1.13,0-4.01,0-8.03,0-12.04,0-1.52,.18-2.99,.66-4.44,.77-2.33,2.11-4.24,4-5.78,1.63-1.33,3.5-2.13,5.54-2.49,2.13-.38,4.25-.19,6.29,.61,3.47,1.35,5.83,3.82,7.18,7.26,.41,1.05,.69,2.15,.72,3.29,.02,.67,.04,1.34,.04,2.01,0,6.11,0,12.21,0,18.32,0,.33,0,.67,0,1,.02,.6,.08,.65,.69,.87,.82,.29,1.74,.32,2.48,.84,.72,.5,1.42,1.02,2.1,1.58,2.88,2.35,5.77,4.69,8.55,7.16,3.03,2.69,6.01,5.43,8.92,8.25,3.54,3.43,6.98,6.96,10.16,10.73,1.72,2.04,3.46,4.08,5.11,6.18,2.09,2.66,4.03,5.43,5.9,8.25,1.94,2.93,3.76,5.93,5.32,9.07,1.47,2.95,2.74,6,3.8,9.13,.7,2.06,1.26,4.16,1.7,6.28,.34,1.63,.66,3.27,.67,4.96,0,1.17,.19,2.34,.17,3.5-.03,2.05-.22,4.08-.58,6.11-.48,2.69-1.28,5.27-2.23,7.82-1.42,3.81-3.21,7.43-5.33,10.9-.54,.89-1.07,1.8-1.63,2.68-1.89,2.96-3.94,5.8-6.18,8.51-.45,.55-.82,1.16-1.28,1.7-1.51,1.79-3.02,3.57-4.56,5.33-1.23,1.42-2.47,2.84-3.76,4.2-2.61,2.77-5.29,5.46-8.13,8-.44,.39-.85,.8-1.28,1.2-.57,.55-1.22,.82-2.03,.8-1.34-.04-2.68-.01-4.01-.01-4.47,0-8.95,0-13.42,0-1.16,0-1.17,0-1.17,1.18,0,7.32,0,14.64,0,21.95,0,1.23,.09,1.17,1.19,1.17,7.53,0,15.05-.01,22.58,0,2.75,0,5.41-.49,7.97-1.45,2.57-.96,4.87-2.38,6.93-4.2,2.63-2.32,5.22-4.69,7.68-7.2,1.76-1.79,3.5-3.58,5.25-5.38,.32-.33,.62-.68,.91-1.03,.52-.63,1.14-1.07,1.95-1.29,2.53-.7,5.06-1.43,7.59-2.16,2.21-.64,4.41-1.29,6.61-1.93,2.41-.7,4.81-1.38,7.22-2.08,2.13-.62,4.25-1.24,6.37-1.86,2.49-.72,4.97-1.43,7.46-2.14,2.21-.64,4.41-1.29,6.61-1.92,2.45-.7,4.9-1.39,7.34-2.1,2.04-.59,4.08-1.21,6.13-1.81,1.8-.53,3.61-1.04,5.41-1.57,1.2-.35,2.41-.69,3.61-1.05,.56-.17,1.13-.31,1.72-.28,.88,.06,1.49,.58,1.64,1.44,.08,.45,.11,.91,.12,1.37,0,4.01,0,8.03,0,12.04,0,.42-.06,.83-.09,1.25-.05,.64-.39,1.09-.93,1.39-.25,.14-.51,.29-.78,.4-3.83,1.68-7.55,3.56-11.14,5.7-3.46,2.05-6.76,4.32-9.76,7-1.69,1.51-3.2,3.17-4.46,5.06-1.72,2.57-3.47,5.12-5.16,7.7-1.35,2.06-2.64,4.16-3.95,6.25-1.2,1.91-2.37,3.84-3.58,5.74-2.25,3.52-4.5,7.04-6.94,10.43-2.93,4.07-6.04,8-9.66,11.5-2.31,2.24-4.79,4.29-7.52,6.01-2.27,1.43-4.67,2.57-7.2,3.47-2.22,.79-4.51,1.22-6.83,1.54-.78,.11-1.58,.1-2.38,.13-.71,.02-1.42,.02-2.13,.02-37.05,0-74.1,0-111.15,0-1.51,0-3.01-.03-4.52-.07-1.59-.04-3.17-.17-4.74-.43-.33-.05-.67-.05-1-.09-1.83-.21-3.64-.53-5.43-.94-1.26-.29-2.53-.56-3.78-.87-.89-.22-1.78-.47-2.65-.76-2.33-.79-4.66-1.59-6.93-2.56-3.93-1.68-7.68-3.69-11.24-6.03-4.3-2.84-8.28-6.08-11.89-9.76-2.32-2.36-4.47-4.86-6.45-7.5-2.46-3.28-4.64-6.75-6.5-10.4-1.72-3.39-3.24-6.88-4.35-10.52-.49-1.6-1.02-3.18-1.42-4.8-.42-1.7-.75-3.43-1.07-5.15-.21-1.11-.33-2.23-.5-3.34-.47-3.02-.51-6.08-.67-9.12-.03-.67-.05-1.34,.15-1.99,.21-.69,.64-1.16,1.36-1.32,.28-.06,.58-.09,.87-.11,.29-.02,.59,0,.88,0,20.11,0,40.23,0,60.34,0,.46,0,.92,0,1.38,.04,1.3,.12,1.88,1.19,1.92,2.11,.02,.33,.02,.68-.04,1-.28,1.51-.04,3.01,.16,4.49,.56,4.21,2.31,7.91,4.98,11.18,.92,1.13,1.93,2.19,3.16,3,.95,.96,2.12,1.61,3.28,2.26,1.46,.82,3.01,1.46,4.63,1.88,2.11,.55,4.25,.82,6.44,.81,9.78-.03,19.55-.01,29.33-.01,.25,0,.5,0,.75,0,.33-.02,.48-.15,.49-.44,.01-.33,.01-.67,.01-1,0-7.15,0-14.29,0-21.44,0-1.54,.13-1.42-1.42-1.42-7.73,0-15.46,0-23.19,0-.42,0-.83,.04-1.25,.07Z"/>
      <path d="M96.86,226.77c-.31,0-.63,0-.94-.03-2.4-.18-4.59-1.46-5.87-3.43-1.3-2.01-1.56-4.52-.7-6.89,.3-.82,.68-1.4,.89-1.71l9.61-15.05,5.94-9.28s5.61-8.8,6.87-10.78c.92-1.43,1.84-2.86,2.76-4.29l2.25-3.51c.63-.98,3.63-5.7,3.63-5.7l4.19-6.54s3.5-5.49,4.25-6.66l3.05-4.75c1.44-2.24,2.88-4.49,4.32-6.74,1.67-2.62,3.34-5.24,5-7.86l2.73-4.29c.68-1.07,2.3-3.6,2.3-3.6,1.26-1.97,3.18-3.22,5.41-3.52,.38-.05,.76-.08,1.13-.08,2.95,0,5.49,1.63,6.79,4.35,.63,1.31,1.22,2.63,1.75,3.92,.88,2.11,1.74,4.23,2.58,6.36,1.4,3.55,2.48,6.48,3.4,9.24l.41,1.24c.59,1.77,1.17,3.53,1.72,5.31,.48,1.55,.89,3.1,1.29,4.59l.21,.78c.23,.86,.45,1.72,.67,2.58l.35,1.36c.59,2.3,1.01,4.57,1.42,6.76l.11,.61c.57,3.09,.96,6.32,1.19,9.87l.03,.49c.1,1.46,.19,2.97,.13,4.6-.06,1.6-.2,3.15-.33,4.65l-.02,.24c-.39,4.49-1.78,8.5-3.09,11.83-1.22,3.11-2.71,6.37-4.54,9.96-1.58,3.1-3.32,6.13-4.97,8.94-.36,.62-.74,1.24-1.11,1.86l-.76,1.28c-1.45,2.46-3.94,3.87-6.82,3.87-.03,0-57.22,0-57.22,0Z"/>
      <path class="cls-1" d="M125.18,221.09c-9.24,0-18.48,0-27.72,0-.38,0-.75,.02-1.13-.01-1.25-.09-2.2-1.21-1.65-2.73,.08-.23,.24-.44,.37-.65,1.44-2.25,2.87-4.51,4.31-6.76,1.75-2.74,3.5-5.49,5.26-8.23,1.98-3.1,3.96-6.19,5.94-9.28,2.29-3.59,4.57-7.19,6.87-10.78,1.66-2.6,3.34-5.2,5.01-7.8,1.22-1.9,2.42-3.8,3.63-5.7,1.39-2.18,2.8-4.36,4.19-6.54,1.42-2.22,2.83-4.44,4.25-6.65,2.45-3.83,4.92-7.66,7.37-11.49,2.58-4.05,5.16-8.1,7.74-12.15,.76-1.2,1.53-2.39,2.29-3.59,.33-.52,.77-.88,1.4-.96,.94-.13,1.62,.21,2.04,1.09,.57,1.21,1.12,2.43,1.64,3.66,.87,2.08,1.71,4.17,2.54,6.27,1.17,2.95,2.29,5.92,3.29,8.93,.71,2.14,1.43,4.28,2.09,6.43,.53,1.71,.98,3.45,1.45,5.18,.35,1.29,.66,2.59,1,3.88,.59,2.31,1.01,4.65,1.44,6.99,.56,3.04,.91,6.11,1.1,9.2,.1,1.5,.21,3,.15,4.51-.06,1.54-.2,3.08-.33,4.62-.31,3.57-1.42,6.93-2.72,10.25-1.27,3.23-2.74,6.37-4.31,9.46-1.5,2.94-3.14,5.8-4.81,8.65-.61,1.04-1.24,2.08-1.86,3.12-.45,.76-1.12,1.09-1.98,1.08-.33,0-.67,0-1,0-9.28,0-18.57,0-27.85,0Z"/>
    </g>
  </g>
</svg>