<?xml version="1.0" encoding="UTF-8"?>
<svg xmlns="http://www.w3.org/2000/svg" viewBox="0 0 1093.56 264.68">
  <defs>
    <style>
      .cls-1 {
        fill: #fff;
      }

      .cls-2 {
        fill: #131212;
      }

      .cls-3 {
        fill: #100f0b;
      }

      .cls-4 {
        fill: #13110d;
      }

      .cls-5 {
        fill: #12100e;
      }

      .cls-6 {
        fill: #0f0d0a;
      }

      .cls-7 {
        fill: #14100e;
      }

      .cls-8 {
        fill: #14110e;
      }

      .cls-9 {
        fill: #14120e;
      }

      .cls-10 {
        fill: #12100d;
      }

      .cls-11 {
        fill: #13110f;
      }

      .cls-12 {
        fill: #191311;
      }

      .cls-13 {
        fill: #13100d;
      }

      .cls-14 {
        fill: #16110f;
      }

      .cls-15 {
        fill: #13100e;
      }

      .cls-16 {
        fill: #0f0e0a;
      }

      .cls-17 {
        fill: #17140e;
      }

      .cls-18 {
        fill: #0e0d09;
      }

      .cls-19 {
        fill: #19160f;
      }

      .cls-20 {
        fill: #0e0c09;
      }
    </style>
  </defs>
  <g id="_лой_1" data-name="Слой 1"/>
  <g id="_лой_2" data-name="Слой 2">
    <g id="_лой_6" data-name="Слой 6">
      <g>
        <g>
          <path class="cls-10" d="M166.92,86.64c2.19,5.62,3.33,11.52,2.83,17.48-.64,7.69-1.78,15.35-2.97,22.98-1.22,7.78-5.7,13.82-11.07,19.29-7.91,8.06-17.58,12.78-28.6,14.72-2.79,.49-5.74,.15-8.61,.06-1.88-.05-3.77-.22-5.62-.54-5.78-.98-11.24,.33-16.64,2.13-1.97,.66-3.95,1.35-5.84,2.21-3.78,1.72-7.64,1.91-11.63,.98-2.31-.53-4.64-1.06-6.99-1.39-4.39-.61-8.27,.43-11.24,3.96-3.59,4.27-6.06,9.14-6.87,14.63-1.16,7.75-1.92,15.56-2.88,23.33-.33,2.72,.2,5.3,.85,7.93,.97,3.94,1.81,7.93,2.44,11.93,.7,4.37,.13,8.72-1.2,12.93-1.39,4.44-2.86,8.86-4.39,13.26-.51,1.49-1.2,2.94-2.01,4.29-.61,1-1.39,2.1-2.38,2.6-7.27,3.68-14.78,6.3-23.13,4.35-.87-.2-1.73-.45-2.59-.68-7.97-2.14-12.43-7.72-14.79-15.28-1.24-3.99-1.94-8.09-1.83-12.3,.06-2.38,.01-4.77,.01-7.15l1.95-24.62c.85-9.29,1.94-18.59,1.52-27.92-.17-3.92-1.03-7.86-1.96-11.69-1.44-5.89-2.7-11.81-2.99-17.86-.17-3.55,.24-7.13,.52-10.69,.66-8.3,1.53-16.59,2.03-24.9,.21-3.55-.29-7.13-.49-10.7-.88-15.9,3.82-29.93,14.2-41.99,3.16-3.68,6.53-7.2,9.97-10.63,2.69-2.69,6.1-3.91,9.94-4.14,4.25-.26,8.49-.8,12.73-1.17,5.39-.46,10.7,.07,15.94,1.41,2.65,.68,5.26,.64,7.94,.02,3.57-.82,7.17-1.49,10.77-2.18,4.29-.81,8.46-.49,12.57,1.07,2.22,.84,4.52,1.43,6.8,2.1,4.45,1.31,8.86-.16,13.3-.2,3.56-.04,7.18-.44,10.69-.02,9.51,1.13,16.67,6.57,22.65,13.61,7.31,8.6,12.97,18.24,17.09,28.77Zm-4.95,24.08c.42-3.12,.79-6.32,.6-9.45-.34-5.33-1.78-10.45-4.14-15.29-3.03-6.22-6.37-12.24-10.64-17.74-3.47-4.46-6.93-8.87-11.8-11.94-4.48-2.82-9.42-4.05-14.63-3.93-3.93,.1-7.84,.77-11.77,1.01-4.4,.26-8.56-1.03-12.68-2.39-3.07-1.01-6.01-2.73-9.38-2.28-3.89,.52-7.8,1.05-11.6,2-4.42,1.1-8.68,1.05-13.1-.04-5.47-1.34-11.04-2.07-16.7-.89-2.01,.42-4.13,.77-6.16,.61-4.16-.32-7.27,1.42-9.9,4.35-2.44,2.71-4.78,5.53-7.21,8.27-8,9.04-11.55,19.81-12.12,31.65-.16,3.43,.34,6.9,.52,10.35,.4,7.54-.45,15.01-1.21,22.48-.21,2.06-.49,4.11-.74,6.16-.33,2.73-.82,5.45-.95,8.2-.33,6.66,1.19,13.11,2.69,19.53,1.04,4.42,2.21,8.82,1.97,13.39-.19,3.73-.57,7.46-1.1,11.16-1.14,7.87-2.26,15.76-3.73,23.57-1.32,7-2.34,13.99-2.22,21.12,0,1.59-.04,3.18,0,4.76,.17,6.14,1.63,11.86,5.2,16.98,1.41,2.03,3.19,3.39,5.39,4.42,5.7,2.68,11.57,2.75,17.66,1.84,2.7-.4,4.43-1.11,5.11-4.07,.42-1.85,2.03-3.4,2.7-5.23,1.6-4.44,3.03-8.95,4.37-13.47,.46-1.58,.54-3.3,.66-4.96,.38-5.29-.58-10.47-2.03-15.47-1.25-4.27-.72-8.39-.21-12.56,.59-4.97,1.79-9.89,2.09-14.87,.35-5.6,1.42-10.93,3.8-15.97,2.1-4.48,4.45-8.85,8.56-11.86,3.54-2.59,7.6-3.86,11.94-3.45,3.21,.3,6.39,1.1,9.52,1.89,2.71,.68,5.26,.5,7.83-.44,3.05-1.12,6.06-2.38,9.17-3.28,5.92-1.7,11.89-2.41,18.11-1.44,3.59,.55,7.41,.6,10.98,0,7.1-1.19,13.49-4.4,19.25-8.66,2.5-1.85,4.42-4.48,6.75-6.6,4.18-3.8,5.9-8.76,6.87-14.08,.8-4.44,1.65-8.88,2.25-13.35Z"/>
          <path class="cls-1" d="M162.57,101.27c.2,3.13-.18,6.32-.6,9.45-.6,4.47-1.45,8.91-2.25,13.35-.97,5.33-2.69,10.28-6.87,14.08-2.32,2.12-4.24,4.74-6.75,6.6-5.75,4.26-12.15,7.47-19.25,8.66-3.57,.6-7.4,.55-10.98,0-6.22-.97-12.19-.26-18.11,1.44-3.11,.9-6.12,2.16-9.17,3.28-2.57,.94-5.13,1.12-7.83,.44-3.14-.79-6.32-1.59-9.52-1.89-4.35-.41-8.4,.86-11.94,3.45-4.11,3.02-6.46,7.38-8.56,11.86-2.37,5.05-3.45,10.37-3.8,15.97-.3,4.98-1.5,9.9-2.09,14.87-.5,4.17-1.03,8.29,.21,12.56,1.45,4.99,2.41,10.18,2.03,15.47-.12,1.66-.2,3.38-.66,4.96-1.34,4.52-2.77,9.03-4.37,13.47-.67,1.83-2.28,3.38-2.7,5.23-.68,2.96-2.41,3.67-5.11,4.07-6.09,.91-11.96,.84-17.66-1.84-2.21-1.04-3.98-2.4-5.39-4.42-3.56-5.12-5.03-10.84-5.2-16.98-.04-1.59,0-3.18,0-4.76-.11-7.13,.9-14.12,2.22-21.12,1.47-7.81,2.59-15.7,3.73-23.57,.54-3.7,.91-7.43,1.1-11.16,.23-4.57-.94-8.97-1.97-13.39-1.5-6.42-3.02-12.86-2.69-19.53,.13-2.75,.62-5.47,.95-8.2,.24-2.05,.53-4.1,.74-6.16,.76-7.47,1.61-14.94,1.21-22.48-.18-3.45-.69-6.91-.52-10.35,.57-11.84,4.12-22.61,12.12-31.65,2.43-2.74,4.76-5.55,7.21-8.27,2.63-2.92,5.74-4.67,9.9-4.35,2.03,.15,4.14-.2,6.16-.61,5.66-1.17,11.23-.44,16.7,.89,4.42,1.08,8.68,1.13,13.1,.04,3.8-.95,7.71-1.48,11.6-2,3.37-.45,6.31,1.26,9.38,2.28,4.12,1.36,8.28,2.65,12.68,2.39,3.93-.24,7.84-.91,11.77-1.01,5.21-.13,10.15,1.11,14.63,3.93,4.87,3.06,8.32,7.48,11.8,11.94,4.27,5.5,7.61,11.52,10.64,17.74,2.36,4.84,3.8,9.96,4.14,15.29Zm-40.01,9.82c2.93-5.25,4.61-11.44,3.54-17.44-1.08-6.1-5.65-11.72-12.05-12.42-6.79-.74-13.25,3.41-18.79,6.8-2.19,1.35-4.45,3.11-6.94,4.01-.01,0-.03,0-.04,.01-.45,.12-.89,.25-1.34,.38-.27,.06-.55,.11-.83,.14-.73,.08-1.43,.14-2.1,.21-.85-.8-2.03-1.31-3.53-1.31-.61,0-1.17,.09-1.67,.24-.79-.57-1.82-.92-3.06-.91-6.96,.04-13.71,1.38-18.55,6.79-2.16,2.41-1.9,4.85-.64,7.56,1.3,2.8,2.06,5.82,2.52,8.89,.78,5.2,3.68,9.02,8.49,11.13,6.71,2.93,14.33,4.88,21.64,3.5,3.7-.7,7.21-2.28,10.69-3.67,3.06-1.22,6.26-1.75,9.39-2.73,6-1.88,10.25-5.74,13.3-11.2Z"/>
        </g>
        <path class="cls-1" d="M6.53,230.54c-.28-7.12,.59-14.14,1.75-21.16,1.3-7.85,2.24-15.75,3.21-23.65,.45-3.71,.74-7.45,.85-11.18,.13-4.57-1.14-8.95-2.27-13.34-1.65-6.39-3.31-12.8-3.13-19.46,.07-2.74,.5-5.48,.76-8.22,.2-2.06,.44-4.11,.6-6.17,.59-7.49,1.28-14.98,.71-22.5-.26-3.45-.84-6.9-.75-10.34,.3-11.85,3.61-22.7,11.41-31.91,2.36-2.79,4.64-5.66,7.02-8.43,2.56-2.98,5.63-4.79,9.8-4.56,2.03,.11,4.14-.29,6.14-.75,5.63-1.3,11.22-.7,16.71,.52,4.45,.98,8.7,.94,13.1-.26,3.78-1.03,7.68-1.65,11.55-2.26,3.36-.53,6.33,1.12,9.43,2.07,4.15,1.27,8.34,2.47,12.73,2.11,3.92-.32,7.82-1.09,11.74-1.27,5.2-.24,10.17,.88,14.71,3.6,4.94,2.95,8.49,7.29,12.06,11.67,4.4,5.4,7.86,11.35,11.04,17.5,2.47,4.78,4.01,9.87,4.47,15.19,.27,3.12-.03,6.32-.38,9.45-.5,4.48-1.25,8.94-1.96,13.4-.85,5.35-2.46,10.34-6.55,14.24-2.28,2.17-4.14,4.83-6.6,6.75-5.65,4.39-11.98,7.74-19.04,9.09-3.56,.68-7.39,.72-10.99,.25-6.24-.82-12.19,.01-18.07,1.85-3.09,.97-6.07,2.3-9.09,3.48-2.55,1-5.1,1.24-7.82,.62-3.15-.72-6.35-1.44-9.56-1.67-4.36-.32-8.39,1.05-11.86,3.72-4.05,3.11-6.3,7.52-8.3,12.05-2.26,5.1-3.22,10.45-3.44,16.05-.19,4.98-1.28,9.93-1.76,14.91-.4,4.18-.84,8.32,.5,12.56,1.56,4.96,2.64,10.12,2.38,15.42-.08,1.66-.12,3.38-.55,4.97-1.24,4.55-2.57,9.09-4.07,13.56-.62,1.85-2.2,3.43-2.58,5.29-.61,2.97-2.33,3.72-5.02,4.19-6.07,1.05-11.94,1.1-17.69-1.44-2.23-.99-4.04-2.31-5.49-4.3-3.68-5.04-5.27-10.73-5.58-16.86-.08-1.59-.08-3.18-.11-4.77Zm37.04,7.49c.27-.39,.72-.75,.78-1.16,.5-3.46,.93-6.93,1.36-10.4,.03-.27-.1-.57-.17-.86-.39-1.57-1.59-1.52-2.82-1.42-1.19,.1-1.76,.77-1.76,1.94,0,1.18,.01,2.36,.02,3.54l-1.26-2.15c-.58,3.22-1.19,5.78-1.48,8.37-.31,2.72-.63,5.51-.37,8.21,.24,2.53-1.26,5.07,.22,7.65,1.15-1.44,2.16-2.89,2.72-4.49,1.06-3.03,1.86-6.14,2.77-9.22Zm-4.8-53.01c-3.54,0-5.52,2.19-5.06,5.55,.24,1.74,.45,3.49,.61,5.25,.25,2.93,1.23,5.61,2.43,8.32,2.17-1.83,3.28-4.96,3.6-9.75,1.02,.16,1.42-.47,1.64-1.31,.33-1.23,.73-2.44,.93-3.69,.31-2.03,.52-4.08,.69-6.12,.08-.97-.31-1.79-1.4-1.94-1.11-.15-2.26-.14-2.75,1.14-.32,.81-.46,1.69-.68,2.54ZM123.72,59.64c-1.24,.6-1.26,1.41-.8,2.66,1.23,3.38,3.26,6.21,5.71,8.75,.87,.9,1.88,1.78,2.99,2.31,2.93,1.39,4.97,.32,5.56-2.75,1.17,.75,2.1,2.08,4.13,1.57-.03-1.14-.04-2.29-.08-3.44-.12-3.39-1.47-4.17-4.79-2.78-.23-.27-.43-.57-.69-.8-.37-.33-.78-.62-1.18-.93,.42-5-4.42-9.31-8.11-10.84-.69-.28-1.54-.31-2.3-.25-1.8,.14-3.29,1.55-3.44,3.09-.12,1.25,.75,2.25,2.59,3.02,.16,.07,.27,.26,.41,.4Zm1.31,30.46h-.05c-.05-2.38-.08-4.77-.17-7.15-.14-3.72-2.33-6.59-5.87-7.67-4.15-1.27-8.2-.24-12.25,.61-5.24,1.1-10.14,3.22-14.91,5.51-5.14,2.47-10.28,3.82-15.97,2.51-6.81-1.56-12.37,1.47-17.44,5.39-4.39,3.39-5.7,8.45-5.81,13.71-.07,3.43,.69,6.88,.71,10.32,.02,3.93,1.51,7.26,3.3,10.6,1.04,1.94,2.51,3.46,4.45,4.18,2.46,.92,5.1,1.75,7.69,1.85,7.22,.28,14.45,.21,21.67,.19,4.77-.01,9.4-1.04,13.83-2.74,3.81-1.46,7.36-3.47,9.56-7.11,1.12-1.85,2.1-3.83,2.84-5.85,1.48-4.03,3.49-7.69,6.29-10.97,1.71-2.01,2.48-4.43,2.3-7.14-.14-2.08-.11-4.17-.16-6.25Zm20.37,17.88c1.6-3.78,1.76-7.1,1.69-10.38-.04-1.71-.64-3.45-1.18-5.11-.63-1.95-1.98-2.74-3.74-2.46-1.92,.31-2.35,.87-2.22,3.4,.06,1.16,.29,2.34,.64,3.44,.8,2.52,1.65,5.03,2.63,7.48,.44,1.11,1.23,2.08,2.18,3.62ZM77.32,57.82c-2.82-2.88-9.03-3.93-12.32-2.41-1.34,.62-2.07,1.69-2.04,2.96,.02,1.28,.77,2.47,2.21,2.8,.84,.19,1.78,.44,2.57,.24,2.82-.74,5.59-1.63,8.37-2.53,.41-.13,.71-.6,1.22-1.05Zm73.6,47.04c3-2.32,4.5-8.15,2.94-11.39-.73-1.53-1.96-2.06-3.65-1.58-1.42,.4-2.23,1.85-1.8,3.55,.77,3.1,1.64,6.18,2.51,9.43Zm-58.87,37.02c-1.27,.33-2.34,.51-3.33,.89-1.49,.58-2.11,1.71-1.81,2.98,.31,1.31,1.78,2.63,3.04,2.23,2.42-.76,4.77-1.76,7.05-2.88,.96-.47,.78-1.61-.3-1.99-1.55-.55-3.18-.86-4.65-1.24Zm9.22-69.56c-.32-.26-.48-.5-.62-.49-2.53,.14-5.06,.29-7.59,.48-.67,.05-1.36,.18-1.99,.4-1.14,.39-1.89,1.19-1.55,2.47,.34,1.27,1.23,2.03,2.61,1.88,.76-.08,1.54-.29,2.25-.59,2.47-1.01,4.97-2,6.89-4.14Zm-54.57-14.78c-1.96-1.99-4.22-1.5-6.33-1.3-1.47,.14-2.67,2.32-2.22,3.57,.59,1.63,2.12,2.43,3.53,1.55,1.71-1.07,3.23-2.43,5.02-3.82Zm-5.76,155.49c1.54-2.34,1.74-4.89,2.38-7.29,.06-.23-.11-.63-.31-.79-.65-.52-1.37-1.36-2.04-1.34-1.3,.04-2.1,1.17-2.15,2.41-.11,2.46,.39,4.81,2.12,7Z"/>
        <path class="cls-10" d="M127.59,92.83c0,2.09-.08,4.17,.02,6.25,.12,2.71-.7,5.11-2.45,7.09-2.87,3.21-4.96,6.84-6.53,10.83-.79,2.01-1.82,3.96-2.97,5.79-2.28,3.59-5.87,5.52-9.71,6.9-4.47,1.6-9.11,2.52-13.88,2.43-7.22-.14-14.46-.23-21.66-.68-2.59-.16-5.2-1.05-7.64-2.02-1.92-.76-3.36-2.32-4.35-4.28-1.71-3.38-3.12-6.74-3.06-10.67,.06-3.44-.63-6.9-.48-10.33,.23-5.26,1.65-10.29,6.12-13.58,5.16-3.8,10.78-6.71,17.56-5,5.66,1.43,10.82,.19,16.02-2.16,4.82-2.18,9.77-4.19,15.03-5.17,4.06-.76,8.14-1.7,12.26-.34,3.52,1.16,5.64,4.08,5.7,7.8,.03,2.38,0,4.77,0,7.15h.05Zm-45.85,31.48v.08c2.98,0,5.96,.07,8.93-.02,4.28-.12,8.43-.98,12.52-2.28,4.04-1.28,7-3.54,8.5-7.61,.58-1.57,1.35-3.1,2.21-4.54,1.16-1.95,2.25-4.04,3.82-5.63,2.14-2.18,2.9-4.63,2.81-7.54-.09-3.08-.13-6.15-.22-9.23-.07-2.44-.54-3.11-2.99-2.95-2.75,.18-5.57,.48-8.16,1.34-5.44,1.81-10.78,3.94-16.11,6.08-3.6,1.45-7.27,1.9-11.08,1.35-1.27-.18-2.56-.35-3.8-.69-3.99-1.08-7.65-.12-11.21,1.64-2.83,1.4-4.72,3.63-5.53,6.65-.59,2.19-1.05,4.45-1.3,6.7-.74,6.69-.58,6.96,3.36,12.31,2.03,2.76,4.8,4.15,8.12,4.3,3.37,.16,6.75,.03,10.12,.03Z"/>
        <path class="cls-5" d="M137.71,67.18c-.84-.32-1.72-.55-2.5-.97-2.69-1.42-5.07-3.47-8.24-3.85-.13-.14-.24-.33-.4-.41-1.82-.81-2.67-1.83-2.53-3.08,.18-1.54,1.7-2.91,3.5-3.02,.76-.04,1.61,0,2.29,.3,3.66,1.61,8.4,6.03,7.87,11.02Z"/>
        <path class="cls-11" d="M153.15,108.16c-.8-3.27-1.6-6.36-2.3-9.48-.39-1.71,.45-3.14,1.88-3.51,1.7-.44,2.92,.12,3.62,1.67,1.48,3.28-.15,9.07-3.2,11.33Z"/>
        <path class="cls-11" d="M42.85,238.92c-.41-1.03-.91-2.04-1.19-3.1-.48-1.75-.81-3.54-1.21-5.31,.02-1.18,.02-2.36,.06-3.54,.03-1.16,.62-1.83,1.8-1.9,1.23-.07,2.44-.1,2.79,1.48,.06,.28,.19,.59,.15,.86-.51,3.46-1.02,6.92-1.59,10.37-.07,.42-.53,.77-.8,1.15Z"/>
        <path class="cls-11" d="M40.59,195.23c-.45-3.14-.91-6.27-1.36-9.41,.24-.84,.4-1.72,.73-2.53,.53-1.27,1.67-1.25,2.78-1.08,1.08,.17,1.46,1,1.36,1.97-.22,2.04-.47,4.08-.83,6.1-.22,1.24-.65,2.45-1.01,3.67-.24,.83-.66,1.45-1.67,1.27Z"/>
        <path class="cls-11" d="M104.24,74.53c-1.96,2.09-4.49,3.03-6.98,3.98-.72,.28-1.5,.47-2.26,.54-1.38,.12-2.26-.66-2.57-1.94-.31-1.29,.45-2.06,1.6-2.43,.64-.2,1.33-.32,2-.35,2.53-.13,5.06-.23,7.6-.31,.14,0,.3,.24,.61,.51Z"/>
        <path class="cls-2" d="M40.79,213.86c-1.68-2.23-2.13-4.59-1.97-7.05,.08-1.24,.9-2.35,2.21-2.36,.67,0,1.38,.85,2.01,1.38,.19,.16,.36,.57,.29,.79-.69,2.38-.95,4.93-2.54,7.23Z"/>
        <path class="cls-11" d="M140.18,73.62c-.97-1.45-.87-3.05-.64-4.67,3.35-1.32,4.68-.51,4.73,2.89,.02,1.15,0,2.3,0,3.44-2.04,.47-2.94-.88-4.09-1.66Z"/>
      </g>
      <g>
        <g>
          <path class="cls-10" d="M371.41,165.17c1.18,12.99,2.14,26.01,1.07,39.1-1.02,12.41-2.62,24.74-5,36.96-.66,3.4-1.78,6.73-2.9,10.01-1.24,3.64-3.45,6.7-6.33,9.28-3.96,3.55-8.42,4.3-13.33,2.47-1.11-.42-2.3-.86-3.19-1.6-4.05-3.38-8.24-6.64-11.92-10.39-4.16-4.24-4.65-9.96-4.98-15.58-.32-5.4,.35-10.73,.89-16.09,.38-3.84,.27-7.74,.21-11.62-.02-1.31-.57-2.62-1.04-4.63-1.35,2.38-2.34,4.09-3.29,5.82-2.75,5-5.67,9.82-10.32,13.4-2.9,2.23-6,3.93-9.62,4.52-2.44,.39-4.57,1.37-6.43,2.97-5.27,4.57-10.76,8.91-15.78,13.74-8.97,8.65-19.39,14.6-31.45,17.57-7.57,1.87-15.27,3.05-23.09,1.67-2.24-.39-4.4-1.19-6.59-1.85-3.43-1.01-6.83-2.15-10.28-3.05-4-1.04-7.38-3.04-9.91-6.29-6.19-7.97-10.78-16.73-12.47-26.77-.38-2.25-.32-4.57-.3-6.85,.13-10.36,.19-20.73,.51-31.08,.38-12.55,.95-25.08,1.53-37.62,.52-10.98,.17-21.92-.88-32.84-.87-9.1-2.17-18.17-3.19-27.26-.4-3.55-.53-7.15-.85-10.72-.05-.6-.11-1.62-.09-2.28-.55-3.41-.16-5.41-.16-8.8-.1-.49,.06-1.46,.24-1.7,2.26-11.32,9.51-18.04,20.03-21.68,1.93-.66,4.1-.93,6.15-.92,4.38,0,8.78,.23,13.15,.54,1.35,.1,2.75,.53,3.95,1.15,9.27,4.88,13.9,12.92,14.85,23.04,1.2,12.93,1.27,25.88-.74,38.76-1.55,9.92-1.44,19.84-.26,29.78,1.08,9.19,2.23,18.38,3.15,27.59,.5,4.95,.6,9.94,.87,14.91,.21,3.73,1.45,6.97,4.25,9.57,1.58,1.45,3.37,2.11,5.48,1.76,1.27-.21,2.52-.57,3.79-.83,4.77-1,8.22-3.51,10.44-8.04,1.46-3,3.74-5.6,5.6-8.42,.87-1.33,1.65-2.71,2.42-4.1,1.85-3.29,3.51-6.7,5.52-9.88,3.15-4.97,7.53-8.5,13.36-9.87,7.19-1.67,11.52-6.2,13.09-13.19,1.42-6.3,2.58-12.68,3.41-19.08,1.15-8.89,2.07-17.81,2.75-26.74,.56-7.34,.64-14.72,.9-22.1,.23-6.7,2.41-12.87,5.01-18.93,1.17-2.73,3.5-4.3,6.26-5.18,6.99-2.22,14.1-2.58,21.26-1.02,3,.65,5.99,1.54,8.84,2.68,2.23,.89,4.7,1.82,5.16,4.78,.05,.32,.51,.6,.8,.85,4.15,3.52,5.63,8.26,6.32,13.45,1.05,7.97,.62,15.9-.37,23.83-.75,6.13-1.34,12.27-2.06,18.41-1.17,10,.1,19.9,1.38,29.77,1.24,9.57,3.31,19.05,4.19,28.64Zm-6.39,40.46c.33-10.53,.33-21.07-1.03-31.57-.59-4.51-.82-9.08-1.42-13.59-1.26-9.61-2.95-19.17-3.9-28.81-.76-7.71,.03-15.47,1.26-23.14,1-6.15,2.11-12.3,2.62-18.5,.56-6.92,.66-13.89,.61-20.85-.02-3.12-.78-6.27-1.45-9.34-.85-3.89-4.06-6-6.91-8.29-.55-.44-1.49-.43-2.27-.53-4.13-.53-8.28-.91-12.39-1.53-3.91-.61-7.67-.26-11.48,.72-1.94,.51-3.35,1.55-3.92,3.28-1.27,3.84-2.57,7.71-3.27,11.68-.63,3.58-.49,7.31-.69,10.98-.41,7.43-.79,14.87-1.24,22.3-.13,2.07-.38,4.14-.64,6.21-.73,5.78-1.49,11.56-2.27,17.34-.74,5.59-1.31,11.18-2.95,16.62-2.43,8.06-7.1,13.88-15.35,16.42-4.08,1.27-7.83,3.15-10.22,6.8-2.06,3.14-3.7,6.56-5.57,9.84-1.22,2.14-2.41,4.31-3.78,6.36-2.08,3.13-4.48,6.06-6.44,9.27-2.33,3.83-5.43,6.57-9.72,7.87-2.36,.71-4.77,1.24-7.17,1.85-6.09,1.56-10.57-.98-14.35-5.51-3.1-3.71-4.13-8.04-4.17-12.72-.02-2.59,.16-5.2-.1-7.76-.65-6.4-1.59-12.76-2.24-19.16-.69-6.9-1.28-13.82-1.76-20.73-.6-8.56,0-17.1,1.24-25.56,.95-6.48,1.71-12.97,1.6-19.53-.09-4.86-.36-9.73-.48-14.6-.13-5.06-1.57-9.76-3.82-14.23-.56-1.12-1.45-2.18-2.42-2.97-1.68-1.39-3.57-2.51-5.32-3.82-1.27-.95-2.63-1.33-4.19-1.22-2.47,.17-5.05,.8-7.4,.34-3.58-.7-6.72,.22-9.81,1.51-6.25,2.62-11.05,6.84-12.75,13.61-1.04,4.12-1.19,8.44-.89,12.72,.15,1.97,.33,3.94,.45,5.93,.23,3.96,.4,7.93,.67,11.89,.15,2.07,.02,4.32,.81,6.15,1.73,4.01,1.54,8.15,1.56,12.31,.02,3.49-.11,6.98,.07,10.46,.21,4.15,.8,8.29,.97,12.44,.11,2.75-.33,5.54-.4,8.31-.24,9.94-.45,19.89-.64,29.84-.07,3.98-.02,7.97-.12,11.95-.06,2.58-.46,5.15-.4,7.71,.09,3.97,.44,7.93,.67,11.89-.15,0-.28,.02-.43,.03,.27,4.16,.53,8.32,.8,12.48,.71,10.67,5.12,19.84,11.56,28.15,1.83,2.35,4.19,3.84,7.2,4.41,2.32,.45,4.57,1.28,6.84,1.98,.95,.29,1.87,.67,2.78,1.04,3.81,1.55,7.74,2.28,11.87,1.81,4.42-.51,8.95-.54,13.27-1.54,11.06-2.56,20.62-8,28.87-15.86,4.68-4.44,9.66-8.58,14.61-12.74,3.12-2.63,6.49-4.82,10.7-5.52,4.3-.71,7.72-3.09,10.28-6.56,2.18-2.94,4.21-6.01,6.17-9.1,1.55-2.44,2.97-4.96,5.61-6.43,3.01-1.67,5.78-1.1,7.27,1.98,1.19,2.46,2.28,5.2,2.42,7.87,.25,4.83-.21,9.72-.43,14.57-.16,3.47-.5,6.93-.59,10.4-.04,1.56,.42,3.13,.51,4.72,.18,3.38,1.22,6.49,3.35,9.05,2.99,3.62,6.4,6.88,10.49,9.25,3.28,1.89,6.66,1.7,8.91-1.13,1.35-1.69,2.68-3.48,3.57-5.42,2.14-4.62,2.81-9.67,3.61-14.64,.77-4.78,1.36-9.6,1.93-14.41,.62-5.01,1.45-10.02,1.6-15.05Z"/>
          <path class="cls-1" d="M363.99,174.07c1.36,10.5,1.36,21.04,1.03,31.57-.16,5.03-.99,10.04-1.6,15.05-.58,4.81-1.16,9.63-1.93,14.41-.8,4.97-1.47,10.02-3.61,14.64-.9,1.94-2.23,3.73-3.57,5.42-2.25,2.83-5.62,3.03-8.91,1.13-4.09-2.36-7.5-5.62-10.49-9.25-2.13-2.56-3.17-5.67-3.35-9.05-.09-1.58-.55-3.15-.51-4.72,.09-3.47,.43-6.93,.59-10.4,.22-4.85,.68-9.74,.43-14.57-.14-2.67-1.23-5.41-2.42-7.87-1.49-3.09-4.27-3.65-7.27-1.98-2.65,1.46-4.06,3.98-5.61,6.43-1.96,3.1-3.99,6.16-6.17,9.1-2.56,3.48-5.99,5.85-10.28,6.56-4.21,.69-7.58,2.89-10.7,5.52-4.95,4.16-9.93,8.3-14.61,12.74-8.25,7.86-17.81,13.3-28.87,15.86-4.32,1.01-8.85,1.04-13.27,1.54-4.13,.47-8.07-.25-11.87-1.81-.92-.37-1.84-.75-2.78-1.04-2.28-.7-4.52-1.53-6.84-1.98-3.01-.58-5.37-2.06-7.2-4.41-6.44-8.31-10.85-17.48-11.56-28.15-.27-4.16-.53-8.32-.8-12.48,.15,0,.28-.02,.43-.03-.23-3.96-.59-7.92-.67-11.89-.06-2.57,.34-5.14,.4-7.71,.1-3.98,.05-7.97,.12-11.95,.2-9.95,.4-19.9,.64-29.84,.07-2.77,.51-5.56,.4-8.31-.17-4.15-.76-8.29-.97-12.44-.18-3.48-.05-6.97-.07-10.46-.02-4.16,.17-8.3-1.56-12.31-.79-1.84-.66-4.08-.81-6.15-.27-3.96-.44-7.93-.67-11.89-.12-1.98-.3-3.95-.45-5.93-.3-4.29-.15-8.6,.89-12.72,1.7-6.77,6.5-10.99,12.75-13.61,3.1-1.29,6.23-2.22,9.81-1.51,2.35,.46,4.93-.18,7.4-.34,1.56-.11,2.92,.27,4.19,1.22,1.75,1.31,3.64,2.43,5.32,3.82,.98,.79,1.87,1.85,2.42,2.97,2.25,4.46,3.69,9.17,3.82,14.23,.12,4.87,.39,9.74,.48,14.6,.11,6.56-.65,13.05-1.6,19.53-1.23,8.47-1.84,17-1.24,25.56,.48,6.91,1.06,13.83,1.76,20.73,.64,6.4,1.58,12.76,2.24,19.16,.25,2.56,.08,5.18,.1,7.76,.04,4.69,1.07,9.01,4.17,12.72,3.79,4.53,8.26,7.07,14.35,5.51,2.39-.61,4.8-1.13,7.17-1.85,4.29-1.3,7.38-4.04,9.72-7.87,1.96-3.2,4.36-6.13,6.44-9.27,1.37-2.05,2.56-4.22,3.78-6.36,1.87-3.28,3.51-6.7,5.57-9.84,2.39-3.64,6.14-5.53,10.22-6.8,8.25-2.55,12.92-8.37,15.35-16.42,1.64-5.44,2.21-11.03,2.95-16.62,.77-5.78,1.53-11.56,2.27-17.34,.26-2.07,.52-4.14,.64-6.21,.45-7.43,.83-14.87,1.24-22.3,.21-3.66,.06-7.39,.69-10.98,.7-3.96,2-7.84,3.27-11.68,.57-1.73,1.97-2.77,3.92-3.28,3.81-.99,7.58-1.33,11.48-.72,4.11,.62,8.26,1.01,12.39,1.53,.77,.1,1.72,.09,2.27,.53,2.85,2.29,6.06,4.4,6.91,8.29,.67,3.08,1.44,6.22,1.45,9.34,.06,6.95-.05,13.92-.61,20.85-.51,6.2-1.62,12.35-2.62,18.5-1.23,7.67-2.02,15.43-1.26,23.14,.95,9.64,2.64,19.2,3.9,28.81,.6,4.51,.83,9.08,1.42,13.59Z"/>
        </g>
        <path class="cls-1" d="M191.55,194.4c-.06-2.57,.34-5.14,.4-7.72,.1-3.98,.04-7.97,.12-11.96,.19-9.95,.39-19.89,.64-29.84,.07-2.77,.51-5.55,.4-8.31-.16-4.15-.76-8.28-.97-12.43-.17-3.48-.05-6.97-.06-10.46-.02-4.16,.17-8.29-1.56-12.31-.79-1.83-.66-4.08-.81-6.15-.28-3.96-.44-7.93-.68-11.89-.12-1.98-.3-3.95-.45-5.93-.31-4.28-.15-8.6,.89-12.72,1.7-6.77,6.51-10.99,12.76-13.61,3.09-1.29,6.23-2.22,9.81-1.52,2.36,.46,4.93-.17,7.41-.34,1.56-.11,2.92,.27,4.19,1.22,1.75,1.31,3.64,2.43,5.33,3.81,.97,.8,1.86,1.85,2.42,2.97,2.24,4.47,3.69,9.17,3.81,14.23,.12,4.87,.39,9.73,.48,14.59,.11,6.56-.65,13.04-1.6,19.53-1.24,8.47-1.84,17-1.24,25.56,.48,6.92,1.06,13.83,1.76,20.73,.65,6.39,1.58,12.76,2.23,19.15,.26,2.57,.08,5.18,.1,7.77,.04,4.68,1.07,9.01,4.17,12.72,3.78,4.53,8.26,7.07,14.35,5.51,2.39-.61,4.81-1.13,7.16-1.85,4.29-1.3,7.38-4.05,9.72-7.87,1.96-3.2,4.36-6.13,6.44-9.26,1.37-2.05,2.56-4.22,3.78-6.37,1.86-3.28,3.5-6.69,5.57-9.84,2.39-3.64,6.14-5.53,10.22-6.79,8.24-2.55,12.92-8.37,15.34-16.42,1.64-5.44,2.21-11.04,2.95-16.62,.77-5.78,1.53-11.56,2.26-17.35,.26-2.06,.52-4.13,.65-6.21,.44-7.43,.83-14.87,1.24-22.3,.2-3.66,.06-7.39,.69-10.98,.7-3.96,2-7.84,3.27-11.67,.57-1.74,1.97-2.77,3.92-3.28,3.81-.99,7.57-1.33,11.48-.73,4.11,.63,8.26,1.01,12.38,1.53,.78,.1,1.72,.09,2.27,.53,2.85,2.29,6.06,4.4,6.91,8.29,.68,3.08,1.43,6.22,1.46,9.35,.06,6.95-.05,13.93-.61,20.85-.5,6.2-1.62,12.35-2.61,18.5-1.24,7.68-2.03,15.43-1.26,23.15,.95,9.63,2.64,19.2,3.9,28.8,.59,4.52,.82,9.08,1.41,13.6,1.36,10.49,1.36,21.04,1.03,31.57-.16,5.03-.99,10.04-1.6,15.04-.58,4.81-1.16,9.63-1.94,14.41-.8,4.97-1.47,10.01-3.61,14.63-.9,1.94-2.23,3.73-3.58,5.42-2.25,2.83-5.62,3.03-8.91,1.13-4.08-2.36-7.5-5.62-10.49-9.24-2.12-2.57-3.17-5.68-3.35-9.06-.08-1.58-.54-3.15-.5-4.71,.09-3.47,.43-6.93,.59-10.4,.22-4.86,.68-9.74,.43-14.57-.14-2.67-1.23-5.41-2.42-7.86-1.49-3.09-4.27-3.66-7.28-1.99-2.65,1.47-4.06,3.99-5.61,6.43-1.97,3.09-4,6.15-6.17,9.1-2.56,3.47-5.98,5.84-10.28,6.55-4.21,.7-7.58,2.9-10.71,5.52-4.95,4.15-9.92,8.3-14.6,12.74-8.26,7.85-17.82,13.29-28.88,15.86-4.31,1-8.85,1.04-13.27,1.54-4.12,.47-8.06-.25-11.87-1.81-.92-.37-1.84-.75-2.79-1.04-2.27-.7-4.52-1.54-6.84-1.98-3.01-.58-5.37-2.06-7.2-4.41-6.45-8.32-10.86-17.48-11.56-28.16-.27-4.16-.53-8.32-.8-12.48m9.89-60.06c-.79,1.62-1.62,2.69-1.82,3.87-.55,3.29-1.09,6.61-1.17,9.94-.09,3.84,.2,7.71,.58,11.54,.2,2.02,.52,4.11,2.15,5.69,2.29,2.21,6.02,1.45,6.84-1.6,.42-1.56,.45-3.3,.27-4.92-.37-3.31-1.02-6.59-1.54-9.89-.68-4.29-1.79-8.46-3.6-12.41-.28-.6-.82-1.08-1.7-2.21Zm2.36-75.74c0,.89-.07,1.79,.02,2.68,.13,1.27,.23,2.57,.61,3.78,.38,1.21,.91,2.43,1.66,3.44,1.6,2.15,5.96,2.89,7.28-1.2,.33-1.02,.57-2.1,.59-3.16,.05-3.28,.12-6.56-.09-9.83-.14-2.23-.66-4.46-1.16-6.65-.36-1.58-1.56-2.1-3.15-2.08-1.77,.03-2.66,1.17-3.42,2.47-1.91,3.26-2.08,6.92-2.32,10.56Zm49.28,168.84c-.21,.05-.85,.06-1.35,.33-3.28,1.82-6.93,2.11-10.52,2.77-2.59,.48-5.16,1.35-7.58,2.42-1.11,.49-2.99,.94-2.84,2.64,.15,1.7,1.82,2.18,3.25,2.62,5.44,1.7,10.94,1.52,16.4,.25,3.06-.71,5.26-2.68,6.33-5.73,.94-2.69-.72-5.34-3.7-5.32Zm96.01-23.8c-.95,1.48-1.76,2.39-2.16,3.44-.65,1.74-1.16,3.55-1.5,5.37-.61,3.28-1.18,6.57-1.51,9.88-.21,2.08,1.15,3.68,2.8,3.91,1.72,.24,3.2-.77,3.79-2.98,.43-1.6,.32-3.33,.72-4.94,.95-3.77,.44-7.45-.44-11.11-.26-1.08-.96-2.05-1.71-3.58Zm-78.8,12.32c.53,.34,.83,.68,1.02,.62,4.95-1.45,9.63-3.49,13.74-6.65,1.59-1.22,1.85-2.87,.93-4.15-.91-1.28-2.97-1.65-4.53-.55-4.2,2.97-8.22,6.17-11.15,10.73ZM349.44,55.77c.46,4.97,2.08,9.28,3.99,13.48,.24,.52,1.64,.94,2.31,.74,.81-.24,1.68-1.06,2.03-1.84,.32-.72,.22-1.84-.12-2.6-1.14-2.52-2.34-5.02-3.77-7.38-.81-1.34-2.14-2.33-4.44-2.4Zm-3.98,12.58c2.83,.01,4.23-1.92,3.04-4.34-1.08-2.19-2.54-4.2-3.92-6.23-.3-.45-.91-.83-1.45-.96-.8-.2-1.91-.48-2.44-.1-.53,.38-.85,1.64-.65,2.32,.78,2.62,1.81,5.17,2.73,7.74,.49,1.37,1.56,1.67,2.68,1.56Zm11.45,147.28l-.55,.04c-.28,.8-.68,1.59-.81,2.42-.66,4.29-1.24,8.59-1.85,12.89-.21,1.47-.51,2.93-.56,4.4-.02,.53,.57,1.52,.9,1.53,.79,.02,1.88-.19,2.32-.73,.58-.7,.85-1.81,.91-2.76,.27-4.25,.54-8.51,.56-12.76,.01-1.67-.6-3.35-.93-5.02ZM199.43,64.71c-1.39,.5-2.39,1.36-2.65,2.84-.43,2.41-.86,4.83-1.1,7.26-.17,1.67-.03,3.36-.05,5.05-.01,1.33,.49,2.45,1.82,2.69,1.43,.26,2.13-.8,2.4-2.07,.21-.95,.45-1.93,.43-2.9-.03-1.47-.31-2.93-.4-4.4-.18-2.77-.3-5.55-.45-8.47Zm5.99,171.91c-.27,1.65,.72,2.74,2.18,2.73,1.42-.02,3.05-1.67,2.85-3.25-.33-2.62-1.62-4.85-3.56-6.64-.57-.53-1.44-.04-1.45,.76-.02,2.14,0,4.27,0,6.41Zm151.83-58.25c0,.3,0,.59,0,.89,0,1.23,0,2.5,1.63,2.67,1.58,.16,1.9-1.01,2.25-2.21,.86-2.92-.28-5.62-.86-8.38-.06-.29-.57-.76-.71-.71-.39,.15-.9,.47-.99,.82"/>
        <path class="cls-1" d="M201.68,146.26c.88,1.12,1.42,1.6,1.7,2.21,1.81,3.96,2.92,8.12,3.6,12.41,.52,3.3,1.17,6.58,1.54,9.89,.18,1.62,.15,3.36-.27,4.92-.82,3.05-4.55,3.81-6.84,1.6-1.63-1.57-1.95-3.67-2.15-5.69-.38-3.83-.67-7.7-.58-11.54,.07-3.32,.62-6.65,1.17-9.94,.2-1.18,1.03-2.25,1.82-3.87Z"/>
        <path class="cls-1" d="M204.04,70.52c.24-3.64,.42-7.3,2.32-10.56,.76-1.3,1.65-2.44,3.42-2.47,1.59-.03,2.79,.5,3.15,2.08,.5,2.19,1.02,4.42,1.16,6.65,.21,3.27,.15,6.55,.09,9.83-.02,1.06-.26,2.15-.59,3.16-1.32,4.08-5.68,3.34-7.28,1.2-.75-1.01-1.29-2.23-1.66-3.44-.38-1.21-.48-2.51-.61-3.78-.09-.88-.02-1.79-.02-2.68Z"/>
        <path class="cls-1" d="M349.33,215.55c.75,1.53,1.46,2.5,1.71,3.58,.87,3.66,1.38,7.34,.44,11.11-.4,1.61-.29,3.34-.72,4.94-.6,2.21-2.07,3.22-3.79,2.98-1.65-.23-3.01-1.83-2.8-3.91,.33-3.31,.9-6.61,1.51-9.88,.34-1.82,.85-3.63,1.5-5.37,.4-1.06,1.2-1.96,2.16-3.44Z"/>
        <path class="cls-1" d="M270.53,227.88c2.94-4.56,6.95-7.75,11.15-10.73,1.56-1.1,3.62-.73,4.53,.55,.92,1.29,.66,2.94-.93,4.15-4.11,3.15-8.79,5.2-13.74,6.65-.18,.05-.48-.29-1.02-.62Z"/>
        <path class="cls-7" d="M349.44,55.77c2.3,.07,3.63,1.05,4.44,2.4,1.43,2.36,2.63,4.86,3.77,7.38,.34,.75,.44,1.88,.12,2.6-.35,.79-1.22,1.61-2.03,1.84-.67,.2-2.07-.22-2.31-.74-1.91-4.2-3.52-8.51-3.99-13.48Z"/>
        <path class="cls-13" d="M356.92,215.62c.33,1.67,.94,3.35,.93,5.02-.03,4.26-.29,8.51-.56,12.76-.06,.95-.33,2.06-.91,2.76-.45,.54-1.53,.75-2.32,.73-.33,0-.92-1-.9-1.53,.05-1.47,.35-2.93,.56-4.4,.61-4.3,1.2-8.6,1.85-12.89,.13-.83,.53-1.61,.81-2.42l.55-.04Z"/>
        <path class="cls-15" d="M199.43,64.71c.15,2.92,.27,5.7,.45,8.47,.09,1.47,.37,2.93,.4,4.4,.02,.96-.22,1.94-.43,2.9-.27,1.27-.97,2.33-2.4,2.07-1.33-.24-1.83-1.36-1.82-2.69,.02-1.68-.12-3.38,.05-5.05,.25-2.43,.67-4.85,1.1-7.26,.26-1.47,1.26-2.34,2.65-2.84Z"/>
        <path class="cls-8" d="M205.41,236.62c0-2.14-.02-4.27,0-6.41,0-.81,.88-1.29,1.45-.76,1.94,1.79,3.23,4.03,3.56,6.64,.2,1.59-1.43,3.24-2.85,3.25-1.45,.02-2.45-1.08-2.18-2.73Z"/>
        <path class="cls-14" d="M358.58,171.45c.09-.35,.6-.67,.99-.82,.13-.05,.65,.42,.71,.71,.58,2.76,1.73,5.45,.86,8.38-.36,1.2-.68,2.37-2.25,2.21-1.64-.17-1.64-1.44-1.63-2.67,0-.3,0-.59,0-.89"/>
      </g>
      <g>
        <g>
          <path class="cls-10" d="M391.39,19.8c-1.23,4.28-1.75,8.61-1.5,13.11,.87,15.41,3.22,30.59,6.8,45.56,2.41,10.09,2.13,19.88-1.07,29.73-2.2,6.75-3.68,13.74-2.5,20.9,.61,3.67,1.87,7.24,2.96,10.81,.89,2.95,1.98,5.84,2.94,8.77,2.1,6.44,2.29,13.02,1.25,19.67-2.3,14.75-4.76,29.48-6.83,44.26-1.13,8.1-1.86,16.28-2.26,24.45-.38,7.95,2.91,14.64,8.42,20.18,2.38,2.39,5.38,3.8,8.64,4.46,3.84,.79,7.73,1.33,11.59,2.02,.56,.1,1.34-.14,1.87,.1,1.26,.29,2.01,.29,3.33,.29,1.03,0,2.36-.71,3.44-.9,3.16-.54,6.06-1.64,8.87-3.22,5.43-3.05,10.95-5.92,16.42-8.89,3.46-1.86,7.08-2.26,10.76-.98,5.76,2,11.7,3.66,17.13,6.36,14.19,7.08,29,8.36,44.33,5.95,2.14-.33,4.31-.84,6.31-1.67,8.15-3.41,16.31-6.8,23.92-11.42,4.38-2.66,8.73-5.5,13.85-6.55,2.99-.62,6.01-1.11,9.04-1.5,10.4-1.34,18.37-6.31,23.75-15.63,1.52-2.63,3.89-4.81,4.5-7.94,.68-3.47,1.56-6.99,1.52-10.48-.11-7.86-.73-15.72-2.44-23.42-1.78-8.04-5.09-15.49-8.47-22.93-1.49-3.29-2.71-6.76-3.56-10.27-1.2-4.97-.11-9.94,1.09-14.77,1.43-5.75,2.21-11.54,1.72-17.44-1.17-14.22-7.49-25.52-19.24-33.41-3.03-2.04-6.61-3.45-10.13-4.48-6.17-1.79-12.45-3.27-18.76-4.5-6.7-1.3-13.48-1.13-20.13,.58-5.15,1.32-10.32,2.14-15.45,.25-3.15-1.16-6.17-2.73-9.19-4.23-1.27-.63-2.41-1.51-3.56-2.35-7.4-5.42-15.49-5.97-24.01-3.53-4.47,1.28-8.11,3.81-10.74,7.68-1.86,2.73-3.52,5.59-5.2,8.44-1.23,2.08-2.35,4.23-3.75,6.77-.34-.98-.67-1.59-.75-2.24-1.08-8.01-1.91-16.03-1.96-24.14-.09-13.53-1.08-26.99-4.16-40.22-1.06-4.52-2.44-8.93-4.58-13.08-2.62-5.06-6.59-8.11-12.16-9.07-.98-.18-2.33-.63-3.42-.4-1.97,0-3.26-.23-5.22-.23-.43,.23-.93,.09-1.38,.17-4.93,.95-9.86,1.8-14.78,2.77-9.22,1.81-14.68,7.69-17.25,16.61Zm4.94,15.09c-.82-5.01,.16-9.65,1.57-14.3,1.6-5.27,4.65-9.21,10.17-10.67,1.26-.33,2.53-.65,3.82-.84,5.38-.75,10.77-1.41,16.15-2.18,5.65-.81,10.12,1.35,12.81,6.34,2.28,4.21,3.35,8.79,4.42,13.43,2.83,12.13,3.23,24.47,3.51,36.83,.04,1.86-.42,3.75-.31,5.6,.27,4.52,.59,9.04,1.18,13.52,.53,3.91,1.4,7.79,2.24,11.65,.41,1.91,1.35,3.56,3.49,3.92,2.16,.36,3.85-.59,5.08-2.32,1.21-1.7,2.36-3.46,3.41-5.26,2.27-3.9,4.36-7.91,6.71-11.75,1.97-3.23,4.86-5.31,8.64-5.97,6.39-1.13,12.53-1,18.04,3.18,1.91,1.44,4.04,2.62,6.15,3.76,5.94,3.2,12.16,5.54,19.01,5.02,3.23-.24,6.43-.99,9.63-1.62,5.05-.99,10.13-1.57,15.22-.46,6.25,1.36,12.55,2.63,18.69,4.43,3.5,1.03,7.03,2.58,9.99,4.69,11.19,7.98,18.59,23.77,14.51,39.76-.9,3.51-1.51,7.1-2.13,10.67-.98,5.57-.43,11.02,1.72,16.22,1.97,4.79,4.26,9.44,6.27,14.2,4.52,10.74,5.86,22.09,6.36,33.69-.47,4.04-.28,8.3-1.55,12.07-2.5,7.44-7.57,12.92-15.15,15.28-4.12,1.28-8.45,1.97-12.73,2.57-5.36,.74-10.36,2.28-15.04,5.07-8.07,4.81-16.4,9.1-25.15,12.55-4.49,1.78-9.08,2.95-13.91,3.12-4.78,.18-9.55,.43-14.32-.05-5.31-.55-10.48-1.51-15.46-3.66-7-3.01-14.06-5.89-21.23-8.45-6.18-2.21-12.59-2.24-18.32,1.23-5.54,3.36-11.55,5.65-17.26,8.61-3.33,1.73-7.08,2.27-10.77,2.14-3.14-.11-6.26-.73-9.36-1.26-7.56-1.29-13.43-7.67-14.7-15.31-1.14-6.89,.49-13.65,.48-20.48,0-2.3,.38-4.61,.73-6.89,1.37-9.15,2.82-18.28,4.21-27.42,.81-5.33,1.71-10.66,2.31-16.01,.49-4.36,1.29-8.68,.54-13.18-1.01-6-2.6-11.81-4.56-17.53-1.48-4.31-2.36-8.68-2.39-13.28-.03-5.94,1.44-11.58,2.97-17.21,1.55-5.67,2.6-11.35,2.47-17.28-.15-6.67-1.79-13.07-3.06-19.55-1.35-6.91-2.59-13.85-3.57-20.82-.73-5.24-.69-10.59-1.53-15.8Z"/>
          <path class="cls-1" d="M397.9,20.59c-1.41,4.65-2.39,9.29-1.57,14.3,.84,5.21,.8,10.56,1.53,15.8,.98,6.97,2.22,13.91,3.57,20.82,1.27,6.48,2.91,12.88,3.06,19.55,.13,5.93-.92,11.61-2.47,17.28-1.53,5.63-3,11.27-2.97,17.21,.03,4.6,.91,8.97,2.39,13.28,1.96,5.72,3.55,11.53,4.56,17.53,.75,4.5-.05,8.82-.54,13.18-.6,5.35-1.5,10.68-2.31,16.01-1.39,9.14-2.84,18.27-4.21,27.42-.35,2.28-.73,4.59-.73,6.89,0,6.83-1.62,13.59-.48,20.48,1.27,7.64,7.14,14.02,14.7,15.31,3.1,.53,6.22,1.15,9.36,1.26,3.69,.13,7.44-.41,10.77-2.14,5.71-2.96,11.72-5.25,17.26-8.61,5.73-3.47,12.14-3.44,18.32-1.23,7.17,2.56,14.23,5.44,21.23,8.45,4.98,2.15,10.15,3.11,15.46,3.66,4.77,.48,9.54,.23,14.32,.05,4.83-.17,9.42-1.34,13.91-3.12,8.75-3.45,17.08-7.74,25.15-12.55,4.68-2.79,9.68-4.33,15.04-5.07,4.28-.6,8.61-1.29,12.73-2.57,7.58-2.36,12.65-7.84,15.15-15.28,1.27-3.77,1.08-8.03,1.55-12.07-.5-11.6-1.84-22.95-6.36-33.69-2.01-4.76-4.3-9.41-6.27-14.2-2.15-5.2-2.7-10.65-1.72-16.22,.62-3.57,1.23-7.16,2.13-10.67,4.08-15.99-3.32-31.78-14.51-39.76-2.96-2.11-6.49-3.66-9.99-4.69-6.14-1.8-12.44-3.07-18.69-4.43-5.09-1.11-10.17-.53-15.22,.46-3.2,.63-6.4,1.38-9.63,1.62-6.85,.52-13.07-1.82-19.01-5.02-2.11-1.14-4.24-2.32-6.15-3.76-5.51-4.18-11.65-4.31-18.04-3.18-3.78,.66-6.67,2.74-8.64,5.97-2.35,3.84-4.44,7.85-6.71,11.75-1.05,1.8-2.2,3.56-3.41,5.26-1.23,1.73-2.92,2.68-5.08,2.32-2.14-.36-3.08-2.01-3.49-3.92-.84-3.86-1.71-7.74-2.24-11.65-.59-4.48-.91-9-1.18-13.52-.11-1.85,.35-3.74,.31-5.6-.28-12.36-.68-24.7-3.51-36.83-1.07-4.64-2.14-9.22-4.42-13.43-2.69-4.99-7.16-7.15-12.81-6.34-5.38,.77-10.77,1.43-16.15,2.18-1.29,.19-2.56,.51-3.82,.84-5.52,1.46-8.57,5.4-10.17,10.67Zm62.8,146.18c-2.81-11-4.9-25.03,1.27-35.3,1.14-1.89,2.71-3.14,4.46-3.8,.71-.97,1.68-1.86,2.97-2.58,3.25-1.81,5.53-5.48,8.09-8.36,3.61-4.06,8.08-7.33,13.51-8.31,12.9-2.33,19.74,8.21,28.42,15.38,4,3.3,8.46,6.06,12.11,9.79,4.49,4.59,7.8,10.16,9.75,16.27,1.53,4.77,1.97,9.82,2.31,14.83,.79-.23,1.59-.36,2.36-.36,4.18,0,7.29,2.85,8.67,6.61,2.23,6.06,.85,12.29-3.6,16.06-.5,1.03-1.03,2.05-1.61,3.03,1.53,6.42,2.03,13.01-.94,19.19-4.34,9.01-14.55,12.98-23.81,14.74-11.96,2.28-26.13,1.32-36.7-4.82-5.34-.27-10.4-1.79-14.35-5.86-8.06-8.29-7.85-21.62-7.4-32.58-2.45-4.39-4.25-8.99-5.51-13.93Z"/>
        </g>
        <path class="cls-1" d="M601.13,218.5c-2.5,7.44-7.57,12.92-15.15,15.28-4.12,1.28-8.45,1.98-12.74,2.57-5.35,.74-10.36,2.28-15.03,5.07-8.07,4.81-16.4,9.1-25.15,12.56-4.5,1.78-9.08,2.94-13.92,3.12-4.78,.18-9.55,.43-14.32-.06-5.31-.54-10.48-1.51-15.46-3.65-7-3.01-14.06-5.89-21.22-8.46-6.18-2.21-12.59-2.24-18.32,1.23-5.55,3.36-11.55,5.65-17.26,8.62-3.33,1.73-7.08,2.26-10.78,2.13-3.13-.11-6.25-.73-9.36-1.26-7.55-1.29-13.42-7.67-14.69-15.31-1.15-6.89,.49-13.65,.48-20.47,0-2.3,.38-4.61,.73-6.89,1.38-9.14,2.82-18.28,4.21-27.42,.81-5.33,1.71-10.65,2.31-16.01,.49-4.36,1.29-8.68,.54-13.17-1.01-6-2.6-11.81-4.56-17.54-1.47-4.31-2.36-8.68-2.38-13.27-.03-5.94,1.44-11.59,2.97-17.21,1.54-5.67,2.6-11.35,2.47-17.28-.15-6.68-1.79-13.07-3.06-19.56-1.35-6.91-2.59-13.85-3.57-20.82-.74-5.23-.69-10.59-1.53-15.8-.81-5.01,.16-9.65,1.57-14.3,1.6-5.27,4.65-9.21,10.17-10.67,1.26-.33,2.53-.66,3.82-.84,5.38-.76,10.77-1.41,16.15-2.19,5.66-.81,10.12,1.35,12.82,6.34,2.27,4.21,3.34,8.79,4.42,13.43,2.82,12.13,3.22,24.47,3.5,36.83,.04,1.87-.42,3.75-.31,5.61,.27,4.51,.59,9.03,1.19,13.51,.52,3.92,1.4,7.79,2.23,11.66,.41,1.91,1.35,3.56,3.49,3.92,2.16,.36,3.85-.59,5.08-2.32,1.21-1.7,2.36-3.45,3.41-5.26,2.27-3.9,4.36-7.91,6.71-11.75,1.97-3.23,4.86-5.3,8.64-5.97,6.39-1.12,12.52-1,18.04,3.18,1.91,1.45,4.04,2.63,6.15,3.76,5.94,3.19,12.15,5.54,19,5.02,3.23-.24,6.43-.99,9.63-1.62,5.06-.99,10.13-1.57,15.22-.46,6.26,1.36,12.55,2.63,18.69,4.43,3.5,1.03,7.03,2.58,9.99,4.69,11.18,7.98,18.59,23.77,14.51,39.76-.9,3.51-1.51,7.1-2.13,10.67-.98,5.56-.42,11.02,1.72,16.22,1.97,4.78,4.26,9.43,6.26,14.2,4.52,10.74,5.86,22.08,6.37,33.68-.47,4.04-.29,8.31-1.55,12.07Zm-40.16-108.59c.07,.97,.11,1.98,.38,2.9,1.02,3.51,2.84,6.62,5.24,9.31,2.05,2.28,4.24,2.58,6.38,1.27,2.14-1.32,2.99-3.85,2.07-6.63-1.3-3.93-3.96-6.69-7.5-8.63,1.28-3.75-.14-5.7-5.42-7.03,.5,2.24,.96,4.32,1.42,6.39-1.78-.2-2.7,.56-2.56,2.43Zm-28.76,110.53c1.1-.46,1.78-2.04,2.58-3.15,.61-.85,.97-1.94,1.7-2.65,3.05-3,6.25-5.85,9.31-8.84,11.17-10.87,8.49-27.24,.35-36.54-1.66-1.9-3.45-3.72-5.34-5.38-4.01-3.52-6.43-7.97-8.02-13.02-1.85-5.9-4.05-11.67-7.78-16.67-6.57-8.83-14.36-16.03-25.25-18.9-8.57-2.26-17.07-1.83-25.27,1.49-8.2,3.32-11.58,10.25-12.49,18.68-.47,4.35,.71,8.52,1.72,12.71,1.09,4.48,2.38,9.02,2.61,13.58,.22,4.22-.63,8.55-1.4,12.75-1.04,5.66-1.87,11.28-1.74,17.07,.25,11.74,5.37,20.42,15.28,26.36,5.16,3.09,10.71,4.69,16.62,5.34,4.53,.5,9.03,1.27,13.56,1.75,2.05,.22,4.14,.04,5.86,.04,6.83,1.19,12.13-2.3,17.7-4.63Zm-91.1-62.99c.65-3.2,1.58-6.38,1.88-9.62,.46-4.93,.54-9.89,.66-14.84,.04-1.96-.31-3.9-1.56-5.57-2.64-3.51-7.26-2.49-8.8,1.49-.57,1.48-.72,3.24-.61,4.84,.25,3.71,.62,7.43,1.24,11.09,.87,5.15,1.58,10.38,4.33,15.22,1.81-.26,2.58-1.19,2.87-2.62Zm-14.31-84.32c.19,.95,.61,1.87,1.05,2.74,.21,.42,.71,.92,1.1,.94,.31,.02,.85-.58,.96-.99,.92-3.47,1.94-6.93,2.59-10.45,.81-4.39,1.51-8.83,1.87-13.27,.21-2.58-.09-5.27-.61-7.82-.47-2.32-2.02-3.25-4.26-3.32-2.07-.07-4.22,1.18-4.7,3.26-.58,2.54-.72,5.18-1.05,7.78,.21,7.2,1.64,14.17,3.06,21.13Zm-17.61-27.1c2.5-5.85,5-11.71,7.61-17.51,.47-1.04,1.36-1.93,2.21-2.72,2.18-2.01,1.81-4.84-.86-6.07-2.34-1.08-4.48-.41-6.41,.98-.86,.62-1.62,1.51-2.14,2.44-3.28,5.84-5.07,12.14-5.12,18.86-.02,2.68,.6,5.25,3.69,7.34,.42-1.36,.63-2.39,1.03-3.33Zm161.88,119.78c1.19,6.32,2.44,12.62,3.68,18.93,.37,1.91,1.5,4.15,4.01,3.93,2.19-.19,3.56-1.35,3.9-3.97,.47-3.67-.5-7.13-1.94-10.44-1.99-4.59-4.66-8.66-9.67-11.79,0,1.52-.14,2.45,.02,3.33Zm-71.67-72.71c2.27,1.34,5.03,.23,5.7-1.89,.41-1.31,.49-2.72-.74-3.62-1.83-1.33-3.64-2.9-5.71-3.63-3.22-1.13-6.64-1.67-10-2.37-.42-.09-.94,.34-1.7,.65,3.16,5.22,7.79,8.11,12.44,10.86Zm-85.38,142.14c1.23,3.5,3.68,5.93,7.03,7.33,1.88,.78,3.87,1.43,5.87,1.77,1.2,.2,2.64-.04,3.73-.59,.81-.41,1.66-1.58,1.73-2.48,.1-1.31-.65-2.55-2.18-2.85-1.59-.31-3.2-.52-4.77-.91-3.91-.95-7.75-2.09-10.51-5.39-.17-.2-.58-.19-1.39-.43,.17,1.36,.13,2.53,.49,3.55Zm70.71,6.1c.72-1.28,.15-2.7-1.03-3.47-1.45-.95-3.07-1.65-4.65-2.37-4.06-1.85-8.15-3.61-12.68-3.83-.53-.03-1.07,.29-1.6,.45,.31,.51,.51,1.19,.96,1.49,4.06,2.74,8.13,5.47,12.27,8.09,1.17,.74,2.55,1.13,4.19,1.84,.89-.74,2.03-1.29,2.54-2.2Zm-45.54-184.92c.29,1.49,1.94,2.66,3.1,2.38,1.48-.37,2.65-1.39,2.66-2.94,.01-2.06-.21-4.17-.66-6.17-.87-3.79-1.98-7.53-4.72-10.59-1.73,5.82-1.48,11.58-.37,17.32Zm131.68,43.08c1.79,3.64,3.57,7.29,5.41,10.9,.54,1.06,1.14,2.17,1.98,2.98,1.36,1.31,3.27,.65,3.76-1.22,.18-.7,.23-1.56,0-2.22-2.04-5.96-5.64-10.49-11.42-12.97l-.57,.51c.28,.67,.52,1.36,.84,2.01Z"/>
        <path class="cls-10" d="M508.66,225.03c-4.53-.48-9.03-1.25-13.56-1.75-5.9-.66-11.46-2.25-16.62-5.34-9.92-5.94-15.03-14.63-15.28-26.36-.13-5.79,.7-11.42,1.74-17.07,.78-4.2,1.62-8.53,1.4-12.75-.23-4.56-1.52-9.1-2.61-13.58-1.02-4.19-2.19-8.36-1.72-12.71,.91-8.43,4.29-15.36,12.49-18.68,8.21-3.32,16.71-3.75,25.27-1.49,10.89,2.87,18.67,10.07,25.25,18.9,3.73,5,5.93,10.77,7.78,16.67,1.59,5.06,4.02,9.5,8.02,13.02,1.89,1.66,3.68,3.48,5.34,5.38,8.14,9.3,10.82,25.66-.35,36.54-3.07,2.99-6.26,5.84-9.31,8.84-.73,.71-1.08,1.8-1.7,2.65-.8,1.11-1.48,2.69-2.58,3.15-5.57,2.33-10.87,5.82-17.7,4.63-1.72,0-3.81,.18-5.86-.04Zm20.84-10.89c4.05-4.2,8.25-8.24,12.2-12.53,3.77-4.1,6.05-8.94,5.58-14.74-.47-5.81-2.35-11-6.62-15.11-1.9-1.83-3.69-3.79-5.69-5.49-3.54-3.01-5.92-6.74-7.4-11.14-1.05-3.14-2.01-6.32-3.3-9.36-4.52-10.63-12.16-18.27-22.5-23.01-7.06-3.23-14.46-3.1-21.79-.98-8.06,2.33-12.54,9.73-11.04,18.17,.62,3.48,1.49,6.91,2.36,10.34,2.12,8.42,2.24,16.83,.36,25.32-.79,3.56-1.41,7.17-1.8,10.79-.56,5.17,.33,10.22,2.51,14.89,3.18,6.82,9.01,10.65,15.74,13.16,2.12,.79,4.44,1.22,6.7,1.44,5.64,.55,11.31,.87,16.96,1.3,2.83,.22,5.65,.47,9.69,.81,2.71,.74,5.5-1.2,8.06-3.86Z"/>
        <path class="cls-1" d="M438.24,160.08c1.81-.26,2.58-1.19,2.87-2.62,.65-3.2,1.58-6.38,1.88-9.62,.46-4.93,.54-9.89,.66-14.84,.04-1.96-.31-3.9-1.56-5.57-2.64-3.51-7.26-2.49-8.8,1.49-.57,1.48-.72,3.24-.61,4.84,.25,3.71,.62,7.43,1.24,11.09,.87,5.15,1.58,10.38,4.33,15.22Z"/>
        <path class="cls-13" d="M408.16,49.37c.42-1.36,.63-2.39,1.03-3.33,2.5-5.85,5-11.71,7.61-17.51,.47-1.04,1.36-1.93,2.21-2.72,2.18-2.01,1.81-4.84-.86-6.07-2.34-1.08-4.48-.41-6.41,.98-.86,.62-1.62,1.51-2.14,2.44-3.28,5.84-5.07,12.14-5.12,18.86-.02,2.68,.6,5.25,3.69,7.34Z"/>
        <path class="cls-1" d="M571.05,162.48c0,1.52-.14,2.45,.02,3.33,1.19,6.32,2.44,12.62,3.68,18.93,.37,1.91,1.5,4.15,4.01,3.93,2.19-.19,3.56-1.35,3.9-3.97,.47-3.67-.5-7.13-1.94-10.44-1.99-4.59-4.66-8.66-9.67-11.79Z"/>
        <path class="cls-1" d="M563.54,107.48c-1.78-.2-2.7,.56-2.56,2.43,.07,.97,.11,1.98,.38,2.9,1.02,3.51,2.84,6.62,5.24,9.31,2.05,2.28,4.24,2.58,6.38,1.27,2.14-1.32,2.99-3.85,2.07-6.63-1.3-3.93-3.96-6.69-7.5-8.63-1.51,.93-2.91,1.13-4-.64Z"/>
        <path class="cls-1" d="M486.96,82.24c3.16,5.22,7.79,8.11,12.44,10.86,2.27,1.34,5.03,.23,5.7-1.89,.41-1.31,.49-2.72-.74-3.62-1.83-1.33-3.64-2.9-5.71-3.63-3.22-1.13-6.64-1.67-10-2.37-.42-.09-.94,.34-1.7,.65Z"/>
        <path class="cls-15" d="M413.53,231.7c.17,1.36,.13,2.53,.49,3.55,1.23,3.5,3.68,5.93,7.03,7.33,1.88,.78,3.87,1.43,5.87,1.77,1.2,.2,2.64-.04,3.73-.59,.81-.41,1.66-1.58,1.73-2.48,.1-1.31-.65-2.55-2.18-2.85-1.59-.31-3.2-.52-4.77-.91-3.91-.95-7.75-2.09-10.51-5.39-.17-.2-.58-.19-1.39-.43Z"/>
        <path class="cls-8" d="M482.19,243.55c.89-.74,2.03-1.29,2.54-2.2,.72-1.28,.15-2.7-1.03-3.47-1.45-.95-3.07-1.65-4.65-2.37-4.06-1.85-8.15-3.61-12.68-3.83-.53-.03-1.07,.29-1.6,.45,.31,.51,.51,1.19,.96,1.49,4.06,2.74,8.13,5.47,12.27,8.09,1.17,.74,2.55,1.13,4.19,1.84Z"/>
        <path class="cls-8" d="M439.57,39.1c-1.73,5.82-1.48,11.58-.37,17.32,.29,1.49,1.94,2.66,3.1,2.38,1.48-.37,2.65-1.39,2.66-2.94,.01-2.06-.21-4.17-.66-6.17-.87-3.79-1.98-7.53-4.72-10.59Z"/>
        <path class="cls-8" d="M570.03,97.49c.28,.67,.52,1.36,.84,2.01,1.79,3.64,3.57,7.29,5.41,10.9,.54,1.06,1.14,2.17,1.98,2.98,1.36,1.31,3.27,.65,3.76-1.22,.18-.7,.23-1.56,0-2.22-2.04-5.96-5.64-10.49-11.42-12.97l-.57,.51Z"/>
        <path class="cls-12" d="M563.54,107.48c1.09,1.77,2.49,1.57,4,.64,1.28-3.75-.14-5.7-5.42-7.03,.5,2.24,.96,4.32,1.42,6.39Z"/>
      </g>
      <g>
        <g>
          <path class="cls-20" d="M826.29,230.7c.7,3.31,.36,6.64-.73,9.86-1.89,5.6-4.97,10.38-9.77,13.91-6.96,5.12-14.48,8.81-23.39,8.77-.4,0-.8,.11-1.2,.16-5.26,0-10.53,0-15.8,0-.79-.16-1.58-.44-2.37-.46-4.98-.12-9.43-1.78-13.74-4.23-4.02-2.28-8.39-2.6-12.91-1.48-5.77,1.43-11.55,2.88-17.38,4.02-5.56,1.08-11.05,.75-16.25-1.89-1.61-.82-3.38-1.34-5.03-2.08-7.42-3.34-15.04-3.57-22.78-1.4-6.8,1.91-13.56,3.91-20.34,5.87-2.56,.74-5.14,.91-7.79,.48-1.26-.21-2.6,.05-3.86-.18-1.86-.35-3.89-.59-5.47-1.52-4.67-2.77-9.28-5.71-13.68-8.89-2.9-2.09-4.89-5.16-6.31-8.41-6.33-14.45-9.06-29.45-6.26-45.18,.3-1.68,.76-3.34,1.37-4.94,2.12-5.58,2.56-11.38,2.56-17.27,.01-5.47-.64-10.86-1.52-16.26-1.32-8.04-.3-15.94,2.84-23.45,4.13-9.86,4.52-19.94,2.71-30.32-1.95-11.26-3.32-22.58-3.27-34.03,.03-7.28,1.74-14.12,4.98-20.71,4.17-8.49,11.19-12.95,19.91-15.41,.9-.25,1.7-.52,2.82-.66,1.62,0,2.9,.03,4.52,.03,.53,.09,.64,0,.95,.1,13.9,4.44,22.11,13.93,24.89,28.15,1.4,7.16,1.83,14.42,1.78,21.71-.04,7.38-.12,14.74-1.55,22.03-.83,4.24-.15,8.45,1.12,12.57,1.54,5.01,3.18,10.01,4.5,15.09,1.77,6.79,1.08,13.59-.27,20.42-1.89,9.6-4.14,19.15-4.98,28.95-.46,5.35-.24,10.47,2.31,15.33,.7,1.34,1.33,2.76,1.69,4.21,.43,1.76,1.44,2.08,3.07,2.08,5.84,0,11.33-1.6,16.85-3.25,4.62-1.38,9.32-2.53,14.02-3.62,1.65-.38,3.41-.4,5.12-.36,3.53,.07,7.06,.34,10.59,.42,2.64,.07,5.14,.83,6.99,2.54,4.02,3.72,8.92,4.44,14.01,4.77,8.19,.53,16.37,.33,24.54-.28,8.13-.61,16.12,.04,23.89,2.82,10.53,3.75,16.34,11.39,18.61,22.02Zm-8.74,9.57c.99-2.58,1.87-5.18,1.2-8.19-1.64-7.33-5.9-12.43-12.45-15.81-5.55-2.87-11.51-4.25-17.7-4.41-3.72-.1-7.44,.34-11.16,.44-7.87,.21-15.71-.18-23.54-1.06-3.83-.43-7.22-1.54-10.21-4.02-2.4-2-5.18-2.87-8.4-2.76-7.28,.24-14.3,1.92-21.37,3.41-6.67,1.41-13.15,3.67-20.03,4.08-2.62,.16-5.01-.25-7.08-1.8-5.85-4.38-8.81-10.3-9.15-17.57-.36-7.5,.95-14.87,2.04-22.21,.88-5.94,2.53-11.77,3.8-17.64,1.06-4.87,1.54-9.77,.29-14.67-1.19-4.66-2.35-9.35-3.86-13.92-2.19-6.65-2.93-13.38-1.52-20.22,1.23-5.96,1.65-11.95,1.63-18.2,.19-5.76-.81-11.6-1.66-17.48-1.42-9.82-5.72-17.56-14-23.27-5.04-3.48-10.08-4.23-15.6-1.91-3.61,1.52-7.41,2.79-9.77,6.28-5.62,8.3-7.22,17.61-6.71,27.36,.32,6.02,1.07,12.01,1.71,18,.58,5.49,1.11,11,1.98,16.45,.81,5.08,.61,10.1-.59,14.99-1.26,5.16-3.19,10.16-4.78,15.24-2.03,6.43-2.45,12.93-1.15,19.61,.77,3.92,1.08,7.96,1.35,11.96,.13,2.09-.41,4.21-.39,6.31,.04,5.4-.88,10.64-2.69,15.68-1.97,5.48-2.39,11.18-2.79,16.89-.35,5.07,.78,10.03,1.88,14.9,1.66,7.37,4.55,14.31,10.37,19.41,3.08,2.7,6.79,4.66,10.25,6.91,1.26,.83,2.6,1.54,3.9,2.29,1.5-1.38,3,.13,4.46-.01,3.69-.36,7.42-.66,11.02-1.49,6.94-1.61,13.74-3.82,20.7-5.31,3.58-.76,7.41-.92,11.08-.66,5.66,.4,10.93,2.54,16.09,4.83,3.65,1.62,7.44,2.77,11.43,2.02,4.53-.86,8.98-2.12,13.47-3.16,3.22-.75,6.43-1.86,9.68-2.06,5.59-.34,10.68,1.71,15.36,4.66,2.1,1.33,4.32,2.14,6.73,2.48,2.19,.32,4.43,.31,6.59,.73,6.49,1.24,12.85,0,19.17-1.01,4.78-.76,8.63-3.73,12.59-6.34,3.66-2.42,6.29-5.71,7.84-9.75Z"/>
          <path class="cls-1" d="M818.76,232.09c.67,3.01-.21,5.61-1.2,8.19-1.55,4.04-4.18,7.33-7.84,9.75-3.96,2.62-7.81,5.58-12.59,6.34-6.33,1.01-12.68,2.25-19.17,1.01-2.16-.42-4.4-.41-6.59-.73-2.4-.34-4.63-1.15-6.73-2.48-4.67-2.96-9.77-5-15.36-4.66-3.25,.2-6.47,1.31-9.68,2.06-4.49,1.04-8.94,2.31-13.47,3.16-3.98,.75-7.77-.39-11.43-2.02-5.16-2.29-10.44-4.43-16.09-4.83-3.67-.26-7.5-.11-11.08,.66-6.96,1.49-13.76,3.7-20.7,5.31-3.59,.84-7.33,1.13-11.02,1.49-1.46,.14-2.96-1.37-4.46,.01-1.3-.76-2.64-1.47-3.9-2.29-3.45-2.25-7.17-4.22-10.25-6.91-5.82-5.09-8.72-12.04-10.37-19.41-1.1-4.87-2.23-9.83-1.88-14.9,.39-5.71,.82-11.41,2.79-16.89,1.81-5.04,2.73-10.28,2.69-15.68-.02-2.11,.52-4.23,.39-6.31-.27-4-.58-8.04-1.35-11.96-1.31-6.68-.88-13.18,1.15-19.61,1.6-5.08,3.52-10.08,4.78-15.24,1.2-4.89,1.4-9.91,.59-14.99-.87-5.45-1.4-10.95-1.98-16.45-.64-5.99-1.4-11.98-1.71-18-.51-9.75,1.1-19.06,6.71-27.36,2.36-3.49,6.16-4.77,9.77-6.28,5.52-2.32,10.56-1.57,15.6,1.91,8.28,5.71,12.58,13.45,14,23.27,.85,5.89,1.85,11.72,1.66,17.48,.02,6.25-.39,12.24-1.63,18.2-1.41,6.84-.67,13.57,1.52,20.22,1.51,4.57,2.67,9.26,3.86,13.92,1.25,4.9,.77,9.8-.29,14.67-1.27,5.88-2.92,11.7-3.8,17.64-1.09,7.35-2.4,14.72-2.04,22.21,.35,7.27,3.3,13.19,9.15,17.57,2.08,1.55,4.47,1.96,7.08,1.8,6.88-.41,13.37-2.67,20.03-4.08,7.07-1.49,14.09-3.17,21.37-3.41,3.22-.11,6,.76,8.4,2.76,2.99,2.49,6.38,3.59,10.21,4.02,7.83,.88,15.66,1.27,23.54,1.06,3.72-.1,7.45-.54,11.16-.44,6.19,.16,12.15,1.55,17.7,4.41,6.55,3.38,10.81,8.47,12.45,15.81Z"/>
        </g>
        <path class="cls-1" d="M680.03,85.72c.02,6.26-.4,12.25-1.63,18.2-1.42,6.84-.68,13.57,1.52,20.22,1.51,4.57,2.67,9.25,3.86,13.92,1.25,4.9,.77,9.8-.28,14.67-1.27,5.88-2.92,11.7-3.8,17.64-1.09,7.35-2.4,14.72-2.04,22.22,.35,7.27,3.3,13.19,9.15,17.57,2.08,1.55,4.47,1.96,7.09,1.8,6.88-.41,13.37-2.67,20.03-4.08,7.07-1.5,14.09-3.17,21.37-3.42,3.22-.11,6,.76,8.4,2.76,2.99,2.49,6.38,3.59,10.21,4.02,7.83,.88,15.67,1.28,23.54,1.06,3.72-.1,7.45-.54,11.17-.44,6.19,.16,12.15,1.54,17.7,4.41,6.55,3.38,10.81,8.48,12.45,15.81,.67,3-.21,5.61-1.2,8.19-1.55,4.04-4.18,7.33-7.84,9.75-3.95,2.62-7.81,5.58-12.59,6.34-6.33,1.01-12.69,2.25-19.17,1.01-2.16-.42-4.41-.41-6.59-.72-2.41-.34-4.63-1.16-6.73-2.49-4.67-2.96-9.77-5-15.36-4.66-3.26,.2-6.46,1.31-9.68,2.06-4.49,1.05-8.94,2.31-13.47,3.16-3.99,.75-7.77-.39-11.43-2.02-5.16-2.29-10.43-4.43-16.09-4.83-3.67-.26-7.5-.11-11.08,.66-6.96,1.49-13.76,3.7-20.69,5.31-3.6,.84-7.33,1.13-11.02,1.49-1.46,.14-2.96-1.37-4.46,.02-1.3-.76-2.64-1.47-3.9-2.3-3.45-2.26-7.17-4.22-10.25-6.92-5.82-5.1-8.72-12.04-10.37-19.41-1.1-4.88-2.23-9.84-1.88-14.91,.4-5.71,.82-11.41,2.79-16.89,1.81-5.04,2.73-10.28,2.69-15.68-.02-2.1,.52-4.23,.39-6.31-.27-4-.57-8.04-1.34-11.96-1.31-6.68-.88-13.18,1.15-19.61,1.6-5.08,3.52-10.08,4.78-15.24,1.19-4.89,1.4-9.91,.59-14.99-.87-5.45-1.4-10.95-1.98-16.45-.64-5.99-1.39-11.99-1.71-18-.51-9.75,1.1-19.06,6.71-27.36,2.36-3.49,6.16-4.77,9.77-6.28,5.52-2.32,10.56-1.57,15.6,1.91,8.28,5.71,12.58,13.45,14,23.27,.85,5.89,1.85,11.72,1.66,17.48Zm-7.53-18.28c-.54-2.94-.79-5.97-1.69-8.79-.94-2.96-2.59-5.67-5.33-7.45-2.53-1.64-6.08-1.27-7.99,.73-1.75,1.84-1.32,3.88-.59,5.9,.82,2.26,1.68,4.51,2.72,6.67,2.04,4.25,3.93,8.62,7.13,12.18,1.61,1.79,2,1.76,3.35-.3,1.77-2.69,2.19-5.74,2.4-8.95Zm121.06,163.54c3.11-.35,4.86-1.71,5.91-4.82,.74-2.21-.36-5.49-2.5-6.94-6.32-4.26-12.95-4.08-19.68-1.09-1.43,.64-2.32,1.88-2.48,3.49-.24,2.38,1.72,4.53,4.4,4.69,1.91,.12,3.84-.1,5.75,.07,2.01,.17,4.09,.08,5.24,2.56,.46,.99,2.21,1.38,3.37,2.04Zm-116.91-93.29c-.27-2.28-.63-4.55-.78-6.83-.17-2.77-1.06-5.27-2.43-7.63-.77-1.33-3.39-2.67-4.53-2.39-1.73,.42-3.25,2.22-3.37,4.2-.09,1.51-.2,3.06,.06,4.53,1.12,6.56,2.39,13.1,3.56,19.65,.23,1.27,.9,1.83,2.05,1.38,.97-.38,2.07-.91,2.65-1.71,2.41-3.32,2.69-7.21,2.8-11.18Zm53.74,74.99c-2.64,.44-4.93,.66-7.13,1.22-2.11,.53-4.21,1.25-6.18,2.18-1.97,.94-2.95,3.59-2.34,5.39,.48,1.4,2.82,2.2,5.02,1.7,.19-.04,.36-.18,.55-.25,5.5-2.06,11.01-4.09,16.5-6.2,.57-.22,.97-.88,1.44-1.33-.49-.45-.9-1.15-1.47-1.3-2.19-.58-4.43-.99-6.39-1.41Zm-97.41-3.09c-.31,.23-.57,.32-.61,.47-1.5,5.49-1.63,11.06-.75,16.64,.16,1.04,.72,2.16,1.43,2.92,.51,.55,1.71,.93,2.38,.71,.67-.22,1.28-1.21,1.53-1.99,.26-.82,.2-1.83,.02-2.7-1.04-4.98-2.14-9.95-3.26-14.91-.09-.41-.48-.76-.74-1.15Zm7.55-143.51c.13-1.8,.26-3.59,.38-5.39,.04-.56,.04-1.12,.06-1.68-.63,.2-1.38,.25-1.85,.64-.6,.49-1.07,1.2-1.41,1.9-1.54,3.13-1.69,6.56-1.87,9.95-.04,.82,.41,1.79,.93,2.47,.42,.56,1.27,1.04,1.95,1.07,.38,.02,1.05-.92,1.16-1.5m-2.6,72.32l-.76,.08c-1.64,3.58-2.14,7.38-1.99,11.3,.05,1.27-.24,2.77,1.69,2.94,1.12,.1,1.98-1.35,1.92-3.17,0-.1-.02-.2-.02-.3-.17-2.79-.33-5.58-.52-8.36-.06-.83-.21-1.65-.33-2.48Zm7.93-81.42c-.14,1.26,.41,2.44,1.73,2.54,.71,.05,1.62-.86,2.19-1.54,.41-.48,.45-1.3,.59-1.98,.32-1.56,.63-3.12,.89-4.7,.09-.53,0-1.1,0-1.64-.55,.12-1.24,.08-1.63,.39-2.17,1.75-3.95,3.78-3.77,6.93Zm152.74,187.41l.04,.22c1.47-.27,2.98-.41,4.4-.85,1.89-.58,3.01-2.09,2.63-3.17-.41-1.16-2.12-1.53-4.02-.76-1.49,.61-2.94,1.31-4.37,2.06-.81,.42-1.52,1.02-2.28,1.54,.89,.32,1.78,.66,2.69,.94,.28,.09,.6,.01,.91,.01Z"/>
        <path class="cls-6" d="M632.99,209.58c.26,.39,.65,.73,.74,1.15,1.12,4.96,2.22,9.93,3.26,14.91,.18,.87,.24,1.87-.02,2.7-.24,.78-.86,1.77-1.53,1.99-.67,.22-1.87-.16-2.38-.71-.71-.76-1.27-1.88-1.43-2.92-.88-5.59-.75-11.15,.75-16.64,.04-.15,.3-.24,.61-.47Z"/>
        <path class="cls-18" d="M639.87,73.53c-.11,.58-.78,1.52-1.16,1.5-.68-.03-1.52-.51-1.95-1.07-.52-.68-.97-1.65-.93-2.47,.18-3.39,.33-6.81,1.87-9.95,.35-.7,.82-1.42,1.41-1.9,.47-.39,1.22-.44,1.85-.64-.02,.56-.02,1.12-.06,1.68-.12,1.8-.25,3.59-.38,5.39"/>
        <path class="cls-6" d="M637.27,145.85c.11,.83,.27,1.65,.33,2.48,.19,2.79,.35,5.57,.52,8.36,0,.1,.02,.2,.02,.3,.05,1.83-.8,3.27-1.92,3.17-1.94-.17-1.64-1.66-1.69-2.94-.15-3.92,.34-7.72,1.99-11.3l.76-.08Z"/>
        <path class="cls-3" d="M645.2,64.43c-.18-3.16,1.6-5.18,3.77-6.93,.39-.32,1.08-.27,1.63-.39,0,.55,.1,1.11,0,1.64-.26,1.57-.57,3.14-.89,4.7-.14,.68-.18,1.5-.59,1.98-.58,.68-1.49,1.59-2.19,1.54-1.32-.09-1.87-1.27-1.73-2.54Z"/>
        <path class="cls-16" d="M797.93,251.84c-.3,0-.63,.07-.91-.01-.9-.28-1.79-.62-2.69-.94,.76-.52,1.47-1.12,2.28-1.54,1.43-.75,2.88-1.45,4.37-2.06,1.89-.78,3.61-.4,4.02,.76,.38,1.08-.75,2.59-2.63,3.17-1.42,.44-2.93,.58-4.4,.85l-.04-.22Z"/>
      </g>
      <g>
        <path class="cls-10" d="M890.32,230.41c-1,5.34-3.12,10.28-5.51,15.14-1.09,2.21-2.02,4.49-2.93,6.78-2.04,5.16-5.44,8.86-10.87,10.55-.54,.03-1.08,.06-1.62,.1-.79,.06-1.82,.6-3.34,.18-2.04,.16-.53,.12-2.61,.12-.64,.04-1.09-.02-1.24-.04-3.74-.52-7.13-2.01-10.48-3.63-2.27-1.25-4.73-2.26-6.77-3.81-3.62-2.73-5.35-6.75-6.25-11.06-.62-2.95-1.37-5.88-1.1-9,.17-2-.6-4.06-.6-6.1,0-2.7,.43-5.39,.52-8.1,.13-3.86,.26-7.74,.11-11.59-.08-1.87-.87-3.71-1.22-5.58-.7-3.75-1.83-7.44-1.78-11.31,0-4.54,.02-9.09,.03-13.63,.4-3.59,.75-7.18,1.2-10.76,.33-2.61,.77-5.2,1.16-7.81l.47-10.42,.1-3.77c.1-.35,.27-.7,.28-1.06,.09-5.97,.16-11.94,.24-17.91,0-1.46-.08-2.93,.02-4.39,.12-1.69,.4-3.37,.61-5.05,.14-1.3,.38-2.59,.4-3.89,.05-4.25-.02-8.51,.04-12.76,.07-4.68,1.53-8.97,4.48-12.58,4.27-5.23,9.51-9.15,16.18-10.87,1.9-.49,3.79-1.05,5.68-1.58,2.35-.18,4.7-.37,7.06-.55,5.97,.11,9.72,5.61,11.48,11.5,.4,1.33,.77,2.67,1.16,4.01-.35,5.05-.78,10.1-1.02,15.16-.11,2.24,.14,4.5,.3,6.74,.22,3.18,.49,6.36,.78,9.54,.51,5.56,1.06,11.11,1.58,16.66,.08,.86,.09,1.71,.08,2.57-.06,5.58,1.01,11.03,1.82,16.51,.4,2.68,.7,5.36,1.09,8.04,.09,.63,.1,1.37,.28,1.98,.05,2.17,.31,4.2,.4,6.37,.08,1.88,.25,3.75,.38,5.62,.04,2.02,.07,4.04,.11,6.06,0,7.58-.01,15.15-.02,22.73-.03,1.07-.06,2.14-.09,3.2-.12,.91-.32,1.82-.33,2.73-.09,4.84-.14,9.69-.2,14.53"/>
        <path class="cls-1" d="M841.54,225.7c.17,2.59,.15,5.93,.65,9.18,.62,4,1.39,8.01,2.6,11.86,1.64,5.22,5.86,8.03,11.28,8.24,1.31,.05,2.62,.3,3.93,.46,2.06,.25,4.12,.64,6.19,.73,5.52,.26,7.65-1.11,9.89-6.2,1.94-4.41,3.86-8.83,5.77-13.25,1.44-3.33,2.3-6.76,2.3-10.43,0-4.35,.27-8.7,.38-13.05,.37-15.06,.36-30.11-.54-45.15-.13-2.26-.52-4.5-.86-6.74-1.23-8.13-2.38-16.26-2.54-24.51-.06-2.82-.58-5.63-.83-8.46-.49-5.65-1.17-11.3-1.31-16.96-.12-4.9,.33-9.83,.63-14.74,.21-3.39-.37-6.59-1.84-9.64-1.67-3.47-4.72-5.33-8.53-4.72-6.02,.96-11.79,2.57-16.55,6.77-4.22,3.72-6.64,8.23-6.61,13.87,.04,7.96-.31,15.87-1.02,23.81-.74,8.29-.93,16.63-1.21,24.95-.28,8.24-1.14,16.38-2.69,24.49-.74,3.88-1.22,7.88-1.18,11.82,.03,4.04,.68,8.09,1.35,12.09,.73,4.39,1.47,8.76,1.25,13.23-.19,3.87-.33,7.75-.52,12.34Z"/>
        <path class="cls-1" d="M841.54,225.7c.19-4.59,.32-8.47,.52-12.34,.22-4.48-.52-8.84-1.25-13.23-.67-4-1.31-8.05-1.35-12.09-.03-3.94,.44-7.94,1.18-11.82,1.55-8.1,2.41-16.25,2.69-24.49,.28-8.32,.47-16.66,1.21-24.95,.71-7.93,1.06-15.85,1.02-23.81-.03-5.64,2.39-10.15,6.61-13.87,4.76-4.2,10.53-5.82,16.55-6.77,3.81-.61,6.86,1.25,8.53,4.72,1.47,3.05,2.05,6.25,1.84,9.64-.3,4.91-.76,9.83-.63,14.74,.14,5.66,.82,11.31,1.31,16.96,.24,2.82,.77,5.63,.83,8.46,.17,8.25,1.32,16.38,2.54,24.51,.34,2.24,.72,4.49,.86,6.74,.9,15.04,.91,30.1,.54,45.15-.11,4.35-.38,8.7-.38,13.05,0,3.68-.86,7.11-2.3,10.43-1.91,4.42-3.83,8.84-5.77,13.25-2.24,5.08-4.37,6.46-9.89,6.2-2.07-.1-4.13-.48-6.19-.73-1.31-.16-2.62-.41-3.93-.46-5.42-.2-9.64-3.02-11.28-8.24-1.21-3.85-1.99-7.87-2.6-11.86-.5-3.26-.49-6.59-.65-9.18Zm20.02,18.31c1.84,.57,3.33,.04,4.38-1.29,.91-1.16,1.72-2.48,2.22-3.86,1.34-3.66,2.64-7.36,3.69-11.11,1.17-4.22,2.1-8.5,2.03-12.94-.05-3.78,.06-7.57-.04-11.35-.04-1.66-.31-3.35-.71-4.97-.18-.74-.81-1.52-1.46-1.96-1.93-1.33-4.34-.1-5.04,2.6-.39,1.52-.55,3.12-.69,4.69-.42,4.84-.63,9.71-1.2,14.53-.47,3.96-1.27,7.88-2.03,11.8-.87,4.51-1.85,8.99-1.15,13.86Zm6.27-139.21c-.33-1.25-.58-3.14-1.34-4.8-1.4-3.07-4.53-3.44-6.85-.97-1.6,1.7-1.83,3.82-1.61,6.02,.12,1.2,.37,2.39,.5,3.59,.37,3.56,1.24,6.98,2.92,10.15,1.12,2.11,3.57,2.16,4.2-.14,.17-.62,.71-1.17,.79-1.79,.49-3.79,.89-7.6,1.39-12.04Zm7.63,130.43c.66-1.6,1.47-2.92,1.72-4.33,.56-3.14,1.04-6.32,1.2-9.51,.36-7.25,.56-14.52,.68-21.78,.03-1.96-.33-3.94-.73-5.87-.26-1.26-.71-2.59-2.35-2.8-1.39,.64-1.44,1.89-1.46,3.13-.07,3.59-.1,7.18-.17,10.76-.19,9.87,.27,19.73,.21,29.6,0,.12,.25,.24,.89,.81Zm-1.75-71.81l.84,.02c.36-.93,.88-1.82,1.04-2.78,1.3-7.7,.77-15.4-.21-23.08-.1-.82-.38-1.73-.89-2.34-.48-.57-1.47-1.22-2.05-1.08-.75,.18-1.53,1.02-1.88,1.77-.34,.71-.19,1.67-.17,2.51,.17,7.08,1.38,14.04,2.66,20.98,.25,1.33,.44,2.67,.66,4Zm-8.43-22.55c-3.1,1.55-3.47,2.3-2.8,5.63,.07,.37-.03,.77,.06,1.13,.96,3.67,1.84,7.37,2.99,10.98,.43,1.34,.93,2.9,2.79,3.73,.17-.79,.38-1.47,.44-2.16,.08-.94-.16-1.94,.09-2.82,1.22-4.3,.23-8.56-.23-12.8-.2-1.83-1.26-3.32-3.34-3.68Zm4.98-27.22c1.77-.2,1.93-1.53,2.21-2.47,1.15-3.91,1.72-7.92,1.43-12.01-.05-.73-.28-1.5-.62-2.15-.63-1.18-1.7-1.82-3.05-1.55-1.28,.26-2.31,1.01-2.49,2.39-.14,1.02-.13,2.09,.05,3.1,.76,4.15,1.61,8.28,2.48,12.69Z"/>
        <path class="cls-10" d="M875.47,235.23c-.63-.57-.89-.69-.89-.81,.06-9.87-.4-19.73-.21-29.6,.07-3.59,.1-7.18,.17-10.76,.02-1.23,.06-2.49,1.46-3.13,1.64,.21,2.09,1.55,2.35,2.8,.39,1.93,.76,3.92,.73,5.87-.12,7.26-.33,14.53-.68,21.78-.16,3.18-.64,6.37-1.2,9.51-.25,1.41-1.07,2.73-1.72,4.33Z"/>
        <path class="cls-4" d="M873.71,163.42c-.22-1.33-.42-2.67-.66-4-1.29-6.94-2.49-13.9-2.66-20.98-.02-.85-.16-1.81,.17-2.51,.36-.75,1.14-1.59,1.88-1.77,.58-.14,1.58,.51,2.05,1.08,.51,.61,.78,1.52,.89,2.34,.99,7.68,1.51,15.38,.21,23.08-.16,.96-.68,1.86-1.04,2.78l-.84-.02Z"/>
        <path class="cls-1" d="M865.28,140.87c2.08,.36,3.14,1.85,3.34,3.68,.47,4.25,1.46,8.5,.23,12.8-.25,.88-.01,1.88-.09,2.82-.06,.69-.27,1.37-.44,2.16-1.86-.83-2.36-2.39-2.79-3.73-1.16-3.61-2.03-7.31-2.99-10.98-.09-.36,.01-.76-.06-1.13-.66-3.33-.3-4.08,2.8-5.63Z"/>
        <path class="cls-9" d="M870.26,113.65c-.87-4.41-1.72-8.54-2.48-12.69-.18-1.01-.19-2.09-.05-3.1,.19-1.38,1.22-2.13,2.49-2.39,1.35-.27,2.42,.37,3.05,1.55,.34,.65,.57,1.42,.62,2.15,.29,4.09-.28,8.1-1.43,12.01-.28,.94-.44,2.27-2.21,2.47Z"/>
        <g>
          <path class="cls-10" d="M889.09,35.71l.28,8.51c-.64,4.45-3.23,7.65-4.81,11.49-3.37,8.21-15.53,15.72-27.92,10.93-2.53-.98-4.67-3.14-6.77-4.99-1.83-1.62-3.41-3.54-5.02-5.39-4.08-4.7-5.08-10.19-4.18-16.21,.44-2.9,.74-5.82,.99-8.74,.55-6.43,4.34-11.03,10.58-12.91,12.16-3.67,22.54-.18,31.7,7.95,2.78,2.46,4.66,5.93,5.16,9.36Zm-6.81,10.17c2.72-5.16,.05-12.98-3.91-16.26-3.92-3.24-8.48-5.26-13.34-6.61-.99-.27-2.03-.35-3.34-.56-2.37,.39-4.99,.74-7.58,1.26-3.01,.61-5.08,2.48-6.04,5.39-.52,1.6-.78,3.29-1.02,4.96-.36,2.51-.48,5.07-.93,7.58-.52,2.9-.43,5.71,1.2,8.2,2.28,3.47,4.72,6.82,7.21,10.14,.43,.58,1.37,.95,2.13,1.08,2.14,.36,4.35,.34,6.45,.84,6.16,1.43,13.76-3.29,16.14-9,.98-2.35,1.84-4.77,3.02-7.02Z"/>
          <path class="cls-1" d="M878.37,29.63c3.97,3.28,6.63,11.09,3.91,16.26-1.18,2.25-2.04,4.67-3.02,7.02-2.38,5.71-9.98,10.43-16.14,9-2.11-.49-4.31-.47-6.45-.84-.76-.13-1.71-.5-2.13-1.08-2.49-3.32-4.93-6.67-7.21-10.14-1.62-2.49-1.72-5.29-1.2-8.2,.44-2.51,.56-5.06,.93-7.58,.24-1.67,.5-3.37,1.02-4.96,.95-2.91,3.02-4.78,6.04-5.39,2.59-.53,5.21-.87,7.58-1.26,1.31,.21,2.35,.29,3.34,.56,4.87,1.35,9.42,3.37,13.34,6.61Z"/>
        </g>
        <path class="cls-1" d="M861.69,22.46c1.3,.21,2.35,.29,3.34,.56,4.86,1.35,9.42,3.36,13.34,6.6,3.97,3.28,6.63,11.09,3.91,16.26-1.18,2.25-2.05,4.66-3.03,7.02-2.37,5.71-9.97,10.43-16.14,9-2.1-.49-4.31-.47-6.45-.84-.76-.13-1.71-.5-2.14-1.08-2.48-3.32-4.93-6.68-7.2-10.14-1.63-2.48-1.72-5.29-1.2-8.2,.45-2.5,.57-5.06,.93-7.58,.24-1.67,.5-3.37,1.02-4.96,.95-2.91,3.02-4.78,6.04-5.39,2.58-.52,5.2-.87,7.58-1.26Zm5.16,9.7c-1.18-1.63-2.2-3.41-3.57-4.86-1.68-1.77-4.08-1.86-5.92-.61-1.71,1.16-2.71,3.81-1.67,5.8,1.89,3.62,4.67,6.55,8.02,8.91,.08,.05,.16,.11,.24,.14,2.3,.95,3.83-.07,4.03-2.55,.19-2.39-.28-4.63-1.13-6.84,1.99,1.55,3.97,3.11,5.99,4.64,.82,.62,1.25,.01,1.32-.68,.22-2.11-.11-4.12-1.43-5.88-1.21-1.61-2.71-2.26-4.09-1.76-1.77,.65-1.98,2.07-1.79,3.69Zm2.43,20.95c.76-3.18,.35-5.66-.37-8.06-.35-1.16-1.43-1.79-2.73-1.42-1.06,.3-1.72,.9-1.68,2.22,.04,1.38,.25,2.64,1.2,3.65,1.02,1.09,2.11,2.13,3.58,3.6Zm5.52-7.75c-.02-.58-.66-1.26-1.92-1.27-1.22,0-2.34,1.11-1.94,2.22,.38,1.06,1.18,2.07,2.03,2.83,.41,.37,1.89-1.96,1.83-3.78Z"/>
        <path class="cls-17" d="M866.85,32.16c-.65-1.51,.02-3.03,1.79-3.69,1.37-.5,2.87,.15,4.09,1.76,1.32,1.75,1.65,3.76,1.43,5.88-.07,.69-.51,1.3-1.32,.68-2.01-1.52-3.99-3.09-5.99-4.64h0Z"/>
        <path class="cls-1" d="M869.28,53.11c-1.47-1.47-2.56-2.5-3.58-3.6-.95-1.02-1.16-2.27-1.2-3.65-.04-1.32,.62-1.92,1.68-2.22,1.3-.37,2.38,.26,2.73,1.42,.72,2.4,1.13,4.88,.37,8.06Z"/>
        <path class="cls-19" d="M874.8,45.36c.06,1.82-1.42,4.15-1.83,3.78-.85-.76-1.65-1.77-2.03-2.83-.4-1.11,.72-2.22,1.94-2.22,1.26,0,1.9,.69,1.92,1.27Z"/>
      </g>
      <g>
        <path d="M1006.47,263.2c-9.14-.07-17.52-3.37-25.99-6.17-8.57-2.83-16.98-6.14-25.51-9.09-6.34-2.2-11.82-5.47-15.79-11.03-2.09-2.93-3.63-6.12-4.64-9.53-1.09-3.68-3.11-6.69-5.6-9.59-3.63-4.22-6.97-8.68-10.28-13.16-1.3-1.76-2.29-3.78-3.22-5.77-.6-1.28-1.26-2.77-1.15-4.1,.25-2.97-1-5.37-2.16-7.89-2.31-5.01-3.63-10.32-4.19-15.78-.57-5.55,.58-10.88,2.52-16.06,.54-1.44,1.1-2.88,1.79-4.24,6.38-12.56,9.59-26.09,11.75-39.85,1.84-11.71,5.14-22.81,11.61-32.83,5.74-8.89,12.69-16.6,21.79-22.26,6.19-3.85,12.87-5.93,20.16-6.1,5.09-.11,10.21,.1,15.26-.39,5.53-.54,11.01-1.71,16.5-2.61,7.27-1.19,14.53-1.41,21.81-.08,.57,.1,1.14,.18,1.71,.23,3.97,.33,7.51,1.72,10.36,4.51,3.24,3.17,7.03,5.2,11.34,6.58,5.16,1.66,9.77,4.38,13.94,7.93,5.51,4.69,10.41,9.91,15.03,15.48,5.51,6.65,6.76,14.02,4.96,22.14-.56,2.51-1.25,5.08-2.41,7.35-3.63,7.11-9.63,11.06-17.52,12.06-6.55,.83-12.68-.24-17.86-4.69-5.25-4.51-11.51-6.86-18.07-8.56-8.1-2.1-16.11-4.44-23.74-7.95-6.09-2.8-11.66-1.39-15.94,3.87-.97,1.19-1.75,2.52-2.61,3.8-1.92,2.87-3.76,5.8-5.77,8.61-1.81,2.53-3.24,5.23-3.99,8.24-1.31,5.26-3.81,9.81-7.77,13.54-3.37,3.17-5.09,7.2-5.85,11.63-.8,4.62-1.44,9.28-1.94,13.95-.36,3.36,.12,6.69,1,9.97,1.67,6.24,4.2,12.12,6.98,17.93,4.1,8.6,9.5,11.4,20.24,10.61,3.9-.29,7.76-1.3,11.63-1.98,4.35-.76,8.68-1.67,13.06-2.24,4.07-.54,7.53-2.18,10.56-4.85,3.1-2.73,6.08-5.61,9.31-8.18,2.47-1.96,5.11-3.78,7.91-5.21,4.53-2.3,9.17-4.43,13.91-6.25,3.69-1.42,7.62-1.81,11.64-1.12,4.93,.84,8.93,3.19,11.56,7.35,2.82,4.45,5.55,9.01,7.75,13.79,3.77,8.21,4.18,16.62,.36,25.06-3.21,7.07-6.92,13.78-13.4,18.4-3.03,2.16-6.33,3.99-9.66,5.68-4.71,2.38-9.74,4.17-14.3,6.78-8.15,4.66-16.95,7.13-26.04,8.93-3.11,.62-6.2,1.34-9.29,2.07-3.86,.9-7.77,1.31-11.72,1.09Z"/>
        <path class="cls-1" d="M984.6,55.66c-2.11,0-4.23,0-6.34,0-6.42,.03-12.32,1.84-17.71,5.31-14.38,9.25-23.62,22.35-28.34,38.58-1.82,6.24-2.78,12.73-4.06,19.12-2.34,11.7-5.47,23.13-10.79,33.88-1.19,2.4-2.1,4.95-2.91,7.5-.96,3.02-1.59,6.13-1.16,9.35,.64,4.76,1.57,9.45,3.2,13.99,1.32,3.7,2.56,7.43,3.87,11.13,.31,.89,.67,1.78,1.18,2.57,4.05,6.31,8.26,12.49,13.4,18,2.46,2.64,4.08,5.74,5.27,9.15,.95,2.69,2.11,5.37,3.58,7.81,3.18,5.28,8.28,8.07,13.93,10.12,7.4,2.7,14.72,5.6,22.08,8.38,1.8,.68,3.62,1.28,5.46,1.85,3.21,.99,6.46,1.86,9.66,2.9,4.9,1.58,9.93,2.26,15.04,2.34,2.09,.03,4.23-.2,6.28-.61,6.68-1.35,13.33-2.9,20.01-4.26,3.33-.68,6.47-1.79,9.48-3.33,7.28-3.7,14.54-7.42,22.27-10.15,3.02-1.07,5.57-2.94,8.04-4.98,3.84-3.18,5.85-7.54,8.15-11.74,4.86-8.9,4.48-17.86,.09-26.74-1.61-3.26-3.63-6.32-5.57-9.41-3.02-4.82-7.52-6.84-13.06-5.96-9.43,1.49-17.64,5.8-25.05,11.65-3.01,2.38-5.8,5.05-8.78,7.48-3.64,2.97-7.74,4.87-12.51,5.41-4.57,.52-9.11,1.36-13.66,2.09-4.17,.68-8.31,1.66-12.51,2.08-10.76,1.07-19.12-2.36-24.13-11.86-3.28-6.22-6.44-12.47-8.16-19.28-.88-3.5-1.47-7.17-1.52-10.77-.05-4,.6-8.02,1.05-12.01,.91-8.1,3.4-15.51,9.47-21.37,2.46-2.38,3.92-5.41,4.97-8.66,.62-1.91,1.1-3.96,2.17-5.62,4.09-6.37,7.97-12.94,12.73-18.8,5.57-6.86,13.31-8.76,21.74-4.32,6.17,3.25,12.78,5.24,19.48,7.01,8.32,2.2,16.32,4.93,23.01,10.75,4.38,3.81,9.77,4.71,15.47,3.43,6.37-1.43,10.72-5.15,12.33-11.52,.82-3.23,1.28-6.6,1.43-9.92,.17-3.72-.92-7.2-3.46-10.11-1.64-1.88-3.12-3.91-4.84-5.72-6.53-6.86-13.48-13.2-22.67-16.38-5-1.73-9.44-4.25-13.13-8.06-1.5-1.55-3.36-2.58-5.51-2.95-7.53-1.3-15.07-1.67-22.67-.48-8.72,1.36-17.31,3.89-26.29,3.14Z"/>
        <path d="M1071.38,90.82c-.03,.37-.06,1.33-.19,2.27-.03,.22-.35,.55-.54,.55-.32,0-.86-.15-.93-.36-1.44-4.27-4.6-7.48-6.93-11.2-.25-.4-.61-.89-.57-1.29,.1-.89,.2-1.92,.7-2.6,.7-.94,1.87-.9,2.88-.34,.57,.32,1.16,.74,1.54,1.26,2.42,3.31,4.2,6.86,4.03,11.7Z"/>
        <path d="M949.51,166.89c-.42-1.7-.99-3.23-1.12-4.79-.21-2.38-.15-4.78-.11-7.17,.01-.62,.24-1.46,.68-1.8,.61-.47,1.54-.84,2.28-.75,.59,.07,1.52,.84,1.57,1.36,.39,4.42,.22,8.78-2.25,12.71-.08,.13-.33,.15-1.05,.45Z"/>
        <path d="M1052.77,70.88c-.41,.12-.62,.25-.76,.21-3.35-1.12-6.69-2.25-10.03-3.4-.36-.12-.85-.25-.99-.52-.38-.72-.93-1.58-.79-2.26,.14-.67,.97-1.28,1.62-1.75,.33-.23,.93-.13,1.41-.1,3.83,.22,8.21,3.77,9.54,7.82Z"/>
        <path d="M1072.07,198.81c-2.41-2.18-4.39-3.96-6.36-5.76-.21-.19-.4-.42-.56-.65-.97-1.39-.98-2.69-.05-3.67,.96-1,2.71-1.1,3.91,.02,2.74,2.55,4.16,5.61,3.06,10.06Z"/>
        <path d="M985.56,64.76c-.97,0-1.47,.12-1.87-.02-1.92-.67-3.87-.98-5.89-.63-.37,.06-.77,.06-1.14,0-1.53-.2-2.35-1.02-2.4-2.35-.05-1.46,.8-2.49,2.37-2.72,2.93-.43,5.21,.83,7.1,2.91,.62,.68,1.04,1.56,1.84,2.8Z"/>
        <path d="M1056.98,194.19c-1.67,.42-3.1,.94-4.58,1.12-1.52,.18-2.72-.9-2.85-2.24-.15-1.48,.95-2.66,2.6-2.82,2.24-.22,3.45,.68,4.82,3.94Z"/>
        <path d="M963.86,124.55c-.86-2.89-.35-4.98,.73-6.89,.82-1.45,2.59-1.75,3.72-.91,1.1,.82,1.15,2.46-.09,3.78-1.23,1.3-2.63,2.45-4.36,4.03Z"/>
        <path d="M1080.06,205.55c-.1,.82-.04,1.25-.21,1.56-.35,.62-.82,1.18-1.25,1.76-.47-.41-1.02-.76-1.38-1.25-.62-.84-1.19-1.73-1.63-2.67-.6-1.28-.21-2.49,.79-2.97,1.13-.54,2.46-.06,3.06,1.26,.38,.84,.49,1.8,.62,2.31Z"/>
      </g>
    </g>
  </g>
</svg>