<?xml version="1.0" encoding="UTF-8"?>
<svg xmlns="http://www.w3.org/2000/svg" viewBox="0 0 1415.13 266.7">
  <defs>
    <style>
      .cls-1 {
        fill: #fff;
      }

      .cls-2 {
        fill: #14100f;
      }

      .cls-3 {
        fill: #171012;
      }

      .cls-4 {
        fill: #151010;
      }

      .cls-5 {
        fill: #12100e;
      }

      .cls-6 {
        fill: #14100e;
      }

      .cls-7 {
        fill: #14110e;
      }

      .cls-8 {
        fill: #191015;
      }

      .cls-9 {
        fill: #12100d;
      }

      .cls-10 {
        fill: #141111;
      }

      .cls-11 {
        fill: #13110f;
      }

      .cls-12 {
        fill: #191311;
      }

      .cls-13 {
        fill: #13100d;
      }

      .cls-14 {
        fill: #16110f;
      }

      .cls-15 {
        fill: #13100e;
      }

      .cls-16 {
        fill: #13100f;
      }
    </style>
  </defs>
  <g id="_лой_1" data-name="Слой 1"/>
  <g id="_лой_2" data-name="Слой 2">
    <g id="_лой_6" data-name="Слой 6">
      <g>
        <g>
          <path class="cls-9" d="M387.38,79.19c3.79,6,6.39,12.42,6.27,19.69-.07,4.52-1.13,8.82-3.46,12.66-2.19,3.61-3.6,7.42-4.28,11.54-1.36,8.23-6.31,14.01-13.37,17.72-5.34,2.81-10.46,5.85-15.3,9.42-4.13,3.04-8.52,5.73-12.55,8.88-7.61,5.97-16.39,9.25-25.53,11.87-6.45,1.84-13.03,2.23-19.63,1.62-5.38-.5-10.74-1.37-16.04-2.39-4.57-.88-8.76-2.83-12.77-5.25-4.53-2.75-9.25-5.21-13.91-7.82-.65,.41-.88,.61-1.14,.72-4.89,2.13-6.44,6.44-7,11.18-.55,4.57-2.33,8.28-6.14,10.96-1.04,.74-2.01,1.59-2.94,2.47-2.36,2.23-2.62,4.03-1,6.79,.54,.94,1.32,1.76,1.73,2.74,.7,1.7,1.44,3.45,1.7,5.25,.23,1.52,.8,2.6,1.98,3.42,.81,.56,1.65,1.1,2.55,1.49,7.73,3.4,15.41,6.94,23.25,10.06,3.25,1.29,6.83,1.95,10.32,2.33,5.96,.64,11.9,1.48,17.96,1.33,7.41-.19,14.68-.85,21.92-2.63,5.42-1.34,11.05-1.8,16.6-2.59,2.73-.39,5.47-.7,8.21-.99,6.83-.71,13.34,.59,19.52,3.48,3.35,1.57,5.05,4.56,6.12,7.95,2.02,6.36,1.11,12.65-.44,18.92-.78,3.16-2.38,5.82-4.89,7.91-6.19,5.15-12.78,9.39-20.96,10.83-6.58,1.16-13.06,2.85-19.6,4.23-2.01,.42-4.08,.65-6.14,.83-5.89,.53-11.77,1.25-17.67,1.4-7.18,.18-14.39,.01-21.56-.33-4.61-.21-9.23-.79-13.78-1.57-9.6-1.64-18.63-4.89-26.9-10.11-4.18-2.64-8.47-5.06-13.34-6.12-2.79-.6-5.61-1.07-8.43-1.42-2.72-.33-5.08-1.13-7.02-3.24-1.03-1.12-2.5-1.87-3.82-2.71-2.74-1.73-4.8-4.1-6.33-6.88-3.76-6.83-5.75-14.15-6.13-21.96-.35-7.28-.89-14.56-1.59-21.81-.97-9.98-.83-19.86,1.32-29.69,1.83-8.35,2.18-16.73,.46-25.19-1.63-8.04,.08-15.61,3.68-22.88,4.33-8.77,10.06-16.39,17.7-22.56,8.89-7.19,17.93-14.17,27.54-20.39,4.64-3,9.53-5.42,15.04-6.52,4.33-.86,8.07-3.2,11.47-5.87,8.29-6.53,17.76-8.44,27.84-6.77,5.26,.87,10.35,3.02,15.42,4.87,7.66,2.81,15.18,6,23.37,7.03,5.56,.71,11.11,1.61,16.7,2.04,7.65,.59,14.92,2.62,22.01,5.3,5.48,2.08,9.84,5.79,12.98,10.76Zm-2.15,29.21c1.77-4.01,3.07-8.24,2.24-12.59-.69-3.62-1.87-7.24-3.45-10.58-2.78-5.9-7.31-10-13.58-12.36-9.56-3.61-19.56-4.77-29.57-6.13-5.61-.77-11.28-1.68-16.68-3.32-8.24-2.52-16.29-5.69-24.39-8.64-5.56-2.02-11.19-1.78-16.85-.73-4.13,.77-7.71,2.78-11.14,5.14-4.53,3.12-9.11,6.22-14.62,7.38-4.22,.9-7.93,2.88-11.51,5.13-8.58,5.41-16.53,11.69-24.58,17.85-8.87,6.78-15.8,14.98-20.25,25.26-2.27,5.23-3.57,10.62-3.12,16.32,.3,3.81,.62,7.64,1.3,11.4,.71,3.89,0,7.63-.53,11.4-.77,5.53-2.2,11.01-2.44,16.56-.31,6.86,.18,13.77,.58,20.64,.35,6.07,1.19,12.11,1.56,18.18,.32,5.23,1.23,10.3,2.99,15.23,1.85,5.2,4.34,9.88,9.34,12.8,1.08,.63,2.01,1.55,2.99,2.36,1.4,1.17,2.89,1.78,4.81,1.81,2.83,.05,5.68,.4,8.47,.88,5.13,.89,9.57,3.46,13.91,6.19,5.11,3.21,10.52,5.65,16.37,7.21,5.12,1.36,10.26,2.54,15.57,2.92,6.96,.49,13.9,1.41,20.85,1.48,6.67,.07,13.35-.62,20.01-1.17,4.09-.33,8.18-.91,12.23-1.59,4.73-.79,9.42-1.78,14.11-2.75,2.87-.59,5.78-1.11,8.57-2,5.05-1.6,9.18-4.85,13.23-8.14,1.82-1.48,2.97-3.51,3.44-5.73,1.17-5.52,1.25-11.07-.1-16.6-.62-2.56-2.04-4.41-4.55-5.38-4.15-1.6-8.38-2.9-12.88-2.61-3.81,.25-7.63,.63-11.4,1.19-5.14,.75-10.32,1.39-15.33,2.67-7.19,1.85-14.4,3.08-21.83,2.75-1.86,0-3.73,.13-5.58-.02-4-.33-7.99-.97-12-1.19-5.67-.3-11.07-1.65-16.22-3.91-6.02-2.64-11.92-5.57-17.87-8.39-1.77-.84-3.58-1.65-5.27-2.64-2.37-1.39-4.33-3.32-4.59-6.15-.21-2.2-1.13-3.91-2.26-5.65-.7-1.07-1.37-2.18-1.89-3.34-1.39-3.09-.85-5.97,1.29-8.51,1.2-1.42,2.51-2.76,3.93-3.96,2.61-2.22,4.06-4.82,4.24-8.38,.17-3.6,.9-7.2,2.66-10.47,2.53-4.69,7.24-6.52,12.13-4.74,.46,.17,.95,.23,1.42,.34,3.83,.92,7.54,2.09,10.88,4.3,4.35,2.87,8.85,5.5,14.05,6.54,3.17,.63,6.34,1.42,9.55,1.62,5.78,.37,11.68,1.07,17.37,.34,8.76-1.13,17.34-3.68,24.96-8.31,6.29-3.82,12.22-8.27,18.19-12.59,4.62-3.34,9.17-6.66,14.45-9.04,6.52-2.93,10.7-8.09,12.16-15.31,.58-2.87,1.51-5.67,2.47-8.44,.54-1.57,1.49-3,2.16-4.53Z"/>
          <path class="cls-1" d="M387.47,95.81c.83,4.35-.47,8.58-2.24,12.59-.67,1.53-1.62,2.96-2.16,4.53-.96,2.77-1.89,5.57-2.47,8.44-1.46,7.22-5.64,12.38-12.16,15.31-5.28,2.38-9.83,5.7-14.45,9.04-5.97,4.32-11.9,8.77-18.19,12.59-7.62,4.63-16.2,7.18-24.96,8.31-5.69,.73-11.59,.03-17.37-.34-3.21-.2-6.38-.99-9.55-1.62-5.2-1.04-9.7-3.67-14.05-6.54-3.34-2.21-7.05-3.38-10.88-4.3-.47-.11-.96-.17-1.42-.34-4.89-1.78-9.6,.05-12.13,4.74-1.76,3.27-2.49,6.87-2.66,10.47-.18,3.56-1.63,6.16-4.24,8.38-1.42,1.2-2.73,2.54-3.93,3.96-2.14,2.54-2.68,5.42-1.29,8.51,.52,1.16,1.19,2.27,1.89,3.34,1.13,1.74,2.05,3.45,2.26,5.65,.26,2.83,2.22,4.76,4.59,6.15,1.69,.99,3.5,1.8,5.27,2.64,5.95,2.82,11.85,5.75,17.87,8.39,5.15,2.26,10.55,3.61,16.22,3.91,4.01,.22,8,.86,12,1.19,1.85,.15,3.72,.02,5.58,.02,7.43,.33,14.64-.9,21.83-2.75,5.01-1.28,10.19-1.92,15.33-2.67,3.77-.56,7.59-.94,11.4-1.19,4.5-.29,8.73,1.01,12.88,2.61,2.51,.97,3.93,2.82,4.55,5.38,1.35,5.53,1.27,11.08,.1,16.6-.47,2.22-1.62,4.25-3.44,5.73-4.05,3.29-8.18,6.54-13.23,8.14-2.79,.89-5.7,1.41-8.57,2-4.69,.97-9.38,1.96-14.11,2.75-4.05,.68-8.14,1.26-12.23,1.59-6.66,.55-13.34,1.24-20.01,1.17-6.95-.07-13.89-.99-20.85-1.48-5.31-.38-10.45-1.56-15.57-2.92-5.85-1.56-11.26-4-16.37-7.21-4.34-2.73-8.78-5.3-13.91-6.19-2.79-.48-5.64-.83-8.47-.88-1.92-.03-3.41-.64-4.81-1.81-.98-.81-1.91-1.73-2.99-2.36-5-2.92-7.49-7.6-9.34-12.8-1.76-4.93-2.67-10-2.99-15.23-.37-6.07-1.21-12.11-1.56-18.18-.4-6.87-.89-13.78-.58-20.64,.24-5.55,1.67-11.03,2.44-16.56,.52-3.77,1.24-7.51,.53-11.4-.68-3.76-1-7.59-1.3-11.4-.45-5.7,.85-11.09,3.12-16.32,4.45-10.28,11.38-18.48,20.25-25.26,8.05-6.16,16-12.44,24.58-17.85,3.58-2.25,7.29-4.23,11.51-5.13,5.51-1.16,10.09-4.26,14.62-7.38,3.43-2.36,7.01-4.37,11.14-5.14,5.66-1.05,11.29-1.29,16.85,.73,8.1,2.95,16.15,6.12,24.39,8.64,5.4,1.64,11.07,2.55,16.68,3.32,10.01,1.36,20.01,2.52,29.57,6.13,6.27,2.36,10.8,6.46,13.58,12.36,1.58,3.34,2.76,6.96,3.45,10.58Zm-55.52,28.99c5.6,.66,12.17-3.9,10.48-11.15-1.62-6.94-10.54-14.44-17.71-13.57-1.01,.12-1.94,.37-2.78,.73-1.06-.5-2.22-.8-3.41-.91-.54-1.34-1.43-2.65-2.73-3.84-5.01-4.63-14.08-6.12-20.58-6.9-7.44-.89-15.5-.15-21.86,4.13-6.32,4.26-10.96,12.52-13.04,19.74-5.51,19.1,13.92,32.86,31.5,30.58,5.07-.66,9.57-2.47,14.39-4,4.09-1.29,8.32-1.93,12.12-4.04,3.03-1.67,5.34-4.06,6.81-6.97,2.72-.06,5.3-1.25,6.81-3.8Z"/>
        </g>
        <path class="cls-1" d="M299,220.83c7.44,.33,14.64-.91,21.83-2.75,5.01-1.28,10.19-1.93,15.33-2.68,3.78-.55,7.59-.94,11.4-1.19,4.5-.29,8.73,1.01,12.88,2.61,2.51,.97,3.94,2.82,4.56,5.37,1.34,5.53,1.26,11.09,.1,16.6-.47,2.22-1.62,4.25-3.44,5.73-4.05,3.29-8.17,6.54-13.23,8.15-2.79,.89-5.69,1.4-8.57,1.99-4.69,.97-9.38,1.96-14.11,2.76-4.05,.68-8.14,1.25-12.24,1.59-6.66,.55-13.34,1.24-20,1.17-6.95-.07-13.9-.99-20.85-1.48-5.31-.38-10.45-1.56-15.58-2.92-5.84-1.56-11.26-4-16.37-7.21-4.33-2.72-8.77-5.3-13.91-6.18-2.79-.48-5.64-.83-8.47-.88-1.92-.03-3.41-.64-4.81-1.81-.98-.82-1.91-1.73-2.99-2.37-4.99-2.92-7.48-7.6-9.33-12.8-1.76-4.93-2.67-10-2.99-15.23-.37-6.07-1.21-12.11-1.57-18.18-.4-6.87-.88-13.78-.58-20.64,.24-5.54,1.68-11.03,2.44-16.55,.52-3.77,1.24-7.52,.53-11.41-.68-3.75-1-7.58-1.3-11.39-.45-5.7,.85-11.09,3.11-16.32,4.45-10.28,11.38-18.48,20.25-25.26,8.05-6.16,16-12.44,24.59-17.85,3.58-2.25,7.29-4.24,11.5-5.13,5.51-1.17,10.09-4.26,14.62-7.38,3.43-2.36,7.01-4.37,11.14-5.14,5.66-1.05,11.29-1.29,16.85,.73,8.11,2.95,16.15,6.12,24.39,8.64,5.4,1.65,11.07,2.56,16.68,3.32,10.01,1.36,20.01,2.52,29.57,6.13,6.26,2.36,10.8,6.47,13.58,12.36,1.57,3.34,2.76,6.96,3.45,10.58,.83,4.35-.47,8.57-2.24,12.59-.68,1.53-1.63,2.95-2.17,4.53-.95,2.77-1.89,5.58-2.47,8.44-1.46,7.22-5.65,12.38-12.16,15.31-5.28,2.38-9.83,5.69-14.45,9.04-5.97,4.32-11.9,8.77-18.19,12.59-7.62,4.63-16.2,7.18-24.96,8.3-5.69,.73-11.59,.03-17.37-.33-3.2-.2-6.38-.99-9.55-1.62-5.2-1.04-9.7-3.67-14.05-6.54-3.34-2.21-7.06-3.37-10.89-4.3-.47-.11-.96-.17-1.42-.34-4.89-1.78-9.6,.04-12.13,4.74-1.76,3.26-2.49,6.86-2.66,10.47-.17,3.56-1.62,6.16-4.24,8.37-1.41,1.2-2.73,2.54-3.93,3.96-2.14,2.54-2.68,5.43-1.29,8.52,.52,1.16,1.19,2.26,1.89,3.33,1.13,1.74,2.05,3.46,2.26,5.65,.27,2.83,2.22,4.77,4.59,6.15,1.69,.99,3.5,1.79,5.28,2.64,5.95,2.82,11.85,5.75,17.87,8.39,5.14,2.26,10.55,3.61,16.22,3.91,4.01,.22,8,.85,12,1.18,1.85,.15,3.71,.03,5.57,.03Zm-23.2-149.16c1.08,2.09,2.66,2.86,5.33,2.12,4.68-1.3,9.33-2.73,13.93-4.27,1.6-.54,3.03-1.57,5.19-2.72-1.5-.84-2.3-1.54-3.23-1.77-4.52-1.13-9.03-.97-13.49,.44-.47-.08-.94-.16-1.41-.23-2.64-.43-5.28-.65-7.84,.36-1.87,.74-2.66,2.57-1.92,4.32,.65,1.54,2.04,1.67,3.44,1.75Zm-36.05,13.97c-.35,.18-.67,.47-1.04,.54-3.61,.68-6.47,2.66-9.04,5.15-.63,.61-1.28,1.25-1.71,2-.77,1.34-.57,2.96,.32,3.79,.9,.85,2.82,.77,4.06-.21,.68-.54,1.32-1.15,1.97-1.73,1.92,3.08,4.18,3.96,7.06,2.09,3.01-1.95,5.73-4.38,8.46-6.73,.7-.6,1.08-1.63,1.44-2.53,.78-1.95,.3-3.22-1.59-4.08-.77-.35-1.68-.5-2.53-.56-2.74-.2-5.05,1.1-7.39,2.26Zm50.15,5.07c-2.4,.44-4.84,.72-7.18,1.36-7.89,2.14-13.8,7.08-18.12,13.8-4.14,6.46-6.98,13.42-5.32,21.41,.13,.63-.05,1.32-.05,1.98-.01,3.41,.42,6.84,3,9.23,1.83,1.69,4.16,3.18,6.52,3.89,4.58,1.37,9.33,2.2,14.04,3.12,5.18,1.01,10.4,.44,15.59,0,4.53-.38,9.07-1.12,12.83-3.84,4.29-3.11,8.44-6.45,12.4-9.97,3.29-2.92,6.9-5.18,10.94-6.85,1.99-.82,3.96-1.74,5.87-2.75,1.53-.81,2.77-2.1,2.86-3.87,.1-2.14,0-4.33-.35-6.45-.94-5.76-5.01-8.87-9.9-11.19-2.51-1.2-5.16-1.86-7.97-1.71-3.24,.18-6.47,.51-9.71,.48-1.61-.01-3.31-.46-4.81-1.1-2.71-1.16-5.33-2.53-7.92-3.95-3.96-2.17-8.14-3.35-12.73-3.59Zm59.91,133.7c-.05-1.82-1.27-2.37-2.44-2.8-1.17-.43-2.44-.81-3.67-.87-5.99-.26-11.9,.24-17.59,2.29-.8,.29-1.52,.82-2.21,1.33-1.24,.92-1.77,2.24-1.14,3.63,.63,1.38,1.76,2.43,3.49,2.19,2.5-.35,5.01-.67,7.47-1.2,5.4-1.18,10.9-2.03,16.1-4.56Zm26.48-131.15c-.25-1.54-.31-2.63-.61-3.64-.7-2.35-3.42-4.23-5.31-3.79-2.4,.56-4.5,3.37-3.87,5.76,.72,2.71,1.69,5.4,2.95,7.9,1.26,2.5,4.39,2.38,5.48-.24,.84-2.01,1-4.31,1.36-6Zm-165.37,28.86c-2.3,.14-3.08,.6-4.33,2.59-2.33,3.71-3.45,7.88-4.14,12.12-.24,1.46,.04,3.18,.63,4.54,.81,1.9,3.13,1.74,4.08-.14,.3-.6,.49-1.28,.62-1.94,.61-2.96,1.21-5.93,1.75-8.91,.5-2.73,.92-5.48,1.39-8.27Zm72.85,105.73c-.48-.92-.7-1.89-1.3-2.39-2.62-2.18-5.65-3.51-9.1-3.56-2.34-.03-3.81,1.29-4.11,3.38-.35,2.42,.83,4.28,3.2,4.87,4.02,.99,7.63-.07,11.31-2.3Zm-68.78,4.06l.53-.35c-.16-.93-.22-1.89-.51-2.78-.7-2.13-1.45-4.24-2.3-6.31-.85-2.08-1.79-4.12-2.78-6.14-.63-1.29-1.75-1.88-3.17-1.49-1.39,.39-2.14,1.43-1.99,2.87,.12,1.14,.24,2.43,.84,3.33,1.78,2.67,3.71,5.26,5.76,7.73,1.01,1.21,2.41,2.1,3.63,3.14Zm156.5-114.76c-2.51,2.78-4.71,5.01-6.64,7.45-.97,1.21-.81,2.76,.18,4.09,.76,1.03,1.72,1.67,3.01,1.41,1.6-.32,2.11-1.68,2.43-3.03,.63-2.66,1.18-5.34,1.69-8.02,.07-.38-.27-.83-.66-1.9Zm-21.34,118.36c2.15,.09,4.34-1.26,4.36-2.68,.02-1.81-2.29-3.77-4.55-3.85-1.96-.07-3.67,1.3-3.7,2.96-.04,1.95,1.63,3.48,3.89,3.57Zm-116.28-.35c-.21-.41-.32-.68-.48-.91-1.49-2.05-2.96-4.11-4.5-6.12-.73-.96-1.64-1.77-2.98-1.04-1.13,.62-1.5,1.89-1.04,3.3,.06,.19,.07,.4,.17,.56,1.86,2.73,4.59,4.15,7.71,4.9,.29,.07,.72-.43,1.12-.68Zm-20.68-100.79s-.19-.14-.36-.11c-.28,.05-.64,.13-.78,.33-1.75,2.56-2.86,5.34-2.43,8.5,.23,1.71,1.42,2.97,2.46,2.89,1.22-.1,1.71-1.06,1.64-3.25-.02-.59-.07-1.17-.1-1.76-.13-2.09-.27-4.19-.42-6.6Z"/>
        <path class="cls-9" d="M289.9,90.72c4.58,.24,8.77,1.42,12.73,3.59,2.58,1.42,5.21,2.79,7.92,3.95,1.49,.64,3.19,1.08,4.81,1.1,3.23,.03,6.47-.31,9.71-.48,2.81-.15,5.46,.51,7.97,1.71,4.88,2.32,8.96,5.43,9.9,11.19,.35,2.12,.46,4.31,.35,6.45-.09,1.77-1.33,3.06-2.86,3.87-1.91,1.01-3.87,1.92-5.87,2.75-4.04,1.67-7.64,3.93-10.94,6.85-3.96,3.52-8.11,6.87-12.4,9.97-3.76,2.72-8.3,3.46-12.83,3.84-5.19,.44-10.41,1.02-15.59,0-4.71-.92-9.46-1.75-14.04-3.12-2.37-.71-4.69-2.2-6.52-3.89-2.58-2.39-3.01-5.82-3-9.23,0-.66,.18-1.35,.05-1.98-1.66-7.99,1.17-14.95,5.32-21.41,4.31-6.72,10.23-11.66,18.12-13.8,2.34-.64,4.79-.92,7.18-1.36Zm.27,49.72c1.97-.09,3.94-.13,5.91-.28,5.8-.43,11.26-1.82,15.83-5.7,2.1-1.79,4.28-3.49,6.38-5.27,4.45-3.78,9.14-7.16,14.68-9.22,1.47-.55,2.9-1.23,4.34-1.86,1.1-.48,1.79-1.3,1.64-2.53-.5-3.91-1.56-7.44-5.36-9.63-3.08-1.77-6.17-3-9.78-2.44-1.17,.18-2.35,.23-3.52,.38-4.61,.58-9.02,.02-13.2-2.12-2.27-1.17-4.56-2.31-6.85-3.45-7.26-3.6-14.46-3.31-21.47,.6-7.94,4.43-12.61,11.39-14.75,20.09-.48,1.97-.66,4.12-.45,6.13,.27,2.62,1.02,5.19,1.68,7.75,.14,.56,.72,1.13,1.24,1.44,7.28,4.39,15.23,6.23,23.69,6.1Z"/>
        <path class="cls-1" d="M349.81,224.41c-5.21,2.53-10.71,3.38-16.1,4.56-2.46,.54-4.97,.85-7.47,1.2-1.73,.24-2.86-.81-3.49-2.19-.63-1.39-.09-2.71,1.14-3.63,.69-.51,1.42-1.05,2.21-1.33,5.69-2.05,11.6-2.55,17.59-2.29,1.24,.05,2.5,.43,3.67,.87,1.17,.43,2.39,.98,2.44,2.8Z"/>
        <path class="cls-1" d="M239.75,85.64c2.34-1.16,4.65-2.46,7.39-2.26,.86,.06,1.76,.21,2.53,.56,1.9,.86,2.38,2.13,1.59,4.08-.36,.9-.74,1.93-1.44,2.53-2.74,2.35-5.45,4.77-8.46,6.73-2.88,1.87-5.15,.99-7.06-2.09,1.68-1.76,3.39-3.49,5.03-5.28,1.01-1.1,2.19-2.16,2.21-4.04l-1.8-.21Z"/>
        <path class="cls-1" d="M283.53,65.48c4.46-1.41,8.97-1.57,13.49-.44,.93,.23,1.73,.93,3.23,1.77-2.16,1.15-3.59,2.18-5.19,2.72-4.6,1.54-9.25,2.97-13.93,4.27-2.67,.74-4.25-.03-5.33-2.12,2.67-.84,5.38-1.6,8-2.57,1-.37,2.55-1.23,2.57-1.89,.04-1.55-1.76-1.31-2.84-1.73Z"/>
        <path class="cls-5" d="M210.92,122.13c-.46,2.79-.89,5.54-1.39,8.27-.54,2.98-1.14,5.94-1.75,8.91-.14,.66-.32,1.34-.62,1.94-.95,1.88-3.27,2.04-4.08,.14-.59-1.37-.86-3.09-.63-4.54,.7-4.25,1.82-8.41,4.14-12.12,1.24-1.98,2.03-2.45,4.33-2.59Z"/>
        <path class="cls-15" d="M214.99,231.91c-1.22-1.04-2.62-1.92-3.63-3.14-2.05-2.47-3.98-5.06-5.76-7.73-.6-.9-.72-2.2-.84-3.33-.15-1.43,.6-2.48,1.99-2.87,1.42-.4,2.54,.2,3.17,1.49,.99,2.02,1.93,4.06,2.78,6.14,.85,2.07,1.6,4.19,2.3,6.31,.29,.89,.35,1.85,.51,2.78l-.53,.35Z"/>
        <path class="cls-16" d="M239.75,85.64l1.8,.21c-.02,1.88-1.2,2.94-2.21,4.04-1.64,1.79-3.35,3.52-5.03,5.28-.66,.58-1.29,1.19-1.97,1.73-1.24,.98-3.15,1.06-4.06,.21-.88-.83-1.09-2.45-.32-3.79,.43-.75,1.08-1.39,1.71-2,2.57-2.49,5.43-4.47,9.04-5.15,.37-.07,.69-.35,1.04-.54Z"/>
        <path class="cls-11" d="M283.53,65.48c1.09,.42,2.88,.18,2.84,1.73-.02,.67-1.57,1.52-2.57,1.89-2.62,.97-5.33,1.73-8,2.57-1.4-.08-2.79-.21-3.44-1.75-.73-1.74,.05-3.58,1.92-4.32,2.56-1.01,5.2-.79,7.84-.36,.47,.08,.94,.16,1.41,.23Z"/>
        <path class="cls-16" d="M371.48,117.15c.39,1.07,1.19,2.05,.86,2.12-.51,2.68-1.25,5.15-1.88,7.81-.32,1.35-.83,2.71-2.43,3.03-1.29,.26-2.25-.39-3.01-1.41-.99-1.34-1.15-2.88-.18-4.09,1.94-2.44,4.14-4.67,6.64-7.45Z"/>
        <path class="cls-1" d="M350.14,235.51c-2.27-.1-3.93-1.63-3.89-3.57,.03-1.67,1.74-3.03,3.7-2.96,2.25,.08,4.57,2.05,4.55,3.85-.02,1.43-2.21,2.78-4.36,2.68Z"/>
        <path class="cls-16" d="M233.86,235.16c-.4,.26-.83,.75-1.12,.68-3.11-.75-5.84-2.17-7.71-4.9-.1-.15-.11-.37-.17-.56-.46-1.41-.09-2.68,1.04-3.3,1.34-.73,2.25,.08,2.98,1.04,1.53,2.01,3.01,4.07,4.5,6.12,.16,.23,.27,.5,.48,.91Z"/>
        <path class="cls-10" d="M213.18,134.36c.16,2.41,.29,4.51,.42,6.6,.04,.59,.09,1.17,.1,1.76,.07,2.19-.42,3.15-1.64,3.25-1.03,.09-2.23-1.18-2.46-2.89-.42-3.16,.68-5.94,2.43-8.5,.14-.2,.5-.28,.78-.33,.16-.03,.36,.11,.36,.11Z"/>
      </g>
      <g>
        <g>
          <path class="cls-9" d="M172.65,195.95c.09,7.18,.31,14.36,.27,21.55-.03,5.52-.3,11.06-.63,16.57-.23,3.92-1.98,7.25-4.56,10.17-2.61,2.94-5.6,5.39-9.14,7.1-6,2.92-12.05,5.74-18.08,8.59-4.98,2.34-10.16,3.75-15.73,3.5-5.16-.24-10.25,.44-15.38,1.05-12.01,1.41-23.96,1.28-35.85-1.66-3.39-.84-7.21-.83-10.68-.27-9.02,1.45-17.56,.19-25.94-3.16-5.13-2.04-10.3-3.96-15.53-5.72-10.45-3.51-16.66-10.88-19.83-21.17-2.04-6.65-1.63-13.25,.62-19.72,2.09-6.02,6.48-10.03,12.04-12.84,6.87-3.47,14.1-4.79,21.75-3.49,2.96,.5,5.98,.77,8.88,1.49,6.74,1.68,11.38,5.98,14.45,12.11,1,2,2.03,3.97,3.08,5.94,3.23,6.09,8.79,8.12,15.19,8.53,2.8,.18,5.63,.04,8.45,.03,4.46-.03,8.63,1.06,12.51,3.27,1.85,1.06,3.69,2.14,5.56,3.15,3.02,1.63,6.19,2.09,9.58,1.4,5.91-1.21,11.4-3.1,15.23-8.21,2.13-2.85,3.66-5.88,4.17-9.46,.48-3.36,1.49-6.51,3.23-9.55,1.9-3.34,3.7-6.95,4.48-10.67,1.09-5.2-.2-10.3-3.79-14.41-1.73-1.99-4.4-2.33-6.98-2.37-3.11-.04-6.22-.02-9.32-.04-3.61-.03-6.73-1.25-8.9-4.17-2.14-2.88-4.97-3.76-8.38-3.75-10.15,.02-20.11,1.2-29.88,4.06-12.52,3.66-24.91,3.16-37.07-1.6-5.92-2.32-11.29-5.65-15.78-10.18-5.67-5.72-7.65-13.11-8.81-20.78-2.02-13.33-.07-26.3,3.75-39.08,1.72-5.74,3.44-11.49,5.13-17.24,.22-.74,.44-1.54,.37-2.28-.97-9.13,2.91-16.15,9.47-22.04,8.58-7.7,18.45-11.18,29.99-9.2,3.45,.59,6.89,1.19,10.32,1.85,5.76,1.1,11.46,.14,17.06-.87,5.51-.99,10.89-2.68,16.32-4.07,3.38-.87,6.74-1.75,10.12-2.62,2.74,0,5.49,0,8.24,0,8.51,.55,16.55,2.84,24.36,6.26,6.23,2.73,11.24,6.9,15.46,12.05,6.08,7.42,9.48,15.95,9.89,25.6,.14,3.29,.52,6.6,.35,9.87-.31,5.93-3.03,10.99-6.63,15.54-2.76,3.49-8.45,4.55-12.49,2.6-3.15-1.51-5.6-3.82-7.43-6.77-1.02-1.65-2.13-3.29-2.81-5.08-1.77-4.65-5.51-7.47-9.39-9.94-3.75-2.38-8.16-3-12.63-2.55-3.18,.32-6.4,.56-9.54,1.15-4.48,.84-8.68,.13-12.77-1.66-3.94-1.73-7.96-2.87-12.36-2.89-10.99-.05-21.43,5.39-25.34,16.73-2.73,7.92-3.43,15.84-1.73,24.02,.73,3.52,2.53,6.4,5.05,8.96,6.81,.06,13.46-.83,19.77-3.79,6.84-3.2,13.82-6.1,20.63-9.37,5.45-2.63,11.09-2.51,16.81-1.79,11.33,1.43,21.63,5.93,30.74,12.43,13.72,9.78,21.29,23.01,19.94,40.56-.46,6.07,.04,12.21,.12,18.32Zm-4.16,29.78c.22-5.63,.22-11.27,.17-16.9-.04-3.68-.37-7.36-.51-11.04-.2-5.04-.37-10.07-.48-15.11-.11-4.74,.33-9.54-.31-14.2-1.53-11.19-7.44-20.02-16.64-26.27-6.15-4.17-12.79-7.72-20-9.95-9.41-2.91-18.55-4.1-27.85,1.1-6.65,3.72-13.93,6.33-20.97,9.34-4.24,1.82-8.7,2.81-13.34,2.21-1.68-.21-3.63-.54-4.87-1.54-3.4-2.76-6.31-6.03-7.52-10.43-2.2-7.98-1.68-15.94,.35-23.85,1.34-5.19,3.26-10.16,6.84-14.29,7.62-8.77,17.66-10.75,28.55-9.63,3.31,.34,6.47,1.92,9.73,2.83,2.03,.56,4.14,1.37,6.18,1.28,4.05-.18,8.08-.95,12.12-1.38,10.05-1.08,18.68,1.18,24.16,10.56,1.51,2.59,2.98,5.22,4.36,7.88,1.47,2.82,3.4,5.2,6.04,6.96,2.45,1.62,5.69,1.34,7.66-.87,2.67-3,4.67-6.41,5.41-10.45,.93-5.07-.13-10.02-.61-15.03-.86-8.98-5.18-16.13-10.96-22.63-2.8-3.15-6.14-5.6-9.95-7.47-7.13-3.51-14.65-5.44-22.51-6.47-5.36-.69-10.42-.09-15.45,1.69-2.28,.8-4.62,1.45-6.93,2.18-8.29,2.61-16.78,4.25-25.48,3.82-5-.25-10.01-1.14-14.93-2.14-4.87-.98-9.71-.83-14.44,.14-7.01,1.44-12.61,5.5-17.04,10.98-4.05,5.01-6.07,10.72-4.75,17.31,.2,1.01,.09,2.15-.15,3.16-.92,3.96-1.88,7.91-2.95,11.83-2.92,10.69-5.41,21.44-5.74,32.62,.31,3.48,.47,6.97,.97,10.42,1.01,7.07,3.32,13.55,9.06,18.33,8.91,7.44,19.27,10.93,30.76,11.43,5.52,.25,10.73-1.22,16-2.55,6-1.51,12.06-2.85,18.16-3.86,4.19-.69,8.5-.74,12.75-.98,4.88-.28,9.26,.75,12.44,4.88,1.06,1.38,2.54,2.06,4.31,2.11,3.87,.12,7.76,.19,11.63,.42,4.14,.25,8.03,1.68,10.3,5.18,4.71,7.28,6.38,15,2.5,23.41-2.47,5.34-4.56,10.83-5.15,16.85-.39,4.1-2.39,7.75-5.51,10.65-5.3,4.9-11.59,7.72-18.68,8.72-2.37,.33-4.82,.4-7.21,.26-3.83-.22-6.93-2.38-10.06-4.32-4.35-2.69-9-3.97-14.12-3.66-2.13,.13-4.28,.17-6.41,.04-8.33-.47-15.29-3.41-19.48-11.15-.97-1.79-1.92-3.61-3.02-5.31-1.16-1.78-2.38-3.55-3.79-5.13-3.09-3.46-7.36-4.46-11.68-5.35-8.15-1.67-16.01-1.13-23.51,2.75-4.08,2.12-7.45,4.97-9.21,9.32-5.7,14.17,2.26,28.93,13.85,33.53,8.01,3.19,16.17,6.01,24.27,8.97,4.85,1.77,9.8,1.87,14.91,1.19,4.98-.67,10.05-1.3,15.03,.1,4.99,1.41,10.06,2.04,15.23,1.96,4.95-.08,9.93,.16,14.85-.22,7.23-.56,14.4-2.26,21.72-1,.46,.08,.97-.01,1.44-.07,4.17-.53,8.16-1.71,11.94-3.52,5.6-2.67,11.2-5.32,16.7-8.18,5.03-2.61,9.44-5.99,10.68-11.95,.65-3.12,1.02-6.33,1.14-9.51Z"/>
          <path class="cls-1" d="M168.66,208.83c.05,5.63,.05,11.27-.17,16.9-.12,3.18-.49,6.39-1.14,9.51-1.24,5.96-5.65,9.34-10.68,11.95-5.5,2.86-11.1,5.51-16.7,8.18-3.78,1.81-7.77,2.99-11.94,3.52-.47,.06-.98,.15-1.44,.07-7.32-1.26-14.49,.44-21.72,1-4.92,.38-9.9,.14-14.85,.22-5.17,.08-10.24-.55-15.23-1.96-4.98-1.4-10.05-.77-15.03-.1-5.11,.68-10.06,.58-14.91-1.19-8.1-2.96-16.26-5.78-24.27-8.97-11.59-4.6-19.55-19.36-13.85-33.53,1.76-4.35,5.13-7.2,9.21-9.32,7.5-3.88,15.36-4.42,23.51-2.75,4.32,.89,8.59,1.89,11.68,5.35,1.41,1.58,2.63,3.35,3.79,5.13,1.1,1.7,2.05,3.52,3.02,5.31,4.19,7.74,11.15,10.68,19.48,11.15,2.13,.13,4.28,.09,6.41-.04,5.12-.31,9.77,.97,14.12,3.66,3.13,1.94,6.23,4.1,10.06,4.32,2.39,.14,4.84,.07,7.21-.26,7.09-1,13.38-3.82,18.68-8.72,3.12-2.9,5.12-6.55,5.51-10.65,.59-6.02,2.68-11.51,5.15-16.85,3.88-8.41,2.21-16.13-2.5-23.41-2.27-3.5-6.16-4.93-10.3-5.18-3.87-.23-7.76-.3-11.63-.42-1.77-.05-3.25-.73-4.31-2.11-3.18-4.13-7.56-5.16-12.44-4.88-4.25,.24-8.56,.29-12.75,.98-6.1,1.01-12.16,2.35-18.16,3.86-5.27,1.33-10.48,2.8-16,2.55-11.49-.5-21.85-3.99-30.76-11.43-5.74-4.78-8.05-11.26-9.06-18.33-.5-3.45-.66-6.94-.97-10.42,.33-11.18,2.82-21.93,5.74-32.62,1.07-3.92,2.03-7.87,2.95-11.83,.24-1.01,.35-2.15,.15-3.16-1.32-6.59,.7-12.3,4.75-17.31,4.43-5.48,10.03-9.54,17.04-10.98,4.73-.97,9.57-1.12,14.44-.14,4.92,1,9.93,1.89,14.93,2.14,8.7,.43,17.19-1.21,25.48-3.82,2.31-.73,4.65-1.38,6.93-2.18,5.03-1.78,10.09-2.38,15.45-1.69,7.86,1.03,15.38,2.96,22.51,6.47,3.81,1.87,7.15,4.32,9.95,7.47,5.78,6.5,10.1,13.65,10.96,22.63,.48,5.01,1.54,9.96,.61,15.03-.74,4.04-2.74,7.45-5.41,10.45-1.97,2.21-5.21,2.49-7.66,.87-2.64-1.76-4.57-4.14-6.04-6.96-1.38-2.66-2.85-5.29-4.36-7.88-5.48-9.38-14.11-11.64-24.16-10.56-4.04,.43-8.07,1.2-12.12,1.38-2.04,.09-4.15-.72-6.18-1.28-3.26-.91-6.42-2.49-9.73-2.83-10.89-1.12-20.93,.86-28.55,9.63-3.58,4.13-5.5,9.1-6.84,14.29-2.03,7.91-2.55,15.87-.35,23.85,1.21,4.4,4.12,7.67,7.52,10.43,1.24,1,3.19,1.33,4.87,1.54,4.64,.6,9.1-.39,13.34-2.21,7.04-3.01,14.32-5.62,20.97-9.34,9.3-5.2,18.44-4.01,27.85-1.1,7.21,2.23,13.85,5.78,20,9.95,9.2,6.25,15.11,15.08,16.64,26.27,.64,4.66,.2,9.46,.31,14.2,.11,5.04,.28,10.07,.48,15.11,.14,3.68,.47,7.36,.51,11.04Z"/>
        </g>
        <path class="cls-1" d="M15.68,131.97c.33-11.18,2.82-21.94,5.74-32.62,1.07-3.92,2.03-7.87,2.96-11.83,.24-1.02,.35-2.16,.15-3.16-1.32-6.59,.7-12.31,4.75-17.31,4.43-5.48,10.03-9.54,17.03-10.98,4.74-.97,9.57-1.12,14.44-.14,4.93,1,9.93,1.89,14.94,2.14,8.7,.43,17.19-1.21,25.48-3.82,2.31-.73,4.65-1.38,6.93-2.18,5.02-1.77,10.09-2.38,15.44-1.68,7.86,1.03,15.39,2.96,22.52,6.46,3.81,1.87,7.15,4.32,9.95,7.47,5.78,6.5,10.1,13.66,10.96,22.63,.48,5.02,1.54,9.97,.61,15.03-.74,4.04-2.74,7.45-5.41,10.45-1.97,2.21-5.21,2.49-7.66,.87-2.64-1.76-4.58-4.14-6.04-6.95-1.38-2.66-2.85-5.29-4.37-7.88-5.48-9.38-14.11-11.64-24.15-10.56-4.05,.43-8.07,1.2-12.12,1.38-2.04,.09-4.15-.72-6.18-1.28-3.26-.9-6.42-2.49-9.73-2.83-10.89-1.12-20.93,.85-28.55,9.63-3.58,4.13-5.5,9.1-6.84,14.29-2.04,7.9-2.55,15.86-.36,23.84,1.21,4.41,4.12,7.67,7.52,10.43,1.24,1,3.19,1.33,4.87,1.55,4.64,.59,9.1-.39,13.34-2.21,7.04-3.01,14.31-5.63,20.97-9.35,9.3-5.2,18.44-4.01,27.85-1.1,7.21,2.23,13.85,5.78,20,9.95,9.2,6.25,15.11,15.08,16.64,26.26,.64,4.66,.19,9.46,.3,14.2,.12,5.04,.29,10.08,.48,15.11,.14,3.68,.48,7.36,.51,11.04,.06,5.63,.05,11.27-.17,16.9-.12,3.18-.49,6.39-1.14,9.51-1.24,5.96-5.65,9.34-10.68,11.95-5.5,2.85-11.11,5.51-16.7,8.18-3.78,1.81-7.77,2.98-11.94,3.52-.48,.06-.98,.15-1.45,.07-7.32-1.26-14.48,.45-21.71,1-4.93,.38-9.9,.13-14.85,.21-5.18,.09-10.24-.55-15.23-1.95-4.98-1.4-10.05-.77-15.03-.11-5.1,.68-10.06,.58-14.91-1.19-8.1-2.96-16.26-5.78-24.27-8.97-11.59-4.6-19.55-19.36-13.85-33.53,1.76-4.36,5.13-7.21,9.21-9.33,7.49-3.88,15.36-4.42,23.5-2.75,4.32,.89,8.6,1.89,11.68,5.35,1.41,1.58,2.63,3.35,3.79,5.13,1.11,1.7,2.06,3.52,3.03,5.31,4.19,7.74,11.15,10.68,19.48,11.16,2.13,.12,4.28,.08,6.41-.05,5.12-.31,9.77,.97,14.12,3.66,3.12,1.93,6.23,4.1,10.05,4.32,2.4,.14,4.84,.07,7.22-.26,7.09-1,13.38-3.82,18.67-8.72,3.12-2.89,5.12-6.54,5.52-10.65,.58-6.02,2.68-11.51,5.14-16.85,3.88-8.41,2.21-16.13-2.5-23.41-2.27-3.5-6.16-4.93-10.3-5.18-3.87-.23-7.75-.3-11.63-.42-1.76-.05-3.25-.74-4.3-2.11-3.18-4.13-7.57-5.16-12.44-4.89-4.26,.24-8.56,.29-12.75,.98-6.1,1.01-12.16,2.35-18.16,3.86-5.27,1.33-10.48,2.79-16,2.55-11.49-.51-21.85-4-30.76-11.43-5.73-4.78-8.04-11.26-9.06-18.33-.5-3.45-.66-6.94-.97-10.42Zm33.15,89.86c-1.02-2.03-1.73-4.18-3.03-5.88-2.43-3.16-5.48-5.74-9.04-7.6-2.69-1.4-5.47-1.85-8.27-.13-2.67,1.64-2.88,4.92-.29,6.57,2.36,1.51,4.81,2.87,7.27,4.19,2.37,1.28,4.73,2.64,7.25,3.56,1.77,.65,3.85,1.49,6.12-.72Zm106.42-3.97c.06-4.42-1.93-6.99-4.92-7.16-2.95-.17-5.32,2.04-5.55,5.45-.31,4.62-.44,9.25-.63,13.88-.06,1.56-.17,3.32,1.73,3.87,1.69,.48,2.91-.68,4.02-1.81,.2-.21,.38-.44,.55-.67,3.15-4.27,3.6-9.45,4.8-13.55Zm-3.68-48.94c.08-.92,.2-1.48,.18-2.04-.17-5.09-7.28-12.23-10.94-13.72-1.66-.68-3.93,.15-4.65,1.41-.81,1.41-.53,3.43,.7,4.78,.39,.43,.84,.79,1.3,1.15,1.51,1.19,2.99,2.42,4.57,3.52,2.66,1.85,5.23,3.89,8.85,4.9Zm-113.97-23.82c1.26-5.51,1.27-10.42,.97-15.32-.13-2.08-1.78-3.11-3.91-3.03-1.82,.06-3.15,.8-3.45,2.89-.69,4.73-.57,9.46,2.91,13.3,.78,.86,2.02,1.29,3.47,2.17Zm111.24-76.51c-.02-.16-.02-.45-.09-.73-.89-3.37-8.4-8.47-11.9-8.03-2.01,.25-4.02,2.31-2.41,4.29,2.82,3.47,6.06,6.49,10.56,7.68,2.03,.54,3.9-1.02,3.84-3.21ZM18,239.58c-1.05-2.46-2-4.23-2.58-6.11-1.17-3.78-2.09-7.64-3.2-11.44-.56-1.93-1.65-2.74-3.03-2.53-1.31,.21-2.23,1.45-2.36,3.26-.03,.38,0,.77,.07,1.15,.96,6.25,4.07,11.2,9.08,14.98,.35,.26,.86,.3,2.02,.68Zm11.16-89.02c-.86-2.82-1.74-5.54-2.51-8.3-.39-1.39-.53-2.86-.85-4.27-.45-1.95-1.66-3.08-3.06-2.96-1.51,.13-2.85,1.74-2.62,3.63,.52,4.25,2.02,8.09,5.44,10.91,1.04,.86,2.2,1.59,3.62,.98Zm126.53,13.36c-.19-1.61-.23-2.72-.46-3.79-.74-3.45-2.75-6.12-5.44-8.29-1.08-.87-2.33-1.01-3.44-.05-.95,.82-.77,2.42,.33,3.61,.33,.35,.75,.62,1.08,.97,2.06,2.16,4.09,4.35,6.17,6.49,.33,.35,.85,.52,1.76,1.06ZM36.74,68.74c-2.05-.18-2.49-.15-3.46,.79-2.04,1.99-3.06,4.42-2.9,7.31,.09,1.51,.94,2.37,2.35,2.47,1.46,.11,1.86-.92,2.11-2.22,.52-2.74,1.22-5.44,1.9-8.35Zm30.41-2.01c-3.03-1.61-4.76-2.23-6.45-1.68-.85,.28-1.82,1.16-2.09,1.98-.22,.68,.25,1.98,.86,2.46,2.25,1.81,6.72,.12,7.68-2.76Zm-20.74,3.38c-3.07,.43-5.13,1.43-6.62,3.47-.66,.9-.6,1.96,.34,2.55,.5,.32,1.73,.35,2,0,1.42-1.75,2.64-3.67,4.27-6.03Zm111.06,27.36c1.55-1.95,1.44-3.67,1.28-5.37-.11-1.14-.62-2.22-1.97-1.93-1.27,.27-1.52,1.33-1.07,2.52,.54,1.42,1.05,2.85,1.76,4.78Z"/>
        <path class="cls-1" d="M48.83,221.84c-2.27,2.21-4.35,1.36-6.12,.72-2.51-.92-4.88-2.28-7.25-3.56-2.46-1.33-4.92-2.69-7.27-4.19-2.59-1.66-2.37-4.94,.29-6.57,2.8-1.72,5.58-1.27,8.27,.13,3.56,1.86,6.61,4.44,9.04,7.6,1.3,1.7,2.01,3.85,3.03,5.88Z"/>
        <path class="cls-1" d="M155.25,217.87c-1.19,4.1-1.64,9.28-4.8,13.55-.17,.23-.35,.47-.55,.67-1.11,1.13-2.33,2.3-4.02,1.81-1.9-.54-1.79-2.31-1.73-3.87,.18-4.63,.32-9.26,.63-13.88,.23-3.41,2.6-5.62,5.55-5.45,2.98,.17,4.98,2.74,4.92,7.16Z"/>
        <path class="cls-1" d="M37.6,145.1c-1.45-.88-2.7-1.31-3.47-2.17-3.48-3.84-3.61-8.57-2.91-13.3,.3-2.09,1.64-2.82,3.45-2.89,2.13-.07,3.78,.96,3.91,3.03,.3,4.9,.29,9.81-.97,15.32Z"/>
        <path class="cls-15" d="M18,239.58c-1.15-.38-1.67-.42-2.02-.68-5.01-3.78-8.13-8.73-9.08-14.98-.06-.38-.1-.77-.07-1.15,.13-1.81,1.04-3.05,2.36-3.26,1.37-.22,2.46,.6,3.03,2.53,1.11,3.8,2.03,7.65,3.2,11.44,.58,1.89,1.53,3.66,2.58,6.11Z"/>
        <path class="cls-2" d="M29.17,150.56c-1.42,.61-2.58-.12-3.62-.98-3.41-2.83-4.92-6.66-5.44-10.91-.23-1.89,1.11-3.51,2.62-3.63,1.4-.12,2.61,1.01,3.06,2.96,.33,1.41,.47,2.88,.85,4.27,.77,2.76,1.65,5.48,2.51,8.3Z"/>
        <path class="cls-2" d="M155.7,163.92c-.92-.54-1.43-.71-1.76-1.06-2.08-2.14-4.11-4.33-6.17-6.49-.33-.35-.75-.61-1.08-.97-1.1-1.19-1.28-2.79-.33-3.61,1.11-.96,2.36-.82,3.44,.05,2.69,2.17,4.7,4.84,5.44,8.29,.23,1.07,.27,2.18,.46,3.79Z"/>
        <path class="cls-4" d="M36.74,68.74c-.67,2.92-1.38,5.62-1.9,8.35-.25,1.3-.66,2.33-2.11,2.22-1.41-.1-2.26-.97-2.35-2.47-.16-2.89,.86-5.32,2.9-7.31,.97-.94,1.41-.97,3.46-.79Z"/>
        <path class="cls-1" d="M67.15,66.73c-.97,2.88-5.43,4.57-7.68,2.76-.6-.48-1.08-1.78-.86-2.46,.27-.82,1.24-1.7,2.09-1.98,1.68-.55,3.42,.07,6.45,1.68Z"/>
        <path class="cls-8" d="M46.41,70.11c-1.63,2.36-2.85,4.28-4.27,6.03-.28,.34-1.5,.31-2,0-.94-.59-1-1.65-.34-2.55,1.49-2.04,3.54-3.04,6.62-3.47Z"/>
        <path class="cls-3" d="M157.47,97.47c-.71-1.93-1.23-3.36-1.76-4.78-.45-1.19-.21-2.25,1.07-2.52,1.35-.29,1.86,.79,1.97,1.93,.16,1.7,.27,3.42-1.28,5.37Z"/>
      </g>
      <g>
        <g>
          <path class="cls-9" d="M989.92,241.39c.09,.47-.06,1.44-.25,1.67-2.21,11.1-9.34,17.71-19.67,21.27-1.89,.66-4.02,.92-6.03,.91-4.31,0-8.61-.23-12.92-.53-1.32-.09-2.71-.51-3.88-1.12-9.1-4.79-13.65-12.69-14.58-22.63-1.18-12.69-1.25-25.41,.73-38.05,1.53-9.75,1.41-19.48,.26-29.24-1.06-9.04-2.19-18.05-3.09-27.1-.49-4.86-.59-9.77-.87-14.65-.2-3.65-1.41-6.84-4.16-9.39-1.56-1.43-3.31-2.07-5.38-1.72-1.25,.21-2.48,.56-3.72,.82-4.7,.97-8.07,3.44-10.25,7.89-1.44,2.94-3.68,5.5-5.5,8.27-.87,1.3-1.62,2.67-2.38,4.03-1.81,3.23-3.45,6.57-5.42,9.7-3.09,4.88-7.38,8.36-13.11,9.7-7.05,1.64-11.31,6.08-12.86,12.96-1.39,6.18-2.53,12.45-3.35,18.73-1.13,8.72-2.03,17.48-2.7,26.26-.55,7.22-.64,14.47-.89,21.7-.23,6.58-2.36,12.65-4.91,18.59-1.15,2.69-3.44,4.23-6.15,5.09-6.86,2.18-13.84,2.53-20.87,.99-2.94-.64-5.88-1.51-8.67-2.63-2.19-.87-4.62-1.77-5.07-4.7-.04-.31-.49-.58-.79-.84-4.08-3.46-5.53-8.11-6.2-13.19-1.03-7.83-.6-15.61,.36-23.4,.74-6.02,1.32-12.06,2.03-18.07,1.14-9.82-.1-19.54-1.35-29.24-1.22-9.39-3.25-18.69-4.12-28.12-1.16-12.75-2.1-25.55-1.05-38.39,.99-12.19,2.57-24.29,4.9-36.29,.65-3.34,1.74-6.61,2.85-9.83,1.22-3.57,3.4-6.57,6.22-9.11,3.89-3.48,8.26-4.21,13.08-2.41,1.1,.4,2.26,.84,3.14,1.57,3.97,3.32,8.08,6.52,11.7,10.2,4.1,4.16,4.57,9.78,4.89,15.31,.32,5.3-.33,10.53-.87,15.79-.37,3.78-.28,7.61-.22,11.41,.02,1.3,.56,2.58,1.02,4.56,1.33-2.34,2.3-4.03,3.24-5.73,2.7-4.9,5.57-9.64,10.13-13.14,2.85-2.19,5.89-3.86,9.45-4.44,2.39-.39,4.48-1.35,6.3-2.92,5.18-4.48,10.56-8.74,15.5-13.49,8.81-8.5,19.04-14.33,30.88-17.25,7.43-1.84,15-2.98,22.68-1.63,2.2,.38,4.32,1.17,6.47,1.8,3.37,.99,6.7,2.12,10.09,3,3.94,1.02,7.26,2.98,9.74,6.17,6.08,7.83,10.59,16.42,12.25,26.28,.36,2.21,.32,4.49,.3,6.73-.12,10.18-.19,20.35-.49,30.52-.38,12.32-.94,24.63-1.52,36.94-.5,10.78-.16,21.53,.87,32.25,.86,8.94,2.14,17.84,3.13,26.77,.39,3.49,.53,7.02,.84,10.52,.05,.59,.11,1.59,.09,2.23,.54,3.36,.16,5.32,.16,8.64Zm-7.11,2.62c1.02-4.06,1.17-8.29,.87-12.49-.14-1.94-.32-3.88-.43-5.82-.24-3.9-.39-7.8-.66-11.69-.15-2.03-.02-4.24-.8-6.03-1.7-3.95-1.52-8-1.54-12.09-.02-3.43,.11-6.86-.06-10.28-.21-4.08-.8-8.13-.95-12.21-.11-2.71,.32-5.43,.39-8.16,.24-9.77,.44-19.53,.63-29.3,.07-3.92,.02-7.83,.12-11.74,.06-2.53,.44-5.05,.38-7.57-.08-3.9-.42-7.79-.65-11.69,.14,0,.28,0,.41-.02-.27-4.09-.52-8.17-.79-12.25-.69-10.48-5.02-19.48-11.35-27.65-1.79-2.3-4.12-3.76-7.07-4.33-2.27-.43-4.49-1.26-6.71-1.95-.93-.29-1.83-.66-2.74-1.02-3.74-1.53-7.6-2.23-11.66-1.77-4.35,.49-8.8,.53-13.03,1.52-10.86,2.51-20.25,7.86-28.35,15.56-4.59,4.37-9.48,8.44-14.33,12.51-3.07,2.58-6.38,4.75-10.51,5.42-4.22,.7-7.59,3.03-10.1,6.44-2.14,2.89-4.12,5.9-6.05,8.94-1.53,2.39-2.92,4.87-5.51,6.31-2.96,1.64-5.68,1.08-7.15-1.95-1.16-2.41-2.23-5.11-2.37-7.73-.25-4.75,.2-9.54,.41-14.3,.16-3.41,.49-6.8,.58-10.21,.04-1.54-.41-3.08-.49-4.63-.18-3.32-1.21-6.38-3.29-8.9-2.93-3.54-6.29-6.75-10.3-9.07-3.23-1.87-6.55-1.67-8.75,1.11-1.32,1.65-2.63,3.41-3.51,5.32-2.1,4.54-2.76,9.49-3.54,14.37-.76,4.7-1.33,9.42-1.9,14.15-.6,4.92-1.42,9.83-1.57,14.78-.32,10.34-.33,20.69,1,31,.58,4.43,.81,8.91,1.39,13.35,1.24,9.43,2.89,18.82,3.83,28.28,.75,7.57-.03,15.18-1.24,22.72-.97,6.04-2.08,12.08-2.57,18.16-.55,6.8-.65,13.65-.6,20.48,.03,3.06,.78,6.15,1.44,9.18,.84,3.82,3.99,5.89,6.78,8.14,.54,.43,1.47,.42,2.23,.52,4.05,.5,8.12,.89,12.16,1.51,3.84,.58,7.53,.26,11.27-.72,1.92-.5,3.3-1.52,3.86-3.23,1.24-3.76,2.51-7.57,3.2-11.46,.63-3.52,.48-7.18,.68-10.78,.4-7.29,.79-14.6,1.22-21.89,.12-2.04,.37-4.07,.63-6.09,.73-5.68,1.47-11.36,2.22-17.04,.74-5.47,1.29-10.97,2.9-16.31,2.38-7.91,6.97-13.61,15.06-16.13,4.01-1.24,7.69-3.09,10.04-6.67,2.03-3.08,3.64-6.44,5.46-9.66,1.2-2.11,2.37-4.24,3.71-6.25,2.05-3.07,4.4-5.96,6.33-9.1,2.29-3.75,5.34-6.45,9.54-7.73,2.32-.7,4.7-1.21,7.04-1.81,5.99-1.54,10.38,.96,14.1,5.4,3.04,3.65,4.06,7.9,4.1,12.49,.02,2.55-.16,5.11,.1,7.63,.63,6.28,1.56,12.53,2.19,18.81,.69,6.77,1.26,13.57,1.73,20.36,.58,8.4,0,16.78-1.22,25.09-.94,6.37-1.68,12.74-1.57,19.18,.08,4.77,.35,9.55,.46,14.33,.12,4.97,1.55,9.58,3.75,13.97,.55,1.1,1.42,2.14,2.37,2.91,1.65,1.36,3.51,2.46,5.23,3.75,1.24,.93,2.59,1.31,4.12,1.2,2.43-.18,4.95-.79,7.28-.33,3.5,.69,6.6-.23,9.63-1.5,6.13-2.57,10.85-6.71,12.52-13.36Z"/>
          <path class="cls-1" d="M983.68,231.51c.31,4.2,.16,8.44-.87,12.49-1.67,6.65-6.39,10.79-12.52,13.36-3.03,1.27-6.12,2.19-9.63,1.5-2.32-.45-4.84,.16-7.28,.33-1.53,.11-2.87-.28-4.12-1.2-1.71-1.29-3.57-2.39-5.23-3.75-.95-.78-1.82-1.81-2.37-2.91-2.21-4.39-3.63-9-3.75-13.97-.11-4.78-.38-9.56-.46-14.33-.12-6.44,.63-12.81,1.57-19.18,1.21-8.32,1.8-16.7,1.22-25.09-.47-6.79-1.04-13.59-1.73-20.36-.63-6.28-1.56-12.53-2.19-18.81-.26-2.52-.08-5.08-.1-7.63-.04-4.6-1.05-8.84-4.1-12.49-3.72-4.44-8.11-6.94-14.1-5.4-2.34,.6-4.72,1.11-7.04,1.81-4.2,1.28-7.25,3.98-9.54,7.73-1.93,3.14-4.28,6.02-6.33,9.1-1.34,2.01-2.51,4.14-3.71,6.25-1.82,3.22-3.44,6.58-5.46,9.66-2.35,3.58-6.03,5.43-10.04,6.67-8.09,2.51-12.68,8.22-15.06,16.13-1.61,5.35-2.17,10.84-2.9,16.31-.76,5.68-1.5,11.36-2.22,17.04-.26,2.03-.51,4.06-.63,6.09-.43,7.29-.82,14.6-1.22,21.89-.2,3.6-.05,7.26-.68,10.78-.69,3.89-1.96,7.7-3.2,11.46-.56,1.71-1.94,2.73-3.86,3.23-3.74,.97-7.43,1.3-11.27,.72-4.04-.62-8.11-1-12.16-1.51-.77-.1-1.69-.09-2.23-.52-2.8-2.25-5.95-4.32-6.78-8.14-.66-3.02-1.41-6.11-1.44-9.18-.05-6.82,.05-13.67,.6-20.48,.49-6.08,1.59-12.12,2.57-18.16,1.21-7.54,1.99-15.15,1.24-22.72-.94-9.46-2.59-18.85-3.83-28.28-.58-4.44-.81-8.92-1.39-13.35-1.34-10.31-1.33-20.66-1-31,.15-4.94,.96-9.85,1.57-14.78,.57-4.73,1.14-9.45,1.9-14.15,.79-4.88,1.45-9.83,3.54-14.37,.89-1.91,2.2-3.66,3.51-5.32,2.21-2.79,5.52-2.98,8.75-1.11,4.01,2.31,7.36,5.52,10.3,9.07,2.08,2.52,3.11,5.58,3.29,8.9,.08,1.55,.53,3.09,.49,4.63-.09,3.41-.42,6.8-.58,10.21-.22,4.76-.66,9.56-.41,14.3,.14,2.62,1.21,5.32,2.37,7.73,1.47,3.03,4.18,3.59,7.15,1.95,2.59-1.44,3.99-3.92,5.51-6.31,1.93-3.04,3.92-6.04,6.05-8.94,2.51-3.41,5.88-5.74,10.1-6.44,4.13-.68,7.44-2.85,10.51-5.42,4.85-4.08,9.75-8.14,14.33-12.51,8.1-7.71,17.49-13.05,28.35-15.56,4.23-.98,8.68-1.02,13.03-1.52,4.06-.46,7.92,.25,11.66,1.77,.91,.36,1.81,.74,2.74,1.02,2.22,.69,4.44,1.52,6.71,1.95,2.95,.57,5.28,2.03,7.07,4.33,6.33,8.17,10.66,17.17,11.35,27.65,.27,4.08,.52,8.16,.79,12.25-.14,0-.28,.02-.41,.02,.23,3.9,.57,7.79,.65,11.69,.06,2.52-.32,5.04-.38,7.57-.1,3.92-.05,7.83-.12,11.74-.19,9.77-.39,19.53-.63,29.3-.07,2.73-.5,5.45-.39,8.16,.16,4.08,.75,8.13,.95,12.21,.17,3.42,.04,6.85,.06,10.28,.02,4.09-.17,8.14,1.54,12.09,.78,1.79,.65,4.01,.8,6.03,.27,3.89,.42,7.79,.66,11.69,.12,1.94,.3,3.88,.43,5.82Z"/>
        </g>
        <path class="cls-1" d="M980.77,116.63c.06,2.52-.33,5.05-.39,7.58-.09,3.91-.04,7.83-.12,11.74-.19,9.77-.39,19.53-.63,29.3-.07,2.72-.5,5.45-.39,8.16,.16,4.08,.75,8.13,.95,12.21,.17,3.42,.05,6.85,.06,10.27,.02,4.09-.17,8.14,1.54,12.09,.77,1.8,.65,4.01,.79,6.04,.27,3.89,.43,7.78,.66,11.68,.12,1.94,.3,3.88,.44,5.82,.3,4.2,.15,8.44-.87,12.49-1.67,6.65-6.39,10.8-12.53,13.36-3.04,1.27-6.12,2.18-9.63,1.49-2.31-.45-4.84,.16-7.27,.33-1.53,.11-2.87-.27-4.11-1.2-1.72-1.29-3.58-2.39-5.23-3.75-.95-.78-1.83-1.82-2.38-2.91-2.2-4.39-3.63-9.01-3.75-13.98-.11-4.78-.39-9.55-.47-14.33-.11-6.44,.64-12.81,1.57-19.18,1.21-8.31,1.81-16.69,1.22-25.09-.47-6.79-1.05-13.58-1.73-20.36-.63-6.28-1.56-12.53-2.19-18.81-.25-2.52-.08-5.08-.1-7.63-.04-4.6-1.06-8.85-4.1-12.49-3.71-4.45-8.11-6.94-14.1-5.41-2.35,.6-4.72,1.11-7.03,1.81-4.21,1.28-7.25,3.97-9.55,7.73-1.93,3.14-4.28,6.02-6.33,9.1-1.34,2.01-2.51,4.14-3.71,6.25-1.83,3.22-3.44,6.57-5.47,9.66-2.35,3.58-6.03,5.43-10.04,6.67-8.1,2.51-12.68,8.22-15.07,16.13-1.61,5.34-2.17,10.84-2.9,16.32-.76,5.68-1.5,11.36-2.22,17.04-.26,2.03-.51,4.06-.63,6.09-.44,7.3-.82,14.6-1.22,21.9-.2,3.6-.06,7.26-.68,10.78-.69,3.89-1.96,7.69-3.21,11.46-.56,1.7-1.94,2.72-3.85,3.22-3.74,.97-7.44,1.31-11.27,.72-4.04-.62-8.11-1-12.16-1.51-.76-.1-1.69-.09-2.23-.52-2.8-2.25-5.95-4.32-6.79-8.14-.66-3.02-1.41-6.11-1.43-9.18-.05-6.82,.05-13.67,.6-20.47,.49-6.08,1.59-12.12,2.57-18.16,1.21-7.54,1.99-15.15,1.24-22.73-.94-9.46-2.59-18.85-3.83-28.28-.58-4.43-.81-8.92-1.39-13.35-1.34-10.3-1.33-20.66-1.01-31,.15-4.94,.97-9.86,1.57-14.77,.57-4.73,1.14-9.46,1.9-14.15,.79-4.88,1.45-9.83,3.55-14.37,.88-1.91,2.19-3.66,3.51-5.32,2.21-2.78,5.52-2.97,8.75-1.11,4.01,2.32,7.36,5.52,10.3,9.07,2.08,2.52,3.11,5.57,3.29,8.89,.08,1.55,.53,3.09,.5,4.63-.09,3.41-.42,6.8-.58,10.21-.22,4.77-.67,9.56-.42,14.31,.14,2.62,1.21,5.31,2.37,7.72,1.47,3.04,4.19,3.59,7.14,1.95,2.6-1.44,3.99-3.92,5.51-6.31,1.93-3.04,3.92-6.04,6.06-8.94,2.51-3.41,5.88-5.74,10.1-6.44,4.14-.68,7.45-2.85,10.51-5.42,4.86-4.08,9.75-8.15,14.34-12.51,8.11-7.71,17.49-13.05,28.35-15.57,4.23-.98,8.69-1.02,13.03-1.51,4.05-.46,7.91,.25,11.65,1.77,.9,.37,1.81,.74,2.74,1.03,2.23,.69,4.44,1.51,6.71,1.95,2.96,.57,5.27,2.02,7.06,4.33,6.33,8.17,10.66,17.17,11.35,27.65,.27,4.08,.52,8.17,.79,12.25m-9.71,58.97c.77-1.59,1.59-2.64,1.79-3.8,.54-3.23,1.08-6.5,1.15-9.76,.08-3.77-.2-7.57-.57-11.33-.19-1.98-.51-4.04-2.11-5.58-2.25-2.17-5.91-1.42-6.71,1.57-.41,1.53-.44,3.24-.26,4.83,.37,3.25,1,6.47,1.51,9.71,.67,4.21,1.76,8.3,3.54,12.19,.27,.59,.8,1.06,1.67,2.17Zm-2.31,74.37c0-.88,.07-1.76-.02-2.63-.12-1.25-.23-2.52-.59-3.71-.37-1.18-.9-2.39-1.63-3.37-1.57-2.11-5.85-2.84-7.15,1.18-.32,1-.56,2.07-.58,3.11-.05,3.22-.12,6.44,.09,9.65,.14,2.19,.65,4.38,1.14,6.53,.35,1.55,1.54,2.07,3.1,2.04,1.74-.03,2.61-1.15,3.36-2.43,1.87-3.2,2.05-6.8,2.28-10.37Zm-48.39-165.78c.21-.05,.84-.06,1.32-.33,3.22-1.78,6.8-2.07,10.33-2.72,2.55-.47,5.07-1.33,7.44-2.37,1.09-.48,2.94-.92,2.79-2.6-.15-1.67-1.79-2.14-3.19-2.58-5.34-1.67-10.74-1.5-16.1-.25-3.01,.7-5.17,2.63-6.22,5.62-.93,2.64,.71,5.24,3.63,5.22Zm-94.27,23.37c.93-1.46,1.73-2.34,2.12-3.38,.64-1.7,1.14-3.48,1.47-5.27,.6-3.22,1.16-6.45,1.49-9.7,.2-2.04-1.13-3.61-2.75-3.84-1.69-.24-3.14,.76-3.73,2.93-.42,1.57-.31,3.27-.71,4.85-.93,3.7-.43,7.32,.43,10.91,.25,1.06,.95,2.01,1.68,3.51Zm77.37-12.1c-.52-.33-.82-.66-1-.61-4.86,1.43-9.45,3.43-13.49,6.53-1.56,1.2-1.81,2.82-.91,4.08,.9,1.26,2.92,1.62,4.45,.54,4.13-2.92,8.07-6.06,10.95-10.53Zm-77.48,169c-.45-4.88-2.04-9.11-3.92-13.24-.23-.51-1.61-.92-2.27-.73-.8,.23-1.65,1.04-2,1.81-.31,.71-.21,1.81,.12,2.55,1.12,2.47,2.3,4.93,3.7,7.25,.8,1.32,2.1,2.29,4.36,2.35Zm3.9-12.35c-2.78-.01-4.15,1.89-2.98,4.26,1.06,2.15,2.5,4.12,3.84,6.12,.3,.44,.9,.81,1.42,.94,.79,.19,1.88,.47,2.4,.1,.52-.37,.84-1.61,.64-2.28-.76-2.57-1.78-5.07-2.68-7.6-.48-1.35-1.53-1.64-2.63-1.53Zm-11.25-144.62l.54-.04c.27-.79,.67-1.56,.79-2.37,.65-4.21,1.22-8.43,1.82-12.65,.2-1.44,.5-2.88,.55-4.32,.02-.52-.56-1.49-.88-1.5-.78-.02-1.84,.18-2.28,.72-.57,.69-.84,1.78-.9,2.71-.27,4.17-.53,8.35-.55,12.53-.01,1.64,.59,3.28,.91,4.93Zm154.64,148.18c1.37-.49,2.34-1.34,2.6-2.79,.42-2.37,.84-4.74,1.08-7.13,.17-1.64,.03-3.3,.05-4.95,.01-1.31-.49-2.41-1.79-2.65-1.4-.25-2.09,.79-2.36,2.03-.2,.94-.44,1.9-.42,2.84,.03,1.44,.3,2.88,.39,4.32,.17,2.72,.29,5.45,.44,8.32Zm-5.88-168.8c.27-1.62-.71-2.69-2.14-2.68-1.39,.02-2.99,1.64-2.79,3.19,.33,2.57,1.59,4.76,3.5,6.52,.56,.52,1.42,.04,1.43-.75,.02-2.1,0-4.19,0-6.29Zm-149.09,57.2c0-.29,0-.58,0-.87,0-1.21,0-2.46-1.6-2.62-1.55-.16-1.86,.99-2.21,2.17-.85,2.87,.28,5.52,.85,8.23,.06,.29,.56,.75,.69,.7,.38-.15,.89-.46,.97-.8"/>
        <path class="cls-6" d="M825.73,252.76c-2.25-.07-3.56-1.03-4.36-2.35-1.4-2.32-2.58-4.78-3.7-7.25-.33-.74-.43-1.84-.12-2.55,.34-.77,1.2-1.58,2-1.81,.66-.19,2.04,.21,2.27,.73,1.88,4.12,3.46,8.36,3.92,13.24Z"/>
        <path class="cls-1" d="M829.63,240.41c1.1-.1,2.15,.18,2.63,1.53,.91,2.53,1.92,5.03,2.68,7.6,.2,.68-.12,1.91-.64,2.28-.52,.37-1.61,.1-2.4-.1-.53-.13-1.12-.5-1.42-.94-1.35-2-2.78-3.97-3.84-6.12-1.17-2.37,.21-4.27,2.98-4.26Z"/>
        <path class="cls-13" d="M818.38,95.79c-.32-1.64-.92-3.29-.91-4.93,.03-4.18,.29-8.36,.55-12.53,.06-.94,.33-2.02,.9-2.71,.44-.53,1.5-.74,2.28-.72,.32,0,.9,.98,.88,1.5-.05,1.44-.34,2.88-.55,4.32-.6,4.22-1.18,8.44-1.82,12.65-.12,.81-.52,1.58-.79,2.37l-.54,.04Z"/>
        <path class="cls-15" d="M973.03,243.97c-.15-2.87-.27-5.59-.44-8.32-.09-1.44-.37-2.88-.39-4.32-.02-.95,.22-1.91,.42-2.84,.27-1.25,.96-2.29,2.36-2.03,1.3,.24,1.8,1.34,1.79,2.65-.02,1.65,.12,3.32-.05,4.95-.24,2.39-.66,4.76-1.08,7.13-.26,1.45-1.24,2.29-2.6,2.79Z"/>
        <path class="cls-7" d="M967.15,75.17c0,2.1,.02,4.19,0,6.29,0,.79-.86,1.27-1.43,.75-1.91-1.76-3.17-3.95-3.5-6.52-.2-1.56,1.4-3.18,2.79-3.19,1.43-.02,2.41,1.06,2.14,2.68Z"/>
        <path class="cls-14" d="M816.76,139.17c-.08,.34-.59,.65-.97,.8-.13,.05-.63-.41-.69-.7-.57-2.71-1.69-5.36-.85-8.23,.35-1.18,.67-2.33,2.21-2.17,1.61,.16,1.61,1.41,1.6,2.62,0,.29,0,.58,0,.87"/>
      </g>
      <g>
        <path class="cls-1" d="M775.96,136.96c-1.09-1.74-1.98-3.59-2.89-5.44-1.42,.42-3.25-.03-3.97-1.73-3.03-7.1-4.06-14.67-3.1-22.31,.72-5.7,1.68-11.42,1.37-17.1-2.8-7.29-6.45-14.1-13.9-17.91-5.82-2.97-11.86-5.57-17.89-8.12-2.52-1.07-4.49-2.44-5.74-4.88-2.5-4.87-6.82-7.36-12.08-8.45-3.69-.76-7.37-1.64-11.11-2.02-5.56-.57-11.16-1.03-16.74-.99-4.62,.03-9.22,.92-13.84,1.33-10.79,.94-20.99,3.38-29.38,10.69-.98,.86-2.24,1.62-3.5,1.93-5.58,1.34-9.78,4.53-13.72,8.51-4.54,4.59-7.82,9.7-8.73,16.03-1.4,9.79-4.78,18.75-10.89,26.65-1.99,2.57-4.17,4.99-6.22,7.52-4.6,5.66-9.11,11.31-9.49,19.08-.18,3.75-.99,7.47-1.59,11.2-.57,3.55-1.39,6.97-1.98,10.76,.98,.38,1.78,1.21,1.9,2.49,.42,4.71,.48,9.51,.75,14.28,.1,.14,.19,.29,.28,.46,3.5,7.2,5.6,14.58,5.08,22.61-.03,.51-.2,.97-.46,1.37,.3,1.36,.58,2.72,.81,4.1,.64,3.9,1.8,7.43,3.49,10.67,1.08-.22,2.29,.08,3.09,1.2,3.06,4.31,7.12,7.85,10.28,12.11,3.31,4.46,8,7.07,12.84,9.74,4.37,2.41,8.92,4.65,13.61,6.4,3.78,1.41,7.8,2.24,10.56,5.38,3.2,3.66,5.33,7.65,10.48,8.93,4.33,1.08,8.97,.44,13.4,.7,4.05,.24,8.5,.9,12.48-.17,3.9-1.05,7.3-3.49,11.19-4.62,3.41-1,6.94-1.11,10.47-1.21,.27-1.08,1.16-2.01,2.7-2.12,5.26-.39,10.21-2.98,15.57-2.18,2.57,.38,5.03,1.38,7.63,1.58,2.62,.2,5.32-.15,7.87-.73,2.37-.54,4.64-1.35,6.95-2.09,2.15-.68,4.51-1.13,6.41-2.4,3.44-2.3,4.62-6.72,7.85-9.33,.01-.01,.03-.02,.04-.03-.1-1.34,.05-2.7,.35-4.06-.17-.92,.04-1.94,.74-2.68,.78-2.41,1.77-4.79,2.31-7.01,.09-.36,.19-.71,.3-1.07,.08-1.24,.15-2.48,.29-3.72,.17-1.46,1.14-2.35,2.24-2.63,.3-.69,.59-1.39,.87-2.09,1.24-3.18,2.03-6.48,2.52-9.84,1.01-6.89,3.9-13.19,5.78-19.86,2.01-7.15,2.41-14.71,2.43-22.1,0-1.03,.47-1.77,1.13-2.23-1.26-8.54-3.91-16.78-8.81-24.6Zm-63.13,35.52c-.23,.73-.57,1.34-1,1.86-.35,1.67-1.23,3.2-2.46,4.6-5.32,6.06-11.62,10.39-20.16,10.08-2.19-.08-4.6-.83-6.45-1.98-2.85-1.77-6.33-2.7-8.31-5.75-.68-.42-1.35-.94-2-1.58-2.68-2.66-4.25-6.04-4.02-9.77,.32-5.06,1.58-10.05,.64-15.13-.19-1.05,.15-1.92,.74-2.54-1-.35-1.78-1.21-1.76-2.56,.05-4.21,2.51-9.21,5.22-12.43,2.76-3.28,6.82-4.53,10.89-5.48,7.71-1.8,17.73-2.76,23.49,3.76,2.2,2.49-.91,6.02-3.34,4.66,0,.04,0,.07,0,.11,.09,2.98,.44,5.88,1.05,8.71,.79,.06,1.53,.5,1.98,1.47,1.81,3.97,2.35,8.15,3.56,12.29,.88,3.05,2.96,6.42,1.93,9.68Z"/>
        <path d="M590.38,165.7c.17-6.31,1.22-12.15,2.71-17.96,.61-2.35,.87-4.83,.94-7.26,.13-4.15,.8-8.13,3.22-11.61,2.22-3.2,4.58-6.32,6.94-9.43,2.54-3.34,5.28-6.54,7.7-9.95,4.43-6.24,7.11-13.19,8.15-20.74,1.06-7.69,4.38-14.08,10.21-19.53,3.68-3.44,7.51-6.09,12.39-7.44,1.52-.42,3.02-1.33,4.24-2.34,7.2-5.97,15.61-8.91,24.88-9.86,6.34-.65,12.66-1.57,19.01-2.01,3.44-.24,6.96,.08,10.4,.53,5.46,.7,10.89,1.63,16.29,2.63,5.39,1,9.75,3.6,12.29,8.57,1.2,2.34,3.11,3.65,5.54,4.68,6.11,2.6,12.18,5.32,18.13,8.25,2.11,1.04,4.11,2.58,5.69,4.3,5.34,5.85,8.68,12.67,9.88,20.49,.47,3.08,.04,6.03-.49,9.02-.35,1.95-.62,3.92-.87,5.89-.63,4.95,.43,9.61,2.71,14.02,2.1,4.05,4.02,8.21,6.39,12.1,5.03,8.24,7.27,17.24,8.36,26.64,.96,8.25,.68,16.47-.7,24.62-.64,3.79-1.87,7.53-3.2,11.17-3.88,10.68-8.81,21.02-11.1,32.23-.75,3.66-2.34,6.99-4.11,10.27-3.35,6.2-8.48,10.12-15.3,12.2-7.59,2.31-15.17,2.65-22.88,.74-1.87-.46-3.8-.66-5.69-1.05-3.54-.73-6.88-.04-10.23,1.12-7.01,2.42-13.99,5-21.13,6.97-4.61,1.28-9.47,1.9-14.27,2.29-6.48,.51-12.69-1.05-18.57-3.68-3.21-1.44-5.86-3.62-7.96-6.46-.71-.96-1.66-1.89-2.72-2.45-3.56-1.9-7.07-4.01-10.85-5.34-7.32-2.57-13.39-6.61-18.24-12.57-1.79-2.21-4.06-4.05-6.1-6.07-1.97-1.96-3.95-3.9-5.86-5.91-4.08-4.31-6.22-9.46-7.15-15.24-.8-4.94-1.81-9.86-2.99-14.73-.78-3.21-2.05-6.31-3.04-9.47-1.84-5.84-2.25-11.89-2.66-17.62Zm188.84,5.71c-.17-2.44-.28-5.94-.69-9.42-.83-7.09-2.36-13.97-6.16-20.25-2.46-4.07-4.66-8.3-6.72-12.58-3.07-6.35-4.72-12.97-3.5-20.12,.49-2.87,.78-5.87,.51-8.76-.65-6.96-3.44-13.18-8.04-18.54-1.22-1.42-2.75-2.76-4.42-3.58-5.88-2.87-11.81-5.68-17.87-8.16-3.74-1.53-6.73-3.61-8.64-7.15-1.75-3.24-4.66-5.07-8.23-5.73-6.65-1.22-13.32-2.32-20.01-3.34-1.7-.26-3.49-.16-5.21-.01-5.49,.48-10.95,1.15-16.44,1.59-8.39,.67-16.13,2.98-22.77,8.23-2.45,1.93-5.14,3.35-8.26,3.95-1.57,.31-2.84,1.06-3.84,2.35-2.22,2.87-4.53,5.67-6.8,8.51-2.06,2.58-3.34,5.5-4.01,8.72-.91,4.35-1.62,8.78-3.01,12.99-3.11,9.4-8.3,17.7-15.18,24.94-4.27,4.49-7.92,9.29-9.19,15.5-.38,1.85-1.08,3.63-1.68,5.43-4.11,12.37-4.08,24.74-.21,37.16,1.52,4.88,3.02,9.78,4.27,14.73,1,3.94,1.47,8.01,2.43,11.97,.41,1.7,1.29,3.37,2.29,4.83,2.33,3.4,5.2,6.32,8.4,8.98,2.42,2.01,4.96,4.06,6.8,6.54,4.08,5.48,9.28,9.3,15.68,11.72,4.74,1.79,8.86,4.6,12.88,7.59,1.6,1.19,3.35,2.29,5.2,3.04,5.76,2.35,11.8,3.54,18.07,3.69,11.1,.26,21.68-2.19,32.11-5.6,2.11-.69,4.19-1.5,6.34-2.01,5.12-1.2,10.2-.63,15.19,.77,7.22,2.02,14.31,1.7,21.38-.69,3.38-1.15,6.44-2.87,8.44-5.75,2.6-3.75,4.93-7.67,5.83-12.27,1.13-5.78,3.08-11.31,5.39-16.75,2.45-5.76,4.57-11.66,6.56-17.59,2.6-7.74,2.71-15.83,3.12-24.95Z"/>
        <path d="M700.38,127.57c5.52,.73,9.84,5.25,10.36,10.7,.17,1.79,.34,3.59,.34,5.39,0,3.78,.92,7.28,2.77,10.6,2.43,4.36,3.93,9,4.67,13.94,.84,5.58-.14,10.56-4.04,14.82-6.8,7.43-14.94,12.38-25.47,12.16-6.96-.15-12.42-3.14-15.54-9.55-.28-.58-.83-1.02-1.21-1.55-1.4-1.92-2.89-3.79-4.14-5.81-2.2-3.54-2.76-7.37-2.04-11.48,.3-1.73,.2-3.57,.03-5.34-.4-4.14-1.29-8.26-1.37-12.4-.2-11.22,7.58-19.97,18.86-21.64,.86-.13,1.72-.32,2.58-.35,1.64-.06,3.29-.02,4.93-.02m-4.32,5.71c-9.24,.15-16.71,7.47-16.67,16.54,.02,3.29,.6,6.58,.78,9.88,.14,2.72,.42,5.52-.03,8.18-.48,2.84-.38,5.44,.9,7.99,1.11,2.2,2.24,4.39,3.46,6.53,.35,.61,.96,1.17,1.58,1.54,2.15,1.26,4.3,2.52,6.56,3.57,1.45,.67,3.05,1.29,4.62,1.4,9.02,.61,15.64-3.76,21.28-10.09,2.35-2.64,2.83-5.67,2.37-9.02-.64-4.63-1.82-9.07-4.06-13.23-1.87-3.48-2.88-7.19-2.93-11.16-.02-1.6-.24-3.21-.4-4.81-.38-3.94-2.23-6.07-6.2-6.73-2.65-.44-5.36-.56-8.04-.82"/>
        <path d="M676.49,65.72c-.49,.31-.99,.6-1.46,.94-4.52,3.24-9.15,6.31-14.52,8.07-1.17,.38-2.43,.57-3.66,.63-1.38,.06-2.39-.66-2.84-1.98-.45-1.33,.04-2.45,1.09-3.27,.66-.52,1.46-.96,2.27-1.17,5.86-1.51,11.73-2.96,17.61-4.38,.35-.08,.81,.29,1.22,.45l.3,.72Z"/>
        <path d="M642.63,89.32c0,1.02,.17,1.8-.03,2.47-1.42,4.71-2.9,9.4-4.39,14.09-.2,.63-.46,1.26-.82,1.8-.76,1.11-1.82,1.67-3.23,1.38-1.35-.28-2.35-1.36-2.41-2.83-.03-.82,.11-1.72,.42-2.48,2.05-5.07,4.97-9.61,8.87-13.52,.36-.36,.91-.53,1.58-.9Z"/>
        <path d="M773.28,181.65c-.73,2.57-1.22,5.24-2.26,7.68-1.61,3.82-3.59,7.5-5.42,11.23-.12,.25-.3,.49-.46,.72-1.36,1.88-2.99,2.54-4.34,1.77-1.27-.72-1.41-2.49-.07-4.56,3.55-5.5,7.19-10.95,10.81-16.41,.23-.34,.66-.56,1-.83l.76,.4Z"/>
        <path d="M663.44,76.8c-.2,.71-.26,1.16-.45,1.55-1.68,3.38-3.38,6.75-5.1,10.11-.3,.58-.62,1.33-1.14,1.57-.8,.37-1.82,.59-2.68,.46-1.05-.15-1.57-1.1-1.52-2.12,.04-.92,.13-1.92,.53-2.72,1.9-3.86,4.96-6.65,8.79-8.65,.36-.19,.86-.11,1.59-.19Z"/>
        <path d="M641.7,235.97c-.94,0-1.64,.15-2.24-.02-3.85-1.08-6.9-3.29-9.11-6.56-.37-.54-.66-1.17-.84-1.79-.4-1.37,.14-2.67,1.26-3.14,1.28-.54,2.28,0,3.02,.99,.74,.99,1.33,2.09,2.07,3.07,1.83,2.39,3.71,4.74,5.84,7.45Z"/>
        <path d="M747.38,236.29c-.81,.72-1.5,1.69-2.45,2.11-3.15,1.4-6.37,2.64-9.6,3.86-.69,.26-1.52,.23-2.29,.24-1.05,0-1.92-.33-2.14-1.49-.2-1.05,.19-1.91,1.14-2.39,.76-.38,1.61-.66,2.45-.81,3.41-.59,6.84-1.1,10.26-1.66,.72-.12,1.42-.33,2.14-.5l.49,.63Z"/>
        <path d="M609.34,174.11c-.73-.92-1.24-1.33-1.43-1.85-1.36-3.66-1.67-7.5-1.76-11.35-.01-.61,.2-1.41,.62-1.82,.56-.54,1.45-1.1,2.15-1.04,.69,.06,1.42,.8,1.92,1.4,.31,.38,.37,1.09,.3,1.62-.54,4.15-1.13,8.29-1.8,13.03Z"/>
        <path d="M618.31,202.92c-.78-.24-1.28-.27-1.6-.52-2.94-2.28-4.92-5.24-6.25-8.64-.1-.26-.19-.54-.23-.81-.24-1.57,.43-2.75,1.77-3.13,1.2-.34,2.29,.22,3,1.58,.21,.41,.36,.87,.49,1.32,.9,3.23,1.79,6.46,2.82,10.2Z"/>
      </g>
      <g>
        <path d="M492.35,265.02c-9.14-.07-17.52-3.37-25.99-6.17-8.57-2.83-16.98-6.14-25.51-9.09-6.34-2.2-11.82-5.47-15.79-11.03-2.09-2.93-3.63-6.12-4.64-9.53-1.09-3.68-3.11-6.69-5.6-9.59-3.63-4.22-6.97-8.68-10.28-13.16-1.3-1.76-2.29-3.78-3.22-5.77-.6-1.28-1.26-2.77-1.15-4.1,.25-2.97-1-5.37-2.16-7.89-2.31-5.01-3.63-10.32-4.19-15.78-.57-5.55,.58-10.88,2.52-16.06,.54-1.44,1.1-2.88,1.79-4.24,6.38-12.56,9.59-26.09,11.75-39.85,1.84-11.71,5.14-22.81,11.61-32.83,5.74-8.89,12.69-16.6,21.79-22.26,6.19-3.85,12.87-5.93,20.16-6.1,5.09-.11,10.21,.1,15.26-.39,5.53-.54,11.01-1.71,16.5-2.61,7.27-1.19,14.53-1.41,21.81-.08,.57,.1,1.14,.18,1.71,.23,3.97,.33,7.51,1.72,10.36,4.51,3.24,3.17,7.03,5.2,11.34,6.58,5.16,1.66,9.77,4.38,13.94,7.93,5.51,4.69,10.41,9.91,15.03,15.48,5.51,6.65,6.76,14.02,4.96,22.14-.56,2.51-1.25,5.08-2.41,7.35-3.63,7.11-9.63,11.06-17.52,12.06-6.55,.83-12.68-.24-17.86-4.69-5.25-4.51-11.51-6.86-18.07-8.56-8.1-2.1-16.11-4.44-23.74-7.95-6.09-2.8-11.66-1.39-15.94,3.87-.97,1.19-1.75,2.52-2.61,3.8-1.92,2.87-3.76,5.8-5.77,8.61-1.81,2.53-3.24,5.23-3.99,8.24-1.31,5.26-3.81,9.81-7.77,13.54-3.37,3.17-5.09,7.2-5.85,11.63-.8,4.62-1.44,9.28-1.94,13.95-.36,3.36,.12,6.69,1,9.97,1.67,6.24,4.2,12.12,6.98,17.93,4.1,8.6,9.5,11.4,20.24,10.61,3.9-.29,7.76-1.3,11.63-1.98,4.35-.76,8.68-1.67,13.06-2.24,4.07-.54,7.53-2.18,10.56-4.85,3.1-2.73,6.08-5.61,9.31-8.18,2.47-1.96,5.11-3.78,7.91-5.21,4.53-2.3,9.17-4.43,13.91-6.25,3.69-1.42,7.62-1.81,11.64-1.12,4.93,.84,8.93,3.19,11.56,7.35,2.82,4.45,5.55,9.01,7.75,13.79,3.77,8.21,4.18,16.62,.36,25.06-3.21,7.07-6.92,13.78-13.4,18.4-3.03,2.16-6.33,3.99-9.66,5.68-4.71,2.38-9.74,4.17-14.3,6.78-8.15,4.66-16.95,7.13-26.04,8.93-3.11,.62-6.2,1.34-9.29,2.07-3.86,.9-7.77,1.31-11.72,1.09Z"/>
        <path class="cls-1" d="M470.48,57.48c-2.11,0-4.23,0-6.34,0-6.42,.03-12.32,1.84-17.71,5.31-14.38,9.25-23.62,22.35-28.34,38.58-1.82,6.24-2.78,12.73-4.06,19.12-2.34,11.7-5.47,23.13-10.79,33.88-1.19,2.4-2.1,4.95-2.91,7.5-.96,3.02-1.59,6.13-1.16,9.35,.64,4.76,1.57,9.45,3.2,13.99,1.32,3.7,2.56,7.43,3.87,11.13,.31,.89,.67,1.78,1.18,2.57,4.05,6.31,8.26,12.49,13.4,18,2.46,2.64,4.08,5.74,5.27,9.15,.95,2.69,2.11,5.37,3.58,7.81,3.18,5.28,8.28,8.07,13.93,10.12,7.4,2.7,14.72,5.6,22.08,8.38,1.8,.68,3.62,1.28,5.46,1.85,3.21,.99,6.46,1.86,9.66,2.9,4.9,1.58,9.93,2.26,15.04,2.34,2.09,.03,4.23-.2,6.28-.61,6.68-1.35,13.33-2.9,20.01-4.26,3.33-.68,6.47-1.79,9.48-3.33,7.28-3.7,14.54-7.42,22.27-10.15,3.02-1.07,5.57-2.94,8.04-4.98,3.84-3.18,5.85-7.54,8.15-11.74,4.86-8.9,4.48-17.86,.09-26.74-1.61-3.26-3.63-6.32-5.57-9.41-3.02-4.82-7.52-6.84-13.06-5.96-9.43,1.49-17.64,5.8-25.05,11.65-3.01,2.38-5.8,5.05-8.78,7.48-3.64,2.97-7.74,4.87-12.51,5.41-4.57,.52-9.11,1.36-13.66,2.09-4.17,.68-8.31,1.66-12.51,2.08-10.76,1.07-19.12-2.36-24.13-11.86-3.28-6.22-6.44-12.47-8.16-19.28-.88-3.5-1.47-7.17-1.52-10.77-.05-4,.6-8.02,1.05-12.01,.91-8.1,3.4-15.51,9.47-21.37,2.46-2.38,3.92-5.41,4.97-8.66,.62-1.91,1.1-3.96,2.17-5.62,4.09-6.37,7.97-12.94,12.73-18.8,5.57-6.86,13.31-8.76,21.74-4.32,6.17,3.25,12.78,5.24,19.48,7.01,8.32,2.2,16.32,4.93,23.01,10.75,4.38,3.81,9.77,4.71,15.47,3.43,6.37-1.43,10.72-5.15,12.33-11.52,.82-3.23,1.28-6.6,1.43-9.92,.17-3.72-.92-7.2-3.46-10.11-1.64-1.88-3.12-3.91-4.84-5.72-6.53-6.86-13.48-13.2-22.67-16.38-5-1.73-9.44-4.25-13.13-8.06-1.5-1.55-3.36-2.58-5.51-2.95-7.53-1.3-15.07-1.67-22.67-.48-8.72,1.36-17.31,3.89-26.29,3.14Z"/>
        <path d="M557.26,92.64c-.03,.37-.06,1.33-.19,2.27-.03,.22-.35,.55-.54,.55-.32,0-.86-.15-.93-.36-1.44-4.27-4.6-7.48-6.93-11.2-.25-.4-.61-.89-.57-1.29,.1-.89,.2-1.92,.7-2.6,.7-.94,1.87-.9,2.88-.34,.57,.32,1.16,.74,1.54,1.26,2.42,3.31,4.2,6.86,4.03,11.7Z"/>
        <path d="M435.39,168.71c-.42-1.7-.99-3.23-1.12-4.79-.21-2.38-.15-4.78-.11-7.17,.01-.62,.24-1.46,.68-1.8,.61-.47,1.54-.84,2.28-.75,.59,.07,1.52,.84,1.57,1.36,.39,4.42,.22,8.78-2.25,12.71-.08,.13-.33,.15-1.05,.45Z"/>
        <path d="M538.65,72.7c-.41,.12-.62,.25-.76,.21-3.35-1.12-6.69-2.25-10.03-3.4-.36-.12-.85-.25-.99-.52-.38-.72-.93-1.58-.79-2.26,.14-.67,.97-1.28,1.62-1.75,.33-.23,.93-.13,1.41-.1,3.83,.22,8.21,3.77,9.54,7.82Z"/>
        <path d="M557.95,200.63c-2.41-2.18-4.39-3.96-6.36-5.76-.21-.19-.4-.42-.56-.65-.97-1.39-.98-2.69-.05-3.67,.96-1,2.71-1.1,3.91,.02,2.74,2.55,4.16,5.61,3.06,10.06Z"/>
        <path d="M471.44,66.58c-.97,0-1.47,.12-1.87-.02-1.92-.67-3.87-.98-5.89-.63-.37,.06-.77,.06-1.14,0-1.53-.2-2.35-1.02-2.4-2.35-.05-1.46,.8-2.49,2.37-2.72,2.93-.43,5.21,.83,7.1,2.91,.62,.68,1.04,1.56,1.84,2.8Z"/>
        <path d="M542.86,196.01c-1.67,.42-3.1,.94-4.58,1.12-1.52,.18-2.72-.9-2.85-2.24-.15-1.48,.95-2.66,2.6-2.82,2.24-.22,3.45,.68,4.82,3.94Z"/>
        <path d="M449.74,126.37c-.86-2.89-.35-4.98,.73-6.89,.82-1.45,2.59-1.75,3.72-.91,1.1,.82,1.15,2.46-.09,3.78-1.23,1.3-2.63,2.45-4.36,4.03Z"/>
        <path d="M565.94,207.37c-.1,.82-.04,1.25-.21,1.56-.35,.62-.82,1.18-1.25,1.76-.47-.41-1.02-.76-1.38-1.25-.62-.84-1.19-1.73-1.63-2.67-.6-1.28-.21-2.49,.79-2.97,1.13-.54,2.46-.06,3.06,1.26,.38,.84,.49,1.8,.62,2.31Z"/>
      </g>
      <g>
        <g>
          <path class="cls-9" d="M1222.68,19.8c1.23,4.28,1.75,8.61,1.49,13.11-.87,15.41-3.21,30.59-6.79,45.56-2.41,10.09-2.13,19.88,1.07,29.73,2.2,6.76,3.68,13.74,2.5,20.9-.61,3.67-1.87,7.24-2.96,10.81-.89,2.95-1.99,5.84-2.94,8.77-2.1,6.44-2.29,13.02-1.26,19.67,2.31,14.75,4.77,29.48,6.83,44.26,1.13,8.1,1.87,16.28,2.26,24.46,.39,7.94-2.9,14.63-8.42,20.17-2.38,2.39-5.38,3.8-8.63,4.46-3.84,.79-7.74,1.33-11.6,2.02-.55,.1-1.33-.14-1.86,.1-1.26,.29-2.02,.29-3.33,.29-1.03,0-2.37-.71-3.44-.9-3.16-.54-6.07-1.64-8.87-3.21-5.43-3.06-10.95-5.93-16.43-8.89-3.45-1.87-7.08-2.27-10.75-.99-5.76,2-11.7,3.66-17.13,6.37-14.2,7.07-29,8.35-44.34,5.94-2.14-.33-4.31-.84-6.3-1.67-8.15-3.4-16.31-6.8-23.92-11.42-4.38-2.66-8.74-5.49-13.85-6.55-2.99-.62-6.01-1.11-9.04-1.5-10.41-1.34-18.38-6.31-23.75-15.62-1.52-2.64-3.9-4.82-4.51-7.95-.67-3.47-1.55-6.99-1.51-10.48,.1-7.86,.73-15.71,2.43-23.42,1.78-8.03,5.09-15.49,8.47-22.93,1.5-3.28,2.71-6.76,3.56-10.27,1.2-4.97,.12-9.94-1.09-14.77-1.42-5.75-2.2-11.54-1.72-17.44,1.18-14.22,7.5-25.52,19.24-33.41,3.04-2.04,6.62-3.45,10.14-4.48,6.17-1.79,12.45-3.27,18.75-4.5,6.71-1.3,13.49-1.13,20.14,.58,5.15,1.32,10.32,2.14,15.44,.25,3.16-1.16,6.18-2.73,9.2-4.23,1.26-.62,2.41-1.51,3.56-2.35,7.4-5.42,15.48-5.97,24-3.53,4.48,1.28,8.12,3.81,10.75,7.68,1.85,2.73,3.52,5.59,5.2,8.44,1.23,2.08,2.35,4.23,3.75,6.77,.33-.97,.66-1.59,.75-2.23,1.07-8.02,1.91-16.04,1.96-24.15,.09-13.53,1.08-26.99,4.16-40.22,1.05-4.52,2.43-8.93,4.58-13.08,2.62-5.06,6.59-8.1,12.16-9.07,.98-.18,2.33-.63,3.42-.39,1.96,0,3.25-.24,5.22-.24,.43,.23,.93,.09,1.38,.17,4.92,.95,9.86,1.81,14.78,2.77,9.21,1.81,14.67,7.7,17.25,16.61Zm-4.94,15.09c.81-5.01-.16-9.65-1.57-14.3-1.6-5.27-4.66-9.21-10.18-10.67-1.26-.33-2.53-.65-3.81-.83-5.38-.76-10.77-1.42-16.15-2.19-5.66-.81-10.12,1.35-12.82,6.34-2.27,4.21-3.34,8.79-4.42,13.43-2.82,12.13-3.22,24.47-3.5,36.83-.05,1.86,.42,3.75,.31,5.61-.27,4.51-.59,9.03-1.19,13.51-.52,3.91-1.39,7.79-2.23,11.66-.41,1.9-1.35,3.55-3.49,3.91-2.16,.36-3.85-.59-5.08-2.32-1.21-1.7-2.36-3.45-3.42-5.26-2.26-3.9-4.35-7.9-6.7-11.75-1.98-3.23-4.86-5.31-8.64-5.97-6.4-1.13-12.53-1-18.05,3.18-1.91,1.44-4.03,2.62-6.15,3.76-5.93,3.2-12.15,5.54-19,5.02-3.23-.24-6.44-.99-9.63-1.62-5.06-.99-10.13-1.57-15.22-.46-6.26,1.36-12.55,2.63-18.69,4.43-3.5,1.03-7.03,2.58-10,4.69-11.18,7.98-18.58,23.77-14.5,39.76,.89,3.51,1.5,7.1,2.13,10.67,.98,5.57,.42,11.02-1.73,16.23-1.97,4.78-4.25,9.43-6.26,14.2-4.52,10.74-5.86,22.08-6.36,33.68,.47,4.04,.28,8.31,1.54,12.07,2.5,7.44,7.58,12.92,15.15,15.28,4.12,1.28,8.45,1.98,12.74,2.57,5.35,.74,10.36,2.28,15.03,5.07,8.08,4.81,16.41,9.1,25.15,12.55,4.5,1.78,9.08,2.95,13.92,3.12,4.78,.18,9.55,.43,14.32-.05,5.3-.54,10.48-1.51,15.46-3.65,7-3.02,14.06-5.89,21.22-8.46,6.18-2.21,12.6-2.24,18.32,1.23,5.55,3.36,11.56,5.65,17.26,8.62,3.33,1.72,7.08,2.26,10.78,2.13,3.13-.11,6.26-.73,9.36-1.26,7.55-1.29,13.42-7.67,14.69-15.31,1.15-6.89-.49-13.65-.47-20.48,0-2.29-.39-4.61-.73-6.89-1.38-9.14-2.82-18.28-4.21-27.42-.81-5.33-1.71-10.66-2.31-16.01-.49-4.36-1.29-8.68-.54-13.18,1.01-6,2.6-11.81,4.56-17.53,1.47-4.31,2.36-8.68,2.38-13.28,.04-5.93-1.43-11.58-2.97-17.21-1.54-5.67-2.6-11.35-2.46-17.28,.15-6.67,1.79-13.07,3.05-19.55,1.35-6.91,2.59-13.85,3.57-20.82,.74-5.24,.69-10.59,1.54-15.8Z"/>
          <path class="cls-1" d="M1216.17,20.59c1.41,4.65,2.38,9.29,1.57,14.3-.85,5.21-.8,10.56-1.54,15.8-.98,6.97-2.22,13.91-3.57,20.82-1.26,6.48-2.9,12.88-3.05,19.55-.14,5.93,.92,11.61,2.46,17.28,1.54,5.63,3.01,11.28,2.97,17.21-.02,4.6-.91,8.97-2.38,13.28-1.96,5.72-3.55,11.53-4.56,17.53-.75,4.5,.05,8.82,.54,13.18,.6,5.35,1.5,10.68,2.31,16.01,1.39,9.14,2.83,18.28,4.21,27.42,.34,2.28,.73,4.6,.73,6.89-.02,6.83,1.62,13.59,.47,20.48-1.27,7.64-7.14,14.02-14.69,15.31-3.1,.53-6.23,1.15-9.36,1.26-3.7,.13-7.45-.41-10.78-2.13-5.7-2.97-11.71-5.26-17.26-8.62-5.72-3.47-12.14-3.44-18.32-1.23-7.16,2.57-14.22,5.44-21.22,8.46-4.98,2.14-10.16,3.11-15.46,3.65-4.77,.48-9.54,.23-14.32,.05-4.84-.17-9.42-1.34-13.92-3.12-8.74-3.45-17.07-7.74-25.15-12.55-4.67-2.79-9.68-4.33-15.03-5.07-4.29-.59-8.62-1.29-12.74-2.57-7.57-2.36-12.65-7.84-15.15-15.28-1.26-3.76-1.07-8.03-1.54-12.07,.5-11.6,1.84-22.94,6.36-33.68,2.01-4.77,4.29-9.42,6.26-14.2,2.15-5.21,2.71-10.66,1.73-16.23-.63-3.57-1.24-7.16-2.13-10.67-4.08-15.99,3.32-31.78,14.5-39.76,2.97-2.11,6.5-3.66,10-4.69,6.14-1.8,12.43-3.07,18.69-4.43,5.09-1.11,10.16-.53,15.22,.46,3.19,.63,6.4,1.38,9.63,1.62,6.85,.52,13.07-1.82,19-5.02,2.12-1.14,4.24-2.32,6.15-3.76,5.52-4.18,11.65-4.31,18.05-3.18,3.78,.66,6.66,2.74,8.64,5.97,2.35,3.85,4.44,7.85,6.7,11.75,1.06,1.81,2.21,3.56,3.42,5.26,1.23,1.73,2.92,2.68,5.08,2.32,2.14-.36,3.08-2.01,3.49-3.91,.84-3.87,1.71-7.75,2.23-11.66,.6-4.48,.92-9,1.19-13.51,.11-1.86-.36-3.75-.31-5.61,.28-12.36,.68-24.7,3.5-36.83,1.08-4.64,2.15-9.22,4.42-13.43,2.7-4.99,7.16-7.15,12.82-6.34,5.38,.77,10.77,1.43,16.15,2.19,1.28,.18,2.55,.5,3.81,.83,5.52,1.46,8.58,5.4,10.18,10.67Zm-62.8,146.19c2.8-11.01,4.9-25.04-1.27-35.31-1.14-1.88-2.72-3.14-4.46-3.79-.71-.98-1.68-1.87-2.98-2.59-3.24-1.81-5.52-5.48-8.08-8.36-3.61-4.06-8.09-7.33-13.51-8.31-12.9-2.33-19.74,8.21-28.42,15.38-4.01,3.31-8.47,6.06-12.11,9.79-4.49,4.59-7.8,10.16-9.76,16.27-1.53,4.78-1.97,9.82-2.3,14.83-.79-.23-1.59-.36-2.36-.36-4.18,0-7.3,2.86-8.68,6.61-2.23,6.06-.85,12.29,3.61,16.06,.5,1.03,1.03,2.05,1.6,3.03-1.52,6.43-2.02,13.01,.95,19.19,4.33,9.01,14.54,12.98,23.8,14.74,11.97,2.28,26.14,1.33,36.71-4.82,5.33-.27,10.4-1.79,14.35-5.86,8.06-8.29,7.85-21.62,7.4-32.57,2.45-4.4,4.25-9,5.51-13.93Z"/>
        </g>
        <path class="cls-1" d="M1011.38,206.42c.5-11.6,1.84-22.94,6.37-33.68,2.01-4.77,4.29-9.42,6.26-14.2,2.15-5.2,2.7-10.66,1.72-16.22-.63-3.57-1.24-7.16-2.13-10.67-4.08-15.99,3.32-31.78,14.51-39.76,2.96-2.11,6.5-3.67,9.99-4.69,6.14-1.8,12.43-3.07,18.69-4.43,5.09-1.11,10.16-.53,15.22,.46,3.2,.63,6.4,1.38,9.63,1.62,6.85,.52,13.07-1.83,19-5.02,2.11-1.14,4.24-2.32,6.15-3.76,5.52-4.18,11.65-4.3,18.04-3.18,3.78,.67,6.67,2.74,8.64,5.97,2.35,3.85,4.44,7.85,6.71,11.75,1.05,1.8,2.2,3.56,3.41,5.26,1.23,1.73,2.92,2.69,5.08,2.32,2.14-.36,3.08-2.01,3.49-3.92,.83-3.87,1.71-7.74,2.23-11.66,.6-4.48,.91-9,1.19-13.51,.11-1.86-.36-3.74-.31-5.61,.28-12.36,.68-24.7,3.5-36.83,1.08-4.64,2.15-9.22,4.42-13.43,2.7-4.99,7.16-7.15,12.82-6.34,5.38,.77,10.77,1.43,16.15,2.19,1.29,.18,2.56,.51,3.82,.84,5.52,1.45,8.57,5.4,10.17,10.67,1.41,4.65,2.39,9.29,1.57,14.3-.85,5.21-.8,10.56-1.53,15.8-.98,6.97-2.22,13.91-3.57,20.82-1.27,6.48-2.9,12.88-3.06,19.56-.13,5.92,.92,11.61,2.47,17.28,1.53,5.62,3,11.27,2.97,17.21-.03,4.59-.91,8.96-2.38,13.27-1.96,5.72-3.55,11.53-4.56,17.54-.75,4.49,.05,8.81,.54,13.17,.6,5.36,1.5,10.68,2.31,16.01,1.39,9.14,2.83,18.28,4.21,27.42,.34,2.28,.73,4.6,.73,6.89-.01,6.83,1.62,13.58,.48,20.47-1.27,7.64-7.14,14.03-14.69,15.31-3.1,.53-6.23,1.15-9.36,1.26-3.7,.13-7.45-.4-10.78-2.13-5.71-2.96-11.71-5.25-17.26-8.62-5.73-3.47-12.14-3.44-18.32-1.23-7.16,2.57-14.23,5.44-21.22,8.46-4.98,2.14-10.16,3.11-15.46,3.65-4.77,.49-9.54,.23-14.32,.06-4.84-.18-9.42-1.34-13.92-3.12-8.74-3.45-17.08-7.74-25.15-12.56-4.67-2.79-9.68-4.32-15.03-5.07-4.29-.6-8.62-1.29-12.74-2.57-7.58-2.36-12.65-7.84-15.15-15.28-1.26-3.77-1.08-8.03-1.55-12.07Zm39.14-98.94c.46-2.07,.92-4.15,1.42-6.39-5.28,1.33-6.7,3.28-5.42,7.03-3.54,1.95-6.2,4.7-7.5,8.63-.92,2.78-.07,5.32,2.07,6.63,2.14,1.32,4.33,1.01,6.38-1.27,2.41-2.68,4.22-5.79,5.24-9.31,.27-.93,.3-1.93,.38-2.9,.14-1.86-.78-2.63-2.56-2.43Zm49.02,117.59c1.72,0,3.81,.18,5.86-.04,4.53-.48,9.03-1.25,13.56-1.75,5.9-.66,11.46-2.25,16.62-5.34,9.92-5.94,15.03-14.63,15.28-26.36,.13-5.79-.7-11.42-1.74-17.07-.78-4.2-1.62-8.53-1.4-12.75,.23-4.56,1.52-9.1,2.61-13.58,1.02-4.19,2.19-8.36,1.72-12.71-.91-8.43-4.29-15.36-12.49-18.68-8.21-3.32-16.71-3.75-25.27-1.49-10.89,2.87-18.67,10.07-25.25,18.9-3.73,5-5.93,10.77-7.78,16.67-1.59,5.06-4.02,9.5-8.02,13.02-1.89,1.66-3.68,3.48-5.34,5.38-8.14,9.3-10.82,25.66,.35,36.54,3.07,2.99,6.26,5.84,9.31,8.84,.73,.71,1.08,1.8,1.7,2.65,.8,1.11,1.48,2.69,2.58,3.15,5.57,2.33,10.87,5.82,17.7,4.63Zm76.28-64.99c2.75-4.84,3.46-10.07,4.33-15.22,.62-3.66,.98-7.38,1.24-11.09,.11-1.6-.04-3.37-.61-4.84-1.54-3.99-6.16-5-8.8-1.49-1.25,1.67-1.61,3.6-1.56,5.57,.11,4.95,.2,9.92,.66,14.84,.3,3.24,1.23,6.41,1.88,9.62,.29,1.43,1.06,2.36,2.87,2.62Zm14.49-108.06c-.33-2.6-.47-5.24-1.05-7.78-.48-2.08-2.63-3.33-4.7-3.26-2.24,.08-3.78,1-4.26,3.32-.52,2.55-.82,5.24-.61,7.82,.36,4.45,1.05,8.88,1.87,13.27,.65,3.52,1.67,6.98,2.59,10.45,.11,.41,.65,1.01,.96,.99,.39-.02,.89-.52,1.1-.94,.44-.87,.85-1.79,1.05-2.74,1.42-6.96,2.84-13.93,3.06-21.13Zm15.59-2.65c3.08-2.09,3.71-4.66,3.69-7.34-.05-6.73-1.84-13.03-5.12-18.86-.52-.93-1.29-1.83-2.14-2.44-1.93-1.39-4.07-2.05-6.41-.98-2.68,1.23-3.04,4.06-.86,6.07,.85,.79,1.75,1.68,2.21,2.72,2.61,5.8,5.11,11.66,7.61,17.51,.4,.94,.62,1.97,1.03,3.33Zm-162.89,113.12c-5.01,3.13-7.69,7.2-9.67,11.79-1.43,3.31-2.41,6.76-1.94,10.44,.34,2.62,1.71,3.78,3.9,3.97,2.5,.22,3.63-2.02,4.01-3.93,1.24-6.31,2.49-12.61,3.68-18.93,.17-.88,.02-1.81,.02-3.33Zm84.09-80.24c-.76-.31-1.28-.74-1.7-.65-3.35,.7-6.78,1.24-10,2.37-2.07,.73-3.88,2.3-5.71,3.63-1.23,.9-1.15,2.32-.74,3.62,.67,2.12,3.44,3.23,5.7,1.89,4.65-2.76,9.28-5.64,12.44-10.86Zm73.42,149.46c-.81,.24-1.22,.23-1.39,.43-2.76,3.3-6.6,4.43-10.51,5.39-1.57,.38-3.18,.59-4.77,.91-1.53,.3-2.28,1.54-2.18,2.85,.07,.9,.92,2.07,1.73,2.48,1.09,.55,2.53,.79,3.73,.59,2-.34,3.98-.99,5.87-1.77,3.35-1.39,5.8-3.83,7.03-7.33,.36-1.02,.31-2.19,.49-3.55Zm-68.66,11.85c1.64-.71,3.02-1.1,4.19-1.84,4.14-2.62,8.21-5.35,12.27-8.09,.45-.3,.64-.99,.96-1.49-.54-.16-1.08-.47-1.6-.45-4.53,.22-8.62,1.98-12.68,3.83-1.58,.72-3.2,1.42-4.65,2.37-1.18,.77-1.75,2.19-1.03,3.47,.51,.91,1.65,1.47,2.54,2.2Zm42.62-204.45c-2.74,3.06-3.85,6.79-4.72,10.59-.46,2.01-.68,4.11-.66,6.17,.01,1.55,1.18,2.58,2.66,2.94,1.16,.29,2.81-.89,3.1-2.38,1.11-5.74,1.36-11.5-.37-17.32Zm-130.47,58.39l-.57-.51c-5.78,2.48-9.38,7.01-11.42,12.97-.23,.67-.18,1.53,0,2.22,.49,1.87,2.4,2.53,3.76,1.22,.84-.81,1.44-1.92,1.98-2.98,1.85-3.61,3.62-7.26,5.41-10.9,.32-.65,.56-1.34,.84-2.01Z"/>
        <path class="cls-9" d="M1099.54,225.07c-6.83,1.19-12.13-2.3-17.7-4.63-1.1-.46-1.78-2.04-2.58-3.15-.61-.85-.97-1.94-1.7-2.65-3.05-3-6.25-5.85-9.31-8.84-11.17-10.87-8.49-27.24-.35-36.54,1.66-1.9,3.45-3.72,5.34-5.38,4.01-3.52,6.43-7.97,8.02-13.02,1.85-5.9,4.05-11.67,7.78-16.67,6.57-8.83,14.36-16.03,25.25-18.9,8.57-2.26,17.07-1.83,25.27,1.49,8.2,3.32,11.58,10.25,12.49,18.68,.47,4.35-.71,8.52-1.72,12.71-1.09,4.48-2.38,9.02-2.61,13.58-.22,4.22,.63,8.55,1.4,12.75,1.04,5.66,1.87,11.28,1.74,17.07-.25,11.74-5.37,20.42-15.28,26.36-5.16,3.09-10.71,4.69-16.62,5.34-4.53,.5-9.03,1.27-13.56,1.75-2.05,.22-4.14,.04-5.86,.04Zm-6.92-7.07c4.04-.34,6.86-.59,9.69-.81,5.65-.43,11.32-.75,16.96-1.3,2.26-.22,4.58-.64,6.7-1.44,6.73-2.51,12.56-6.34,15.74-13.16,2.18-4.67,3.07-9.72,2.51-14.89-.4-3.62-1.02-7.24-1.8-10.79-1.88-8.49-1.76-16.9,.36-25.32,.86-3.43,1.74-6.86,2.36-10.34,1.49-8.44-2.98-15.83-11.04-18.17-7.34-2.12-14.74-2.25-21.79,.98-10.34,4.73-17.98,12.37-22.5,23.01-1.29,3.04-2.25,6.22-3.3,9.36-1.48,4.4-3.85,8.13-7.4,11.14-2,1.7-3.79,3.66-5.69,5.49-4.27,4.11-6.15,9.3-6.62,15.11-.47,5.8,1.81,10.64,5.58,14.74,3.95,4.29,8.15,8.33,12.2,12.53,2.56,2.66,5.35,4.6,8.06,3.86Z"/>
        <path class="cls-1" d="M1175.82,160.08c-1.81-.26-2.58-1.19-2.87-2.62-.65-3.2-1.58-6.38-1.88-9.62-.46-4.93-.54-9.89-.66-14.84-.04-1.96,.31-3.9,1.56-5.57,2.64-3.51,7.26-2.49,8.8,1.49,.57,1.48,.72,3.24,.61,4.84-.25,3.71-.62,7.43-1.24,11.09-.87,5.15-1.58,10.38-4.33,15.22Z"/>
        <path class="cls-13" d="M1205.9,49.37c-.42-1.36-.63-2.39-1.03-3.33-2.5-5.85-5-11.71-7.61-17.51-.47-1.04-1.36-1.93-2.21-2.72-2.18-2.01-1.81-4.84,.86-6.07,2.34-1.08,4.48-.41,6.41,.98,.86,.62,1.62,1.51,2.14,2.44,3.28,5.84,5.07,12.14,5.12,18.86,.02,2.68-.6,5.25-3.69,7.34Z"/>
        <path class="cls-1" d="M1043.01,162.48c0,1.52,.14,2.45-.02,3.33-1.19,6.32-2.44,12.62-3.68,18.93-.37,1.91-1.5,4.15-4.01,3.93-2.19-.19-3.56-1.35-3.9-3.97-.47-3.67,.5-7.13,1.94-10.44,1.99-4.59,4.66-8.66,9.67-11.79Z"/>
        <path class="cls-1" d="M1050.52,107.48c1.78-.2,2.7,.56,2.56,2.43-.07,.97-.11,1.98-.38,2.9-1.02,3.51-2.84,6.62-5.24,9.31-2.05,2.28-4.24,2.58-6.38,1.27-2.14-1.32-2.99-3.85-2.07-6.63,1.3-3.93,3.96-6.69,7.5-8.63,1.51,.93,2.91,1.13,4-.64Z"/>
        <path class="cls-1" d="M1127.11,82.24c-3.16,5.22-7.79,8.11-12.44,10.86-2.27,1.34-5.03,.23-5.7-1.89-.41-1.31-.49-2.72,.74-3.62,1.83-1.33,3.64-2.9,5.71-3.63,3.22-1.13,6.64-1.67,10-2.37,.42-.09,.94,.34,1.7,.65Z"/>
        <path class="cls-15" d="M1200.53,231.7c-.17,1.36-.13,2.53-.49,3.55-1.23,3.5-3.68,5.93-7.03,7.33-1.88,.78-3.87,1.43-5.87,1.77-1.2,.2-2.64-.04-3.73-.59-.81-.41-1.66-1.58-1.73-2.48-.1-1.31,.65-2.55,2.18-2.85,1.59-.31,3.2-.52,4.77-.91,3.91-.95,7.75-2.09,10.51-5.39,.17-.2,.58-.19,1.39-.43Z"/>
        <path class="cls-7" d="M1131.87,243.55c-.89-.74-2.03-1.29-2.54-2.2-.72-1.28-.15-2.7,1.03-3.47,1.45-.95,3.07-1.65,4.65-2.37,4.06-1.85,8.15-3.61,12.68-3.83,.53-.03,1.07,.29,1.6,.45-.31,.51-.51,1.19-.96,1.49-4.06,2.74-8.13,5.47-12.27,8.09-1.17,.74-2.55,1.13-4.19,1.84Z"/>
        <path class="cls-7" d="M1174.5,39.1c1.73,5.82,1.48,11.58,.37,17.32-.29,1.49-1.94,2.66-3.1,2.38-1.48-.37-2.65-1.39-2.66-2.94-.01-2.06,.21-4.17,.66-6.17,.87-3.79,1.98-7.53,4.72-10.59Z"/>
        <path class="cls-7" d="M1044.03,97.49c-.28,.67-.52,1.36-.84,2.01-1.79,3.64-3.57,7.29-5.41,10.9-.54,1.06-1.14,2.17-1.98,2.98-1.36,1.31-3.27,.65-3.76-1.22-.18-.7-.23-1.56,0-2.22,2.04-5.96,5.64-10.49,11.42-12.97l.57,.51Z"/>
        <path class="cls-12" d="M1050.52,107.48c-1.09,1.77-2.49,1.57-4,.64-1.28-3.75,.14-5.7,5.42-7.03-.5,2.24-.96,4.32-1.42,6.39Z"/>
      </g>
      <g>
        <path class="cls-9" d="M1356.61,45.12h8.24c8.52,.56,16.55,2.85,24.36,6.28,6.23,2.73,11.24,6.89,15.46,12.05,6.08,7.42,9.48,15.95,9.89,25.6,.14,3.29,.53,6.6,.35,9.87-.31,5.93-3.03,10.99-6.63,15.53-2.76,3.49-8.45,4.55-12.49,2.61-3.15-1.51-5.6-3.83-7.43-6.78-1.02-1.65-2.13-3.29-2.81-5.08-1.77-4.64-5.52-7.47-9.39-9.93-3.75-2.38-8.16-3.01-12.63-2.56-3.19,.32-6.4,.56-9.54,1.15-4.48,.84-8.68,.13-12.77-1.66-3.94-1.73-7.96-2.87-12.35-2.89-11-.05-21.43,5.39-25.34,16.73-2.73,7.91-3.43,15.84-1.73,24.01,.73,3.52,2.53,6.4,5.05,8.96,6.82,.06,13.46-.83,19.77-3.79,6.84-3.21,13.83-6.1,20.63-9.38,5.45-2.62,11.09-2.51,16.81-1.78,11.33,1.43,21.63,5.93,30.74,12.43,13.72,9.78,21.29,23.01,19.94,40.56-.47,6.07,.04,12.21,.12,18.31,.09,7.18,.31,14.37,.27,21.55-.03,5.53-.3,11.06-.63,16.58-.23,3.91-1.98,7.24-4.56,10.16-2.61,2.94-5.6,5.39-9.13,7.11-6,2.92-12.05,5.74-18.09,8.58-4.98,2.35-10.16,3.76-15.73,3.5-5.16-.24-10.25,.45-15.37,1.05-12.01,1.41-23.97,1.29-35.85-1.66-3.39-.84-7.21-.82-10.69-.27-9.02,1.45-17.55,.19-25.94-3.16-5.12-2.04-10.3-3.97-15.53-5.72-10.45-3.51-16.66-10.88-19.83-21.17-2.05-6.65-1.63-13.25,.62-19.72,2.09-6.01,6.48-10.03,12.04-12.84,6.87-3.47,14.1-4.78,21.75-3.49,2.96,.5,5.98,.77,8.88,1.49,6.74,1.68,11.38,5.98,14.45,12.12,1,1.99,2.03,3.96,3.07,5.93,3.23,6.1,8.8,8.12,15.19,8.53,2.81,.18,5.63,.04,8.45,.03,4.46-.02,8.63,1.07,12.51,3.27,1.85,1.05,3.69,2.14,5.57,3.15,3.01,1.62,6.19,2.08,9.57,1.39,5.91-1.21,11.41-3.1,15.23-8.21,2.13-2.85,3.66-5.88,4.17-9.46,.48-3.36,1.49-6.51,3.23-9.55,1.9-3.34,3.71-6.95,4.48-10.67,1.09-5.2-.2-10.3-3.79-14.41-1.74-1.99-4.41-2.33-6.98-2.37-3.11-.04-6.22-.02-9.32-.04-3.6-.03-6.72-1.25-8.9-4.17-2.14-2.88-4.97-3.76-8.38-3.75-10.15,.02-20.11,1.2-29.88,4.06-12.51,3.66-24.91,3.16-37.06-1.59-5.93-2.32-11.29-5.66-15.78-10.18-5.67-5.72-7.66-13.11-8.82-20.78-2.01-13.33-.07-26.3,3.75-39.08,1.72-5.75,3.44-11.49,5.13-17.25,.22-.73,.44-1.54,.36-2.28-.97-9.13,2.91-16.15,9.47-22.04,8.58-7.7,18.45-11.18,30-9.2,3.44,.59,6.88,1.19,10.31,1.85,5.76,1.1,11.46,.14,17.06-.87,5.51-.99,10.89-2.68,16.32-4.08,3.37-.86,6.74-1.75,10.11-2.62Zm-98.73,86.29c.31,3.47,.48,6.97,.97,10.42,1.02,7.07,3.33,13.55,9.06,18.33,8.92,7.43,19.28,10.92,30.76,11.43,5.52,.24,10.72-1.22,16-2.55,6-1.51,12.06-2.86,18.16-3.86,4.19-.69,8.49-.74,12.75-.98,4.87-.28,9.26,.75,12.44,4.89,1.06,1.37,2.54,2.05,4.3,2.11,3.88,.12,7.76,.18,11.63,.42,4.15,.25,8.04,1.68,10.3,5.18,4.71,7.27,6.38,15,2.5,23.41-2.46,5.34-4.56,10.83-5.14,16.85-.4,4.11-2.4,7.76-5.52,10.65-5.29,4.9-11.58,7.72-18.67,8.72-2.37,.33-4.82,.4-7.22,.26-3.82-.22-6.93-2.38-10.05-4.32-4.35-2.69-9-3.97-14.12-3.66-2.13,.13-4.28,.17-6.41,.05-8.33-.48-15.29-3.42-19.48-11.16-.97-1.79-1.92-3.6-3.03-5.31-1.16-1.78-2.38-3.55-3.79-5.13-3.09-3.46-7.36-4.46-11.68-5.35-8.15-1.67-16.01-1.13-23.5,2.75-4.08,2.12-7.46,4.97-9.21,9.33-5.71,14.16,2.26,28.93,13.85,33.53,8.01,3.18,16.17,6.01,24.27,8.97,4.85,1.77,9.81,1.87,14.91,1.19,4.98-.67,10.05-1.3,15.03,.11,4.99,1.4,10.06,2.04,15.23,1.95,4.95-.08,9.92,.17,14.85-.21,7.23-.56,14.4-2.26,21.71-1,.47,.08,.97,0,1.45-.07,4.17-.54,8.16-1.71,11.94-3.52,5.59-2.67,11.2-5.33,16.7-8.18,5.03-2.61,9.44-5.99,10.68-11.95,.65-3.12,1.02-6.33,1.14-9.51,.22-5.63,.22-11.27,.17-16.9-.04-3.68-.37-7.36-.51-11.04-.19-5.04-.36-10.08-.48-15.11-.11-4.74,.34-9.54-.3-14.2-1.53-11.18-7.45-20.02-16.64-26.26-6.15-4.17-12.79-7.73-20-9.95-9.41-2.91-18.55-4.1-27.85,1.1-6.65,3.72-13.93,6.33-20.97,9.35-4.25,1.82-8.7,2.8-13.34,2.21-1.68-.21-3.64-.54-4.87-1.55-3.4-2.76-6.31-6.02-7.52-10.43-2.19-7.98-1.68-15.94,.36-23.84,1.34-5.19,3.25-10.17,6.84-14.29,7.62-8.78,17.66-10.75,28.55-9.63,3.3,.34,6.47,1.92,9.73,2.83,2.03,.56,4.14,1.37,6.18,1.28,4.05-.18,8.08-.95,12.12-1.38,10.05-1.07,18.68,1.18,24.15,10.56,1.51,2.59,2.98,5.22,4.37,7.88,1.46,2.82,3.4,5.2,6.04,6.95,2.45,1.63,5.69,1.34,7.66-.87,2.67-3,4.67-6.41,5.41-10.45,.93-5.06-.13-10.02-.61-15.03-.86-8.97-5.18-16.13-10.96-22.63-2.8-3.15-6.14-5.6-9.95-7.47-7.13-3.51-14.66-5.44-22.52-6.46-5.35-.7-10.42-.09-15.44,1.68-2.28,.81-4.62,1.45-6.93,2.18-8.29,2.61-16.78,4.25-25.48,3.82-5.01-.25-10.01-1.14-14.94-2.14-4.87-.99-9.7-.84-14.44,.14-7.01,1.44-12.6,5.5-17.03,10.98-4.05,5.01-6.07,10.72-4.75,17.31,.2,1.01,.09,2.15-.15,3.16-.92,3.96-1.89,7.91-2.96,11.83-2.92,10.69-5.41,21.44-5.74,32.62Z"/>
        <path class="cls-1" d="M1257.88,131.41c.33-11.18,2.82-21.94,5.74-32.62,1.07-3.92,2.03-7.87,2.96-11.83,.24-1.02,.35-2.16,.15-3.16-1.32-6.59,.7-12.31,4.75-17.31,4.43-5.48,10.03-9.54,17.03-10.98,4.74-.97,9.57-1.12,14.44-.14,4.93,1,9.93,1.89,14.94,2.14,8.7,.43,17.19-1.21,25.48-3.82,2.31-.73,4.65-1.38,6.93-2.18,5.02-1.77,10.09-2.38,15.44-1.68,7.86,1.03,15.39,2.96,22.52,6.46,3.81,1.87,7.15,4.32,9.95,7.47,5.78,6.5,10.1,13.66,10.96,22.63,.48,5.02,1.54,9.97,.61,15.03-.74,4.04-2.74,7.45-5.41,10.45-1.97,2.21-5.21,2.49-7.66,.87-2.64-1.76-4.58-4.14-6.04-6.95-1.38-2.66-2.85-5.29-4.37-7.88-5.48-9.38-14.11-11.64-24.15-10.56-4.05,.43-8.07,1.2-12.12,1.38-2.04,.09-4.15-.72-6.18-1.28-3.26-.9-6.42-2.49-9.73-2.83-10.89-1.12-20.93,.85-28.55,9.63-3.58,4.13-5.5,9.1-6.84,14.29-2.04,7.9-2.55,15.86-.36,23.84,1.21,4.41,4.12,7.67,7.52,10.43,1.24,1,3.19,1.33,4.87,1.55,4.64,.59,9.1-.39,13.34-2.21,7.04-3.01,14.31-5.63,20.97-9.35,9.3-5.2,18.44-4.01,27.85-1.1,7.21,2.23,13.85,5.78,20,9.95,9.2,6.25,15.11,15.08,16.64,26.26,.64,4.66,.19,9.46,.3,14.2,.12,5.04,.29,10.08,.48,15.11,.14,3.68,.48,7.36,.51,11.04,.06,5.63,.05,11.27-.17,16.9-.12,3.18-.49,6.39-1.14,9.51-1.24,5.96-5.65,9.34-10.68,11.95-5.5,2.85-11.11,5.51-16.7,8.18-3.78,1.81-7.77,2.98-11.94,3.52-.48,.06-.98,.15-1.45,.07-7.32-1.26-14.48,.45-21.71,1-4.93,.38-9.9,.13-14.85,.21-5.18,.09-10.24-.55-15.23-1.95-4.98-1.4-10.05-.77-15.03-.11-5.1,.68-10.06,.58-14.91-1.19-8.1-2.96-16.26-5.78-24.27-8.97-11.59-4.6-19.55-19.36-13.85-33.53,1.76-4.36,5.13-7.21,9.21-9.33,7.49-3.88,15.36-4.42,23.5-2.75,4.32,.89,8.6,1.89,11.68,5.35,1.41,1.58,2.63,3.35,3.79,5.13,1.11,1.7,2.06,3.52,3.03,5.31,4.19,7.74,11.15,10.68,19.48,11.16,2.13,.12,4.28,.08,6.41-.05,5.12-.31,9.77,.97,14.12,3.66,3.12,1.93,6.23,4.1,10.05,4.32,2.4,.14,4.84,.07,7.22-.26,7.09-1,13.38-3.82,18.67-8.72,3.12-2.89,5.12-6.54,5.52-10.65,.58-6.02,2.68-11.51,5.14-16.85,3.88-8.41,2.21-16.13-2.5-23.41-2.27-3.5-6.16-4.93-10.3-5.18-3.87-.23-7.75-.3-11.63-.42-1.76-.05-3.25-.74-4.3-2.11-3.18-4.13-7.57-5.16-12.44-4.89-4.26,.24-8.56,.29-12.75,.98-6.1,1.01-12.16,2.35-18.16,3.86-5.27,1.33-10.48,2.79-16,2.55-11.49-.51-21.85-4-30.76-11.43-5.73-4.78-8.04-11.26-9.06-18.33-.5-3.45-.66-6.94-.97-10.42Zm33.15,89.86c-1.02-2.03-1.73-4.18-3.03-5.88-2.43-3.16-5.48-5.74-9.04-7.6-2.69-1.4-5.47-1.85-8.27-.13-2.67,1.64-2.88,4.92-.29,6.57,2.36,1.51,4.81,2.87,7.27,4.19,2.37,1.28,4.73,2.64,7.25,3.56,1.77,.65,3.85,1.49,6.12-.72Zm106.42-3.97c.06-4.42-1.93-6.99-4.92-7.16-2.95-.17-5.32,2.04-5.55,5.45-.31,4.62-.44,9.25-.63,13.88-.06,1.56-.17,3.32,1.73,3.87,1.69,.48,2.91-.68,4.02-1.81,.2-.21,.38-.44,.55-.67,3.15-4.27,3.6-9.45,4.8-13.55Zm-3.68-48.94c.08-.92,.2-1.48,.18-2.04-.17-5.09-7.28-12.23-10.94-13.72-1.66-.68-3.93,.15-4.65,1.41-.81,1.41-.53,3.43,.7,4.78,.39,.43,.84,.79,1.3,1.15,1.51,1.19,2.99,2.42,4.57,3.52,2.66,1.85,5.23,3.89,8.85,4.9Zm-113.97-23.82c1.26-5.51,1.27-10.42,.97-15.32-.13-2.08-1.78-3.11-3.91-3.03-1.82,.06-3.15,.8-3.45,2.89-.69,4.73-.57,9.46,2.91,13.3,.78,.86,2.02,1.29,3.47,2.17Zm111.24-76.51c-.02-.16-.02-.45-.09-.73-.89-3.37-8.4-8.47-11.9-8.03-2.01,.25-4.02,2.31-2.41,4.29,2.82,3.47,6.06,6.49,10.56,7.68,2.03,.54,3.9-1.02,3.84-3.21Zm-130.84,170.99c-1.05-2.46-2-4.23-2.58-6.11-1.17-3.78-2.09-7.64-3.2-11.44-.56-1.93-1.65-2.74-3.03-2.53-1.31,.21-2.23,1.45-2.36,3.26-.03,.38,0,.77,.07,1.15,.96,6.25,4.07,11.2,9.08,14.98,.35,.26,.86,.3,2.02,.68Zm11.16-89.02c-.86-2.82-1.74-5.54-2.51-8.3-.39-1.39-.53-2.86-.85-4.27-.45-1.95-1.66-3.08-3.06-2.96-1.51,.13-2.85,1.74-2.62,3.63,.52,4.25,2.02,8.09,5.44,10.91,1.04,.86,2.2,1.59,3.62,.98Zm126.53,13.36c-.19-1.61-.23-2.72-.46-3.79-.74-3.45-2.75-6.12-5.44-8.29-1.08-.87-2.33-1.01-3.44-.05-.95,.82-.77,2.42,.33,3.61,.33,.35,.75,.62,1.08,.97,2.06,2.16,4.09,4.35,6.17,6.49,.33,.35,.85,.52,1.76,1.06Zm-118.96-95.18c-2.05-.18-2.49-.15-3.46,.79-2.04,1.99-3.06,4.42-2.9,7.31,.09,1.51,.94,2.37,2.35,2.47,1.46,.11,1.86-.92,2.11-2.22,.52-2.74,1.22-5.44,1.9-8.35Zm30.41-2.01c-3.03-1.61-4.76-2.23-6.45-1.68-.85,.28-1.82,1.16-2.09,1.98-.22,.68,.25,1.98,.86,2.46,2.25,1.81,6.72,.12,7.68-2.76Zm-20.74,3.38c-3.07,.43-5.13,1.43-6.62,3.47-.66,.9-.6,1.96,.34,2.55,.5,.32,1.73,.35,2,0,1.42-1.75,2.64-3.67,4.27-6.03Zm111.06,27.36c1.55-1.95,1.44-3.67,1.28-5.37-.11-1.14-.62-2.22-1.97-1.93-1.27,.27-1.52,1.33-1.07,2.52,.54,1.42,1.05,2.85,1.76,4.78Z"/>
        <path class="cls-1" d="M1291.03,221.27c-2.27,2.21-4.35,1.36-6.12,.72-2.51-.92-4.88-2.28-7.25-3.56-2.46-1.33-4.92-2.69-7.27-4.19-2.59-1.66-2.37-4.94,.29-6.57,2.8-1.72,5.58-1.27,8.27,.13,3.56,1.86,6.61,4.44,9.04,7.6,1.3,1.7,2.01,3.85,3.03,5.88Z"/>
        <path class="cls-1" d="M1397.45,217.3c-1.19,4.1-1.64,9.28-4.8,13.55-.17,.23-.35,.47-.55,.67-1.11,1.13-2.33,2.3-4.02,1.81-1.9-.54-1.79-2.31-1.73-3.87,.18-4.63,.32-9.26,.63-13.88,.23-3.41,2.6-5.62,5.55-5.45,2.98,.17,4.98,2.74,4.92,7.16Z"/>
        <path class="cls-1" d="M1393.77,168.36c-3.62-1.01-6.19-3.05-8.85-4.9-1.58-1.1-3.05-2.33-4.57-3.52-.45-.36-.91-.72-1.3-1.15-1.23-1.35-1.51-3.37-.7-4.78,.72-1.26,2.99-2.09,4.65-1.41,3.66,1.49,10.77,8.63,10.94,13.72,.02,.56-.09,1.12-.18,2.04Z"/>
        <path class="cls-1" d="M1279.81,144.54c-1.45-.88-2.7-1.31-3.47-2.17-3.48-3.84-3.61-8.57-2.91-13.3,.3-2.09,1.64-2.82,3.45-2.89,2.13-.07,3.78,.96,3.91,3.03,.3,4.9,.29,9.81-.97,15.32Z"/>
        <path class="cls-1" d="M1391.05,68.02c.06,2.19-1.82,3.75-3.84,3.21-4.5-1.19-7.74-4.21-10.56-7.68-1.61-1.99,.4-4.04,2.41-4.29,3.51-.44,11.02,4.66,11.9,8.03,.07,.28,.07,.57,.09,.73Z"/>
        <path class="cls-15" d="M1260.21,239.01c-1.15-.38-1.67-.42-2.02-.68-5.01-3.78-8.13-8.73-9.08-14.98-.06-.38-.1-.77-.07-1.15,.13-1.81,1.04-3.05,2.36-3.26,1.37-.22,2.46,.6,3.03,2.53,1.11,3.8,2.03,7.65,3.2,11.44,.58,1.89,1.53,3.66,2.58,6.11Z"/>
        <path class="cls-2" d="M1271.37,149.99c-1.42,.61-2.58-.12-3.62-.98-3.41-2.83-4.92-6.66-5.44-10.91-.23-1.89,1.11-3.51,2.62-3.63,1.4-.12,2.61,1.01,3.06,2.96,.33,1.41,.47,2.88,.85,4.27,.77,2.76,1.65,5.48,2.51,8.3Z"/>
        <path class="cls-2" d="M1397.9,163.36c-.92-.54-1.43-.71-1.76-1.06-2.08-2.14-4.11-4.33-6.17-6.49-.33-.35-.75-.61-1.08-.97-1.1-1.19-1.28-2.79-.33-3.61,1.11-.96,2.36-.82,3.44,.05,2.69,2.17,4.7,4.84,5.44,8.29,.23,1.07,.27,2.18,.46,3.79Z"/>
        <path class="cls-4" d="M1278.95,68.18c-.67,2.92-1.38,5.62-1.9,8.35-.25,1.3-.66,2.33-2.11,2.22-1.41-.1-2.26-.97-2.35-2.47-.16-2.89,.86-5.32,2.9-7.31,.97-.94,1.41-.97,3.46-.79Z"/>
        <path class="cls-1" d="M1309.35,66.16c-.97,2.88-5.43,4.57-7.68,2.76-.6-.48-1.08-1.78-.86-2.46,.27-.82,1.24-1.7,2.09-1.98,1.68-.55,3.42,.07,6.45,1.68Z"/>
        <path class="cls-8" d="M1288.61,69.54c-1.63,2.36-2.85,4.28-4.27,6.03-.28,.34-1.5,.31-2,0-.94-.59-1-1.65-.34-2.55,1.49-2.04,3.54-3.04,6.62-3.47Z"/>
        <path class="cls-3" d="M1399.67,96.9c-.71-1.93-1.23-3.36-1.76-4.78-.45-1.19-.21-2.25,1.07-2.52,1.35-.29,1.86,.79,1.97,1.93,.16,1.7,.27,3.42-1.28,5.37Z"/>
      </g>
    </g>
  </g>
</svg>