<?xml version="1.0" encoding="UTF-8"?>
<svg xmlns="http://www.w3.org/2000/svg" viewBox="0 0 808.9 224.5">
  <defs>
    <style>
      .cls-1 {
        fill: #fff;
      }

      .cls-2 {
        fill: #14100f;
      }

      .cls-3 {
        fill: #171012;
      }

      .cls-4 {
        fill: #151010;
      }

      .cls-5 {
        fill: #14100e;
      }

      .cls-6 {
        fill: #14110e;
      }

      .cls-7 {
        fill: #191015;
      }

      .cls-8 {
        fill: #12100d;
      }

      .cls-9 {
        fill: #13100d;
      }

      .cls-10 {
        fill: #16110f;
      }

      .cls-11 {
        fill: #13100e;
      }
    </style>
  </defs>
  <g id="_лой_1" data-name="Слой 1"/>
  <g id="_лой_2" data-name="Слой 2">
    <g id="soon">
      <path class="cls-11" d="M19.33,197.08c-1.16-.38-1.68-.42-2.03-.69-5.06-3.82-8.2-8.81-9.16-15.12-.06-.38-.1-.78-.07-1.16,.13-1.82,1.05-3.08,2.38-3.29,1.38-.22,2.48,.6,3.05,2.55,1.12,3.83,2.05,7.72,3.23,11.54,.59,1.9,1.54,3.69,2.6,6.17Z"/>
      <path class="cls-2" d="M30.59,107.25c-1.43,.62-2.6-.12-3.65-.99-3.44-2.85-4.97-6.72-5.49-11.01-.23-1.91,1.12-3.54,2.65-3.67,1.41-.12,2.64,1.02,3.09,2.99,.33,1.43,.47,2.9,.86,4.31,.78,2.78,1.67,5.53,2.54,8.37Z"/>
      <g>
        <path class="cls-8" d="M97.25,224.5c-7.89,0-15.15-.85-22.2-2.6-1.68-.42-3.53-.63-5.52-.63-1.55,0-3.13,.13-4.7,.38-2.55,.41-5.12,.62-7.66,.62-6.41,0-12.71-1.27-19.27-3.89-5.47-2.18-10.57-4.06-15.59-5.75-10.54-3.54-17.38-10.83-20.91-22.29-2.05-6.66-1.84-13.66,.64-20.79,2.06-5.93,6.26-10.42,12.85-13.75,5.47-2.77,11.12-4.17,16.79-4.17,1.99,0,4.02,.17,6.03,.51,1,.17,2,.31,3.01,.45,1.99,.28,4.05,.57,6.06,1.07,6.84,1.7,12.06,6.06,15.51,12.97,1.04,2.07,2.1,4.09,3.09,5.96,2.64,4.98,7,7.4,14.17,7.86,.95,.06,1.96,.09,3.18,.09,.94,0,1.88-.02,2.82-.03,.81-.01,1.63-.03,2.44-.03h.14c4.68,0,9.12,1.17,13.19,3.49l1.67,.96c1.3,.75,2.6,1.5,3.92,2.21,1.94,1.04,3.89,1.55,5.98,1.55,.88,0,1.8-.1,2.73-.28,5.35-1.09,10.81-2.79,14.52-7.74,2.25-3.01,3.5-5.83,3.94-8.89,.52-3.7,1.65-7.02,3.43-10.15,1.62-2.84,3.58-6.58,4.37-10.35,1.01-4.84-.23-9.57-3.5-13.32-1.41-1.62-3.72-1.87-6-1.9-1.84-.03-3.68-.03-5.52-.03-1.29,0-2.59,0-3.88-.01-4.37-.03-7.77-1.64-10.1-4.78-1.67-2.25-3.85-3.21-7.27-3.21-10.86,.02-20.59,1.34-29.8,4.04-5.64,1.65-11.33,2.49-16.91,2.49-7.19,0-14.4-1.39-21.41-4.14-6.4-2.5-11.92-6.07-16.41-10.6-6.24-6.29-8.2-14.53-9.29-21.76-1.87-12.36-.65-25.09,3.83-40.05,1.74-5.8,3.47-11.59,5.17-17.4,.17-.56,.37-1.26,.32-1.75-.94-8.88,2.34-16.55,10.02-23.44,7.53-6.77,15.91-10.2,24.91-10.2,2.13,0,4.34,.19,6.55,.57,3.35,.57,6.93,1.2,10.44,1.87,1.65,.32,3.36,.47,5.22,.47h0c3.69,0,7.38-.61,11.48-1.35,3.84-.69,7.71-1.75,11.45-2.77,1.64-.45,3.28-.9,4.92-1.32,2.35-.6,4.7-1.21,7.05-1.82l3.15-.82c.12-.03,.24-.05,.36-.05h8.32c8.28,.54,16.47,2.65,25.15,6.45,6.13,2.69,11.41,6.79,16.13,12.56,6.42,7.83,9.88,16.8,10.3,26.67,.04,1.01,.11,2.02,.17,3.02,.15,2.31,.31,4.7,.18,7.07-.29,5.58-2.52,10.82-6.99,16.48-2.05,2.59-5.51,4.14-9.24,4.14-1.82,0-3.58-.38-5.09-1.11-3.33-1.6-6.05-4.08-8.08-7.37l-.47-.76c-.91-1.45-1.85-2.94-2.48-4.6-1.7-4.47-5.5-7.16-8.92-9.33-2.6-1.66-5.74-2.49-9.32-2.49-.81,0-1.66,.04-2.52,.13l-1.85,.18c-2.54,.24-5.16,.5-7.66,.97-1.34,.25-2.7,.38-4.04,.38-3.21,0-6.37-.7-9.68-2.15-4.32-1.89-8.1-2.78-11.9-2.8h-.13c-11.47,0-20.71,6.1-24.09,15.93-2.76,8.01-3.32,15.69-1.7,23.48,.59,2.86,2.01,5.46,4.31,7.92,7.41,0,13.37-1.17,18.74-3.69,3.12-1.46,6.31-2.88,9.4-4.25,3.76-1.67,7.65-3.4,11.41-5.2,3.34-1.61,7.04-2.39,11.32-2.39,1.9,0,3.95,.15,6.44,.46,11.06,1.4,21.72,5.7,31.67,12.79,15.07,10.74,22.04,24.94,20.72,42.2-.32,4.17-.17,8.49-.03,12.67,.07,1.9,.13,3.79,.15,5.69,.03,2.36,.07,4.72,.12,7.08,.09,4.81,.18,9.79,.15,14.69-.04,5.94-.34,11.83-.64,16.8-.24,3.98-1.86,7.61-4.96,11.11-2.95,3.33-6.11,5.78-9.66,7.51-4.88,2.37-9.86,4.71-14.68,6.98l-3.58,1.69c-5.28,2.49-10.24,3.7-15.17,3.7-.45,0-.91-.01-1.37-.03-.7-.03-1.4-.05-2.1-.05-3.94,0-7.97,.48-11.86,.94l-1.32,.16c-5.11,.6-9.84,.89-14.48,.89Zm-27.29-10.88c2.6,0,4.91,.29,7.06,.9,4.54,1.28,9.27,1.93,14.06,1.93,.3,0,.6,0,.9,0,.81-.01,1.62-.02,2.43-.02,.92,0,1.84,0,2.76,.01,.92,0,1.83,.01,2.74,.01,2.05,0,4.49-.03,6.96-.22,2.01-.16,4.06-.4,6.04-.65,3.35-.41,6.81-.83,10.28-.83,2.13,0,4.08,.16,5.95,.48,.06,0,.12,.01,.18,.01,.23,0,.46-.04,.7-.07l.17-.02c4.04-.52,7.95-1.67,11.62-3.42l1.71-.82c4.98-2.38,10.13-4.84,15.1-7.42,6.08-3.15,9.08-6.47,10.04-11.09,.62-2.98,1-6.13,1.12-9.36,.24-6.17,.21-12.32,.17-16.98-.02-2.22-.16-4.49-.29-6.69-.09-1.47-.17-2.94-.23-4.41-.22-5.86-.38-10.71-.49-15.27-.04-1.65-.01-3.32,.02-4.94,.05-3.07,.1-6.24-.31-9.24-1.46-10.63-6.9-19.21-16.19-25.52-6.8-4.62-13.28-7.85-19.8-9.86-5.41-1.67-9.78-2.45-13.75-2.45-4.77,0-9.1,1.13-13.24,3.44-5,2.8-10.39,5-15.61,7.14-1.9,.78-3.8,1.55-5.68,2.36-3.96,1.69-7.65,2.52-11.28,2.52-.98,0-1.96-.06-2.92-.19-2.05-.26-4.16-.67-5.63-1.86-4.37-3.54-6.93-7.12-8.06-11.25-2.1-7.63-1.98-15.74,.35-24.79,1.7-6.6,3.92-11.23,7.2-15,6.13-7.06,14.16-10.49,24.52-10.49,1.75,0,3.6,.1,5.51,.3,2.32,.24,4.53,1.02,6.67,1.78,1.11,.4,2.26,.8,3.38,1.11,.42,.12,.84,.24,1.27,.37,1.51,.45,2.94,.88,4.28,.88,.08,0,.17,0,.25,0,2.54-.11,5.14-.47,7.66-.81,1.47-.2,2.98-.41,4.49-.57,1.59-.17,3.13-.26,4.57-.26,9.69,0,16.62,3.8,21.18,11.61,1.68,2.88,3.13,5.5,4.44,8.02,1.47,2.83,3.31,4.95,5.62,6.49,.8,.53,1.71,.81,2.64,.81,1.26,0,2.41-.51,3.25-1.45,2.81-3.16,4.49-6.38,5.13-9.86,.69-3.74,.24-7.42-.24-11.32-.14-1.15-.28-2.3-.39-3.46-.73-7.64-4.14-14.64-10.71-22.03-2.64-2.97-5.78-5.32-9.61-7.21-6.48-3.19-13.77-5.28-22.28-6.39-1.39-.18-2.79-.27-4.16-.27-3.62,0-7.15,.62-10.78,1.9-1.57,.55-3.18,1.04-4.73,1.51-.77,.23-1.54,.46-2.3,.71-8.53,2.69-16.17,3.99-23.34,3.99-.96,0-1.92-.02-2.87-.07-5.24-.26-10.44-1.2-15.29-2.18-2.12-.43-4.32-.65-6.52-.65-2.43,0-4.94,.26-7.48,.79-6.22,1.28-11.73,4.84-16.37,10.58-4.19,5.19-5.67,10.52-4.51,16.3,.28,1.39,.07,2.83-.16,3.79-1.1,4.72-2.05,8.53-3,11.99-2.78,10.17-5.39,21.14-5.74,32.51,.1,1.08,.18,2.16,.26,3.23,.18,2.35,.37,4.78,.7,7.12,1.17,8.17,3.84,13.6,8.65,17.61,8.42,7.01,18.29,10.68,30.2,11.21,.39,.02,.79,.03,1.17,.03,4.5,0,8.78-1.09,13.31-2.24l1.25-.32c6.77-1.71,12.81-2.99,18.44-3.92,3.32-.55,6.73-.71,10.02-.86,1-.05,2-.09,3-.15,.52-.03,1.03-.04,1.53-.04,5.36,0,9.36,1.81,12.22,5.53,.78,1.02,1.85,1.53,3.26,1.57,.96,.03,1.93,.06,2.89,.08,2.91,.08,5.92,.16,8.89,.34,5.24,.32,9.22,2.35,11.5,5.87,5.56,8.59,6.41,16.76,2.62,24.99-2.17,4.69-4.46,10.33-5.06,16.54-.43,4.37-2.51,8.4-6.02,11.65-5.41,5.01-12.01,8.09-19.61,9.16-1.64,.23-3.37,.35-5.15,.35-.79,0-1.6-.02-2.41-.07-3.87-.22-6.96-2.16-9.95-4.03l-.86-.54c-3.84-2.38-7.76-3.53-12-3.53-.47,0-.95,.01-1.42,.04-1.36,.08-2.62,.12-3.84,.12-.96,0-1.9-.03-2.79-.08-9.95-.57-16.76-4.5-20.82-12l-.4-.75c-.82-1.51-1.66-3.08-2.59-4.51-1.09-1.67-2.28-3.43-3.69-5.01-2.72-3.05-6.44-4.02-11.02-4.95-2.83-.58-5.58-.87-8.18-.87-5.26,0-10.04,1.15-14.6,3.52-4.43,2.29-7.17,5.05-8.63,8.68-2.47,6.14-2.39,12.87,.22,18.97,2.58,6.03,7.31,10.77,12.96,13.02,5.93,2.36,12.05,4.56,17.97,6.69,2.16,.78,4.32,1.56,6.48,2.34,2.78,1.01,5.73,1.51,9.02,1.51,1.67,0,3.42-.12,5.35-.38,3.08-.41,5.86-.75,8.68-.75Z"/>
        <g>
          <path class="cls-1" d="M171.36,166.05c.06,5.69,.05,11.38-.17,17.06-.12,3.21-.5,6.45-1.15,9.59-1.25,6.02-5.7,9.43-10.78,12.07-5.55,2.88-11.2,5.55-16.85,8.25-3.81,1.83-7.84,3.01-12.05,3.55-.48,.07-.99,.15-1.46,.07-7.38-1.27-14.61,.45-21.91,1.01-4.97,.39-9.99,.14-14.99,.22-5.22,.09-10.33-.55-15.37-1.97-5.02-1.42-10.14-.78-15.17-.11-5.15,.69-10.14,.59-15.04-1.2-8.18-2.98-16.41-5.83-24.49-9.05-11.7-4.64-19.73-19.54-13.98-33.83,1.78-4.4,5.18-7.27,9.3-9.41,7.56-3.92,15.5-4.46,23.72-2.77,4.36,.89,8.67,1.9,11.79,5.4,1.42,1.59,2.65,3.38,3.82,5.17,1.12,1.72,2.07,3.55,3.05,5.36,4.23,7.81,11.25,10.77,19.66,11.26,2.15,.12,4.32,.08,6.47-.05,5.16-.31,9.86,.98,14.25,3.7,3.15,1.95,6.28,4.13,10.14,4.35,2.42,.14,4.89,.07,7.29-.26,7.15-1.01,13.5-3.85,18.84-8.8,3.15-2.92,5.17-6.6,5.57-10.75,.59-6.07,2.7-11.62,5.19-17,3.91-8.49,2.23-16.28-2.52-23.62-2.29-3.54-6.21-4.98-10.4-5.23-3.91-.24-7.82-.3-11.74-.42-1.78-.06-3.27-.74-4.34-2.13-3.21-4.17-7.63-5.21-12.55-4.93-4.3,.24-8.64,.29-12.87,.99-6.16,1.02-12.27,2.37-18.33,3.9-5.32,1.34-10.57,2.82-16.14,2.57-11.59-.51-22.05-4.03-31.05-11.53-5.78-4.83-8.11-11.36-9.14-18.5-.5-3.48-.66-7.01-.98-10.51,.34-11.29,2.85-22.14,5.79-32.92,1.08-3.96,2.05-7.95,2.99-11.94,.23-1.02,.35-2.17,.14-3.19-1.33-6.65,.71-12.42,4.8-17.47,4.47-5.53,10.12-9.63,17.19-11.08,4.78-.98,9.66-1.14,14.57-.14,4.97,1.01,10.03,1.91,15.08,2.16,8.77,.43,17.34-1.22,25.71-3.86,2.33-.73,4.69-1.39,6.99-2.2,5.07-1.79,10.18-2.4,15.58-1.7,7.94,1.04,15.53,2.99,22.73,6.53,3.84,1.89,7.21,4.35,10.04,7.53,5.83,6.56,10.19,13.78,11.06,22.84,.48,5.06,1.55,10.06,.61,15.17-.74,4.07-2.76,7.51-5.46,10.54-1.98,2.23-5.25,2.52-7.72,.88-2.67-1.78-4.62-4.18-6.1-7.02-1.4-2.69-2.88-5.34-4.41-7.95-5.52-9.47-14.23-11.75-24.37-10.66-4.08,.44-8.14,1.21-12.23,1.39-2.06,.09-4.19-.72-6.24-1.29-3.29-.92-6.48-2.51-9.82-2.85-10.99-1.14-21.12,.86-28.81,9.71-3.62,4.17-5.55,9.19-6.9,14.43-2.06,7.97-2.57,16.01-.36,24.06,1.22,4.45,4.16,7.74,7.59,10.52,1.25,1.02,3.22,1.35,4.92,1.56,4.68,.6,9.18-.39,13.46-2.23,7.11-3.04,14.45-5.68,21.16-9.43,9.39-5.25,18.61-4.04,28.11-1.11,7.27,2.25,13.98,5.84,20.18,10.05,9.28,6.3,15.25,15.22,16.79,26.5,.65,4.7,.2,9.55,.31,14.33,.12,5.09,.29,10.17,.48,15.25,.14,3.72,.48,7.43,.52,11.14Z"/>
          <path class="cls-8" d="M175.39,153.05c.09,7.25,.31,14.5,.27,21.75-.03,5.58-.31,11.16-.64,16.73-.23,3.95-1.99,7.31-4.6,10.25-2.63,2.97-5.65,5.44-9.22,7.18-6.05,2.94-12.16,5.79-18.25,8.66-5.02,2.36-10.25,3.79-15.87,3.53-5.21-.24-10.35,.45-15.52,1.06-12.12,1.42-24.18,1.3-36.18-1.68-3.42-.84-7.27-.83-10.78-.26-9.1,1.46-17.71,.19-26.17-3.19-5.17-2.06-10.4-4.01-15.67-5.78-10.55-3.54-16.81-10.98-20.01-21.36-2.07-6.71-1.65-13.37,.62-19.9,2.11-6.07,6.54-10.12,12.15-12.96,6.93-3.5,14.23-4.83,21.95-3.52,2.99,.51,6.03,.77,8.96,1.5,6.8,1.7,11.49,6.04,14.58,12.23,1.01,2.01,2.05,4,3.11,5.99,3.26,6.15,8.87,8.19,15.33,8.61,2.83,.18,5.68,.04,8.52,.02,4.51-.02,8.71,1.08,12.63,3.31,1.87,1.06,3.72,2.16,5.61,3.18,3.04,1.64,6.25,2.1,9.67,1.41,5.96-1.22,11.51-3.13,15.37-8.29,2.15-2.87,3.69-5.93,4.21-9.54,.48-3.39,1.5-6.57,3.25-9.64,1.93-3.37,3.74-7.02,4.53-10.77,1.1-5.24-.2-10.39-3.82-14.54-1.76-2.01-4.45-2.35-7.05-2.39-3.14-.04-6.27-.02-9.41-.04-3.64-.03-6.78-1.26-8.98-4.21-2.16-2.91-5.01-3.79-8.45-3.79-10.24,.02-20.3,1.22-30.16,4.1-12.63,3.69-25.14,3.19-37.4-1.61-5.98-2.34-11.4-5.71-15.93-10.27-5.72-5.77-7.72-13.23-8.89-20.97-2.04-13.46-.08-26.54,3.79-39.44,1.73-5.8,3.46-11.59,5.17-17.4,.22-.74,.45-1.55,.37-2.3-.98-9.21,2.94-16.3,9.56-22.24,8.65-7.77,18.62-11.28,30.27-9.28,3.47,.6,6.94,1.2,10.41,1.86,5.81,1.11,11.56,.15,17.22-.87,5.55-1,10.98-2.71,16.46-4.12,3.41-.87,6.81-1.76,10.21-2.64,2.77,0,5.55,0,8.32,0,8.59,.56,16.7,2.87,24.58,6.33,6.29,2.75,11.34,6.95,15.61,12.15,6.13,7.49,9.56,16.1,9.97,25.84,.14,3.32,.53,6.65,.36,9.96-.32,5.98-3.06,11.09-6.69,15.68-2.79,3.52-8.53,4.59-12.61,2.63-3.17-1.53-5.65-3.86-7.49-6.85-1.03-1.66-2.15-3.31-2.84-5.12-1.79-4.69-5.56-7.54-9.48-10.02-3.78-2.41-8.23-3.04-12.74-2.58-3.21,.32-6.46,.56-9.63,1.16-4.52,.85-8.76,.13-12.89-1.68-3.97-1.74-8.03-2.9-12.46-2.91-11.1-.05-21.63,5.44-25.58,16.88-2.75,7.99-3.46,15.99-1.74,24.24,.73,3.55,2.54,6.46,5.09,9.04,6.88,.06,13.58-.84,19.95-3.82,6.9-3.24,13.95-6.16,20.82-9.46,5.5-2.65,11.19-2.53,16.96-1.8,11.44,1.44,21.83,5.98,31.03,12.54,13.84,9.87,21.48,23.22,20.12,40.93-.47,6.12,.04,12.32,.12,18.48Zm-4.2,30.06c.22-5.68,.23-11.37,.17-17.06-.04-3.71-.38-7.42-.52-11.14-.19-5.08-.36-10.16-.48-15.25-.11-4.78,.34-9.63-.31-14.33-1.54-11.28-7.51-20.2-16.79-26.5-6.2-4.21-12.91-7.8-20.18-10.05-9.5-2.93-18.72-4.14-28.11,1.11-6.71,3.75-14.05,6.39-21.16,9.43-4.28,1.84-8.78,2.83-13.46,2.23-1.7-.21-3.67-.54-4.92-1.56-3.43-2.78-6.37-6.07-7.59-10.52-2.21-8.05-1.7-16.09,.36-24.06,1.35-5.24,3.28-10.26,6.9-14.43,7.69-8.85,17.82-10.85,28.81-9.71,3.34,.34,6.53,1.93,9.82,2.85,2.05,.57,4.18,1.38,6.24,1.29,4.09-.18,8.15-.95,12.23-1.39,10.14-1.09,18.85,1.19,24.37,10.66,1.53,2.61,3.01,5.26,4.41,7.95,1.48,2.84,3.43,5.24,6.1,7.02,2.47,1.64,5.74,1.35,7.72-.88,2.7-3.03,4.72-6.47,5.46-10.54,.94-5.11-.13-10.11-.61-15.17-.87-9.06-5.23-16.28-11.06-22.84-2.83-3.18-6.2-5.64-10.04-7.53-7.2-3.54-14.79-5.49-22.73-6.53-5.4-.7-10.51-.09-15.58,1.7-2.3,.81-4.66,1.47-6.99,2.2-8.37,2.64-16.94,4.29-25.71,3.86-5.05-.25-10.11-1.15-15.08-2.16-4.91-1-9.79-.84-14.57,.14-7.07,1.45-12.72,5.55-17.19,11.08-4.09,5.05-6.13,10.82-4.8,17.47,.21,1.02,.09,2.17-.14,3.19-.94,3.99-1.91,7.98-2.99,11.94-2.94,10.78-5.45,21.63-5.79,32.92,.32,3.5,.48,7.03,.98,10.51,1.03,7.14,3.36,13.67,9.14,18.5,9,7.5,19.46,11.02,31.05,11.53,5.57,.25,10.82-1.23,16.14-2.57,6.06-1.53,12.17-2.88,18.33-3.9,4.23-.7,8.57-.75,12.87-.99,4.92-.28,9.34,.76,12.55,4.93,1.07,1.39,2.56,2.07,4.34,2.13,3.92,.12,7.83,.18,11.74,.42,4.19,.25,8.11,1.69,10.4,5.23,4.75,7.34,6.43,15.13,2.52,23.62-2.49,5.38-4.6,10.93-5.19,17-.4,4.15-2.42,7.83-5.57,10.75-5.34,4.95-11.69,7.79-18.84,8.8-2.4,.33-4.87,.4-7.29,.26-3.86-.22-6.99-2.4-10.14-4.35-4.39-2.72-9.09-4.01-14.25-3.7-2.15,.13-4.32,.17-6.47,.05-8.41-.49-15.43-3.45-19.66-11.26-.98-1.81-1.93-3.64-3.05-5.36-1.17-1.79-2.4-3.58-3.82-5.17-3.12-3.5-7.43-4.51-11.79-5.4-8.22-1.69-16.16-1.15-23.72,2.77-4.12,2.14-7.52,5.01-9.3,9.41-5.75,14.29,2.28,29.19,13.98,33.83,8.08,3.22,16.31,6.07,24.49,9.05,4.9,1.79,9.89,1.89,15.04,1.2,5.03-.67,10.15-1.31,15.17,.11,5.04,1.42,10.15,2.06,15.37,1.97,5-.08,10.02,.17,14.99-.22,7.3-.56,14.53-2.28,21.91-1.01,.47,.08,.98,0,1.46-.07,4.21-.54,8.24-1.72,12.05-3.55,5.65-2.7,11.3-5.37,16.85-8.25,5.08-2.64,9.53-6.05,10.78-12.07,.65-3.14,1.03-6.38,1.15-9.59Z"/>
        </g>
        <path class="cls-1" d="M16.98,88.49c.34-11.28,2.85-22.14,5.79-32.92,1.08-3.96,2.05-7.94,2.98-11.94,.24-1.03,.35-2.17,.15-3.19-1.33-6.65,.71-12.42,4.8-17.47,4.47-5.53,10.12-9.63,17.19-11.08,4.78-.98,9.66-1.13,14.57-.14,4.97,1.01,10.02,1.91,15.07,2.16,8.78,.43,17.34-1.22,25.71-3.86,2.33-.73,4.69-1.39,6.99-2.2,5.07-1.79,10.18-2.4,15.59-1.7,7.93,1.04,15.53,2.98,22.72,6.52,3.84,1.89,7.21,4.36,10.04,7.54,5.83,6.56,10.19,13.78,11.06,22.84,.49,5.06,1.56,10.06,.62,15.17-.75,4.08-2.77,7.52-5.46,10.55-1.98,2.23-5.26,2.52-7.73,.87-2.67-1.77-4.62-4.17-6.1-7.02-1.4-2.69-2.88-5.34-4.41-7.95-5.53-9.47-14.23-11.74-24.37-10.66-4.08,.44-8.14,1.22-12.23,1.39-2.06,.09-4.19-.72-6.24-1.29-3.29-.91-6.48-2.51-9.81-2.85-10.99-1.13-21.12,.86-28.81,9.72-3.62,4.16-5.55,9.18-6.9,14.42-2.06,7.97-2.57,16.01-.36,24.06,1.22,4.45,4.16,7.74,7.59,10.52,1.25,1.01,3.22,1.34,4.92,1.56,4.68,.6,9.18-.4,13.46-2.23,7.1-3.04,14.44-5.68,21.16-9.43,9.39-5.25,18.61-4.04,28.11-1.11,7.27,2.25,13.98,5.83,20.18,10.05,9.28,6.3,15.25,15.22,16.8,26.5,.64,4.7,.19,9.55,.31,14.33,.12,5.09,.29,10.17,.48,15.25,.14,3.71,.48,7.42,.52,11.14,.06,5.68,.05,11.37-.17,17.05-.12,3.21-.5,6.45-1.15,9.6-1.25,6.02-5.7,9.43-10.78,12.06-5.55,2.88-11.21,5.56-16.85,8.26-3.82,1.83-7.84,3.01-12.05,3.55-.48,.06-.99,.15-1.46,.07-7.39-1.27-14.61,.45-21.91,1.01-4.97,.38-9.99,.13-14.99,.22-5.22,.09-10.34-.55-15.37-1.97-5.03-1.42-10.14-.78-15.17-.11-5.15,.69-10.15,.59-15.05-1.2-8.18-2.98-16.4-5.84-24.49-9.05-11.7-4.65-19.73-19.54-13.97-33.83,1.77-4.4,5.17-7.27,9.3-9.41,7.56-3.92,15.5-4.46,23.72-2.77,4.36,.89,8.68,1.9,11.79,5.4,1.42,1.59,2.65,3.38,3.82,5.18,1.12,1.72,2.07,3.55,3.05,5.36,4.23,7.81,11.25,10.78,19.66,11.26,2.15,.12,4.32,.09,6.47-.05,5.17-.31,9.86,.98,14.25,3.7,3.15,1.95,6.29,4.14,10.15,4.36,2.42,.14,4.89,.07,7.28-.27,7.15-1.01,13.5-3.85,18.84-8.8,3.15-2.92,5.17-6.6,5.57-10.75,.59-6.07,2.7-11.62,5.19-17,3.92-8.49,2.23-16.28-2.52-23.62-2.29-3.54-6.21-4.98-10.4-5.23-3.91-.24-7.82-.3-11.74-.42-1.78-.05-3.28-.74-4.34-2.13-3.21-4.17-7.64-5.21-12.55-4.93-4.3,.24-8.64,.29-12.87,.99-6.16,1.02-12.27,2.37-18.33,3.9-5.32,1.34-10.57,2.82-16.14,2.57-11.59-.51-22.05-4.03-31.05-11.53-5.79-4.82-8.12-11.36-9.14-18.5-.5-3.48-.66-7.01-.98-10.51Zm33.45,90.68c-1.03-2.05-1.75-4.22-3.06-5.94-2.45-3.19-5.54-5.79-9.12-7.67-2.71-1.42-5.52-1.87-8.34-.13-2.69,1.65-2.91,4.96-.29,6.63,2.38,1.52,4.85,2.89,7.34,4.23,2.39,1.29,4.78,2.67,7.31,3.59,1.78,.65,3.88,1.5,6.17-.72Zm107.39-4.01c.07-4.46-1.95-7.06-4.96-7.23-2.98-.17-5.37,2.06-5.6,5.5-.31,4.66-.45,9.34-.63,14.01-.06,1.58-.17,3.35,1.75,3.9,1.7,.49,2.94-.69,4.05-1.83,.2-.21,.38-.44,.56-.68,3.18-4.31,3.63-9.54,4.84-13.68Zm-3.72-49.39c.08-.92,.2-1.49,.18-2.06-.17-5.14-7.34-12.34-11.04-13.85-1.67-.68-3.97,.15-4.69,1.43-.81,1.43-.53,3.46,.71,4.82,.39,.43,.85,.8,1.31,1.16,1.53,1.2,3.02,2.44,4.61,3.55,2.68,1.87,5.28,3.92,8.93,4.95Zm-115.01-24.04c1.27-5.56,1.28-10.52,.98-15.46-.13-2.1-1.79-3.14-3.94-3.06-1.83,.06-3.18,.81-3.48,2.91-.7,4.78-.58,9.55,2.94,13.42,.78,.86,2.04,1.3,3.5,2.19ZM151.36,24.53c-.02-.16-.02-.46-.09-.74-.89-3.4-8.47-8.54-12.01-8.1-2.02,.25-4.06,2.33-2.43,4.33,2.85,3.5,6.12,6.55,10.66,7.75,2.04,.54,3.94-1.03,3.88-3.24ZM19.33,197.08c-1.06-2.48-2.02-4.27-2.6-6.17-1.18-3.82-2.11-7.71-3.23-11.54-.57-1.95-1.67-2.77-3.05-2.55-1.33,.21-2.25,1.46-2.38,3.29-.03,.38,0,.78,.07,1.16,.96,6.31,4.11,11.3,9.16,15.12,.35,.27,.87,.31,2.03,.69Zm11.27-89.83c-.87-2.84-1.76-5.59-2.54-8.37-.39-1.41-.53-2.88-.86-4.31-.45-1.96-1.68-3.1-3.09-2.99-1.53,.13-2.88,1.76-2.65,3.67,.52,4.29,2.04,8.16,5.49,11.01,1.05,.87,2.22,1.61,3.65,.99Zm127.69,13.48c-.19-1.62-.23-2.74-.46-3.82-.75-3.49-2.77-6.17-5.49-8.37-1.09-.88-2.35-1.02-3.47-.05-.96,.83-.78,2.45,.33,3.64,.33,.36,.75,.62,1.09,.98,2.08,2.18,4.13,4.39,6.22,6.55,.34,.35,.85,.52,1.78,1.07ZM38.23,24.68c-2.07-.18-2.51-.15-3.49,.8-2.06,2.01-3.09,4.46-2.93,7.37,.09,1.52,.95,2.39,2.37,2.5,1.47,.11,1.88-.93,2.13-2.24,.53-2.76,1.24-5.49,1.92-8.43Zm30.68-2.03c-3.05-1.62-4.81-2.25-6.51-1.69-.86,.28-1.84,1.17-2.11,2-.22,.68,.26,1.99,.86,2.48,2.27,1.83,6.78,.12,7.75-2.79Zm-20.93,3.41c-3.1,.43-5.18,1.44-6.68,3.5-.66,.91-.61,1.98,.35,2.57,.51,.32,1.74,.35,2.02,0,1.43-1.77,2.66-3.7,4.31-6.09Zm112.08,27.61c1.56-1.97,1.45-3.71,1.29-5.42-.11-1.15-.63-2.24-1.99-1.95-1.28,.28-1.53,1.34-1.08,2.54,.54,1.44,1.06,2.88,1.78,4.82Z"/>
        <path class="cls-2" d="M158.28,120.73c-.93-.54-1.44-.72-1.78-1.07-2.1-2.16-4.15-4.37-6.22-6.55-.33-.35-.76-.62-1.09-.98-1.11-1.2-1.29-2.81-.33-3.64,1.12-.96,2.38-.83,3.47,.05,2.72,2.19,4.75,4.88,5.49,8.37,.23,1.08,.27,2.2,.46,3.82Z"/>
      </g>
      <path class="cls-4" d="M38.23,24.68c-.68,2.94-1.39,5.67-1.92,8.43-.25,1.31-.66,2.35-2.13,2.24-1.43-.11-2.28-.98-2.37-2.5-.17-2.92,.86-5.37,2.93-7.37,.98-.95,1.42-.98,3.49-.8Z"/>
      <path class="cls-7" d="M47.99,26.07c-1.65,2.38-2.88,4.32-4.31,6.09-.28,.34-1.51,.31-2.02,0-.95-.6-1.01-1.66-.35-2.57,1.5-2.06,3.58-3.07,6.68-3.5Z"/>
      <path class="cls-3" d="M160.06,53.67c-.71-1.94-1.24-3.39-1.78-4.82-.45-1.21-.21-2.27,1.08-2.54,1.36-.29,1.88,.8,1.99,1.95,.16,1.71,.28,3.45-1.29,5.42Z"/>
      <g>
        <path class="cls-1" d="M379.06,92.32c-1.11-1.76-2.01-3.65-2.94-5.52-1.44,.43-3.3-.03-4.04-1.76-3.08-7.22-4.13-14.9-3.15-22.67,.73-5.79,1.71-11.6,1.39-17.37-2.84-7.41-6.56-14.33-14.12-18.19-5.91-3.02-12.04-5.66-18.17-8.25-2.56-1.08-4.56-2.48-5.83-4.96-2.54-4.95-6.93-7.48-12.27-8.59-3.74-.77-7.49-1.66-11.28-2.05-5.65-.57-11.34-1.04-17.01-1-4.69,.04-9.36,.94-14.06,1.35-10.96,.96-21.32,3.43-29.85,10.86-1,.87-2.28,1.65-3.56,1.96-5.67,1.36-9.94,4.6-13.94,8.65-4.62,4.66-7.94,9.86-8.86,16.28-1.43,9.94-4.86,19.04-11.06,27.07-2.02,2.61-4.23,5.07-6.31,7.64-4.67,5.75-9.26,11.49-9.64,19.38-.18,3.81-1.01,7.59-1.61,11.37-.57,3.61-1.41,7.08-2.02,10.93,.99,.38,1.81,1.23,1.93,2.53,.43,4.79,.49,9.66,.76,14.5,.1,.14,.2,.29,.28,.47,3.56,7.31,5.69,14.81,5.16,22.97-.03,.52-.21,.99-.47,1.39,.31,1.38,.59,2.77,.82,4.16,.65,3.96,1.82,7.55,3.55,10.84,1.1-.23,2.33,.08,3.14,1.22,3.11,4.37,7.23,7.97,10.44,12.3,3.36,4.53,8.12,7.18,13.04,9.89,4.44,2.45,9.06,4.72,13.82,6.5,3.84,1.44,7.92,2.27,10.72,5.47,3.26,3.72,5.41,7.77,10.64,9.07,4.39,1.1,9.12,.44,13.61,.71,4.11,.25,8.64,.91,12.67-.17,3.96-1.06,7.41-3.54,11.37-4.7,3.46-1.01,7.05-1.13,10.63-1.23,.27-1.09,1.18-2.04,2.75-2.16,5.35-.4,10.37-3.02,15.81-2.21,2.61,.39,5.11,1.4,7.75,1.6,2.66,.21,5.4-.15,7.99-.74,2.41-.55,4.72-1.37,7.06-2.12,2.18-.69,4.58-1.15,6.51-2.44,3.5-2.33,4.69-6.83,7.97-9.48,.01-.01,.03-.02,.04-.03-.1-1.36,.05-2.74,.36-4.12-.17-.94,.04-1.97,.75-2.72,.79-2.45,1.8-4.87,2.35-7.12,.09-.37,.19-.72,.3-1.08,.09-1.26,.15-2.52,.3-3.78,.17-1.49,1.15-2.38,2.27-2.68,.3-.7,.6-1.41,.88-2.13,1.26-3.23,2.06-6.58,2.56-10,1.03-6.99,3.96-13.4,5.87-20.17,2.04-7.27,2.44-14.94,2.47-22.44,0-1.05,.47-1.8,1.15-2.26-1.28-8.67-3.97-17.05-8.95-24.99Zm-116.87,43.85c-.53,2.32-2.1,2.85-3.61,1.03-3.17-3.81-4.9-8.34-5.19-13.22-.13-2.12,1.19-3.92,3.63-4.19,2.46-.27,3.94,1.23,4.47,3.32,.7,2.77,1.02,5.64,1.46,8.27-.27,1.78-.42,3.31-.76,4.79Zm.69-40.19c-1.51,1.75-3.97,2.51-6.46,1.27-2.41-1.2-3.08-3.32-3.19-6.77,.63-1.24,1.26-3.63,2.76-5.22,3.45-3.66,7.26-7.14,12.37-8.41,1.67-.41,4.02-.16,5.33,.78,.73,.52,.55,3.47-.25,4.63-3.27,4.74-6.78,9.36-10.55,13.73Zm52.05,32.43c-.24,.74-.58,1.36-1.01,1.89-.35,1.7-1.25,3.25-2.5,4.67-5.41,6.15-11.81,10.55-20.48,10.24-2.23-.08-4.67-.85-6.56-2.02-2.89-1.8-6.43-2.74-8.44-5.84-.69-.42-1.37-.95-2.03-1.61-2.72-2.7-4.32-6.13-4.08-9.93,.32-5.14,1.61-10.21,.65-15.37-.2-1.07,.15-1.95,.75-2.58-1.01-.36-1.81-1.23-1.79-2.6,.05-4.28,2.55-9.36,5.31-12.63,2.81-3.33,6.93-4.6,11.06-5.57,7.83-1.83,18.01-2.81,23.86,3.82,2.23,2.53-.93,6.12-3.4,4.73,0,.04,0,.07,0,.11,.09,3.03,.45,5.97,1.07,8.85,.8,.06,1.56,.51,2.01,1.5,1.84,4.03,2.39,8.28,3.61,12.49,.9,3.09,3.01,6.52,1.96,9.83Zm25.49-77.96c-5.43-4.18-10.72-8.27-16.05-12.32-2.18-1.65-2.79-3.87-1.71-6.14,1.08-2.25,3.6-2.43,5.69-1.87,2.01,.53,4,1.56,5.67,2.8,3.97,2.95,7.06,6.63,8.57,11.41,.74,2.35,.38,4.34-2.18,6.12Zm24.76,84.31c-1.29,2.44-3.49,4.44-5.44,6.5-.34,.36-1.53,.32-2.09,.03-1.67-.87-2.4-4.93-1.55-7.77,.67-2.26,2.95-3.97,5.21-3.91,2.6,.06,5.06,2.9,3.87,5.15Zm.83-23.36c-3.19,.87-5.06-2.1-6.08-4.46-2.56-5.9-4.82-11.95-6.78-18.07-1.05-3.29,.97-7.05,3.44-7.83,3.1-.98,6.29,.36,7.62,4.21,2.15,6.23,3.65,12.68,5.43,19.03-.98,2.81-.41,6.23-3.62,7.11Z"/>
        <path class="cls-1" d="M369.63,104.28c-.98,2.81-.41,6.23-3.62,7.11-3.19,.87-5.06-2.1-6.08-4.46-2.56-5.9-4.82-11.95-6.78-18.07-1.05-3.29,.97-7.05,3.44-7.83,3.1-.98,6.29,.36,7.62,4.21,2.15,6.23,3.65,12.68,5.43,19.03Z"/>
        <path class="cls-1" d="M253.23,90.47c.63-1.24,1.26-3.63,2.76-5.22,3.45-3.66,7.26-7.14,12.37-8.41,1.67-.41,4.02-.16,5.33,.78,.73,.52,.55,3.47-.25,4.63-3.27,4.74-6.78,9.36-10.55,13.73-1.51,1.75-3.97,2.51-6.46,1.27-2.41-1.2-3.08-3.32-3.19-6.77Z"/>
        <path class="cls-1" d="M340.42,50.44c-5.43-4.18-10.72-8.27-16.05-12.32-2.18-1.65-2.79-3.87-1.71-6.14,1.08-2.25,3.6-2.43,5.69-1.87,2.01,.53,4,1.56,5.67,2.8,3.97,2.95,7.06,6.63,8.57,11.41,.74,2.35,.38,4.34-2.18,6.12Z"/>
        <path class="cls-1" d="M262.95,131.37c-.27,1.78-.42,3.31-.76,4.79-.53,2.32-2.1,2.85-3.61,1.03-3.17-3.81-4.9-8.34-5.19-13.22-.13-2.12,1.19-3.92,3.63-4.19,2.46-.27,3.94,1.23,4.47,3.32,.7,2.77,1.02,5.64,1.46,8.27Z"/>
        <path class="cls-1" d="M361.31,129.6c2.6,.06,5.06,2.9,3.87,5.15-1.29,2.44-3.49,4.44-5.44,6.5-.34,.36-1.53,.32-2.09,.03-1.67-.87-2.4-4.93-1.55-7.77,.67-2.26,2.95-3.97,5.21-3.91Z"/>
        <g>
          <path d="M388.37,120.48c.98,8.38,.69,16.73-.71,25.01-.66,3.85-1.9,7.65-3.25,11.34-3.94,10.86-8.94,21.36-11.27,32.74-.76,3.72-2.38,7.1-4.17,10.44-3.4,6.29-8.62,10.27-15.55,12.38-7.71,2.35-15.41,2.69-23.23,.75-1.9-.47-3.87-.67-5.79-1.07-3.6-.73-6.99-.04-10.39,1.14-7.12,2.46-14.21,5.07-21.46,7.08-4.69,1.3-9.63,1.94-14.5,2.32-6.58,.53-12.88-1.06-18.86-3.74-3.26-1.46-5.95-3.67-8.08-6.55-.73-.98-1.69-1.92-2.76-2.49-3.61-1.93-7.18-4.08-11.03-5.42-7.44-2.61-13.6-6.71-18.53-12.77-1.82-2.24-4.12-4.11-6.19-6.16-2-1.99-4.02-3.96-5.95-6-4.15-4.38-6.32-9.61-7.26-15.48-.81-5.02-1.85-10.02-3.04-14.96-.79-3.27-2.08-6.41-3.1-9.63-1.86-5.93-2.29-12.07-2.7-17.9,.17-6.41,1.24-12.35,2.76-18.24,.61-2.39,.88-4.91,.96-7.38,.13-4.22,.81-8.26,3.27-11.8,2.26-3.25,4.65-6.42,7.05-9.58,2.57-3.39,5.35-6.64,7.82-10.11,4.5-6.34,7.22-13.4,8.28-21.06,1.08-7.81,4.45-14.31,10.37-19.85,3.74-3.49,7.63-6.18,12.59-7.55,1.54-.43,3.07-1.35,4.31-2.38,7.31-6.07,15.86-9.05,25.27-10.02,6.44-.66,12.86-1.6,19.31-2.04,3.5-.24,7.08,.09,10.57,.54,5.54,.71,11.05,1.65,16.55,2.67,5.47,1.01,9.9,3.66,12.48,8.7,1.22,2.38,3.17,3.71,5.63,4.76,6.21,2.64,12.37,5.4,18.42,8.38,2.14,1.05,4.18,2.61,5.78,4.37,5.42,5.94,8.81,12.87,10.03,20.82,.48,3.12,.05,6.12-.49,9.16-.36,1.98-.63,3.98-.88,5.98-.64,5.03,.43,9.76,2.75,14.24,2.13,4.12,4.09,8.34,6.5,12.29,5.1,8.37,7.38,17.52,8.49,27.07Zm-6,6.83c-.17-2.48-.28-6.04-.7-9.57-.84-7.2-2.39-14.19-6.25-20.57-2.5-4.13-4.73-8.43-6.83-12.77-3.12-6.46-4.8-13.18-3.56-20.44,.5-2.92,.8-5.96,.52-8.89-.66-7.08-3.5-13.4-8.16-18.84-1.24-1.44-2.79-2.8-4.49-3.63-5.98-2.92-12-5.77-18.15-8.29-3.8-1.56-6.84-3.67-8.78-7.26-1.78-3.29-4.73-5.15-8.36-5.82-6.76-1.23-13.54-2.35-20.33-3.39-1.72-.26-3.54-.16-5.29-.01-5.57,.49-11.13,1.17-16.7,1.61-8.53,.69-16.39,3.03-23.14,8.36-2.48,1.97-5.22,3.4-8.38,4.02-1.6,.31-2.89,1.08-3.9,2.39-2.26,2.91-4.61,5.75-6.91,8.64-2.09,2.62-3.39,5.58-4.07,8.85-.92,4.42-1.64,8.93-3.06,13.2-3.16,9.55-8.43,17.98-15.42,25.34-4.34,4.56-8.04,9.44-9.34,15.74-.38,1.87-1.09,3.69-1.7,5.52-4.17,12.56-4.15,25.13-.22,37.75,1.55,4.96,3.08,9.93,4.35,14.96,1.01,4.01,1.49,8.14,2.47,12.16,.42,1.72,1.3,3.42,2.32,4.91,2.36,3.45,5.28,6.42,8.54,9.12,2.46,2.04,5.03,4.12,6.91,6.64,4.14,5.57,9.42,9.45,15.92,11.9,4.82,1.82,9,4.67,13.08,7.71,1.63,1.21,3.4,2.33,5.28,3.09,5.86,2.39,11.99,3.6,18.35,3.75,11.28,.26,22.03-2.23,32.62-5.69,2.14-.7,4.25-1.52,6.44-2.04,5.2-1.22,10.36-.63,15.43,.79,7.33,2.05,14.54,1.73,21.71-.7,3.44-1.17,6.54-2.92,8.57-5.84,2.64-3.81,5.01-7.8,5.92-12.47,1.15-5.87,3.13-11.48,5.48-17.02,2.48-5.85,4.64-11.85,6.66-17.87,2.64-7.86,2.76-16.08,3.17-25.34Z"/>
          <path class="cls-1" d="M381.67,117.74c.42,3.53,.53,7.09,.7,9.57-.41,9.26-.53,17.48-3.17,25.34-2.02,6.02-4.18,12.02-6.66,17.87-2.35,5.54-4.33,11.15-5.48,17.02-.91,4.67-3.28,8.66-5.92,12.47-2.03,2.92-5.13,4.67-8.57,5.84-7.17,2.43-14.38,2.75-21.71,.7-5.07-1.42-10.23-2.01-15.43-.79-2.19,.52-4.3,1.34-6.44,2.04-10.59,3.46-21.34,5.95-32.62,5.69-6.36-.15-12.49-1.36-18.35-3.75-1.88-.76-3.65-1.88-5.28-3.09-4.08-3.04-8.26-5.89-13.08-7.71-6.5-2.45-11.78-6.33-15.92-11.9-1.88-2.52-4.45-4.6-6.91-6.64-3.26-2.7-6.18-5.67-8.54-9.12-1.02-1.49-1.9-3.19-2.32-4.91-.98-4.02-1.46-8.15-2.47-12.16-1.27-5.03-2.8-10-4.35-14.96-3.93-12.62-3.95-25.19,.22-37.75,.61-1.83,1.32-3.65,1.7-5.52,1.3-6.3,5-11.18,9.34-15.74,6.99-7.36,12.26-15.79,15.42-25.34,1.42-4.27,2.14-8.78,3.06-13.2,.68-3.27,1.98-6.23,4.07-8.85,2.3-2.89,4.65-5.73,6.91-8.64,1.01-1.31,2.3-2.08,3.9-2.39,3.16-.62,5.9-2.05,8.38-4.02,6.75-5.33,14.61-7.67,23.14-8.36,5.57-.44,11.13-1.12,16.7-1.61,1.75-.15,3.57-.25,5.29,.01,6.79,1.04,13.57,2.16,20.33,3.39,3.63,.67,6.58,2.53,8.36,5.82,1.94,3.59,4.98,5.7,8.78,7.26,6.15,2.52,12.17,5.37,18.15,8.29,1.7,.83,3.25,2.19,4.49,3.63,4.66,5.44,7.5,11.76,8.16,18.84,.28,2.93-.02,5.97-.52,8.89-1.24,7.26,.44,13.98,3.56,20.44,2.1,4.34,4.33,8.64,6.83,12.77,3.86,6.38,5.41,13.37,6.25,20.57Zm-62.15,10.33c1.95-9.1,.51-19.82-2.21-28.6-1.67-5.41-6.7-7.03-10.99-5.97-1.61-2.39-3.63-4.49-6.17-6.17-13.43-8.84-27.73,2.9-32.72,15.4-4.58,11.49-2.74,27.21,5.27,36.8,8.48,10.14,22.23,9.91,32.99,3.67,6.03-3.5,12.29-7.95,13.83-15.13Z"/>
        </g>
        <path d="M302.29,82.78c5.6,.74,9.99,5.33,10.53,10.87,.18,1.82,.35,3.65,.35,5.47,0,3.84,.94,7.39,2.82,10.77,2.47,4.42,3.99,9.14,4.75,14.16,.85,5.67-.14,10.73-4.1,15.05-6.91,7.54-15.18,12.58-25.87,12.35-7.07-.15-12.62-3.19-15.78-9.7-.28-.58-.84-1.04-1.23-1.58-1.42-1.96-2.93-3.85-4.2-5.9-2.23-3.59-2.8-7.49-2.07-11.66,.31-1.76,.2-3.63,.03-5.43-.4-4.2-1.31-8.39-1.39-12.59-.2-11.39,7.7-20.28,19.15-21.98,.87-.13,1.75-.33,2.62-.36,1.67-.06,3.34-.02,5.01-.02m-4.39,5.81c-9.38,.15-16.98,7.59-16.93,16.8,.02,3.35,.61,6.68,.79,10.03,.15,2.77,.43,5.61-.03,8.31-.49,2.89-.38,5.53,.92,8.12,1.12,2.24,2.28,4.46,3.52,6.64,.35,.62,.97,1.19,1.61,1.56,2.18,1.28,4.37,2.56,6.66,3.63,1.47,.68,3.1,1.31,4.69,1.42,9.16,.62,15.89-3.82,21.61-10.25,2.39-2.68,2.87-5.76,2.4-9.16-.65-4.7-1.85-9.21-4.12-13.44-1.9-3.53-2.93-7.31-2.98-11.33-.02-1.63-.25-3.26-.41-4.88-.39-4-2.27-6.17-6.3-6.84-2.69-.45-5.45-.57-8.17-.84"/>
        <path d="M278.02,19.95c-.5,.32-1.01,.61-1.48,.96-4.59,3.3-9.29,6.41-14.75,8.19-1.18,.39-2.47,.58-3.72,.64-1.4,.07-2.43-.67-2.89-2.01-.46-1.36,.04-2.49,1.1-3.33,.67-.52,1.49-.98,2.31-1.19,5.95-1.53,11.91-3.01,17.88-4.45,.35-.09,.83,.29,1.24,.46l.3,.73Z"/>
        <path d="M243.63,43.92c0,1.03,.18,1.82-.03,2.51-1.44,4.78-2.95,9.55-4.46,14.31-.2,.64-.46,1.28-.84,1.83-.77,1.12-1.85,1.7-3.28,1.4-1.37-.29-2.38-1.38-2.45-2.88-.03-.84,.11-1.74,.43-2.52,2.08-5.15,5.05-9.77,9.01-13.73,.36-.36,.92-.53,1.61-.92Z"/>
        <path d="M376.34,137.71c-.74,2.61-1.24,5.32-2.29,7.8-1.64,3.88-3.65,7.62-5.51,11.41-.13,.26-.3,.49-.47,.73-1.38,1.91-3.04,2.58-4.41,1.8-1.29-.73-1.43-2.53-.08-4.63,3.6-5.59,7.3-11.13,10.98-16.67,.23-.35,.67-.57,1.01-.84l.77,.4Z"/>
        <path d="M264.76,31.21c-.21,.72-.26,1.18-.46,1.58-1.71,3.43-3.43,6.86-5.18,10.27-.3,.59-.63,1.35-1.16,1.59-.81,.37-1.84,.59-2.72,.47-1.06-.15-1.6-1.12-1.55-2.16,.04-.93,.13-1.95,.53-2.77,1.93-3.92,5.03-6.76,8.93-8.79,.37-.19,.88-.12,1.61-.2Z"/>
        <path d="M242.68,192.89c-.96,0-1.67,.15-2.28-.02-3.91-1.1-7.01-3.34-9.25-6.67-.37-.55-.67-1.19-.86-1.82-.41-1.39,.14-2.71,1.28-3.19,1.3-.55,2.31,0,3.07,1.01,.76,1,1.35,2.12,2.11,3.12,1.86,2.43,3.77,4.82,5.93,7.57Z"/>
        <path d="M350.02,193.21c-.82,.73-1.53,1.71-2.49,2.14-3.2,1.42-6.47,2.68-9.75,3.92-.7,.27-1.55,.24-2.33,.24-1.06,0-1.95-.34-2.17-1.51-.2-1.06,.2-1.94,1.16-2.43,.77-.39,1.63-.68,2.49-.82,3.47-.6,6.95-1.11,10.42-1.68,.73-.12,1.45-.34,2.17-.51l.5,.64Z"/>
        <path d="M209.81,130.05c-.74-.93-1.26-1.35-1.45-1.88-1.38-3.72-1.7-7.62-1.79-11.53-.01-.62,.21-1.43,.63-1.84,.57-.55,1.48-1.12,2.18-1.06,.7,.06,1.44,.81,1.95,1.43,.32,.39,.37,1.11,.3,1.65-.55,4.21-1.15,8.42-1.83,13.24Z"/>
        <path d="M218.92,159.32c-.8-.25-1.3-.27-1.62-.52-2.98-2.32-5-5.32-6.35-8.78-.1-.27-.19-.54-.23-.83-.24-1.59,.44-2.79,1.8-3.18,1.22-.35,2.33,.23,3.05,1.61,.22,.42,.37,.88,.5,1.34,.92,3.28,1.82,6.57,2.86,10.36Z"/>
      </g>
      <g>
        <g>
          <path class="cls-1" d="M802.19,187.82c.3,4.27,.15,8.57-.88,12.69-1.7,6.75-6.5,10.96-12.73,13.57-3.08,1.29-6.21,2.22-9.78,1.52-2.35-.46-4.92,.17-7.39,.34-1.55,.11-2.91-.28-4.17-1.22-1.74-1.31-3.64-2.43-5.31-3.81-.97-.79-1.86-1.84-2.42-2.96-2.23-4.45-3.68-9.14-3.8-14.19-.12-4.86-.4-9.71-.48-14.56-.11-6.54,.65-13.01,1.59-19.48,1.24-8.45,1.84-16.96,1.24-25.49-.48-6.9-1.06-13.8-1.75-20.68-.65-6.38-1.58-12.73-2.23-19.11-.26-2.56-.07-5.16-.1-7.75-.04-4.67-1.07-8.98-4.16-12.68-3.77-4.52-8.24-7.06-14.32-5.5-2.38,.61-4.79,1.13-7.14,1.84-4.28,1.3-7.36,4.04-9.7,7.85-1.95,3.19-4.34,6.12-6.43,9.24-1.36,2.05-2.55,4.21-3.76,6.35-1.86,3.27-3.5,6.68-5.56,9.81-2.38,3.64-6.12,5.52-10.19,6.78-8.23,2.55-12.88,8.35-15.31,16.38-1.64,5.43-2.2,11.01-2.94,16.57-.77,5.77-1.53,11.54-2.26,17.31-.26,2.06-.52,4.12-.64,6.19-.45,7.41-.83,14.83-1.24,22.24-.2,3.66-.06,7.37-.69,10.95-.7,3.95-2,7.82-3.26,11.65-.57,1.73-1.97,2.76-3.91,3.27-3.8,.99-7.56,1.33-11.46,.73-4.09-.63-8.23-1.01-12.35-1.53-.77-.1-1.72-.09-2.26-.53-2.84-2.29-6.04-4.39-6.9-8.27-.67-3.07-1.43-6.21-1.45-9.32-.06-6.93,.05-13.89,.61-20.8,.5-6.18,1.62-12.31,2.6-18.45,1.24-7.66,2.02-15.39,1.26-23.08-.95-9.61-2.63-19.15-3.89-28.73-.59-4.51-.82-9.06-1.4-13.56-1.36-10.47-1.36-20.99-1.03-31.49,.16-5.01,.99-10.01,1.59-15.01,.59-4.8,1.16-9.6,1.94-14.37,.8-4.96,1.46-9.99,3.6-14.6,.9-1.94,2.23-3.72,3.57-5.4,2.24-2.83,5.6-3.03,8.88-1.13,4.08,2.35,7.48,5.61,10.46,9.21,2.12,2.56,3.16,5.67,3.34,9.04,.08,1.57,.54,3.14,.5,4.7-.08,3.46-.42,6.91-.58,10.37-.22,4.84-.68,9.71-.43,14.53,.14,2.66,1.23,5.4,2.41,7.85,1.49,3.08,4.26,3.65,7.26,1.98,2.64-1.46,4.05-3.98,5.6-6.41,1.96-3.09,3.99-6.14,6.16-9.08,2.55-3.46,5.96-5.83,10.25-6.54,4.2-.69,7.56-2.89,10.68-5.51,4.94-4.14,9.9-8.27,14.57-12.71,8.23-7.83,17.77-13.25,28.8-15.81,4.3-1,8.82-1.04,13.24-1.54,4.11-.47,8.03,.25,11.84,1.8,.91,.37,1.83,.75,2.78,1.04,2.26,.7,4.5,1.54,6.82,1.98,3,.58,5.35,2.06,7.17,4.4,6.43,8.3,10.83,17.44,11.53,28.09,.28,4.14,.54,8.29,.8,12.44l-.42,.03c.24,3.95,.58,7.9,.67,11.86,.06,2.56-.34,5.13-.4,7.69-.1,3.98-.04,7.96-.12,11.93-.19,9.92-.39,19.84-.64,29.76-.06,2.77-.5,5.54-.4,8.29,.16,4.14,.76,8.26,.97,12.4,.17,3.47,.05,6.96,.06,10.44,.02,4.15-.16,8.27,1.56,12.28,.79,1.82,.67,4.07,.81,6.14,.28,3.95,.44,7.9,.68,11.86,.11,1.97,.3,3.94,.44,5.91Z"/>
          <path class="cls-8" d="M808.52,197.85c.1,.48-.06,1.46-.24,1.7-2.25,11.28-9.49,17.99-19.98,21.61-1.93,.67-4.09,.93-6.14,.92-4.37-.01-8.75-.23-13.12-.54-1.33-.09-2.74-.52-3.93-1.14-9.25-4.87-13.88-12.89-14.82-22.99-1.19-12.89-1.26-25.81,.74-38.65,1.55-9.9,1.44-19.79,.27-29.7-1.09-9.18-2.23-18.34-3.15-27.53-.5-4.94-.59-9.92-.87-14.88-.21-3.71-1.44-6.95-4.24-9.54-1.58-1.45-3.36-2.1-5.46-1.75-1.27,.21-2.51,.57-3.78,.83-4.76,.99-8.2,3.49-10.41,8.01-1.46,3-3.73,5.59-5.59,8.4-.87,1.32-1.64,2.71-2.42,4.09-1.83,3.28-3.49,6.68-5.5,9.85-3.14,4.96-7.51,8.49-13.33,9.85-7.16,1.67-11.49,6.18-13.05,13.16-1.42,6.28-2.57,12.65-3.4,19.03-1.15,8.86-2.07,17.76-2.75,26.68-.56,7.32-.64,14.69-.89,22.03-.24,6.68-2.41,12.85-5,18.89-1.17,2.72-3.49,4.29-6.24,5.16-6.97,2.21-14.07,2.57-21.2,1.01-3-.65-5.97-1.53-8.82-2.67-2.22-.88-4.69-1.8-5.14-4.77-.05-.31-.5-.59-.8-.85-4.14-3.51-5.62-8.24-6.31-13.4-1.05-7.95-.6-15.86,.37-23.77,.76-6.11,1.35-12.24,2.06-18.36,1.17-9.98-.09-19.85-1.37-29.7-1.24-9.54-3.3-18.99-4.17-28.56-1.19-12.95-2.14-25.95-1.08-39,1.01-12.38,2.62-24.67,4.99-36.86,.66-3.39,1.77-6.71,2.89-9.98,1.24-3.64,3.44-6.68,6.31-9.26,3.96-3.54,8.39-4.28,13.3-2.45,1.11,.41,2.3,.85,3.18,1.59,4.04,3.37,8.22,6.62,11.89,10.36,4.15,4.23,4.64,9.93,4.97,15.55,.32,5.38-.35,10.7-.89,16.04-.38,3.84-.27,7.73-.21,11.59,.02,1.32,.57,2.62,1.04,4.63,1.34-2.38,2.33-4.09,3.28-5.82,2.75-4.98,5.66-9.79,10.29-13.35,2.9-2.22,5.99-3.92,9.6-4.51,2.43-.4,4.55-1.37,6.4-2.97,5.26-4.55,10.74-8.88,15.74-13.7,8.96-8.63,19.35-14.56,31.37-17.52,7.55-1.86,15.24-3.03,23.04-1.66,2.23,.39,4.39,1.19,6.58,1.83,3.42,1.01,6.8,2.15,10.25,3.05,4,1.04,7.36,3.03,9.88,6.27,6.19,7.95,10.76,16.68,12.44,26.7,.38,2.24,.33,4.56,.3,6.84-.12,10.34-.18,20.67-.5,31-.38,12.51-.95,25.02-1.53,37.52-.52,10.95-.17,21.87,.88,32.76,.87,9.08,2.16,18.12,3.18,27.19,.4,3.55,.53,7.13,.85,10.69,.05,.6,.11,1.62,.08,2.27,.55,3.41,.16,5.4,.16,8.78Zm-7.21,2.66c1.03-4.12,1.18-8.42,.88-12.69-.14-1.97-.33-3.94-.44-5.91-.24-3.96-.4-7.91-.68-11.86-.14-2.07-.02-4.32-.81-6.14-1.72-4.01-1.54-8.13-1.56-12.28-.01-3.48,.11-6.97-.06-10.44-.21-4.14-.81-8.26-.97-12.4-.1-2.75,.34-5.52,.4-8.29,.25-9.92,.45-19.84,.64-29.76,.08-3.97,.02-7.95,.12-11.93,.06-2.56,.46-5.13,.4-7.69-.09-3.96-.43-7.91-.67-11.86l.42-.03c-.26-4.15-.52-8.3-.8-12.44-.7-10.65-5.1-19.79-11.53-28.09-1.82-2.34-4.17-3.82-7.17-4.4-2.32-.44-4.56-1.28-6.82-1.98-.95-.29-1.87-.67-2.78-1.04-3.81-1.55-7.73-2.27-11.84-1.8-4.42,.5-8.94,.54-13.24,1.54-11.03,2.56-20.57,7.98-28.8,15.81-4.67,4.44-9.63,8.57-14.57,12.71-3.12,2.62-6.48,4.82-10.68,5.51-4.29,.71-7.7,3.08-10.25,6.54-2.17,2.94-4.2,5.99-6.16,9.08-1.55,2.43-2.96,4.95-5.6,6.41-3,1.67-5.77,1.1-7.26-1.98-1.18-2.45-2.27-5.19-2.41-7.85-.25-4.82,.21-9.69,.43-14.53,.16-3.46,.5-6.91,.58-10.37,.04-1.56-.42-3.13-.5-4.7-.18-3.37-1.22-6.48-3.34-9.04-2.98-3.6-6.38-6.86-10.46-9.21-3.28-1.9-6.64-1.7-8.88,1.13-1.34,1.68-2.67,3.46-3.57,5.4-2.14,4.61-2.8,9.64-3.6,14.6-.78,4.77-1.35,9.57-1.94,14.37-.6,5-1.43,10-1.59,15.01-.33,10.5-.33,21.02,1.03,31.49,.58,4.5,.81,9.05,1.4,13.56,1.26,9.58,2.94,19.12,3.89,28.73,.76,7.69-.02,15.42-1.26,23.08-.98,6.14-2.1,12.27-2.6,18.45-.56,6.91-.67,13.87-.61,20.8,.02,3.11,.78,6.25,1.45,9.32,.86,3.88,4.06,5.98,6.9,8.27,.54,.44,1.49,.43,2.26,.53,4.12,.52,8.26,.9,12.35,1.53,3.9,.6,7.66,.26,11.46-.73,1.94-.51,3.34-1.54,3.91-3.27,1.26-3.83,2.56-7.7,3.26-11.65,.63-3.58,.49-7.29,.69-10.95,.41-7.41,.79-14.83,1.24-22.24,.12-2.07,.38-4.13,.64-6.19,.73-5.77,1.49-11.54,2.26-17.31,.74-5.56,1.3-11.14,2.94-16.57,2.43-8.03,7.08-13.83,15.31-16.38,4.07-1.26,7.81-3.14,10.19-6.78,2.06-3.13,3.7-6.54,5.56-9.81,1.21-2.14,2.4-4.3,3.76-6.35,2.09-3.12,4.48-6.05,6.43-9.24,2.34-3.81,5.42-6.55,9.7-7.85,2.35-.71,4.76-1.23,7.14-1.84,6.08-1.56,10.55,.98,14.32,5.5,3.09,3.7,4.12,8.01,4.16,12.68,.03,2.59-.16,5.19,.1,7.75,.65,6.38,1.58,12.73,2.23,19.11,.69,6.88,1.27,13.78,1.75,20.68,.6,8.53,0,17.04-1.24,25.49-.94,6.47-1.7,12.94-1.59,19.48,.08,4.85,.36,9.7,.48,14.56,.12,5.05,1.57,9.74,3.8,14.19,.56,1.12,1.45,2.17,2.42,2.96,1.67,1.38,3.57,2.5,5.31,3.81,1.26,.94,2.62,1.33,4.17,1.22,2.47-.17,5.04-.8,7.39-.34,3.57,.7,6.7-.23,9.78-1.52,6.23-2.61,11.03-6.82,12.73-13.57Z"/>
        </g>
        <path class="cls-1" d="M799.23,71.11c.06,2.56-.34,5.13-.4,7.7-.1,3.97-.04,7.95-.12,11.93-.19,9.92-.39,19.84-.64,29.76-.07,2.77-.51,5.54-.4,8.29,.16,4.14,.76,8.26,.97,12.4,.17,3.47,.05,6.96,.06,10.44,.02,4.15-.17,8.27,1.56,12.28,.79,1.82,.66,4.07,.81,6.14,.28,3.95,.44,7.91,.67,11.86,.12,1.97,.3,3.94,.44,5.91,.31,4.27,.15,8.57-.88,12.69-1.7,6.75-6.49,10.97-12.72,13.58-3.08,1.29-6.22,2.21-9.78,1.52-2.35-.46-4.92,.17-7.39,.34-1.55,.11-2.91-.27-4.18-1.22-1.74-1.31-3.63-2.42-5.31-3.8-.97-.8-1.85-1.84-2.41-2.96-2.23-4.46-3.68-9.15-3.8-14.2-.12-4.85-.39-9.7-.48-14.56-.11-6.54,.65-13.01,1.59-19.48,1.23-8.44,1.84-16.95,1.24-25.49-.48-6.9-1.06-13.8-1.76-20.68-.64-6.38-1.58-12.73-2.22-19.11-.26-2.56-.08-5.17-.1-7.75-.04-4.67-1.07-8.99-4.16-12.69-3.77-4.52-8.24-7.05-14.32-5.5-2.38,.61-4.79,1.13-7.14,1.84-4.27,1.3-7.36,4.04-9.7,7.85-1.96,3.19-4.35,6.12-6.43,9.24-1.36,2.04-2.55,4.21-3.77,6.35-1.86,3.27-3.5,6.68-5.55,9.81-2.39,3.63-6.13,5.51-10.2,6.78-8.22,2.55-12.88,8.35-15.3,16.38-1.64,5.43-2.2,11.01-2.95,16.58-.77,5.77-1.53,11.53-2.26,17.31-.26,2.06-.52,4.12-.64,6.19-.44,7.41-.83,14.83-1.24,22.24-.2,3.65-.06,7.37-.69,10.95-.7,3.95-2,7.82-3.26,11.64-.57,1.73-1.97,2.77-3.91,3.27-3.8,.99-7.55,1.33-11.45,.73-4.1-.63-8.24-1.01-12.35-1.53-.77-.1-1.72-.09-2.26-.53-2.84-2.29-6.04-4.39-6.89-8.27-.67-3.07-1.43-6.21-1.46-9.32-.06-6.93,.05-13.89,.61-20.8,.5-6.18,1.62-12.32,2.61-18.45,1.23-7.66,2.02-15.39,1.26-23.09-.95-9.61-2.63-19.15-3.89-28.73-.59-4.5-.82-9.06-1.41-13.56-1.36-10.47-1.35-20.98-1.03-31.49,.16-5.01,.99-10.01,1.59-15.01,.58-4.8,1.16-9.6,1.93-14.38,.8-4.96,1.47-9.99,3.6-14.6,.9-1.94,2.23-3.72,3.57-5.4,2.24-2.82,5.61-3.02,8.89-1.13,4.07,2.35,7.48,5.61,10.46,9.22,2.12,2.56,3.16,5.66,3.34,9.03,.08,1.57,.54,3.14,.5,4.7-.09,3.46-.43,6.91-.58,10.37-.22,4.85-.68,9.71-.43,14.53,.14,2.66,1.23,5.4,2.41,7.84,1.49,3.08,4.25,3.65,7.26,1.98,2.64-1.47,4.05-3.98,5.6-6.41,1.96-3.08,3.99-6.14,6.15-9.08,2.55-3.46,5.97-5.83,10.25-6.54,4.2-.69,7.56-2.89,10.68-5.51,4.93-4.14,9.9-8.27,14.56-12.71,8.23-7.83,17.77-13.26,28.8-15.81,4.3-1,8.82-1.03,13.24-1.54,4.11-.47,8.04,.25,11.84,1.8,.92,.37,1.84,.75,2.78,1.04,2.26,.7,4.51,1.53,6.82,1.98,3,.58,5.36,2.05,7.18,4.4,6.43,8.29,10.83,17.44,11.53,28.09,.27,4.15,.53,8.3,.8,12.44m-9.87,59.9c.79-1.61,1.62-2.68,1.82-3.86,.55-3.28,1.09-6.6,1.17-9.91,.09-3.83-.2-7.69-.58-11.51-.2-2.01-.52-4.1-2.15-5.67-2.28-2.21-6-1.44-6.82,1.6-.42,1.55-.45,3.3-.27,4.91,.37,3.3,1.02,6.58,1.54,9.86,.68,4.28,1.79,8.43,3.59,12.38,.28,.6,.82,1.08,1.69,2.2Zm-2.35,75.55c0-.89,.07-1.79-.02-2.67-.13-1.27-.23-2.56-.6-3.77-.37-1.2-.91-2.42-1.66-3.43-1.59-2.14-5.94-2.88-7.26,1.19-.33,1.01-.57,2.1-.59,3.16-.05,3.27-.12,6.55,.09,9.8,.14,2.23,.66,4.45,1.16,6.64,.36,1.58,1.56,2.1,3.15,2.07,1.77-.03,2.65-1.17,3.41-2.46,1.9-3.25,2.08-6.9,2.32-10.53Zm-49.15-168.4c.21-.05,.85-.06,1.34-.33,3.27-1.81,6.91-2.1,10.49-2.77,2.59-.48,5.15-1.35,7.56-2.41,1.11-.49,2.98-.93,2.83-2.64-.15-1.69-1.82-2.17-3.24-2.62-5.42-1.7-10.91-1.52-16.36-.25-3.05,.71-5.25,2.67-6.32,5.71-.94,2.69,.72,5.32,3.69,5.3Zm-95.76,23.74c.95-1.48,1.76-2.38,2.15-3.44,.65-1.73,1.15-3.54,1.49-5.36,.61-3.27,1.18-6.55,1.51-9.86,.21-2.08-1.15-3.67-2.8-3.9-1.72-.24-3.19,.77-3.78,2.97-.43,1.59-.32,3.33-.72,4.93-.94,3.76-.44,7.43,.43,11.08,.26,1.07,.96,2.04,1.71,3.57Zm78.6-12.29c-.53-.34-.83-.67-1.01-.62-4.93,1.45-9.6,3.48-13.7,6.63-1.58,1.21-1.84,2.86-.93,4.14,.91,1.28,2.97,1.65,4.52,.55,4.19-2.97,8.2-6.16,11.12-10.7Zm-78.71,171.67c-.46-4.95-2.07-9.26-3.98-13.45-.24-.52-1.64-.93-2.31-.74-.81,.24-1.68,1.05-2.03,1.84-.32,.72-.22,1.84,.12,2.59,1.14,2.51,2.34,5.01,3.76,7.36,.81,1.34,2.14,2.32,4.43,2.39Zm3.97-12.55c-2.82-.01-4.22,1.92-3.03,4.33,1.08,2.18,2.53,4.19,3.91,6.21,.3,.45,.91,.83,1.45,.96,.8,.19,1.91,.48,2.43,.1,.53-.38,.85-1.63,.65-2.32-.77-2.61-1.8-5.15-2.73-7.72-.49-1.37-1.56-1.66-2.67-1.56Zm-11.43-146.9l.55-.04c.28-.8,.68-1.58,.81-2.41,.66-4.28,1.24-8.57,1.85-12.85,.21-1.46,.51-2.92,.56-4.39,.02-.53-.57-1.52-.9-1.52-.79-.02-1.87,.19-2.32,.73-.58,.7-.85,1.8-.91,2.76-.27,4.24-.53,8.48-.56,12.73-.01,1.67,.6,3.34,.93,5Zm157.09,150.52c1.39-.5,2.38-1.36,2.64-2.83,.43-2.4,.85-4.81,1.1-7.24,.17-1.66,.03-3.35,.05-5.03,.01-1.33-.49-2.45-1.82-2.69-1.42-.26-2.12,.8-2.39,2.07-.2,.95-.45,1.93-.43,2.89,.03,1.46,.31,2.92,.4,4.39,.18,2.77,.3,5.54,.45,8.45Zm-5.97-171.47c.27-1.64-.72-2.74-2.17-2.72-1.41,.02-3.04,1.66-2.84,3.25,.33,2.61,1.62,4.84,3.55,6.62,.57,.53,1.44,.04,1.45-.76,.02-2.13,0-4.26,0-6.39Zm-151.44,58.1c0-.3,0-.59,0-.89,0-1.23,0-2.49-1.63-2.66-1.57-.16-1.89,1.01-2.25,2.21-.86,2.92,.28,5.6,.86,8.36,.06,.29,.57,.76,.7,.71,.39-.15,.9-.47,.98-.81"/>
        <path class="cls-1" d="M789.12,119.13c-.88-1.12-1.42-1.6-1.69-2.2-1.81-3.95-2.92-8.1-3.59-12.38-.52-3.29-1.16-6.56-1.54-9.86-.18-1.61-.15-3.35,.27-4.91,.82-3.04,4.54-3.8,6.82-1.6,1.62,1.57,1.95,3.66,2.15,5.67,.38,3.82,.66,7.68,.58,11.51-.07,3.31-.61,6.63-1.17,9.91-.2,1.18-1.03,2.24-1.82,3.86Z"/>
        <path class="cls-1" d="M786.76,194.68c-.24,3.63-.41,7.28-2.32,10.53-.76,1.3-1.64,2.43-3.41,2.46-1.59,.03-2.79-.49-3.15-2.07-.5-2.19-1.02-4.41-1.16-6.64-.21-3.26-.15-6.54-.09-9.8,.02-1.06,.26-2.14,.59-3.16,1.32-4.07,5.66-3.33,7.26-1.19,.75,1,1.28,2.22,1.66,3.43,.37,1.2,.48,2.5,.6,3.77,.09,.88,.02,1.78,.02,2.67Z"/>
        <path class="cls-1" d="M737.61,26.28c-2.97,.02-4.63-2.62-3.69-5.3,1.07-3.04,3.26-5,6.32-5.71,5.44-1.27,10.93-1.44,16.36,.25,1.42,.45,3.09,.92,3.24,2.62,.15,1.7-1.72,2.15-2.83,2.64-2.41,1.06-4.97,1.93-7.56,2.41-3.58,.66-7.22,.95-10.49,2.77-.49,.27-1.13,.28-1.34,.33Z"/>
        <path class="cls-1" d="M641.85,50.02c-.75-1.53-1.45-2.49-1.71-3.57-.87-3.65-1.38-7.32-.43-11.08,.4-1.6,.29-3.34,.72-4.93,.59-2.2,2.07-3.21,3.78-2.97,1.65,.23,3,1.82,2.8,3.9-.33,3.3-.9,6.59-1.51,9.86-.34,1.82-.84,3.63-1.49,5.36-.39,1.05-1.2,1.96-2.15,3.44Z"/>
        <path class="cls-1" d="M720.45,37.73c-2.93,4.54-6.93,7.73-11.12,10.7-1.55,1.1-3.61,.73-4.52-.55-.91-1.28-.65-2.93,.93-4.14,4.1-3.15,8.77-5.18,13.7-6.63,.18-.05,.48,.28,1.01,.62Z"/>
        <path class="cls-5" d="M641.74,209.39c-2.29-.07-3.62-1.05-4.43-2.39-1.42-2.35-2.63-4.85-3.76-7.36-.34-.75-.44-1.87-.12-2.59,.35-.79,1.22-1.6,2.03-1.84,.67-.19,2.07,.22,2.31,.74,1.91,4.19,3.52,8.49,3.98,13.45Z"/>
        <path class="cls-1" d="M645.7,196.85c1.12-.11,2.18,.19,2.67,1.56,.92,2.57,1.95,5.11,2.73,7.72,.2,.69-.12,1.94-.65,2.32-.52,.38-1.63,.1-2.43-.1-.54-.13-1.14-.51-1.45-.96-1.37-2.03-2.83-4.03-3.91-6.21-1.19-2.41,.21-4.34,3.03-4.33Z"/>
        <path class="cls-9" d="M634.28,49.95c-.33-1.67-.94-3.34-.93-5,.03-4.24,.29-8.49,.56-12.73,.06-.95,.33-2.05,.91-2.76,.45-.54,1.53-.75,2.32-.73,.33,0,.91,1,.9,1.52-.05,1.47-.35,2.93-.56,4.39-.61,4.29-1.19,8.57-1.85,12.85-.13,.82-.53,1.61-.81,2.41l-.55,.04Z"/>
        <path class="cls-11" d="M791.37,200.47c-.15-2.91-.27-5.68-.45-8.45-.09-1.47-.37-2.92-.4-4.39-.02-.96,.22-1.94,.43-2.89,.27-1.27,.97-2.32,2.39-2.07,1.32,.24,1.83,1.36,1.82,2.69-.02,1.68,.12,3.37-.05,5.03-.25,2.43-.67,4.84-1.1,7.24-.26,1.47-1.26,2.33-2.64,2.83Z"/>
        <path class="cls-6" d="M785.39,29c0,2.13,.02,4.26,0,6.39,0,.8-.88,1.29-1.45,.76-1.94-1.79-3.22-4.01-3.55-6.62-.2-1.58,1.43-3.23,2.84-3.25,1.45-.02,2.44,1.08,2.17,2.72Z"/>
        <path class="cls-10" d="M632.62,94.01c-.09,.35-.6,.66-.98,.81-.13,.05-.64-.42-.7-.71-.58-2.75-1.72-5.44-.86-8.36,.36-1.2,.68-2.37,2.25-2.21,1.64,.17,1.64,1.44,1.63,2.66,0,.3,0,.59,0,.89"/>
      </g>
      <g>
        <path class="cls-1" d="M591.48,92.78c-1.11-1.76-2.01-3.65-2.94-5.52-1.44,.43-3.3-.03-4.04-1.76-3.08-7.22-4.13-14.9-3.15-22.67,.73-5.79,1.71-11.6,1.39-17.37-2.84-7.41-6.56-14.33-14.12-18.19-5.91-3.02-12.04-5.66-18.17-8.25-2.56-1.08-4.56-2.48-5.83-4.96-2.54-4.95-6.93-7.48-12.27-8.59-3.74-.77-7.49-1.66-11.28-2.05-5.65-.57-11.34-1.04-17.01-1-4.69,.04-9.36,.94-14.06,1.35-10.96,.96-21.32,3.43-29.85,10.86-1,.87-2.28,1.65-3.56,1.96-5.67,1.36-9.94,4.6-13.94,8.65-4.62,4.66-7.94,9.86-8.86,16.28-1.43,9.94-4.86,19.04-11.06,27.07-2.02,2.61-4.23,5.07-6.31,7.64-4.67,5.75-9.26,11.49-9.64,19.38-.18,3.81-1.01,7.59-1.61,11.37-.57,3.61-1.41,7.08-2.02,10.93,.99,.38,1.81,1.23,1.93,2.53,.43,4.79,.49,9.66,.76,14.5,.1,.14,.2,.29,.28,.47,3.56,7.31,5.69,14.81,5.16,22.97-.03,.52-.21,.99-.47,1.39,.31,1.38,.59,2.77,.82,4.16,.65,3.96,1.82,7.55,3.55,10.84,1.1-.23,2.33,.08,3.14,1.22,3.11,4.37,7.23,7.97,10.44,12.3,3.36,4.53,8.12,7.18,13.04,9.89,4.44,2.45,9.06,4.72,13.82,6.5,3.84,1.44,7.92,2.27,10.72,5.47,3.26,3.72,5.41,7.77,10.64,9.07,4.39,1.1,9.12,.44,13.61,.71,4.11,.25,8.64,.91,12.67-.17,3.96-1.06,7.41-3.54,11.37-4.7,3.46-1.01,7.05-1.13,10.63-1.23,.27-1.09,1.18-2.04,2.75-2.16,5.35-.4,10.37-3.02,15.81-2.21,2.61,.39,5.11,1.4,7.75,1.6,2.66,.21,5.4-.15,7.99-.74,2.41-.55,4.72-1.37,7.06-2.12,2.18-.69,4.58-1.15,6.51-2.44,3.5-2.33,4.69-6.83,7.97-9.48,.01-.01,.03-.02,.04-.03-.1-1.36,.05-2.74,.36-4.12-.17-.94,.04-1.97,.75-2.72,.79-2.45,1.8-4.87,2.35-7.12,.09-.37,.19-.72,.3-1.08,.09-1.26,.15-2.52,.3-3.78,.17-1.49,1.15-2.38,2.27-2.68,.3-.7,.6-1.41,.88-2.13,1.26-3.23,2.06-6.58,2.56-10,1.03-6.99,3.96-13.4,5.87-20.17,2.04-7.27,2.44-14.94,2.47-22.44,0-1.05,.47-1.8,1.15-2.26-1.28-8.67-3.97-17.05-8.95-24.99Zm-116.87,43.85c-.53,2.32-2.1,2.85-3.61,1.03-3.17-3.81-4.9-8.34-5.19-13.22-.13-2.12,1.19-3.92,3.63-4.19,2.46-.27,3.94,1.23,4.47,3.32,.7,2.77,1.02,5.64,1.46,8.27-.27,1.78-.42,3.31-.76,4.79Zm.69-40.19c-1.51,1.75-3.97,2.51-6.46,1.27-2.41-1.2-3.08-3.32-3.19-6.77,.63-1.24,1.26-3.63,2.76-5.22,3.45-3.66,7.26-7.14,12.37-8.41,1.67-.41,4.02-.16,5.33,.78,.73,.52,.55,3.47-.25,4.63-3.27,4.74-6.78,9.36-10.55,13.73Zm52.05,32.43c-.24,.74-.58,1.36-1.01,1.89-.35,1.7-1.25,3.25-2.5,4.67-5.41,6.15-11.81,10.55-20.48,10.24-2.23-.08-4.67-.85-6.56-2.02-2.89-1.8-6.43-2.74-8.44-5.84-.69-.42-1.37-.95-2.03-1.61-2.72-2.7-4.32-6.13-4.08-9.93,.32-5.14,1.61-10.21,.65-15.37-.2-1.07,.15-1.95,.75-2.58-1.01-.36-1.81-1.23-1.79-2.6,.05-4.28,2.55-9.36,5.31-12.63,2.81-3.33,6.93-4.6,11.06-5.57,7.83-1.83,18.01-2.81,23.86,3.82,2.23,2.53-.93,6.12-3.4,4.73,0,.04,0,.07,0,.11,.09,3.03,.45,5.97,1.07,8.85,.8,.06,1.56,.51,2.01,1.5,1.84,4.03,2.39,8.28,3.61,12.49,.9,3.09,3.01,6.52,1.96,9.83Zm25.49-77.96c-5.43-4.18-10.72-8.27-16.05-12.32-2.18-1.65-2.79-3.87-1.71-6.14,1.08-2.25,3.6-2.43,5.69-1.87,2.01,.53,4,1.56,5.67,2.8,3.97,2.95,7.06,6.63,8.57,11.41,.74,2.35,.38,4.34-2.18,6.12Zm24.76,84.31c-1.29,2.44-3.49,4.44-5.44,6.5-.34,.36-1.53,.32-2.09,.03-1.67-.87-2.4-4.93-1.55-7.77,.67-2.26,2.95-3.97,5.21-3.91,2.6,.06,5.06,2.9,3.87,5.15Zm.83-23.36c-3.19,.87-5.06-2.1-6.08-4.46-2.56-5.9-4.82-11.95-6.78-18.07-1.05-3.29,.97-7.05,3.44-7.83,3.1-.98,6.29,.36,7.62,4.21,2.15,6.23,3.65,12.68,5.43,19.03-.98,2.81-.41,6.23-3.62,7.11Z"/>
        <path class="cls-1" d="M582.05,104.75c-.98,2.81-.41,6.23-3.62,7.11-3.19,.87-5.06-2.1-6.08-4.46-2.56-5.9-4.82-11.95-6.78-18.07-1.05-3.29,.97-7.05,3.44-7.83,3.1-.98,6.29,.36,7.62,4.21,2.15,6.23,3.65,12.68,5.43,19.03Z"/>
        <path class="cls-1" d="M465.64,90.93c.63-1.24,1.26-3.63,2.76-5.22,3.45-3.66,7.26-7.14,12.37-8.41,1.67-.41,4.02-.16,5.33,.78,.73,.52,.55,3.47-.25,4.63-3.27,4.74-6.78,9.36-10.55,13.73-1.51,1.75-3.97,2.51-6.46,1.27-2.41-1.2-3.08-3.32-3.19-6.77Z"/>
        <path class="cls-1" d="M552.84,50.91c-5.43-4.18-10.72-8.27-16.05-12.32-2.18-1.65-2.79-3.87-1.71-6.14,1.08-2.25,3.6-2.43,5.69-1.87,2.01,.53,4,1.56,5.67,2.8,3.97,2.95,7.06,6.63,8.57,11.41,.74,2.35,.38,4.34-2.18,6.12Z"/>
        <path class="cls-1" d="M475.37,131.84c-.27,1.78-.42,3.31-.76,4.79-.53,2.32-2.1,2.85-3.61,1.03-3.17-3.81-4.9-8.34-5.19-13.22-.13-2.12,1.19-3.92,3.63-4.19,2.46-.27,3.94,1.23,4.47,3.32,.7,2.77,1.02,5.64,1.46,8.27Z"/>
        <path class="cls-1" d="M573.73,130.07c2.6,.06,5.06,2.9,3.87,5.15-1.29,2.44-3.49,4.44-5.44,6.5-.34,.36-1.53,.32-2.09,.03-1.67-.87-2.4-4.93-1.55-7.77,.67-2.26,2.95-3.97,5.21-3.91Z"/>
        <g>
          <path class="cls-1" d="M594.08,118.2c.42,3.53,.53,7.09,.7,9.57-.41,9.26-.52,17.48-3.16,25.34-2.02,6.02-4.18,12.02-6.67,17.87-2.35,5.54-4.32,11.15-5.48,17.02-.91,4.67-3.28,8.66-5.92,12.47-2.03,2.92-5.13,4.67-8.57,5.84-7.17,2.43-14.38,2.75-21.71,.7-5.07-1.42-10.23-2.01-15.43-.79-2.19,.52-4.3,1.34-6.44,2.04-10.59,3.46-21.34,5.95-32.61,5.69-6.37-.15-12.5-1.36-18.36-3.75-1.87-.76-3.65-1.88-5.28-3.09-4.08-3.04-8.26-5.89-13.08-7.71-6.5-2.45-11.78-6.33-15.92-11.9-1.88-2.52-4.45-4.6-6.91-6.64-3.25-2.7-6.18-5.67-8.54-9.12-1.01-1.49-1.9-3.19-2.32-4.91-.98-4.02-1.46-8.15-2.47-12.16-1.27-5.03-2.8-10-4.34-14.96-3.93-12.62-3.96-25.19,.21-37.75,.61-1.83,1.32-3.65,1.7-5.52,1.3-6.3,5.01-11.18,9.34-15.74,6.99-7.36,12.26-15.79,15.42-25.34,1.42-4.27,2.14-8.78,3.07-13.2,.68-3.27,1.98-6.23,4.07-8.85,2.3-2.89,4.64-5.73,6.9-8.64,1.01-1.31,2.31-2.08,3.9-2.39,3.16-.62,5.9-2.05,8.38-4.02,6.76-5.33,14.62-7.67,23.14-8.36,5.57-.44,11.13-1.12,16.7-1.61,1.76-.15,3.57-.25,5.3,.01,6.79,1.04,13.57,2.16,20.32,3.39,3.63,.67,6.58,2.53,8.36,5.82,1.94,3.59,4.98,5.7,8.78,7.26,6.16,2.52,12.18,5.37,18.15,8.29,1.7,.83,3.26,2.19,4.49,3.63,4.67,5.44,7.5,11.76,8.17,18.84,.27,2.93-.03,5.97-.53,8.89-1.23,7.26,.44,13.98,3.56,20.44,2.1,4.34,4.33,8.64,6.83,12.77,3.86,6.38,5.41,13.37,6.25,20.57Zm-62.15,10.33c1.96-9.1,.51-19.82-2.2-28.6-1.67-5.41-6.71-7.03-11-5.97-1.61-2.39-3.63-4.49-6.17-6.17-13.42-8.84-27.73,2.9-32.71,15.4-4.59,11.49-2.74,27.21,5.27,36.8,8.47,10.14,22.22,9.91,32.98,3.67,6.04-3.5,12.29-7.95,13.83-15.13Z"/>
          <path d="M405.67,139.87c-1.87-5.93-2.29-12.07-2.71-17.9,.18-6.41,1.24-12.35,2.76-18.24,.62-2.39,.88-4.91,.96-7.38,.13-4.22,.81-8.26,3.27-11.8,2.26-3.25,4.65-6.42,7.05-9.58,2.58-3.39,5.36-6.64,7.82-10.11,4.5-6.34,7.22-13.4,8.28-21.06,1.08-7.81,4.45-14.31,10.37-19.85,3.75-3.49,7.63-6.18,12.59-7.55,1.55-.43,3.07-1.35,4.31-2.38,7.32-6.07,15.86-9.05,25.27-10.02,6.44-.66,12.86-1.6,19.31-2.04,3.5-.24,7.08,.09,10.57,.54,5.54,.71,11.06,1.65,16.55,2.67,5.48,1.01,9.9,3.66,12.49,8.7,1.21,2.38,3.16,3.71,5.62,4.76,6.21,2.64,12.37,5.4,18.42,8.38,2.14,1.05,4.18,2.61,5.78,4.37,5.42,5.94,8.81,12.87,10.04,20.82,.48,3.12,.04,6.12-.5,9.16-.36,1.98-.63,3.98-.88,5.98-.64,5.03,.44,9.76,2.75,14.24,2.13,4.12,4.09,8.34,6.5,12.29,5.1,8.37,7.38,17.52,8.5,27.07,.97,8.38,.69,16.73-.72,25.01-.65,3.85-1.9,7.65-3.25,11.34-3.94,10.86-8.94,21.36-11.27,32.74-.76,3.72-2.37,7.1-4.17,10.44-3.4,6.3-8.61,10.27-15.54,12.38-7.72,2.35-15.41,2.69-23.24,.75-1.9-.47-3.87-.67-5.79-1.07-3.59-.73-6.99-.04-10.39,1.14-7.12,2.46-14.2,5.07-21.46,7.08-4.68,1.3-9.62,1.94-14.49,2.32-6.58,.53-12.89-1.06-18.87-3.74-3.26-1.46-5.95-3.67-8.08-6.55-.72-.98-1.69-1.92-2.76-2.49-3.61-1.93-7.18-4.08-11.02-5.42-7.44-2.61-13.61-6.71-18.53-12.77-1.83-2.24-4.13-4.11-6.2-6.16-1.99-1.99-4.01-3.96-5.95-6-4.14-4.38-6.32-9.61-7.26-15.48-.81-5.02-1.84-10.02-3.04-14.96-.79-3.27-2.08-6.41-3.09-9.63Zm189.11-12.1c-.17-2.48-.28-6.04-.7-9.57-.84-7.2-2.39-14.19-6.25-20.57-2.5-4.13-4.73-8.43-6.83-12.77-3.12-6.46-4.79-13.18-3.56-20.44,.5-2.92,.8-5.96,.53-8.89-.67-7.08-3.5-13.4-8.17-18.84-1.23-1.44-2.79-2.8-4.49-3.63-5.97-2.92-11.99-5.77-18.15-8.29-3.8-1.56-6.84-3.67-8.78-7.26-1.78-3.29-4.73-5.15-8.36-5.82-6.75-1.23-13.53-2.35-20.32-3.39-1.73-.26-3.54-.16-5.3-.01-5.57,.49-11.13,1.17-16.7,1.61-8.52,.69-16.38,3.03-23.14,8.36-2.48,1.97-5.22,3.4-8.38,4.02-1.59,.31-2.89,1.08-3.9,2.39-2.26,2.91-4.6,5.75-6.9,8.64-2.09,2.62-3.39,5.58-4.07,8.85-.93,4.42-1.65,8.93-3.07,13.2-3.16,9.55-8.43,17.98-15.42,25.34-4.33,4.56-8.04,9.44-9.34,15.74-.38,1.87-1.09,3.69-1.7,5.52-4.17,12.56-4.14,25.13-.21,37.75,1.54,4.96,3.07,9.93,4.34,14.96,1.01,4.01,1.49,8.14,2.47,12.16,.42,1.72,1.31,3.42,2.32,4.91,2.36,3.45,5.29,6.42,8.54,9.12,2.46,2.04,5.03,4.12,6.91,6.64,4.14,5.57,9.42,9.45,15.92,11.9,4.82,1.82,9,4.67,13.08,7.71,1.63,1.21,3.41,2.33,5.28,3.09,5.86,2.39,11.99,3.6,18.36,3.75,11.27,.26,22.02-2.23,32.61-5.69,2.14-.7,4.25-1.52,6.44-2.04,5.2-1.22,10.36-.63,15.43,.79,7.33,2.05,14.54,1.73,21.71-.7,3.44-1.17,6.54-2.92,8.57-5.84,2.64-3.81,5.01-7.8,5.92-12.47,1.16-5.87,3.13-11.48,5.48-17.02,2.49-5.85,4.65-11.85,6.67-17.87,2.64-7.86,2.75-16.08,3.16-25.34Z"/>
        </g>
        <path d="M514.7,83.24c5.6,.74,9.99,5.33,10.53,10.87,.18,1.82,.35,3.65,.35,5.47,0,3.84,.94,7.39,2.82,10.77,2.47,4.42,3.99,9.14,4.75,14.16,.85,5.67-.14,10.73-4.1,15.05-6.91,7.54-15.18,12.58-25.87,12.35-7.07-.15-12.62-3.19-15.78-9.7-.28-.58-.84-1.04-1.23-1.58-1.42-1.96-2.93-3.85-4.2-5.9-2.23-3.59-2.8-7.49-2.07-11.66,.31-1.76,.2-3.63,.03-5.43-.4-4.2-1.31-8.39-1.39-12.59-.2-11.39,7.7-20.28,19.15-21.98,.87-.13,1.75-.33,2.62-.36,1.67-.06,3.34-.02,5.01-.02m-4.39,5.81c-9.38,.15-16.98,7.59-16.93,16.8,.02,3.35,.61,6.68,.79,10.03,.15,2.77,.43,5.61-.03,8.31-.49,2.89-.38,5.53,.92,8.12,1.12,2.24,2.28,4.46,3.52,6.64,.35,.62,.97,1.19,1.61,1.56,2.18,1.28,4.37,2.56,6.66,3.63,1.47,.68,3.1,1.31,4.69,1.42,9.16,.62,15.89-3.82,21.61-10.25,2.39-2.68,2.87-5.76,2.4-9.16-.65-4.7-1.85-9.21-4.12-13.44-1.9-3.53-2.93-7.31-2.98-11.33-.02-1.63-.25-3.26-.41-4.88-.39-4-2.27-6.17-6.3-6.84-2.69-.45-5.45-.57-8.17-.84"/>
        <path d="M490.43,20.41c-.5,.32-1.01,.61-1.48,.96-4.59,3.3-9.29,6.41-14.75,8.19-1.18,.39-2.47,.58-3.72,.64-1.4,.07-2.43-.67-2.89-2.01-.46-1.36,.04-2.49,1.1-3.33,.67-.52,1.49-.98,2.31-1.19,5.95-1.53,11.91-3.01,17.88-4.45,.35-.09,.83,.29,1.24,.46l.3,.73Z"/>
        <path d="M456.04,44.38c0,1.03,.18,1.82-.03,2.51-1.44,4.78-2.95,9.55-4.46,14.31-.2,.64-.46,1.28-.84,1.83-.77,1.12-1.85,1.7-3.28,1.4-1.37-.29-2.38-1.38-2.45-2.88-.03-.84,.11-1.74,.43-2.52,2.08-5.15,5.05-9.77,9.01-13.73,.36-.36,.92-.53,1.61-.92Z"/>
        <path d="M588.75,138.17c-.74,2.61-1.24,5.32-2.29,7.8-1.64,3.88-3.65,7.62-5.51,11.41-.13,.26-.3,.49-.47,.73-1.38,1.91-3.04,2.58-4.41,1.8-1.29-.73-1.43-2.53-.08-4.63,3.6-5.59,7.3-11.13,10.98-16.67,.23-.35,.67-.57,1.01-.84l.77,.4Z"/>
        <path d="M477.17,31.67c-.21,.72-.26,1.18-.46,1.58-1.71,3.43-3.43,6.86-5.18,10.27-.3,.59-.63,1.35-1.16,1.59-.81,.37-1.84,.59-2.72,.47-1.06-.15-1.6-1.12-1.55-2.16,.04-.93,.13-1.95,.53-2.77,1.93-3.92,5.03-6.76,8.93-8.79,.37-.19,.88-.12,1.61-.2Z"/>
        <path d="M455.1,193.35c-.96,0-1.67,.15-2.28-.02-3.91-1.1-7.01-3.34-9.25-6.67-.37-.55-.67-1.19-.86-1.82-.41-1.39,.14-2.71,1.28-3.19,1.3-.55,2.31,0,3.07,1.01,.76,1,1.35,2.12,2.11,3.12,1.86,2.43,3.77,4.82,5.93,7.57Z"/>
        <path d="M562.44,193.68c-.82,.73-1.53,1.71-2.49,2.14-3.2,1.42-6.47,2.68-9.75,3.92-.7,.27-1.55,.24-2.33,.24-1.06,0-1.95-.34-2.17-1.51-.2-1.06,.2-1.94,1.16-2.43,.77-.39,1.63-.68,2.49-.82,3.47-.6,6.95-1.11,10.42-1.68,.73-.12,1.45-.34,2.17-.51l.5,.64Z"/>
        <path d="M422.23,130.51c-.74-.93-1.26-1.35-1.45-1.88-1.38-3.72-1.7-7.62-1.79-11.53-.01-.62,.21-1.43,.63-1.84,.57-.55,1.48-1.12,2.18-1.06,.7,.06,1.44,.81,1.95,1.43,.32,.39,.37,1.11,.3,1.65-.55,4.21-1.15,8.42-1.83,13.24Z"/>
        <path d="M431.34,159.78c-.8-.25-1.3-.27-1.62-.52-2.98-2.32-5-5.32-6.35-8.78-.1-.27-.19-.54-.23-.83-.24-1.59,.44-2.79,1.8-3.18,1.22-.35,2.33,.23,3.05,1.61,.22,.42,.37,.88,.5,1.34,.92,3.28,1.82,6.57,2.86,10.36Z"/>
      </g>
    </g>
  </g>
</svg>