<?xml version="1.0" encoding="UTF-8"?>
<svg xmlns="http://www.w3.org/2000/svg" viewBox="0 0 420.43 420.43">
  <defs>
    <style>
      .cls-1 {
        fill: #fff;
      }

      .cls-2 {
        fill: #07bff9;
        stroke: #1d1d1b;
        stroke-miterlimit: 10;
        stroke-width: 10px;
      }

      .cls-3 {
        fill: #0475ec;
      }

      .cls-4 {
        fill: #0cbefb;
      }
    </style>
  </defs>
  <g id="_лой_1" data-name="Слой 1"/>
  <g id="_лой_2" data-name="Слой 2">
    <g id="_вит" data-name="твит">
      <g id="_лой_4" data-name="Слой 4">
        <rect class="cls-2" x="5" y="5" width="410.43" height="410.43" rx="32.75" ry="32.75"/>
      </g>
      <g>
        <path class="cls-1" d="M122.54,246.67c-4.96-4.29-10-8.51-14.81-12.96-.85-.78-1.07-2.63-.91-3.91,.06-.46,2.08-.99,3.2-.96,5.42,.15,10.7-.18,15.47-3.16,2.73-3.64,6.26-1.66,9.55-1.34,18.96,1.85,37.67,1.01,51.3-3.55-26.55,7.43-56.29,6.9-83.16-14.08l.06-.03c-.65-1.16-2.18-.76-2.96-1.68-2.41-2.69-5.46-5.04-7.11-8.13-3.38-6.39-6.39-13.04-8.83-19.84-1.77-4.92,1.24-7.51,6.25-5.77,3.88,1.35,7.55,3.29,11.36,4.83,1.98,.8,4.15,1.82,5.77-.73,3.01-3.46,5.96-1.21,8.55,.41,13.85,8.63,29.26,12.95,44.98,16.28,11.33,2.4,22.81,.91,31.02,.44-8.75,.39-20.66,1.65-32.63-.67-24.13-4.67-43.06-17.66-58.87-35.84-3.69-4.24-4.05-9.94-6.09-14.91-.58-1.84-1.57-3.67-1.65-5.53-.23-5.18-.18-10.39-.01-15.58,.04-1.28,.58-3.18,1.49-3.64,1.37-.71,3.05-.64,4.43,1.2,7.39,9.89,17.87,15.93,28.48,21.48,9.29,4.86,18.94,9.15,28.75,12.84,10.95,4.12,22.26,7.05,34.16,7.29,4.03,.08,7.78,1.07,12.1,.18,6.91-1.42,9.07-6.07,10.64-11.55,1-3.48,.88-7.28,1.77-10.8,3.04-11.96,9.15-22.3,18.73-30,9.08-7.29,19.9-9.01,31.31-6.73,9.11,1.82,16.54,7,24.02,12.04,2.02,1.36,3.88,2.97,5.92,4.31,3.44,2.28,6.99,3.31,11.09,1.32,2.15-1.04,4.64-1.56,7.03-1.83,1.24-.14,3.24,.39,3.75,1.28,.59,1.04,.28,2.95-.29,4.19-.58,1.27-1.93,2.21-2.97,3.27-1.9,1.94-3.88,3.82-5.72,5.82-1.37,1.48-.94,2.69,.95,3.25,1.85,.54,3.72,1.13,5.62,1.32,2.2,.23,4.46-.06,6.67,.12,1.11,.09,3.07,.66,3.1,1.11,.08,1.3-.23,3.05-1.09,3.9-2.05,2.01-4.3,4.07-6.87,5.21-2.45,1.1-3.47,2.44-3.45,4.95,.03,3.46,.08,6.93-.01,10.39-.49,18.21-4.43,35.67-10.81,52.73-6.48,17.33-15.52,33.27-27.13,47.4-8.7,10.6-18.53,20.52-29.94,28.47-6.8,4.73-13.61,9.6-20.97,13.3-10.87,5.46-22.34,9.42-34.28,12.27-14.6,3.48-29.31,3.14-43.99,2.61-9.43-.34-18.74-2.65-27.75-5.84-8.08-2.86-15.87-6.27-23.09-10.92-1.84-1.18-3.84-2.3-5.27-3.89-1.86-2.07-.69-5.15,2.07-5.71,2.15-.43,4.52,.02,6.59-.6,13.56-4.05,26.82-8.85,38.54-17.06,1.92-1.35,3.49-3.19,5.22-4.81,14.67-8.18,31.62-11.39,42.64-19.19-16.28,13.26-36.04,7.98-55.8-.52-2.03-.87-4.14-1.51-6.13-2.46Z"/>
        <path d="M94.7,141.07c.84,.88,1.98,1.63,2.47,2.67,6.11,13.02,17,21.7,28.13,29.77,11.03,7.99,23.68,12.73,37.21,15.34,11.32,2.18,22.62,1.01,33.92,1.17,3.31,.05,6.64-1.54,9.98-2.27,.58-.13,1.68,.17,1.84,.56,.21,.52-.08,1.73-.49,1.92-3.32,1.53-6.59,3.62-10.1,4.19-19.93,3.23-39.6,2.51-58.85-4.38-9.77-3.5-19.37-7.18-27.74-13.53-.9-.68-2.23-.78-3.36-1.15l.08,.06c-.42-.62-1-1.09-1.57-1.56l.08,.08c-.46-.58-.98-1.1-1.57-1.57l.06,.08c-.81-.85-.56-2.26-1.56-3.01-7.32-8.11-8.72-18-8.56-28.36Z"/>
        <path d="M103.17,206.71c1.84,.57,3.76,.97,5.52,1.74,3.83,1.69,7.51,3.73,11.37,5.35,5.87,2.48,11.91,4.16,18.29,5.24,17.92,3.05,35.57,4.01,53.03-2.34,3.19-1.16,6.57-1.78,9.87-2.61,.16-.04,.41,.24,.61,.37-8.65,10.84-53.72,19.48-76.37,11.22-5.25-3.87-10.43-7.84-15.79-11.56-2.84-1.97-5.85-3.62-6.52-7.41Z"/>
        <path d="M122.54,246.67c5.97,1.22,11.93,2.49,17.91,3.65,6.48,1.26,12.93,3.01,19.47,3.5,9.93,.75,18.68-3.31,26.95-8.43,2.92-1.81,5.8-3.7,8.76-5.46,.5-.3,1.31-.09,1.98-.11-.1,.85,.12,2-.35,2.5-2.19,2.34-4.23,5.1-6.94,6.62-10.06,5.64-19.53,12.46-30.61,16.16-5.8,1.94-11.57,4.21-17.88,3.74,.74-.98,1.62-1.88,2.18-2.95,1.66-3.17,1.19-4.61-1.85-6.56-6.55-4.21-13.08-8.44-19.63-12.67Z"/>
        <path class="cls-4" d="M103.26,169.44l1.56,3.01-1.56-3.01Z"/>
        <path class="cls-3" d="M100.27,204.99l2.96,1.68-2.96-1.68Z"/>
        <path class="cls-4" d="M104.75,172.37l1.57,1.57c-.52-.52-1.04-1.04-1.57-1.57Z"/>
        <path class="cls-4" d="M106.24,173.85l1.57,1.56-1.57-1.56Z"/>
        <path d="M118.01,225.87c-21.52-14.69-35.54-33.28-37.05-60.55,8.38-.96,13.13,6.6,19.97,6.63-2.43-8.04-5.67-15.93-7.05-24.13-1.62-9.65-1.65-19.58-2.31-29.39-.07-.96,0-2.07,.43-2.91,1.15-2.28,2.53-4.45,3.81-6.66,2,1.54,4.7,2.67,5.88,4.69,4.98,8.45,12.86,13.83,20.76,18.57,16.95,10.18,34.94,18.35,54.69,21.6,7.52,1.24,15.18,1.98,22.79,2.2,8.16,.23,9.6-1.71,10.3-9.87,1.69-19.55,11.11-34.52,27.64-44.84,11.57-7.22,24-6.8,36.23-1.95,10.15,4.03,19.39,9.76,27.96,18.69,4.64-2.57,9.56-5.1,14.26-8,2.5-1.54,4.45-3.97,6.95-5.52,2.11-1.31,5.41-3.34,6.85-2.57,3.53,1.9,2.22,5.77,.63,8.49-4.3,7.36-9.01,14.48-13.53,21.66,6.86,2.41,14.24-5.4,23.56-1.37-6.45,5.73-11.62,10.6-17.11,15.1-4.3,3.53-5.77,7.29-5.75,13.23,.1,27.08-6.77,52.66-19.74,76.4-23.06,42.2-56.82,71.68-103.76,84.36-39.05,10.55-75.69,4.26-109.41-18.25-3.23-2.16-7.13-4.18-4.57-9.7,22.88-4.09,45.44-9.63,63.61-26.82-9.24-6.18-18.18-11.74-26.64-17.96-4.93-3.62-9.41-8.01-13.42-12.64-1.6-1.85-1.38-5.28-1.99-7.99,2.49-.34,4.97-.89,7.47-.96,2.83-.08,5.67,.28,8.51,.45Zm-19.78-104.75l-1.93,.22c.37,7.28,.4,14.59,1.2,21.82,1.3,11.83,4.02,23.2,13.1,31.95,.9,.87,1.8,3.06,1.35,3.7-.82,1.19-2.58,2.16-4.07,2.36-1.6,.21-3.42-.33-4.98-.96-5.14-2.08-10.21-4.36-16.31-6.99,4.82,14.23,9.72,27.47,21.62,36.63,5.28,4.06,10.86,7.71,16.26,11.61,2.58,1.86,5.64,3.56,3.45,8.94-5.14,.85-10.97,1.81-18.02,2.97,2.84,2.5,5.2,5.01,7.96,6.93,8.7,6.05,17.51,11.95,26.38,17.77,6.17,4.04,7.1,6.78,2.3,12.35-3.47,4.03-7.57,8.1-12.26,10.38-11.89,5.76-23.57,12.4-37.15,13.75-1.47,.15-2.87,1.01-5.07,1.82,30.94,20.91,63.67,25.85,98.49,17.75,35.28-8.21,63.53-27.73,85.64-56.07,20.01-25.64,32.04-54.7,35.08-87.25,.75-8.07,1.41-16.15,2.05-23.61,2.95-2.2,5.56-4.16,9.47-7.07-7.36-.81-13.42-.41-18.65-5.96,4.17-4.87,8.27-9.67,12.37-14.46-1.46-.4-2.36-.17-3.15,.26-8.62,4.74-16.13,3.32-23.73-2.89-5.29-4.32-11.49-7.71-17.69-10.68-11.95-5.73-23.63-4.52-34.04,3.73-4.19,3.32-7.81,7.55-11.06,11.84-6.61,8.7-8.68,19.14-10.55,29.65-1.39,7.85-5.75,11.82-13.73,11.72-8.6-.12-17.38-.37-25.75-2.15-29.67-6.34-56.58-18.45-78.58-40.03Z"/>
      </g>
    </g>
  </g>
</svg>