<?xml version="1.0" encoding="UTF-8"?>
<svg xmlns="http://www.w3.org/2000/svg" viewBox="0 0 420.43 420.43">
  <defs>
    <style>
      .cls-1 {
        fill: #fff;
      }

      .cls-2 {
        fill: #07bff9;
        stroke: #1d1d1b;
        stroke-miterlimit: 10;
        stroke-width: 10px;
      }
    </style>
  </defs>
  <g id="_лой_1" data-name="Слой 1"/>
  <g id="_лой_2" data-name="Слой 2">
    <g id="_вит" data-name="твит">
      <g id="_лой_4" data-name="Слой 4">
        <rect class="cls-2" x="5" y="5" width="410.43" height="410.43" rx="32.75" ry="32.75"/>
      </g>
    </g>
    <g id="_рестик" data-name="крестик">
      <g>
        <path d="M206.13,249.22c-.16,.22-.25,.36-.36,.49-2.12,2.56-4.24,5.12-6.36,7.67-.88,1.05-1.76,2.1-2.68,3.12-2.99,3.3-5.64,6.87-8.2,10.51-.72,1.02-1.44,2.04-2.13,3.07-2.99,4.49-6.55,8.48-10.68,11.95-1.78,1.5-3.59,2.96-5.45,4.36-4.71,3.52-8.99,7.5-12.97,11.82-2.56,2.78-4.98,5.68-7.21,8.74-1.27,1.75-2.62,3.43-3.97,5.12-1.17,1.47-2.55,2.73-4.04,3.87-5.24,4.01-11.14,6.56-17.6,7.83-4,.79-8.05,1.23-12.12,1.36-4.1,.13-8.12-.3-11.98-1.85-1.69-.68-3.17-1.61-4.39-2.97-1.44-1.62-2.72-3.36-3.85-5.2-.81-1.33-1.34-2.76-1.59-4.29-.27-1.64-.48-3.29-.47-4.96,0-.36-.03-.76-.18-1.09-.77-1.69-.82-3.45-.68-5.25,.14-1.87,.54-3.69,1.05-5.5,1.28-4.52,3.39-8.64,5.88-12.6,2.47-3.93,5.5-7.39,8.91-10.53,4.68-4.3,9.43-8.53,14.43-12.46,3.3-2.59,6.6-5.19,9.86-7.82,8.61-6.94,16.85-14.3,24.55-22.25,5.12-5.29,9.98-10.79,14.55-16.57,.67-.85,1.33-1.7,2.05-2.51,.45-.51,.52-1.02,.25-1.6-.24-.53-.47-1.07-.79-1.55-.73-1.11-1.48-2.21-2.27-3.28-2.61-3.51-5.51-6.76-8.64-9.81-2.36-2.28-4.71-4.57-7.36-6.53-1.47-1.08-2.99-2.1-4.49-3.15-1.57-1.09-3.17-2.14-4.7-3.28-1.88-1.4-3.48-3.09-4.84-4.99-1.3-1.83-2.53-3.7-3.8-5.55-1.2-1.75-2.4-3.49-3.61-5.23-3.13-4.5-6.96-8.35-11.08-11.94-3.76-3.28-7.49-6.58-11.21-9.9-5.76-5.15-10.77-10.96-14.99-17.43-2.72-4.16-4.54-8.66-5.28-13.6-.5-3.37-.48-6.7,.34-10.02,1.1-4.45,3.36-8.2,6.76-11.26,.99-.89,2.05-1.69,3.13-2.46,2.76-1.97,5.86-3.13,9.22-3.53,2.68-.32,5.37-.54,8.07-.7,2.71-.16,5.39,.19,8.05,.73,2.05,.42,3.94,1.27,5.78,2.27,4.19,2.28,7.92,5.18,11.47,8.33,2.17,1.93,4.34,3.88,6.5,5.82,1.8,1.61,3.44,3.37,4.97,5.24,2.69,3.28,5.31,6.6,8.03,9.85,3.39,4.04,6.83,8.04,10.28,12.03,2.45,2.82,4.97,5.59,7.44,8.39,2.79,3.15,5.76,6.1,9.16,8.59,3.9,2.86,7.45,6.1,10.82,9.56,2.14,2.2,4.46,4.23,6.7,6.34,.64,.6,1.29,1.18,1.9,1.8,.34,.34,.68,.55,1.18,.59,.7,.05,1.4,.18,2.09,.33,1.39,.29,2.71,.17,4.01-.45,2.69-1.28,5.14-2.9,7.24-5.01,2.26-2.27,4.33-4.7,6.38-7.16,3.59-4.31,7.1-8.7,10.91-12.8,7.21-7.76,14.72-15.24,22.78-22.13,5.21-4.45,10.45-8.87,15.71-13.26,2.94-2.45,5.79-4.98,8.52-7.66,2.86-2.8,5.96-5.3,9.42-7.32,2.89-1.69,5.97-2.9,9.29-3.45,2.56-.43,5.05-.21,7.49,.65,1.7,.6,3.33,1.35,4.73,2.48,3.13,2.53,6.38,4.93,9.35,7.66,1.01,.93,1.99,1.89,2.95,2.87,2.33,2.38,3.82,5.23,4.43,8.49,.39,2.1,.24,4.22,.02,6.34-.3,2.89-1.27,5.58-2.51,8.18-1.09,2.29-2.32,4.5-4.01,6.42-.6,.68-1.08,1.47-1.61,2.21-2.16,3.05-4.4,6.05-6.9,8.84-2.22,2.47-4.46,4.93-6.61,7.46-6.79,8.01-14.24,15.35-22.27,22.1-4.01,3.37-8.09,6.65-12.15,9.94-3.94,3.19-7.77,6.5-11.45,10-3.7,3.52-6.78,7.52-9.41,11.88-.3,.5-.55,1.04-.91,1.49-1.02,1.25-1.08,2.75-1.12,4.24-.01,.51,.2,1.06,.4,1.55,.89,2.18,2.23,4.09,3.91,5.73,3.62,3.54,7.27,7.06,11.25,10.22,2.02,1.6,4.02,3.22,6.02,4.84,3.14,2.54,5.99,5.37,8.52,8.54,2.33,2.92,4.76,5.76,7.21,8.59,1.82,2.11,3.84,4.04,5.98,5.81,3.86,3.18,7.41,6.67,10.55,10.56,.86,1.07,1.81,2.06,2.65,3.15,1.24,1.61,2.5,3.22,3.61,4.92,2.04,3.16,4.36,6.07,7.08,8.66,.45,.43,.88,.88,1.32,1.32,5.88,5.88,9.21,13.02,10.51,21.17,.31,1.94,.23,3.89,0,5.84-.1,.78-.2,1.57-.33,2.34-.72,4.33-2.85,7.88-6.15,10.67-3.08,2.6-6.43,4.87-9.95,6.84-2.67,1.5-5.61,2.24-8.64,2.65-2.13,.28-4.23,.32-6.3-.26-1.04-.29-2.08-.61-3.05-1.06-1.81-.83-3.59-1.74-5.34-2.68-1.76-.95-3.36-2.14-4.92-3.38-3.51-2.8-7.03-5.58-10.54-8.37-5.12-4.07-9.92-8.46-14.31-13.31-2.03-2.24-3.55-4.81-4.87-7.5-.82-1.69-1.74-3.31-2.85-4.82-.68-.94-1.39-1.88-2.21-2.69-1.57-1.54-3.17-3.07-4.88-4.44-5.3-4.24-10.18-8.93-14.86-13.83-1.95-2.04-3.74-4.23-5.54-6.41-1.6-1.93-3.37-3.66-5.34-5.22-1.63-1.29-3.27-2.56-4.86-3.9-1.11-.94-2.14-1.97-3.19-2.97-.3-.28-.58-.59-.86-.9-.62-.68-1.37-1.05-2.3-1.08-.54-.01-1.08-.1-1.62-.12-1.25-.05-2.49-.12-3.81-.61Z"/>
        <path class="cls-1" d="M115.7,93.3c1.8,.04,3.58,.21,5.34,.49,1.74,.27,3.37,.87,4.91,1.74,2.72,1.53,5.35,3.19,7.72,5.23,1.48,1.27,2.96,2.55,4.42,3.84,1.31,1.15,2.59,2.34,3.9,3.49,1.92,1.67,3.71,3.45,5.32,5.42,2.74,3.34,5.43,6.72,8.19,10.04,2.71,3.26,5.45,6.49,8.23,9.69,3.36,3.85,6.78,7.65,10.16,11.47,2.87,3.24,6.02,6.19,9.49,8.79,2.43,1.82,4.83,3.67,6.99,5.82,1.21,1.2,2.37,2.45,3.6,3.62,2.1,2.01,4.22,4,6.37,5.96,1.45,1.33,3.09,2.34,4.92,3.12,1.43,.61,2.86,1.09,4.39,1.32,1.51,.22,2.99,.15,4.43-.35,1.02-.35,2.04-.74,2.99-1.23,2.82-1.45,5.47-3.18,7.68-5.47,2.1-2.18,4.13-4.44,6.1-6.74,3.4-3.97,6.73-8.01,10.11-12.01,.72-.86,1.49-1.68,2.26-2.49,9.28-9.77,19.05-19.02,29.47-27.56,3.66-3,7.3-6.04,10.89-9.12,1.92-1.65,3.73-3.43,5.57-5.17,2.26-2.15,4.63-4.17,7.27-5.85,2.29-1.46,4.71-2.62,7.39-3.21,3.62-.81,6.92-.2,9.87,2.12,2.09,1.65,4.2,3.26,6.27,4.93,2.01,1.63,3.72,3.56,5.28,5.62,1.19,1.57,1.79,3.37,1.89,5.32,.14,2.72-.15,5.4-1.19,7.95-.44,1.08-.91,2.14-1.43,3.18-.71,1.41-1.56,2.75-2.2,4.19-.65,1.48-2.05,2.26-2.96,3.49-1.03,1.4-2.12,2.77-3.21,4.13-.97,1.19-1.97,2.36-2.98,3.52-2.22,2.53-4.49,5.01-6.67,7.57-6.9,8.14-14.55,15.51-22.74,22.33-4.34,3.61-8.76,7.13-13.14,10.71-3.77,3.08-7.38,6.32-10.82,9.76-3.94,3.94-7.12,8.44-9.85,13.26-.24,.43-.52,.85-.82,1.25-.4,.55-.65,1.15-.74,1.83-.14,1.03-.28,2.06-.41,3.09-.2,1.61,.16,3.14,.78,4.61,1.17,2.79,2.78,5.3,4.92,7.44,2.82,2.82,5.66,5.63,8.73,8.18,2.97,2.47,5.96,4.92,8.97,7.34,3.12,2.51,5.96,5.28,8.41,8.47,1.62,2.11,3.36,4.12,5.07,6.16,3.29,3.94,7.11,7.34,11.12,10.51,2.39,1.89,4.59,3.95,6.61,6.22,2.54,2.86,4.97,5.8,7.2,8.91,1.09,1.52,2.24,3,3.36,4.49,1.22,1.63,2.58,3.15,4.11,4.5,5.26,4.65,8.39,10.55,10.03,17.29,.72,2.95,.65,5.94,.05,8.9-.5,2.47-1.8,4.54-3.53,6.34-1.41,1.47-2.98,2.77-4.71,3.87-1.51,.96-3.01,1.92-4.5,2.9-2.24,1.48-4.71,2.23-7.36,2.49-1.49,.15-2.97,.31-4.45-.15-1.75-.54-3.44-1.22-5.04-2.13-2.6-1.49-5.04-3.2-7.36-5.11-3.08-2.53-6.26-4.94-9.38-7.43-4.72-3.76-9.16-7.82-13.2-12.31-1.03-1.15-1.97-2.36-2.7-3.72-.73-1.35-1.44-2.72-2.14-4.08-.84-1.64-1.83-3.16-3.13-4.48-.41-.41-.8-.85-1.17-1.3-1.88-2.3-4.1-4.23-6.44-6.04-.1-.08-.2-.15-.3-.23-4.98-3.65-9.39-7.93-13.58-12.44-1.13-1.21-2.19-2.5-3.19-3.82-2.26-3.01-4.87-5.67-7.82-7.99-1.7-1.34-3.45-2.6-5.15-3.93-.88-.69-1.71-1.44-2.54-2.2-.86-.79-1.64-1.65-2.52-2.41-.69-.6-1.43-1.13-2.2-1.63-2.18-1.41-4.56-1.68-7.06-1.1-1.24,.29-2.32,.87-3.22,1.79-.37,.38-.78,.75-1.22,1.05-3.23,2.21-6.26,4.67-9.13,7.33-1.52,1.41-2.89,2.98-4.23,4.56-2.88,3.39-5.5,6.99-7.93,10.71-3.8,5.82-8.59,10.67-14.14,14.78-5.12,3.8-9.88,7.99-14.23,12.65-2.81,3.01-5.51,6.11-7.92,9.45-.9,1.24-1.88,2.44-2.77,3.69-2.6,3.65-6.1,6.2-10.04,8.2-3.2,1.62-6.59,2.73-10.13,3.36-4.47,.79-8.95,1.29-13.51,1.14-2.49-.08-4.85-.64-7.15-1.54-.71-.28-1.32-.7-1.83-1.26-1.26-1.39-2.35-2.9-3.32-4.51-.62-1.03-.78-2.18-.93-3.33-.11-.82-.17-1.65-.28-2.48-.08-.58-.13-1.17-.31-1.71-.79-2.42-.59-4.84-.03-7.25,1.01-4.38,2.96-8.36,5.32-12.16,1.83-2.94,3.96-5.64,6.44-8.06,3.88-3.76,7.89-7.38,12.07-10.8,4.76-3.89,9.62-7.66,14.4-11.52,8.67-7.01,16.93-14.45,24.67-22.48,5.22-5.42,10.19-11.06,14.85-16.97,.59-.75,1.21-1.48,1.79-2.24,.38-.5,.75-1.01,1.03-1.56,.24-.47,.47-1,.5-1.52,.13-2.14,0-4.24-1.24-6.11-.92-1.38-1.79-2.8-2.79-4.13-5.09-6.78-10.98-12.79-17.67-18-1.34-1.04-2.77-1.97-4.18-2.93-1.33-.92-2.71-1.78-4.02-2.72-1.84-1.32-3.39-2.94-4.68-4.79-.95-1.36-1.86-2.75-2.8-4.12-1.67-2.43-3.34-4.86-5.05-7.26-2.71-3.81-5.94-7.16-9.42-10.26-4.38-3.89-8.78-7.76-13.14-11.66-5.32-4.77-9.91-10.16-13.81-16.15-2.25-3.46-3.76-7.21-4.32-11.31-.44-3.22-.32-6.38,.86-9.45,.64-1.68,1.53-3.23,2.69-4.61,1.71-2.03,3.76-3.63,6.1-4.87,1.56-.82,3.26-1.27,5-1.46,2.52-.28,5.04-.47,7.56-.69Z"/>
        <path d="M307.55,102.19c-.64-.12-1.45-.25-2.25-.45-.86-.21-1.69-.31-2.57-.1-1.16,.28-2.35,.48-3.52,.72-.41,.08-.81,.19-1.22,.22-1.05,.09-1.76-.55-1.75-1.61,0-.32,.08-.66,.18-.97,.22-.69,.63-1.26,1.16-1.74,1.15-1.04,2.44-1.87,3.93-2.32,2.7-.81,5.16-.28,7.37,1.43,.84,.64,1.46,1.46,1.71,2.52,.25,1.06,0,1.53-1.03,1.91-.31,.11-.64,.18-.96,.25-.28,.06-.57,.07-1.05,.13Z"/>
        <path d="M272.24,245.37c.03-1.31,.75-2.06,1.8-2.14,.6-.05,1.18,.08,1.67,.4,.66,.42,1.36,.84,1.87,1.41,2.33,2.59,4.63,5.21,6.48,8.18,.59,.95,1.06,1.97,1.57,2.96,.15,.29,.27,.61,.34,.93,.04,.18,.04,.43-.06,.58-.16,.26-.45,.15-.68,.06-.38-.16-.76-.33-1.12-.53-1.42-.79-2.77-1.7-3.94-2.81-2.14-2.02-4.22-4.1-6.29-6.19-.49-.49-.89-1.1-1.24-1.7-.24-.42-.33-.92-.4-1.14Z"/>
        <path d="M315.48,129.64c-.22-.52,0-.89,.14-1.27,.83-2.21,1.67-4.42,2.49-6.63,.68-1.82,1.33-3.66,2.01-5.48,.2-.54,.38-1.1,.67-1.6,.93-1.59,2.81-1.66,3.89-.17,.53,.74,.74,1.59,.62,2.48-.09,.69-.25,1.4-.53,2.03-1.18,2.67-2.64,5.17-4.58,7.36-.99,1.13-2.11,2.11-3.4,2.88-.38,.23-.75,.54-1.31,.4Z"/>
        <path d="M117.37,95.05c2.16,.03,4.2,.48,6.07,1.58,.65,.38,1.27,.8,1.7,1.43,.97,1.42,1.12,3.09-1.49,3.39-.69,.08-1.41,.02-2.1-.09-1.06-.17-2.11-.43-3.16-.66-1.3-.28-2.61-.43-3.95-.39-.65,.02-1.34-.03-1.96-.23-1.58-.51-1.98-2.18-.8-3.35,.43-.42,.99-.77,1.55-1,1.32-.54,2.71-.75,4.14-.68Z"/>
        <path d="M267.01,236.34c-.5,.06-.76,.15-.96,.09-1.03-.3-2.08-.57-3.07-.98-.95-.4-1.84-.95-2.73-1.47-1.33-.77-2.63-1.58-3.96-2.34-1.21-.69-2.14-1.69-3.06-2.7-.16-.18-.29-.41-.39-.63-.63-1.41,.39-2.88,1.94-2.75,.44,.04,.9,.2,1.28,.42,1.32,.78,2.62,1.58,3.65,2.76,.6,.68,1.28,1.3,1.97,1.89,1.64,1.41,3.08,3.01,4.51,4.62,.24,.27,.44,.58,.81,1.08Z"/>
        <path d="M143.35,117.9c-.39-.22-.68-.35-.94-.54-2.06-1.47-4.03-3.08-5.86-4.83-.84-.81-1.65-1.64-2.46-2.47-.53-.54-.97-1.13-1.22-1.86-.28-.82-.15-1.57,.48-2.18,.58-.56,1.29-.71,2.08-.47,.92,.28,1.6,.89,2.14,1.63,1.01,1.37,2.01,2.75,2.96,4.16,1.04,1.56,1.89,3.23,2.59,4.96,.18,.44,.48,.88,.22,1.6Z"/>
        <path d="M168.86,278.03c-.56,.02-.8-.27-.61-.77,.15-.38,.31-.79,.57-1.1,.63-.77,1.25-1.56,1.98-2.23,2.21-2.02,4.46-3.99,6.7-5.96,.28-.24,.59-.47,.92-.62,.5-.22,.96,.08,.96,.61,0,.36-.07,.74-.19,1.09-.81,2.43-2.13,4.49-4.28,5.97-.99,.68-1.97,1.39-3,2.01-.93,.56-1.96,.89-3.06,1Z"/>
        <path d="M189.94,252.33c.12-.35,.19-.67,.34-.95,1.17-2.17,2.58-4.17,4.36-5.88,.42-.4,.88-.77,1.38-1.06,.77-.44,1.6-.45,2.38,0,1.06,.61,1.39,1.97,.72,3.03-.26,.41-.64,.77-1.03,1.06-.6,.44-1.25,.83-1.91,1.17-1.66,.86-3.34,1.68-5.02,2.5-.32,.15-.64,.42-1.22,.12Z"/>
        <path d="M165.37,140.08c-.3-.03-.48,0-.6-.07-.43-.24-.87-.49-1.26-.79-1.72-1.32-3.28-2.8-4.6-4.53-.23-.29-.45-.61-.6-.94-.13-.29-.22-.64-.21-.95,.02-.75,.7-1.21,1.4-.93,.33,.13,.65,.38,.89,.65,1.92,2.14,3.49,4.54,4.87,7.06,.06,.1,.06,.24,.12,.52Z"/>
        <path d="M303.62,275.78c-.14,0-.31,.07-.43,.02-.38-.16-.77-.33-1.1-.57-1.39-.99-2.65-2.13-3.8-3.4-.27-.3-.51-.67-.65-1.04-.27-.72,.34-1.36,1.09-1.16,.31,.08,.61,.27,.85,.49,.46,.42,.91,.86,1.28,1.36,.95,1.31,1.85,2.65,2.77,3.99,.04,.05,0,.16,0,.31Z"/>
      </g>
    </g>
  </g>
</svg>