<?xml version="1.0" encoding="UTF-8"?>
<svg xmlns="http://www.w3.org/2000/svg" viewBox="0 0 420.43 420.43">
  <defs>
    <style>
      .cls-1 {
        fill: #fff;
      }

      .cls-2 {
        fill: #07bff9;
        stroke: #1d1d1b;
        stroke-miterlimit: 10;
        stroke-width: 10px;
      }
    </style>
  </defs>
  <g id="_лой_1" data-name="Слой 1"/>
  <g id="_лой_2" data-name="Слой 2">
    <g id="_вит" data-name="твит">
      <g id="_лой_4" data-name="Слой 4">
        <rect class="cls-2" x="5" y="5" width="410.43" height="410.43" rx="32.75" ry="32.75"/>
      </g>
    </g>
    <g id="_лой_5" data-name="Слой 5">
      <g>
        <path d="M163,118.39c1.05,.43,2.21,.5,3.33,.69,4.04,.68,8.11,.91,12.2,.98,4.09,.07,8.17,.16,12.25-.1,3.07-.19,6.13-.46,9.2-.72,2.54-.21,5.08-.42,7.61-.68,3.2-.32,6.4-.7,9.6-1.03,2.39-.25,4.78-.53,7.17-.7,5.42-.39,10.83-.75,16.26-1.09,4.56-.28,9.13-.35,13.68,.13,1.91,.2,3.83,.36,5.73,.58,1.92,.22,3.79,.71,5.59,1.37,2.9,1.06,5.88,1.78,8.89,2.43,3.52,.76,7.03,1.6,10.53,2.46,3.89,.96,7.58,2.47,11.11,4.36,.8,.43,1.64,.8,2.48,1.15,1.6,.67,3.17,1.4,4.56,2.44,1.31,.98,2.75,1.78,3.9,2.96,.23,.24,.54,.39,.83,.57,3.09,1.94,6.23,3.82,9.28,5.83,3.48,2.3,6.45,5.18,8.84,8.6,1.52,2.16,2.92,4.41,4.31,6.65,1.68,2.69,3.42,5.34,5.33,7.88,2.23,2.96,4.2,6.1,5.87,9.41,1.81,3.58,3,7.39,3.91,11.28,.41,1.77,.62,3.59,.92,5.39,.06,.38,.08,.78,.23,1.12,.86,1.98,.98,4.1,1.15,6.21,.28,3.54,.53,7.09,.78,10.64,.13,1.82,.25,3.64,.33,5.47,.26,5.95,.57,11.91,.73,17.86,.07,2.73-.09,5.48-.26,8.21-.17,2.78-.44,5.56-.7,8.33-.31,3.25-.64,6.5-.99,9.75-.21,1.96-.43,3.92-.71,5.87-.56,3.96-1.56,7.83-2.94,11.58-.49,1.34-1.22,2.6-1.88,3.88-.33,.64-.64,1.27-.81,1.99-.39,1.6-1.15,3.05-2.03,4.44-1.27,1.99-2.76,3.82-4.3,5.6-.28,.32-.58,.67-.95,.88-.74,.42-1.19,1.06-1.62,1.77-3.37,5.63-7.23,10.88-11.93,15.5-4.31,4.23-9.07,7.88-14.3,10.89-1.92,1.1-3.83,2.21-5.77,3.26-3.55,1.93-6.85,4.27-10.29,6.39-1.92,1.19-3.84,2.39-5.81,3.48-4.49,2.48-9.31,4.1-14.23,5.46-4.55,1.26-9.18,2.09-13.9,2.39-2.3,.15-4.59,.42-6.89,.62-.81,.07-1.63,.14-2.44,.15-3.36,.05-6.73,.08-10.09,.12-1.39,.02-2.79,.08-4.18,.06-1.58-.02-3.17-.06-4.75-.16-2.21-.14-4.41-.33-6.61-.52-1.05-.09-2.1-.22-3.15-.39-.54-.09-1.04-.09-1.56,.08-3.31,1.07-6.75,1.51-10.17,1.99-1.71,.24-3.43,.45-5.14,.69-1.77,.24-3.54,.18-5.32,.04-2.97-.25-5.94-.42-8.91-.68-3.64-.31-7.27-.65-10.91-1.01-5.07-.49-10.13-1.02-15.22-1.37-4.81-.33-9.61-.18-14.41,.07-2.01,.1-4.02,.4-6.02,.66-3.81,.49-7.62,1.03-11.43,1.51-2.43,.31-4.87,.51-7.33,.46-1.34-.03-2.69,.07-4.03,.1-.62,.02-1.25,.06-1.87,.03-2.88-.15-5.77-.18-8.63-.5-4.91-.54-9.13-2.54-12.38-6.37-1.1-1.3-1.96-2.73-2.59-4.3-1.31-3.29-2.08-6.7-2.22-10.24-.14-3.56-.19-7.11,.17-10.66,.14-1.34,.18-2.68,.27-4.03,.2-3.03,.77-6,1.39-8.97,.53-2.54,1.15-5.06,1.72-7.59,.09-.42,.16-.85,.21-1.28,.55-4.58,2.95-7.84,7.11-9.79,2.58-1.21,5.32-1.95,8.09-2.58,4.18-.95,8.42-1.48,12.69-1.78,5.81-.41,11.63-.38,17.44-.3,3.55,.05,7.1,.36,10.66,.51,4.37,.19,8.71,.79,13.06,1.19,2.87,.27,5.75,.42,8.63,.63,6.62,.5,13.25,.66,19.88,.71,5.86,.05,11.73,.09,17.59,.12,1.3,0,2.59-.08,3.89-.12,2.26-.06,4.52-.15,6.78-.15,7.84,0,15.67,.01,23.51,.08,3.51,.03,7.01-.21,10.51-.41,.56-.03,1.13-.19,1.67-.37,2.14-.72,4.26-1.48,6.4-2.2,.48-.16,.82-.42,1.11-.84,2.61-3.94,5.68-7.52,8.84-11.01,2.36-2.61,5.13-4.78,7.8-7.06,1.24-1.06,2.49-2.12,3.72-3.2,.5-.44,.96-.94,1.44-1.41,.81-.79,1.16-1.75,1.09-2.87-.07-1.25-.11-2.5-.23-3.74-.48-5.1-.27-10.17,.52-15.23,.71-4.53,.99-9.08,.39-13.65-.3-2.28-.71-4.56-1.15-6.82-.42-2.12-.9-4.23-1.44-6.32-.42-1.63-.97-3.22-1.46-4.83-.68-2.2-1.37-4.4-2.05-6.61-.1-.32-.16-.65-.27-.97-.31-.93-.81-1.28-1.82-1.31-1.01-.03-2.02-.02-3.02-.13-1.78-.19-3.47-.74-5.12-1.43-3.34-1.4-6.56-3.06-9.39-5.3-2.75-2.18-5.85-2.98-9.22-3.22-3.84-.28-7.69-.26-11.53-.15-7.21,.21-14.42,.15-21.63-.04-3.36-.09-6.73-.22-10.09-.33-5.24-.18-10.47-.46-15.71-.51-5.33-.05-10.67,.06-16,.26-3.16,.12-6.33,.43-9.44,1.08-.94,.2-1.85,.51-2.77,.78-.34,.1-.6,.31-.63,.7-.26,3.16-.83,6.3-.54,9.49,.25,2.68,.62,5.34,.92,8.02,.32,2.86,.7,5.72,.92,8.6,.1,1.33-.03,2.69-.22,4.02-.25,1.69-.91,3.24-2.16,4.47-.14,.13-.3,.27-.37,.43-.4,.89-1.16,1.07-2.03,1.07-1.17,0-2.31-.11-3.36-.67-1.19-.63-2.4-1.23-3.51-1.98-2.2-1.47-4.24-3.16-6.13-5.02-4.68-4.63-9.39-9.24-13.99-13.95-7.53-7.7-15.74-14.54-24.92-20.2-3.64-2.24-7.31-4.44-11.19-6.27-1.04-.49-2.03-1.09-3.04-1.65-1.27-.69-2.52-1.4-3.8-2.06-1.58-.82-3.1-1.73-4.53-2.81-2.45-1.86-4.95-3.66-7.37-5.55-1.24-.97-2.39-2.08-3.54-3.17-1.01-.97-1.79-2.13-2.38-3.41-.2-.43-.45-.85-.71-1.25-.79-1.26-.93-2.6-.54-4.01,.47-1.72,1.37-3.17,2.73-4.33,.58-.5,1.2-.96,1.85-1.38,1.9-1.23,3.83-2.4,5.72-3.64,1.61-1.05,3.2-2.13,4.75-3.26,1.56-1.13,2.91-2.5,4.22-3.92,3.03-3.28,6.09-6.55,9.2-9.75,3.72-3.82,8.11-6.76,12.67-9.47,3.1-1.84,6.24-3.61,9.34-5.45,5.02-2.98,9.63-6.51,13.81-10.6,2.34-2.29,4.65-4.6,6.97-6.89,1.99-1.96,4.02-3.86,6.32-5.46,2.18-1.52,4.56-2.47,7.23-2.58,.95-.04,1.93,0,2.87,.17,1.73,.31,2.81,1.38,3.15,3.14,.07,.38,.13,.76,.15,1.14,.31,4.7,.58,9.4,.94,14.1,.25,3.26,.65,6.5,.94,9.76,.37,4.14,.4,8.26-.86,12.28-.03,.09,0,.19,0,.35Z"/>
        <path class="cls-1" d="M75.21,145.71c.45-1.2,1.11-2.18,2.13-2.88,2.57-1.77,5.15-3.53,8.01-4.83,3.92-1.78,7.49-4.12,10.76-6.92,.65-.56,1.27-1.17,1.87-1.8,1.34-1.38,2.69-2.75,3.98-4.18,3.4-3.79,7.4-6.83,11.64-9.62,3.74-2.46,7.53-4.81,11.33-7.17,5.25-3.25,10.03-7.12,14.36-11.52,3.1-3.15,6.26-6.25,9.4-9.36,1.72-1.7,3.65-3.13,5.81-4.23,.81-.41,1.63-.81,2.67-.69,.06,.29,.16,.56,.15,.82-.05,2.83-.09,5.67-.18,8.5-.09,2.79-.1,5.57,.11,8.36,.1,1.34,.21,2.69,.18,4.03-.1,3.33,.18,6.63,.51,9.93,.2,1.97,.69,3.88,1.35,5.74,.19,.54,.43,1.07,.58,1.63,.21,.79,.72,1.25,1.48,1.41,.7,.15,1.42,.29,2.13,.3,.68,.01,1.33,.08,1.99,.22,2.58,.55,5.17,1.09,7.77,1.58,1.13,.21,2.28,.33,3.43,.42,6,.47,12,.39,18-.13,3.02-.26,6.04-.43,9.06-.71,2.73-.25,5.44-.61,8.17-.9,2.53-.27,5.07-.52,7.6-.76,2.78-.25,5.55-.49,8.33-.71,1.82-.15,3.64-.3,5.47-.38,6.24-.25,12.48-.71,18.74-.37,3.56,.19,7.09,.58,10.56,1.39,.47,.11,.95,.2,1.39,.37,4.01,1.53,8.22,2.34,12.36,3.39,4.34,1.1,8.63,2.32,12.83,3.86,1.53,.56,3.09,1.05,4.66,1.51,2.86,.83,5.6,2.01,8.4,3.03,.53,.19,1.02,.53,1.48,.87,1.35,1,2.66,2.07,4.03,3.03,2.83,2,5.48,4.23,8.12,6.47,3.71,3.14,6.69,6.91,8.94,11.21,2.17,4.15,4.67,8.07,7.36,11.88,2.79,3.95,4.91,8.25,6.9,12.63,.77,1.71,1.52,3.43,2.36,5.1,.55,1.09,.87,2.23,1.07,3.42,.22,1.33,.43,2.66,.71,3.97,.17,.77,.21,1.52,.12,2.29-.87,7.72-.64,15.46-.43,23.19,.11,4.18,.48,8.35,.63,12.53,.1,2.64,.06,5.29,0,7.93-.11,5.2-.87,10.34-1.51,15.49-.51,4.11-1.32,8.16-2.4,12.15-.32,1.2-.72,2.4-1.18,3.56-1.03,2.59-2.11,5.16-3.17,7.74-.04,.09-.08,.17-.11,.26-1,2.81-2.29,5.49-3.63,8.15-.19,.38-.42,.76-.69,1.09-.58,.7-1.2,1.38-1.8,2.06-1.75,1.98-3.52,3.95-5.25,5.95-3.97,4.59-8.18,8.94-12.91,12.76-3.3,2.67-6.88,4.92-10.71,6.75-5.17,2.47-10.16,5.23-14.97,8.36-7.3,4.75-15.29,7.82-23.87,9.34-2.7,.48-5.44,.66-8.18,.74-5.81,.17-11.63,.23-17.44,.4-2.5,.07-4.99,.28-7.48,.47-2.3,.17-4.6,.35-6.89,.59-1.87,.2-3.72,.22-5.6,.08-3.22-.24-6.43,.13-9.64,.38-4.41,.34-8.82,.74-13.25,.44-2.4-.17-4.78-.44-7.17-.7-4.2-.45-8.4-.97-12.63-1.1-2.93-.09-5.85-.39-8.77-.65-3.64-.32-7.28-.54-10.94-.28-.91,.07-1.83,.06-2.74,.05-3.18-.05-6.34,.3-9.47,.79-3.51,.55-7.01,1.18-10.53,1.69-2.14,.31-4.3,.51-6.45,.66-4.75,.33-9.5,.53-14.26,.32-1.63-.07-3.24-.32-4.84-.68-3.54-.81-5.81-3.05-7.21-6.27-.83-1.9-1.36-3.92-1.55-5.98-.27-2.82-.49-5.65-.56-8.48-.12-4.52,.11-9.03,.46-13.54,.18-2.3,.27-4.61,.42-6.91,.09-1.39,.17-2.78,.31-4.17,.05-.47,.17-.96,.38-1.38,.53-1.08,1.1-2.14,1.7-3.17,.77-1.33,1.95-2.23,3.29-2.94,1.89-.99,3.92-1.59,6-1.98,1.32-.25,2.66-.42,4-.53,6.76-.55,13.52-.91,20.31-.92,3.32,0,6.63-.02,9.95,.02,5.67,.08,11.33,.35,16.97,1.04,2.34,.29,4.69,.44,7.04,.6,3.88,.27,7.77,.51,11.65,.75,.72,.05,1.44,.07,2.16,.1,8.22,.29,16.44,.38,24.66,.38,2.55,0,5.1-.01,7.64-.02,3.56-.02,7.1-.3,10.65-.62,2.06-.19,4.12-.31,6.19-.34,6.58-.09,13.17-.14,19.75-.18,3.13-.02,6.24-.18,9.35-.56,2.49-.3,4.9-.95,7.25-1.82,.83-.31,1.55-.78,2.08-1.49,1.03-1.39,2.05-2.78,3.07-4.18,.45-.62,.88-1.26,1.33-1.88,.14-.19,.31-.37,.45-.56,2.6-3.43,5.65-6.41,8.95-9.16,1.96-1.63,3.91-3.27,5.81-4.96,.96-.86,1.86-1.81,2.7-2.8,1.49-1.75,2.22-3.83,2.16-6.12-.06-2.26-.25-4.51-.4-6.76-.15-2.11-.16-4.22,.02-6.34,.13-1.53,.19-3.07,.28-4.61,.16-2.83,.36-5.66,.47-8.49,.2-5.33-.58-10.53-1.88-15.69-1.32-5.2-3.29-10.14-5.39-15.05-.53-1.23-1.22-2.39-1.91-3.55-.49-.83-1.16-1.52-2.09-1.93-.3-.13-.56-.36-.83-.56-2.6-1.92-5.34-3.59-8.31-4.89-2.65-1.16-5.19-2.53-7.53-4.23-2.67-1.94-5.67-3.05-8.91-3.46-2.81-.36-5.64-.62-8.46-.81-2.64-.18-5.28-.24-7.92-.29-9.71-.16-19.42-.26-29.13-.44-3.8-.07-7.59-.28-11.39-.39-7.93-.22-15.86-.32-23.78,.23-2.49,.17-4.97,.5-7.42,1-2.25,.46-4.3,1.36-6.25,2.51-.67,.39-1.18,.98-1.59,1.64-.57,.9-.93,1.89-1.16,2.93-.63,2.78-.89,5.56-.67,8.44,.37,4.79,1.02,9.56,1.45,14.34,.2,2.24,.17,4.51,.2,6.77,0,.57-.1,1.15-.21,1.71-.1,.52-.33,1-.73,1.38-.54,.51-.93,.6-1.53,.16-.93-.68-1.86-1.37-2.71-2.14-1.17-1.07-2.29-2.2-3.38-3.35-3.54-3.74-7.03-7.51-10.58-11.24-3.51-3.69-7.05-7.36-10.6-11.02-.94-.96-1.93-1.88-2.95-2.75-3.9-3.35-7.73-6.79-11.79-9.95-2.51-1.96-5.08-3.78-7.95-5.19-3.84-1.89-7.64-3.84-11.45-5.79-5.04-2.57-9.65-5.76-13.66-9.78-.78-.78-1.61-1.52-2.44-2.24-1.17-1.01-2.44-1.87-3.88-2.45-.21-.09-.41-.22-.69-.37Z"/>
        <path d="M125.96,284.64c1.2-.07,3.13,.36,5.05,.78,.19,.04,.37,.1,.55,.17,.19,.08,.27,.51,.09,.62-.45,.27-.89,.57-1.38,.75-2.67,.95-5.36,1.83-8.14,2.42-2.16,.46-4.32,.9-6.48,1.38-1.03,.23-2.05,.51-3.06,.8-.51,.15-.95,.12-1.31-.28-.35-.39-.42-.86-.27-1.35,.24-.76,.75-1.33,1.35-1.83,1.46-1.22,3.09-2.15,4.96-2.53,2.59-.53,5.21-.88,8.65-.93Z"/>
        <path d="M313.93,147.75c.32,.11,.96,.23,1.47,.55,.68,.42,1.35,.94,1.89,1.52,2.17,2.34,3.91,4.98,5.3,7.85,.33,.69,.57,1.42,.84,2.14,.08,.22,.1,.47,.12,.7,.02,.23-.28,.47-.48,.39-.27-.1-.53-.22-.78-.36-3.43-2-6.43-4.52-9.08-7.47-.45-.5-.83-1.06-1.18-1.63-.22-.36-.37-.79-.45-1.2-.28-1.37,.66-2.49,2.36-2.5Z"/>
        <path d="M269.97,128.54c-.46,.08-.65,.13-.83,.13-3.64-.03-7.28-.08-10.92-.45-2.87-.29-5.71-.72-8.54-1.21-.47-.08-.93-.22-1.37-.41-.43-.19-.56-.74-.25-1.09,.28-.31,.63-.62,1-.78,.52-.22,1.1-.35,1.66-.42,1.91-.23,3.83-.25,5.74,0,3.48,.46,6.91,1.14,10.22,2.33,.85,.31,1.66,.73,2.48,1.13,.23,.12,.4,.37,.81,.75Z"/>
        <path d="M277.86,271.99c.09-.24,.23-.8,.49-1.3,.24-.46,.57-.89,.92-1.28,1.29-1.42,2.57-2.85,3.92-4.21,1.46-1.47,3.14-2.67,5.05-3.5,.39-.17,.81-.29,1.23-.38,.32-.08,.58,.22,.46,.52-.16,.4-.33,.8-.56,1.16-1.25,1.93-2.5,3.86-3.8,5.76-.95,1.38-1.95,2.73-2.98,4.05-.41,.52-.89,1.01-1.42,1.4-.69,.51-1.49,.66-2.29,.2-.8-.46-1.03-1.21-.99-2.41Z"/>
        <path d="M138.85,105.83c-1.27-.04-2.11-.74-2.32-1.72-.14-.68-.06-1.35,.29-1.95,.31-.53,.67-1.05,1.08-1.52,1.57-1.77,3.4-3.24,5.46-4.42,1.01-.58,2.07-1.02,3.22-1.2,.63-.1,.93,.24,.74,.83-.09,.27-.21,.54-.35,.79-1.47,2.65-3.1,5.19-5.26,7.35-.47,.47-.97,.95-1.52,1.3-.47,.3-1.05,.43-1.34,.54Z"/>
        <path d="M110.88,122.24c.04-.15,.08-.55,.25-.88,.27-.5,.55-1.04,.96-1.41,2.69-2.42,5.61-4.5,9.1-5.64,.45-.15,.93-.24,1.4-.32,.3-.05,.57,.33,.41,.58-.2,.32-.42,.65-.68,.92-1.42,1.5-2.84,2.99-4.28,4.46-.91,.92-1.85,1.8-2.78,2.71-.58,.57-1.18,1.13-1.96,1.44-1.35,.54-2.45-.2-2.43-1.86Z"/>
        <path d="M160.61,286.53c-.17,.3-.24,.64-.43,.73-.76,.39-1.53,.83-2.35,1.02-1.39,.33-2.82,.56-4.24,.72-1.61,.19-3.24,.29-4.87,.36-.56,.02-1.15-.11-1.68-.31-.88-.32-1.31-1.03-1.29-1.88,.03-.93,.55-1.55,1.38-1.82,.63-.2,1.33-.31,1.97-.25,2.05,.2,4.1,.44,6.12,.8,1.51,.27,3,.59,4.55,.47,.22-.02,.46,.08,.82,.14Z"/>
        <path d="M300.48,248.81c-.13,1.17-.21,2.13-.36,3.08-.12,.76-.41,1.48-.95,2.07-1.14,1.23-2.71,1.01-3.37-.52-.2-.47-.32-1.02-.3-1.53,.09-2.72,.69-5.33,1.95-7.75,.2-.38,.48-.72,.77-1.03,.33-.34,.75-.26,.92,.18,.31,.8,.64,1.61,.83,2.45,.25,1.07,.36,2.17,.5,3.06Z"/>
        <path d="M296.72,138.06c-.57,.31-.99,.15-1.4,.04-2.91-.82-5.82-1.64-8.73-2.48-.41-.12-.8-.32-1.16-.56-.42-.28-.65-.72-.55-1.25,.11-.57,.48-.99,1.04-1.07,.5-.07,1.08-.07,1.55,.11,2.7,1.03,5.34,2.18,7.74,3.8,.54,.37,1.13,.71,1.51,1.41Z"/>
      </g>
    </g>
  </g>
</svg>